%FSLAX33Y33*%
%MOMM*%
%ADD10C,0.2032*%
D10*
%LNbottom silkscreen_traces*%
%LNtext*%
G01*
X20507Y10851D02*
X20507Y10851D01*
X20468Y10854*
X20432Y10859*
X20400Y10866*
X20371Y10875*
X20344Y10885*
X20320Y10898*
X20298Y10912*
X20279Y10929*
X20261Y10949*
X20245Y10972*
X20230Y10998*
X20218Y11027*
X20209Y11057*
X20204Y11088*
X20203Y11120*
X20205Y11159*
X20214Y11195*
X20228Y11229*
X20248Y11260*
X20273Y11288*
X20303Y11311*
X20338Y11330*
X20378Y11345*
X20378Y11345*
X20347Y11363*
X20321Y11383*
X20298Y11405*
X20280Y11430*
X20266Y11457*
X20256Y11485*
X20250Y11513*
X20248Y11543*
X20250Y11574*
X20257Y11605*
X20268Y11635*
X20284Y11665*
X20304Y11692*
X20327Y11716*
X20354Y11736*
X20385Y11752*
X20420Y11764*
X20460Y11773*
X20505Y11778*
X20556Y11780*
X20904Y11780*
X20904Y10851*
X20550Y10851*
X20507Y10851*
X20782Y11390D02*
X20782Y11390D01*
X20580Y11390*
X20542Y11390*
X20510Y11392*
X20484Y11396*
X20463Y11400*
X20441Y11408*
X20422Y11419*
X20406Y11432*
X20392Y11447*
X20382Y11464*
X20374Y11483*
X20370Y11505*
X20368Y11528*
X20370Y11550*
X20374Y11571*
X20381Y11591*
X20391Y11609*
X20403Y11626*
X20418Y11639*
X20435Y11650*
X20454Y11658*
X20478Y11663*
X20510Y11667*
X20549Y11670*
X20596Y11671*
X20782Y11671*
X20782Y11390*
X20782Y10960D02*
X20782Y10960D01*
X20550Y10960*
X20522Y10960*
X20499Y10961*
X20480Y10962*
X20466Y10964*
X20446Y10969*
X20427Y10974*
X20410Y10981*
X20395Y10990*
X20381Y11000*
X20369Y11011*
X20358Y11025*
X20348Y11041*
X20340Y11059*
X20334Y11078*
X20331Y11098*
X20330Y11120*
X20331Y11145*
X20336Y11168*
X20345Y11190*
X20356Y11210*
X20371Y11228*
X20388Y11243*
X20408Y11255*
X20430Y11264*
X20457Y11271*
X20488Y11276*
X20525Y11279*
X20566Y11280*
X20782Y11280*
X20782Y10960*
X19411Y11796D02*
X19411Y11796D01*
X19502Y11796*
X19771Y10835*
X19680Y10835*
X19411Y11796*
X18288Y10959D02*
X18288Y10959D01*
X18882Y10959*
X18882Y10960*
X18826Y11026*
X18303Y11671*
X18303Y11780*
X18969Y11780*
X18969Y11671*
X18450Y11671*
X18450Y11671*
X18473Y11646*
X18497Y11619*
X18521Y11591*
X18546Y11560*
X19023Y10964*
X19023Y10851*
X18288Y10851*
X18288Y10959*
X51427Y19310D02*
X51427Y19310D01*
X51427Y19310*
X51427Y19475*
X51427Y19475*
X51427Y19500*
X51427Y19500*
X51426Y19522*
X51426Y19522*
X51424Y19540*
X51424Y19540*
X51422Y19554*
X51422Y19554*
X51417Y19570*
X51417Y19570*
X51411Y19587*
X51411Y19587*
X51403Y19603*
X51403Y19603*
X51394Y19619*
X51394Y19619*
X51381Y19635*
X51381Y19636*
X51365Y19653*
X51365Y19653*
X51345Y19672*
X51345Y19672*
X51322Y19691*
X51322Y19691*
X51293Y19713*
X51293Y19713*
X51259Y19737*
X51259Y19737*
X51219Y19764*
X51219Y19764*
X51174Y19794*
X51174Y19794*
X50951Y19936*
X50951Y20113*
X51242Y19927*
X51283Y19899*
X51320Y19870*
X51354Y19840*
X51385Y19809*
X51398Y19793*
X51411Y19773*
X51425Y19750*
X51438Y19723*
X51439Y19723*
X51453Y19796*
X51475Y19858*
X51503Y19910*
X51538Y19952*
X51580Y19984*
X51626Y20007*
X51676Y20021*
X51731Y20026*
X51774Y20023*
X51815Y20015*
X51855Y20001*
X51892Y19981*
X51926Y19957*
X51954Y19929*
X51977Y19897*
X51994Y19862*
X52007Y19820*
X52016Y19770*
X52021Y19711*
X52023Y19644*
X52023Y19168*
X50951Y19168*
X50951Y19310*
X51427Y19310*
X51550Y19310D02*
X51550Y19310D01*
X51550Y19615*
X51551Y19661*
X51555Y19702*
X51561Y19738*
X51570Y19768*
X51582Y19794*
X51596Y19816*
X51614Y19835*
X51634Y19851*
X51657Y19864*
X51681Y19873*
X51705Y19878*
X51731Y19880*
X51767Y19876*
X51800Y19866*
X51830Y19849*
X51856Y19825*
X51877Y19793*
X51893Y19753*
X51902Y19706*
X51905Y19650*
X51905Y19310*
X51550Y19310*
X51517Y20717D02*
X51517Y20717D01*
X51518Y20717*
X52023Y21094*
X52023Y20941*
X51739Y20725*
X51707Y20701*
X51676Y20679*
X51646Y20659*
X51616Y20640*
X51616Y20639*
X51642Y20624*
X51672Y20605*
X51708Y20581*
X51748Y20553*
X52023Y20358*
X52023Y20190*
X51510Y20556*
X51509Y20556*
X50951Y20141*
X50951Y20310*
X51325Y20580*
X51338Y20589*
X51356Y20600*
X51378Y20614*
X51405Y20631*
X51405Y20632*
X51386Y20644*
X51368Y20656*
X51350Y20667*
X51333Y20679*
X50951Y20949*
X50951Y21123*
X51517Y20717*
X36780Y12828D02*
X36780Y12828D01*
X36780Y12829*
X36488Y12829*
X36488Y12951*
X36780Y12951*
X36780Y12951*
X36780Y13243*
X36904Y13243*
X36904Y12951*
X36904Y12951*
X37196Y12951*
X37196Y12829*
X36904Y12829*
X36904Y12828*
X36904Y12534*
X36780Y12534*
X36780Y12828*
X16563Y35685D02*
X16563Y35685D01*
X16506Y35693*
X16449Y35706*
X16393Y35724*
X16338Y35748*
X16284Y35777*
X16230Y35811*
X16178Y35850*
X16178Y36247*
X16631Y36247*
X16631Y36122*
X16316Y36122*
X16316Y36121*
X16316Y35921*
X16316Y35921*
X16341Y35901*
X16341Y35901*
X16372Y35882*
X16372Y35882*
X16408Y35863*
X16408Y35863*
X16449Y35845*
X16449Y35845*
X16494Y35829*
X16494Y35829*
X16538Y35818*
X16538Y35818*
X16584Y35812*
X16584Y35812*
X16630Y35809*
X16630Y35809*
X16682Y35812*
X16682Y35812*
X16733Y35821*
X16733Y35821*
X16783Y35836*
X16783Y35836*
X16831Y35856*
X16831Y35856*
X16875Y35883*
X16875Y35883*
X16914Y35916*
X16914Y35916*
X16947Y35955*
X16947Y35955*
X16975Y36000*
X16975Y36000*
X16996Y36051*
X16996Y36051*
X17012Y36109*
X17012Y36109*
X17021Y36172*
X17021Y36172*
X17024Y36241*
X17024Y36241*
X17022Y36298*
X17022Y36298*
X17014Y36353*
X17014Y36353*
X17001Y36406*
X17001Y36406*
X16983Y36457*
X16983Y36457*
X16970Y36485*
X16970Y36485*
X16954Y36512*
X16954Y36512*
X16936Y36538*
X16936Y36538*
X16915Y36563*
X16915Y36563*
X16892Y36586*
X16892Y36586*
X16865Y36607*
X16865Y36607*
X16834Y36625*
X16834Y36625*
X16800Y36641*
X16800Y36641*
X16763Y36654*
X16763Y36654*
X16723Y36664*
X16723Y36664*
X16679Y36669*
X16679Y36669*
X16632Y36671*
X16632Y36671*
X16592Y36669*
X16592Y36669*
X16554Y36664*
X16554Y36664*
X16518Y36655*
X16518Y36655*
X16484Y36643*
X16484Y36643*
X16452Y36627*
X16452Y36627*
X16425Y36610*
X16425Y36610*
X16401Y36590*
X16401Y36590*
X16381Y36568*
X16381Y36567*
X16364Y36542*
X16364Y36542*
X16348Y36512*
X16348Y36512*
X16334Y36477*
X16334Y36477*
X16321Y36439*
X16194Y36474*
X16209Y36525*
X16228Y36571*
X16250Y36613*
X16275Y36649*
X16304Y36681*
X16338Y36709*
X16378Y36733*
X16422Y36754*
X16471Y36770*
X16522Y36782*
X16576Y36789*
X16633Y36792*
X16710Y36787*
X16784Y36775*
X16852Y36754*
X16916Y36726*
X16974Y36688*
X17024Y36642*
X17068Y36588*
X17104Y36524*
X17133Y36455*
X17153Y36383*
X17166Y36309*
X17170Y36232*
X17166Y36155*
X17153Y36081*
X17133Y36011*
X17104Y35946*
X17067Y35885*
X17022Y35833*
X16969Y35788*
X16909Y35750*
X16842Y35720*
X16772Y35699*
X16699Y35686*
X16622Y35682*
X16563Y35685*
X15124Y36773D02*
X15124Y36773D01*
X15259Y36773*
X15259Y35930*
X15259Y35930*
X15823Y36773*
X15968Y36773*
X15968Y35701*
X15833Y35701*
X15833Y36544*
X15833Y36544*
X15268Y35701*
X15124Y35701*
X15124Y36773*
X14449Y35702D02*
X14449Y35702D01*
X14405Y35705*
X14363Y35711*
X14324Y35719*
X14288Y35729*
X14255Y35741*
X14224Y35756*
X14196Y35773*
X14170Y35792*
X14145Y35815*
X14122Y35841*
X14099Y35870*
X14077Y35903*
X14058Y35940*
X14041Y35981*
X14026Y36026*
X14013Y36075*
X14004Y36127*
X13999Y36183*
X13997Y36243*
X14000Y36312*
X14008Y36378*
X14021Y36440*
X14039Y36498*
X14063Y36551*
X14092Y36599*
X14126Y36643*
X14166Y36681*
X14200Y36707*
X14238Y36728*
X14279Y36745*
X14323Y36758*
X14360Y36765*
X14404Y36769*
X14455Y36772*
X14514Y36773*
X14884Y36773*
X14884Y35701*
X14497Y35701*
X14449Y35702*
X14742Y35827D02*
X14742Y35827D01*
X14513Y35827*
X14463Y35828*
X14418Y35832*
X14379Y35838*
X14346Y35846*
X14318Y35857*
X14292Y35870*
X14269Y35885*
X14250Y35902*
X14226Y35930*
X14205Y35961*
X14187Y35998*
X14171Y36038*
X14159Y36083*
X14150Y36132*
X14145Y36186*
X14143Y36245*
X14146Y36324*
X14157Y36394*
X14174Y36454*
X14198Y36504*
X14227Y36545*
X14260Y36579*
X14295Y36606*
X14333Y36625*
X14366Y36635*
X14407Y36642*
X14458Y36646*
X14517Y36647*
X14742Y36647*
X14742Y35827*
X1594Y21724D02*
X1594Y21724D01*
X1593Y21724*
X1454Y21724*
X1454Y21724*
X1432Y21724*
X1432Y21724*
X1414Y21723*
X1414Y21723*
X1398Y21722*
X1398Y21722*
X1387Y21720*
X1387Y21720*
X1373Y21716*
X1373Y21716*
X1359Y21710*
X1359Y21710*
X1345Y21704*
X1345Y21704*
X1332Y21696*
X1332Y21696*
X1318Y21685*
X1318Y21685*
X1303Y21672*
X1303Y21672*
X1287Y21655*
X1287Y21655*
X1270Y21635*
X1270Y21635*
X1252Y21611*
X1252Y21611*
X1232Y21582*
X1232Y21582*
X1209Y21548*
X1209Y21548*
X1183Y21509*
X1183Y21509*
X1063Y21321*
X0913Y21321*
X1071Y21567*
X1095Y21602*
X1119Y21634*
X1145Y21662*
X1171Y21688*
X1184Y21699*
X1201Y21710*
X1221Y21722*
X1243Y21733*
X1243Y21734*
X1182Y21746*
X1129Y21764*
X1085Y21788*
X1050Y21818*
X1022Y21853*
X1003Y21892*
X0991Y21935*
X0987Y21981*
X0990Y22018*
X0997Y22053*
X1008Y22086*
X1025Y22118*
X1045Y22146*
X1069Y22170*
X1096Y22190*
X1126Y22204*
X1161Y22215*
X1204Y22222*
X1253Y22227*
X1310Y22229*
X1713Y22229*
X1713Y21321*
X1594Y21321*
X1594Y21724*
X1593Y21828D02*
X1593Y21828D01*
X1335Y21828*
X1296Y21829*
X1261Y21832*
X1231Y21837*
X1206Y21845*
X1184Y21855*
X1165Y21867*
X1148Y21882*
X1135Y21899*
X1124Y21919*
X1117Y21939*
X1112Y21959*
X1111Y21981*
X1114Y22012*
X1122Y22040*
X1137Y22065*
X1158Y22087*
X1184Y22105*
X1218Y22118*
X1258Y22126*
X1305Y22129*
X1593Y22129*
X1593Y21828*
X49347Y19580D02*
X49347Y19580D01*
X49348Y19581*
X49348Y19936*
X49473Y19936*
X49473Y19086*
X49348Y19086*
X49348Y19439*
X49347Y19439*
X48401Y19439*
X48401Y19580*
X49347Y19580*
X48967Y20550D02*
X48967Y20550D01*
X48968Y20550*
X49473Y20927*
X49473Y20774*
X49189Y20558*
X49157Y20534*
X49126Y20512*
X49096Y20492*
X49066Y20473*
X49066Y20472*
X49092Y20457*
X49122Y20437*
X49158Y20414*
X49198Y20385*
X49473Y20191*
X49473Y20023*
X48960Y20389*
X48959Y20389*
X48401Y19974*
X48401Y20143*
X48775Y20413*
X48788Y20422*
X48806Y20433*
X48828Y20447*
X48855Y20464*
X48855Y20465*
X48836Y20477*
X48818Y20488*
X48800Y20500*
X48783Y20512*
X48401Y20782*
X48401Y20956*
X48967Y20550*
X1232Y23814D02*
X1232Y23814D01*
X1183Y23821*
X1135Y23832*
X1088Y23847*
X1041Y23867*
X0995Y23892*
X0950Y23920*
X0905Y23953*
X0905Y24290*
X1289Y24289*
X1289Y24184*
X1022Y24184*
X1022Y24183*
X1022Y24014*
X1022Y24014*
X1044Y23997*
X1044Y23997*
X1070Y23980*
X1070Y23980*
X1100Y23965*
X1100Y23965*
X1135Y23949*
X1135Y23949*
X1173Y23936*
X1173Y23936*
X1211Y23927*
X1211Y23927*
X1249Y23921*
X1249Y23921*
X1288Y23919*
X1288Y23919*
X1332Y23922*
X1333Y23922*
X1376Y23929*
X1376Y23929*
X1418Y23942*
X1418Y23942*
X1458Y23959*
X1458Y23959*
X1496Y23981*
X1496Y23981*
X1529Y24009*
X1529Y24009*
X1557Y24042*
X1557Y24042*
X1580Y24081*
X1580Y24081*
X1599Y24124*
X1599Y24124*
X1612Y24173*
X1612Y24173*
X1620Y24226*
X1620Y24226*
X1622Y24284*
X1622Y24284*
X1620Y24333*
X1620Y24333*
X1614Y24379*
X1614Y24379*
X1603Y24424*
X1603Y24424*
X1587Y24467*
X1587Y24467*
X1576Y24491*
X1576Y24491*
X1563Y24514*
X1563Y24515*
X1547Y24536*
X1547Y24537*
X1530Y24557*
X1530Y24558*
X1510Y24577*
X1510Y24577*
X1487Y24595*
X1487Y24595*
X1461Y24610*
X1461Y24610*
X1433Y24624*
X1433Y24624*
X1401Y24635*
X1401Y24635*
X1367Y24643*
X1367Y24643*
X1330Y24647*
X1330Y24647*
X1290Y24649*
X1290Y24649*
X1256Y24647*
X1256Y24647*
X1224Y24643*
X1224Y24643*
X1194Y24635*
X1194Y24635*
X1165Y24625*
X1164Y24625*
X1138Y24612*
X1138Y24612*
X1114Y24597*
X1114Y24597*
X1094Y24580*
X1094Y24580*
X1077Y24561*
X1077Y24561*
X1063Y24539*
X1063Y24539*
X1050Y24514*
X1050Y24514*
X1037Y24485*
X1037Y24485*
X1027Y24452*
X0919Y24482*
X0932Y24525*
X0948Y24564*
X0966Y24599*
X0988Y24630*
X1012Y24657*
X1042Y24681*
X1075Y24701*
X1112Y24719*
X1153Y24733*
X1197Y24743*
X1243Y24749*
X1291Y24751*
X1356Y24747*
X1418Y24737*
X1476Y24719*
X1530Y24695*
X1579Y24663*
X1622Y24624*
X1659Y24578*
X1690Y24524*
X1714Y24466*
X1731Y24405*
X1742Y24342*
X1745Y24277*
X1742Y24212*
X1731Y24149*
X1714Y24090*
X1689Y24035*
X1658Y23984*
X1620Y23939*
X1576Y23901*
X1524Y23869*
X1468Y23844*
X1409Y23826*
X1347Y23815*
X1281Y23812*
X1232Y23814*
X1225Y18761D02*
X1225Y18761D01*
X1187Y18764*
X1152Y18769*
X1120Y18776*
X1092Y18784*
X1066Y18794*
X1042Y18807*
X1021Y18821*
X1002Y18837*
X0985Y18857*
X0969Y18879*
X0955Y18905*
X0943Y18933*
X0934Y18962*
X0929Y18992*
X0928Y19024*
X0930Y19062*
X0939Y19097*
X0953Y19131*
X0972Y19161*
X0996Y19188*
X1026Y19211*
X1060Y19229*
X1099Y19243*
X1099Y19244*
X1069Y19261*
X1043Y19281*
X1021Y19303*
X1003Y19327*
X0989Y19353*
X0980Y19380*
X0974Y19408*
X0972Y19437*
X0974Y19467*
X0981Y19498*
X0992Y19527*
X1007Y19556*
X1027Y19583*
X1050Y19606*
X1076Y19625*
X1106Y19641*
X1140Y19653*
X1179Y19662*
X1223Y19667*
X1273Y19669*
X1613Y19669*
X1613Y18761*
X1267Y18761*
X1225Y18761*
X1493Y19287D02*
X1493Y19287D01*
X1297Y19287*
X1260Y19288*
X1228Y19290*
X1202Y19293*
X1182Y19298*
X1161Y19306*
X1142Y19316*
X1126Y19328*
X1113Y19343*
X1103Y19360*
X1095Y19379*
X1091Y19399*
X1090Y19422*
X1091Y19444*
X1095Y19465*
X1102Y19484*
X1111Y19502*
X1123Y19518*
X1138Y19531*
X1154Y19541*
X1173Y19549*
X1197Y19555*
X1228Y19559*
X1266Y19561*
X1312Y19562*
X1493Y19562*
X1493Y19287*
X1493Y18867D02*
X1493Y18867D01*
X1267Y18867*
X1240Y18868*
X1217Y18868*
X1199Y18870*
X1185Y18872*
X1165Y18876*
X1147Y18882*
X1131Y18888*
X1116Y18896*
X1102Y18906*
X1090Y18918*
X1079Y18931*
X1070Y18947*
X1062Y18964*
X1056Y18983*
X1053Y19002*
X1052Y19024*
X1053Y19048*
X1058Y19071*
X1066Y19092*
X1078Y19112*
X1092Y19129*
X1109Y19144*
X1128Y19156*
X1150Y19165*
X1176Y19171*
X1206Y19176*
X1242Y19179*
X1283Y19180*
X1493Y19180*
X1493Y18867*
X42447Y8906D02*
X42447Y8906D01*
X42986Y8906*
X42986Y8730*
X42447Y8730*
X42447Y8906*
X18247Y6306D02*
X18247Y6306D01*
X18786Y6306*
X18786Y6130*
X18247Y6130*
X18247Y6306*
X44712Y4230D02*
X44712Y4230D01*
X44844Y4230*
X45201Y3301*
X45071Y3301*
X44969Y3582*
X44969Y3582*
X44580Y3582*
X44579Y3582*
X44471Y3301*
X44332Y3301*
X44712Y4230*
X44716Y3940D02*
X44716Y3940D01*
X44716Y3940*
X44736Y3996*
X44736Y3996*
X44754Y4047*
X44754Y4047*
X44769Y4092*
X44769Y4092*
X44781Y4131*
X44790Y4088*
X44790Y4088*
X44802Y4043*
X44802Y4043*
X44815Y3999*
X44815Y3999*
X44831Y3955*
X44831Y3955*
X44933Y3683*
X44619Y3683*
X44716Y3940*
X43683Y4246D02*
X43683Y4246D01*
X43773Y4246*
X44043Y3285*
X43952Y3285*
X43683Y4246*
X42859Y3694D02*
X42859Y3694D01*
X42859Y3694*
X42489Y4230*
X42631Y4230*
X42811Y3957*
X42840Y3912*
X42866Y3870*
X42890Y3830*
X42913Y3792*
X42913Y3792*
X42936Y3832*
X42959Y3871*
X42983Y3910*
X43008Y3950*
X43191Y4230*
X43340Y4230*
X42982Y3694*
X42982Y3694*
X42982Y3301*
X42859Y3301*
X42859Y3694*
X36986Y6987D02*
X36986Y6987D01*
X36940Y6994*
X36897Y7005*
X36856Y7021*
X36818Y7041*
X36786Y7065*
X36757Y7092*
X36734Y7123*
X36715Y7156*
X36702Y7191*
X36694Y7226*
X36691Y7263*
X36694Y7299*
X36701Y7333*
X36713Y7365*
X36730Y7395*
X36752Y7422*
X36779Y7447*
X36812Y7470*
X36850Y7490*
X36884Y7503*
X36929Y7517*
X36986Y7532*
X37056Y7549*
X37056Y7549*
X37124Y7566*
X37124Y7566*
X37177Y7582*
X37177Y7582*
X37216Y7599*
X37216Y7599*
X37241Y7615*
X37242Y7615*
X37257Y7633*
X37257Y7633*
X37269Y7652*
X37269Y7652*
X37276Y7674*
X37276Y7674*
X37278Y7698*
X37278Y7698*
X37275Y7726*
X37275Y7726*
X37265Y7752*
X37265Y7752*
X37249Y7776*
X37249Y7776*
X37227Y7797*
X37227Y7797*
X37197Y7815*
X37197Y7815*
X37160Y7828*
X37160Y7828*
X37116Y7836*
X37116Y7836*
X37063Y7838*
X37063Y7838*
X37013Y7836*
X37013Y7836*
X36969Y7827*
X36969Y7827*
X36932Y7813*
X36932Y7813*
X36901Y7793*
X36901Y7793*
X36876Y7768*
X36876Y7768*
X36857Y7737*
X36857Y7737*
X36844Y7701*
X36844Y7701*
X36836Y7660*
X36719Y7669*
X36723Y7708*
X36732Y7746*
X36746Y7781*
X36765Y7815*
X36788Y7845*
X36816Y7872*
X36849Y7894*
X36886Y7913*
X36927Y7927*
X36971Y7938*
X37018Y7944*
X37069Y7946*
X37114Y7944*
X37158Y7938*
X37200Y7928*
X37239Y7914*
X37275Y7897*
X37307Y7875*
X37333Y7850*
X37356Y7821*
X37373Y7790*
X37386Y7758*
X37393Y7725*
X37396Y7690*
X37394Y7659*
X37387Y7629*
X37377Y7601*
X37363Y7574*
X37345Y7550*
X37322Y7527*
X37295Y7506*
X37264Y7488*
X37233Y7474*
X37193Y7460*
X37144Y7445*
X37084Y7430*
X37026Y7416*
X37026Y7416*
X36979Y7403*
X36979Y7403*
X36943Y7393*
X36943Y7393*
X36919Y7385*
X36919Y7385*
X36891Y7373*
X36891Y7373*
X36868Y7360*
X36868Y7360*
X36849Y7345*
X36849Y7345*
X36835Y7329*
X36835Y7329*
X36823Y7312*
X36823Y7312*
X36815Y7294*
X36815Y7294*
X36811Y7274*
X36811Y7274*
X36809Y7253*
X36809Y7253*
X36811Y7231*
X36811Y7231*
X36816Y7211*
X36816Y7211*
X36824Y7191*
X36824Y7191*
X36835Y7173*
X36835Y7173*
X36850Y7155*
X36850Y7155*
X36869Y7140*
X36869Y7140*
X36891Y7127*
X36891Y7127*
X36916Y7115*
X36916Y7115*
X36944Y7106*
X36944Y7106*
X36974Y7099*
X36974Y7099*
X37006Y7095*
X37006Y7095*
X37041Y7094*
X37041Y7094*
X37079Y7096*
X37079Y7096*
X37116Y7101*
X37116Y7101*
X37151Y7110*
X37151Y7110*
X37184Y7122*
X37184Y7122*
X37213Y7137*
X37213Y7137*
X37239Y7154*
X37239Y7154*
X37260Y7173*
X37260Y7173*
X37277Y7194*
X37277Y7194*
X37291Y7218*
X37291Y7218*
X37302Y7245*
X37302Y7245*
X37310Y7276*
X37310Y7276*
X37316Y7309*
X37431Y7299*
X37427Y7254*
X37417Y7211*
X37401Y7170*
X37380Y7132*
X37354Y7097*
X37322Y7067*
X37287Y7042*
X37246Y7021*
X37201Y7005*
X37151Y6994*
X37095Y6987*
X37035Y6985*
X36986Y6987*
X1300Y26918D02*
X1300Y26918D01*
X1300Y26919*
X1008Y26919*
X1008Y27041*
X1300Y27041*
X1300Y27041*
X1300Y27333*
X1424Y27333*
X1424Y27041*
X1424Y27041*
X1716Y27041*
X1716Y26919*
X1424Y26919*
X1424Y26918*
X1424Y26624*
X1300Y26624*
X1300Y26918*
X13000Y5218D02*
X13000Y5218D01*
X13000Y5219*
X12708Y5219*
X12708Y5341*
X13000Y5341*
X13000Y5341*
X13000Y5633*
X13124Y5633*
X13124Y5341*
X13124Y5341*
X13416Y5341*
X13416Y5219*
X13124Y5219*
X13124Y5218*
X13124Y4924*
X13000Y4924*
X13000Y5218*
X16642Y32728D02*
X16642Y32728D01*
X16726Y32728*
X16746Y32693*
X16746Y32693*
X16772Y32657*
X16772Y32657*
X16805Y32621*
X16805Y32621*
X16843Y32584*
X16843Y32584*
X16886Y32549*
X16886Y32549*
X16933Y32516*
X16933Y32516*
X16983Y32486*
X16983Y32486*
X17036Y32458*
X17036Y32332*
X17005Y32344*
X16971Y32360*
X16936Y32378*
X16898Y32400*
X16861Y32422*
X16828Y32445*
X16799Y32468*
X16773Y32491*
X16772Y32490*
X16772Y31651*
X16642Y31651*
X16642Y32728*
X15611Y31776D02*
X15611Y31776D01*
X16138Y31776*
X16138Y31777*
X16126Y31795*
X16126Y31795*
X16113Y31813*
X16113Y31813*
X16098Y31831*
X16098Y31831*
X16082Y31848*
X16082Y31848*
X16060Y31870*
X16060Y31870*
X16027Y31900*
X16027Y31900*
X15984Y31938*
X15984Y31938*
X15930Y31984*
X15864Y32040*
X15808Y32091*
X15762Y32135*
X15726Y32173*
X15698Y32207*
X15674Y32240*
X15654Y32272*
X15639Y32304*
X15627Y32335*
X15619Y32366*
X15614Y32398*
X15613Y32430*
X15618Y32491*
X15635Y32546*
X15663Y32597*
X15703Y32642*
X15752Y32679*
X15809Y32706*
X15874Y32722*
X15947Y32728*
X16019Y32723*
X16084Y32708*
X16141Y32683*
X16190Y32648*
X16231Y32604*
X16262Y32551*
X16283Y32489*
X16295Y32418*
X16160Y32404*
X16157Y32452*
X16157Y32452*
X16146Y32494*
X16146Y32494*
X16128Y32531*
X16128Y32531*
X16102Y32562*
X16102Y32562*
X16071Y32587*
X16071Y32587*
X16036Y32605*
X16036Y32605*
X15995Y32616*
X15995Y32616*
X15950Y32620*
X15950Y32620*
X15907Y32616*
X15907Y32616*
X15868Y32606*
X15868Y32606*
X15834Y32589*
X15833Y32589*
X15803Y32566*
X15803Y32566*
X15779Y32537*
X15779Y32537*
X15761Y32505*
X15761Y32505*
X15751Y32471*
X15751Y32471*
X15747Y32433*
X15747Y32433*
X15751Y32395*
X15751Y32395*
X15762Y32356*
X15763Y32356*
X15782Y32316*
X15782Y32315*
X15809Y32274*
X15809Y32274*
X15847Y32228*
X15847Y32228*
X15899Y32175*
X15899Y32175*
X15965Y32115*
X15965Y32115*
X16045Y32047*
X16045Y32047*
X16098Y32002*
X16145Y31960*
X16185Y31921*
X16218Y31884*
X16246Y31849*
X16269Y31813*
X16289Y31777*
X16304Y31741*
X16312Y31719*
X16317Y31697*
X16319Y31674*
X16320Y31651*
X15611Y31651*
X15611Y31776*
X14543Y32723D02*
X14543Y32723D01*
X14687Y32723*
X14977Y31944*
X14993Y31900*
X15008Y31856*
X15022Y31812*
X15035Y31767*
X15036Y31767*
X15048Y31810*
X15062Y31853*
X15076Y31897*
X15093Y31944*
X15371Y32723*
X15524Y32723*
X15109Y31651*
X14964Y31651*
X14543Y32723*
X43563Y5841D02*
X43563Y5841D01*
X43524Y5844*
X43488Y5849*
X43455Y5856*
X43423Y5865*
X43394Y5876*
X43368Y5889*
X43344Y5903*
X43321Y5920*
X43300Y5939*
X43279Y5962*
X43259Y5987*
X43241Y6016*
X43224Y6048*
X43209Y6083*
X43196Y6123*
X43185Y6165*
X43177Y6210*
X43172Y6259*
X43171Y6310*
X43173Y6371*
X43180Y6428*
X43191Y6481*
X43207Y6531*
X43228Y6578*
X43253Y6619*
X43283Y6657*
X43317Y6690*
X43347Y6712*
X43380Y6731*
X43415Y6746*
X43454Y6757*
X43485Y6763*
X43524Y6767*
X43568Y6769*
X43619Y6770*
X43939Y6770*
X43939Y5841*
X43604Y5841*
X43563Y5841*
X43817Y5950D02*
X43817Y5950D01*
X43618Y5950*
X43574Y5951*
X43536Y5954*
X43502Y5959*
X43473Y5967*
X43449Y5976*
X43426Y5988*
X43407Y6001*
X43390Y6015*
X43369Y6039*
X43351Y6067*
X43335Y6098*
X43322Y6133*
X43311Y6172*
X43303Y6215*
X43299Y6262*
X43297Y6312*
X43300Y6381*
X43309Y6441*
X43324Y6493*
X43345Y6537*
X43371Y6573*
X43398Y6602*
X43429Y6625*
X43462Y6642*
X43490Y6650*
X43526Y6656*
X43570Y6660*
X43621Y6661*
X43817Y6661*
X43817Y5950*
X42447Y5949D02*
X42447Y5949D01*
X42903Y5949*
X42904Y5950*
X42893Y5966*
X42893Y5966*
X42882Y5981*
X42882Y5981*
X42869Y5997*
X42869Y5997*
X42855Y6012*
X42855Y6012*
X42836Y6031*
X42836Y6031*
X42808Y6057*
X42808Y6057*
X42770Y6090*
X42770Y6090*
X42723Y6129*
X42666Y6178*
X42618Y6222*
X42578Y6260*
X42547Y6293*
X42522Y6322*
X42502Y6351*
X42485Y6379*
X42471Y6406*
X42461Y6433*
X42454Y6461*
X42450Y6488*
X42449Y6516*
X42453Y6569*
X42468Y6617*
X42492Y6660*
X42526Y6700*
X42569Y6732*
X42618Y6755*
X42675Y6769*
X42738Y6774*
X42801Y6770*
X42857Y6757*
X42906Y6735*
X42949Y6705*
X42984Y6667*
X43011Y6621*
X43030Y6567*
X43040Y6506*
X42923Y6494*
X42920Y6535*
X42920Y6535*
X42910Y6571*
X42910Y6571*
X42895Y6603*
X42895Y6603*
X42873Y6631*
X42873Y6631*
X42846Y6652*
X42846Y6652*
X42815Y6668*
X42815Y6668*
X42780Y6677*
X42780Y6677*
X42741Y6680*
X42741Y6680*
X42703Y6677*
X42703Y6677*
X42670Y6669*
X42670Y6669*
X42640Y6654*
X42640Y6654*
X42614Y6634*
X42614Y6633*
X42592Y6609*
X42592Y6609*
X42577Y6581*
X42577Y6581*
X42568Y6551*
X42568Y6551*
X42565Y6519*
X42565Y6519*
X42568Y6486*
X42568Y6486*
X42578Y6452*
X42578Y6452*
X42595Y6417*
X42595Y6417*
X42618Y6381*
X42618Y6381*
X42651Y6341*
X42651Y6341*
X42696Y6295*
X42696Y6295*
X42754Y6243*
X42754Y6243*
X42823Y6184*
X42823Y6184*
X42869Y6145*
X42910Y6108*
X42944Y6074*
X42973Y6043*
X42997Y6012*
X43018Y5981*
X43035Y5950*
X43048Y5919*
X43054Y5900*
X43059Y5880*
X43061Y5860*
X43061Y5841*
X42447Y5841*
X42447Y5949*
X40852Y19519D02*
X40852Y19519D01*
X40855Y19564*
X40861Y19605*
X40868Y19642*
X40878Y19676*
X40891Y19707*
X40905Y19735*
X40921Y19760*
X40941Y19782*
X40964Y19803*
X40991Y19821*
X41021Y19838*
X41054Y19852*
X41089Y19862*
X41124Y19868*
X41161Y19870*
X41207Y19867*
X41249Y19857*
X41288Y19841*
X41324Y19818*
X41355Y19789*
X41382Y19754*
X41404Y19714*
X41421Y19668*
X41422Y19668*
X41442Y19704*
X41465Y19734*
X41491Y19760*
X41520Y19781*
X41551Y19797*
X41582Y19809*
X41615Y19816*
X41649Y19818*
X41686Y19816*
X41721Y19808*
X41756Y19794*
X41791Y19776*
X41822Y19753*
X41849Y19726*
X41872Y19695*
X41891Y19660*
X41905Y19620*
X41915Y19573*
X41921Y19521*
X41923Y19463*
X41923Y19060*
X40851Y19060*
X40851Y19469*
X40852Y19519*
X41473Y19202D02*
X41473Y19202D01*
X41473Y19434*
X41473Y19478*
X41476Y19515*
X41480Y19546*
X41485Y19570*
X41494Y19595*
X41506Y19617*
X41521Y19636*
X41538Y19651*
X41558Y19663*
X41581Y19672*
X41605Y19677*
X41632Y19679*
X41658Y19677*
X41682Y19672*
X41705Y19664*
X41726Y19653*
X41745Y19639*
X41761Y19622*
X41773Y19602*
X41782Y19580*
X41789Y19552*
X41793Y19515*
X41796Y19470*
X41797Y19417*
X41797Y19202*
X41473Y19202*
X40977Y19202D02*
X40977Y19202D01*
X40977Y19469*
X40977Y19501*
X40978Y19528*
X40980Y19549*
X40982Y19566*
X40987Y19589*
X40994Y19611*
X41002Y19631*
X41011Y19648*
X41023Y19664*
X41036Y19678*
X41052Y19691*
X41071Y19702*
X41091Y19711*
X41113Y19718*
X41136Y19722*
X41161Y19723*
X41190Y19722*
X41217Y19716*
X41243Y19706*
X41266Y19693*
X41286Y19676*
X41303Y19656*
X41317Y19633*
X41328Y19607*
X41336Y19577*
X41341Y19541*
X41345Y19499*
X41346Y19450*
X41346Y19202*
X40977Y19202*
X40976Y20731D02*
X40976Y20731D01*
X40976Y20202*
X40976Y20202*
X41923Y20202*
X41923Y20061*
X40851Y20061*
X40851Y20731*
X40976Y20731*
X41489Y21312D02*
X41489Y21312D01*
X41489Y21312*
X41923Y21761*
X41923Y21570*
X41391Y21037*
X41391Y21036*
X41923Y21036*
X41923Y20895*
X40851Y20895*
X40851Y21036*
X41222Y21036*
X41222Y21036*
X41394Y21212*
X41394Y21213*
X40851Y21595*
X40851Y21781*
X41489Y21312*
X18546Y8237D02*
X18546Y8237D01*
X18500Y8244*
X18457Y8255*
X18416Y8271*
X18378Y8291*
X18346Y8315*
X18317Y8342*
X18294Y8373*
X18275Y8406*
X18262Y8441*
X18254Y8476*
X18251Y8513*
X18254Y8549*
X18261Y8583*
X18273Y8615*
X18290Y8645*
X18312Y8672*
X18339Y8697*
X18372Y8720*
X18410Y8740*
X18444Y8753*
X18489Y8767*
X18546Y8782*
X18616Y8799*
X18616Y8799*
X18684Y8816*
X18684Y8816*
X18737Y8832*
X18737Y8832*
X18776Y8849*
X18776Y8849*
X18801Y8865*
X18802Y8865*
X18817Y8883*
X18817Y8883*
X18829Y8902*
X18829Y8902*
X18836Y8924*
X18836Y8924*
X18838Y8948*
X18838Y8948*
X18835Y8976*
X18835Y8976*
X18825Y9002*
X18825Y9002*
X18809Y9026*
X18809Y9026*
X18787Y9047*
X18787Y9047*
X18757Y9065*
X18757Y9065*
X18720Y9078*
X18720Y9078*
X18676Y9086*
X18676Y9086*
X18623Y9088*
X18623Y9088*
X18573Y9086*
X18573Y9086*
X18529Y9077*
X18529Y9077*
X18492Y9063*
X18492Y9063*
X18461Y9043*
X18461Y9043*
X18436Y9018*
X18436Y9018*
X18417Y8987*
X18417Y8987*
X18404Y8951*
X18404Y8951*
X18396Y8910*
X18279Y8919*
X18283Y8958*
X18292Y8996*
X18306Y9031*
X18325Y9065*
X18348Y9095*
X18376Y9122*
X18409Y9144*
X18446Y9163*
X18487Y9177*
X18531Y9188*
X18578Y9194*
X18629Y9196*
X18674Y9194*
X18718Y9188*
X18760Y9178*
X18799Y9164*
X18835Y9147*
X18867Y9125*
X18893Y9100*
X18916Y9071*
X18933Y9040*
X18946Y9008*
X18953Y8975*
X18956Y8940*
X18954Y8909*
X18947Y8879*
X18937Y8851*
X18923Y8824*
X18905Y8800*
X18882Y8777*
X18855Y8756*
X18824Y8738*
X18793Y8724*
X18753Y8710*
X18704Y8695*
X18644Y8680*
X18586Y8666*
X18586Y8666*
X18539Y8653*
X18539Y8653*
X18503Y8643*
X18503Y8643*
X18479Y8635*
X18479Y8635*
X18451Y8623*
X18451Y8623*
X18428Y8610*
X18428Y8610*
X18409Y8595*
X18409Y8595*
X18395Y8579*
X18395Y8579*
X18383Y8562*
X18383Y8562*
X18375Y8544*
X18375Y8544*
X18371Y8524*
X18371Y8524*
X18369Y8503*
X18369Y8503*
X18371Y8481*
X18371Y8481*
X18376Y8461*
X18376Y8461*
X18384Y8441*
X18384Y8441*
X18395Y8423*
X18395Y8423*
X18410Y8405*
X18410Y8405*
X18429Y8390*
X18429Y8390*
X18451Y8377*
X18451Y8377*
X18476Y8365*
X18476Y8365*
X18504Y8356*
X18504Y8356*
X18534Y8349*
X18534Y8349*
X18566Y8345*
X18566Y8345*
X18601Y8344*
X18601Y8344*
X18639Y8346*
X18639Y8346*
X18676Y8351*
X18676Y8351*
X18711Y8360*
X18711Y8360*
X18744Y8372*
X18744Y8372*
X18773Y8387*
X18773Y8387*
X18799Y8404*
X18799Y8404*
X18820Y8423*
X18820Y8423*
X18837Y8444*
X18837Y8444*
X18851Y8468*
X18851Y8468*
X18862Y8495*
X18862Y8495*
X18870Y8526*
X18870Y8526*
X18876Y8559*
X18991Y8549*
X18987Y8504*
X18977Y8461*
X18961Y8420*
X18940Y8382*
X18914Y8347*
X18882Y8317*
X18847Y8292*
X18806Y8271*
X18761Y8255*
X18711Y8244*
X18655Y8237*
X18595Y8235*
X18546Y8237*
X37083Y21652D02*
X37083Y21652D01*
X37008Y21658*
X36939Y21668*
X36874Y21681*
X36814Y21698*
X36758Y21719*
X36707Y21743*
X36661Y21771*
X36617Y21803*
X36576Y21841*
X36536Y21884*
X36498Y21933*
X36462Y21988*
X36430Y22050*
X36401Y22118*
X36376Y22193*
X36355Y22275*
X36340Y22362*
X36331Y22456*
X36328Y22555*
X36333Y22671*
X36346Y22780*
X36368Y22883*
X36398Y22980*
X36438Y23069*
X36486Y23149*
X36544Y23221*
X36610Y23285*
X36667Y23328*
X36730Y23364*
X36798Y23392*
X36872Y23413*
X36933Y23425*
X37007Y23433*
X37093Y23437*
X37191Y23439*
X37807Y23439*
X37807Y21651*
X37161Y21651*
X37083Y21652*
X37570Y21861D02*
X37570Y21861D01*
X37188Y21861*
X37105Y21863*
X37030Y21869*
X36966Y21880*
X36911Y21894*
X36863Y21912*
X36820Y21934*
X36782Y21959*
X36750Y21987*
X36710Y22033*
X36675Y22086*
X36645Y22146*
X36619Y22213*
X36598Y22288*
X36584Y22371*
X36575Y22461*
X36572Y22558*
X36578Y22690*
X36595Y22806*
X36624Y22906*
X36664Y22990*
X36713Y23059*
X36766Y23116*
X36825Y23160*
X36888Y23192*
X36943Y23208*
X37012Y23219*
X37096Y23226*
X37194Y23228*
X37570Y23228*
X37570Y21861*
X35809Y23439D02*
X35809Y23439D01*
X36028Y23439*
X36028Y23187*
X35809Y23187*
X35809Y23439*
X35809Y22946D02*
X35809Y22946D01*
X36028Y22946*
X36028Y21651*
X35809Y21651*
X35809Y22946*
X34934Y21625D02*
X34934Y21625D01*
X34864Y21634*
X34797Y21651*
X34735Y21674*
X34678Y21704*
X34628Y21738*
X34586Y21779*
X34550Y21824*
X34522Y21873*
X34502Y21924*
X34490Y21977*
X34486Y22031*
X34489Y22085*
X34499Y22134*
X34516Y22179*
X34539Y22219*
X34567Y22254*
X34601Y22285*
X34639Y22312*
X34683Y22334*
X34738Y22355*
X34810Y22379*
X34900Y22406*
X35008Y22436*
X35081Y22456*
X35081Y22456*
X35137Y22472*
X35137Y22472*
X35178Y22484*
X35178Y22484*
X35202Y22492*
X35202Y22492*
X35229Y22504*
X35229Y22504*
X35252Y22518*
X35252Y22518*
X35271Y22534*
X35271Y22534*
X35287Y22551*
X35287Y22551*
X35299Y22568*
X35299Y22568*
X35307Y22587*
X35307Y22587*
X35312Y22607*
X35312Y22607*
X35314Y22628*
X35314Y22628*
X35310Y22660*
X35310Y22660*
X35298Y22691*
X35298Y22691*
X35277Y22719*
X35277Y22719*
X35249Y22745*
X35249Y22745*
X35211Y22767*
X35211Y22767*
X35162Y22783*
X35162Y22783*
X35103Y22792*
X35103Y22792*
X35033Y22796*
X35032Y22796*
X34972Y22792*
X34972Y22792*
X34919Y22781*
X34919Y22781*
X34873Y22764*
X34873Y22764*
X34834Y22739*
X34834Y22739*
X34802Y22708*
X34802Y22708*
X34777Y22672*
X34777Y22672*
X34760Y22630*
X34760Y22630*
X34749Y22583*
X34535Y22612*
X34547Y22671*
X34564Y22725*
X34585Y22772*
X34611Y22812*
X34642Y22848*
X34680Y22880*
X34727Y22907*
X34781Y22931*
X34841Y22950*
X34905Y22964*
X34974Y22972*
X35048Y22975*
X35098Y22974*
X35146Y22969*
X35193Y22960*
X35238Y22949*
X35280Y22935*
X35317Y22920*
X35350Y22903*
X35378Y22885*
X35410Y22859*
X35439Y22830*
X35464Y22798*
X35486Y22762*
X35503Y22725*
X35515Y22685*
X35523Y22645*
X35525Y22602*
X35522Y22556*
X35513Y22511*
X35498Y22469*
X35477Y22428*
X35450Y22391*
X35418Y22358*
X35379Y22330*
X35336Y22305*
X35280Y22282*
X35205Y22257*
X35112Y22229*
X35001Y22200*
X35001Y22200*
X34919Y22178*
X34919Y22178*
X34855Y22159*
X34855Y22159*
X34807Y22141*
X34807Y22141*
X34776Y22125*
X34776Y22125*
X34748Y22102*
X34747Y22102*
X34727Y22074*
X34727Y22074*
X34715Y22043*
X34715Y22043*
X34711Y22008*
X34711Y22008*
X34716Y21967*
X34716Y21967*
X34729Y21930*
X34729Y21930*
X34752Y21895*
X34752Y21895*
X34784Y21863*
X34784Y21863*
X34826Y21836*
X34826Y21836*
X34877Y21816*
X34877Y21816*
X34938Y21805*
X34938Y21805*
X35009Y21801*
X35009Y21801*
X35080Y21805*
X35080Y21805*
X35143Y21818*
X35143Y21818*
X35197Y21840*
X35197Y21840*
X35243Y21871*
X35243Y21871*
X35281Y21909*
X35281Y21909*
X35311Y21956*
X35311Y21956*
X35332Y22009*
X35332Y22010*
X35345Y22071*
X35562Y22037*
X35538Y21940*
X35501Y21856*
X35453Y21785*
X35393Y21726*
X35319Y21680*
X35231Y21647*
X35127Y21628*
X35008Y21621*
X34934Y21625*
X33600Y21629D02*
X33600Y21629D01*
X33506Y21653*
X33421Y21692*
X33344Y21747*
X33278Y21817*
X33226Y21898*
X33187Y21991*
X33163Y22096*
X33378Y22124*
X33393Y22048*
X33393Y22048*
X33417Y21981*
X33417Y21981*
X33448Y21925*
X33448Y21925*
X33488Y21880*
X33488Y21880*
X33534Y21846*
X33534Y21846*
X33585Y21821*
X33585Y21821*
X33642Y21806*
X33642Y21806*
X33704Y21801*
X33704Y21801*
X33781Y21808*
X33781Y21808*
X33850Y21830*
X33850Y21831*
X33912Y21868*
X33912Y21868*
X33966Y21919*
X33966Y21919*
X34010Y21988*
X34010Y21988*
X34041Y22074*
X34041Y22074*
X34060Y22178*
X34060Y22178*
X34066Y22299*
X34066Y22299*
X34060Y22420*
X34060Y22420*
X34040Y22522*
X34040Y22523*
X34008Y22608*
X34008Y22608*
X33962Y22676*
X33962Y22676*
X33906Y22728*
X33906Y22728*
X33843Y22766*
X33843Y22766*
X33771Y22788*
X33771Y22788*
X33692Y22796*
X33692Y22796*
X33639Y22791*
X33639Y22791*
X33590Y22779*
X33590Y22779*
X33545Y22758*
X33545Y22758*
X33504Y22730*
X33504Y22729*
X33469Y22692*
X33468Y22692*
X33439Y22647*
X33439Y22647*
X33414Y22594*
X33414Y22594*
X33396Y22533*
X33184Y22566*
X33208Y22658*
X33245Y22739*
X33294Y22810*
X33356Y22868*
X33427Y22915*
X33509Y22948*
X33600Y22969*
X33701Y22975*
X33783Y22970*
X33861Y22956*
X33937Y22931*
X34010Y22897*
X34076Y22852*
X34134Y22798*
X34182Y22734*
X34221Y22661*
X34252Y22579*
X34274Y22490*
X34287Y22395*
X34291Y22293*
X34281Y22140*
X34251Y22006*
X34200Y21891*
X34129Y21795*
X34042Y21719*
X33942Y21665*
X33828Y21632*
X33702Y21621*
X33600Y21629*
X32365Y21626D02*
X32365Y21626D01*
X32285Y21641*
X32209Y21666*
X32135Y21700*
X32068Y21744*
X32009Y21796*
X31959Y21855*
X31917Y21923*
X31884Y22001*
X31861Y22093*
X31847Y22198*
X31842Y22316*
X31853Y22462*
X31884Y22592*
X31937Y22704*
X32011Y22800*
X32102Y22877*
X32205Y22931*
X32321Y22964*
X32448Y22975*
X32564Y22966*
X32670Y22939*
X32767Y22894*
X32855Y22831*
X32943Y22733*
X33006Y22611*
X33043Y22466*
X33056Y22298*
X33045Y22144*
X33014Y22008*
X32961Y21892*
X32888Y21796*
X32797Y21719*
X32694Y21665*
X32578Y21632*
X32448Y21621*
X32365Y21626*
X32830Y22298D02*
X32830Y22298D01*
X32823Y22182*
X32803Y22080*
X32769Y21995*
X32722Y21925*
X32664Y21871*
X32599Y21832*
X32527Y21809*
X32448Y21801*
X32370Y21809*
X32298Y21832*
X32234Y21871*
X32176Y21926*
X32128Y21996*
X32094Y22083*
X32074Y22186*
X32067Y22306*
X32074Y22418*
X32095Y22517*
X32129Y22601*
X32177Y22670*
X32234Y22724*
X32299Y22763*
X32370Y22786*
X32448Y22794*
X32527Y22786*
X32599Y22763*
X32664Y22724*
X32722Y22671*
X32769Y22601*
X32803Y22516*
X32823Y22415*
X32830Y22298*
X29454Y23439D02*
X29454Y23439D01*
X29680Y23439*
X29680Y22034*
X29681Y22034*
X30621Y23439*
X30863Y23439*
X30863Y21651*
X30637Y21651*
X30637Y23057*
X30636Y23057*
X29696Y21651*
X29454Y21651*
X29454Y23439*
X28475Y21626D02*
X28475Y21626D01*
X28395Y21641*
X28318Y21666*
X28245Y21700*
X28177Y21744*
X28119Y21796*
X28068Y21855*
X28027Y21923*
X27994Y22001*
X27970Y22093*
X27956Y22198*
X27952Y22316*
X27962Y22462*
X27994Y22592*
X28047Y22704*
X28121Y22800*
X28212Y22877*
X28315Y22931*
X28430Y22964*
X28558Y22975*
X28673Y22966*
X28780Y22939*
X28877Y22894*
X28965Y22831*
X29053Y22733*
X29115Y22611*
X29153Y22466*
X29165Y22298*
X29155Y22144*
X29123Y22008*
X29071Y21892*
X28997Y21796*
X28907Y21719*
X28804Y21665*
X28687Y21632*
X28558Y21621*
X28475Y21626*
X28940Y22298D02*
X28940Y22298D01*
X28933Y22182*
X28913Y22080*
X28879Y21995*
X28831Y21925*
X28773Y21871*
X28708Y21832*
X28637Y21809*
X28558Y21801*
X28479Y21809*
X28408Y21832*
X28343Y21871*
X28286Y21926*
X28238Y21996*
X28204Y22083*
X28184Y22186*
X28177Y22306*
X28184Y22418*
X28204Y22517*
X28238Y22601*
X28286Y22670*
X28344Y22724*
X28409Y22763*
X28480Y22786*
X28558Y22794*
X28637Y22786*
X28708Y22763*
X28773Y22724*
X28831Y22671*
X28879Y22601*
X28913Y22516*
X28933Y22415*
X28940Y22298*
X27103Y21633D02*
X27103Y21633D01*
X27005Y21669*
X26922Y21730*
X26853Y21814*
X26852Y21814*
X26852Y21651*
X26649Y21651*
X26649Y23439*
X26867Y23439*
X26867Y22797*
X26867Y22797*
X26898Y22835*
X26933Y22869*
X26973Y22899*
X27016Y22926*
X27064Y22947*
X27114Y22963*
X27168Y22972*
X27225Y22975*
X27303Y22970*
X27377Y22954*
X27447Y22928*
X27514Y22891*
X27574Y22844*
X27627Y22788*
X27671Y22723*
X27708Y22649*
X27736Y22568*
X27756Y22482*
X27768Y22392*
X27772Y22297*
X27768Y22200*
X27754Y22110*
X27732Y22024*
X27701Y21945*
X27662Y21873*
X27615Y21809*
X27561Y21753*
X27500Y21707*
X27433Y21669*
X27364Y21643*
X27291Y21627*
X27215Y21621*
X27103Y21633*
X27547Y22297D02*
X27547Y22297D01*
X27540Y22180*
X27521Y22079*
X27488Y21994*
X27442Y21925*
X27387Y21871*
X27328Y21832*
X27263Y21809*
X27194Y21801*
X27125Y21809*
X27061Y21831*
X27002Y21868*
X26949Y21919*
X26905Y21986*
X26874Y22068*
X26855Y22166*
X26849Y22279*
X26855Y22403*
X26874Y22509*
X26906Y22598*
X26951Y22669*
X27006Y22724*
X27066Y22763*
X27132Y22786*
X27204Y22794*
X27274Y22786*
X27338Y22764*
X27397Y22727*
X27449Y22674*
X27492Y22606*
X27522Y22520*
X27541Y22417*
X27547Y22297*
X25651Y21628D02*
X25651Y21628D01*
X25553Y21649*
X25465Y21683*
X25388Y21731*
X25321Y21791*
X25266Y21863*
X25222Y21946*
X25189Y22039*
X25415Y22067*
X25442Y22002*
X25442Y22002*
X25474Y21947*
X25474Y21947*
X25510Y21901*
X25510Y21901*
X25551Y21864*
X25551Y21864*
X25596Y21837*
X25596Y21837*
X25645Y21817*
X25645Y21817*
X25699Y21805*
X25699Y21805*
X25757Y21801*
X25757Y21801*
X25835Y21808*
X25835Y21808*
X25906Y21829*
X25907Y21829*
X25971Y21865*
X25971Y21865*
X26029Y21915*
X26029Y21915*
X26077Y21978*
X26077Y21978*
X26113Y22053*
X26113Y22053*
X26138Y22141*
X26138Y22141*
X26150Y22242*
X26149Y22243*
X25183Y22243*
X25182Y22260*
X25182Y22276*
X25182Y22290*
X25182Y22301*
X25192Y22452*
X25223Y22586*
X25274Y22701*
X25346Y22798*
X25435Y22876*
X25535Y22931*
X25647Y22964*
X25771Y22975*
X25899Y22964*
X26014Y22930*
X26117Y22874*
X26207Y22795*
X26281Y22695*
X26334Y22578*
X26365Y22442*
X26376Y22287*
X26365Y22138*
X26334Y22006*
X26282Y21893*
X26209Y21796*
X26119Y21720*
X26013Y21665*
X25893Y21632*
X25759Y21621*
X25651Y21628*
X26137Y22423D02*
X26137Y22423D01*
X25413Y22423*
X25424Y22499*
X25441Y22566*
X25465Y22622*
X25496Y22668*
X25553Y22724*
X25617Y22763*
X25689Y22787*
X25768Y22795*
X25841Y22789*
X25908Y22770*
X25968Y22738*
X26023Y22694*
X26069Y22639*
X26103Y22575*
X26126Y22503*
X26137Y22423*
X23125Y21861D02*
X23125Y21861D01*
X24002Y21861*
X24003Y21861*
X23983Y21891*
X23983Y21891*
X23961Y21921*
X23961Y21921*
X23936Y21951*
X23936Y21951*
X23910Y21981*
X23910Y21981*
X23873Y22017*
X23873Y22017*
X23818Y22066*
X23818Y22066*
X23746Y22129*
X23746Y22129*
X23656Y22206*
X23546Y22301*
X23453Y22385*
X23376Y22458*
X23317Y22521*
X23270Y22577*
X23230Y22633*
X23197Y22687*
X23171Y22739*
X23152Y22791*
X23138Y22844*
X23130Y22897*
X23127Y22950*
X23137Y23051*
X23165Y23144*
X23212Y23228*
X23277Y23304*
X23359Y23366*
X23454Y23411*
X23563Y23437*
X23685Y23446*
X23806Y23438*
X23914Y23413*
X24009Y23372*
X24091Y23314*
X24158Y23240*
X24210Y23152*
X24246Y23048*
X24265Y22930*
X24040Y22907*
X24034Y22986*
X24034Y22986*
X24016Y23056*
X24016Y23056*
X23986Y23118*
X23986Y23118*
X23944Y23170*
X23944Y23170*
X23892Y23212*
X23892Y23212*
X23833Y23242*
X23832Y23242*
X23765Y23260*
X23765Y23260*
X23690Y23265*
X23690Y23265*
X23618Y23260*
X23618Y23260*
X23553Y23243*
X23553Y23243*
X23496Y23215*
X23496Y23215*
X23446Y23176*
X23446Y23176*
X23405Y23128*
X23405Y23128*
X23375Y23076*
X23375Y23075*
X23358Y23018*
X23358Y23018*
X23352Y22955*
X23352Y22955*
X23359Y22892*
X23359Y22892*
X23378Y22826*
X23378Y22826*
X23410Y22759*
X23410Y22759*
X23455Y22690*
X23455Y22690*
X23518Y22614*
X23518Y22614*
X23605Y22526*
X23605Y22526*
X23715Y22425*
X23715Y22425*
X23849Y22311*
X23849Y22311*
X23938Y22237*
X24015Y22167*
X24081Y22101*
X24137Y22040*
X24183Y21982*
X24222Y21922*
X24255Y21863*
X24281Y21802*
X24293Y21765*
X24302Y21728*
X24306Y21689*
X24307Y21651*
X23125Y21651*
X23125Y21861*
X53585Y19637D02*
X53585Y19637D01*
X53593Y19694*
X53606Y19751*
X53624Y19807*
X53648Y19862*
X53677Y19916*
X53711Y19970*
X53750Y20022*
X54147Y20022*
X54147Y19569*
X54022Y19569*
X54022Y19884*
X54021Y19884*
X53821Y19884*
X53821Y19884*
X53801Y19859*
X53801Y19859*
X53782Y19828*
X53782Y19828*
X53763Y19792*
X53763Y19792*
X53745Y19751*
X53745Y19751*
X53729Y19706*
X53729Y19706*
X53718Y19662*
X53718Y19662*
X53712Y19616*
X53712Y19616*
X53709Y19570*
X53709Y19570*
X53712Y19518*
X53712Y19518*
X53721Y19467*
X53721Y19467*
X53736Y19417*
X53736Y19417*
X53756Y19369*
X53756Y19369*
X53783Y19325*
X53783Y19325*
X53816Y19286*
X53816Y19286*
X53855Y19253*
X53855Y19253*
X53900Y19225*
X53900Y19225*
X53951Y19204*
X53951Y19204*
X54009Y19188*
X54009Y19188*
X54072Y19179*
X54072Y19179*
X54141Y19176*
X54141Y19176*
X54198Y19178*
X54198Y19178*
X54253Y19186*
X54253Y19186*
X54306Y19199*
X54306Y19199*
X54357Y19217*
X54357Y19217*
X54385Y19230*
X54385Y19230*
X54412Y19246*
X54412Y19246*
X54438Y19264*
X54438Y19264*
X54463Y19285*
X54463Y19285*
X54486Y19308*
X54486Y19308*
X54507Y19335*
X54507Y19335*
X54525Y19366*
X54525Y19366*
X54541Y19400*
X54541Y19400*
X54554Y19437*
X54554Y19437*
X54564Y19477*
X54564Y19477*
X54569Y19521*
X54569Y19521*
X54571Y19568*
X54571Y19568*
X54569Y19608*
X54569Y19608*
X54564Y19646*
X54564Y19646*
X54555Y19682*
X54555Y19682*
X54543Y19716*
X54543Y19716*
X54527Y19748*
X54527Y19748*
X54510Y19775*
X54510Y19775*
X54490Y19799*
X54490Y19799*
X54468Y19819*
X54467Y19819*
X54442Y19836*
X54442Y19836*
X54412Y19852*
X54412Y19852*
X54377Y19866*
X54377Y19866*
X54339Y19879*
X54374Y20006*
X54425Y19991*
X54471Y19972*
X54513Y19950*
X54549Y19925*
X54581Y19896*
X54609Y19862*
X54633Y19822*
X54654Y19778*
X54670Y19729*
X54682Y19678*
X54689Y19624*
X54692Y19567*
X54687Y19490*
X54675Y19416*
X54654Y19348*
X54626Y19284*
X54588Y19226*
X54542Y19176*
X54488Y19132*
X54424Y19096*
X54355Y19067*
X54283Y19047*
X54209Y19034*
X54132Y19030*
X54055Y19034*
X53981Y19047*
X53911Y19067*
X53846Y19096*
X53785Y19133*
X53733Y19178*
X53688Y19231*
X53650Y19291*
X53620Y19358*
X53599Y19428*
X53586Y19501*
X53582Y19578*
X53585Y19637*
X54077Y20376D02*
X54077Y20376D01*
X54077Y20377*
X54077Y20542*
X54077Y20542*
X54077Y20567*
X54077Y20567*
X54076Y20589*
X54076Y20589*
X54074Y20607*
X54074Y20607*
X54072Y20621*
X54072Y20621*
X54067Y20637*
X54067Y20637*
X54061Y20654*
X54061Y20654*
X54053Y20670*
X54053Y20670*
X54044Y20686*
X54044Y20686*
X54031Y20702*
X54031Y20702*
X54015Y20720*
X54015Y20720*
X53995Y20738*
X53995Y20738*
X53972Y20758*
X53972Y20758*
X53943Y20780*
X53943Y20780*
X53909Y20804*
X53909Y20804*
X53869Y20831*
X53869Y20831*
X53824Y20861*
X53824Y20861*
X53601Y21003*
X53601Y21180*
X53892Y20994*
X53933Y20966*
X53970Y20937*
X54004Y20907*
X54035Y20876*
X54048Y20860*
X54061Y20840*
X54075Y20817*
X54088Y20790*
X54089Y20790*
X54103Y20863*
X54125Y20925*
X54153Y20977*
X54188Y21019*
X54230Y21051*
X54276Y21074*
X54326Y21088*
X54381Y21093*
X54424Y21090*
X54465Y21081*
X54505Y21068*
X54542Y21048*
X54576Y21024*
X54604Y20996*
X54627Y20964*
X54644Y20929*
X54657Y20887*
X54666Y20837*
X54671Y20778*
X54673Y20711*
X54673Y20235*
X53601Y20235*
X53601Y20376*
X54077Y20376*
X54200Y20377D02*
X54200Y20377D01*
X54200Y20682*
X54201Y20728*
X54205Y20769*
X54211Y20804*
X54220Y20835*
X54232Y20860*
X54246Y20883*
X54264Y20902*
X54284Y20918*
X54307Y20931*
X54331Y20939*
X54355Y20945*
X54381Y20947*
X54417Y20943*
X54450Y20933*
X54480Y20916*
X54506Y20891*
X54527Y20860*
X54543Y20820*
X54552Y20772*
X54555Y20717*
X54555Y20377*
X54200Y20377*
X54673Y22160D02*
X54673Y22160D01*
X54673Y22025*
X53830Y22025*
X53830Y22024*
X54673Y21460*
X54673Y21315*
X53601Y21315*
X53601Y21450*
X54444Y21450*
X54444Y21451*
X53601Y22015*
X53601Y22160*
X54673Y22160*
X18350Y3918D02*
X18350Y3918D01*
X18350Y3919*
X18058Y3919*
X18058Y4041*
X18350Y4041*
X18350Y4041*
X18350Y4333*
X18474Y4333*
X18474Y4041*
X18474Y4041*
X18766Y4041*
X18766Y3919*
X18474Y3919*
X18474Y3918*
X18474Y3624*
X18350Y3624*
X18350Y3918*
X37107Y4641D02*
X37107Y4641D01*
X37068Y4644*
X37032Y4649*
X37000Y4656*
X36971Y4665*
X36944Y4675*
X36920Y4688*
X36898Y4702*
X36879Y4719*
X36861Y4739*
X36845Y4762*
X36830Y4788*
X36818Y4817*
X36809Y4847*
X36804Y4878*
X36803Y4910*
X36805Y4949*
X36814Y4985*
X36828Y5019*
X36848Y5050*
X36873Y5078*
X36903Y5101*
X36938Y5120*
X36978Y5135*
X36978Y5135*
X36947Y5153*
X36921Y5173*
X36898Y5195*
X36880Y5220*
X36866Y5247*
X36856Y5275*
X36850Y5303*
X36848Y5333*
X36850Y5364*
X36857Y5395*
X36868Y5425*
X36884Y5455*
X36904Y5482*
X36927Y5506*
X36954Y5526*
X36985Y5542*
X37020Y5554*
X37060Y5563*
X37105Y5568*
X37156Y5570*
X37504Y5570*
X37504Y4641*
X37150Y4641*
X37107Y4641*
X37382Y5180D02*
X37382Y5180D01*
X37180Y5180*
X37142Y5180*
X37110Y5182*
X37084Y5186*
X37063Y5190*
X37041Y5198*
X37022Y5209*
X37006Y5222*
X36992Y5237*
X36982Y5254*
X36974Y5273*
X36970Y5295*
X36968Y5318*
X36970Y5340*
X36974Y5361*
X36981Y5381*
X36991Y5399*
X37003Y5416*
X37018Y5429*
X37035Y5440*
X37054Y5448*
X37078Y5453*
X37110Y5457*
X37149Y5460*
X37196Y5461*
X37382Y5461*
X37382Y5180*
X37382Y4750D02*
X37382Y4750D01*
X37150Y4750*
X37122Y4750*
X37099Y4751*
X37080Y4752*
X37066Y4754*
X37046Y4759*
X37027Y4764*
X37010Y4771*
X36995Y4780*
X36981Y4790*
X36969Y4801*
X36958Y4815*
X36948Y4831*
X36940Y4849*
X36934Y4868*
X36931Y4888*
X36930Y4910*
X36931Y4935*
X36936Y4958*
X36945Y4980*
X36956Y5000*
X36971Y5018*
X36988Y5033*
X37008Y5045*
X37030Y5054*
X37057Y5061*
X37088Y5066*
X37125Y5069*
X37166Y5070*
X37382Y5070*
X37382Y4750*
X36011Y5586D02*
X36011Y5586D01*
X36102Y5586*
X36371Y4625*
X36280Y4625*
X36011Y5586*
X34888Y4749D02*
X34888Y4749D01*
X35482Y4749*
X35482Y4750*
X35426Y4816*
X34903Y5461*
X34903Y5570*
X35569Y5570*
X35569Y5461*
X35050Y5461*
X35050Y5461*
X35073Y5436*
X35097Y5409*
X35121Y5381*
X35146Y5350*
X35623Y4754*
X35623Y4641*
X34888Y4641*
X34888Y4749*
X42580Y11428D02*
X42580Y11428D01*
X42580Y11429*
X42288Y11429*
X42288Y11551*
X42580Y11551*
X42580Y11551*
X42580Y11843*
X42704Y11843*
X42704Y11551*
X42704Y11551*
X42996Y11551*
X42996Y11429*
X42704Y11429*
X42704Y11428*
X42704Y11134*
X42580Y11134*
X42580Y11428*
X37502Y17705D02*
X37502Y17705D01*
X37459Y17712*
X37419Y17724*
X37383Y17741*
X37350Y17763*
X37322Y17788*
X37298Y17819*
X37280Y17854*
X37265Y17894*
X37255Y17943*
X37249Y17998*
X37247Y18062*
X37247Y18793*
X37388Y18793*
X37388Y18054*
X37388Y18054*
X37389Y18011*
X37389Y18011*
X37392Y17974*
X37392Y17974*
X37396Y17944*
X37396Y17944*
X37403Y17919*
X37403Y17919*
X37412Y17899*
X37412Y17899*
X37423Y17882*
X37424Y17882*
X37438Y17866*
X37438Y17866*
X37456Y17853*
X37456Y17852*
X37477Y17842*
X37477Y17842*
X37499Y17834*
X37499Y17834*
X37523Y17829*
X37523Y17829*
X37549Y17828*
X37549Y17828*
X37583Y17831*
X37583Y17831*
X37614Y17839*
X37614Y17839*
X37640Y17854*
X37640Y17854*
X37663Y17873*
X37663Y17874*
X37681Y17901*
X37681Y17901*
X37695Y17938*
X37695Y17939*
X37704Y17986*
X37704Y17986*
X37709Y18042*
X37836Y18024*
X37833Y17949*
X37820Y17884*
X37797Y17829*
X37764Y17783*
X37723Y17748*
X37673Y17722*
X37615Y17707*
X37548Y17702*
X37502Y17705*
X36640Y17707D02*
X36640Y17707D01*
X36581Y17719*
X36529Y17740*
X36482Y17769*
X36442Y17805*
X36409Y17848*
X36382Y17897*
X36363Y17953*
X36498Y17970*
X36514Y17931*
X36514Y17931*
X36534Y17898*
X36534Y17898*
X36555Y17870*
X36555Y17870*
X36580Y17849*
X36580Y17848*
X36607Y17832*
X36607Y17832*
X36636Y17820*
X36636Y17820*
X36669Y17813*
X36669Y17813*
X36704Y17810*
X36704Y17810*
X36750Y17815*
X36750Y17815*
X36793Y17827*
X36793Y17827*
X36832Y17849*
X36832Y17849*
X36867Y17879*
X36867Y17879*
X36896Y17916*
X36896Y17917*
X36917Y17962*
X36917Y17962*
X36932Y18015*
X36932Y18015*
X36939Y18075*
X36939Y18076*
X36359Y18076*
X36359Y18086*
X36359Y18096*
X36359Y18104*
X36358Y18110*
X36365Y18201*
X36383Y18281*
X36414Y18350*
X36457Y18409*
X36510Y18455*
X36570Y18488*
X36637Y18508*
X36712Y18515*
X36788Y18508*
X36858Y18488*
X36919Y18454*
X36974Y18407*
X37018Y18347*
X37049Y18276*
X37068Y18195*
X37075Y18102*
X37068Y18013*
X37050Y17934*
X37018Y17866*
X36975Y17808*
X36920Y17762*
X36857Y17729*
X36785Y17709*
X36704Y17703*
X36640Y17707*
X36931Y18184D02*
X36931Y18184D01*
X36497Y18184*
X36504Y18230*
X36514Y18269*
X36528Y18303*
X36547Y18331*
X36581Y18364*
X36619Y18388*
X36662Y18402*
X36710Y18407*
X36754Y18403*
X36794Y18392*
X36830Y18373*
X36863Y18346*
X36890Y18313*
X36911Y18275*
X36925Y18232*
X36931Y18184*
X36067Y18127D02*
X36067Y18127D01*
X36067Y18127*
X36066Y18168*
X36066Y18168*
X36061Y18207*
X36061Y18208*
X36055Y18245*
X36055Y18245*
X36045Y18281*
X36045Y18281*
X36036Y18303*
X36036Y18303*
X36025Y18322*
X36025Y18322*
X36012Y18339*
X36012Y18339*
X35996Y18354*
X35996Y18354*
X35978Y18365*
X35978Y18365*
X35959Y18373*
X35959Y18373*
X35939Y18378*
X35939Y18378*
X35918Y18380*
X35918Y18380*
X35894Y18378*
X35894Y18378*
X35869Y18373*
X35869Y18373*
X35845Y18364*
X35845Y18364*
X35821Y18351*
X35776Y18473*
X35810Y18491*
X35844Y18504*
X35878Y18512*
X35911Y18515*
X35934Y18513*
X35955Y18508*
X35976Y18500*
X35995Y18489*
X36015Y18472*
X36036Y18448*
X36057Y18417*
X36079Y18379*
X36080Y18380*
X36080Y18497*
X36198Y18497*
X36198Y17721*
X36067Y17721*
X36067Y18127*
X35306Y17707D02*
X35306Y17707D01*
X35247Y17719*
X35195Y17740*
X35148Y17769*
X35108Y17805*
X35075Y17848*
X35049Y17897*
X35029Y17953*
X35165Y17970*
X35181Y17931*
X35181Y17931*
X35200Y17898*
X35200Y17898*
X35221Y17870*
X35222Y17870*
X35246Y17849*
X35246Y17848*
X35273Y17832*
X35273Y17832*
X35303Y17820*
X35303Y17820*
X35335Y17813*
X35335Y17813*
X35370Y17810*
X35370Y17810*
X35417Y17815*
X35417Y17815*
X35459Y17827*
X35460Y17827*
X35498Y17849*
X35498Y17849*
X35533Y17879*
X35533Y17879*
X35562Y17916*
X35562Y17917*
X35584Y17962*
X35584Y17962*
X35598Y18015*
X35598Y18015*
X35606Y18075*
X35605Y18076*
X35025Y18076*
X35025Y18086*
X35025Y18096*
X35025Y18104*
X35025Y18110*
X35031Y18201*
X35049Y18281*
X35080Y18350*
X35124Y18409*
X35176Y18455*
X35236Y18488*
X35304Y18508*
X35378Y18515*
X35455Y18508*
X35524Y18488*
X35586Y18454*
X35640Y18407*
X35684Y18347*
X35716Y18276*
X35734Y18195*
X35741Y18102*
X35735Y18013*
X35716Y17934*
X35685Y17866*
X35641Y17808*
X35587Y17762*
X35523Y17729*
X35452Y17709*
X35371Y17703*
X35306Y17707*
X35598Y18184D02*
X35598Y18184D01*
X35163Y18184*
X35170Y18230*
X35180Y18269*
X35195Y18303*
X35213Y18331*
X35247Y18364*
X35286Y18388*
X35329Y18402*
X35377Y18407*
X35420Y18403*
X35460Y18392*
X35497Y18373*
X35529Y18346*
X35557Y18313*
X35577Y18275*
X35591Y18232*
X35598Y18184*
X34863Y17720D02*
X34863Y17720D01*
X34863Y18498*
X34745Y18498*
X34745Y18389*
X34725Y18416*
X34703Y18440*
X34677Y18462*
X34648Y18481*
X34616Y18496*
X34583Y18507*
X34547Y18513*
X34509Y18515*
X34468Y18513*
X34431Y18506*
X34397Y18495*
X34368Y18480*
X34342Y18460*
X34320Y18436*
X34303Y18410*
X34290Y18379*
X34240Y18439*
X34183Y18481*
X34120Y18507*
X34049Y18515*
X33995Y18511*
X33947Y18499*
X33906Y18479*
X33871Y18451*
X33844Y18415*
X33825Y18370*
X33813Y18316*
X33809Y18254*
X33809Y17720*
X33940Y17720*
X33940Y18210*
X33941Y18247*
X33943Y18278*
X33947Y18304*
X33953Y18324*
X33961Y18340*
X33971Y18355*
X33984Y18368*
X34000Y18380*
X34017Y18389*
X34036Y18396*
X34057Y18400*
X34079Y18401*
X34118Y18398*
X34154Y18388*
X34186Y18370*
X34215Y18347*
X34239Y18315*
X34256Y18276*
X34266Y18228*
X34269Y18172*
X34269Y17720*
X34401Y17720*
X34401Y18225*
X34403Y18267*
X34409Y18302*
X34419Y18332*
X34433Y18357*
X34452Y18376*
X34476Y18390*
X34505Y18398*
X34539Y18401*
X34566Y18399*
X34592Y18394*
X34617Y18385*
X34642Y18372*
X34664Y18356*
X34682Y18336*
X34698Y18313*
X34710Y18286*
X34719Y18255*
X34726Y18217*
X34730Y18174*
X34731Y18124*
X34731Y17720*
X34863Y17720*
X33504Y17407D02*
X33504Y17407D01*
X33476Y17412*
X33450Y17422*
X33426Y17435*
X33404Y17452*
X33384Y17474*
X33364Y17500*
X33346Y17531*
X33331Y17560*
X33314Y17599*
X33294Y17648*
X33272Y17707*
X32976Y18497*
X33107Y18497*
X33273Y18044*
X33288Y18001*
X33303Y17957*
X33316Y17912*
X33328Y17867*
X33328Y17867*
X33341Y17914*
X33355Y17959*
X33369Y18004*
X33385Y18047*
X33547Y18497*
X33688Y18497*
X33393Y17719*
X33393Y17718*
X33396Y17708*
X33400Y17700*
X33402Y17692*
X33404Y17686*
X33404Y17686*
X33417Y17651*
X33417Y17651*
X33428Y17622*
X33428Y17622*
X33437Y17602*
X33437Y17601*
X33445Y17588*
X33445Y17588*
X33454Y17575*
X33454Y17575*
X33464Y17564*
X33464Y17564*
X33475Y17555*
X33475Y17555*
X33488Y17547*
X33488Y17547*
X33502Y17540*
X33502Y17540*
X33519Y17536*
X33519Y17536*
X33538Y17533*
X33538Y17533*
X33559Y17532*
X33559Y17532*
X33575Y17533*
X33575Y17533*
X33594Y17535*
X33594Y17535*
X33613Y17539*
X33613Y17539*
X33633Y17544*
X33619Y17421*
X33596Y17414*
X33575Y17409*
X33554Y17406*
X33534Y17405*
X33504Y17407*
X31859Y17705D02*
X31859Y17705D01*
X31802Y17713*
X31745Y17726*
X31689Y17744*
X31634Y17768*
X31579Y17797*
X31526Y17831*
X31473Y17870*
X31473Y18267*
X31927Y18267*
X31927Y18142*
X31612Y18142*
X31611Y18141*
X31611Y17941*
X31611Y17941*
X31637Y17921*
X31637Y17921*
X31668Y17902*
X31668Y17902*
X31704Y17883*
X31704Y17883*
X31745Y17865*
X31745Y17865*
X31789Y17849*
X31789Y17849*
X31834Y17838*
X31834Y17838*
X31879Y17832*
X31879Y17832*
X31925Y17829*
X31925Y17829*
X31978Y17832*
X31978Y17832*
X32029Y17841*
X32029Y17841*
X32078Y17856*
X32078Y17856*
X32126Y17876*
X32126Y17876*
X32171Y17903*
X32171Y17903*
X32210Y17936*
X32210Y17936*
X32243Y17975*
X32243Y17975*
X32270Y18020*
X32270Y18020*
X32292Y18071*
X32292Y18071*
X32307Y18129*
X32307Y18129*
X32317Y18192*
X32317Y18192*
X32320Y18261*
X32320Y18261*
X32317Y18318*
X32317Y18318*
X32310Y18373*
X32310Y18373*
X32297Y18426*
X32297Y18426*
X32279Y18477*
X32279Y18477*
X32265Y18505*
X32265Y18505*
X32250Y18532*
X32250Y18532*
X32232Y18558*
X32232Y18558*
X32211Y18583*
X32211Y18583*
X32187Y18606*
X32187Y18606*
X32160Y18627*
X32160Y18627*
X32130Y18645*
X32130Y18645*
X32096Y18661*
X32096Y18661*
X32059Y18674*
X32059Y18674*
X32018Y18684*
X32018Y18684*
X31975Y18689*
X31975Y18689*
X31928Y18691*
X31927Y18691*
X31888Y18689*
X31888Y18689*
X31850Y18684*
X31850Y18684*
X31814Y18675*
X31814Y18675*
X31779Y18663*
X31779Y18663*
X31748Y18647*
X31748Y18647*
X31720Y18630*
X31720Y18630*
X31697Y18610*
X31697Y18610*
X31677Y18588*
X31677Y18587*
X31659Y18562*
X31659Y18562*
X31644Y18532*
X31644Y18532*
X31629Y18497*
X31629Y18497*
X31617Y18459*
X31489Y18494*
X31505Y18545*
X31523Y18591*
X31545Y18633*
X31570Y18669*
X31600Y18701*
X31634Y18729*
X31673Y18753*
X31718Y18774*
X31766Y18790*
X31817Y18802*
X31871Y18809*
X31928Y18812*
X32006Y18807*
X32079Y18795*
X32148Y18774*
X32211Y18746*
X32269Y18708*
X32320Y18662*
X32363Y18608*
X32400Y18544*
X32428Y18475*
X32449Y18403*
X32461Y18329*
X32465Y18252*
X32461Y18175*
X32449Y18101*
X32428Y18031*
X32399Y17966*
X32363Y17905*
X32318Y17853*
X32265Y17808*
X32204Y17770*
X32138Y17740*
X32068Y17719*
X31994Y17706*
X31917Y17702*
X31859Y17705*
X31148Y18793D02*
X31148Y18793D01*
X31279Y18793*
X31279Y18643*
X31148Y18643*
X31148Y18793*
X31148Y18497D02*
X31148Y18497D01*
X31279Y18497*
X31279Y17721*
X31148Y17721*
X31148Y18497*
X30818Y18793D02*
X30818Y18793D01*
X30949Y18793*
X30949Y17721*
X30818Y17721*
X30818Y18793*
X30485Y18793D02*
X30485Y18793D01*
X30616Y18793*
X30616Y17721*
X30485Y17721*
X30485Y18793*
X30148Y18793D02*
X30148Y18793D01*
X30279Y18793*
X30279Y18643*
X30148Y18643*
X30148Y18793*
X30148Y18497D02*
X30148Y18497D01*
X30279Y18497*
X30279Y17721*
X30148Y17721*
X30148Y18497*
X29573Y17708D02*
X29573Y17708D01*
X29516Y17722*
X29465Y17746*
X29419Y17779*
X29379Y17820*
X29348Y17869*
X29325Y17925*
X29311Y17988*
X29439Y18004*
X29448Y17959*
X29448Y17959*
X29463Y17919*
X29463Y17919*
X29481Y17885*
X29481Y17885*
X29505Y17858*
X29505Y17858*
X29533Y17837*
X29533Y17837*
X29564Y17822*
X29564Y17822*
X29598Y17813*
X29598Y17813*
X29635Y17810*
X29635Y17810*
X29681Y17815*
X29681Y17815*
X29723Y17828*
X29723Y17828*
X29760Y17850*
X29760Y17850*
X29792Y17882*
X29792Y17882*
X29819Y17922*
X29819Y17923*
X29837Y17974*
X29837Y17974*
X29849Y18037*
X29849Y18037*
X29852Y18110*
X29852Y18110*
X29849Y18182*
X29849Y18182*
X29837Y18244*
X29837Y18244*
X29817Y18295*
X29817Y18295*
X29790Y18336*
X29790Y18336*
X29757Y18367*
X29756Y18367*
X29718Y18390*
X29718Y18390*
X29675Y18403*
X29675Y18403*
X29628Y18408*
X29628Y18408*
X29596Y18405*
X29596Y18405*
X29567Y18398*
X29567Y18398*
X29540Y18385*
X29540Y18385*
X29515Y18368*
X29515Y18368*
X29494Y18346*
X29493Y18346*
X29475Y18318*
X29475Y18318*
X29461Y18286*
X29461Y18286*
X29450Y18250*
X29323Y18270*
X29338Y18325*
X29360Y18374*
X29389Y18416*
X29426Y18451*
X29469Y18479*
X29518Y18499*
X29573Y18511*
X29633Y18515*
X29682Y18512*
X29729Y18503*
X29775Y18488*
X29818Y18468*
X29858Y18441*
X29893Y18409*
X29922Y18370*
X29945Y18326*
X29963Y18277*
X29976Y18224*
X29984Y18167*
X29987Y18106*
X29981Y18014*
X29963Y17934*
X29932Y17865*
X29890Y17807*
X29838Y17762*
X29777Y17729*
X29709Y17709*
X29634Y17703*
X29573Y17708*
X28880Y18209D02*
X28880Y18209D01*
X28880Y18209*
X28583Y18497*
X28752Y18497*
X29064Y18181*
X29065Y18181*
X29065Y18793*
X29196Y18793*
X29196Y17721*
X29065Y17721*
X29065Y18028*
X29065Y18029*
X28972Y18118*
X28971Y18118*
X28714Y17721*
X28553Y17721*
X28880Y18209*
X12947Y7706D02*
X12947Y7706D01*
X13486Y7706*
X13486Y7530*
X12947Y7530*
X12947Y7706*
X54326Y15913D02*
X54326Y15913D01*
X54326Y15914*
X53899Y15914*
X53899Y16020*
X54326Y16020*
X54326Y16020*
X54326Y16302*
X54326Y16302*
X53833Y16302*
X53833Y16409*
X54445Y16409*
X54445Y15501*
X54326Y15501*
X54326Y15913*
X53325Y16302D02*
X53325Y16302D01*
X53325Y16302*
X53024Y16302*
X53024Y16409*
X53744Y16409*
X53744Y16302*
X53445Y16302*
X53444Y16302*
X53444Y15501*
X53325Y15501*
X53325Y16302*
X52532Y15501D02*
X52532Y15501D01*
X52495Y15504*
X52460Y15509*
X52427Y15516*
X52396Y15525*
X52368Y15535*
X52342Y15547*
X52318Y15562*
X52296Y15578*
X52275Y15597*
X52255Y15619*
X52236Y15644*
X52218Y15672*
X52201Y15703*
X52187Y15738*
X52174Y15776*
X52163Y15818*
X52156Y15862*
X52151Y15909*
X52149Y15960*
X52152Y16019*
X52158Y16074*
X52170Y16127*
X52185Y16175*
X52205Y16221*
X52230Y16261*
X52259Y16298*
X52293Y16331*
X52322Y16352*
X52353Y16370*
X52388Y16385*
X52426Y16396*
X52457Y16401*
X52494Y16405*
X52538Y16408*
X52587Y16409*
X52900Y16409*
X52900Y15501*
X52573Y15501*
X52532Y15501*
X52780Y15607D02*
X52780Y15607D01*
X52586Y15607*
X52544Y15608*
X52506Y15611*
X52473Y15617*
X52445Y15624*
X52421Y15633*
X52399Y15644*
X52380Y15657*
X52364Y15671*
X52343Y15694*
X52325Y15721*
X52310Y15752*
X52297Y15786*
X52286Y15824*
X52279Y15866*
X52274Y15912*
X52273Y15961*
X52276Y16029*
X52285Y16087*
X52299Y16138*
X52320Y16181*
X52344Y16216*
X52372Y16245*
X52401Y16267*
X52434Y16283*
X52461Y16291*
X52497Y16297*
X52539Y16301*
X52589Y16302*
X52780Y16302*
X52780Y15607*
X51843Y16409D02*
X51843Y16409D01*
X51962Y16409*
X51962Y15501*
X51843Y15501*
X51843Y16409*
X36647Y10256D02*
X36647Y10256D01*
X37186Y10256*
X37186Y10080*
X36647Y10080*
X36647Y10256*
X12812Y13280D02*
X12812Y13280D01*
X12944Y13280*
X13301Y12351*
X13171Y12351*
X13069Y12632*
X13069Y12632*
X12680Y12632*
X12679Y12632*
X12571Y12351*
X12432Y12351*
X12812Y13280*
X12816Y12990D02*
X12816Y12990D01*
X12816Y12990*
X12836Y13046*
X12836Y13046*
X12854Y13097*
X12854Y13097*
X12869Y13142*
X12869Y13142*
X12881Y13181*
X12890Y13138*
X12890Y13138*
X12902Y13093*
X12902Y13093*
X12915Y13049*
X12915Y13049*
X12931Y13005*
X12931Y13005*
X13033Y12733*
X12719Y12733*
X12816Y12990*
X11783Y13296D02*
X11783Y13296D01*
X11873Y13296*
X12143Y12335*
X12052Y12335*
X11783Y13296*
X10959Y12744D02*
X10959Y12744D01*
X10959Y12744*
X10589Y13280*
X10731Y13280*
X10911Y13007*
X10940Y12962*
X10966Y12920*
X10990Y12880*
X11013Y12842*
X11013Y12842*
X11036Y12882*
X11059Y12921*
X11083Y12960*
X11108Y13000*
X11291Y13280*
X11440Y13280*
X11082Y12744*
X11082Y12744*
X11082Y12351*
X10959Y12351*
X10959Y12744*
X12963Y9708D02*
X12963Y9708D01*
X12924Y9711*
X12888Y9716*
X12855Y9723*
X12823Y9732*
X12794Y9743*
X12768Y9755*
X12744Y9770*
X12721Y9786*
X12700Y9806*
X12679Y9829*
X12659Y9854*
X12641Y9882*
X12624Y9915*
X12609Y9950*
X12596Y9989*
X12585Y10032*
X12577Y10077*
X12572Y10126*
X12571Y10177*
X12573Y10237*
X12580Y10294*
X12591Y10348*
X12607Y10398*
X12628Y10444*
X12653Y10486*
X12683Y10524*
X12717Y10557*
X12747Y10579*
X12780Y10598*
X12815Y10612*
X12854Y10623*
X12885Y10629*
X12924Y10633*
X12968Y10636*
X13019Y10637*
X13339Y10637*
X13339Y9707*
X13004Y9707*
X12963Y9708*
X13217Y9816D02*
X13217Y9816D01*
X13018Y9816*
X12974Y9818*
X12936Y9821*
X12902Y9826*
X12873Y9834*
X12849Y9843*
X12826Y9854*
X12807Y9867*
X12790Y9882*
X12769Y9906*
X12751Y9933*
X12735Y9965*
X12722Y10000*
X12711Y10039*
X12703Y10081*
X12699Y10128*
X12697Y10179*
X12700Y10248*
X12709Y10308*
X12724Y10360*
X12745Y10403*
X12771Y10439*
X12798Y10469*
X12829Y10492*
X12862Y10508*
X12890Y10517*
X12926Y10523*
X12970Y10526*
X13021Y10527*
X13217Y10527*
X13217Y9816*
X12017Y10641D02*
X12017Y10641D01*
X12090Y10641*
X12108Y10610*
X12108Y10610*
X12130Y10579*
X12130Y10579*
X12158Y10548*
X12158Y10548*
X12192Y10516*
X12192Y10516*
X12229Y10485*
X12229Y10485*
X12270Y10457*
X12270Y10457*
X12313Y10431*
X12313Y10431*
X12359Y10407*
X12359Y10298*
X12332Y10309*
X12303Y10322*
X12272Y10338*
X12240Y10356*
X12208Y10376*
X12179Y10396*
X12154Y10415*
X12131Y10435*
X12131Y10435*
X12131Y9707*
X12017Y9707*
X12017Y10641*
X37522Y19585D02*
X37522Y19585D01*
X37479Y19592*
X37439Y19604*
X37403Y19621*
X37370Y19643*
X37342Y19668*
X37318Y19699*
X37300Y19734*
X37285Y19774*
X37275Y19823*
X37269Y19878*
X37267Y19942*
X37267Y20673*
X37408Y20673*
X37408Y19934*
X37408Y19934*
X37409Y19891*
X37409Y19891*
X37412Y19854*
X37412Y19854*
X37416Y19824*
X37416Y19824*
X37423Y19799*
X37423Y19799*
X37432Y19779*
X37432Y19779*
X37443Y19762*
X37444Y19762*
X37458Y19746*
X37458Y19746*
X37476Y19733*
X37476Y19732*
X37497Y19722*
X37497Y19722*
X37519Y19714*
X37519Y19714*
X37543Y19709*
X37543Y19709*
X37569Y19708*
X37569Y19708*
X37603Y19711*
X37603Y19711*
X37634Y19719*
X37634Y19719*
X37660Y19734*
X37660Y19734*
X37683Y19753*
X37683Y19754*
X37701Y19781*
X37701Y19781*
X37715Y19818*
X37715Y19819*
X37724Y19866*
X37724Y19866*
X37729Y19922*
X37856Y19904*
X37853Y19829*
X37840Y19764*
X37817Y19709*
X37784Y19663*
X37743Y19628*
X37693Y19602*
X37635Y19587*
X37568Y19582*
X37522Y19585*
X36714Y19591D02*
X36714Y19591D01*
X36649Y19616*
X36591Y19657*
X36541Y19715*
X36541Y19715*
X36541Y19601*
X36424Y19601*
X36424Y20377*
X36555Y20377*
X36555Y19961*
X36555Y19961*
X36556Y19914*
X36556Y19914*
X36560Y19873*
X36560Y19873*
X36567Y19838*
X36567Y19838*
X36576Y19809*
X36576Y19809*
X36589Y19784*
X36589Y19784*
X36606Y19762*
X36606Y19762*
X36626Y19743*
X36626Y19743*
X36650Y19726*
X36650Y19726*
X36677Y19713*
X36677Y19713*
X36704Y19703*
X36704Y19703*
X36732Y19697*
X36733Y19697*
X36762Y19695*
X36762Y19695*
X36790Y19697*
X36790Y19697*
X36816Y19703*
X36817Y19703*
X36840Y19712*
X36840Y19712*
X36862Y19725*
X36862Y19725*
X36880Y19741*
X36880Y19742*
X36895Y19761*
X36895Y19761*
X36907Y19782*
X36907Y19782*
X36915Y19807*
X36915Y19807*
X36918Y19829*
X36918Y19829*
X36921Y19860*
X36921Y19860*
X36922Y19899*
X36922Y19899*
X36923Y19946*
X36923Y19946*
X36923Y20377*
X37053Y20377*
X37053Y19896*
X37053Y19857*
X37051Y19823*
X37049Y19795*
X37045Y19773*
X37039Y19745*
X37029Y19720*
X37018Y19696*
X37005Y19675*
X36989Y19656*
X36968Y19639*
X36944Y19623*
X36916Y19609*
X36886Y19598*
X36855Y19590*
X36822Y19585*
X36788Y19583*
X36714Y19591*
X36086Y20025D02*
X36086Y20025D01*
X36086Y20025*
X36082Y20094*
X36082Y20094*
X36070Y20150*
X36070Y20150*
X36051Y20195*
X36051Y20195*
X36024Y20228*
X36024Y20228*
X35992Y20252*
X35992Y20252*
X35957Y20268*
X35957Y20268*
X35919Y20278*
X35919Y20278*
X35878Y20282*
X35878Y20282*
X35853Y20280*
X35853Y20280*
X35829Y20276*
X35829Y20276*
X35807Y20268*
X35807Y20268*
X35786Y20258*
X35786Y20258*
X35768Y20245*
X35768Y20245*
X35753Y20230*
X35753Y20230*
X35741Y20213*
X35741Y20213*
X35732Y20194*
X35731Y20194*
X35725Y20171*
X35725Y20171*
X35720Y20144*
X35720Y20144*
X35717Y20111*
X35717Y20111*
X35716Y20073*
X35716Y20073*
X35716Y19601*
X35585Y19601*
X35585Y20078*
X35586Y20121*
X35587Y20156*
X35589Y20185*
X35593Y20206*
X35600Y20234*
X35609Y20259*
X35620Y20282*
X35634Y20304*
X35650Y20323*
X35670Y20341*
X35694Y20356*
X35722Y20370*
X35752Y20381*
X35783Y20389*
X35816Y20393*
X35851Y20395*
X35927Y20387*
X35993Y20363*
X36050Y20323*
X36098Y20267*
X36099Y20267*
X36099Y20377*
X36216Y20377*
X36216Y19601*
X36086Y19601*
X36086Y20025*
X34991Y19587D02*
X34991Y19587D01*
X34933Y19599*
X34880Y19620*
X34834Y19649*
X34794Y19685*
X34760Y19728*
X34734Y19777*
X34715Y19833*
X34850Y19850*
X34866Y19811*
X34866Y19811*
X34885Y19778*
X34885Y19778*
X34907Y19750*
X34907Y19750*
X34931Y19729*
X34931Y19728*
X34958Y19712*
X34958Y19712*
X34988Y19700*
X34988Y19700*
X35020Y19693*
X35020Y19693*
X35055Y19690*
X35055Y19690*
X35102Y19695*
X35102Y19695*
X35145Y19707*
X35145Y19707*
X35183Y19729*
X35184Y19729*
X35218Y19759*
X35218Y19759*
X35247Y19796*
X35247Y19797*
X35269Y19842*
X35269Y19842*
X35284Y19895*
X35284Y19895*
X35291Y19955*
X35291Y19956*
X34711Y19956*
X34710Y19966*
X34710Y19976*
X34710Y19984*
X34710Y19990*
X34716Y20081*
X34735Y20161*
X34766Y20230*
X34809Y20289*
X34862Y20335*
X34922Y20368*
X34989Y20388*
X35063Y20395*
X35140Y20388*
X35209Y20368*
X35271Y20334*
X35325Y20287*
X35369Y20227*
X35401Y20156*
X35420Y20075*
X35426Y19982*
X35420Y19893*
X35401Y19814*
X35370Y19746*
X35326Y19688*
X35272Y19642*
X35209Y19609*
X35137Y19589*
X35056Y19583*
X34991Y19587*
X35283Y20064D02*
X35283Y20064D01*
X34849Y20064*
X34855Y20110*
X34866Y20149*
X34880Y20183*
X34898Y20211*
X34932Y20244*
X34971Y20268*
X35014Y20282*
X35062Y20287*
X35105Y20283*
X35145Y20272*
X35182Y20253*
X35215Y20226*
X35242Y20193*
X35263Y20155*
X35276Y20112*
X35283Y20064*
X33476Y19726D02*
X33476Y19726D01*
X34002Y19726*
X34003Y19727*
X33991Y19745*
X33991Y19745*
X33977Y19763*
X33977Y19763*
X33963Y19781*
X33963Y19781*
X33947Y19798*
X33947Y19798*
X33925Y19820*
X33925Y19820*
X33892Y19850*
X33892Y19850*
X33848Y19888*
X33848Y19888*
X33794Y19934*
X33728Y19990*
X33672Y20041*
X33627Y20085*
X33591Y20123*
X33563Y20157*
X33539Y20190*
X33519Y20222*
X33504Y20254*
X33492Y20285*
X33484Y20316*
X33479Y20348*
X33477Y20380*
X33483Y20441*
X33500Y20496*
X33528Y20547*
X33567Y20592*
X33616Y20629*
X33673Y20656*
X33738Y20672*
X33812Y20678*
X33884Y20673*
X33949Y20658*
X34006Y20633*
X34055Y20598*
X34096Y20554*
X34127Y20501*
X34148Y20439*
X34160Y20368*
X34025Y20354*
X34021Y20402*
X34021Y20402*
X34010Y20444*
X34010Y20444*
X33992Y20481*
X33992Y20481*
X33967Y20512*
X33967Y20512*
X33936Y20537*
X33936Y20537*
X33900Y20555*
X33900Y20555*
X33860Y20566*
X33860Y20566*
X33815Y20570*
X33814Y20570*
X33772Y20566*
X33771Y20566*
X33733Y20556*
X33733Y20556*
X33698Y20539*
X33698Y20539*
X33668Y20516*
X33668Y20516*
X33643Y20487*
X33643Y20487*
X33626Y20455*
X33626Y20455*
X33615Y20421*
X33615Y20421*
X33612Y20383*
X33612Y20383*
X33616Y20345*
X33616Y20345*
X33627Y20306*
X33627Y20306*
X33646Y20266*
X33647Y20265*
X33673Y20224*
X33673Y20224*
X33711Y20178*
X33711Y20178*
X33763Y20125*
X33763Y20125*
X33830Y20065*
X33830Y20065*
X33910Y19997*
X33910Y19997*
X33963Y19952*
X34010Y19910*
X34049Y19871*
X34083Y19834*
X34110Y19799*
X34134Y19763*
X34154Y19727*
X34169Y19691*
X34176Y19669*
X34181Y19647*
X34184Y19624*
X34185Y19601*
X33476Y19601*
X33476Y19726*
X32928Y19586D02*
X32928Y19586D01*
X32876Y19598*
X32830Y19618*
X32789Y19645*
X32753Y19680*
X32721Y19722*
X32695Y19770*
X32673Y19825*
X32656Y19887*
X32644Y19959*
X32637Y20040*
X32634Y20130*
X32636Y20205*
X32640Y20273*
X32648Y20332*
X32658Y20383*
X32672Y20428*
X32687Y20470*
X32705Y20508*
X32725Y20543*
X32748Y20574*
X32773Y20600*
X32801Y20624*
X32833Y20643*
X32866Y20658*
X32903Y20669*
X32942Y20675*
X32984Y20678*
X33040Y20674*
X33091Y20662*
X33137Y20642*
X33178Y20615*
X33214Y20580*
X33246Y20539*
X33272Y20491*
X33294Y20436*
X33311Y20373*
X33324Y20301*
X33331Y20220*
X33333Y20130*
X33327Y19989*
X33307Y19869*
X33274Y19771*
X33227Y19693*
X33179Y19645*
X33122Y19610*
X33057Y19589*
X32984Y19582*
X32928Y19586*
X33199Y20130D02*
X33199Y20130D01*
X33195Y20008*
X33183Y19909*
X33164Y19832*
X33137Y19778*
X33104Y19739*
X33067Y19712*
X33028Y19696*
X32984Y19690*
X32940Y19696*
X32900Y19712*
X32864Y19740*
X32831Y19778*
X32804Y19833*
X32785Y19910*
X32773Y20009*
X32769Y20130*
X32773Y20251*
X32785Y20350*
X32804Y20427*
X32831Y20482*
X32864Y20520*
X32901Y20547*
X32941Y20564*
X32985Y20569*
X33028Y20564*
X33067Y20550*
X33101Y20526*
X33130Y20492*
X33160Y20433*
X33181Y20352*
X33194Y20251*
X33199Y20130*
X32004Y20678D02*
X32004Y20678D01*
X32088Y20678*
X32108Y20643*
X32108Y20643*
X32134Y20607*
X32134Y20607*
X32167Y20571*
X32167Y20571*
X32205Y20534*
X32205Y20534*
X32248Y20499*
X32248Y20499*
X32295Y20466*
X32295Y20466*
X32345Y20436*
X32345Y20436*
X32398Y20408*
X32398Y20282*
X32367Y20294*
X32333Y20310*
X32298Y20328*
X32260Y20350*
X32223Y20372*
X32190Y20395*
X32161Y20418*
X32135Y20441*
X32135Y20440*
X32135Y19601*
X32004Y19601*
X32004Y20678*
X31252Y19585D02*
X31252Y19585D01*
X31207Y19594*
X31165Y19608*
X31126Y19628*
X31090Y19654*
X31058Y19684*
X31030Y19720*
X31006Y19761*
X30987Y19805*
X30974Y19851*
X30966Y19899*
X30963Y19949*
X30969Y20022*
X30986Y20088*
X31015Y20147*
X31055Y20199*
X31104Y20242*
X31158Y20272*
X31216Y20290*
X31280Y20296*
X31317Y20294*
X31353Y20287*
X31389Y20276*
X31424Y20261*
X31457Y20241*
X31487Y20217*
X31515Y20187*
X31540Y20153*
X31541Y20153*
X31538Y20230*
X31538Y20230*
X31531Y20296*
X31531Y20296*
X31519Y20354*
X31519Y20354*
X31503Y20402*
X31503Y20402*
X31484Y20443*
X31484Y20443*
X31461Y20479*
X31461Y20479*
X31435Y20510*
X31435Y20510*
X31405Y20535*
X31405Y20535*
X31380Y20550*
X31380Y20550*
X31354Y20561*
X31353Y20561*
X31325Y20568*
X31325Y20568*
X31294Y20570*
X31294Y20570*
X31256Y20567*
X31256Y20567*
X31222Y20556*
X31222Y20556*
X31190Y20538*
X31190Y20538*
X31162Y20514*
X31162Y20514*
X31147Y20493*
X31147Y20493*
X31133Y20468*
X31133Y20468*
X31122Y20437*
X31122Y20437*
X31112Y20401*
X30982Y20411*
X30994Y20470*
X31014Y20522*
X31042Y20568*
X31079Y20607*
X31122Y20638*
X31171Y20660*
X31226Y20673*
X31286Y20678*
X31367Y20670*
X31438Y20647*
X31502Y20609*
X31556Y20555*
X31606Y20474*
X31642Y20371*
X31664Y20247*
X31671Y20102*
X31664Y19973*
X31645Y19864*
X31612Y19774*
X31567Y19703*
X31511Y19650*
X31448Y19612*
X31377Y19590*
X31299Y19582*
X31252Y19585*
X31520Y19948D02*
X31520Y19948D01*
X31518Y19914*
X31513Y19881*
X31503Y19849*
X31491Y19818*
X31475Y19788*
X31456Y19763*
X31434Y19741*
X31410Y19723*
X31384Y19708*
X31357Y19698*
X31329Y19692*
X31301Y19690*
X31260Y19694*
X31223Y19707*
X31189Y19728*
X31157Y19757*
X31131Y19794*
X31112Y19837*
X31101Y19886*
X31097Y19941*
X31101Y19993*
X31112Y20040*
X31131Y20081*
X31156Y20116*
X31188Y20144*
X31224Y20164*
X31263Y20176*
X31306Y20180*
X31349Y20176*
X31388Y20164*
X31425Y20144*
X31458Y20116*
X31485Y20081*
X31504Y20042*
X31516Y19997*
X31520Y19948*
X30025Y20054D02*
X30025Y20054D01*
X30429Y20054*
X30429Y19923*
X30025Y19923*
X30025Y20054*
X28806Y19726D02*
X28806Y19726D01*
X29332Y19726*
X29333Y19727*
X29321Y19745*
X29321Y19745*
X29308Y19763*
X29308Y19763*
X29293Y19781*
X29293Y19781*
X29277Y19798*
X29277Y19798*
X29255Y19820*
X29255Y19820*
X29222Y19850*
X29222Y19850*
X29178Y19888*
X29178Y19888*
X29124Y19934*
X29058Y19990*
X29003Y20041*
X28957Y20085*
X28921Y20123*
X28893Y20157*
X28869Y20190*
X28849Y20222*
X28834Y20254*
X28822Y20285*
X28814Y20316*
X28809Y20348*
X28807Y20380*
X28813Y20441*
X28830Y20496*
X28858Y20547*
X28897Y20592*
X28946Y20629*
X29003Y20656*
X29068Y20672*
X29142Y20678*
X29214Y20673*
X29279Y20658*
X29336Y20633*
X29385Y20598*
X29426Y20554*
X29457Y20501*
X29478Y20439*
X29490Y20368*
X29355Y20354*
X29351Y20402*
X29351Y20402*
X29340Y20444*
X29340Y20444*
X29322Y20481*
X29322Y20481*
X29297Y20512*
X29297Y20512*
X29266Y20537*
X29266Y20537*
X29230Y20555*
X29230Y20555*
X29190Y20566*
X29190Y20566*
X29145Y20570*
X29145Y20570*
X29102Y20566*
X29102Y20566*
X29063Y20556*
X29063Y20556*
X29028Y20539*
X29028Y20539*
X28998Y20516*
X28998Y20516*
X28974Y20487*
X28973Y20487*
X28956Y20455*
X28956Y20455*
X28945Y20421*
X28945Y20421*
X28942Y20383*
X28942Y20383*
X28946Y20345*
X28946Y20345*
X28957Y20306*
X28957Y20306*
X28977Y20266*
X28977Y20265*
X29004Y20224*
X29004Y20224*
X29041Y20178*
X29041Y20178*
X29093Y20125*
X29093Y20125*
X29160Y20065*
X29160Y20065*
X29240Y19997*
X29240Y19997*
X29293Y19952*
X29340Y19910*
X29379Y19871*
X29413Y19834*
X29440Y19799*
X29464Y19763*
X29484Y19727*
X29499Y19691*
X29507Y19669*
X29512Y19647*
X29514Y19624*
X29515Y19601*
X28806Y19601*
X28806Y19726*
M02*