M48
;DRILL file {KiCad 4.0.5} date Monday, March 13, 2017 'PMt' 09:41:28 PM
;FORMAT={-:-/ absolute / inch / decimal}
FMAT,2
INCH,TZ
T1C0.012
T2C0.035
T3C0.039
T4C0.050
T5C0.063
T6C0.128
T7C0.157
%
G90
G05
M72
T1
X4.0551Y-2.4646
X4.0551Y-4.2402
X4.5945Y-3.2992
X4.6378Y-3.4213
X4.7795Y-3.5591
X4.7921Y-3.7774
X4.811Y-3.2205
X4.811Y-3.5157
X4.8443Y-3.2247
X4.8777Y-3.4173
X4.8898Y-3.6565
X4.9134Y-3.2244
X4.9331Y-3.6732
X5.0039Y-3.9961
X5.0433Y-4.8425
X5.5079Y-2.9724
X5.5669Y-3.189
X5.7874Y-2.0866
X6.2165Y-3.7283
X6.811Y-2.8346
X6.811Y-4.6181
T2
X5.2555Y-2.8362
X5.2555Y-4.187
X5.3055Y-2.7362
X5.3055Y-4.087
X5.3555Y-2.8362
X5.3555Y-4.187
X5.4055Y-2.7362
X5.4055Y-4.087
X5.4555Y-2.8362
X5.4555Y-4.187
X5.5055Y-2.7362
X5.5055Y-4.087
X5.5555Y-2.8362
X5.5555Y-4.187
X5.6055Y-2.7362
X5.6055Y-4.087
T3
X4.4291Y-2.7543
X4.4291Y-2.8543
X4.4291Y-2.9543
X4.5142Y-4.3307
X4.5291Y-2.7543
X4.5291Y-2.8543
X4.5291Y-2.9543
X4.6142Y-4.3307
X4.7142Y-4.3307
X4.8142Y-4.3307
X4.9142Y-4.3307
X5.0142Y-4.3307
T4
X4.4331Y-3.2874
T5
X6.1268Y-4.0228
X6.2827Y-4.0228
T6
X5.1969Y-2.4862
X5.1969Y-4.437
X5.6642Y-2.4862
X5.6642Y-4.437
T7
X4.3701Y-3.8976
X6.5551Y-3.8976
T0
M30
