G04 #@! TF.FileFunction,Legend,Top*
%FSLAX46Y46*%
G04 Gerber Fmt 4.6, Leading zero omitted, Abs format (unit mm)*
G04 Created by KiCad (PCBNEW 4.0.5) date Monday, April 17, 2017 'AMt' 08:56:10 AM*
%MOMM*%
%LPD*%
G01*
G04 APERTURE LIST*
%ADD10C,0.100000*%
%ADD11C,0.200000*%
%ADD12C,0.300000*%
%ADD13C,0.120000*%
%ADD14C,0.150000*%
G04 APERTURE END LIST*
D10*
D11*
X125918811Y-97000974D02*
G75*
G03X125950000Y-98000000I31189J-499026D01*
G01*
X126661803Y-93988197D02*
G75*
G03X126661803Y-93988197I-111803J0D01*
G01*
X125161803Y-91550000D02*
G75*
G03X125161803Y-91550000I-111803J0D01*
G01*
X118628572Y-107278571D02*
X118628572Y-105778571D01*
X118985715Y-105778571D01*
X119200000Y-105850000D01*
X119342858Y-105992857D01*
X119414286Y-106135714D01*
X119485715Y-106421429D01*
X119485715Y-106635714D01*
X119414286Y-106921429D01*
X119342858Y-107064286D01*
X119200000Y-107207143D01*
X118985715Y-107278571D01*
X118628572Y-107278571D01*
X120700000Y-107207143D02*
X120557143Y-107278571D01*
X120271429Y-107278571D01*
X120128572Y-107207143D01*
X120057143Y-107064286D01*
X120057143Y-106492857D01*
X120128572Y-106350000D01*
X120271429Y-106278571D01*
X120557143Y-106278571D01*
X120700000Y-106350000D01*
X120771429Y-106492857D01*
X120771429Y-106635714D01*
X120057143Y-106778571D01*
X121414286Y-107278571D02*
X121414286Y-105778571D01*
X121414286Y-106350000D02*
X121557143Y-106278571D01*
X121842857Y-106278571D01*
X121985714Y-106350000D01*
X122057143Y-106421429D01*
X122128572Y-106564286D01*
X122128572Y-106992857D01*
X122057143Y-107135714D01*
X121985714Y-107207143D01*
X121842857Y-107278571D01*
X121557143Y-107278571D01*
X121414286Y-107207143D01*
X123414286Y-106278571D02*
X123414286Y-107278571D01*
X122771429Y-106278571D02*
X122771429Y-107064286D01*
X122842857Y-107207143D01*
X122985715Y-107278571D01*
X123200000Y-107278571D01*
X123342857Y-107207143D01*
X123414286Y-107135714D01*
X124771429Y-106278571D02*
X124771429Y-107492857D01*
X124700000Y-107635714D01*
X124628572Y-107707143D01*
X124485715Y-107778571D01*
X124271429Y-107778571D01*
X124128572Y-107707143D01*
X124771429Y-107207143D02*
X124628572Y-107278571D01*
X124342858Y-107278571D01*
X124200000Y-107207143D01*
X124128572Y-107135714D01*
X124057143Y-106992857D01*
X124057143Y-106564286D01*
X124128572Y-106421429D01*
X124200000Y-106350000D01*
X124342858Y-106278571D01*
X124628572Y-106278571D01*
X124771429Y-106350000D01*
D12*
X124142857Y-79457143D02*
X124142857Y-76457143D01*
X124857142Y-76457143D01*
X125285714Y-76600000D01*
X125571428Y-76885714D01*
X125714285Y-77171429D01*
X125857142Y-77742857D01*
X125857142Y-78171429D01*
X125714285Y-78742857D01*
X125571428Y-79028571D01*
X125285714Y-79314286D01*
X124857142Y-79457143D01*
X124142857Y-79457143D01*
X127142857Y-79457143D02*
X127142857Y-77457143D01*
X127142857Y-76457143D02*
X127000000Y-76600000D01*
X127142857Y-76742857D01*
X127285714Y-76600000D01*
X127142857Y-76457143D01*
X127142857Y-76742857D01*
X128428571Y-79314286D02*
X128714285Y-79457143D01*
X129285713Y-79457143D01*
X129571428Y-79314286D01*
X129714285Y-79028571D01*
X129714285Y-78885714D01*
X129571428Y-78600000D01*
X129285713Y-78457143D01*
X128857142Y-78457143D01*
X128571428Y-78314286D01*
X128428571Y-78028571D01*
X128428571Y-77885714D01*
X128571428Y-77600000D01*
X128857142Y-77457143D01*
X129285713Y-77457143D01*
X129571428Y-77600000D01*
X132285713Y-79314286D02*
X131999999Y-79457143D01*
X131428570Y-79457143D01*
X131142856Y-79314286D01*
X130999999Y-79171429D01*
X130857142Y-78885714D01*
X130857142Y-78028571D01*
X130999999Y-77742857D01*
X131142856Y-77600000D01*
X131428570Y-77457143D01*
X131999999Y-77457143D01*
X132285713Y-77600000D01*
X133999999Y-79457143D02*
X133714285Y-79314286D01*
X133571428Y-79171429D01*
X133428571Y-78885714D01*
X133428571Y-78028571D01*
X133571428Y-77742857D01*
X133714285Y-77600000D01*
X133999999Y-77457143D01*
X134428571Y-77457143D01*
X134714285Y-77600000D01*
X134857142Y-77742857D01*
X134999999Y-78028571D01*
X134999999Y-78885714D01*
X134857142Y-79171429D01*
X134714285Y-79314286D01*
X134428571Y-79457143D01*
X133999999Y-79457143D01*
X136285714Y-79457143D02*
X136285714Y-76457143D01*
X137999999Y-79457143D01*
X137999999Y-76457143D01*
X139857142Y-79457143D02*
X139571428Y-79314286D01*
X139428571Y-79171429D01*
X139285714Y-78885714D01*
X139285714Y-78028571D01*
X139428571Y-77742857D01*
X139571428Y-77600000D01*
X139857142Y-77457143D01*
X140285714Y-77457143D01*
X140571428Y-77600000D01*
X140714285Y-77742857D01*
X140857142Y-78028571D01*
X140857142Y-78885714D01*
X140714285Y-79171429D01*
X140571428Y-79314286D01*
X140285714Y-79457143D01*
X139857142Y-79457143D01*
X143428571Y-79457143D02*
X143428571Y-76457143D01*
X143428571Y-79314286D02*
X143142857Y-79457143D01*
X142571428Y-79457143D01*
X142285714Y-79314286D01*
X142142857Y-79171429D01*
X142000000Y-78885714D01*
X142000000Y-78028571D01*
X142142857Y-77742857D01*
X142285714Y-77600000D01*
X142571428Y-77457143D01*
X143142857Y-77457143D01*
X143428571Y-77600000D01*
X146000000Y-79314286D02*
X145714286Y-79457143D01*
X145142857Y-79457143D01*
X144857143Y-79314286D01*
X144714286Y-79028571D01*
X144714286Y-77885714D01*
X144857143Y-77600000D01*
X145142857Y-77457143D01*
X145714286Y-77457143D01*
X146000000Y-77600000D01*
X146142857Y-77885714D01*
X146142857Y-78171429D01*
X144714286Y-78457143D01*
X147142857Y-76457143D02*
X149000000Y-76457143D01*
X148000000Y-77600000D01*
X148428572Y-77600000D01*
X148714286Y-77742857D01*
X148857143Y-77885714D01*
X149000000Y-78171429D01*
X149000000Y-78885714D01*
X148857143Y-79171429D01*
X148714286Y-79314286D01*
X148428572Y-79457143D01*
X147571429Y-79457143D01*
X147285715Y-79314286D01*
X147142857Y-79171429D01*
D11*
X115421429Y-112985715D02*
X115421429Y-112271429D01*
X114707143Y-112200000D01*
X114778571Y-112271429D01*
X114850000Y-112414286D01*
X114850000Y-112771429D01*
X114778571Y-112914286D01*
X114707143Y-112985715D01*
X114564286Y-113057143D01*
X114207143Y-113057143D01*
X114064286Y-112985715D01*
X113992857Y-112914286D01*
X113921429Y-112771429D01*
X113921429Y-112414286D01*
X113992857Y-112271429D01*
X114064286Y-112200000D01*
X114921429Y-113557143D02*
X113921429Y-113914286D01*
X114921429Y-114271428D01*
X116421429Y-111992858D02*
X117921429Y-111992858D01*
X117921429Y-112350001D01*
X117850000Y-112564286D01*
X117707143Y-112707144D01*
X117564286Y-112778572D01*
X117278571Y-112850001D01*
X117064286Y-112850001D01*
X116778571Y-112778572D01*
X116635714Y-112707144D01*
X116492857Y-112564286D01*
X116421429Y-112350001D01*
X116421429Y-111992858D01*
X117778571Y-113421429D02*
X117850000Y-113492858D01*
X117921429Y-113635715D01*
X117921429Y-113992858D01*
X117850000Y-114135715D01*
X117778571Y-114207144D01*
X117635714Y-114278572D01*
X117492857Y-114278572D01*
X117278571Y-114207144D01*
X116421429Y-113350001D01*
X116421429Y-114278572D01*
X128150000Y-112757143D02*
X128221429Y-112614286D01*
X128221429Y-112400000D01*
X128150000Y-112185715D01*
X128007143Y-112042857D01*
X127864286Y-111971429D01*
X127578571Y-111900000D01*
X127364286Y-111900000D01*
X127078571Y-111971429D01*
X126935714Y-112042857D01*
X126792857Y-112185715D01*
X126721429Y-112400000D01*
X126721429Y-112542857D01*
X126792857Y-112757143D01*
X126864286Y-112828572D01*
X127364286Y-112828572D01*
X127364286Y-112542857D01*
X126721429Y-113471429D02*
X128221429Y-113471429D01*
X126721429Y-114328572D01*
X128221429Y-114328572D01*
X126721429Y-115042858D02*
X128221429Y-115042858D01*
X128221429Y-115400001D01*
X128150000Y-115614286D01*
X128007143Y-115757144D01*
X127864286Y-115828572D01*
X127578571Y-115900001D01*
X127364286Y-115900001D01*
X127078571Y-115828572D01*
X126935714Y-115757144D01*
X126792857Y-115614286D01*
X126721429Y-115400001D01*
X126721429Y-115042858D01*
X124121429Y-111792858D02*
X125621429Y-111792858D01*
X125621429Y-112150001D01*
X125550000Y-112364286D01*
X125407143Y-112507144D01*
X125264286Y-112578572D01*
X124978571Y-112650001D01*
X124764286Y-112650001D01*
X124478571Y-112578572D01*
X124335714Y-112507144D01*
X124192857Y-112364286D01*
X124121429Y-112150001D01*
X124121429Y-111792858D01*
X124121429Y-114078572D02*
X124121429Y-113221429D01*
X124121429Y-113650001D02*
X125621429Y-113650001D01*
X125407143Y-113507144D01*
X125264286Y-113364286D01*
X125192857Y-113221429D01*
X121621429Y-112750001D02*
X122335714Y-112250001D01*
X121621429Y-111892858D02*
X123121429Y-111892858D01*
X123121429Y-112464286D01*
X123050000Y-112607144D01*
X122978571Y-112678572D01*
X122835714Y-112750001D01*
X122621429Y-112750001D01*
X122478571Y-112678572D01*
X122407143Y-112607144D01*
X122335714Y-112464286D01*
X122335714Y-111892858D01*
X123121429Y-113250001D02*
X121621429Y-114250001D01*
X123121429Y-114250001D02*
X121621429Y-113250001D01*
X120521429Y-111857143D02*
X120521429Y-112714286D01*
X119021429Y-112285715D02*
X120521429Y-112285715D01*
X120521429Y-113071429D02*
X119021429Y-114071429D01*
X120521429Y-114071429D02*
X119021429Y-113071429D01*
D13*
X120000000Y-55430000D02*
X118800000Y-55430000D01*
X118800000Y-53670000D02*
X120000000Y-53670000D01*
X120000000Y-57380000D02*
X118800000Y-57380000D01*
X118800000Y-55620000D02*
X120000000Y-55620000D01*
X103130000Y-68150000D02*
X103130000Y-69350000D01*
X101370000Y-69350000D02*
X101370000Y-68150000D01*
X118650000Y-119120000D02*
X119850000Y-119120000D01*
X119850000Y-120880000D02*
X118650000Y-120880000D01*
X118650000Y-121120000D02*
X119850000Y-121120000D01*
X119850000Y-122880000D02*
X118650000Y-122880000D01*
X133859201Y-90374251D02*
X133859201Y-89374251D01*
X132159201Y-89374251D02*
X132159201Y-90374251D01*
X131959201Y-90374251D02*
X131959201Y-89374251D01*
X130259201Y-89374251D02*
X130259201Y-90374251D01*
X129250000Y-90400000D02*
X129250000Y-89400000D01*
X127550000Y-89400000D02*
X127550000Y-90400000D01*
X145550000Y-55280000D02*
X130310000Y-55280000D01*
X130310000Y-73310000D02*
X130320000Y-64320000D01*
X130310000Y-73310000D02*
X145550000Y-73310000D01*
X145550000Y-73310000D02*
X145550000Y-64310000D01*
X130320000Y-61980000D02*
X130310000Y-55280000D01*
X145550000Y-61990000D02*
X145550000Y-55280000D01*
X157400000Y-57430000D02*
X156200000Y-57430000D01*
X156200000Y-55670000D02*
X157400000Y-55670000D01*
X157350000Y-55480000D02*
X156150000Y-55480000D01*
X156150000Y-53720000D02*
X157350000Y-53720000D01*
X172620000Y-68850000D02*
X172620000Y-67650000D01*
X174380000Y-67650000D02*
X174380000Y-68850000D01*
X107130000Y-80650000D02*
X107130000Y-81850000D01*
X105370000Y-81850000D02*
X105370000Y-80650000D01*
X105130000Y-80650000D02*
X105130000Y-81850000D01*
X103370000Y-81850000D02*
X103370000Y-80650000D01*
X103130000Y-106150000D02*
X103130000Y-107350000D01*
X101370000Y-107350000D02*
X101370000Y-106150000D01*
X153700000Y-93400000D02*
X154700000Y-93400000D01*
X154700000Y-91700000D02*
X153700000Y-91700000D01*
X152700000Y-95670000D02*
X154700000Y-95670000D01*
X154700000Y-93630000D02*
X152700000Y-93630000D01*
X152700000Y-97870000D02*
X154700000Y-97870000D01*
X154700000Y-95830000D02*
X152700000Y-95830000D01*
X114544529Y-89483473D02*
X114544529Y-88483473D01*
X112844529Y-88483473D02*
X112844529Y-89483473D01*
X126250000Y-98900000D02*
X126250000Y-99900000D01*
X127950000Y-99900000D02*
X127950000Y-98900000D01*
X153700000Y-91500000D02*
X154700000Y-91500000D01*
X154700000Y-89800000D02*
X153700000Y-89800000D01*
X158600000Y-90300000D02*
X157600000Y-90300000D01*
X157600000Y-92000000D02*
X158600000Y-92000000D01*
D14*
X124619529Y-90908473D02*
X124619529Y-90683473D01*
X117369529Y-90908473D02*
X117369529Y-90583473D01*
X117369529Y-83658473D02*
X117369529Y-83983473D01*
X124619529Y-83658473D02*
X124619529Y-83983473D01*
X124619529Y-90908473D02*
X124294529Y-90908473D01*
X124619529Y-83658473D02*
X124294529Y-83658473D01*
X117369529Y-83658473D02*
X117694529Y-83658473D01*
X117369529Y-90908473D02*
X117694529Y-90908473D01*
X124619529Y-90683473D02*
X126044529Y-90683473D01*
X112400000Y-81500000D02*
X111800000Y-81500000D01*
X112400000Y-81950000D02*
X112400000Y-81500000D01*
X112400000Y-85500000D02*
X111800000Y-85500000D01*
X112400000Y-85024000D02*
X112400000Y-85500000D01*
X111800000Y-85024000D02*
X111800000Y-85500000D01*
X111800000Y-81950000D02*
X111800000Y-81500000D01*
D13*
X130320000Y-120570000D02*
X145560000Y-120570000D01*
X145560000Y-102540000D02*
X145550000Y-111530000D01*
X145560000Y-102540000D02*
X130320000Y-102540000D01*
X130320000Y-102540000D02*
X130320000Y-111540000D01*
X145550000Y-113870000D02*
X145560000Y-120570000D01*
X130320000Y-113860000D02*
X130320000Y-120570000D01*
X111110000Y-71230000D02*
X111110000Y-76430000D01*
X111110000Y-76430000D02*
X116430000Y-76430000D01*
X116430000Y-76430000D02*
X116430000Y-68570000D01*
X116430000Y-68570000D02*
X113770000Y-68570000D01*
X113770000Y-68570000D02*
X113770000Y-71230000D01*
X113770000Y-71230000D02*
X111110000Y-71230000D01*
X111110000Y-69960000D02*
X111110000Y-68570000D01*
X111110000Y-68570000D02*
X112500000Y-68570000D01*
X115930000Y-111390000D02*
X128750000Y-111390000D01*
X128750000Y-111390000D02*
X128750000Y-108610000D01*
X128750000Y-108610000D02*
X115930000Y-108610000D01*
X115930000Y-108610000D02*
X115930000Y-111390000D01*
X114660000Y-111390000D02*
X113270000Y-111390000D01*
X113270000Y-111390000D02*
X113270000Y-110000000D01*
X161060000Y-84630000D02*
X161060000Y-83700000D01*
X161060000Y-81470000D02*
X161060000Y-82400000D01*
X161060000Y-81470000D02*
X158900000Y-81470000D01*
X161060000Y-84630000D02*
X159600000Y-84630000D01*
X161110000Y-79655000D02*
X161110000Y-78725000D01*
X161110000Y-76495000D02*
X161110000Y-77425000D01*
X161110000Y-76495000D02*
X158950000Y-76495000D01*
X161110000Y-79655000D02*
X159650000Y-79655000D01*
X161060000Y-74830000D02*
X161060000Y-73900000D01*
X161060000Y-71670000D02*
X161060000Y-72600000D01*
X161060000Y-71670000D02*
X158900000Y-71670000D01*
X161060000Y-74830000D02*
X159600000Y-74830000D01*
X101620000Y-56600000D02*
X101620000Y-55400000D01*
X103380000Y-55400000D02*
X103380000Y-56600000D01*
X168920000Y-94550000D02*
X168920000Y-93350000D01*
X170680000Y-93350000D02*
X170680000Y-94550000D01*
X170870000Y-94550000D02*
X170870000Y-93350000D01*
X172630000Y-93350000D02*
X172630000Y-94550000D01*
X172870000Y-107100000D02*
X172870000Y-105900000D01*
X174630000Y-105900000D02*
X174630000Y-107100000D01*
X148030000Y-116350000D02*
X148030000Y-117550000D01*
X146270000Y-117550000D02*
X146270000Y-116350000D01*
X150080000Y-116350000D02*
X150080000Y-117550000D01*
X148320000Y-117550000D02*
X148320000Y-116350000D01*
X172870000Y-119850000D02*
X172870000Y-118650000D01*
X174630000Y-118650000D02*
X174630000Y-119850000D01*
X153500000Y-75080000D02*
X152300000Y-75080000D01*
X152300000Y-73320000D02*
X153500000Y-73320000D01*
X153650000Y-79855000D02*
X152450000Y-79855000D01*
X152450000Y-78095000D02*
X153650000Y-78095000D01*
X153600000Y-84830000D02*
X152400000Y-84830000D01*
X152400000Y-83070000D02*
X153600000Y-83070000D01*
X152400000Y-81170000D02*
X153600000Y-81170000D01*
X153600000Y-82930000D02*
X152400000Y-82930000D01*
X152450000Y-76195000D02*
X153650000Y-76195000D01*
X153650000Y-77955000D02*
X152450000Y-77955000D01*
X152300000Y-71320000D02*
X153500000Y-71320000D01*
X153500000Y-73080000D02*
X152300000Y-73080000D01*
X111900000Y-76720000D02*
X113100000Y-76720000D01*
X113100000Y-78480000D02*
X111900000Y-78480000D01*
X126220000Y-96500000D02*
X126220000Y-95300000D01*
X127980000Y-95300000D02*
X127980000Y-96500000D01*
X159710000Y-94950000D02*
X159710000Y-93150000D01*
X156490000Y-93150000D02*
X156490000Y-95600000D01*
D14*
X125975000Y-95325000D02*
X125925000Y-95325000D01*
X125975000Y-99475000D02*
X125830000Y-99475000D01*
X120825000Y-99475000D02*
X120970000Y-99475000D01*
X120825000Y-95325000D02*
X120970000Y-95325000D01*
X125975000Y-95325000D02*
X125975000Y-99475000D01*
X120825000Y-95325000D02*
X120825000Y-99475000D01*
X125925000Y-95325000D02*
X125925000Y-93925000D01*
X153800000Y-98300000D02*
X161200000Y-98300000D01*
X153800000Y-98300000D02*
X153800000Y-117700000D01*
X161200000Y-98300000D02*
X161200000Y-117700000D01*
X153800000Y-117700000D02*
X161200000Y-117700000D01*
D13*
X110914529Y-89383473D02*
X110914529Y-88183473D01*
X112674529Y-88183473D02*
X112674529Y-89383473D01*
X134950000Y-83250000D02*
X130050000Y-83250000D01*
X130050000Y-83250000D02*
X130050000Y-87750000D01*
X130050000Y-87750000D02*
X134950000Y-87750000D01*
D14*
X108490792Y-118596400D02*
G75*
G03X108490792Y-118596400I-113592J0D01*
G01*
D13*
X108600000Y-125100000D02*
X116400000Y-125100000D01*
X108600000Y-118900000D02*
X108600000Y-121000000D01*
X108600000Y-118900000D02*
X116400000Y-118900000D01*
D14*
X120990792Y-118596400D02*
G75*
G03X120990792Y-118596400I-113592J0D01*
G01*
D13*
X121100000Y-125100000D02*
X128900000Y-125100000D01*
X121100000Y-118900000D02*
X121100000Y-121000000D01*
X121100000Y-118900000D02*
X128900000Y-118900000D01*
D14*
X145490792Y-118346400D02*
G75*
G03X145490792Y-118346400I-113592J0D01*
G01*
D13*
X145600000Y-124850000D02*
X153400000Y-124850000D01*
X145600000Y-118650000D02*
X145600000Y-120750000D01*
X145600000Y-118650000D02*
X153400000Y-118650000D01*
D14*
X160740792Y-118346400D02*
G75*
G03X160740792Y-118346400I-113592J0D01*
G01*
D13*
X160850000Y-124850000D02*
X168650000Y-124850000D01*
X160850000Y-118650000D02*
X160850000Y-120750000D01*
X160850000Y-118650000D02*
X168650000Y-118650000D01*
D14*
X168459992Y-117622800D02*
G75*
G03X168459992Y-117622800I-113592J0D01*
G01*
D13*
X174850000Y-117400000D02*
X174850000Y-109600000D01*
X168650000Y-117400000D02*
X170750000Y-117400000D01*
X168650000Y-117400000D02*
X168650000Y-109600000D01*
D14*
X168459992Y-92122800D02*
G75*
G03X168459992Y-92122800I-113592J0D01*
G01*
D13*
X174850000Y-91900000D02*
X174850000Y-84100000D01*
X168650000Y-91900000D02*
X170750000Y-91900000D01*
X168650000Y-91900000D02*
X168650000Y-84100000D01*
D14*
X168459992Y-79622800D02*
G75*
G03X168459992Y-79622800I-113592J0D01*
G01*
D13*
X174850000Y-79400000D02*
X174850000Y-71600000D01*
X168650000Y-79400000D02*
X170750000Y-79400000D01*
X168650000Y-79400000D02*
X168650000Y-71600000D01*
D14*
X168459992Y-66622800D02*
G75*
G03X168459992Y-66622800I-113592J0D01*
G01*
D13*
X174850000Y-66400000D02*
X174850000Y-58600000D01*
X168650000Y-66400000D02*
X170750000Y-66400000D01*
X168650000Y-66400000D02*
X168650000Y-58600000D01*
D14*
X167736392Y-57903600D02*
G75*
G03X167736392Y-57903600I-113592J0D01*
G01*
D13*
X167400000Y-51400000D02*
X159600000Y-51400000D01*
X167400000Y-57600000D02*
X167400000Y-55500000D01*
X167400000Y-57600000D02*
X159600000Y-57600000D01*
D14*
X154936392Y-57903600D02*
G75*
G03X154936392Y-57903600I-113592J0D01*
G01*
D13*
X154600000Y-51400000D02*
X146800000Y-51400000D01*
X154600000Y-57600000D02*
X154600000Y-55500000D01*
X154600000Y-57600000D02*
X146800000Y-57600000D01*
D14*
X130236392Y-57903600D02*
G75*
G03X130236392Y-57903600I-113592J0D01*
G01*
D13*
X129900000Y-51400000D02*
X122100000Y-51400000D01*
X129900000Y-57600000D02*
X129900000Y-55500000D01*
X129900000Y-57600000D02*
X122100000Y-57600000D01*
D14*
X117736392Y-57903600D02*
G75*
G03X117736392Y-57903600I-113592J0D01*
G01*
D13*
X117400000Y-51400000D02*
X109600000Y-51400000D01*
X117400000Y-57600000D02*
X117400000Y-55500000D01*
X117400000Y-57600000D02*
X109600000Y-57600000D01*
D14*
X107767192Y-57377200D02*
G75*
G03X107767192Y-57377200I-113592J0D01*
G01*
D13*
X101150000Y-57600000D02*
X101150000Y-65400000D01*
X107350000Y-57600000D02*
X105250000Y-57600000D01*
X107350000Y-57600000D02*
X107350000Y-65400000D01*
D14*
X107767192Y-70377200D02*
G75*
G03X107767192Y-70377200I-113592J0D01*
G01*
D13*
X101150000Y-70600000D02*
X101150000Y-78400000D01*
X107350000Y-70600000D02*
X105250000Y-70600000D01*
X107350000Y-70600000D02*
X107350000Y-78400000D01*
D14*
X107767192Y-82877200D02*
G75*
G03X107767192Y-82877200I-113592J0D01*
G01*
D13*
X101150000Y-83100000D02*
X101150000Y-90900000D01*
X107350000Y-83100000D02*
X105250000Y-83100000D01*
X107350000Y-83100000D02*
X107350000Y-90900000D01*
D14*
X107767192Y-108377200D02*
G75*
G03X107767192Y-108377200I-113592J0D01*
G01*
D13*
X101150000Y-108600000D02*
X101150000Y-116400000D01*
X107350000Y-108600000D02*
X105250000Y-108600000D01*
X107350000Y-108600000D02*
X107350000Y-116400000D01*
D14*
X107767192Y-95377200D02*
G75*
G03X107767192Y-95377200I-113592J0D01*
G01*
D13*
X101150000Y-95600000D02*
X101150000Y-103400000D01*
X107350000Y-95600000D02*
X105250000Y-95600000D01*
X107350000Y-95600000D02*
X107350000Y-103400000D01*
D14*
X168459992Y-104622800D02*
G75*
G03X168459992Y-104622800I-113592J0D01*
G01*
D13*
X174850000Y-104400000D02*
X174850000Y-96600000D01*
X168650000Y-104400000D02*
X170750000Y-104400000D01*
X168650000Y-104400000D02*
X168650000Y-96600000D01*
D14*
X119333334Y-53452381D02*
X119000000Y-52976190D01*
X118761905Y-53452381D02*
X118761905Y-52452381D01*
X119142858Y-52452381D01*
X119238096Y-52500000D01*
X119285715Y-52547619D01*
X119333334Y-52642857D01*
X119333334Y-52785714D01*
X119285715Y-52880952D01*
X119238096Y-52928571D01*
X119142858Y-52976190D01*
X118761905Y-52976190D01*
X119904762Y-52880952D02*
X119809524Y-52833333D01*
X119761905Y-52785714D01*
X119714286Y-52690476D01*
X119714286Y-52642857D01*
X119761905Y-52547619D01*
X119809524Y-52500000D01*
X119904762Y-52452381D01*
X120095239Y-52452381D01*
X120190477Y-52500000D01*
X120238096Y-52547619D01*
X120285715Y-52642857D01*
X120285715Y-52690476D01*
X120238096Y-52785714D01*
X120190477Y-52833333D01*
X120095239Y-52880952D01*
X119904762Y-52880952D01*
X119809524Y-52928571D01*
X119761905Y-52976190D01*
X119714286Y-53071429D01*
X119714286Y-53261905D01*
X119761905Y-53357143D01*
X119809524Y-53404762D01*
X119904762Y-53452381D01*
X120095239Y-53452381D01*
X120190477Y-53404762D01*
X120238096Y-53357143D01*
X120285715Y-53261905D01*
X120285715Y-53071429D01*
X120238096Y-52976190D01*
X120190477Y-52928571D01*
X120095239Y-52880952D01*
X119333334Y-58702381D02*
X119000000Y-58226190D01*
X118761905Y-58702381D02*
X118761905Y-57702381D01*
X119142858Y-57702381D01*
X119238096Y-57750000D01*
X119285715Y-57797619D01*
X119333334Y-57892857D01*
X119333334Y-58035714D01*
X119285715Y-58130952D01*
X119238096Y-58178571D01*
X119142858Y-58226190D01*
X118761905Y-58226190D01*
X119666667Y-57702381D02*
X120333334Y-57702381D01*
X119904762Y-58702381D01*
X104452381Y-68916666D02*
X103976190Y-69250000D01*
X104452381Y-69488095D02*
X103452381Y-69488095D01*
X103452381Y-69107142D01*
X103500000Y-69011904D01*
X103547619Y-68964285D01*
X103642857Y-68916666D01*
X103785714Y-68916666D01*
X103880952Y-68964285D01*
X103928571Y-69011904D01*
X103976190Y-69107142D01*
X103976190Y-69488095D01*
X103452381Y-68059523D02*
X103452381Y-68250000D01*
X103500000Y-68345238D01*
X103547619Y-68392857D01*
X103690476Y-68488095D01*
X103880952Y-68535714D01*
X104261905Y-68535714D01*
X104357143Y-68488095D01*
X104404762Y-68440476D01*
X104452381Y-68345238D01*
X104452381Y-68154761D01*
X104404762Y-68059523D01*
X104357143Y-68011904D01*
X104261905Y-67964285D01*
X104023810Y-67964285D01*
X103928571Y-68011904D01*
X103880952Y-68059523D01*
X103833333Y-68154761D01*
X103833333Y-68345238D01*
X103880952Y-68440476D01*
X103928571Y-68488095D01*
X104023810Y-68535714D01*
X119033334Y-118902381D02*
X118700000Y-118426190D01*
X118461905Y-118902381D02*
X118461905Y-117902381D01*
X118842858Y-117902381D01*
X118938096Y-117950000D01*
X118985715Y-117997619D01*
X119033334Y-118092857D01*
X119033334Y-118235714D01*
X118985715Y-118330952D01*
X118938096Y-118378571D01*
X118842858Y-118426190D01*
X118461905Y-118426190D01*
X119985715Y-118902381D02*
X119414286Y-118902381D01*
X119700000Y-118902381D02*
X119700000Y-117902381D01*
X119604762Y-118045238D01*
X119509524Y-118140476D01*
X119414286Y-118188095D01*
X119083334Y-124302381D02*
X118750000Y-123826190D01*
X118511905Y-124302381D02*
X118511905Y-123302381D01*
X118892858Y-123302381D01*
X118988096Y-123350000D01*
X119035715Y-123397619D01*
X119083334Y-123492857D01*
X119083334Y-123635714D01*
X119035715Y-123730952D01*
X118988096Y-123778571D01*
X118892858Y-123826190D01*
X118511905Y-123826190D01*
X119464286Y-123397619D02*
X119511905Y-123350000D01*
X119607143Y-123302381D01*
X119845239Y-123302381D01*
X119940477Y-123350000D01*
X119988096Y-123397619D01*
X120035715Y-123492857D01*
X120035715Y-123588095D01*
X119988096Y-123730952D01*
X119416667Y-124302381D01*
X120035715Y-124302381D01*
X132833334Y-92757143D02*
X132785715Y-92804762D01*
X132642858Y-92852381D01*
X132547620Y-92852381D01*
X132404762Y-92804762D01*
X132309524Y-92709524D01*
X132261905Y-92614286D01*
X132214286Y-92423810D01*
X132214286Y-92280952D01*
X132261905Y-92090476D01*
X132309524Y-91995238D01*
X132404762Y-91900000D01*
X132547620Y-91852381D01*
X132642858Y-91852381D01*
X132785715Y-91900000D01*
X132833334Y-91947619D01*
X133214286Y-91947619D02*
X133261905Y-91900000D01*
X133357143Y-91852381D01*
X133595239Y-91852381D01*
X133690477Y-91900000D01*
X133738096Y-91947619D01*
X133785715Y-92042857D01*
X133785715Y-92138095D01*
X133738096Y-92280952D01*
X133166667Y-92852381D01*
X133785715Y-92852381D01*
X130942535Y-92757143D02*
X130894916Y-92804762D01*
X130752059Y-92852381D01*
X130656821Y-92852381D01*
X130513963Y-92804762D01*
X130418725Y-92709524D01*
X130371106Y-92614286D01*
X130323487Y-92423810D01*
X130323487Y-92280952D01*
X130371106Y-92090476D01*
X130418725Y-91995238D01*
X130513963Y-91900000D01*
X130656821Y-91852381D01*
X130752059Y-91852381D01*
X130894916Y-91900000D01*
X130942535Y-91947619D01*
X131894916Y-92852381D02*
X131323487Y-92852381D01*
X131609201Y-92852381D02*
X131609201Y-91852381D01*
X131513963Y-91995238D01*
X131418725Y-92090476D01*
X131323487Y-92138095D01*
X128233334Y-92757143D02*
X128185715Y-92804762D01*
X128042858Y-92852381D01*
X127947620Y-92852381D01*
X127804762Y-92804762D01*
X127709524Y-92709524D01*
X127661905Y-92614286D01*
X127614286Y-92423810D01*
X127614286Y-92280952D01*
X127661905Y-92090476D01*
X127709524Y-91995238D01*
X127804762Y-91900000D01*
X127947620Y-91852381D01*
X128042858Y-91852381D01*
X128185715Y-91900000D01*
X128233334Y-91947619D01*
X128566667Y-91852381D02*
X129185715Y-91852381D01*
X128852381Y-92233333D01*
X128995239Y-92233333D01*
X129090477Y-92280952D01*
X129138096Y-92328571D01*
X129185715Y-92423810D01*
X129185715Y-92661905D01*
X129138096Y-92757143D01*
X129090477Y-92804762D01*
X128995239Y-92852381D01*
X128709524Y-92852381D01*
X128614286Y-92804762D01*
X128566667Y-92757143D01*
X137346667Y-57772381D02*
X137346667Y-58486667D01*
X137299047Y-58629524D01*
X137203809Y-58724762D01*
X137060952Y-58772381D01*
X136965714Y-58772381D01*
X137727619Y-57772381D02*
X138346667Y-57772381D01*
X138013333Y-58153333D01*
X138156191Y-58153333D01*
X138251429Y-58200952D01*
X138299048Y-58248571D01*
X138346667Y-58343810D01*
X138346667Y-58581905D01*
X138299048Y-58677143D01*
X138251429Y-58724762D01*
X138156191Y-58772381D01*
X137870476Y-58772381D01*
X137775238Y-58724762D01*
X137727619Y-58677143D01*
X156357143Y-58702381D02*
X156023809Y-58226190D01*
X155785714Y-58702381D02*
X155785714Y-57702381D01*
X156166667Y-57702381D01*
X156261905Y-57750000D01*
X156309524Y-57797619D01*
X156357143Y-57892857D01*
X156357143Y-58035714D01*
X156309524Y-58130952D01*
X156261905Y-58178571D01*
X156166667Y-58226190D01*
X155785714Y-58226190D01*
X157309524Y-58702381D02*
X156738095Y-58702381D01*
X157023809Y-58702381D02*
X157023809Y-57702381D01*
X156928571Y-57845238D01*
X156833333Y-57940476D01*
X156738095Y-57988095D01*
X157928571Y-57702381D02*
X158023810Y-57702381D01*
X158119048Y-57750000D01*
X158166667Y-57797619D01*
X158214286Y-57892857D01*
X158261905Y-58083333D01*
X158261905Y-58321429D01*
X158214286Y-58511905D01*
X158166667Y-58607143D01*
X158119048Y-58654762D01*
X158023810Y-58702381D01*
X157928571Y-58702381D01*
X157833333Y-58654762D01*
X157785714Y-58607143D01*
X157738095Y-58511905D01*
X157690476Y-58321429D01*
X157690476Y-58083333D01*
X157738095Y-57892857D01*
X157785714Y-57797619D01*
X157833333Y-57750000D01*
X157928571Y-57702381D01*
X156107143Y-53452381D02*
X155773809Y-52976190D01*
X155535714Y-53452381D02*
X155535714Y-52452381D01*
X155916667Y-52452381D01*
X156011905Y-52500000D01*
X156059524Y-52547619D01*
X156107143Y-52642857D01*
X156107143Y-52785714D01*
X156059524Y-52880952D01*
X156011905Y-52928571D01*
X155916667Y-52976190D01*
X155535714Y-52976190D01*
X157059524Y-53452381D02*
X156488095Y-53452381D01*
X156773809Y-53452381D02*
X156773809Y-52452381D01*
X156678571Y-52595238D01*
X156583333Y-52690476D01*
X156488095Y-52738095D01*
X158011905Y-53452381D02*
X157440476Y-53452381D01*
X157726190Y-53452381D02*
X157726190Y-52452381D01*
X157630952Y-52595238D01*
X157535714Y-52690476D01*
X157440476Y-52738095D01*
X172202381Y-68892857D02*
X171726190Y-69226191D01*
X172202381Y-69464286D02*
X171202381Y-69464286D01*
X171202381Y-69083333D01*
X171250000Y-68988095D01*
X171297619Y-68940476D01*
X171392857Y-68892857D01*
X171535714Y-68892857D01*
X171630952Y-68940476D01*
X171678571Y-68988095D01*
X171726190Y-69083333D01*
X171726190Y-69464286D01*
X172202381Y-67940476D02*
X172202381Y-68511905D01*
X172202381Y-68226191D02*
X171202381Y-68226191D01*
X171345238Y-68321429D01*
X171440476Y-68416667D01*
X171488095Y-68511905D01*
X171297619Y-67559524D02*
X171250000Y-67511905D01*
X171202381Y-67416667D01*
X171202381Y-67178571D01*
X171250000Y-67083333D01*
X171297619Y-67035714D01*
X171392857Y-66988095D01*
X171488095Y-66988095D01*
X171630952Y-67035714D01*
X172202381Y-67607143D01*
X172202381Y-66988095D01*
X108602381Y-81416666D02*
X108126190Y-81750000D01*
X108602381Y-81988095D02*
X107602381Y-81988095D01*
X107602381Y-81607142D01*
X107650000Y-81511904D01*
X107697619Y-81464285D01*
X107792857Y-81416666D01*
X107935714Y-81416666D01*
X108030952Y-81464285D01*
X108078571Y-81511904D01*
X108126190Y-81607142D01*
X108126190Y-81988095D01*
X107935714Y-80559523D02*
X108602381Y-80559523D01*
X107554762Y-80797619D02*
X108269048Y-81035714D01*
X108269048Y-80416666D01*
X102952381Y-81416666D02*
X102476190Y-81750000D01*
X102952381Y-81988095D02*
X101952381Y-81988095D01*
X101952381Y-81607142D01*
X102000000Y-81511904D01*
X102047619Y-81464285D01*
X102142857Y-81416666D01*
X102285714Y-81416666D01*
X102380952Y-81464285D01*
X102428571Y-81511904D01*
X102476190Y-81607142D01*
X102476190Y-81988095D01*
X101952381Y-80511904D02*
X101952381Y-80988095D01*
X102428571Y-81035714D01*
X102380952Y-80988095D01*
X102333333Y-80892857D01*
X102333333Y-80654761D01*
X102380952Y-80559523D01*
X102428571Y-80511904D01*
X102523810Y-80464285D01*
X102761905Y-80464285D01*
X102857143Y-80511904D01*
X102904762Y-80559523D01*
X102952381Y-80654761D01*
X102952381Y-80892857D01*
X102904762Y-80988095D01*
X102857143Y-81035714D01*
X104552381Y-106916666D02*
X104076190Y-107250000D01*
X104552381Y-107488095D02*
X103552381Y-107488095D01*
X103552381Y-107107142D01*
X103600000Y-107011904D01*
X103647619Y-106964285D01*
X103742857Y-106916666D01*
X103885714Y-106916666D01*
X103980952Y-106964285D01*
X104028571Y-107011904D01*
X104076190Y-107107142D01*
X104076190Y-107488095D01*
X103552381Y-106583333D02*
X103552381Y-105964285D01*
X103933333Y-106297619D01*
X103933333Y-106154761D01*
X103980952Y-106059523D01*
X104028571Y-106011904D01*
X104123810Y-105964285D01*
X104361905Y-105964285D01*
X104457143Y-106011904D01*
X104504762Y-106059523D01*
X104552381Y-106154761D01*
X104552381Y-106440476D01*
X104504762Y-106535714D01*
X104457143Y-106583333D01*
X151233334Y-92907143D02*
X151185715Y-92954762D01*
X151042858Y-93002381D01*
X150947620Y-93002381D01*
X150804762Y-92954762D01*
X150709524Y-92859524D01*
X150661905Y-92764286D01*
X150614286Y-92573810D01*
X150614286Y-92430952D01*
X150661905Y-92240476D01*
X150709524Y-92145238D01*
X150804762Y-92050000D01*
X150947620Y-92002381D01*
X151042858Y-92002381D01*
X151185715Y-92050000D01*
X151233334Y-92097619D01*
X152090477Y-92335714D02*
X152090477Y-93002381D01*
X151852381Y-91954762D02*
X151614286Y-92669048D01*
X152233334Y-92669048D01*
X150333334Y-95007143D02*
X150285715Y-95054762D01*
X150142858Y-95102381D01*
X150047620Y-95102381D01*
X149904762Y-95054762D01*
X149809524Y-94959524D01*
X149761905Y-94864286D01*
X149714286Y-94673810D01*
X149714286Y-94530952D01*
X149761905Y-94340476D01*
X149809524Y-94245238D01*
X149904762Y-94150000D01*
X150047620Y-94102381D01*
X150142858Y-94102381D01*
X150285715Y-94150000D01*
X150333334Y-94197619D01*
X151238096Y-94102381D02*
X150761905Y-94102381D01*
X150714286Y-94578571D01*
X150761905Y-94530952D01*
X150857143Y-94483333D01*
X151095239Y-94483333D01*
X151190477Y-94530952D01*
X151238096Y-94578571D01*
X151285715Y-94673810D01*
X151285715Y-94911905D01*
X151238096Y-95007143D01*
X151190477Y-95054762D01*
X151095239Y-95102381D01*
X150857143Y-95102381D01*
X150761905Y-95054762D01*
X150714286Y-95007143D01*
X150233334Y-97207143D02*
X150185715Y-97254762D01*
X150042858Y-97302381D01*
X149947620Y-97302381D01*
X149804762Y-97254762D01*
X149709524Y-97159524D01*
X149661905Y-97064286D01*
X149614286Y-96873810D01*
X149614286Y-96730952D01*
X149661905Y-96540476D01*
X149709524Y-96445238D01*
X149804762Y-96350000D01*
X149947620Y-96302381D01*
X150042858Y-96302381D01*
X150185715Y-96350000D01*
X150233334Y-96397619D01*
X151090477Y-96302381D02*
X150900000Y-96302381D01*
X150804762Y-96350000D01*
X150757143Y-96397619D01*
X150661905Y-96540476D01*
X150614286Y-96730952D01*
X150614286Y-97111905D01*
X150661905Y-97207143D01*
X150709524Y-97254762D01*
X150804762Y-97302381D01*
X150995239Y-97302381D01*
X151090477Y-97254762D01*
X151138096Y-97207143D01*
X151185715Y-97111905D01*
X151185715Y-96873810D01*
X151138096Y-96778571D01*
X151090477Y-96730952D01*
X150995239Y-96683333D01*
X150804762Y-96683333D01*
X150709524Y-96730952D01*
X150661905Y-96778571D01*
X150614286Y-96873810D01*
X113951672Y-92350139D02*
X113999291Y-92397758D01*
X114046910Y-92540615D01*
X114046910Y-92635853D01*
X113999291Y-92778711D01*
X113904053Y-92873949D01*
X113808815Y-92921568D01*
X113618339Y-92969187D01*
X113475481Y-92969187D01*
X113285005Y-92921568D01*
X113189767Y-92873949D01*
X113094529Y-92778711D01*
X113046910Y-92635853D01*
X113046910Y-92540615D01*
X113094529Y-92397758D01*
X113142148Y-92350139D01*
X113046910Y-92016806D02*
X113046910Y-91350139D01*
X114046910Y-91778711D01*
X129057143Y-99566666D02*
X129104762Y-99614285D01*
X129152381Y-99757142D01*
X129152381Y-99852380D01*
X129104762Y-99995238D01*
X129009524Y-100090476D01*
X128914286Y-100138095D01*
X128723810Y-100185714D01*
X128580952Y-100185714D01*
X128390476Y-100138095D01*
X128295238Y-100090476D01*
X128200000Y-99995238D01*
X128152381Y-99852380D01*
X128152381Y-99757142D01*
X128200000Y-99614285D01*
X128247619Y-99566666D01*
X128580952Y-98995238D02*
X128533333Y-99090476D01*
X128485714Y-99138095D01*
X128390476Y-99185714D01*
X128342857Y-99185714D01*
X128247619Y-99138095D01*
X128200000Y-99090476D01*
X128152381Y-98995238D01*
X128152381Y-98804761D01*
X128200000Y-98709523D01*
X128247619Y-98661904D01*
X128342857Y-98614285D01*
X128390476Y-98614285D01*
X128485714Y-98661904D01*
X128533333Y-98709523D01*
X128580952Y-98804761D01*
X128580952Y-98995238D01*
X128628571Y-99090476D01*
X128676190Y-99138095D01*
X128771429Y-99185714D01*
X128961905Y-99185714D01*
X129057143Y-99138095D01*
X129104762Y-99090476D01*
X129152381Y-98995238D01*
X129152381Y-98804761D01*
X129104762Y-98709523D01*
X129057143Y-98661904D01*
X128961905Y-98614285D01*
X128771429Y-98614285D01*
X128676190Y-98661904D01*
X128628571Y-98709523D01*
X128580952Y-98804761D01*
X151133334Y-91007143D02*
X151085715Y-91054762D01*
X150942858Y-91102381D01*
X150847620Y-91102381D01*
X150704762Y-91054762D01*
X150609524Y-90959524D01*
X150561905Y-90864286D01*
X150514286Y-90673810D01*
X150514286Y-90530952D01*
X150561905Y-90340476D01*
X150609524Y-90245238D01*
X150704762Y-90150000D01*
X150847620Y-90102381D01*
X150942858Y-90102381D01*
X151085715Y-90150000D01*
X151133334Y-90197619D01*
X151609524Y-91102381D02*
X151800000Y-91102381D01*
X151895239Y-91054762D01*
X151942858Y-91007143D01*
X152038096Y-90864286D01*
X152085715Y-90673810D01*
X152085715Y-90292857D01*
X152038096Y-90197619D01*
X151990477Y-90150000D01*
X151895239Y-90102381D01*
X151704762Y-90102381D01*
X151609524Y-90150000D01*
X151561905Y-90197619D01*
X151514286Y-90292857D01*
X151514286Y-90530952D01*
X151561905Y-90626190D01*
X151609524Y-90673810D01*
X151704762Y-90721429D01*
X151895239Y-90721429D01*
X151990477Y-90673810D01*
X152038096Y-90626190D01*
X152085715Y-90530952D01*
X160957143Y-91607143D02*
X160909524Y-91654762D01*
X160766667Y-91702381D01*
X160671429Y-91702381D01*
X160528571Y-91654762D01*
X160433333Y-91559524D01*
X160385714Y-91464286D01*
X160338095Y-91273810D01*
X160338095Y-91130952D01*
X160385714Y-90940476D01*
X160433333Y-90845238D01*
X160528571Y-90750000D01*
X160671429Y-90702381D01*
X160766667Y-90702381D01*
X160909524Y-90750000D01*
X160957143Y-90797619D01*
X161909524Y-91702381D02*
X161338095Y-91702381D01*
X161623809Y-91702381D02*
X161623809Y-90702381D01*
X161528571Y-90845238D01*
X161433333Y-90940476D01*
X161338095Y-90988095D01*
X162528571Y-90702381D02*
X162623810Y-90702381D01*
X162719048Y-90750000D01*
X162766667Y-90797619D01*
X162814286Y-90892857D01*
X162861905Y-91083333D01*
X162861905Y-91321429D01*
X162814286Y-91511905D01*
X162766667Y-91607143D01*
X162719048Y-91654762D01*
X162623810Y-91702381D01*
X162528571Y-91702381D01*
X162433333Y-91654762D01*
X162385714Y-91607143D01*
X162338095Y-91511905D01*
X162290476Y-91321429D01*
X162290476Y-91083333D01*
X162338095Y-90892857D01*
X162385714Y-90797619D01*
X162433333Y-90750000D01*
X162528571Y-90702381D01*
X121546910Y-88359663D02*
X120546910Y-88359663D01*
X121451672Y-87312044D02*
X121499291Y-87359663D01*
X121546910Y-87502520D01*
X121546910Y-87597758D01*
X121499291Y-87740616D01*
X121404053Y-87835854D01*
X121308815Y-87883473D01*
X121118339Y-87931092D01*
X120975481Y-87931092D01*
X120785005Y-87883473D01*
X120689767Y-87835854D01*
X120594529Y-87740616D01*
X120546910Y-87597758D01*
X120546910Y-87502520D01*
X120594529Y-87359663D01*
X120642148Y-87312044D01*
X121546910Y-86359663D02*
X121546910Y-86931092D01*
X121546910Y-86645378D02*
X120546910Y-86645378D01*
X120689767Y-86740616D01*
X120785005Y-86835854D01*
X120832624Y-86931092D01*
X113252381Y-83933333D02*
X113966667Y-83933333D01*
X114109524Y-83980953D01*
X114204762Y-84076191D01*
X114252381Y-84219048D01*
X114252381Y-84314286D01*
X114252381Y-82933333D02*
X114252381Y-83504762D01*
X114252381Y-83219048D02*
X113252381Y-83219048D01*
X113395238Y-83314286D01*
X113490476Y-83409524D01*
X113538095Y-83504762D01*
X137856667Y-116982381D02*
X137856667Y-117696667D01*
X137809047Y-117839524D01*
X137713809Y-117934762D01*
X137570952Y-117982381D01*
X137475714Y-117982381D01*
X138285238Y-117077619D02*
X138332857Y-117030000D01*
X138428095Y-116982381D01*
X138666191Y-116982381D01*
X138761429Y-117030000D01*
X138809048Y-117077619D01*
X138856667Y-117172857D01*
X138856667Y-117268095D01*
X138809048Y-117410952D01*
X138237619Y-117982381D01*
X138856667Y-117982381D01*
X113436667Y-67022381D02*
X113436667Y-67736667D01*
X113389047Y-67879524D01*
X113293809Y-67974762D01*
X113150952Y-68022381D01*
X113055714Y-68022381D01*
X114341429Y-67355714D02*
X114341429Y-68022381D01*
X114103333Y-66974762D02*
X113865238Y-67689048D01*
X114484286Y-67689048D01*
X163104762Y-83597619D02*
X163009524Y-83550000D01*
X162914286Y-83454762D01*
X162771429Y-83311905D01*
X162676190Y-83264286D01*
X162580952Y-83264286D01*
X162628571Y-83502381D02*
X162533333Y-83454762D01*
X162438095Y-83359524D01*
X162390476Y-83169048D01*
X162390476Y-82835714D01*
X162438095Y-82645238D01*
X162533333Y-82550000D01*
X162628571Y-82502381D01*
X162819048Y-82502381D01*
X162914286Y-82550000D01*
X163009524Y-82645238D01*
X163057143Y-82835714D01*
X163057143Y-83169048D01*
X163009524Y-83359524D01*
X162914286Y-83454762D01*
X162819048Y-83502381D01*
X162628571Y-83502381D01*
X164009524Y-83502381D02*
X163438095Y-83502381D01*
X163723809Y-83502381D02*
X163723809Y-82502381D01*
X163628571Y-82645238D01*
X163533333Y-82740476D01*
X163438095Y-82788095D01*
X163254762Y-78522619D02*
X163159524Y-78475000D01*
X163064286Y-78379762D01*
X162921429Y-78236905D01*
X162826190Y-78189286D01*
X162730952Y-78189286D01*
X162778571Y-78427381D02*
X162683333Y-78379762D01*
X162588095Y-78284524D01*
X162540476Y-78094048D01*
X162540476Y-77760714D01*
X162588095Y-77570238D01*
X162683333Y-77475000D01*
X162778571Y-77427381D01*
X162969048Y-77427381D01*
X163064286Y-77475000D01*
X163159524Y-77570238D01*
X163207143Y-77760714D01*
X163207143Y-78094048D01*
X163159524Y-78284524D01*
X163064286Y-78379762D01*
X162969048Y-78427381D01*
X162778571Y-78427381D01*
X163588095Y-77522619D02*
X163635714Y-77475000D01*
X163730952Y-77427381D01*
X163969048Y-77427381D01*
X164064286Y-77475000D01*
X164111905Y-77522619D01*
X164159524Y-77617857D01*
X164159524Y-77713095D01*
X164111905Y-77855952D01*
X163540476Y-78427381D01*
X164159524Y-78427381D01*
X163204762Y-73847619D02*
X163109524Y-73800000D01*
X163014286Y-73704762D01*
X162871429Y-73561905D01*
X162776190Y-73514286D01*
X162680952Y-73514286D01*
X162728571Y-73752381D02*
X162633333Y-73704762D01*
X162538095Y-73609524D01*
X162490476Y-73419048D01*
X162490476Y-73085714D01*
X162538095Y-72895238D01*
X162633333Y-72800000D01*
X162728571Y-72752381D01*
X162919048Y-72752381D01*
X163014286Y-72800000D01*
X163109524Y-72895238D01*
X163157143Y-73085714D01*
X163157143Y-73419048D01*
X163109524Y-73609524D01*
X163014286Y-73704762D01*
X162919048Y-73752381D01*
X162728571Y-73752381D01*
X163490476Y-72752381D02*
X164109524Y-72752381D01*
X163776190Y-73133333D01*
X163919048Y-73133333D01*
X164014286Y-73180952D01*
X164061905Y-73228571D01*
X164109524Y-73323810D01*
X164109524Y-73561905D01*
X164061905Y-73657143D01*
X164014286Y-73704762D01*
X163919048Y-73752381D01*
X163633333Y-73752381D01*
X163538095Y-73704762D01*
X163490476Y-73657143D01*
X104852381Y-56166666D02*
X104376190Y-56500000D01*
X104852381Y-56738095D02*
X103852381Y-56738095D01*
X103852381Y-56357142D01*
X103900000Y-56261904D01*
X103947619Y-56214285D01*
X104042857Y-56166666D01*
X104185714Y-56166666D01*
X104280952Y-56214285D01*
X104328571Y-56261904D01*
X104376190Y-56357142D01*
X104376190Y-56738095D01*
X104852381Y-55690476D02*
X104852381Y-55500000D01*
X104804762Y-55404761D01*
X104757143Y-55357142D01*
X104614286Y-55261904D01*
X104423810Y-55214285D01*
X104042857Y-55214285D01*
X103947619Y-55261904D01*
X103900000Y-55309523D01*
X103852381Y-55404761D01*
X103852381Y-55595238D01*
X103900000Y-55690476D01*
X103947619Y-55738095D01*
X104042857Y-55785714D01*
X104280952Y-55785714D01*
X104376190Y-55738095D01*
X104423810Y-55690476D01*
X104471429Y-55595238D01*
X104471429Y-55404761D01*
X104423810Y-55309523D01*
X104376190Y-55261904D01*
X104280952Y-55214285D01*
X168452381Y-94642857D02*
X167976190Y-94976191D01*
X168452381Y-95214286D02*
X167452381Y-95214286D01*
X167452381Y-94833333D01*
X167500000Y-94738095D01*
X167547619Y-94690476D01*
X167642857Y-94642857D01*
X167785714Y-94642857D01*
X167880952Y-94690476D01*
X167928571Y-94738095D01*
X167976190Y-94833333D01*
X167976190Y-95214286D01*
X168452381Y-93690476D02*
X168452381Y-94261905D01*
X168452381Y-93976191D02*
X167452381Y-93976191D01*
X167595238Y-94071429D01*
X167690476Y-94166667D01*
X167738095Y-94261905D01*
X167452381Y-93357143D02*
X167452381Y-92738095D01*
X167833333Y-93071429D01*
X167833333Y-92928571D01*
X167880952Y-92833333D01*
X167928571Y-92785714D01*
X168023810Y-92738095D01*
X168261905Y-92738095D01*
X168357143Y-92785714D01*
X168404762Y-92833333D01*
X168452381Y-92928571D01*
X168452381Y-93214286D01*
X168404762Y-93309524D01*
X168357143Y-93357143D01*
X173952381Y-94642857D02*
X173476190Y-94976191D01*
X173952381Y-95214286D02*
X172952381Y-95214286D01*
X172952381Y-94833333D01*
X173000000Y-94738095D01*
X173047619Y-94690476D01*
X173142857Y-94642857D01*
X173285714Y-94642857D01*
X173380952Y-94690476D01*
X173428571Y-94738095D01*
X173476190Y-94833333D01*
X173476190Y-95214286D01*
X173952381Y-93690476D02*
X173952381Y-94261905D01*
X173952381Y-93976191D02*
X172952381Y-93976191D01*
X173095238Y-94071429D01*
X173190476Y-94166667D01*
X173238095Y-94261905D01*
X173285714Y-92833333D02*
X173952381Y-92833333D01*
X172904762Y-93071429D02*
X173619048Y-93309524D01*
X173619048Y-92690476D01*
X172452381Y-107142857D02*
X171976190Y-107476191D01*
X172452381Y-107714286D02*
X171452381Y-107714286D01*
X171452381Y-107333333D01*
X171500000Y-107238095D01*
X171547619Y-107190476D01*
X171642857Y-107142857D01*
X171785714Y-107142857D01*
X171880952Y-107190476D01*
X171928571Y-107238095D01*
X171976190Y-107333333D01*
X171976190Y-107714286D01*
X172452381Y-106190476D02*
X172452381Y-106761905D01*
X172452381Y-106476191D02*
X171452381Y-106476191D01*
X171595238Y-106571429D01*
X171690476Y-106666667D01*
X171738095Y-106761905D01*
X171452381Y-105285714D02*
X171452381Y-105761905D01*
X171928571Y-105809524D01*
X171880952Y-105761905D01*
X171833333Y-105666667D01*
X171833333Y-105428571D01*
X171880952Y-105333333D01*
X171928571Y-105285714D01*
X172023810Y-105238095D01*
X172261905Y-105238095D01*
X172357143Y-105285714D01*
X172404762Y-105333333D01*
X172452381Y-105428571D01*
X172452381Y-105666667D01*
X172404762Y-105761905D01*
X172357143Y-105809524D01*
X147652381Y-114542857D02*
X147176190Y-114876191D01*
X147652381Y-115114286D02*
X146652381Y-115114286D01*
X146652381Y-114733333D01*
X146700000Y-114638095D01*
X146747619Y-114590476D01*
X146842857Y-114542857D01*
X146985714Y-114542857D01*
X147080952Y-114590476D01*
X147128571Y-114638095D01*
X147176190Y-114733333D01*
X147176190Y-115114286D01*
X147652381Y-113590476D02*
X147652381Y-114161905D01*
X147652381Y-113876191D02*
X146652381Y-113876191D01*
X146795238Y-113971429D01*
X146890476Y-114066667D01*
X146938095Y-114161905D01*
X146652381Y-112733333D02*
X146652381Y-112923810D01*
X146700000Y-113019048D01*
X146747619Y-113066667D01*
X146890476Y-113161905D01*
X147080952Y-113209524D01*
X147461905Y-113209524D01*
X147557143Y-113161905D01*
X147604762Y-113114286D01*
X147652381Y-113019048D01*
X147652381Y-112828571D01*
X147604762Y-112733333D01*
X147557143Y-112685714D01*
X147461905Y-112638095D01*
X147223810Y-112638095D01*
X147128571Y-112685714D01*
X147080952Y-112733333D01*
X147033333Y-112828571D01*
X147033333Y-113019048D01*
X147080952Y-113114286D01*
X147128571Y-113161905D01*
X147223810Y-113209524D01*
X149652381Y-114542857D02*
X149176190Y-114876191D01*
X149652381Y-115114286D02*
X148652381Y-115114286D01*
X148652381Y-114733333D01*
X148700000Y-114638095D01*
X148747619Y-114590476D01*
X148842857Y-114542857D01*
X148985714Y-114542857D01*
X149080952Y-114590476D01*
X149128571Y-114638095D01*
X149176190Y-114733333D01*
X149176190Y-115114286D01*
X149652381Y-113590476D02*
X149652381Y-114161905D01*
X149652381Y-113876191D02*
X148652381Y-113876191D01*
X148795238Y-113971429D01*
X148890476Y-114066667D01*
X148938095Y-114161905D01*
X148652381Y-113257143D02*
X148652381Y-112590476D01*
X149652381Y-113019048D01*
X172452381Y-119842857D02*
X171976190Y-120176191D01*
X172452381Y-120414286D02*
X171452381Y-120414286D01*
X171452381Y-120033333D01*
X171500000Y-119938095D01*
X171547619Y-119890476D01*
X171642857Y-119842857D01*
X171785714Y-119842857D01*
X171880952Y-119890476D01*
X171928571Y-119938095D01*
X171976190Y-120033333D01*
X171976190Y-120414286D01*
X172452381Y-118890476D02*
X172452381Y-119461905D01*
X172452381Y-119176191D02*
X171452381Y-119176191D01*
X171595238Y-119271429D01*
X171690476Y-119366667D01*
X171738095Y-119461905D01*
X171880952Y-118319048D02*
X171833333Y-118414286D01*
X171785714Y-118461905D01*
X171690476Y-118509524D01*
X171642857Y-118509524D01*
X171547619Y-118461905D01*
X171500000Y-118414286D01*
X171452381Y-118319048D01*
X171452381Y-118128571D01*
X171500000Y-118033333D01*
X171547619Y-117985714D01*
X171642857Y-117938095D01*
X171690476Y-117938095D01*
X171785714Y-117985714D01*
X171833333Y-118033333D01*
X171880952Y-118128571D01*
X171880952Y-118319048D01*
X171928571Y-118414286D01*
X171976190Y-118461905D01*
X172071429Y-118509524D01*
X172261905Y-118509524D01*
X172357143Y-118461905D01*
X172404762Y-118414286D01*
X172452381Y-118319048D01*
X172452381Y-118128571D01*
X172404762Y-118033333D01*
X172357143Y-117985714D01*
X172261905Y-117938095D01*
X172071429Y-117938095D01*
X171976190Y-117985714D01*
X171928571Y-118033333D01*
X171880952Y-118128571D01*
X155357143Y-74552381D02*
X155023809Y-74076190D01*
X154785714Y-74552381D02*
X154785714Y-73552381D01*
X155166667Y-73552381D01*
X155261905Y-73600000D01*
X155309524Y-73647619D01*
X155357143Y-73742857D01*
X155357143Y-73885714D01*
X155309524Y-73980952D01*
X155261905Y-74028571D01*
X155166667Y-74076190D01*
X154785714Y-74076190D01*
X156309524Y-74552381D02*
X155738095Y-74552381D01*
X156023809Y-74552381D02*
X156023809Y-73552381D01*
X155928571Y-73695238D01*
X155833333Y-73790476D01*
X155738095Y-73838095D01*
X156785714Y-74552381D02*
X156976190Y-74552381D01*
X157071429Y-74504762D01*
X157119048Y-74457143D01*
X157214286Y-74314286D01*
X157261905Y-74123810D01*
X157261905Y-73742857D01*
X157214286Y-73647619D01*
X157166667Y-73600000D01*
X157071429Y-73552381D01*
X156880952Y-73552381D01*
X156785714Y-73600000D01*
X156738095Y-73647619D01*
X156690476Y-73742857D01*
X156690476Y-73980952D01*
X156738095Y-74076190D01*
X156785714Y-74123810D01*
X156880952Y-74171429D01*
X157071429Y-74171429D01*
X157166667Y-74123810D01*
X157214286Y-74076190D01*
X157261905Y-73980952D01*
X155507143Y-79427381D02*
X155173809Y-78951190D01*
X154935714Y-79427381D02*
X154935714Y-78427381D01*
X155316667Y-78427381D01*
X155411905Y-78475000D01*
X155459524Y-78522619D01*
X155507143Y-78617857D01*
X155507143Y-78760714D01*
X155459524Y-78855952D01*
X155411905Y-78903571D01*
X155316667Y-78951190D01*
X154935714Y-78951190D01*
X155888095Y-78522619D02*
X155935714Y-78475000D01*
X156030952Y-78427381D01*
X156269048Y-78427381D01*
X156364286Y-78475000D01*
X156411905Y-78522619D01*
X156459524Y-78617857D01*
X156459524Y-78713095D01*
X156411905Y-78855952D01*
X155840476Y-79427381D01*
X156459524Y-79427381D01*
X157078571Y-78427381D02*
X157173810Y-78427381D01*
X157269048Y-78475000D01*
X157316667Y-78522619D01*
X157364286Y-78617857D01*
X157411905Y-78808333D01*
X157411905Y-79046429D01*
X157364286Y-79236905D01*
X157316667Y-79332143D01*
X157269048Y-79379762D01*
X157173810Y-79427381D01*
X157078571Y-79427381D01*
X156983333Y-79379762D01*
X156935714Y-79332143D01*
X156888095Y-79236905D01*
X156840476Y-79046429D01*
X156840476Y-78808333D01*
X156888095Y-78617857D01*
X156935714Y-78522619D01*
X156983333Y-78475000D01*
X157078571Y-78427381D01*
X155457143Y-84302381D02*
X155123809Y-83826190D01*
X154885714Y-84302381D02*
X154885714Y-83302381D01*
X155266667Y-83302381D01*
X155361905Y-83350000D01*
X155409524Y-83397619D01*
X155457143Y-83492857D01*
X155457143Y-83635714D01*
X155409524Y-83730952D01*
X155361905Y-83778571D01*
X155266667Y-83826190D01*
X154885714Y-83826190D01*
X155838095Y-83397619D02*
X155885714Y-83350000D01*
X155980952Y-83302381D01*
X156219048Y-83302381D01*
X156314286Y-83350000D01*
X156361905Y-83397619D01*
X156409524Y-83492857D01*
X156409524Y-83588095D01*
X156361905Y-83730952D01*
X155790476Y-84302381D01*
X156409524Y-84302381D01*
X157361905Y-84302381D02*
X156790476Y-84302381D01*
X157076190Y-84302381D02*
X157076190Y-83302381D01*
X156980952Y-83445238D01*
X156885714Y-83540476D01*
X156790476Y-83588095D01*
X155457143Y-82502381D02*
X155123809Y-82026190D01*
X154885714Y-82502381D02*
X154885714Y-81502381D01*
X155266667Y-81502381D01*
X155361905Y-81550000D01*
X155409524Y-81597619D01*
X155457143Y-81692857D01*
X155457143Y-81835714D01*
X155409524Y-81930952D01*
X155361905Y-81978571D01*
X155266667Y-82026190D01*
X154885714Y-82026190D01*
X155838095Y-81597619D02*
X155885714Y-81550000D01*
X155980952Y-81502381D01*
X156219048Y-81502381D01*
X156314286Y-81550000D01*
X156361905Y-81597619D01*
X156409524Y-81692857D01*
X156409524Y-81788095D01*
X156361905Y-81930952D01*
X155790476Y-82502381D01*
X156409524Y-82502381D01*
X156790476Y-81597619D02*
X156838095Y-81550000D01*
X156933333Y-81502381D01*
X157171429Y-81502381D01*
X157266667Y-81550000D01*
X157314286Y-81597619D01*
X157361905Y-81692857D01*
X157361905Y-81788095D01*
X157314286Y-81930952D01*
X156742857Y-82502381D01*
X157361905Y-82502381D01*
X155607143Y-77527381D02*
X155273809Y-77051190D01*
X155035714Y-77527381D02*
X155035714Y-76527381D01*
X155416667Y-76527381D01*
X155511905Y-76575000D01*
X155559524Y-76622619D01*
X155607143Y-76717857D01*
X155607143Y-76860714D01*
X155559524Y-76955952D01*
X155511905Y-77003571D01*
X155416667Y-77051190D01*
X155035714Y-77051190D01*
X155988095Y-76622619D02*
X156035714Y-76575000D01*
X156130952Y-76527381D01*
X156369048Y-76527381D01*
X156464286Y-76575000D01*
X156511905Y-76622619D01*
X156559524Y-76717857D01*
X156559524Y-76813095D01*
X156511905Y-76955952D01*
X155940476Y-77527381D01*
X156559524Y-77527381D01*
X156892857Y-76527381D02*
X157511905Y-76527381D01*
X157178571Y-76908333D01*
X157321429Y-76908333D01*
X157416667Y-76955952D01*
X157464286Y-77003571D01*
X157511905Y-77098810D01*
X157511905Y-77336905D01*
X157464286Y-77432143D01*
X157416667Y-77479762D01*
X157321429Y-77527381D01*
X157035714Y-77527381D01*
X156940476Y-77479762D01*
X156892857Y-77432143D01*
X155357143Y-72852381D02*
X155023809Y-72376190D01*
X154785714Y-72852381D02*
X154785714Y-71852381D01*
X155166667Y-71852381D01*
X155261905Y-71900000D01*
X155309524Y-71947619D01*
X155357143Y-72042857D01*
X155357143Y-72185714D01*
X155309524Y-72280952D01*
X155261905Y-72328571D01*
X155166667Y-72376190D01*
X154785714Y-72376190D01*
X155738095Y-71947619D02*
X155785714Y-71900000D01*
X155880952Y-71852381D01*
X156119048Y-71852381D01*
X156214286Y-71900000D01*
X156261905Y-71947619D01*
X156309524Y-72042857D01*
X156309524Y-72138095D01*
X156261905Y-72280952D01*
X155690476Y-72852381D01*
X156309524Y-72852381D01*
X157166667Y-72185714D02*
X157166667Y-72852381D01*
X156928571Y-71804762D02*
X156690476Y-72519048D01*
X157309524Y-72519048D01*
X114757143Y-78152381D02*
X114423809Y-77676190D01*
X114185714Y-78152381D02*
X114185714Y-77152381D01*
X114566667Y-77152381D01*
X114661905Y-77200000D01*
X114709524Y-77247619D01*
X114757143Y-77342857D01*
X114757143Y-77485714D01*
X114709524Y-77580952D01*
X114661905Y-77628571D01*
X114566667Y-77676190D01*
X114185714Y-77676190D01*
X115138095Y-77247619D02*
X115185714Y-77200000D01*
X115280952Y-77152381D01*
X115519048Y-77152381D01*
X115614286Y-77200000D01*
X115661905Y-77247619D01*
X115709524Y-77342857D01*
X115709524Y-77438095D01*
X115661905Y-77580952D01*
X115090476Y-78152381D01*
X115709524Y-78152381D01*
X116614286Y-77152381D02*
X116138095Y-77152381D01*
X116090476Y-77628571D01*
X116138095Y-77580952D01*
X116233333Y-77533333D01*
X116471429Y-77533333D01*
X116566667Y-77580952D01*
X116614286Y-77628571D01*
X116661905Y-77723810D01*
X116661905Y-77961905D01*
X116614286Y-78057143D01*
X116566667Y-78104762D01*
X116471429Y-78152381D01*
X116233333Y-78152381D01*
X116138095Y-78104762D01*
X116090476Y-78057143D01*
X129252381Y-96642857D02*
X128776190Y-96976191D01*
X129252381Y-97214286D02*
X128252381Y-97214286D01*
X128252381Y-96833333D01*
X128300000Y-96738095D01*
X128347619Y-96690476D01*
X128442857Y-96642857D01*
X128585714Y-96642857D01*
X128680952Y-96690476D01*
X128728571Y-96738095D01*
X128776190Y-96833333D01*
X128776190Y-97214286D01*
X128347619Y-96261905D02*
X128300000Y-96214286D01*
X128252381Y-96119048D01*
X128252381Y-95880952D01*
X128300000Y-95785714D01*
X128347619Y-95738095D01*
X128442857Y-95690476D01*
X128538095Y-95690476D01*
X128680952Y-95738095D01*
X129252381Y-96309524D01*
X129252381Y-95690476D01*
X128252381Y-94833333D02*
X128252381Y-95023810D01*
X128300000Y-95119048D01*
X128347619Y-95166667D01*
X128490476Y-95261905D01*
X128680952Y-95309524D01*
X129061905Y-95309524D01*
X129157143Y-95261905D01*
X129204762Y-95214286D01*
X129252381Y-95119048D01*
X129252381Y-94928571D01*
X129204762Y-94833333D01*
X129157143Y-94785714D01*
X129061905Y-94738095D01*
X128823810Y-94738095D01*
X128728571Y-94785714D01*
X128680952Y-94833333D01*
X128633333Y-94928571D01*
X128633333Y-95119048D01*
X128680952Y-95214286D01*
X128728571Y-95261905D01*
X128823810Y-95309524D01*
X160138095Y-93502381D02*
X160138095Y-94311905D01*
X160185714Y-94407143D01*
X160233333Y-94454762D01*
X160328571Y-94502381D01*
X160519048Y-94502381D01*
X160614286Y-94454762D01*
X160661905Y-94407143D01*
X160709524Y-94311905D01*
X160709524Y-93502381D01*
X161138095Y-93597619D02*
X161185714Y-93550000D01*
X161280952Y-93502381D01*
X161519048Y-93502381D01*
X161614286Y-93550000D01*
X161661905Y-93597619D01*
X161709524Y-93692857D01*
X161709524Y-93788095D01*
X161661905Y-93930952D01*
X161090476Y-94502381D01*
X161709524Y-94502381D01*
X123052381Y-98161905D02*
X123861905Y-98161905D01*
X123957143Y-98114286D01*
X124004762Y-98066667D01*
X124052381Y-97971429D01*
X124052381Y-97780952D01*
X124004762Y-97685714D01*
X123957143Y-97638095D01*
X123861905Y-97590476D01*
X123052381Y-97590476D01*
X124052381Y-96590476D02*
X124052381Y-97161905D01*
X124052381Y-96876191D02*
X123052381Y-96876191D01*
X123195238Y-96971429D01*
X123290476Y-97066667D01*
X123338095Y-97161905D01*
X157316667Y-111252381D02*
X157316667Y-111966667D01*
X157269047Y-112109524D01*
X157173809Y-112204762D01*
X157030952Y-112252381D01*
X156935714Y-112252381D01*
X158221429Y-111252381D02*
X158030952Y-111252381D01*
X157935714Y-111300000D01*
X157888095Y-111347619D01*
X157792857Y-111490476D01*
X157745238Y-111680952D01*
X157745238Y-112061905D01*
X157792857Y-112157143D01*
X157840476Y-112204762D01*
X157935714Y-112252381D01*
X158126191Y-112252381D01*
X158221429Y-112204762D01*
X158269048Y-112157143D01*
X158316667Y-112061905D01*
X158316667Y-111823810D01*
X158269048Y-111728571D01*
X158221429Y-111680952D01*
X158126191Y-111633333D01*
X157935714Y-111633333D01*
X157840476Y-111680952D01*
X157792857Y-111728571D01*
X157745238Y-111823810D01*
X112402381Y-93342857D02*
X111926190Y-93676191D01*
X112402381Y-93914286D02*
X111402381Y-93914286D01*
X111402381Y-93533333D01*
X111450000Y-93438095D01*
X111497619Y-93390476D01*
X111592857Y-93342857D01*
X111735714Y-93342857D01*
X111830952Y-93390476D01*
X111878571Y-93438095D01*
X111926190Y-93533333D01*
X111926190Y-93914286D01*
X111497619Y-92961905D02*
X111450000Y-92914286D01*
X111402381Y-92819048D01*
X111402381Y-92580952D01*
X111450000Y-92485714D01*
X111497619Y-92438095D01*
X111592857Y-92390476D01*
X111688095Y-92390476D01*
X111830952Y-92438095D01*
X112402381Y-93009524D01*
X112402381Y-92390476D01*
X111402381Y-92057143D02*
X111402381Y-91390476D01*
X112402381Y-91819048D01*
X135016190Y-85976191D02*
X135492381Y-85976191D01*
X134492381Y-86309524D02*
X135016190Y-85976191D01*
X134492381Y-85642857D01*
X135492381Y-84785714D02*
X135492381Y-85357143D01*
X135492381Y-85071429D02*
X134492381Y-85071429D01*
X134635238Y-85166667D01*
X134730476Y-85261905D01*
X134778095Y-85357143D01*
X112261905Y-121452381D02*
X112261905Y-120452381D01*
X112500000Y-120452381D01*
X112642858Y-120500000D01*
X112738096Y-120595238D01*
X112785715Y-120690476D01*
X112833334Y-120880952D01*
X112833334Y-121023810D01*
X112785715Y-121214286D01*
X112738096Y-121309524D01*
X112642858Y-121404762D01*
X112500000Y-121452381D01*
X112261905Y-121452381D01*
X113214286Y-120547619D02*
X113261905Y-120500000D01*
X113357143Y-120452381D01*
X113595239Y-120452381D01*
X113690477Y-120500000D01*
X113738096Y-120547619D01*
X113785715Y-120642857D01*
X113785715Y-120738095D01*
X113738096Y-120880952D01*
X113166667Y-121452381D01*
X113785715Y-121452381D01*
X124761905Y-121452381D02*
X124761905Y-120452381D01*
X125000000Y-120452381D01*
X125142858Y-120500000D01*
X125238096Y-120595238D01*
X125285715Y-120690476D01*
X125333334Y-120880952D01*
X125333334Y-121023810D01*
X125285715Y-121214286D01*
X125238096Y-121309524D01*
X125142858Y-121404762D01*
X125000000Y-121452381D01*
X124761905Y-121452381D01*
X126285715Y-121452381D02*
X125714286Y-121452381D01*
X126000000Y-121452381D02*
X126000000Y-120452381D01*
X125904762Y-120595238D01*
X125809524Y-120690476D01*
X125714286Y-120738095D01*
X148785714Y-121202381D02*
X148785714Y-120202381D01*
X149023809Y-120202381D01*
X149166667Y-120250000D01*
X149261905Y-120345238D01*
X149309524Y-120440476D01*
X149357143Y-120630952D01*
X149357143Y-120773810D01*
X149309524Y-120964286D01*
X149261905Y-121059524D01*
X149166667Y-121154762D01*
X149023809Y-121202381D01*
X148785714Y-121202381D01*
X150309524Y-121202381D02*
X149738095Y-121202381D01*
X150023809Y-121202381D02*
X150023809Y-120202381D01*
X149928571Y-120345238D01*
X149833333Y-120440476D01*
X149738095Y-120488095D01*
X150880952Y-120630952D02*
X150785714Y-120583333D01*
X150738095Y-120535714D01*
X150690476Y-120440476D01*
X150690476Y-120392857D01*
X150738095Y-120297619D01*
X150785714Y-120250000D01*
X150880952Y-120202381D01*
X151071429Y-120202381D01*
X151166667Y-120250000D01*
X151214286Y-120297619D01*
X151261905Y-120392857D01*
X151261905Y-120440476D01*
X151214286Y-120535714D01*
X151166667Y-120583333D01*
X151071429Y-120630952D01*
X150880952Y-120630952D01*
X150785714Y-120678571D01*
X150738095Y-120726190D01*
X150690476Y-120821429D01*
X150690476Y-121011905D01*
X150738095Y-121107143D01*
X150785714Y-121154762D01*
X150880952Y-121202381D01*
X151071429Y-121202381D01*
X151166667Y-121154762D01*
X151214286Y-121107143D01*
X151261905Y-121011905D01*
X151261905Y-120821429D01*
X151214286Y-120726190D01*
X151166667Y-120678571D01*
X151071429Y-120630952D01*
X164035714Y-121202381D02*
X164035714Y-120202381D01*
X164273809Y-120202381D01*
X164416667Y-120250000D01*
X164511905Y-120345238D01*
X164559524Y-120440476D01*
X164607143Y-120630952D01*
X164607143Y-120773810D01*
X164559524Y-120964286D01*
X164511905Y-121059524D01*
X164416667Y-121154762D01*
X164273809Y-121202381D01*
X164035714Y-121202381D01*
X165559524Y-121202381D02*
X164988095Y-121202381D01*
X165273809Y-121202381D02*
X165273809Y-120202381D01*
X165178571Y-120345238D01*
X165083333Y-120440476D01*
X164988095Y-120488095D01*
X165892857Y-120202381D02*
X166559524Y-120202381D01*
X166130952Y-121202381D01*
X171202381Y-114214286D02*
X170202381Y-114214286D01*
X170202381Y-113976191D01*
X170250000Y-113833333D01*
X170345238Y-113738095D01*
X170440476Y-113690476D01*
X170630952Y-113642857D01*
X170773810Y-113642857D01*
X170964286Y-113690476D01*
X171059524Y-113738095D01*
X171154762Y-113833333D01*
X171202381Y-113976191D01*
X171202381Y-114214286D01*
X171202381Y-112690476D02*
X171202381Y-113261905D01*
X171202381Y-112976191D02*
X170202381Y-112976191D01*
X170345238Y-113071429D01*
X170440476Y-113166667D01*
X170488095Y-113261905D01*
X170202381Y-111833333D02*
X170202381Y-112023810D01*
X170250000Y-112119048D01*
X170297619Y-112166667D01*
X170440476Y-112261905D01*
X170630952Y-112309524D01*
X171011905Y-112309524D01*
X171107143Y-112261905D01*
X171154762Y-112214286D01*
X171202381Y-112119048D01*
X171202381Y-111928571D01*
X171154762Y-111833333D01*
X171107143Y-111785714D01*
X171011905Y-111738095D01*
X170773810Y-111738095D01*
X170678571Y-111785714D01*
X170630952Y-111833333D01*
X170583333Y-111928571D01*
X170583333Y-112119048D01*
X170630952Y-112214286D01*
X170678571Y-112261905D01*
X170773810Y-112309524D01*
X171202381Y-88714286D02*
X170202381Y-88714286D01*
X170202381Y-88476191D01*
X170250000Y-88333333D01*
X170345238Y-88238095D01*
X170440476Y-88190476D01*
X170630952Y-88142857D01*
X170773810Y-88142857D01*
X170964286Y-88190476D01*
X171059524Y-88238095D01*
X171154762Y-88333333D01*
X171202381Y-88476191D01*
X171202381Y-88714286D01*
X171202381Y-87190476D02*
X171202381Y-87761905D01*
X171202381Y-87476191D02*
X170202381Y-87476191D01*
X170345238Y-87571429D01*
X170440476Y-87666667D01*
X170488095Y-87761905D01*
X170535714Y-86333333D02*
X171202381Y-86333333D01*
X170154762Y-86571429D02*
X170869048Y-86809524D01*
X170869048Y-86190476D01*
X171202381Y-76214286D02*
X170202381Y-76214286D01*
X170202381Y-75976191D01*
X170250000Y-75833333D01*
X170345238Y-75738095D01*
X170440476Y-75690476D01*
X170630952Y-75642857D01*
X170773810Y-75642857D01*
X170964286Y-75690476D01*
X171059524Y-75738095D01*
X171154762Y-75833333D01*
X171202381Y-75976191D01*
X171202381Y-76214286D01*
X171202381Y-74690476D02*
X171202381Y-75261905D01*
X171202381Y-74976191D02*
X170202381Y-74976191D01*
X170345238Y-75071429D01*
X170440476Y-75166667D01*
X170488095Y-75261905D01*
X170202381Y-74357143D02*
X170202381Y-73738095D01*
X170583333Y-74071429D01*
X170583333Y-73928571D01*
X170630952Y-73833333D01*
X170678571Y-73785714D01*
X170773810Y-73738095D01*
X171011905Y-73738095D01*
X171107143Y-73785714D01*
X171154762Y-73833333D01*
X171202381Y-73928571D01*
X171202381Y-74214286D01*
X171154762Y-74309524D01*
X171107143Y-74357143D01*
X171202381Y-63214286D02*
X170202381Y-63214286D01*
X170202381Y-62976191D01*
X170250000Y-62833333D01*
X170345238Y-62738095D01*
X170440476Y-62690476D01*
X170630952Y-62642857D01*
X170773810Y-62642857D01*
X170964286Y-62690476D01*
X171059524Y-62738095D01*
X171154762Y-62833333D01*
X171202381Y-62976191D01*
X171202381Y-63214286D01*
X171202381Y-61690476D02*
X171202381Y-62261905D01*
X171202381Y-61976191D02*
X170202381Y-61976191D01*
X170345238Y-62071429D01*
X170440476Y-62166667D01*
X170488095Y-62261905D01*
X170297619Y-61309524D02*
X170250000Y-61261905D01*
X170202381Y-61166667D01*
X170202381Y-60928571D01*
X170250000Y-60833333D01*
X170297619Y-60785714D01*
X170392857Y-60738095D01*
X170488095Y-60738095D01*
X170630952Y-60785714D01*
X171202381Y-61357143D01*
X171202381Y-60738095D01*
X161785714Y-55952381D02*
X161785714Y-54952381D01*
X162023809Y-54952381D01*
X162166667Y-55000000D01*
X162261905Y-55095238D01*
X162309524Y-55190476D01*
X162357143Y-55380952D01*
X162357143Y-55523810D01*
X162309524Y-55714286D01*
X162261905Y-55809524D01*
X162166667Y-55904762D01*
X162023809Y-55952381D01*
X161785714Y-55952381D01*
X163309524Y-55952381D02*
X162738095Y-55952381D01*
X163023809Y-55952381D02*
X163023809Y-54952381D01*
X162928571Y-55095238D01*
X162833333Y-55190476D01*
X162738095Y-55238095D01*
X164261905Y-55952381D02*
X163690476Y-55952381D01*
X163976190Y-55952381D02*
X163976190Y-54952381D01*
X163880952Y-55095238D01*
X163785714Y-55190476D01*
X163690476Y-55238095D01*
X148985714Y-55952381D02*
X148985714Y-54952381D01*
X149223809Y-54952381D01*
X149366667Y-55000000D01*
X149461905Y-55095238D01*
X149509524Y-55190476D01*
X149557143Y-55380952D01*
X149557143Y-55523810D01*
X149509524Y-55714286D01*
X149461905Y-55809524D01*
X149366667Y-55904762D01*
X149223809Y-55952381D01*
X148985714Y-55952381D01*
X150509524Y-55952381D02*
X149938095Y-55952381D01*
X150223809Y-55952381D02*
X150223809Y-54952381D01*
X150128571Y-55095238D01*
X150033333Y-55190476D01*
X149938095Y-55238095D01*
X151128571Y-54952381D02*
X151223810Y-54952381D01*
X151319048Y-55000000D01*
X151366667Y-55047619D01*
X151414286Y-55142857D01*
X151461905Y-55333333D01*
X151461905Y-55571429D01*
X151414286Y-55761905D01*
X151366667Y-55857143D01*
X151319048Y-55904762D01*
X151223810Y-55952381D01*
X151128571Y-55952381D01*
X151033333Y-55904762D01*
X150985714Y-55857143D01*
X150938095Y-55761905D01*
X150890476Y-55571429D01*
X150890476Y-55333333D01*
X150938095Y-55142857D01*
X150985714Y-55047619D01*
X151033333Y-55000000D01*
X151128571Y-54952381D01*
X124761905Y-55952381D02*
X124761905Y-54952381D01*
X125000000Y-54952381D01*
X125142858Y-55000000D01*
X125238096Y-55095238D01*
X125285715Y-55190476D01*
X125333334Y-55380952D01*
X125333334Y-55523810D01*
X125285715Y-55714286D01*
X125238096Y-55809524D01*
X125142858Y-55904762D01*
X125000000Y-55952381D01*
X124761905Y-55952381D01*
X125809524Y-55952381D02*
X126000000Y-55952381D01*
X126095239Y-55904762D01*
X126142858Y-55857143D01*
X126238096Y-55714286D01*
X126285715Y-55523810D01*
X126285715Y-55142857D01*
X126238096Y-55047619D01*
X126190477Y-55000000D01*
X126095239Y-54952381D01*
X125904762Y-54952381D01*
X125809524Y-55000000D01*
X125761905Y-55047619D01*
X125714286Y-55142857D01*
X125714286Y-55380952D01*
X125761905Y-55476190D01*
X125809524Y-55523810D01*
X125904762Y-55571429D01*
X126095239Y-55571429D01*
X126190477Y-55523810D01*
X126238096Y-55476190D01*
X126285715Y-55380952D01*
X112261905Y-55952381D02*
X112261905Y-54952381D01*
X112500000Y-54952381D01*
X112642858Y-55000000D01*
X112738096Y-55095238D01*
X112785715Y-55190476D01*
X112833334Y-55380952D01*
X112833334Y-55523810D01*
X112785715Y-55714286D01*
X112738096Y-55809524D01*
X112642858Y-55904762D01*
X112500000Y-55952381D01*
X112261905Y-55952381D01*
X113404762Y-55380952D02*
X113309524Y-55333333D01*
X113261905Y-55285714D01*
X113214286Y-55190476D01*
X113214286Y-55142857D01*
X113261905Y-55047619D01*
X113309524Y-55000000D01*
X113404762Y-54952381D01*
X113595239Y-54952381D01*
X113690477Y-55000000D01*
X113738096Y-55047619D01*
X113785715Y-55142857D01*
X113785715Y-55190476D01*
X113738096Y-55285714D01*
X113690477Y-55333333D01*
X113595239Y-55380952D01*
X113404762Y-55380952D01*
X113309524Y-55428571D01*
X113261905Y-55476190D01*
X113214286Y-55571429D01*
X113214286Y-55761905D01*
X113261905Y-55857143D01*
X113309524Y-55904762D01*
X113404762Y-55952381D01*
X113595239Y-55952381D01*
X113690477Y-55904762D01*
X113738096Y-55857143D01*
X113785715Y-55761905D01*
X113785715Y-55571429D01*
X113738096Y-55476190D01*
X113690477Y-55428571D01*
X113595239Y-55380952D01*
X105702381Y-62738095D02*
X104702381Y-62738095D01*
X104702381Y-62500000D01*
X104750000Y-62357142D01*
X104845238Y-62261904D01*
X104940476Y-62214285D01*
X105130952Y-62166666D01*
X105273810Y-62166666D01*
X105464286Y-62214285D01*
X105559524Y-62261904D01*
X105654762Y-62357142D01*
X105702381Y-62500000D01*
X105702381Y-62738095D01*
X104702381Y-61833333D02*
X104702381Y-61166666D01*
X105702381Y-61595238D01*
X105702381Y-75738095D02*
X104702381Y-75738095D01*
X104702381Y-75500000D01*
X104750000Y-75357142D01*
X104845238Y-75261904D01*
X104940476Y-75214285D01*
X105130952Y-75166666D01*
X105273810Y-75166666D01*
X105464286Y-75214285D01*
X105559524Y-75261904D01*
X105654762Y-75357142D01*
X105702381Y-75500000D01*
X105702381Y-75738095D01*
X104702381Y-74309523D02*
X104702381Y-74500000D01*
X104750000Y-74595238D01*
X104797619Y-74642857D01*
X104940476Y-74738095D01*
X105130952Y-74785714D01*
X105511905Y-74785714D01*
X105607143Y-74738095D01*
X105654762Y-74690476D01*
X105702381Y-74595238D01*
X105702381Y-74404761D01*
X105654762Y-74309523D01*
X105607143Y-74261904D01*
X105511905Y-74214285D01*
X105273810Y-74214285D01*
X105178571Y-74261904D01*
X105130952Y-74309523D01*
X105083333Y-74404761D01*
X105083333Y-74595238D01*
X105130952Y-74690476D01*
X105178571Y-74738095D01*
X105273810Y-74785714D01*
X105702381Y-88238095D02*
X104702381Y-88238095D01*
X104702381Y-88000000D01*
X104750000Y-87857142D01*
X104845238Y-87761904D01*
X104940476Y-87714285D01*
X105130952Y-87666666D01*
X105273810Y-87666666D01*
X105464286Y-87714285D01*
X105559524Y-87761904D01*
X105654762Y-87857142D01*
X105702381Y-88000000D01*
X105702381Y-88238095D01*
X104702381Y-86761904D02*
X104702381Y-87238095D01*
X105178571Y-87285714D01*
X105130952Y-87238095D01*
X105083333Y-87142857D01*
X105083333Y-86904761D01*
X105130952Y-86809523D01*
X105178571Y-86761904D01*
X105273810Y-86714285D01*
X105511905Y-86714285D01*
X105607143Y-86761904D01*
X105654762Y-86809523D01*
X105702381Y-86904761D01*
X105702381Y-87142857D01*
X105654762Y-87238095D01*
X105607143Y-87285714D01*
X105702381Y-113738095D02*
X104702381Y-113738095D01*
X104702381Y-113500000D01*
X104750000Y-113357142D01*
X104845238Y-113261904D01*
X104940476Y-113214285D01*
X105130952Y-113166666D01*
X105273810Y-113166666D01*
X105464286Y-113214285D01*
X105559524Y-113261904D01*
X105654762Y-113357142D01*
X105702381Y-113500000D01*
X105702381Y-113738095D01*
X104702381Y-112833333D02*
X104702381Y-112214285D01*
X105083333Y-112547619D01*
X105083333Y-112404761D01*
X105130952Y-112309523D01*
X105178571Y-112261904D01*
X105273810Y-112214285D01*
X105511905Y-112214285D01*
X105607143Y-112261904D01*
X105654762Y-112309523D01*
X105702381Y-112404761D01*
X105702381Y-112690476D01*
X105654762Y-112785714D01*
X105607143Y-112833333D01*
X105702381Y-100738095D02*
X104702381Y-100738095D01*
X104702381Y-100500000D01*
X104750000Y-100357142D01*
X104845238Y-100261904D01*
X104940476Y-100214285D01*
X105130952Y-100166666D01*
X105273810Y-100166666D01*
X105464286Y-100214285D01*
X105559524Y-100261904D01*
X105654762Y-100357142D01*
X105702381Y-100500000D01*
X105702381Y-100738095D01*
X105035714Y-99309523D02*
X105702381Y-99309523D01*
X104654762Y-99547619D02*
X105369048Y-99785714D01*
X105369048Y-99166666D01*
X171202381Y-101214286D02*
X170202381Y-101214286D01*
X170202381Y-100976191D01*
X170250000Y-100833333D01*
X170345238Y-100738095D01*
X170440476Y-100690476D01*
X170630952Y-100642857D01*
X170773810Y-100642857D01*
X170964286Y-100690476D01*
X171059524Y-100738095D01*
X171154762Y-100833333D01*
X171202381Y-100976191D01*
X171202381Y-101214286D01*
X171202381Y-99690476D02*
X171202381Y-100261905D01*
X171202381Y-99976191D02*
X170202381Y-99976191D01*
X170345238Y-100071429D01*
X170440476Y-100166667D01*
X170488095Y-100261905D01*
X170202381Y-98785714D02*
X170202381Y-99261905D01*
X170678571Y-99309524D01*
X170630952Y-99261905D01*
X170583333Y-99166667D01*
X170583333Y-98928571D01*
X170630952Y-98833333D01*
X170678571Y-98785714D01*
X170773810Y-98738095D01*
X171011905Y-98738095D01*
X171107143Y-98785714D01*
X171154762Y-98833333D01*
X171202381Y-98928571D01*
X171202381Y-99166667D01*
X171154762Y-99261905D01*
X171107143Y-99309524D01*
M02*
