G04 #@! TF.FileFunction,Copper,L2,Bot,Signal*
%FSLAX46Y46*%
G04 Gerber Fmt 4.6, Leading zero omitted, Abs format (unit mm)*
G04 Created by KiCad (PCBNEW 4.0.5) date Monday, March 13, 2017 'PMt' 09:43:04 PM*
%MOMM*%
%LPD*%
G01*
G04 APERTURE LIST*
%ADD10C,0.100000*%
%ADD11O,2.000000X2.600000*%
%ADD12C,3.650000*%
%ADD13R,1.500000X1.500000*%
%ADD14C,1.500000*%
%ADD15R,1.700000X1.700000*%
%ADD16O,1.700000X1.700000*%
%ADD17R,2.600000X2.600000*%
%ADD18C,2.600000*%
%ADD19C,0.600000*%
%ADD20C,0.500000*%
%ADD21C,0.250000*%
%ADD22C,0.150000*%
%ADD23C,0.254000*%
G04 APERTURE END LIST*
D10*
D11*
X112600000Y-83500000D03*
D12*
X143870000Y-112700000D03*
X132000000Y-112700000D03*
D13*
X133490000Y-106350000D03*
D14*
X134760000Y-103810000D03*
X136030000Y-106350000D03*
X137300000Y-103810000D03*
X138570000Y-106350000D03*
X139840000Y-103810000D03*
X141110000Y-106350000D03*
X142380000Y-103810000D03*
D12*
X132000000Y-63150000D03*
X143870000Y-63150000D03*
D13*
X142380000Y-69500000D03*
D14*
X141110000Y-72040000D03*
X139840000Y-69500000D03*
X138570000Y-72040000D03*
X137300000Y-69500000D03*
X136030000Y-72040000D03*
X134760000Y-69500000D03*
X133490000Y-72040000D03*
D15*
X112500000Y-69960000D03*
D16*
X115040000Y-69960000D03*
X112500000Y-72500000D03*
X115040000Y-72500000D03*
X112500000Y-75040000D03*
X115040000Y-75040000D03*
D15*
X114660000Y-110000000D03*
D16*
X117200000Y-110000000D03*
X119740000Y-110000000D03*
X122280000Y-110000000D03*
X124820000Y-110000000D03*
X127360000Y-110000000D03*
D17*
X155620000Y-102180000D03*
D18*
X159580000Y-102180000D03*
D19*
X157900000Y-94700000D03*
X117800000Y-86900000D03*
X123894527Y-86800000D03*
X127100000Y-101500000D03*
X147000000Y-53000000D03*
X173000000Y-72000000D03*
X173000000Y-117300000D03*
X128100000Y-123000000D03*
X103000000Y-107700000D03*
X103000000Y-62600000D03*
X141400000Y-81000000D03*
X139900000Y-75500000D03*
X122200000Y-81800000D03*
X122200000Y-89300000D03*
X121718357Y-95945572D03*
X124200000Y-92874989D03*
X125300000Y-93300000D03*
X123046313Y-81908296D03*
X124800000Y-81900000D03*
X121400000Y-90400000D03*
X116700000Y-83800000D03*
D20*
X155620000Y-102180000D02*
X170740000Y-117300000D01*
X170740000Y-117300000D02*
X173000000Y-117300000D01*
X173000000Y-56600000D02*
X169400000Y-53000000D01*
X169400000Y-53000000D02*
X147000000Y-53000000D01*
X173000000Y-72000000D02*
X173000000Y-56600000D01*
X173000000Y-117300000D02*
X173000000Y-72000000D01*
X170100000Y-123000000D02*
X173000000Y-120100000D01*
X173000000Y-120100000D02*
X173000000Y-117300000D01*
X128100000Y-123000000D02*
X170100000Y-123000000D01*
X103000000Y-122100000D02*
X103900000Y-123000000D01*
X103900000Y-123000000D02*
X128100000Y-123000000D01*
X103000000Y-107700000D02*
X103000000Y-122100000D01*
X103000000Y-62600000D02*
X103000000Y-107700000D01*
X141400000Y-81000000D02*
X141400000Y-87960000D01*
X141400000Y-87960000D02*
X155620000Y-102180000D01*
X141110000Y-106350000D02*
X141110000Y-105080000D01*
X141110000Y-105080000D02*
X142380000Y-103810000D01*
X142380000Y-103810000D02*
X143129999Y-104559999D01*
X143129999Y-104559999D02*
X153240001Y-104559999D01*
X153240001Y-104559999D02*
X154320001Y-103479999D01*
X154320001Y-103479999D02*
X155620000Y-102180000D01*
D21*
X133885002Y-106350000D02*
X133490000Y-106350000D01*
X135885001Y-104350001D02*
X133885002Y-106350000D01*
X135885001Y-78515995D02*
X135885001Y-104350001D01*
X139575998Y-74824998D02*
X135885001Y-78515995D01*
X140224002Y-74824998D02*
X139575998Y-74824998D01*
X142380000Y-72669000D02*
X140224002Y-74824998D01*
X142380000Y-69500000D02*
X142380000Y-72669000D01*
X140360001Y-72789999D02*
X141110000Y-72040000D01*
X134760000Y-78390000D02*
X140360001Y-72789999D01*
X134760000Y-103810000D02*
X134760000Y-78390000D01*
X137300000Y-103810000D02*
X137300000Y-78100000D01*
X137300000Y-78100000D02*
X139900000Y-75500000D01*
X122200000Y-81800000D02*
X130834999Y-73165001D01*
X137444999Y-73165001D02*
X137820001Y-72789999D01*
X130834999Y-73165001D02*
X137444999Y-73165001D01*
X137820001Y-72789999D02*
X138570000Y-72040000D01*
X122200000Y-89300000D02*
X122499999Y-89000001D01*
X122499999Y-89000001D02*
X123275001Y-89000001D01*
X123275001Y-89000001D02*
X139840000Y-72435002D01*
X139840000Y-72435002D02*
X139840000Y-70560660D01*
X139840000Y-70560660D02*
X139840000Y-69500000D01*
X124200000Y-93463929D02*
X122018356Y-95645573D01*
X122018356Y-95645573D02*
X121718357Y-95945572D01*
X121418358Y-96245571D02*
X121718357Y-95945572D01*
X124200000Y-92874989D02*
X124200000Y-93463929D01*
X119740000Y-110000000D02*
X119740000Y-97923929D01*
X119740000Y-97923929D02*
X121418358Y-96245571D01*
X122280000Y-110000000D02*
X122280000Y-96320000D01*
X122280000Y-96320000D02*
X125300000Y-93300000D01*
D22*
X124800000Y-81900000D02*
X123054609Y-81900000D01*
X123054609Y-81900000D02*
X123046313Y-81908296D01*
D21*
X112500000Y-75040000D02*
X121400000Y-83940000D01*
X121400000Y-83940000D02*
X121400000Y-90400000D01*
X116700000Y-83800000D02*
X116700000Y-81053002D01*
X116700000Y-81053002D02*
X111274999Y-75628001D01*
X111274999Y-75628001D02*
X111274999Y-73725001D01*
X111274999Y-73725001D02*
X112500000Y-72500000D01*
D23*
G36*
X175315000Y-125315000D02*
X100685000Y-125315000D01*
X100685000Y-62678617D01*
X102063771Y-62678617D01*
X102096872Y-62858968D01*
X102115000Y-62904754D01*
X102115000Y-107391311D01*
X102104454Y-107415916D01*
X102066331Y-107595272D01*
X102063771Y-107778617D01*
X102096872Y-107958968D01*
X102115000Y-108004754D01*
X102115000Y-122100000D01*
X102122977Y-122181356D01*
X102130102Y-122262796D01*
X102131401Y-122267267D01*
X102131855Y-122271897D01*
X102155475Y-122350131D01*
X102178290Y-122428660D01*
X102180432Y-122432793D01*
X102181777Y-122437247D01*
X102220135Y-122509388D01*
X102257776Y-122582006D01*
X102260682Y-122585646D01*
X102262865Y-122589752D01*
X102314507Y-122653071D01*
X102365534Y-122716991D01*
X102371927Y-122723474D01*
X102372030Y-122723601D01*
X102372147Y-122723698D01*
X102374210Y-122725790D01*
X103274210Y-123625789D01*
X103337397Y-123677691D01*
X103400004Y-123730225D01*
X103404081Y-123732466D01*
X103407678Y-123735421D01*
X103479727Y-123774053D01*
X103551361Y-123813435D01*
X103555798Y-123814842D01*
X103559898Y-123817041D01*
X103638040Y-123840931D01*
X103715998Y-123865661D01*
X103720626Y-123866180D01*
X103725074Y-123867540D01*
X103806339Y-123875794D01*
X103887643Y-123884914D01*
X103896747Y-123884977D01*
X103896911Y-123884994D01*
X103897064Y-123884980D01*
X103900000Y-123885000D01*
X127790124Y-123885000D01*
X127809671Y-123893540D01*
X127988757Y-123932915D01*
X128172079Y-123936755D01*
X128352657Y-123904914D01*
X128403999Y-123885000D01*
X170100000Y-123885000D01*
X170181356Y-123877023D01*
X170262796Y-123869898D01*
X170267267Y-123868599D01*
X170271897Y-123868145D01*
X170350131Y-123844525D01*
X170428660Y-123821710D01*
X170432793Y-123819568D01*
X170437247Y-123818223D01*
X170509388Y-123779865D01*
X170582006Y-123742224D01*
X170585646Y-123739318D01*
X170589752Y-123737135D01*
X170653071Y-123685493D01*
X170716991Y-123634466D01*
X170723474Y-123628073D01*
X170723601Y-123627970D01*
X170723698Y-123627853D01*
X170725790Y-123625790D01*
X173625789Y-120725790D01*
X173677691Y-120662603D01*
X173730225Y-120599996D01*
X173732466Y-120595919D01*
X173735421Y-120592322D01*
X173774034Y-120520308D01*
X173813435Y-120448639D01*
X173814844Y-120444198D01*
X173817040Y-120440102D01*
X173840917Y-120362006D01*
X173865661Y-120284002D01*
X173866180Y-120279374D01*
X173867540Y-120274926D01*
X173875795Y-120193656D01*
X173884914Y-120112357D01*
X173884977Y-120103254D01*
X173884994Y-120103090D01*
X173884980Y-120102937D01*
X173885000Y-120100000D01*
X173885000Y-117611141D01*
X173891492Y-117596560D01*
X173932116Y-117417754D01*
X173935040Y-117208319D01*
X173899425Y-117028448D01*
X173885000Y-116993451D01*
X173885000Y-72311141D01*
X173891492Y-72296560D01*
X173932116Y-72117754D01*
X173935040Y-71908319D01*
X173899425Y-71728448D01*
X173885000Y-71693451D01*
X173885000Y-56600000D01*
X173877023Y-56518644D01*
X173869898Y-56437204D01*
X173868599Y-56432733D01*
X173868145Y-56428103D01*
X173844539Y-56349915D01*
X173821711Y-56271340D01*
X173819566Y-56267203D01*
X173818223Y-56262753D01*
X173779884Y-56190647D01*
X173742224Y-56117994D01*
X173739318Y-56114354D01*
X173737135Y-56110248D01*
X173685518Y-56046960D01*
X173634467Y-55983009D01*
X173628076Y-55976528D01*
X173627970Y-55976399D01*
X173627850Y-55976300D01*
X173625790Y-55974211D01*
X170025790Y-52374210D01*
X169962574Y-52322284D01*
X169899996Y-52269775D01*
X169895919Y-52267534D01*
X169892322Y-52264579D01*
X169820292Y-52225957D01*
X169748639Y-52186565D01*
X169744200Y-52185157D01*
X169740101Y-52182959D01*
X169661974Y-52159073D01*
X169584002Y-52134339D01*
X169579374Y-52133820D01*
X169574926Y-52132460D01*
X169493661Y-52124206D01*
X169412357Y-52115086D01*
X169403253Y-52115023D01*
X169403089Y-52115006D01*
X169402936Y-52115020D01*
X169400000Y-52115000D01*
X147307578Y-52115000D01*
X147277825Y-52102493D01*
X147098207Y-52065623D01*
X146914849Y-52064343D01*
X146734733Y-52098701D01*
X146564722Y-52167390D01*
X146411291Y-52267793D01*
X146280283Y-52396086D01*
X146176689Y-52547381D01*
X146104454Y-52715916D01*
X146066331Y-52895272D01*
X146063771Y-53078617D01*
X146096872Y-53258968D01*
X146164372Y-53429454D01*
X146263701Y-53583583D01*
X146391076Y-53715484D01*
X146541644Y-53820131D01*
X146709671Y-53893540D01*
X146888757Y-53932915D01*
X147072079Y-53936755D01*
X147252657Y-53904914D01*
X147303999Y-53885000D01*
X169033420Y-53885000D01*
X172115000Y-56966579D01*
X172115000Y-71691311D01*
X172104454Y-71715916D01*
X172066331Y-71895272D01*
X172063771Y-72078617D01*
X172096872Y-72258968D01*
X172115000Y-72304754D01*
X172115000Y-116415000D01*
X171106579Y-116415000D01*
X158426275Y-103734695D01*
X158631424Y-103877277D01*
X158979159Y-104029199D01*
X159349780Y-104110685D01*
X159729170Y-104118632D01*
X160102878Y-104052738D01*
X160456670Y-103915511D01*
X160777069Y-103712179D01*
X161051873Y-103450487D01*
X161270614Y-103140402D01*
X161424959Y-102793736D01*
X161509031Y-102423693D01*
X161515083Y-101990263D01*
X161441377Y-101618017D01*
X161296771Y-101267177D01*
X161086773Y-100951106D01*
X160819384Y-100681843D01*
X160504786Y-100469644D01*
X160154964Y-100322592D01*
X159783241Y-100246288D01*
X159403777Y-100243639D01*
X159031026Y-100314745D01*
X158679184Y-100456899D01*
X158361655Y-100664684D01*
X158090532Y-100930188D01*
X157876142Y-101243296D01*
X157726651Y-101592083D01*
X157647754Y-101963264D01*
X157642456Y-102342700D01*
X157710958Y-102715939D01*
X157850652Y-103068764D01*
X158014341Y-103322761D01*
X157558072Y-102866492D01*
X157558072Y-100880000D01*
X157550008Y-100778879D01*
X157496894Y-100607366D01*
X157398100Y-100457441D01*
X157261450Y-100340975D01*
X157097763Y-100267190D01*
X156920000Y-100241928D01*
X154933507Y-100241928D01*
X153954507Y-99262927D01*
X163368890Y-99262927D01*
X163479591Y-99866088D01*
X163705338Y-100436261D01*
X164037533Y-100951727D01*
X164463523Y-101392852D01*
X164967082Y-101742835D01*
X165529028Y-101988343D01*
X166127959Y-102120027D01*
X166741061Y-102132869D01*
X167344981Y-102026382D01*
X167916716Y-101804621D01*
X168434488Y-101476032D01*
X168878577Y-101053132D01*
X169232066Y-100552030D01*
X169481492Y-99991810D01*
X169617353Y-99393813D01*
X169627134Y-98693382D01*
X169508022Y-98091825D01*
X169274336Y-97524859D01*
X168934976Y-97014082D01*
X168502869Y-96578947D01*
X167994473Y-96236030D01*
X167429153Y-95998391D01*
X166828442Y-95875083D01*
X166215221Y-95870802D01*
X165612846Y-95985711D01*
X165044264Y-96215433D01*
X164531129Y-96551219D01*
X164092989Y-96980278D01*
X163746530Y-97486267D01*
X163504951Y-98049914D01*
X163377452Y-98649750D01*
X163368890Y-99262927D01*
X153954507Y-99262927D01*
X142285000Y-87593420D01*
X142285000Y-81311141D01*
X142291492Y-81296560D01*
X142332116Y-81117754D01*
X142335040Y-80908319D01*
X142299425Y-80728448D01*
X142229550Y-80558920D01*
X142128079Y-80406193D01*
X141998875Y-80276084D01*
X141846860Y-80173549D01*
X141677825Y-80102493D01*
X141498207Y-80065623D01*
X141314849Y-80064343D01*
X141134733Y-80098701D01*
X140964722Y-80167390D01*
X140811291Y-80267793D01*
X140680283Y-80396086D01*
X140576689Y-80547381D01*
X140504454Y-80715916D01*
X140466331Y-80895272D01*
X140463771Y-81078617D01*
X140496872Y-81258968D01*
X140515000Y-81304754D01*
X140515000Y-87960000D01*
X140522977Y-88041356D01*
X140530102Y-88122796D01*
X140531401Y-88127267D01*
X140531855Y-88131897D01*
X140555475Y-88210131D01*
X140578290Y-88288660D01*
X140580432Y-88292793D01*
X140581777Y-88297247D01*
X140620135Y-88369388D01*
X140657776Y-88442006D01*
X140660682Y-88445646D01*
X140662865Y-88449752D01*
X140714507Y-88513071D01*
X140765534Y-88576991D01*
X140771927Y-88583474D01*
X140772030Y-88583601D01*
X140772147Y-88583698D01*
X140774210Y-88585790D01*
X153681928Y-101493507D01*
X153681928Y-102866493D01*
X152873421Y-103674999D01*
X143765048Y-103674999D01*
X143765059Y-103674194D01*
X143712303Y-103407754D01*
X143608799Y-103156636D01*
X143458491Y-102930404D01*
X143267104Y-102737676D01*
X143041927Y-102585792D01*
X142791537Y-102480538D01*
X142525472Y-102425923D01*
X142253867Y-102424027D01*
X141987065Y-102474922D01*
X141735230Y-102576670D01*
X141507955Y-102725395D01*
X141313895Y-102915432D01*
X141160443Y-103139543D01*
X141110134Y-103256923D01*
X141068799Y-103156636D01*
X140918491Y-102930404D01*
X140727104Y-102737676D01*
X140501927Y-102585792D01*
X140251537Y-102480538D01*
X139985472Y-102425923D01*
X139713867Y-102424027D01*
X139447065Y-102474922D01*
X139195230Y-102576670D01*
X138967955Y-102725395D01*
X138773895Y-102915432D01*
X138620443Y-103139543D01*
X138570134Y-103256923D01*
X138528799Y-103156636D01*
X138378491Y-102930404D01*
X138187104Y-102737676D01*
X138060000Y-102651943D01*
X138060000Y-78414802D01*
X140052169Y-76422633D01*
X140152657Y-76404914D01*
X140323610Y-76338606D01*
X140478429Y-76240355D01*
X140611215Y-76113904D01*
X140716911Y-75964070D01*
X140791492Y-75796560D01*
X140832116Y-75617754D01*
X140835040Y-75408319D01*
X140815280Y-75308522D01*
X142917401Y-73206401D01*
X142961968Y-73152145D01*
X143007086Y-73098375D01*
X143009011Y-73094874D01*
X143011548Y-73091785D01*
X143044732Y-73029898D01*
X143078543Y-72968396D01*
X143079751Y-72964588D01*
X143081640Y-72961065D01*
X143102180Y-72893882D01*
X143123392Y-72827013D01*
X143123837Y-72823046D01*
X143125007Y-72819219D01*
X143132109Y-72749301D01*
X143139926Y-72679611D01*
X143139980Y-72671806D01*
X143139996Y-72671653D01*
X143139982Y-72671510D01*
X143140000Y-72669000D01*
X143140000Y-70887275D01*
X143231121Y-70880008D01*
X143402634Y-70826894D01*
X143552559Y-70728100D01*
X143669025Y-70591450D01*
X143742810Y-70427763D01*
X143768072Y-70250000D01*
X143768072Y-68750000D01*
X143760008Y-68648879D01*
X143706894Y-68477366D01*
X143608100Y-68327441D01*
X143471450Y-68210975D01*
X143307763Y-68137190D01*
X143130000Y-68111928D01*
X141630000Y-68111928D01*
X141528879Y-68119992D01*
X141357366Y-68173106D01*
X141207441Y-68271900D01*
X141090975Y-68408550D01*
X141017190Y-68572237D01*
X140994160Y-68734295D01*
X140918491Y-68620404D01*
X140727104Y-68427676D01*
X140501927Y-68275792D01*
X140251537Y-68170538D01*
X139985472Y-68115923D01*
X139713867Y-68114027D01*
X139447065Y-68164922D01*
X139195230Y-68266670D01*
X138967955Y-68415395D01*
X138773895Y-68605432D01*
X138620443Y-68829543D01*
X138570134Y-68946923D01*
X138528799Y-68846636D01*
X138378491Y-68620404D01*
X138187104Y-68427676D01*
X137961927Y-68275792D01*
X137711537Y-68170538D01*
X137445472Y-68115923D01*
X137173867Y-68114027D01*
X136907065Y-68164922D01*
X136655230Y-68266670D01*
X136427955Y-68415395D01*
X136233895Y-68605432D01*
X136080443Y-68829543D01*
X136030134Y-68946923D01*
X135988799Y-68846636D01*
X135838491Y-68620404D01*
X135647104Y-68427676D01*
X135421927Y-68275792D01*
X135171537Y-68170538D01*
X134905472Y-68115923D01*
X134633867Y-68114027D01*
X134367065Y-68164922D01*
X134115230Y-68266670D01*
X133887955Y-68415395D01*
X133693895Y-68605432D01*
X133540443Y-68829543D01*
X133433444Y-69079192D01*
X133376972Y-69344869D01*
X133373180Y-69616455D01*
X133422211Y-69883605D01*
X133522198Y-70136144D01*
X133669333Y-70364452D01*
X133858011Y-70559834D01*
X134081045Y-70714847D01*
X134329941Y-70823586D01*
X134595217Y-70881911D01*
X134866770Y-70887599D01*
X135134256Y-70840434D01*
X135387487Y-70742213D01*
X135616817Y-70596675D01*
X135813511Y-70409366D01*
X135970077Y-70187419D01*
X136029583Y-70053767D01*
X136062198Y-70136144D01*
X136209333Y-70364452D01*
X136398011Y-70559834D01*
X136621045Y-70714847D01*
X136869941Y-70823586D01*
X137135217Y-70881911D01*
X137406770Y-70887599D01*
X137674256Y-70840434D01*
X137927487Y-70742213D01*
X138156817Y-70596675D01*
X138353511Y-70409366D01*
X138510077Y-70187419D01*
X138569583Y-70053767D01*
X138602198Y-70136144D01*
X138749333Y-70364452D01*
X138938011Y-70559834D01*
X139080000Y-70658519D01*
X139080000Y-70751928D01*
X138981537Y-70710538D01*
X138715472Y-70655923D01*
X138443867Y-70654027D01*
X138177065Y-70704922D01*
X137925230Y-70806670D01*
X137697955Y-70955395D01*
X137503895Y-71145432D01*
X137350443Y-71369543D01*
X137300134Y-71486923D01*
X137258799Y-71386636D01*
X137108491Y-71160404D01*
X136917104Y-70967676D01*
X136691927Y-70815792D01*
X136441537Y-70710538D01*
X136175472Y-70655923D01*
X135903867Y-70654027D01*
X135637065Y-70704922D01*
X135385230Y-70806670D01*
X135157955Y-70955395D01*
X134963895Y-71145432D01*
X134810443Y-71369543D01*
X134760134Y-71486923D01*
X134718799Y-71386636D01*
X134568491Y-71160404D01*
X134377104Y-70967676D01*
X134151927Y-70815792D01*
X133901537Y-70710538D01*
X133635472Y-70655923D01*
X133363867Y-70654027D01*
X133097065Y-70704922D01*
X132845230Y-70806670D01*
X132617955Y-70955395D01*
X132423895Y-71145432D01*
X132270443Y-71369543D01*
X132163444Y-71619192D01*
X132106972Y-71884869D01*
X132103180Y-72156455D01*
X132148797Y-72405001D01*
X130834999Y-72405001D01*
X130765118Y-72411853D01*
X130695196Y-72417970D01*
X130691358Y-72419085D01*
X130687381Y-72419475D01*
X130620211Y-72439755D01*
X130552760Y-72459351D01*
X130549209Y-72461192D01*
X130545386Y-72462346D01*
X130483425Y-72495291D01*
X130421074Y-72527611D01*
X130417951Y-72530104D01*
X130414421Y-72531981D01*
X130360012Y-72576356D01*
X130305153Y-72620149D01*
X130299593Y-72625632D01*
X130299477Y-72625727D01*
X130299388Y-72625835D01*
X130297598Y-72627600D01*
X122048128Y-80877070D01*
X121934733Y-80898701D01*
X121764722Y-80967390D01*
X121611291Y-81067793D01*
X121480283Y-81196086D01*
X121376689Y-81347381D01*
X121304454Y-81515916D01*
X121266331Y-81695272D01*
X121263771Y-81878617D01*
X121296872Y-82058968D01*
X121364372Y-82229454D01*
X121463701Y-82383583D01*
X121591076Y-82515484D01*
X121741644Y-82620131D01*
X121909671Y-82693540D01*
X122088757Y-82732915D01*
X122272079Y-82736755D01*
X122452657Y-82704914D01*
X122517782Y-82679654D01*
X122587957Y-82728427D01*
X122755984Y-82801836D01*
X122935070Y-82841211D01*
X123118392Y-82845051D01*
X123298970Y-82813210D01*
X123469923Y-82746902D01*
X123624742Y-82648651D01*
X123665329Y-82610000D01*
X124185780Y-82610000D01*
X124191076Y-82615484D01*
X124341644Y-82720131D01*
X124509671Y-82793540D01*
X124688757Y-82832915D01*
X124872079Y-82836755D01*
X125052657Y-82804914D01*
X125223610Y-82738606D01*
X125378429Y-82640355D01*
X125511215Y-82513904D01*
X125616911Y-82364070D01*
X125691492Y-82196560D01*
X125732116Y-82017754D01*
X125735040Y-81808319D01*
X125699425Y-81628448D01*
X125629550Y-81458920D01*
X125528079Y-81306193D01*
X125398875Y-81176084D01*
X125246860Y-81073549D01*
X125077825Y-81002493D01*
X124898207Y-80965623D01*
X124714849Y-80964343D01*
X124534733Y-80998701D01*
X124364722Y-81067390D01*
X124211291Y-81167793D01*
X124188614Y-81190000D01*
X123884802Y-81190000D01*
X131149801Y-73925001D01*
X137275199Y-73925001D01*
X122960199Y-88240001D01*
X122499999Y-88240001D01*
X122430118Y-88246853D01*
X122360196Y-88252970D01*
X122356358Y-88254085D01*
X122352381Y-88254475D01*
X122285211Y-88274755D01*
X122217760Y-88294351D01*
X122214209Y-88296192D01*
X122210386Y-88297346D01*
X122160000Y-88324137D01*
X122160000Y-83940000D01*
X122153148Y-83870119D01*
X122147031Y-83800197D01*
X122145916Y-83796359D01*
X122145526Y-83792382D01*
X122125246Y-83725212D01*
X122105650Y-83657761D01*
X122103809Y-83654210D01*
X122102655Y-83650387D01*
X122069710Y-83588426D01*
X122037390Y-83526075D01*
X122034897Y-83522952D01*
X122033020Y-83519422D01*
X121988645Y-83465013D01*
X121944852Y-83410154D01*
X121939369Y-83404594D01*
X121939274Y-83404478D01*
X121939166Y-83404389D01*
X121937401Y-83402599D01*
X115058675Y-76523873D01*
X115335623Y-76496718D01*
X115613075Y-76412951D01*
X115868971Y-76276888D01*
X116093567Y-76093713D01*
X116278306Y-75870401D01*
X116416152Y-75615461D01*
X116501854Y-75338601D01*
X116532149Y-75050367D01*
X116505882Y-74761739D01*
X116424053Y-74483709D01*
X116289780Y-74226869D01*
X116108177Y-74001000D01*
X115886161Y-73814706D01*
X115805753Y-73770502D01*
X115868971Y-73736888D01*
X116093567Y-73553713D01*
X116278306Y-73330401D01*
X116416152Y-73075461D01*
X116501854Y-72798601D01*
X116532149Y-72510367D01*
X116505882Y-72221739D01*
X116424053Y-71943709D01*
X116289780Y-71686869D01*
X116108177Y-71461000D01*
X115886161Y-71274706D01*
X115800111Y-71227400D01*
X115921355Y-71155178D01*
X116137588Y-70960269D01*
X116311641Y-70726920D01*
X116436825Y-70464099D01*
X116481476Y-70316890D01*
X116360155Y-70087000D01*
X115167000Y-70087000D01*
X115167000Y-70107000D01*
X114913000Y-70107000D01*
X114913000Y-70087000D01*
X114893000Y-70087000D01*
X114893000Y-69833000D01*
X114913000Y-69833000D01*
X114913000Y-68639186D01*
X115167000Y-68639186D01*
X115167000Y-69833000D01*
X116360155Y-69833000D01*
X116481476Y-69603110D01*
X116436825Y-69455901D01*
X116311641Y-69193080D01*
X116137588Y-68959731D01*
X115921355Y-68764822D01*
X115671252Y-68615843D01*
X115396891Y-68518519D01*
X115167000Y-68639186D01*
X114913000Y-68639186D01*
X114683109Y-68518519D01*
X114408748Y-68615843D01*
X114158645Y-68764822D01*
X113959905Y-68943963D01*
X113926894Y-68837366D01*
X113828100Y-68687441D01*
X113691450Y-68570975D01*
X113527763Y-68497190D01*
X113350000Y-68471928D01*
X111650000Y-68471928D01*
X111548879Y-68479992D01*
X111377366Y-68533106D01*
X111227441Y-68631900D01*
X111110975Y-68768550D01*
X111037190Y-68932237D01*
X111011928Y-69110000D01*
X111011928Y-70810000D01*
X111019992Y-70911121D01*
X111073106Y-71082634D01*
X111171900Y-71232559D01*
X111308550Y-71349025D01*
X111472237Y-71422810D01*
X111474776Y-71423171D01*
X111446433Y-71446287D01*
X111261694Y-71669599D01*
X111123848Y-71924539D01*
X111038146Y-72201399D01*
X111007851Y-72489633D01*
X111034118Y-72778261D01*
X111059772Y-72865426D01*
X110737598Y-73187600D01*
X110693031Y-73241856D01*
X110647913Y-73295626D01*
X110645988Y-73299127D01*
X110643451Y-73302216D01*
X110610286Y-73364068D01*
X110576456Y-73425605D01*
X110575247Y-73429417D01*
X110573360Y-73432936D01*
X110552847Y-73500032D01*
X110531607Y-73566988D01*
X110531161Y-73570960D01*
X110529993Y-73574782D01*
X110522896Y-73644650D01*
X110515073Y-73714390D01*
X110515019Y-73722195D01*
X110515003Y-73722348D01*
X110515017Y-73722491D01*
X110514999Y-73725001D01*
X110514999Y-75628001D01*
X110521850Y-75697878D01*
X110527968Y-75767804D01*
X110529083Y-75771642D01*
X110529473Y-75775619D01*
X110549763Y-75842822D01*
X110569350Y-75910241D01*
X110571189Y-75913789D01*
X110572344Y-75917614D01*
X110605298Y-75979592D01*
X110637609Y-76041926D01*
X110640102Y-76045049D01*
X110641979Y-76048579D01*
X110686354Y-76102988D01*
X110730147Y-76157847D01*
X110735630Y-76163407D01*
X110735725Y-76163523D01*
X110735833Y-76163612D01*
X110737598Y-76165402D01*
X114228669Y-79656473D01*
X110994529Y-79656473D01*
X110948370Y-79665158D01*
X110905976Y-79692438D01*
X110877535Y-79734063D01*
X110867529Y-79783473D01*
X110867529Y-90783473D01*
X110876214Y-90829632D01*
X110903494Y-90872026D01*
X110945119Y-90900467D01*
X110994529Y-90910473D01*
X117694529Y-90910473D01*
X117740688Y-90901788D01*
X117783082Y-90874508D01*
X117811523Y-90832883D01*
X117821529Y-90783473D01*
X117821529Y-88883473D01*
X117812844Y-88837314D01*
X117785564Y-88794920D01*
X117743939Y-88766479D01*
X117694529Y-88756473D01*
X115721529Y-88756473D01*
X115721529Y-81149333D01*
X115940000Y-81367804D01*
X115940000Y-83254918D01*
X115876689Y-83347381D01*
X115804454Y-83515916D01*
X115766331Y-83695272D01*
X115763771Y-83878617D01*
X115796872Y-84058968D01*
X115864372Y-84229454D01*
X115963701Y-84383583D01*
X116091076Y-84515484D01*
X116241644Y-84620131D01*
X116409671Y-84693540D01*
X116588757Y-84732915D01*
X116772079Y-84736755D01*
X116952657Y-84704914D01*
X117123610Y-84638606D01*
X117278429Y-84540355D01*
X117411215Y-84413904D01*
X117516911Y-84264070D01*
X117591492Y-84096560D01*
X117632116Y-83917754D01*
X117635040Y-83708319D01*
X117599425Y-83528448D01*
X117529550Y-83358920D01*
X117460000Y-83254238D01*
X117460000Y-81074802D01*
X120640000Y-84254802D01*
X120640000Y-89854918D01*
X120576689Y-89947381D01*
X120504454Y-90115916D01*
X120466331Y-90295272D01*
X120463771Y-90478617D01*
X120496872Y-90658968D01*
X120564372Y-90829454D01*
X120663701Y-90983583D01*
X120791076Y-91115484D01*
X120941644Y-91220131D01*
X121109671Y-91293540D01*
X121288757Y-91332915D01*
X121472079Y-91336755D01*
X121652657Y-91304914D01*
X121823610Y-91238606D01*
X121978429Y-91140355D01*
X122111215Y-91013904D01*
X122216911Y-90864070D01*
X122291492Y-90696560D01*
X122332116Y-90517754D01*
X122335040Y-90308319D01*
X122319224Y-90228442D01*
X122452657Y-90204914D01*
X122623610Y-90138606D01*
X122778429Y-90040355D01*
X122911215Y-89913904D01*
X123016911Y-89764070D01*
X123018723Y-89760001D01*
X123275001Y-89760001D01*
X123344878Y-89753150D01*
X123414804Y-89747032D01*
X123418642Y-89745917D01*
X123422619Y-89745527D01*
X123489822Y-89725237D01*
X123557241Y-89705650D01*
X123560789Y-89703811D01*
X123564614Y-89702656D01*
X123626592Y-89669702D01*
X123688926Y-89637391D01*
X123692049Y-89634898D01*
X123695579Y-89633021D01*
X123749988Y-89588646D01*
X123804847Y-89544853D01*
X123810407Y-89539370D01*
X123810523Y-89539275D01*
X123810612Y-89539167D01*
X123812402Y-89537402D01*
X134000000Y-79349804D01*
X134000000Y-102652075D01*
X133887955Y-102725395D01*
X133693895Y-102915432D01*
X133540443Y-103139543D01*
X133433444Y-103389192D01*
X133376972Y-103654869D01*
X133373180Y-103926455D01*
X133422211Y-104193605D01*
X133522198Y-104446144D01*
X133669333Y-104674452D01*
X133858011Y-104869834D01*
X133990517Y-104961928D01*
X132740000Y-104961928D01*
X132638879Y-104969992D01*
X132467366Y-105023106D01*
X132317441Y-105121900D01*
X132200975Y-105258550D01*
X132127190Y-105422237D01*
X132101928Y-105600000D01*
X132101928Y-107100000D01*
X132109992Y-107201121D01*
X132163106Y-107372634D01*
X132261900Y-107522559D01*
X132398550Y-107639025D01*
X132562237Y-107712810D01*
X132740000Y-107738072D01*
X134240000Y-107738072D01*
X134341121Y-107730008D01*
X134512634Y-107676894D01*
X134662559Y-107578100D01*
X134779025Y-107441450D01*
X134852810Y-107277763D01*
X134875814Y-107115890D01*
X134939333Y-107214452D01*
X135128011Y-107409834D01*
X135351045Y-107564847D01*
X135599941Y-107673586D01*
X135865217Y-107731911D01*
X136136770Y-107737599D01*
X136404256Y-107690434D01*
X136657487Y-107592213D01*
X136886817Y-107446675D01*
X137083511Y-107259366D01*
X137240077Y-107037419D01*
X137299583Y-106903767D01*
X137332198Y-106986144D01*
X137479333Y-107214452D01*
X137668011Y-107409834D01*
X137891045Y-107564847D01*
X138139941Y-107673586D01*
X138405217Y-107731911D01*
X138676770Y-107737599D01*
X138944256Y-107690434D01*
X139197487Y-107592213D01*
X139426817Y-107446675D01*
X139623511Y-107259366D01*
X139780077Y-107037419D01*
X139839583Y-106903767D01*
X139872198Y-106986144D01*
X140019333Y-107214452D01*
X140208011Y-107409834D01*
X140431045Y-107564847D01*
X140679941Y-107673586D01*
X140945217Y-107731911D01*
X141216770Y-107737599D01*
X141484256Y-107690434D01*
X141737487Y-107592213D01*
X141966817Y-107446675D01*
X142163511Y-107259366D01*
X142320077Y-107037419D01*
X142430552Y-106789289D01*
X142490727Y-106524426D01*
X142495059Y-106214194D01*
X142442303Y-105947754D01*
X142338799Y-105696636D01*
X142188491Y-105470404D01*
X142080213Y-105361367D01*
X142248962Y-105192618D01*
X142486770Y-105197599D01*
X142512965Y-105192980D01*
X142567401Y-105237695D01*
X142630003Y-105290224D01*
X142634080Y-105292465D01*
X142637677Y-105295420D01*
X142709707Y-105334042D01*
X142781360Y-105373434D01*
X142785799Y-105374842D01*
X142789898Y-105377040D01*
X142868025Y-105400926D01*
X142945997Y-105425660D01*
X142950625Y-105426179D01*
X142955073Y-105427539D01*
X143036383Y-105435798D01*
X143117642Y-105444913D01*
X143126736Y-105444976D01*
X143126910Y-105444994D01*
X143127073Y-105444979D01*
X143129999Y-105444999D01*
X153240001Y-105444999D01*
X153321357Y-105437022D01*
X153402797Y-105429897D01*
X153407268Y-105428598D01*
X153411898Y-105428144D01*
X153490132Y-105404524D01*
X153568661Y-105381709D01*
X153572794Y-105379567D01*
X153577248Y-105378222D01*
X153649389Y-105339864D01*
X153722007Y-105302223D01*
X153725647Y-105299317D01*
X153729753Y-105297134D01*
X153793072Y-105245492D01*
X153856992Y-105194465D01*
X153863475Y-105188072D01*
X153863602Y-105187969D01*
X153863699Y-105187852D01*
X153865791Y-105185789D01*
X154933507Y-104118072D01*
X156306492Y-104118072D01*
X170114210Y-117925789D01*
X170177397Y-117977691D01*
X170240004Y-118030225D01*
X170244081Y-118032466D01*
X170247678Y-118035421D01*
X170319708Y-118074043D01*
X170391361Y-118113435D01*
X170395800Y-118114843D01*
X170399899Y-118117041D01*
X170478026Y-118140927D01*
X170555998Y-118165661D01*
X170560626Y-118166180D01*
X170565074Y-118167540D01*
X170646339Y-118175794D01*
X170727643Y-118184914D01*
X170736747Y-118184977D01*
X170736911Y-118184994D01*
X170737064Y-118184980D01*
X170740000Y-118185000D01*
X172115000Y-118185000D01*
X172115000Y-119733421D01*
X169733420Y-122115000D01*
X128407578Y-122115000D01*
X128377825Y-122102493D01*
X128198207Y-122065623D01*
X128014849Y-122064343D01*
X127834733Y-122098701D01*
X127794392Y-122115000D01*
X104266579Y-122115000D01*
X103885000Y-121733420D01*
X103885000Y-112906844D01*
X129536766Y-112906844D01*
X129623854Y-113381349D01*
X129801449Y-113829902D01*
X130062786Y-114235417D01*
X130397910Y-114582449D01*
X130794058Y-114857779D01*
X131236140Y-115050919D01*
X131707317Y-115154514D01*
X132189642Y-115164618D01*
X132664744Y-115080844D01*
X133114526Y-114906386D01*
X133521855Y-114647886D01*
X133871218Y-114315192D01*
X134149307Y-113920976D01*
X134345529Y-113480254D01*
X134452411Y-113009812D01*
X134453848Y-112906844D01*
X141406766Y-112906844D01*
X141493854Y-113381349D01*
X141671449Y-113829902D01*
X141932786Y-114235417D01*
X142267910Y-114582449D01*
X142664058Y-114857779D01*
X143106140Y-115050919D01*
X143577317Y-115154514D01*
X144059642Y-115164618D01*
X144534744Y-115080844D01*
X144984526Y-114906386D01*
X145391855Y-114647886D01*
X145741218Y-114315192D01*
X146019307Y-113920976D01*
X146215529Y-113480254D01*
X146322411Y-113009812D01*
X146330106Y-112458785D01*
X146236401Y-111985541D01*
X146052561Y-111539512D01*
X145785588Y-111137685D01*
X145445650Y-110795366D01*
X145045697Y-110525594D01*
X144600962Y-110338645D01*
X144128384Y-110241638D01*
X143645965Y-110238270D01*
X143172079Y-110328669D01*
X142724777Y-110509391D01*
X142321096Y-110773552D01*
X141976412Y-111111091D01*
X141703855Y-111509152D01*
X141513805Y-111952571D01*
X141413502Y-112424460D01*
X141406766Y-112906844D01*
X134453848Y-112906844D01*
X134460106Y-112458785D01*
X134366401Y-111985541D01*
X134182561Y-111539512D01*
X133915588Y-111137685D01*
X133575650Y-110795366D01*
X133175697Y-110525594D01*
X132730962Y-110338645D01*
X132258384Y-110241638D01*
X131775965Y-110238270D01*
X131302079Y-110328669D01*
X130854777Y-110509391D01*
X130451096Y-110773552D01*
X130106412Y-111111091D01*
X129833855Y-111509152D01*
X129643805Y-111952571D01*
X129543502Y-112424460D01*
X129536766Y-112906844D01*
X103885000Y-112906844D01*
X103885000Y-110285750D01*
X113175000Y-110285750D01*
X113175000Y-110912542D01*
X113199403Y-111035223D01*
X113247270Y-111150785D01*
X113316763Y-111254789D01*
X113405211Y-111343237D01*
X113509215Y-111412730D01*
X113624777Y-111460597D01*
X113747458Y-111485000D01*
X114374250Y-111485000D01*
X114533000Y-111326250D01*
X114533000Y-110127000D01*
X113333750Y-110127000D01*
X113175000Y-110285750D01*
X103885000Y-110285750D01*
X103885000Y-109087458D01*
X113175000Y-109087458D01*
X113175000Y-109714250D01*
X113333750Y-109873000D01*
X114533000Y-109873000D01*
X114533000Y-108673750D01*
X114787000Y-108673750D01*
X114787000Y-109873000D01*
X114807000Y-109873000D01*
X114807000Y-110127000D01*
X114787000Y-110127000D01*
X114787000Y-111326250D01*
X114945750Y-111485000D01*
X115572542Y-111485000D01*
X115695223Y-111460597D01*
X115810785Y-111412730D01*
X115914789Y-111343237D01*
X116003237Y-111254789D01*
X116072730Y-111150785D01*
X116120597Y-111035223D01*
X116122701Y-111024647D01*
X116146287Y-111053567D01*
X116369599Y-111238306D01*
X116624539Y-111376152D01*
X116901399Y-111461854D01*
X117189633Y-111492149D01*
X117478261Y-111465882D01*
X117756291Y-111384053D01*
X118013131Y-111249780D01*
X118239000Y-111068177D01*
X118425294Y-110846161D01*
X118469498Y-110765753D01*
X118503112Y-110828971D01*
X118686287Y-111053567D01*
X118909599Y-111238306D01*
X119164539Y-111376152D01*
X119441399Y-111461854D01*
X119729633Y-111492149D01*
X120018261Y-111465882D01*
X120296291Y-111384053D01*
X120553131Y-111249780D01*
X120779000Y-111068177D01*
X120965294Y-110846161D01*
X121009498Y-110765753D01*
X121043112Y-110828971D01*
X121226287Y-111053567D01*
X121449599Y-111238306D01*
X121704539Y-111376152D01*
X121981399Y-111461854D01*
X122269633Y-111492149D01*
X122558261Y-111465882D01*
X122836291Y-111384053D01*
X123093131Y-111249780D01*
X123319000Y-111068177D01*
X123505294Y-110846161D01*
X123549498Y-110765753D01*
X123583112Y-110828971D01*
X123766287Y-111053567D01*
X123989599Y-111238306D01*
X124244539Y-111376152D01*
X124521399Y-111461854D01*
X124809633Y-111492149D01*
X125098261Y-111465882D01*
X125376291Y-111384053D01*
X125633131Y-111249780D01*
X125859000Y-111068177D01*
X126045294Y-110846161D01*
X126089498Y-110765753D01*
X126123112Y-110828971D01*
X126306287Y-111053567D01*
X126529599Y-111238306D01*
X126784539Y-111376152D01*
X127061399Y-111461854D01*
X127349633Y-111492149D01*
X127638261Y-111465882D01*
X127916291Y-111384053D01*
X128173131Y-111249780D01*
X128399000Y-111068177D01*
X128585294Y-110846161D01*
X128724916Y-110592189D01*
X128812549Y-110315934D01*
X128844855Y-110027919D01*
X128845000Y-110007185D01*
X128845000Y-109992815D01*
X128816718Y-109704377D01*
X128732951Y-109426925D01*
X128596888Y-109171029D01*
X128413713Y-108946433D01*
X128190401Y-108761694D01*
X127935461Y-108623848D01*
X127658601Y-108538146D01*
X127370367Y-108507851D01*
X127081739Y-108534118D01*
X126803709Y-108615947D01*
X126546869Y-108750220D01*
X126321000Y-108931823D01*
X126134706Y-109153839D01*
X126090502Y-109234247D01*
X126056888Y-109171029D01*
X125873713Y-108946433D01*
X125650401Y-108761694D01*
X125395461Y-108623848D01*
X125118601Y-108538146D01*
X124830367Y-108507851D01*
X124541739Y-108534118D01*
X124263709Y-108615947D01*
X124006869Y-108750220D01*
X123781000Y-108931823D01*
X123594706Y-109153839D01*
X123550502Y-109234247D01*
X123516888Y-109171029D01*
X123333713Y-108946433D01*
X123110401Y-108761694D01*
X123040000Y-108723628D01*
X123040000Y-96634802D01*
X125452169Y-94222633D01*
X125552657Y-94204914D01*
X125723610Y-94138606D01*
X125878429Y-94040355D01*
X126011215Y-93913904D01*
X126116911Y-93764070D01*
X126191492Y-93596560D01*
X126232116Y-93417754D01*
X126235040Y-93208319D01*
X126199425Y-93028448D01*
X126129550Y-92858920D01*
X126028079Y-92706193D01*
X125898875Y-92576084D01*
X125746860Y-92473549D01*
X125577825Y-92402493D01*
X125398207Y-92365623D01*
X125214849Y-92364343D01*
X125034733Y-92398701D01*
X125012205Y-92407803D01*
X124928079Y-92281182D01*
X124798875Y-92151073D01*
X124646860Y-92048538D01*
X124477825Y-91977482D01*
X124298207Y-91940612D01*
X124114849Y-91939332D01*
X123934733Y-91973690D01*
X123764722Y-92042379D01*
X123611291Y-92142782D01*
X123480283Y-92271075D01*
X123376689Y-92422370D01*
X123304454Y-92590905D01*
X123266331Y-92770261D01*
X123263771Y-92953606D01*
X123296872Y-93133957D01*
X123341770Y-93247357D01*
X121566485Y-95022642D01*
X121453090Y-95044273D01*
X121283079Y-95112962D01*
X121129648Y-95213365D01*
X120998640Y-95341658D01*
X120895046Y-95492953D01*
X120822811Y-95661488D01*
X120794515Y-95794612D01*
X119202599Y-97386528D01*
X119158032Y-97440784D01*
X119112914Y-97494554D01*
X119110989Y-97498055D01*
X119108452Y-97501144D01*
X119075287Y-97562996D01*
X119041457Y-97624533D01*
X119040248Y-97628345D01*
X119038361Y-97631864D01*
X119017848Y-97698960D01*
X118996608Y-97765916D01*
X118996162Y-97769888D01*
X118994994Y-97773710D01*
X118987897Y-97843578D01*
X118980074Y-97913318D01*
X118980020Y-97921123D01*
X118980004Y-97921276D01*
X118980018Y-97921419D01*
X118980000Y-97923929D01*
X118980000Y-108722444D01*
X118926869Y-108750220D01*
X118701000Y-108931823D01*
X118514706Y-109153839D01*
X118470502Y-109234247D01*
X118436888Y-109171029D01*
X118253713Y-108946433D01*
X118030401Y-108761694D01*
X117775461Y-108623848D01*
X117498601Y-108538146D01*
X117210367Y-108507851D01*
X116921739Y-108534118D01*
X116643709Y-108615947D01*
X116386869Y-108750220D01*
X116161000Y-108931823D01*
X116123041Y-108977061D01*
X116120597Y-108964777D01*
X116072730Y-108849215D01*
X116003237Y-108745211D01*
X115914789Y-108656763D01*
X115810785Y-108587270D01*
X115695223Y-108539403D01*
X115572542Y-108515000D01*
X114945750Y-108515000D01*
X114787000Y-108673750D01*
X114533000Y-108673750D01*
X114374250Y-108515000D01*
X113747458Y-108515000D01*
X113624777Y-108539403D01*
X113509215Y-108587270D01*
X113405211Y-108656763D01*
X113316763Y-108745211D01*
X113247270Y-108849215D01*
X113199403Y-108964777D01*
X113175000Y-109087458D01*
X103885000Y-109087458D01*
X103885000Y-108011141D01*
X103891492Y-107996560D01*
X103932116Y-107817754D01*
X103935040Y-107608319D01*
X103899425Y-107428448D01*
X103885000Y-107393451D01*
X103885000Y-99262927D01*
X107868890Y-99262927D01*
X107979591Y-99866088D01*
X108205338Y-100436261D01*
X108537533Y-100951727D01*
X108963523Y-101392852D01*
X109467082Y-101742835D01*
X110029028Y-101988343D01*
X110627959Y-102120027D01*
X111241061Y-102132869D01*
X111844981Y-102026382D01*
X112416716Y-101804621D01*
X112934488Y-101476032D01*
X113378577Y-101053132D01*
X113732066Y-100552030D01*
X113981492Y-99991810D01*
X114117353Y-99393813D01*
X114127134Y-98693382D01*
X114008022Y-98091825D01*
X113774336Y-97524859D01*
X113434976Y-97014082D01*
X113002869Y-96578947D01*
X112494473Y-96236030D01*
X111929153Y-95998391D01*
X111328442Y-95875083D01*
X110715221Y-95870802D01*
X110112846Y-95985711D01*
X109544264Y-96215433D01*
X109031129Y-96551219D01*
X108592989Y-96980278D01*
X108246530Y-97486267D01*
X108004951Y-98049914D01*
X107877452Y-98649750D01*
X107868890Y-99262927D01*
X103885000Y-99262927D01*
X103885000Y-63356844D01*
X129536766Y-63356844D01*
X129623854Y-63831349D01*
X129801449Y-64279902D01*
X130062786Y-64685417D01*
X130397910Y-65032449D01*
X130794058Y-65307779D01*
X131236140Y-65500919D01*
X131707317Y-65604514D01*
X132189642Y-65614618D01*
X132664744Y-65530844D01*
X133114526Y-65356386D01*
X133521855Y-65097886D01*
X133871218Y-64765192D01*
X134149307Y-64370976D01*
X134345529Y-63930254D01*
X134452411Y-63459812D01*
X134453848Y-63356844D01*
X141406766Y-63356844D01*
X141493854Y-63831349D01*
X141671449Y-64279902D01*
X141932786Y-64685417D01*
X142267910Y-65032449D01*
X142664058Y-65307779D01*
X143106140Y-65500919D01*
X143577317Y-65604514D01*
X144059642Y-65614618D01*
X144534744Y-65530844D01*
X144984526Y-65356386D01*
X145391855Y-65097886D01*
X145741218Y-64765192D01*
X146019307Y-64370976D01*
X146215529Y-63930254D01*
X146322411Y-63459812D01*
X146330106Y-62908785D01*
X146236401Y-62435541D01*
X146052561Y-61989512D01*
X145785588Y-61587685D01*
X145445650Y-61245366D01*
X145045697Y-60975594D01*
X144600962Y-60788645D01*
X144128384Y-60691638D01*
X143645965Y-60688270D01*
X143172079Y-60778669D01*
X142724777Y-60959391D01*
X142321096Y-61223552D01*
X141976412Y-61561091D01*
X141703855Y-61959152D01*
X141513805Y-62402571D01*
X141413502Y-62874460D01*
X141406766Y-63356844D01*
X134453848Y-63356844D01*
X134460106Y-62908785D01*
X134366401Y-62435541D01*
X134182561Y-61989512D01*
X133915588Y-61587685D01*
X133575650Y-61245366D01*
X133175697Y-60975594D01*
X132730962Y-60788645D01*
X132258384Y-60691638D01*
X131775965Y-60688270D01*
X131302079Y-60778669D01*
X130854777Y-60959391D01*
X130451096Y-61223552D01*
X130106412Y-61561091D01*
X129833855Y-61959152D01*
X129643805Y-62402571D01*
X129543502Y-62874460D01*
X129536766Y-63356844D01*
X103885000Y-63356844D01*
X103885000Y-62911141D01*
X103891492Y-62896560D01*
X103932116Y-62717754D01*
X103935040Y-62508319D01*
X103899425Y-62328448D01*
X103829550Y-62158920D01*
X103728079Y-62006193D01*
X103598875Y-61876084D01*
X103446860Y-61773549D01*
X103277825Y-61702493D01*
X103098207Y-61665623D01*
X102914849Y-61664343D01*
X102734733Y-61698701D01*
X102564722Y-61767390D01*
X102411291Y-61867793D01*
X102280283Y-61996086D01*
X102176689Y-62147381D01*
X102104454Y-62315916D01*
X102066331Y-62495272D01*
X102063771Y-62678617D01*
X100685000Y-62678617D01*
X100685000Y-50685000D01*
X175315000Y-50685000D01*
X175315000Y-125315000D01*
X175315000Y-125315000D01*
G37*
X175315000Y-125315000D02*
X100685000Y-125315000D01*
X100685000Y-62678617D01*
X102063771Y-62678617D01*
X102096872Y-62858968D01*
X102115000Y-62904754D01*
X102115000Y-107391311D01*
X102104454Y-107415916D01*
X102066331Y-107595272D01*
X102063771Y-107778617D01*
X102096872Y-107958968D01*
X102115000Y-108004754D01*
X102115000Y-122100000D01*
X102122977Y-122181356D01*
X102130102Y-122262796D01*
X102131401Y-122267267D01*
X102131855Y-122271897D01*
X102155475Y-122350131D01*
X102178290Y-122428660D01*
X102180432Y-122432793D01*
X102181777Y-122437247D01*
X102220135Y-122509388D01*
X102257776Y-122582006D01*
X102260682Y-122585646D01*
X102262865Y-122589752D01*
X102314507Y-122653071D01*
X102365534Y-122716991D01*
X102371927Y-122723474D01*
X102372030Y-122723601D01*
X102372147Y-122723698D01*
X102374210Y-122725790D01*
X103274210Y-123625789D01*
X103337397Y-123677691D01*
X103400004Y-123730225D01*
X103404081Y-123732466D01*
X103407678Y-123735421D01*
X103479727Y-123774053D01*
X103551361Y-123813435D01*
X103555798Y-123814842D01*
X103559898Y-123817041D01*
X103638040Y-123840931D01*
X103715998Y-123865661D01*
X103720626Y-123866180D01*
X103725074Y-123867540D01*
X103806339Y-123875794D01*
X103887643Y-123884914D01*
X103896747Y-123884977D01*
X103896911Y-123884994D01*
X103897064Y-123884980D01*
X103900000Y-123885000D01*
X127790124Y-123885000D01*
X127809671Y-123893540D01*
X127988757Y-123932915D01*
X128172079Y-123936755D01*
X128352657Y-123904914D01*
X128403999Y-123885000D01*
X170100000Y-123885000D01*
X170181356Y-123877023D01*
X170262796Y-123869898D01*
X170267267Y-123868599D01*
X170271897Y-123868145D01*
X170350131Y-123844525D01*
X170428660Y-123821710D01*
X170432793Y-123819568D01*
X170437247Y-123818223D01*
X170509388Y-123779865D01*
X170582006Y-123742224D01*
X170585646Y-123739318D01*
X170589752Y-123737135D01*
X170653071Y-123685493D01*
X170716991Y-123634466D01*
X170723474Y-123628073D01*
X170723601Y-123627970D01*
X170723698Y-123627853D01*
X170725790Y-123625790D01*
X173625789Y-120725790D01*
X173677691Y-120662603D01*
X173730225Y-120599996D01*
X173732466Y-120595919D01*
X173735421Y-120592322D01*
X173774034Y-120520308D01*
X173813435Y-120448639D01*
X173814844Y-120444198D01*
X173817040Y-120440102D01*
X173840917Y-120362006D01*
X173865661Y-120284002D01*
X173866180Y-120279374D01*
X173867540Y-120274926D01*
X173875795Y-120193656D01*
X173884914Y-120112357D01*
X173884977Y-120103254D01*
X173884994Y-120103090D01*
X173884980Y-120102937D01*
X173885000Y-120100000D01*
X173885000Y-117611141D01*
X173891492Y-117596560D01*
X173932116Y-117417754D01*
X173935040Y-117208319D01*
X173899425Y-117028448D01*
X173885000Y-116993451D01*
X173885000Y-72311141D01*
X173891492Y-72296560D01*
X173932116Y-72117754D01*
X173935040Y-71908319D01*
X173899425Y-71728448D01*
X173885000Y-71693451D01*
X173885000Y-56600000D01*
X173877023Y-56518644D01*
X173869898Y-56437204D01*
X173868599Y-56432733D01*
X173868145Y-56428103D01*
X173844539Y-56349915D01*
X173821711Y-56271340D01*
X173819566Y-56267203D01*
X173818223Y-56262753D01*
X173779884Y-56190647D01*
X173742224Y-56117994D01*
X173739318Y-56114354D01*
X173737135Y-56110248D01*
X173685518Y-56046960D01*
X173634467Y-55983009D01*
X173628076Y-55976528D01*
X173627970Y-55976399D01*
X173627850Y-55976300D01*
X173625790Y-55974211D01*
X170025790Y-52374210D01*
X169962574Y-52322284D01*
X169899996Y-52269775D01*
X169895919Y-52267534D01*
X169892322Y-52264579D01*
X169820292Y-52225957D01*
X169748639Y-52186565D01*
X169744200Y-52185157D01*
X169740101Y-52182959D01*
X169661974Y-52159073D01*
X169584002Y-52134339D01*
X169579374Y-52133820D01*
X169574926Y-52132460D01*
X169493661Y-52124206D01*
X169412357Y-52115086D01*
X169403253Y-52115023D01*
X169403089Y-52115006D01*
X169402936Y-52115020D01*
X169400000Y-52115000D01*
X147307578Y-52115000D01*
X147277825Y-52102493D01*
X147098207Y-52065623D01*
X146914849Y-52064343D01*
X146734733Y-52098701D01*
X146564722Y-52167390D01*
X146411291Y-52267793D01*
X146280283Y-52396086D01*
X146176689Y-52547381D01*
X146104454Y-52715916D01*
X146066331Y-52895272D01*
X146063771Y-53078617D01*
X146096872Y-53258968D01*
X146164372Y-53429454D01*
X146263701Y-53583583D01*
X146391076Y-53715484D01*
X146541644Y-53820131D01*
X146709671Y-53893540D01*
X146888757Y-53932915D01*
X147072079Y-53936755D01*
X147252657Y-53904914D01*
X147303999Y-53885000D01*
X169033420Y-53885000D01*
X172115000Y-56966579D01*
X172115000Y-71691311D01*
X172104454Y-71715916D01*
X172066331Y-71895272D01*
X172063771Y-72078617D01*
X172096872Y-72258968D01*
X172115000Y-72304754D01*
X172115000Y-116415000D01*
X171106579Y-116415000D01*
X158426275Y-103734695D01*
X158631424Y-103877277D01*
X158979159Y-104029199D01*
X159349780Y-104110685D01*
X159729170Y-104118632D01*
X160102878Y-104052738D01*
X160456670Y-103915511D01*
X160777069Y-103712179D01*
X161051873Y-103450487D01*
X161270614Y-103140402D01*
X161424959Y-102793736D01*
X161509031Y-102423693D01*
X161515083Y-101990263D01*
X161441377Y-101618017D01*
X161296771Y-101267177D01*
X161086773Y-100951106D01*
X160819384Y-100681843D01*
X160504786Y-100469644D01*
X160154964Y-100322592D01*
X159783241Y-100246288D01*
X159403777Y-100243639D01*
X159031026Y-100314745D01*
X158679184Y-100456899D01*
X158361655Y-100664684D01*
X158090532Y-100930188D01*
X157876142Y-101243296D01*
X157726651Y-101592083D01*
X157647754Y-101963264D01*
X157642456Y-102342700D01*
X157710958Y-102715939D01*
X157850652Y-103068764D01*
X158014341Y-103322761D01*
X157558072Y-102866492D01*
X157558072Y-100880000D01*
X157550008Y-100778879D01*
X157496894Y-100607366D01*
X157398100Y-100457441D01*
X157261450Y-100340975D01*
X157097763Y-100267190D01*
X156920000Y-100241928D01*
X154933507Y-100241928D01*
X153954507Y-99262927D01*
X163368890Y-99262927D01*
X163479591Y-99866088D01*
X163705338Y-100436261D01*
X164037533Y-100951727D01*
X164463523Y-101392852D01*
X164967082Y-101742835D01*
X165529028Y-101988343D01*
X166127959Y-102120027D01*
X166741061Y-102132869D01*
X167344981Y-102026382D01*
X167916716Y-101804621D01*
X168434488Y-101476032D01*
X168878577Y-101053132D01*
X169232066Y-100552030D01*
X169481492Y-99991810D01*
X169617353Y-99393813D01*
X169627134Y-98693382D01*
X169508022Y-98091825D01*
X169274336Y-97524859D01*
X168934976Y-97014082D01*
X168502869Y-96578947D01*
X167994473Y-96236030D01*
X167429153Y-95998391D01*
X166828442Y-95875083D01*
X166215221Y-95870802D01*
X165612846Y-95985711D01*
X165044264Y-96215433D01*
X164531129Y-96551219D01*
X164092989Y-96980278D01*
X163746530Y-97486267D01*
X163504951Y-98049914D01*
X163377452Y-98649750D01*
X163368890Y-99262927D01*
X153954507Y-99262927D01*
X142285000Y-87593420D01*
X142285000Y-81311141D01*
X142291492Y-81296560D01*
X142332116Y-81117754D01*
X142335040Y-80908319D01*
X142299425Y-80728448D01*
X142229550Y-80558920D01*
X142128079Y-80406193D01*
X141998875Y-80276084D01*
X141846860Y-80173549D01*
X141677825Y-80102493D01*
X141498207Y-80065623D01*
X141314849Y-80064343D01*
X141134733Y-80098701D01*
X140964722Y-80167390D01*
X140811291Y-80267793D01*
X140680283Y-80396086D01*
X140576689Y-80547381D01*
X140504454Y-80715916D01*
X140466331Y-80895272D01*
X140463771Y-81078617D01*
X140496872Y-81258968D01*
X140515000Y-81304754D01*
X140515000Y-87960000D01*
X140522977Y-88041356D01*
X140530102Y-88122796D01*
X140531401Y-88127267D01*
X140531855Y-88131897D01*
X140555475Y-88210131D01*
X140578290Y-88288660D01*
X140580432Y-88292793D01*
X140581777Y-88297247D01*
X140620135Y-88369388D01*
X140657776Y-88442006D01*
X140660682Y-88445646D01*
X140662865Y-88449752D01*
X140714507Y-88513071D01*
X140765534Y-88576991D01*
X140771927Y-88583474D01*
X140772030Y-88583601D01*
X140772147Y-88583698D01*
X140774210Y-88585790D01*
X153681928Y-101493507D01*
X153681928Y-102866493D01*
X152873421Y-103674999D01*
X143765048Y-103674999D01*
X143765059Y-103674194D01*
X143712303Y-103407754D01*
X143608799Y-103156636D01*
X143458491Y-102930404D01*
X143267104Y-102737676D01*
X143041927Y-102585792D01*
X142791537Y-102480538D01*
X142525472Y-102425923D01*
X142253867Y-102424027D01*
X141987065Y-102474922D01*
X141735230Y-102576670D01*
X141507955Y-102725395D01*
X141313895Y-102915432D01*
X141160443Y-103139543D01*
X141110134Y-103256923D01*
X141068799Y-103156636D01*
X140918491Y-102930404D01*
X140727104Y-102737676D01*
X140501927Y-102585792D01*
X140251537Y-102480538D01*
X139985472Y-102425923D01*
X139713867Y-102424027D01*
X139447065Y-102474922D01*
X139195230Y-102576670D01*
X138967955Y-102725395D01*
X138773895Y-102915432D01*
X138620443Y-103139543D01*
X138570134Y-103256923D01*
X138528799Y-103156636D01*
X138378491Y-102930404D01*
X138187104Y-102737676D01*
X138060000Y-102651943D01*
X138060000Y-78414802D01*
X140052169Y-76422633D01*
X140152657Y-76404914D01*
X140323610Y-76338606D01*
X140478429Y-76240355D01*
X140611215Y-76113904D01*
X140716911Y-75964070D01*
X140791492Y-75796560D01*
X140832116Y-75617754D01*
X140835040Y-75408319D01*
X140815280Y-75308522D01*
X142917401Y-73206401D01*
X142961968Y-73152145D01*
X143007086Y-73098375D01*
X143009011Y-73094874D01*
X143011548Y-73091785D01*
X143044732Y-73029898D01*
X143078543Y-72968396D01*
X143079751Y-72964588D01*
X143081640Y-72961065D01*
X143102180Y-72893882D01*
X143123392Y-72827013D01*
X143123837Y-72823046D01*
X143125007Y-72819219D01*
X143132109Y-72749301D01*
X143139926Y-72679611D01*
X143139980Y-72671806D01*
X143139996Y-72671653D01*
X143139982Y-72671510D01*
X143140000Y-72669000D01*
X143140000Y-70887275D01*
X143231121Y-70880008D01*
X143402634Y-70826894D01*
X143552559Y-70728100D01*
X143669025Y-70591450D01*
X143742810Y-70427763D01*
X143768072Y-70250000D01*
X143768072Y-68750000D01*
X143760008Y-68648879D01*
X143706894Y-68477366D01*
X143608100Y-68327441D01*
X143471450Y-68210975D01*
X143307763Y-68137190D01*
X143130000Y-68111928D01*
X141630000Y-68111928D01*
X141528879Y-68119992D01*
X141357366Y-68173106D01*
X141207441Y-68271900D01*
X141090975Y-68408550D01*
X141017190Y-68572237D01*
X140994160Y-68734295D01*
X140918491Y-68620404D01*
X140727104Y-68427676D01*
X140501927Y-68275792D01*
X140251537Y-68170538D01*
X139985472Y-68115923D01*
X139713867Y-68114027D01*
X139447065Y-68164922D01*
X139195230Y-68266670D01*
X138967955Y-68415395D01*
X138773895Y-68605432D01*
X138620443Y-68829543D01*
X138570134Y-68946923D01*
X138528799Y-68846636D01*
X138378491Y-68620404D01*
X138187104Y-68427676D01*
X137961927Y-68275792D01*
X137711537Y-68170538D01*
X137445472Y-68115923D01*
X137173867Y-68114027D01*
X136907065Y-68164922D01*
X136655230Y-68266670D01*
X136427955Y-68415395D01*
X136233895Y-68605432D01*
X136080443Y-68829543D01*
X136030134Y-68946923D01*
X135988799Y-68846636D01*
X135838491Y-68620404D01*
X135647104Y-68427676D01*
X135421927Y-68275792D01*
X135171537Y-68170538D01*
X134905472Y-68115923D01*
X134633867Y-68114027D01*
X134367065Y-68164922D01*
X134115230Y-68266670D01*
X133887955Y-68415395D01*
X133693895Y-68605432D01*
X133540443Y-68829543D01*
X133433444Y-69079192D01*
X133376972Y-69344869D01*
X133373180Y-69616455D01*
X133422211Y-69883605D01*
X133522198Y-70136144D01*
X133669333Y-70364452D01*
X133858011Y-70559834D01*
X134081045Y-70714847D01*
X134329941Y-70823586D01*
X134595217Y-70881911D01*
X134866770Y-70887599D01*
X135134256Y-70840434D01*
X135387487Y-70742213D01*
X135616817Y-70596675D01*
X135813511Y-70409366D01*
X135970077Y-70187419D01*
X136029583Y-70053767D01*
X136062198Y-70136144D01*
X136209333Y-70364452D01*
X136398011Y-70559834D01*
X136621045Y-70714847D01*
X136869941Y-70823586D01*
X137135217Y-70881911D01*
X137406770Y-70887599D01*
X137674256Y-70840434D01*
X137927487Y-70742213D01*
X138156817Y-70596675D01*
X138353511Y-70409366D01*
X138510077Y-70187419D01*
X138569583Y-70053767D01*
X138602198Y-70136144D01*
X138749333Y-70364452D01*
X138938011Y-70559834D01*
X139080000Y-70658519D01*
X139080000Y-70751928D01*
X138981537Y-70710538D01*
X138715472Y-70655923D01*
X138443867Y-70654027D01*
X138177065Y-70704922D01*
X137925230Y-70806670D01*
X137697955Y-70955395D01*
X137503895Y-71145432D01*
X137350443Y-71369543D01*
X137300134Y-71486923D01*
X137258799Y-71386636D01*
X137108491Y-71160404D01*
X136917104Y-70967676D01*
X136691927Y-70815792D01*
X136441537Y-70710538D01*
X136175472Y-70655923D01*
X135903867Y-70654027D01*
X135637065Y-70704922D01*
X135385230Y-70806670D01*
X135157955Y-70955395D01*
X134963895Y-71145432D01*
X134810443Y-71369543D01*
X134760134Y-71486923D01*
X134718799Y-71386636D01*
X134568491Y-71160404D01*
X134377104Y-70967676D01*
X134151927Y-70815792D01*
X133901537Y-70710538D01*
X133635472Y-70655923D01*
X133363867Y-70654027D01*
X133097065Y-70704922D01*
X132845230Y-70806670D01*
X132617955Y-70955395D01*
X132423895Y-71145432D01*
X132270443Y-71369543D01*
X132163444Y-71619192D01*
X132106972Y-71884869D01*
X132103180Y-72156455D01*
X132148797Y-72405001D01*
X130834999Y-72405001D01*
X130765118Y-72411853D01*
X130695196Y-72417970D01*
X130691358Y-72419085D01*
X130687381Y-72419475D01*
X130620211Y-72439755D01*
X130552760Y-72459351D01*
X130549209Y-72461192D01*
X130545386Y-72462346D01*
X130483425Y-72495291D01*
X130421074Y-72527611D01*
X130417951Y-72530104D01*
X130414421Y-72531981D01*
X130360012Y-72576356D01*
X130305153Y-72620149D01*
X130299593Y-72625632D01*
X130299477Y-72625727D01*
X130299388Y-72625835D01*
X130297598Y-72627600D01*
X122048128Y-80877070D01*
X121934733Y-80898701D01*
X121764722Y-80967390D01*
X121611291Y-81067793D01*
X121480283Y-81196086D01*
X121376689Y-81347381D01*
X121304454Y-81515916D01*
X121266331Y-81695272D01*
X121263771Y-81878617D01*
X121296872Y-82058968D01*
X121364372Y-82229454D01*
X121463701Y-82383583D01*
X121591076Y-82515484D01*
X121741644Y-82620131D01*
X121909671Y-82693540D01*
X122088757Y-82732915D01*
X122272079Y-82736755D01*
X122452657Y-82704914D01*
X122517782Y-82679654D01*
X122587957Y-82728427D01*
X122755984Y-82801836D01*
X122935070Y-82841211D01*
X123118392Y-82845051D01*
X123298970Y-82813210D01*
X123469923Y-82746902D01*
X123624742Y-82648651D01*
X123665329Y-82610000D01*
X124185780Y-82610000D01*
X124191076Y-82615484D01*
X124341644Y-82720131D01*
X124509671Y-82793540D01*
X124688757Y-82832915D01*
X124872079Y-82836755D01*
X125052657Y-82804914D01*
X125223610Y-82738606D01*
X125378429Y-82640355D01*
X125511215Y-82513904D01*
X125616911Y-82364070D01*
X125691492Y-82196560D01*
X125732116Y-82017754D01*
X125735040Y-81808319D01*
X125699425Y-81628448D01*
X125629550Y-81458920D01*
X125528079Y-81306193D01*
X125398875Y-81176084D01*
X125246860Y-81073549D01*
X125077825Y-81002493D01*
X124898207Y-80965623D01*
X124714849Y-80964343D01*
X124534733Y-80998701D01*
X124364722Y-81067390D01*
X124211291Y-81167793D01*
X124188614Y-81190000D01*
X123884802Y-81190000D01*
X131149801Y-73925001D01*
X137275199Y-73925001D01*
X122960199Y-88240001D01*
X122499999Y-88240001D01*
X122430118Y-88246853D01*
X122360196Y-88252970D01*
X122356358Y-88254085D01*
X122352381Y-88254475D01*
X122285211Y-88274755D01*
X122217760Y-88294351D01*
X122214209Y-88296192D01*
X122210386Y-88297346D01*
X122160000Y-88324137D01*
X122160000Y-83940000D01*
X122153148Y-83870119D01*
X122147031Y-83800197D01*
X122145916Y-83796359D01*
X122145526Y-83792382D01*
X122125246Y-83725212D01*
X122105650Y-83657761D01*
X122103809Y-83654210D01*
X122102655Y-83650387D01*
X122069710Y-83588426D01*
X122037390Y-83526075D01*
X122034897Y-83522952D01*
X122033020Y-83519422D01*
X121988645Y-83465013D01*
X121944852Y-83410154D01*
X121939369Y-83404594D01*
X121939274Y-83404478D01*
X121939166Y-83404389D01*
X121937401Y-83402599D01*
X115058675Y-76523873D01*
X115335623Y-76496718D01*
X115613075Y-76412951D01*
X115868971Y-76276888D01*
X116093567Y-76093713D01*
X116278306Y-75870401D01*
X116416152Y-75615461D01*
X116501854Y-75338601D01*
X116532149Y-75050367D01*
X116505882Y-74761739D01*
X116424053Y-74483709D01*
X116289780Y-74226869D01*
X116108177Y-74001000D01*
X115886161Y-73814706D01*
X115805753Y-73770502D01*
X115868971Y-73736888D01*
X116093567Y-73553713D01*
X116278306Y-73330401D01*
X116416152Y-73075461D01*
X116501854Y-72798601D01*
X116532149Y-72510367D01*
X116505882Y-72221739D01*
X116424053Y-71943709D01*
X116289780Y-71686869D01*
X116108177Y-71461000D01*
X115886161Y-71274706D01*
X115800111Y-71227400D01*
X115921355Y-71155178D01*
X116137588Y-70960269D01*
X116311641Y-70726920D01*
X116436825Y-70464099D01*
X116481476Y-70316890D01*
X116360155Y-70087000D01*
X115167000Y-70087000D01*
X115167000Y-70107000D01*
X114913000Y-70107000D01*
X114913000Y-70087000D01*
X114893000Y-70087000D01*
X114893000Y-69833000D01*
X114913000Y-69833000D01*
X114913000Y-68639186D01*
X115167000Y-68639186D01*
X115167000Y-69833000D01*
X116360155Y-69833000D01*
X116481476Y-69603110D01*
X116436825Y-69455901D01*
X116311641Y-69193080D01*
X116137588Y-68959731D01*
X115921355Y-68764822D01*
X115671252Y-68615843D01*
X115396891Y-68518519D01*
X115167000Y-68639186D01*
X114913000Y-68639186D01*
X114683109Y-68518519D01*
X114408748Y-68615843D01*
X114158645Y-68764822D01*
X113959905Y-68943963D01*
X113926894Y-68837366D01*
X113828100Y-68687441D01*
X113691450Y-68570975D01*
X113527763Y-68497190D01*
X113350000Y-68471928D01*
X111650000Y-68471928D01*
X111548879Y-68479992D01*
X111377366Y-68533106D01*
X111227441Y-68631900D01*
X111110975Y-68768550D01*
X111037190Y-68932237D01*
X111011928Y-69110000D01*
X111011928Y-70810000D01*
X111019992Y-70911121D01*
X111073106Y-71082634D01*
X111171900Y-71232559D01*
X111308550Y-71349025D01*
X111472237Y-71422810D01*
X111474776Y-71423171D01*
X111446433Y-71446287D01*
X111261694Y-71669599D01*
X111123848Y-71924539D01*
X111038146Y-72201399D01*
X111007851Y-72489633D01*
X111034118Y-72778261D01*
X111059772Y-72865426D01*
X110737598Y-73187600D01*
X110693031Y-73241856D01*
X110647913Y-73295626D01*
X110645988Y-73299127D01*
X110643451Y-73302216D01*
X110610286Y-73364068D01*
X110576456Y-73425605D01*
X110575247Y-73429417D01*
X110573360Y-73432936D01*
X110552847Y-73500032D01*
X110531607Y-73566988D01*
X110531161Y-73570960D01*
X110529993Y-73574782D01*
X110522896Y-73644650D01*
X110515073Y-73714390D01*
X110515019Y-73722195D01*
X110515003Y-73722348D01*
X110515017Y-73722491D01*
X110514999Y-73725001D01*
X110514999Y-75628001D01*
X110521850Y-75697878D01*
X110527968Y-75767804D01*
X110529083Y-75771642D01*
X110529473Y-75775619D01*
X110549763Y-75842822D01*
X110569350Y-75910241D01*
X110571189Y-75913789D01*
X110572344Y-75917614D01*
X110605298Y-75979592D01*
X110637609Y-76041926D01*
X110640102Y-76045049D01*
X110641979Y-76048579D01*
X110686354Y-76102988D01*
X110730147Y-76157847D01*
X110735630Y-76163407D01*
X110735725Y-76163523D01*
X110735833Y-76163612D01*
X110737598Y-76165402D01*
X114228669Y-79656473D01*
X110994529Y-79656473D01*
X110948370Y-79665158D01*
X110905976Y-79692438D01*
X110877535Y-79734063D01*
X110867529Y-79783473D01*
X110867529Y-90783473D01*
X110876214Y-90829632D01*
X110903494Y-90872026D01*
X110945119Y-90900467D01*
X110994529Y-90910473D01*
X117694529Y-90910473D01*
X117740688Y-90901788D01*
X117783082Y-90874508D01*
X117811523Y-90832883D01*
X117821529Y-90783473D01*
X117821529Y-88883473D01*
X117812844Y-88837314D01*
X117785564Y-88794920D01*
X117743939Y-88766479D01*
X117694529Y-88756473D01*
X115721529Y-88756473D01*
X115721529Y-81149333D01*
X115940000Y-81367804D01*
X115940000Y-83254918D01*
X115876689Y-83347381D01*
X115804454Y-83515916D01*
X115766331Y-83695272D01*
X115763771Y-83878617D01*
X115796872Y-84058968D01*
X115864372Y-84229454D01*
X115963701Y-84383583D01*
X116091076Y-84515484D01*
X116241644Y-84620131D01*
X116409671Y-84693540D01*
X116588757Y-84732915D01*
X116772079Y-84736755D01*
X116952657Y-84704914D01*
X117123610Y-84638606D01*
X117278429Y-84540355D01*
X117411215Y-84413904D01*
X117516911Y-84264070D01*
X117591492Y-84096560D01*
X117632116Y-83917754D01*
X117635040Y-83708319D01*
X117599425Y-83528448D01*
X117529550Y-83358920D01*
X117460000Y-83254238D01*
X117460000Y-81074802D01*
X120640000Y-84254802D01*
X120640000Y-89854918D01*
X120576689Y-89947381D01*
X120504454Y-90115916D01*
X120466331Y-90295272D01*
X120463771Y-90478617D01*
X120496872Y-90658968D01*
X120564372Y-90829454D01*
X120663701Y-90983583D01*
X120791076Y-91115484D01*
X120941644Y-91220131D01*
X121109671Y-91293540D01*
X121288757Y-91332915D01*
X121472079Y-91336755D01*
X121652657Y-91304914D01*
X121823610Y-91238606D01*
X121978429Y-91140355D01*
X122111215Y-91013904D01*
X122216911Y-90864070D01*
X122291492Y-90696560D01*
X122332116Y-90517754D01*
X122335040Y-90308319D01*
X122319224Y-90228442D01*
X122452657Y-90204914D01*
X122623610Y-90138606D01*
X122778429Y-90040355D01*
X122911215Y-89913904D01*
X123016911Y-89764070D01*
X123018723Y-89760001D01*
X123275001Y-89760001D01*
X123344878Y-89753150D01*
X123414804Y-89747032D01*
X123418642Y-89745917D01*
X123422619Y-89745527D01*
X123489822Y-89725237D01*
X123557241Y-89705650D01*
X123560789Y-89703811D01*
X123564614Y-89702656D01*
X123626592Y-89669702D01*
X123688926Y-89637391D01*
X123692049Y-89634898D01*
X123695579Y-89633021D01*
X123749988Y-89588646D01*
X123804847Y-89544853D01*
X123810407Y-89539370D01*
X123810523Y-89539275D01*
X123810612Y-89539167D01*
X123812402Y-89537402D01*
X134000000Y-79349804D01*
X134000000Y-102652075D01*
X133887955Y-102725395D01*
X133693895Y-102915432D01*
X133540443Y-103139543D01*
X133433444Y-103389192D01*
X133376972Y-103654869D01*
X133373180Y-103926455D01*
X133422211Y-104193605D01*
X133522198Y-104446144D01*
X133669333Y-104674452D01*
X133858011Y-104869834D01*
X133990517Y-104961928D01*
X132740000Y-104961928D01*
X132638879Y-104969992D01*
X132467366Y-105023106D01*
X132317441Y-105121900D01*
X132200975Y-105258550D01*
X132127190Y-105422237D01*
X132101928Y-105600000D01*
X132101928Y-107100000D01*
X132109992Y-107201121D01*
X132163106Y-107372634D01*
X132261900Y-107522559D01*
X132398550Y-107639025D01*
X132562237Y-107712810D01*
X132740000Y-107738072D01*
X134240000Y-107738072D01*
X134341121Y-107730008D01*
X134512634Y-107676894D01*
X134662559Y-107578100D01*
X134779025Y-107441450D01*
X134852810Y-107277763D01*
X134875814Y-107115890D01*
X134939333Y-107214452D01*
X135128011Y-107409834D01*
X135351045Y-107564847D01*
X135599941Y-107673586D01*
X135865217Y-107731911D01*
X136136770Y-107737599D01*
X136404256Y-107690434D01*
X136657487Y-107592213D01*
X136886817Y-107446675D01*
X137083511Y-107259366D01*
X137240077Y-107037419D01*
X137299583Y-106903767D01*
X137332198Y-106986144D01*
X137479333Y-107214452D01*
X137668011Y-107409834D01*
X137891045Y-107564847D01*
X138139941Y-107673586D01*
X138405217Y-107731911D01*
X138676770Y-107737599D01*
X138944256Y-107690434D01*
X139197487Y-107592213D01*
X139426817Y-107446675D01*
X139623511Y-107259366D01*
X139780077Y-107037419D01*
X139839583Y-106903767D01*
X139872198Y-106986144D01*
X140019333Y-107214452D01*
X140208011Y-107409834D01*
X140431045Y-107564847D01*
X140679941Y-107673586D01*
X140945217Y-107731911D01*
X141216770Y-107737599D01*
X141484256Y-107690434D01*
X141737487Y-107592213D01*
X141966817Y-107446675D01*
X142163511Y-107259366D01*
X142320077Y-107037419D01*
X142430552Y-106789289D01*
X142490727Y-106524426D01*
X142495059Y-106214194D01*
X142442303Y-105947754D01*
X142338799Y-105696636D01*
X142188491Y-105470404D01*
X142080213Y-105361367D01*
X142248962Y-105192618D01*
X142486770Y-105197599D01*
X142512965Y-105192980D01*
X142567401Y-105237695D01*
X142630003Y-105290224D01*
X142634080Y-105292465D01*
X142637677Y-105295420D01*
X142709707Y-105334042D01*
X142781360Y-105373434D01*
X142785799Y-105374842D01*
X142789898Y-105377040D01*
X142868025Y-105400926D01*
X142945997Y-105425660D01*
X142950625Y-105426179D01*
X142955073Y-105427539D01*
X143036383Y-105435798D01*
X143117642Y-105444913D01*
X143126736Y-105444976D01*
X143126910Y-105444994D01*
X143127073Y-105444979D01*
X143129999Y-105444999D01*
X153240001Y-105444999D01*
X153321357Y-105437022D01*
X153402797Y-105429897D01*
X153407268Y-105428598D01*
X153411898Y-105428144D01*
X153490132Y-105404524D01*
X153568661Y-105381709D01*
X153572794Y-105379567D01*
X153577248Y-105378222D01*
X153649389Y-105339864D01*
X153722007Y-105302223D01*
X153725647Y-105299317D01*
X153729753Y-105297134D01*
X153793072Y-105245492D01*
X153856992Y-105194465D01*
X153863475Y-105188072D01*
X153863602Y-105187969D01*
X153863699Y-105187852D01*
X153865791Y-105185789D01*
X154933507Y-104118072D01*
X156306492Y-104118072D01*
X170114210Y-117925789D01*
X170177397Y-117977691D01*
X170240004Y-118030225D01*
X170244081Y-118032466D01*
X170247678Y-118035421D01*
X170319708Y-118074043D01*
X170391361Y-118113435D01*
X170395800Y-118114843D01*
X170399899Y-118117041D01*
X170478026Y-118140927D01*
X170555998Y-118165661D01*
X170560626Y-118166180D01*
X170565074Y-118167540D01*
X170646339Y-118175794D01*
X170727643Y-118184914D01*
X170736747Y-118184977D01*
X170736911Y-118184994D01*
X170737064Y-118184980D01*
X170740000Y-118185000D01*
X172115000Y-118185000D01*
X172115000Y-119733421D01*
X169733420Y-122115000D01*
X128407578Y-122115000D01*
X128377825Y-122102493D01*
X128198207Y-122065623D01*
X128014849Y-122064343D01*
X127834733Y-122098701D01*
X127794392Y-122115000D01*
X104266579Y-122115000D01*
X103885000Y-121733420D01*
X103885000Y-112906844D01*
X129536766Y-112906844D01*
X129623854Y-113381349D01*
X129801449Y-113829902D01*
X130062786Y-114235417D01*
X130397910Y-114582449D01*
X130794058Y-114857779D01*
X131236140Y-115050919D01*
X131707317Y-115154514D01*
X132189642Y-115164618D01*
X132664744Y-115080844D01*
X133114526Y-114906386D01*
X133521855Y-114647886D01*
X133871218Y-114315192D01*
X134149307Y-113920976D01*
X134345529Y-113480254D01*
X134452411Y-113009812D01*
X134453848Y-112906844D01*
X141406766Y-112906844D01*
X141493854Y-113381349D01*
X141671449Y-113829902D01*
X141932786Y-114235417D01*
X142267910Y-114582449D01*
X142664058Y-114857779D01*
X143106140Y-115050919D01*
X143577317Y-115154514D01*
X144059642Y-115164618D01*
X144534744Y-115080844D01*
X144984526Y-114906386D01*
X145391855Y-114647886D01*
X145741218Y-114315192D01*
X146019307Y-113920976D01*
X146215529Y-113480254D01*
X146322411Y-113009812D01*
X146330106Y-112458785D01*
X146236401Y-111985541D01*
X146052561Y-111539512D01*
X145785588Y-111137685D01*
X145445650Y-110795366D01*
X145045697Y-110525594D01*
X144600962Y-110338645D01*
X144128384Y-110241638D01*
X143645965Y-110238270D01*
X143172079Y-110328669D01*
X142724777Y-110509391D01*
X142321096Y-110773552D01*
X141976412Y-111111091D01*
X141703855Y-111509152D01*
X141513805Y-111952571D01*
X141413502Y-112424460D01*
X141406766Y-112906844D01*
X134453848Y-112906844D01*
X134460106Y-112458785D01*
X134366401Y-111985541D01*
X134182561Y-111539512D01*
X133915588Y-111137685D01*
X133575650Y-110795366D01*
X133175697Y-110525594D01*
X132730962Y-110338645D01*
X132258384Y-110241638D01*
X131775965Y-110238270D01*
X131302079Y-110328669D01*
X130854777Y-110509391D01*
X130451096Y-110773552D01*
X130106412Y-111111091D01*
X129833855Y-111509152D01*
X129643805Y-111952571D01*
X129543502Y-112424460D01*
X129536766Y-112906844D01*
X103885000Y-112906844D01*
X103885000Y-110285750D01*
X113175000Y-110285750D01*
X113175000Y-110912542D01*
X113199403Y-111035223D01*
X113247270Y-111150785D01*
X113316763Y-111254789D01*
X113405211Y-111343237D01*
X113509215Y-111412730D01*
X113624777Y-111460597D01*
X113747458Y-111485000D01*
X114374250Y-111485000D01*
X114533000Y-111326250D01*
X114533000Y-110127000D01*
X113333750Y-110127000D01*
X113175000Y-110285750D01*
X103885000Y-110285750D01*
X103885000Y-109087458D01*
X113175000Y-109087458D01*
X113175000Y-109714250D01*
X113333750Y-109873000D01*
X114533000Y-109873000D01*
X114533000Y-108673750D01*
X114787000Y-108673750D01*
X114787000Y-109873000D01*
X114807000Y-109873000D01*
X114807000Y-110127000D01*
X114787000Y-110127000D01*
X114787000Y-111326250D01*
X114945750Y-111485000D01*
X115572542Y-111485000D01*
X115695223Y-111460597D01*
X115810785Y-111412730D01*
X115914789Y-111343237D01*
X116003237Y-111254789D01*
X116072730Y-111150785D01*
X116120597Y-111035223D01*
X116122701Y-111024647D01*
X116146287Y-111053567D01*
X116369599Y-111238306D01*
X116624539Y-111376152D01*
X116901399Y-111461854D01*
X117189633Y-111492149D01*
X117478261Y-111465882D01*
X117756291Y-111384053D01*
X118013131Y-111249780D01*
X118239000Y-111068177D01*
X118425294Y-110846161D01*
X118469498Y-110765753D01*
X118503112Y-110828971D01*
X118686287Y-111053567D01*
X118909599Y-111238306D01*
X119164539Y-111376152D01*
X119441399Y-111461854D01*
X119729633Y-111492149D01*
X120018261Y-111465882D01*
X120296291Y-111384053D01*
X120553131Y-111249780D01*
X120779000Y-111068177D01*
X120965294Y-110846161D01*
X121009498Y-110765753D01*
X121043112Y-110828971D01*
X121226287Y-111053567D01*
X121449599Y-111238306D01*
X121704539Y-111376152D01*
X121981399Y-111461854D01*
X122269633Y-111492149D01*
X122558261Y-111465882D01*
X122836291Y-111384053D01*
X123093131Y-111249780D01*
X123319000Y-111068177D01*
X123505294Y-110846161D01*
X123549498Y-110765753D01*
X123583112Y-110828971D01*
X123766287Y-111053567D01*
X123989599Y-111238306D01*
X124244539Y-111376152D01*
X124521399Y-111461854D01*
X124809633Y-111492149D01*
X125098261Y-111465882D01*
X125376291Y-111384053D01*
X125633131Y-111249780D01*
X125859000Y-111068177D01*
X126045294Y-110846161D01*
X126089498Y-110765753D01*
X126123112Y-110828971D01*
X126306287Y-111053567D01*
X126529599Y-111238306D01*
X126784539Y-111376152D01*
X127061399Y-111461854D01*
X127349633Y-111492149D01*
X127638261Y-111465882D01*
X127916291Y-111384053D01*
X128173131Y-111249780D01*
X128399000Y-111068177D01*
X128585294Y-110846161D01*
X128724916Y-110592189D01*
X128812549Y-110315934D01*
X128844855Y-110027919D01*
X128845000Y-110007185D01*
X128845000Y-109992815D01*
X128816718Y-109704377D01*
X128732951Y-109426925D01*
X128596888Y-109171029D01*
X128413713Y-108946433D01*
X128190401Y-108761694D01*
X127935461Y-108623848D01*
X127658601Y-108538146D01*
X127370367Y-108507851D01*
X127081739Y-108534118D01*
X126803709Y-108615947D01*
X126546869Y-108750220D01*
X126321000Y-108931823D01*
X126134706Y-109153839D01*
X126090502Y-109234247D01*
X126056888Y-109171029D01*
X125873713Y-108946433D01*
X125650401Y-108761694D01*
X125395461Y-108623848D01*
X125118601Y-108538146D01*
X124830367Y-108507851D01*
X124541739Y-108534118D01*
X124263709Y-108615947D01*
X124006869Y-108750220D01*
X123781000Y-108931823D01*
X123594706Y-109153839D01*
X123550502Y-109234247D01*
X123516888Y-109171029D01*
X123333713Y-108946433D01*
X123110401Y-108761694D01*
X123040000Y-108723628D01*
X123040000Y-96634802D01*
X125452169Y-94222633D01*
X125552657Y-94204914D01*
X125723610Y-94138606D01*
X125878429Y-94040355D01*
X126011215Y-93913904D01*
X126116911Y-93764070D01*
X126191492Y-93596560D01*
X126232116Y-93417754D01*
X126235040Y-93208319D01*
X126199425Y-93028448D01*
X126129550Y-92858920D01*
X126028079Y-92706193D01*
X125898875Y-92576084D01*
X125746860Y-92473549D01*
X125577825Y-92402493D01*
X125398207Y-92365623D01*
X125214849Y-92364343D01*
X125034733Y-92398701D01*
X125012205Y-92407803D01*
X124928079Y-92281182D01*
X124798875Y-92151073D01*
X124646860Y-92048538D01*
X124477825Y-91977482D01*
X124298207Y-91940612D01*
X124114849Y-91939332D01*
X123934733Y-91973690D01*
X123764722Y-92042379D01*
X123611291Y-92142782D01*
X123480283Y-92271075D01*
X123376689Y-92422370D01*
X123304454Y-92590905D01*
X123266331Y-92770261D01*
X123263771Y-92953606D01*
X123296872Y-93133957D01*
X123341770Y-93247357D01*
X121566485Y-95022642D01*
X121453090Y-95044273D01*
X121283079Y-95112962D01*
X121129648Y-95213365D01*
X120998640Y-95341658D01*
X120895046Y-95492953D01*
X120822811Y-95661488D01*
X120794515Y-95794612D01*
X119202599Y-97386528D01*
X119158032Y-97440784D01*
X119112914Y-97494554D01*
X119110989Y-97498055D01*
X119108452Y-97501144D01*
X119075287Y-97562996D01*
X119041457Y-97624533D01*
X119040248Y-97628345D01*
X119038361Y-97631864D01*
X119017848Y-97698960D01*
X118996608Y-97765916D01*
X118996162Y-97769888D01*
X118994994Y-97773710D01*
X118987897Y-97843578D01*
X118980074Y-97913318D01*
X118980020Y-97921123D01*
X118980004Y-97921276D01*
X118980018Y-97921419D01*
X118980000Y-97923929D01*
X118980000Y-108722444D01*
X118926869Y-108750220D01*
X118701000Y-108931823D01*
X118514706Y-109153839D01*
X118470502Y-109234247D01*
X118436888Y-109171029D01*
X118253713Y-108946433D01*
X118030401Y-108761694D01*
X117775461Y-108623848D01*
X117498601Y-108538146D01*
X117210367Y-108507851D01*
X116921739Y-108534118D01*
X116643709Y-108615947D01*
X116386869Y-108750220D01*
X116161000Y-108931823D01*
X116123041Y-108977061D01*
X116120597Y-108964777D01*
X116072730Y-108849215D01*
X116003237Y-108745211D01*
X115914789Y-108656763D01*
X115810785Y-108587270D01*
X115695223Y-108539403D01*
X115572542Y-108515000D01*
X114945750Y-108515000D01*
X114787000Y-108673750D01*
X114533000Y-108673750D01*
X114374250Y-108515000D01*
X113747458Y-108515000D01*
X113624777Y-108539403D01*
X113509215Y-108587270D01*
X113405211Y-108656763D01*
X113316763Y-108745211D01*
X113247270Y-108849215D01*
X113199403Y-108964777D01*
X113175000Y-109087458D01*
X103885000Y-109087458D01*
X103885000Y-108011141D01*
X103891492Y-107996560D01*
X103932116Y-107817754D01*
X103935040Y-107608319D01*
X103899425Y-107428448D01*
X103885000Y-107393451D01*
X103885000Y-99262927D01*
X107868890Y-99262927D01*
X107979591Y-99866088D01*
X108205338Y-100436261D01*
X108537533Y-100951727D01*
X108963523Y-101392852D01*
X109467082Y-101742835D01*
X110029028Y-101988343D01*
X110627959Y-102120027D01*
X111241061Y-102132869D01*
X111844981Y-102026382D01*
X112416716Y-101804621D01*
X112934488Y-101476032D01*
X113378577Y-101053132D01*
X113732066Y-100552030D01*
X113981492Y-99991810D01*
X114117353Y-99393813D01*
X114127134Y-98693382D01*
X114008022Y-98091825D01*
X113774336Y-97524859D01*
X113434976Y-97014082D01*
X113002869Y-96578947D01*
X112494473Y-96236030D01*
X111929153Y-95998391D01*
X111328442Y-95875083D01*
X110715221Y-95870802D01*
X110112846Y-95985711D01*
X109544264Y-96215433D01*
X109031129Y-96551219D01*
X108592989Y-96980278D01*
X108246530Y-97486267D01*
X108004951Y-98049914D01*
X107877452Y-98649750D01*
X107868890Y-99262927D01*
X103885000Y-99262927D01*
X103885000Y-63356844D01*
X129536766Y-63356844D01*
X129623854Y-63831349D01*
X129801449Y-64279902D01*
X130062786Y-64685417D01*
X130397910Y-65032449D01*
X130794058Y-65307779D01*
X131236140Y-65500919D01*
X131707317Y-65604514D01*
X132189642Y-65614618D01*
X132664744Y-65530844D01*
X133114526Y-65356386D01*
X133521855Y-65097886D01*
X133871218Y-64765192D01*
X134149307Y-64370976D01*
X134345529Y-63930254D01*
X134452411Y-63459812D01*
X134453848Y-63356844D01*
X141406766Y-63356844D01*
X141493854Y-63831349D01*
X141671449Y-64279902D01*
X141932786Y-64685417D01*
X142267910Y-65032449D01*
X142664058Y-65307779D01*
X143106140Y-65500919D01*
X143577317Y-65604514D01*
X144059642Y-65614618D01*
X144534744Y-65530844D01*
X144984526Y-65356386D01*
X145391855Y-65097886D01*
X145741218Y-64765192D01*
X146019307Y-64370976D01*
X146215529Y-63930254D01*
X146322411Y-63459812D01*
X146330106Y-62908785D01*
X146236401Y-62435541D01*
X146052561Y-61989512D01*
X145785588Y-61587685D01*
X145445650Y-61245366D01*
X145045697Y-60975594D01*
X144600962Y-60788645D01*
X144128384Y-60691638D01*
X143645965Y-60688270D01*
X143172079Y-60778669D01*
X142724777Y-60959391D01*
X142321096Y-61223552D01*
X141976412Y-61561091D01*
X141703855Y-61959152D01*
X141513805Y-62402571D01*
X141413502Y-62874460D01*
X141406766Y-63356844D01*
X134453848Y-63356844D01*
X134460106Y-62908785D01*
X134366401Y-62435541D01*
X134182561Y-61989512D01*
X133915588Y-61587685D01*
X133575650Y-61245366D01*
X133175697Y-60975594D01*
X132730962Y-60788645D01*
X132258384Y-60691638D01*
X131775965Y-60688270D01*
X131302079Y-60778669D01*
X130854777Y-60959391D01*
X130451096Y-61223552D01*
X130106412Y-61561091D01*
X129833855Y-61959152D01*
X129643805Y-62402571D01*
X129543502Y-62874460D01*
X129536766Y-63356844D01*
X103885000Y-63356844D01*
X103885000Y-62911141D01*
X103891492Y-62896560D01*
X103932116Y-62717754D01*
X103935040Y-62508319D01*
X103899425Y-62328448D01*
X103829550Y-62158920D01*
X103728079Y-62006193D01*
X103598875Y-61876084D01*
X103446860Y-61773549D01*
X103277825Y-61702493D01*
X103098207Y-61665623D01*
X102914849Y-61664343D01*
X102734733Y-61698701D01*
X102564722Y-61767390D01*
X102411291Y-61867793D01*
X102280283Y-61996086D01*
X102176689Y-62147381D01*
X102104454Y-62315916D01*
X102066331Y-62495272D01*
X102063771Y-62678617D01*
X100685000Y-62678617D01*
X100685000Y-50685000D01*
X175315000Y-50685000D01*
X175315000Y-125315000D01*
M02*
