G04 #@! TF.FileFunction,Copper,L2,Bot,Signal*
%FSLAX46Y46*%
G04 Gerber Fmt 4.6, Leading zero omitted, Abs format (unit mm)*
G04 Created by KiCad (PCBNEW 4.0.6) date Sunday, May 14, 2017 'PMt' 08:11:31 PM*
%MOMM*%
%LPD*%
G01*
G04 APERTURE LIST*
%ADD10C,0.100000*%
%ADD11C,3.650000*%
%ADD12R,1.500000X1.500000*%
%ADD13C,1.500000*%
%ADD14O,2.000000X2.600000*%
%ADD15R,1.700000X1.700000*%
%ADD16O,1.700000X1.700000*%
%ADD17R,2.600000X2.600000*%
%ADD18C,2.600000*%
%ADD19C,0.600000*%
%ADD20C,0.800000*%
%ADD21C,0.500000*%
%ADD22C,0.250000*%
%ADD23C,0.254000*%
G04 APERTURE END LIST*
D10*
D11*
X143840000Y-117850000D03*
X131970000Y-117850000D03*
D12*
X133460000Y-111500000D03*
D13*
X134730000Y-108960000D03*
X136000000Y-111500000D03*
X137270000Y-108960000D03*
X138540000Y-111500000D03*
X139810000Y-108960000D03*
X141080000Y-111500000D03*
X142350000Y-108960000D03*
D11*
X131950000Y-58150000D03*
X143820000Y-58150000D03*
D12*
X142330000Y-64500000D03*
D13*
X141060000Y-67040000D03*
X139790000Y-64500000D03*
X138520000Y-67040000D03*
X137250000Y-64500000D03*
X135980000Y-67040000D03*
X134710000Y-64500000D03*
X133440000Y-67040000D03*
D14*
X112100000Y-83500000D03*
D15*
X112500000Y-69960000D03*
D16*
X115040000Y-69960000D03*
X112500000Y-72500000D03*
X115040000Y-72500000D03*
X112500000Y-75040000D03*
X115040000Y-75040000D03*
D15*
X114660000Y-110000000D03*
D16*
X117200000Y-110000000D03*
X119740000Y-110000000D03*
X122280000Y-110000000D03*
X124820000Y-110000000D03*
X127360000Y-110000000D03*
D17*
X155520000Y-99980000D03*
D18*
X159480000Y-99980000D03*
D19*
X127100000Y-87683473D03*
X157900000Y-92950000D03*
X117800000Y-86900000D03*
X127100000Y-101500000D03*
D20*
X174100000Y-100100000D03*
X173750000Y-112500000D03*
X139200000Y-59300000D03*
X174100000Y-74100000D03*
X101900000Y-62930000D03*
X130450000Y-124350000D03*
X149750000Y-53750000D03*
X101900000Y-100500000D03*
D19*
X139900000Y-75500000D03*
X122200000Y-81800000D03*
X122200000Y-89300000D03*
X121718357Y-95945572D03*
X124200000Y-92874989D03*
X125300000Y-93300000D03*
D20*
X162250000Y-83000000D03*
X171500000Y-66750000D03*
X104250000Y-112500000D03*
X150800000Y-117000000D03*
D19*
X121400000Y-90400000D03*
X119000000Y-80500000D03*
X116700000Y-83800000D03*
D21*
X174100000Y-100100000D02*
X174100000Y-74100000D01*
X174100000Y-112100000D02*
X174100000Y-100100000D01*
X101900000Y-62930000D02*
X101900000Y-60500000D01*
X101900000Y-64100000D02*
X101900000Y-62930000D01*
X173750000Y-112500000D02*
X173750000Y-112450000D01*
X173750000Y-112450000D02*
X174100000Y-112100000D01*
X130450000Y-124350000D02*
X170700000Y-124350000D01*
X170700000Y-124350000D02*
X172400000Y-122650000D01*
X172400000Y-122650000D02*
X172400000Y-113800000D01*
X172400000Y-113800000D02*
X172450000Y-113800000D01*
X172450000Y-113800000D02*
X173750000Y-112500000D01*
X129500000Y-124350000D02*
X130450000Y-124350000D01*
X139200000Y-59300000D02*
X135960001Y-62539999D01*
X135960001Y-62539999D02*
X135960001Y-63249999D01*
X144778998Y-53750000D02*
X149184315Y-53750000D01*
X149184315Y-53750000D02*
X149750000Y-53750000D01*
X133440000Y-67040000D02*
X133440000Y-65770000D01*
X133440000Y-65770000D02*
X134710000Y-64500000D01*
X159480000Y-99980000D02*
X144000000Y-84500000D01*
X144000000Y-84500000D02*
X144000000Y-63769998D01*
X144000000Y-63769998D02*
X143480001Y-63249999D01*
X143480001Y-63249999D02*
X135960001Y-63249999D01*
X135960001Y-63249999D02*
X135459999Y-63750001D01*
X135459999Y-63750001D02*
X134710000Y-64500000D01*
X101900000Y-109200000D02*
X101900000Y-100500000D01*
X101900000Y-100500000D02*
X101900000Y-64100000D01*
X174100000Y-58950000D02*
X168900000Y-53750000D01*
X168900000Y-53750000D02*
X146250000Y-53750000D01*
X174100000Y-74100000D02*
X174100000Y-58950000D01*
X101900000Y-60500000D02*
X108650000Y-53750000D01*
X108650000Y-53750000D02*
X146250000Y-53750000D01*
X104700000Y-124350000D02*
X101900000Y-121550000D01*
X101900000Y-121550000D02*
X101900000Y-109200000D01*
X129500000Y-124350000D02*
X104700000Y-124350000D01*
D22*
X133460000Y-111500000D02*
X133855002Y-111500000D01*
X133855002Y-111500000D02*
X135885001Y-109470001D01*
X135885001Y-78515995D02*
X139575998Y-74824998D01*
X140825002Y-74824998D02*
X142330000Y-73320000D01*
X135885001Y-109470001D02*
X135885001Y-78515995D01*
X139575998Y-74824998D02*
X140825002Y-74824998D01*
X142330000Y-73320000D02*
X142330000Y-64500000D01*
X134730000Y-108960000D02*
X134730000Y-78330000D01*
X134730000Y-78330000D02*
X141060000Y-72000000D01*
X141060000Y-72000000D02*
X141060000Y-67040000D01*
X138520000Y-67040000D02*
X123760000Y-81800000D01*
X123760000Y-81800000D02*
X122200000Y-81800000D01*
X139900000Y-75500000D02*
X137270000Y-78130000D01*
X137270000Y-78130000D02*
X137270000Y-108960000D01*
X122200000Y-89300000D02*
X139790000Y-71710000D01*
X139790000Y-71710000D02*
X139790000Y-64500000D01*
X119740000Y-110000000D02*
X119740000Y-97923929D01*
X124200000Y-92874989D02*
X124200000Y-93463929D01*
X124200000Y-93463929D02*
X121718357Y-95945572D01*
X119740000Y-97923929D02*
X121718357Y-95945572D01*
X122280000Y-110000000D02*
X122280000Y-96320000D01*
X122280000Y-96320000D02*
X125300000Y-93300000D01*
D21*
X150800000Y-117000000D02*
X149324999Y-115524999D01*
X149324999Y-115524999D02*
X107274999Y-115524999D01*
X107274999Y-115524999D02*
X104649999Y-112899999D01*
X104649999Y-112899999D02*
X104250000Y-112500000D01*
X171500000Y-66750000D02*
X171500000Y-73750000D01*
X171500000Y-73750000D02*
X162250000Y-83000000D01*
D22*
X112500000Y-75040000D02*
X121400000Y-83940000D01*
X121400000Y-83940000D02*
X121400000Y-90400000D01*
X119000000Y-80500000D02*
X119000000Y-76460000D01*
X119000000Y-76460000D02*
X115040000Y-72500000D01*
X116700000Y-83800000D02*
X116700000Y-81053002D01*
X116700000Y-81053002D02*
X111274999Y-75628001D01*
X111274999Y-75628001D02*
X111274999Y-73725001D01*
X111274999Y-73725001D02*
X112500000Y-72500000D01*
D23*
G36*
X149242622Y-54657846D02*
X149428620Y-54739106D01*
X149626859Y-54782692D01*
X149829788Y-54786943D01*
X150029679Y-54751697D01*
X150218916Y-54678296D01*
X150287140Y-54635000D01*
X168533420Y-54635000D01*
X173215000Y-59316579D01*
X173215000Y-73560466D01*
X173188634Y-73598972D01*
X173108674Y-73785533D01*
X173066473Y-73984071D01*
X173063639Y-74187026D01*
X173100280Y-74386665D01*
X173175000Y-74575386D01*
X173215000Y-74637454D01*
X173215000Y-99560466D01*
X173188634Y-99598972D01*
X173108674Y-99785533D01*
X173066473Y-99984071D01*
X173063639Y-100187026D01*
X173100280Y-100386665D01*
X173175000Y-100575386D01*
X173215000Y-100637454D01*
X173215000Y-111613133D01*
X173098327Y-111689482D01*
X172953308Y-111831496D01*
X172838634Y-111998972D01*
X172758674Y-112185533D01*
X172744040Y-112254381D01*
X171964755Y-113033665D01*
X171915407Y-113059464D01*
X171912991Y-113061407D01*
X171910248Y-113062865D01*
X171845667Y-113115536D01*
X171780798Y-113167692D01*
X171778804Y-113170069D01*
X171776399Y-113172030D01*
X171723303Y-113236212D01*
X171669775Y-113300004D01*
X171668281Y-113302722D01*
X171666302Y-113305114D01*
X171626698Y-113378361D01*
X171586565Y-113451361D01*
X171585626Y-113454321D01*
X171584151Y-113457049D01*
X171559540Y-113536556D01*
X171534339Y-113615998D01*
X171533993Y-113619084D01*
X171533076Y-113622046D01*
X171524380Y-113704787D01*
X171515086Y-113787643D01*
X171515044Y-113793608D01*
X171515022Y-113793822D01*
X171515042Y-113794036D01*
X171515000Y-113800000D01*
X171515000Y-122283421D01*
X170333420Y-123465000D01*
X130988895Y-123465000D01*
X130944653Y-123435158D01*
X130757539Y-123356503D01*
X130558710Y-123315689D01*
X130355741Y-123314272D01*
X130156363Y-123352306D01*
X129968168Y-123428341D01*
X129912147Y-123465000D01*
X105066579Y-123465000D01*
X102785000Y-121183420D01*
X102785000Y-112587026D01*
X103213639Y-112587026D01*
X103250280Y-112786665D01*
X103325000Y-112975386D01*
X103434953Y-113145999D01*
X103575950Y-113292006D01*
X103742622Y-113407846D01*
X103928620Y-113489106D01*
X104004129Y-113505708D01*
X104024138Y-113525717D01*
X104024209Y-113525789D01*
X106649210Y-116150789D01*
X106712379Y-116202676D01*
X106775003Y-116255224D01*
X106779083Y-116257467D01*
X106782678Y-116260420D01*
X106854686Y-116299031D01*
X106926360Y-116338434D01*
X106930799Y-116339842D01*
X106934898Y-116342040D01*
X107013025Y-116365926D01*
X107090997Y-116390660D01*
X107095625Y-116391179D01*
X107100073Y-116392539D01*
X107181383Y-116400798D01*
X107262642Y-116409913D01*
X107271736Y-116409976D01*
X107271910Y-116409994D01*
X107272073Y-116409979D01*
X107274999Y-116409999D01*
X129974453Y-116409999D01*
X129803855Y-116659152D01*
X129613805Y-117102571D01*
X129513502Y-117574460D01*
X129506766Y-118056844D01*
X129593854Y-118531349D01*
X129771449Y-118979902D01*
X130032786Y-119385417D01*
X130367910Y-119732449D01*
X130764058Y-120007779D01*
X131206140Y-120200919D01*
X131677317Y-120304514D01*
X132159642Y-120314618D01*
X132634744Y-120230844D01*
X133084526Y-120056386D01*
X133491855Y-119797886D01*
X133841218Y-119465192D01*
X134119307Y-119070976D01*
X134315529Y-118630254D01*
X134422411Y-118159812D01*
X134430106Y-117608785D01*
X134336401Y-117135541D01*
X134152561Y-116689512D01*
X133966853Y-116409999D01*
X141844453Y-116409999D01*
X141673855Y-116659152D01*
X141483805Y-117102571D01*
X141383502Y-117574460D01*
X141376766Y-118056844D01*
X141463854Y-118531349D01*
X141641449Y-118979902D01*
X141902786Y-119385417D01*
X142237910Y-119732449D01*
X142634058Y-120007779D01*
X143076140Y-120200919D01*
X143547317Y-120304514D01*
X144029642Y-120314618D01*
X144504744Y-120230844D01*
X144954526Y-120056386D01*
X145361855Y-119797886D01*
X145711218Y-119465192D01*
X145989307Y-119070976D01*
X146185529Y-118630254D01*
X146292411Y-118159812D01*
X146300106Y-117608785D01*
X146206401Y-117135541D01*
X146022561Y-116689512D01*
X145836853Y-116409999D01*
X148958419Y-116409999D01*
X149792456Y-117244035D01*
X149800280Y-117286665D01*
X149875000Y-117475386D01*
X149984953Y-117645999D01*
X150125950Y-117792006D01*
X150292622Y-117907846D01*
X150478620Y-117989106D01*
X150676859Y-118032692D01*
X150879788Y-118036943D01*
X151079679Y-118001697D01*
X151268916Y-117928296D01*
X151440293Y-117819537D01*
X151587281Y-117679563D01*
X151704282Y-117513703D01*
X151786839Y-117328278D01*
X151831807Y-117130348D01*
X151835044Y-116898513D01*
X151795620Y-116699405D01*
X151718273Y-116511746D01*
X151605948Y-116342684D01*
X151462926Y-116198660D01*
X151294653Y-116085158D01*
X151107539Y-116006503D01*
X151045308Y-115993729D01*
X149950789Y-114899209D01*
X149887573Y-114847283D01*
X149824995Y-114794774D01*
X149820918Y-114792533D01*
X149817321Y-114789578D01*
X149745291Y-114750956D01*
X149673638Y-114711564D01*
X149669199Y-114710156D01*
X149665100Y-114707958D01*
X149586973Y-114684072D01*
X149509001Y-114659338D01*
X149504373Y-114658819D01*
X149499925Y-114657459D01*
X149418660Y-114649205D01*
X149337356Y-114640085D01*
X149328252Y-114640022D01*
X149328088Y-114640005D01*
X149327935Y-114640019D01*
X149324999Y-114639999D01*
X107641578Y-114639999D01*
X105275789Y-112274209D01*
X105275783Y-112274204D01*
X105256640Y-112255061D01*
X105245620Y-112199405D01*
X105168273Y-112011746D01*
X105055948Y-111842684D01*
X104912926Y-111698660D01*
X104744653Y-111585158D01*
X104557539Y-111506503D01*
X104358710Y-111465689D01*
X104155741Y-111464272D01*
X103956363Y-111502306D01*
X103768168Y-111578341D01*
X103598327Y-111689482D01*
X103453308Y-111831496D01*
X103338634Y-111998972D01*
X103258674Y-112185533D01*
X103216473Y-112384071D01*
X103213639Y-112587026D01*
X102785000Y-112587026D01*
X102785000Y-110285750D01*
X113175000Y-110285750D01*
X113175000Y-110912542D01*
X113199403Y-111035223D01*
X113247270Y-111150785D01*
X113316763Y-111254789D01*
X113405211Y-111343237D01*
X113509215Y-111412730D01*
X113624777Y-111460597D01*
X113747458Y-111485000D01*
X114374250Y-111485000D01*
X114533000Y-111326250D01*
X114533000Y-110127000D01*
X113333750Y-110127000D01*
X113175000Y-110285750D01*
X102785000Y-110285750D01*
X102785000Y-109087458D01*
X113175000Y-109087458D01*
X113175000Y-109714250D01*
X113333750Y-109873000D01*
X114533000Y-109873000D01*
X114533000Y-108673750D01*
X114787000Y-108673750D01*
X114787000Y-109873000D01*
X114807000Y-109873000D01*
X114807000Y-110127000D01*
X114787000Y-110127000D01*
X114787000Y-111326250D01*
X114945750Y-111485000D01*
X115572542Y-111485000D01*
X115695223Y-111460597D01*
X115810785Y-111412730D01*
X115914789Y-111343237D01*
X116003237Y-111254789D01*
X116072730Y-111150785D01*
X116120597Y-111035223D01*
X116122701Y-111024647D01*
X116146287Y-111053567D01*
X116369599Y-111238306D01*
X116624539Y-111376152D01*
X116901399Y-111461854D01*
X117189633Y-111492149D01*
X117478261Y-111465882D01*
X117756291Y-111384053D01*
X118013131Y-111249780D01*
X118239000Y-111068177D01*
X118425294Y-110846161D01*
X118469498Y-110765753D01*
X118503112Y-110828971D01*
X118686287Y-111053567D01*
X118909599Y-111238306D01*
X119164539Y-111376152D01*
X119441399Y-111461854D01*
X119729633Y-111492149D01*
X120018261Y-111465882D01*
X120296291Y-111384053D01*
X120553131Y-111249780D01*
X120779000Y-111068177D01*
X120965294Y-110846161D01*
X121009498Y-110765753D01*
X121043112Y-110828971D01*
X121226287Y-111053567D01*
X121449599Y-111238306D01*
X121704539Y-111376152D01*
X121981399Y-111461854D01*
X122269633Y-111492149D01*
X122558261Y-111465882D01*
X122836291Y-111384053D01*
X123093131Y-111249780D01*
X123319000Y-111068177D01*
X123505294Y-110846161D01*
X123549498Y-110765753D01*
X123583112Y-110828971D01*
X123766287Y-111053567D01*
X123989599Y-111238306D01*
X124244539Y-111376152D01*
X124521399Y-111461854D01*
X124809633Y-111492149D01*
X125098261Y-111465882D01*
X125376291Y-111384053D01*
X125633131Y-111249780D01*
X125859000Y-111068177D01*
X126045294Y-110846161D01*
X126089498Y-110765753D01*
X126123112Y-110828971D01*
X126306287Y-111053567D01*
X126529599Y-111238306D01*
X126784539Y-111376152D01*
X127061399Y-111461854D01*
X127349633Y-111492149D01*
X127638261Y-111465882D01*
X127916291Y-111384053D01*
X128173131Y-111249780D01*
X128399000Y-111068177D01*
X128585294Y-110846161D01*
X128724916Y-110592189D01*
X128812549Y-110315934D01*
X128844855Y-110027919D01*
X128845000Y-110007185D01*
X128845000Y-109992815D01*
X128816718Y-109704377D01*
X128732951Y-109426925D01*
X128596888Y-109171029D01*
X128413713Y-108946433D01*
X128190401Y-108761694D01*
X127935461Y-108623848D01*
X127658601Y-108538146D01*
X127370367Y-108507851D01*
X127081739Y-108534118D01*
X126803709Y-108615947D01*
X126546869Y-108750220D01*
X126321000Y-108931823D01*
X126134706Y-109153839D01*
X126090502Y-109234247D01*
X126056888Y-109171029D01*
X125873713Y-108946433D01*
X125650401Y-108761694D01*
X125395461Y-108623848D01*
X125118601Y-108538146D01*
X124830367Y-108507851D01*
X124541739Y-108534118D01*
X124263709Y-108615947D01*
X124006869Y-108750220D01*
X123781000Y-108931823D01*
X123594706Y-109153839D01*
X123550502Y-109234247D01*
X123516888Y-109171029D01*
X123333713Y-108946433D01*
X123110401Y-108761694D01*
X123040000Y-108723628D01*
X123040000Y-96634802D01*
X125452169Y-94222633D01*
X125552657Y-94204914D01*
X125723610Y-94138606D01*
X125878429Y-94040355D01*
X126011215Y-93913904D01*
X126116911Y-93764070D01*
X126191492Y-93596560D01*
X126232116Y-93417754D01*
X126235040Y-93208319D01*
X126199425Y-93028448D01*
X126129550Y-92858920D01*
X126028079Y-92706193D01*
X125898875Y-92576084D01*
X125746860Y-92473549D01*
X125577825Y-92402493D01*
X125398207Y-92365623D01*
X125214849Y-92364343D01*
X125034733Y-92398701D01*
X125012205Y-92407803D01*
X124928079Y-92281182D01*
X124798875Y-92151073D01*
X124646860Y-92048538D01*
X124477825Y-91977482D01*
X124298207Y-91940612D01*
X124114849Y-91939332D01*
X123934733Y-91973690D01*
X123764722Y-92042379D01*
X123611291Y-92142782D01*
X123480283Y-92271075D01*
X123376689Y-92422370D01*
X123304454Y-92590905D01*
X123266331Y-92770261D01*
X123263771Y-92953606D01*
X123296872Y-93133957D01*
X123341770Y-93247357D01*
X121566485Y-95022642D01*
X121453090Y-95044273D01*
X121283079Y-95112962D01*
X121129648Y-95213365D01*
X120998640Y-95341658D01*
X120895046Y-95492953D01*
X120822811Y-95661488D01*
X120794515Y-95794612D01*
X119202599Y-97386528D01*
X119158032Y-97440784D01*
X119112914Y-97494554D01*
X119110989Y-97498055D01*
X119108452Y-97501144D01*
X119075287Y-97562996D01*
X119041457Y-97624533D01*
X119040248Y-97628345D01*
X119038361Y-97631864D01*
X119017848Y-97698960D01*
X118996608Y-97765916D01*
X118996162Y-97769888D01*
X118994994Y-97773710D01*
X118987897Y-97843578D01*
X118980074Y-97913318D01*
X118980020Y-97921123D01*
X118980004Y-97921276D01*
X118980018Y-97921419D01*
X118980000Y-97923929D01*
X118980000Y-108722444D01*
X118926869Y-108750220D01*
X118701000Y-108931823D01*
X118514706Y-109153839D01*
X118470502Y-109234247D01*
X118436888Y-109171029D01*
X118253713Y-108946433D01*
X118030401Y-108761694D01*
X117775461Y-108623848D01*
X117498601Y-108538146D01*
X117210367Y-108507851D01*
X116921739Y-108534118D01*
X116643709Y-108615947D01*
X116386869Y-108750220D01*
X116161000Y-108931823D01*
X116123041Y-108977061D01*
X116120597Y-108964777D01*
X116072730Y-108849215D01*
X116003237Y-108745211D01*
X115914789Y-108656763D01*
X115810785Y-108587270D01*
X115695223Y-108539403D01*
X115572542Y-108515000D01*
X114945750Y-108515000D01*
X114787000Y-108673750D01*
X114533000Y-108673750D01*
X114374250Y-108515000D01*
X113747458Y-108515000D01*
X113624777Y-108539403D01*
X113509215Y-108587270D01*
X113405211Y-108656763D01*
X113316763Y-108745211D01*
X113247270Y-108849215D01*
X113199403Y-108964777D01*
X113175000Y-109087458D01*
X102785000Y-109087458D01*
X102785000Y-101041037D01*
X102804282Y-101013703D01*
X102886839Y-100828278D01*
X102931807Y-100630348D01*
X102935044Y-100398513D01*
X102895620Y-100199405D01*
X102818273Y-100011746D01*
X102785000Y-99961666D01*
X102785000Y-81000000D01*
X110123000Y-81000000D01*
X110123000Y-91500000D01*
X110131601Y-91545942D01*
X110158803Y-91588386D01*
X110200375Y-91616903D01*
X110249767Y-91627000D01*
X117594296Y-91640473D01*
X117624203Y-91636958D01*
X117669908Y-91615684D01*
X117703735Y-91578304D01*
X117720354Y-91530709D01*
X117820354Y-90800709D01*
X117821529Y-90783473D01*
X117821529Y-88883473D01*
X117812721Y-88837002D01*
X117785330Y-88794680D01*
X117743630Y-88766349D01*
X117694194Y-88756473D01*
X115347000Y-88762664D01*
X115347000Y-81020000D01*
X115338499Y-80974317D01*
X115311390Y-80931814D01*
X115269881Y-80903206D01*
X115220511Y-80893001D01*
X110250511Y-80873001D01*
X110203841Y-80881685D01*
X110161447Y-80908965D01*
X110133006Y-80950590D01*
X110123000Y-81000000D01*
X102785000Y-81000000D01*
X102785000Y-73725001D01*
X110514999Y-73725001D01*
X110514999Y-75628001D01*
X110521850Y-75697878D01*
X110527968Y-75767804D01*
X110529083Y-75771642D01*
X110529473Y-75775619D01*
X110549763Y-75842822D01*
X110569350Y-75910241D01*
X110571189Y-75913789D01*
X110572344Y-75917614D01*
X110605298Y-75979592D01*
X110637609Y-76041926D01*
X110640102Y-76045049D01*
X110641979Y-76048579D01*
X110686354Y-76102988D01*
X110730147Y-76157847D01*
X110735630Y-76163407D01*
X110735725Y-76163523D01*
X110735833Y-76163612D01*
X110737598Y-76165402D01*
X115940000Y-81367804D01*
X115940000Y-83254918D01*
X115876689Y-83347381D01*
X115804454Y-83515916D01*
X115766331Y-83695272D01*
X115763771Y-83878617D01*
X115796872Y-84058968D01*
X115864372Y-84229454D01*
X115963701Y-84383583D01*
X116091076Y-84515484D01*
X116241644Y-84620131D01*
X116409671Y-84693540D01*
X116588757Y-84732915D01*
X116772079Y-84736755D01*
X116952657Y-84704914D01*
X117123610Y-84638606D01*
X117278429Y-84540355D01*
X117411215Y-84413904D01*
X117516911Y-84264070D01*
X117591492Y-84096560D01*
X117632116Y-83917754D01*
X117635040Y-83708319D01*
X117599425Y-83528448D01*
X117529550Y-83358920D01*
X117460000Y-83254238D01*
X117460000Y-81074802D01*
X120640000Y-84254802D01*
X120640000Y-89854918D01*
X120576689Y-89947381D01*
X120504454Y-90115916D01*
X120466331Y-90295272D01*
X120463771Y-90478617D01*
X120496872Y-90658968D01*
X120564372Y-90829454D01*
X120663701Y-90983583D01*
X120791076Y-91115484D01*
X120941644Y-91220131D01*
X121109671Y-91293540D01*
X121288757Y-91332915D01*
X121472079Y-91336755D01*
X121652657Y-91304914D01*
X121823610Y-91238606D01*
X121978429Y-91140355D01*
X122111215Y-91013904D01*
X122216911Y-90864070D01*
X122291492Y-90696560D01*
X122332116Y-90517754D01*
X122335040Y-90308319D01*
X122319224Y-90228442D01*
X122452657Y-90204914D01*
X122623610Y-90138606D01*
X122778429Y-90040355D01*
X122911215Y-89913904D01*
X123016911Y-89764070D01*
X123091492Y-89596560D01*
X123124786Y-89450016D01*
X133970000Y-78604802D01*
X133970000Y-107802075D01*
X133857955Y-107875395D01*
X133663895Y-108065432D01*
X133510443Y-108289543D01*
X133403444Y-108539192D01*
X133346972Y-108804869D01*
X133343180Y-109076455D01*
X133392211Y-109343605D01*
X133492198Y-109596144D01*
X133639333Y-109824452D01*
X133828011Y-110019834D01*
X133960517Y-110111928D01*
X132710000Y-110111928D01*
X132608879Y-110119992D01*
X132437366Y-110173106D01*
X132287441Y-110271900D01*
X132170975Y-110408550D01*
X132097190Y-110572237D01*
X132071928Y-110750000D01*
X132071928Y-112250000D01*
X132079992Y-112351121D01*
X132133106Y-112522634D01*
X132231900Y-112672559D01*
X132368550Y-112789025D01*
X132532237Y-112862810D01*
X132710000Y-112888072D01*
X134210000Y-112888072D01*
X134311121Y-112880008D01*
X134482634Y-112826894D01*
X134632559Y-112728100D01*
X134749025Y-112591450D01*
X134822810Y-112427763D01*
X134845814Y-112265890D01*
X134909333Y-112364452D01*
X135098011Y-112559834D01*
X135321045Y-112714847D01*
X135569941Y-112823586D01*
X135835217Y-112881911D01*
X136106770Y-112887599D01*
X136374256Y-112840434D01*
X136627487Y-112742213D01*
X136856817Y-112596675D01*
X137053511Y-112409366D01*
X137210077Y-112187419D01*
X137269583Y-112053767D01*
X137302198Y-112136144D01*
X137449333Y-112364452D01*
X137638011Y-112559834D01*
X137861045Y-112714847D01*
X138109941Y-112823586D01*
X138375217Y-112881911D01*
X138646770Y-112887599D01*
X138914256Y-112840434D01*
X139167487Y-112742213D01*
X139396817Y-112596675D01*
X139593511Y-112409366D01*
X139750077Y-112187419D01*
X139809583Y-112053767D01*
X139842198Y-112136144D01*
X139989333Y-112364452D01*
X140178011Y-112559834D01*
X140401045Y-112714847D01*
X140649941Y-112823586D01*
X140915217Y-112881911D01*
X141186770Y-112887599D01*
X141454256Y-112840434D01*
X141707487Y-112742213D01*
X141936817Y-112596675D01*
X142133511Y-112409366D01*
X142290077Y-112187419D01*
X142400552Y-111939289D01*
X142460727Y-111674426D01*
X142465059Y-111364194D01*
X142412303Y-111097754D01*
X142308799Y-110846636D01*
X142158491Y-110620404D01*
X141967104Y-110427676D01*
X141741927Y-110275792D01*
X141491537Y-110170538D01*
X141225472Y-110115923D01*
X140953867Y-110114027D01*
X140687065Y-110164922D01*
X140435230Y-110266670D01*
X140207955Y-110415395D01*
X140013895Y-110605432D01*
X139860443Y-110829543D01*
X139810134Y-110946923D01*
X139768799Y-110846636D01*
X139618491Y-110620404D01*
X139427104Y-110427676D01*
X139201927Y-110275792D01*
X138951537Y-110170538D01*
X138685472Y-110115923D01*
X138413867Y-110114027D01*
X138147065Y-110164922D01*
X137895230Y-110266670D01*
X137667955Y-110415395D01*
X137473895Y-110605432D01*
X137320443Y-110829543D01*
X137270134Y-110946923D01*
X137228799Y-110846636D01*
X137078491Y-110620404D01*
X136887104Y-110427676D01*
X136661927Y-110275792D01*
X136411537Y-110170538D01*
X136285199Y-110144605D01*
X136392765Y-110037039D01*
X136591045Y-110174847D01*
X136839941Y-110283586D01*
X137105217Y-110341911D01*
X137376770Y-110347599D01*
X137644256Y-110300434D01*
X137897487Y-110202213D01*
X138126817Y-110056675D01*
X138323511Y-109869366D01*
X138480077Y-109647419D01*
X138539583Y-109513767D01*
X138572198Y-109596144D01*
X138719333Y-109824452D01*
X138908011Y-110019834D01*
X139131045Y-110174847D01*
X139379941Y-110283586D01*
X139645217Y-110341911D01*
X139916770Y-110347599D01*
X140184256Y-110300434D01*
X140437487Y-110202213D01*
X140666817Y-110056675D01*
X140863511Y-109869366D01*
X141020077Y-109647419D01*
X141079583Y-109513767D01*
X141112198Y-109596144D01*
X141259333Y-109824452D01*
X141448011Y-110019834D01*
X141671045Y-110174847D01*
X141919941Y-110283586D01*
X142185217Y-110341911D01*
X142456770Y-110347599D01*
X142724256Y-110300434D01*
X142977487Y-110202213D01*
X143206817Y-110056675D01*
X143403511Y-109869366D01*
X143560077Y-109647419D01*
X143670552Y-109399289D01*
X143730727Y-109134426D01*
X143733004Y-108971335D01*
X146468758Y-108971335D01*
X146582999Y-109593786D01*
X146815966Y-110182192D01*
X147158785Y-110714142D01*
X147598397Y-111169375D01*
X148118059Y-111530549D01*
X148697977Y-111783909D01*
X149316062Y-111919804D01*
X149948770Y-111933057D01*
X150572003Y-111823164D01*
X151162022Y-111594311D01*
X151696353Y-111255215D01*
X152154643Y-110818791D01*
X152519436Y-110301663D01*
X152776839Y-109723528D01*
X152917045Y-109106407D01*
X152927138Y-108383576D01*
X152804218Y-107762781D01*
X152563058Y-107177685D01*
X152212846Y-106650573D01*
X151766920Y-106201523D01*
X151242266Y-105847639D01*
X150658867Y-105602401D01*
X150038945Y-105475149D01*
X149406114Y-105470731D01*
X148784476Y-105589315D01*
X148197710Y-105826384D01*
X147668166Y-106172908D01*
X147216014Y-106615688D01*
X146858476Y-107137859D01*
X146609171Y-107719531D01*
X146477594Y-108338549D01*
X146468758Y-108971335D01*
X143733004Y-108971335D01*
X143735059Y-108824194D01*
X143682303Y-108557754D01*
X143578799Y-108306636D01*
X143428491Y-108080404D01*
X143237104Y-107887676D01*
X143011927Y-107735792D01*
X142761537Y-107630538D01*
X142495472Y-107575923D01*
X142223867Y-107574027D01*
X141957065Y-107624922D01*
X141705230Y-107726670D01*
X141477955Y-107875395D01*
X141283895Y-108065432D01*
X141130443Y-108289543D01*
X141080134Y-108406923D01*
X141038799Y-108306636D01*
X140888491Y-108080404D01*
X140697104Y-107887676D01*
X140471927Y-107735792D01*
X140221537Y-107630538D01*
X139955472Y-107575923D01*
X139683867Y-107574027D01*
X139417065Y-107624922D01*
X139165230Y-107726670D01*
X138937955Y-107875395D01*
X138743895Y-108065432D01*
X138590443Y-108289543D01*
X138540134Y-108406923D01*
X138498799Y-108306636D01*
X138348491Y-108080404D01*
X138157104Y-107887676D01*
X138030000Y-107801943D01*
X138030000Y-78444802D01*
X140052169Y-76422633D01*
X140152657Y-76404914D01*
X140323610Y-76338606D01*
X140478429Y-76240355D01*
X140611215Y-76113904D01*
X140716911Y-75964070D01*
X140791492Y-75796560D01*
X140832116Y-75617754D01*
X140832584Y-75584255D01*
X140894879Y-75578147D01*
X140964805Y-75572029D01*
X140968643Y-75570914D01*
X140972620Y-75570524D01*
X141039823Y-75550234D01*
X141107242Y-75530647D01*
X141110790Y-75528808D01*
X141114615Y-75527653D01*
X141176593Y-75494699D01*
X141238927Y-75462388D01*
X141242050Y-75459895D01*
X141245580Y-75458018D01*
X141299989Y-75413643D01*
X141354848Y-75369850D01*
X141360408Y-75364367D01*
X141360524Y-75364272D01*
X141360613Y-75364164D01*
X141362403Y-75362399D01*
X142867401Y-73857401D01*
X142911995Y-73803112D01*
X142957086Y-73749375D01*
X142959011Y-73745874D01*
X142961548Y-73742785D01*
X142994732Y-73680898D01*
X143028543Y-73619396D01*
X143029751Y-73615588D01*
X143031640Y-73612065D01*
X143052180Y-73544882D01*
X143073392Y-73478013D01*
X143073837Y-73474046D01*
X143075007Y-73470219D01*
X143082109Y-73400301D01*
X143089926Y-73330611D01*
X143089980Y-73322806D01*
X143089996Y-73322653D01*
X143089982Y-73322510D01*
X143090000Y-73320000D01*
X143090000Y-65887275D01*
X143115000Y-65885281D01*
X143115000Y-84500000D01*
X143122977Y-84581356D01*
X143130102Y-84662796D01*
X143131401Y-84667267D01*
X143131855Y-84671897D01*
X143155475Y-84750131D01*
X143178290Y-84828660D01*
X143180432Y-84832793D01*
X143181777Y-84837247D01*
X143220135Y-84909388D01*
X143257776Y-84982006D01*
X143260682Y-84985646D01*
X143262865Y-84989752D01*
X143314507Y-85053071D01*
X143365534Y-85116991D01*
X143371927Y-85123474D01*
X143372030Y-85123601D01*
X143372147Y-85123698D01*
X143374210Y-85125790D01*
X156290349Y-98041928D01*
X154220000Y-98041928D01*
X154118879Y-98049992D01*
X153947366Y-98103106D01*
X153797441Y-98201900D01*
X153680975Y-98338550D01*
X153607190Y-98502237D01*
X153581928Y-98680000D01*
X153581928Y-101280000D01*
X153589992Y-101381121D01*
X153643106Y-101552634D01*
X153741900Y-101702559D01*
X153878550Y-101819025D01*
X154042237Y-101892810D01*
X154220000Y-101918072D01*
X156820000Y-101918072D01*
X156921121Y-101910008D01*
X157092634Y-101856894D01*
X157242559Y-101758100D01*
X157359025Y-101621450D01*
X157432810Y-101457763D01*
X157458072Y-101280000D01*
X157458072Y-99209651D01*
X157630807Y-99382386D01*
X157626651Y-99392083D01*
X157547754Y-99763264D01*
X157542456Y-100142700D01*
X157610958Y-100515939D01*
X157750652Y-100868764D01*
X157956215Y-101187737D01*
X158219820Y-101460707D01*
X158531424Y-101677277D01*
X158879159Y-101829199D01*
X159249780Y-101910685D01*
X159629170Y-101918632D01*
X160002878Y-101852738D01*
X160356670Y-101715511D01*
X160677069Y-101512179D01*
X160951873Y-101250487D01*
X161170614Y-100940402D01*
X161324959Y-100593736D01*
X161409031Y-100223693D01*
X161415083Y-99790263D01*
X161341377Y-99418017D01*
X161196771Y-99067177D01*
X160986773Y-98751106D01*
X160719384Y-98481843D01*
X160404786Y-98269644D01*
X160054964Y-98122592D01*
X159683241Y-98046288D01*
X159303777Y-98043639D01*
X158931026Y-98114745D01*
X158884943Y-98133364D01*
X144885000Y-84133420D01*
X144885000Y-83087026D01*
X161213639Y-83087026D01*
X161250280Y-83286665D01*
X161325000Y-83475386D01*
X161434953Y-83645999D01*
X161575950Y-83792006D01*
X161742622Y-83907846D01*
X161928620Y-83989106D01*
X162126859Y-84032692D01*
X162329788Y-84036943D01*
X162529679Y-84001697D01*
X162718916Y-83928296D01*
X162890293Y-83819537D01*
X163037281Y-83679563D01*
X163154282Y-83513703D01*
X163236839Y-83328278D01*
X163255518Y-83246062D01*
X172125789Y-74375790D01*
X172177669Y-74312630D01*
X172230225Y-74249996D01*
X172232468Y-74245915D01*
X172235420Y-74242322D01*
X172274013Y-74170347D01*
X172313435Y-74098639D01*
X172314844Y-74094198D01*
X172317040Y-74090102D01*
X172340921Y-74011994D01*
X172365661Y-73934002D01*
X172366180Y-73929375D01*
X172367540Y-73924927D01*
X172375795Y-73843651D01*
X172384914Y-73762357D01*
X172384977Y-73753254D01*
X172384994Y-73753090D01*
X172384980Y-73752937D01*
X172385000Y-73750000D01*
X172385000Y-67291037D01*
X172404282Y-67263703D01*
X172486839Y-67078278D01*
X172531807Y-66880348D01*
X172535044Y-66648513D01*
X172495620Y-66449405D01*
X172418273Y-66261746D01*
X172305948Y-66092684D01*
X172162926Y-65948660D01*
X171994653Y-65835158D01*
X171807539Y-65756503D01*
X171608710Y-65715689D01*
X171405741Y-65714272D01*
X171206363Y-65752306D01*
X171018168Y-65828341D01*
X170848327Y-65939482D01*
X170703308Y-66081496D01*
X170588634Y-66248972D01*
X170508674Y-66435533D01*
X170466473Y-66634071D01*
X170463639Y-66837026D01*
X170500280Y-67036665D01*
X170575000Y-67225386D01*
X170615000Y-67287454D01*
X170615000Y-73383421D01*
X162005485Y-81992935D01*
X161956363Y-82002306D01*
X161768168Y-82078341D01*
X161598327Y-82189482D01*
X161453308Y-82331496D01*
X161338634Y-82498972D01*
X161258674Y-82685533D01*
X161216473Y-82884071D01*
X161213639Y-83087026D01*
X144885000Y-83087026D01*
X144885000Y-65271335D01*
X148768758Y-65271335D01*
X148882999Y-65893786D01*
X149115966Y-66482192D01*
X149458785Y-67014142D01*
X149898397Y-67469375D01*
X150418059Y-67830549D01*
X150997977Y-68083909D01*
X151616062Y-68219804D01*
X152248770Y-68233057D01*
X152872003Y-68123164D01*
X153462022Y-67894311D01*
X153996353Y-67555215D01*
X154454643Y-67118791D01*
X154819436Y-66601663D01*
X155076839Y-66023528D01*
X155217045Y-65406407D01*
X155227138Y-64683576D01*
X155104218Y-64062781D01*
X154863058Y-63477685D01*
X154512846Y-62950573D01*
X154066920Y-62501523D01*
X153542266Y-62147639D01*
X152958867Y-61902401D01*
X152338945Y-61775149D01*
X151706114Y-61770731D01*
X151084476Y-61889315D01*
X150497710Y-62126384D01*
X149968166Y-62472908D01*
X149516014Y-62915688D01*
X149158476Y-63437859D01*
X148909171Y-64019531D01*
X148777594Y-64638549D01*
X148768758Y-65271335D01*
X144885000Y-65271335D01*
X144885000Y-63769998D01*
X144877022Y-63688638D01*
X144869898Y-63607202D01*
X144868599Y-63602731D01*
X144868145Y-63598101D01*
X144844539Y-63519913D01*
X144821711Y-63441338D01*
X144819566Y-63437201D01*
X144818223Y-63432751D01*
X144779873Y-63360625D01*
X144742224Y-63287993D01*
X144739320Y-63284355D01*
X144737135Y-63280246D01*
X144685500Y-63216936D01*
X144634467Y-63153007D01*
X144628076Y-63146526D01*
X144627970Y-63146397D01*
X144627850Y-63146298D01*
X144625790Y-63144209D01*
X144105791Y-62624209D01*
X144042575Y-62572283D01*
X143979997Y-62519774D01*
X143975920Y-62517533D01*
X143972323Y-62514578D01*
X143900293Y-62475956D01*
X143828640Y-62436564D01*
X143824201Y-62435156D01*
X143820102Y-62432958D01*
X143741975Y-62409072D01*
X143664003Y-62384338D01*
X143659375Y-62383819D01*
X143654927Y-62382459D01*
X143573662Y-62374205D01*
X143492358Y-62365085D01*
X143483254Y-62365022D01*
X143483090Y-62365005D01*
X143482937Y-62365019D01*
X143480001Y-62364999D01*
X137386581Y-62364999D01*
X139443503Y-60308076D01*
X139479679Y-60301697D01*
X139668916Y-60228296D01*
X139840293Y-60119537D01*
X139987281Y-59979563D01*
X140104282Y-59813703D01*
X140186839Y-59628278D01*
X140231807Y-59430348D01*
X140235044Y-59198513D01*
X140195620Y-58999405D01*
X140118273Y-58811746D01*
X140005948Y-58642684D01*
X139862926Y-58498660D01*
X139694653Y-58385158D01*
X139627297Y-58356844D01*
X141356766Y-58356844D01*
X141443854Y-58831349D01*
X141621449Y-59279902D01*
X141882786Y-59685417D01*
X142217910Y-60032449D01*
X142614058Y-60307779D01*
X143056140Y-60500919D01*
X143527317Y-60604514D01*
X144009642Y-60614618D01*
X144484744Y-60530844D01*
X144934526Y-60356386D01*
X145341855Y-60097886D01*
X145691218Y-59765192D01*
X145969307Y-59370976D01*
X146165529Y-58930254D01*
X146272411Y-58459812D01*
X146280106Y-57908785D01*
X146186401Y-57435541D01*
X146002561Y-56989512D01*
X145735588Y-56587685D01*
X145395650Y-56245366D01*
X144995697Y-55975594D01*
X144550962Y-55788645D01*
X144078384Y-55691638D01*
X143595965Y-55688270D01*
X143122079Y-55778669D01*
X142674777Y-55959391D01*
X142271096Y-56223552D01*
X141926412Y-56561091D01*
X141653855Y-56959152D01*
X141463805Y-57402571D01*
X141363502Y-57874460D01*
X141356766Y-58356844D01*
X139627297Y-58356844D01*
X139507539Y-58306503D01*
X139308710Y-58265689D01*
X139105741Y-58264272D01*
X138906363Y-58302306D01*
X138718168Y-58378341D01*
X138548327Y-58489482D01*
X138403308Y-58631496D01*
X138288634Y-58798972D01*
X138208674Y-58985533D01*
X138194040Y-59054381D01*
X135334211Y-61914209D01*
X135282285Y-61977425D01*
X135229776Y-62040003D01*
X135227535Y-62044080D01*
X135224580Y-62047677D01*
X135185958Y-62119707D01*
X135146566Y-62191360D01*
X135145158Y-62195799D01*
X135142960Y-62199898D01*
X135119074Y-62278025D01*
X135094340Y-62355997D01*
X135093821Y-62360625D01*
X135092461Y-62365073D01*
X135084207Y-62446338D01*
X135075087Y-62527642D01*
X135075024Y-62536746D01*
X135075007Y-62536910D01*
X135075021Y-62537063D01*
X135075001Y-62539999D01*
X135075001Y-62883419D01*
X134842587Y-63115833D01*
X134583867Y-63114027D01*
X134317065Y-63164922D01*
X134065230Y-63266670D01*
X133837955Y-63415395D01*
X133643895Y-63605432D01*
X133490443Y-63829543D01*
X133383444Y-64079192D01*
X133326972Y-64344869D01*
X133323180Y-64616455D01*
X133326093Y-64632327D01*
X132814210Y-65144210D01*
X132762284Y-65207426D01*
X132709775Y-65270004D01*
X132707534Y-65274081D01*
X132704579Y-65277678D01*
X132665957Y-65349708D01*
X132626565Y-65421361D01*
X132625157Y-65425800D01*
X132622959Y-65429899D01*
X132599073Y-65508026D01*
X132574339Y-65585998D01*
X132573820Y-65590626D01*
X132572460Y-65595074D01*
X132564206Y-65676339D01*
X132555086Y-65757643D01*
X132555023Y-65766747D01*
X132555006Y-65766911D01*
X132555020Y-65767064D01*
X132555000Y-65770000D01*
X132555000Y-65968081D01*
X132373895Y-66145432D01*
X132220443Y-66369543D01*
X132113444Y-66619192D01*
X132056972Y-66884869D01*
X132053180Y-67156455D01*
X132102211Y-67423605D01*
X132202198Y-67676144D01*
X132349333Y-67904452D01*
X132538011Y-68099834D01*
X132761045Y-68254847D01*
X133009941Y-68363586D01*
X133275217Y-68421911D01*
X133546770Y-68427599D01*
X133814256Y-68380434D01*
X134067487Y-68282213D01*
X134296817Y-68136675D01*
X134493511Y-67949366D01*
X134650077Y-67727419D01*
X134709583Y-67593767D01*
X134742198Y-67676144D01*
X134889333Y-67904452D01*
X135078011Y-68099834D01*
X135301045Y-68254847D01*
X135549941Y-68363586D01*
X135815217Y-68421911D01*
X136058197Y-68427001D01*
X123445198Y-81040000D01*
X122745378Y-81040000D01*
X122646860Y-80973549D01*
X122477825Y-80902493D01*
X122298207Y-80865623D01*
X122114849Y-80864343D01*
X121934733Y-80898701D01*
X121764722Y-80967390D01*
X121611291Y-81067793D01*
X121480283Y-81196086D01*
X121376689Y-81347381D01*
X121304454Y-81515916D01*
X121266331Y-81695272D01*
X121263771Y-81878617D01*
X121296872Y-82058968D01*
X121364372Y-82229454D01*
X121463701Y-82383583D01*
X121591076Y-82515484D01*
X121741644Y-82620131D01*
X121909671Y-82693540D01*
X122088757Y-82732915D01*
X122272079Y-82736755D01*
X122452657Y-82704914D01*
X122623610Y-82638606D01*
X122747473Y-82560000D01*
X123760000Y-82560000D01*
X123829877Y-82553149D01*
X123899803Y-82547031D01*
X123903641Y-82545916D01*
X123907618Y-82545526D01*
X123974821Y-82525236D01*
X124042240Y-82505649D01*
X124045788Y-82503810D01*
X124049613Y-82502655D01*
X124111591Y-82469701D01*
X124173925Y-82437390D01*
X124177048Y-82434897D01*
X124180578Y-82433020D01*
X124234987Y-82388645D01*
X124289846Y-82344852D01*
X124295406Y-82339369D01*
X124295522Y-82339274D01*
X124295611Y-82339166D01*
X124297401Y-82337401D01*
X138238543Y-68396259D01*
X138355217Y-68421911D01*
X138626770Y-68427599D01*
X138894256Y-68380434D01*
X139030000Y-68327783D01*
X139030000Y-71395198D01*
X122160000Y-88265198D01*
X122160000Y-83940000D01*
X122153148Y-83870119D01*
X122147031Y-83800197D01*
X122145916Y-83796359D01*
X122145526Y-83792382D01*
X122125246Y-83725212D01*
X122105650Y-83657761D01*
X122103809Y-83654210D01*
X122102655Y-83650387D01*
X122069710Y-83588426D01*
X122037390Y-83526075D01*
X122034897Y-83522952D01*
X122033020Y-83519422D01*
X121988645Y-83465013D01*
X121944852Y-83410154D01*
X121939369Y-83404594D01*
X121939274Y-83404478D01*
X121939166Y-83404389D01*
X121937401Y-83402599D01*
X119679197Y-81144395D01*
X119711215Y-81113904D01*
X119816911Y-80964070D01*
X119891492Y-80796560D01*
X119932116Y-80617754D01*
X119935040Y-80408319D01*
X119899425Y-80228448D01*
X119829550Y-80058920D01*
X119760000Y-79954238D01*
X119760000Y-76460000D01*
X119753148Y-76390119D01*
X119747031Y-76320197D01*
X119745916Y-76316359D01*
X119745526Y-76312382D01*
X119725246Y-76245212D01*
X119705650Y-76177761D01*
X119703809Y-76174210D01*
X119702655Y-76170387D01*
X119669710Y-76108426D01*
X119637390Y-76046075D01*
X119634897Y-76042952D01*
X119633020Y-76039422D01*
X119588645Y-75985013D01*
X119544852Y-75930154D01*
X119539369Y-75924594D01*
X119539274Y-75924478D01*
X119539166Y-75924389D01*
X119537401Y-75922599D01*
X116480946Y-72866144D01*
X116501854Y-72798601D01*
X116532149Y-72510367D01*
X116505882Y-72221739D01*
X116424053Y-71943709D01*
X116289780Y-71686869D01*
X116108177Y-71461000D01*
X115886161Y-71274706D01*
X115800111Y-71227400D01*
X115921355Y-71155178D01*
X116137588Y-70960269D01*
X116311641Y-70726920D01*
X116436825Y-70464099D01*
X116481476Y-70316890D01*
X116360155Y-70087000D01*
X115167000Y-70087000D01*
X115167000Y-70107000D01*
X114913000Y-70107000D01*
X114913000Y-70087000D01*
X114893000Y-70087000D01*
X114893000Y-69833000D01*
X114913000Y-69833000D01*
X114913000Y-68639186D01*
X115167000Y-68639186D01*
X115167000Y-69833000D01*
X116360155Y-69833000D01*
X116481476Y-69603110D01*
X116436825Y-69455901D01*
X116311641Y-69193080D01*
X116137588Y-68959731D01*
X115921355Y-68764822D01*
X115671252Y-68615843D01*
X115396891Y-68518519D01*
X115167000Y-68639186D01*
X114913000Y-68639186D01*
X114683109Y-68518519D01*
X114408748Y-68615843D01*
X114158645Y-68764822D01*
X113959905Y-68943963D01*
X113926894Y-68837366D01*
X113828100Y-68687441D01*
X113691450Y-68570975D01*
X113527763Y-68497190D01*
X113350000Y-68471928D01*
X111650000Y-68471928D01*
X111548879Y-68479992D01*
X111377366Y-68533106D01*
X111227441Y-68631900D01*
X111110975Y-68768550D01*
X111037190Y-68932237D01*
X111011928Y-69110000D01*
X111011928Y-70810000D01*
X111019992Y-70911121D01*
X111073106Y-71082634D01*
X111171900Y-71232559D01*
X111308550Y-71349025D01*
X111472237Y-71422810D01*
X111474776Y-71423171D01*
X111446433Y-71446287D01*
X111261694Y-71669599D01*
X111123848Y-71924539D01*
X111038146Y-72201399D01*
X111007851Y-72489633D01*
X111034118Y-72778261D01*
X111059772Y-72865426D01*
X110737598Y-73187600D01*
X110693031Y-73241856D01*
X110647913Y-73295626D01*
X110645988Y-73299127D01*
X110643451Y-73302216D01*
X110610286Y-73364068D01*
X110576456Y-73425605D01*
X110575247Y-73429417D01*
X110573360Y-73432936D01*
X110552847Y-73500032D01*
X110531607Y-73566988D01*
X110531161Y-73570960D01*
X110529993Y-73574782D01*
X110522896Y-73644650D01*
X110515073Y-73714390D01*
X110515019Y-73722195D01*
X110515003Y-73722348D01*
X110515017Y-73722491D01*
X110514999Y-73725001D01*
X102785000Y-73725001D01*
X102785000Y-65271335D01*
X120768758Y-65271335D01*
X120882999Y-65893786D01*
X121115966Y-66482192D01*
X121458785Y-67014142D01*
X121898397Y-67469375D01*
X122418059Y-67830549D01*
X122997977Y-68083909D01*
X123616062Y-68219804D01*
X124248770Y-68233057D01*
X124872003Y-68123164D01*
X125462022Y-67894311D01*
X125996353Y-67555215D01*
X126454643Y-67118791D01*
X126819436Y-66601663D01*
X127076839Y-66023528D01*
X127217045Y-65406407D01*
X127227138Y-64683576D01*
X127104218Y-64062781D01*
X126863058Y-63477685D01*
X126512846Y-62950573D01*
X126066920Y-62501523D01*
X125542266Y-62147639D01*
X124958867Y-61902401D01*
X124338945Y-61775149D01*
X123706114Y-61770731D01*
X123084476Y-61889315D01*
X122497710Y-62126384D01*
X121968166Y-62472908D01*
X121516014Y-62915688D01*
X121158476Y-63437859D01*
X120909171Y-64019531D01*
X120777594Y-64638549D01*
X120768758Y-65271335D01*
X102785000Y-65271335D01*
X102785000Y-63471037D01*
X102804282Y-63443703D01*
X102886839Y-63258278D01*
X102931807Y-63060348D01*
X102935044Y-62828513D01*
X102895620Y-62629405D01*
X102818273Y-62441746D01*
X102785000Y-62391666D01*
X102785000Y-60866580D01*
X105294735Y-58356844D01*
X129486766Y-58356844D01*
X129573854Y-58831349D01*
X129751449Y-59279902D01*
X130012786Y-59685417D01*
X130347910Y-60032449D01*
X130744058Y-60307779D01*
X131186140Y-60500919D01*
X131657317Y-60604514D01*
X132139642Y-60614618D01*
X132614744Y-60530844D01*
X133064526Y-60356386D01*
X133471855Y-60097886D01*
X133821218Y-59765192D01*
X134099307Y-59370976D01*
X134295529Y-58930254D01*
X134402411Y-58459812D01*
X134410106Y-57908785D01*
X134316401Y-57435541D01*
X134132561Y-56989512D01*
X133865588Y-56587685D01*
X133525650Y-56245366D01*
X133125697Y-55975594D01*
X132680962Y-55788645D01*
X132208384Y-55691638D01*
X131725965Y-55688270D01*
X131252079Y-55778669D01*
X130804777Y-55959391D01*
X130401096Y-56223552D01*
X130056412Y-56561091D01*
X129783855Y-56959152D01*
X129593805Y-57402571D01*
X129493502Y-57874460D01*
X129486766Y-58356844D01*
X105294735Y-58356844D01*
X109016579Y-54635000D01*
X149209751Y-54635000D01*
X149242622Y-54657846D01*
X149242622Y-54657846D01*
G37*
X149242622Y-54657846D02*
X149428620Y-54739106D01*
X149626859Y-54782692D01*
X149829788Y-54786943D01*
X150029679Y-54751697D01*
X150218916Y-54678296D01*
X150287140Y-54635000D01*
X168533420Y-54635000D01*
X173215000Y-59316579D01*
X173215000Y-73560466D01*
X173188634Y-73598972D01*
X173108674Y-73785533D01*
X173066473Y-73984071D01*
X173063639Y-74187026D01*
X173100280Y-74386665D01*
X173175000Y-74575386D01*
X173215000Y-74637454D01*
X173215000Y-99560466D01*
X173188634Y-99598972D01*
X173108674Y-99785533D01*
X173066473Y-99984071D01*
X173063639Y-100187026D01*
X173100280Y-100386665D01*
X173175000Y-100575386D01*
X173215000Y-100637454D01*
X173215000Y-111613133D01*
X173098327Y-111689482D01*
X172953308Y-111831496D01*
X172838634Y-111998972D01*
X172758674Y-112185533D01*
X172744040Y-112254381D01*
X171964755Y-113033665D01*
X171915407Y-113059464D01*
X171912991Y-113061407D01*
X171910248Y-113062865D01*
X171845667Y-113115536D01*
X171780798Y-113167692D01*
X171778804Y-113170069D01*
X171776399Y-113172030D01*
X171723303Y-113236212D01*
X171669775Y-113300004D01*
X171668281Y-113302722D01*
X171666302Y-113305114D01*
X171626698Y-113378361D01*
X171586565Y-113451361D01*
X171585626Y-113454321D01*
X171584151Y-113457049D01*
X171559540Y-113536556D01*
X171534339Y-113615998D01*
X171533993Y-113619084D01*
X171533076Y-113622046D01*
X171524380Y-113704787D01*
X171515086Y-113787643D01*
X171515044Y-113793608D01*
X171515022Y-113793822D01*
X171515042Y-113794036D01*
X171515000Y-113800000D01*
X171515000Y-122283421D01*
X170333420Y-123465000D01*
X130988895Y-123465000D01*
X130944653Y-123435158D01*
X130757539Y-123356503D01*
X130558710Y-123315689D01*
X130355741Y-123314272D01*
X130156363Y-123352306D01*
X129968168Y-123428341D01*
X129912147Y-123465000D01*
X105066579Y-123465000D01*
X102785000Y-121183420D01*
X102785000Y-112587026D01*
X103213639Y-112587026D01*
X103250280Y-112786665D01*
X103325000Y-112975386D01*
X103434953Y-113145999D01*
X103575950Y-113292006D01*
X103742622Y-113407846D01*
X103928620Y-113489106D01*
X104004129Y-113505708D01*
X104024138Y-113525717D01*
X104024209Y-113525789D01*
X106649210Y-116150789D01*
X106712379Y-116202676D01*
X106775003Y-116255224D01*
X106779083Y-116257467D01*
X106782678Y-116260420D01*
X106854686Y-116299031D01*
X106926360Y-116338434D01*
X106930799Y-116339842D01*
X106934898Y-116342040D01*
X107013025Y-116365926D01*
X107090997Y-116390660D01*
X107095625Y-116391179D01*
X107100073Y-116392539D01*
X107181383Y-116400798D01*
X107262642Y-116409913D01*
X107271736Y-116409976D01*
X107271910Y-116409994D01*
X107272073Y-116409979D01*
X107274999Y-116409999D01*
X129974453Y-116409999D01*
X129803855Y-116659152D01*
X129613805Y-117102571D01*
X129513502Y-117574460D01*
X129506766Y-118056844D01*
X129593854Y-118531349D01*
X129771449Y-118979902D01*
X130032786Y-119385417D01*
X130367910Y-119732449D01*
X130764058Y-120007779D01*
X131206140Y-120200919D01*
X131677317Y-120304514D01*
X132159642Y-120314618D01*
X132634744Y-120230844D01*
X133084526Y-120056386D01*
X133491855Y-119797886D01*
X133841218Y-119465192D01*
X134119307Y-119070976D01*
X134315529Y-118630254D01*
X134422411Y-118159812D01*
X134430106Y-117608785D01*
X134336401Y-117135541D01*
X134152561Y-116689512D01*
X133966853Y-116409999D01*
X141844453Y-116409999D01*
X141673855Y-116659152D01*
X141483805Y-117102571D01*
X141383502Y-117574460D01*
X141376766Y-118056844D01*
X141463854Y-118531349D01*
X141641449Y-118979902D01*
X141902786Y-119385417D01*
X142237910Y-119732449D01*
X142634058Y-120007779D01*
X143076140Y-120200919D01*
X143547317Y-120304514D01*
X144029642Y-120314618D01*
X144504744Y-120230844D01*
X144954526Y-120056386D01*
X145361855Y-119797886D01*
X145711218Y-119465192D01*
X145989307Y-119070976D01*
X146185529Y-118630254D01*
X146292411Y-118159812D01*
X146300106Y-117608785D01*
X146206401Y-117135541D01*
X146022561Y-116689512D01*
X145836853Y-116409999D01*
X148958419Y-116409999D01*
X149792456Y-117244035D01*
X149800280Y-117286665D01*
X149875000Y-117475386D01*
X149984953Y-117645999D01*
X150125950Y-117792006D01*
X150292622Y-117907846D01*
X150478620Y-117989106D01*
X150676859Y-118032692D01*
X150879788Y-118036943D01*
X151079679Y-118001697D01*
X151268916Y-117928296D01*
X151440293Y-117819537D01*
X151587281Y-117679563D01*
X151704282Y-117513703D01*
X151786839Y-117328278D01*
X151831807Y-117130348D01*
X151835044Y-116898513D01*
X151795620Y-116699405D01*
X151718273Y-116511746D01*
X151605948Y-116342684D01*
X151462926Y-116198660D01*
X151294653Y-116085158D01*
X151107539Y-116006503D01*
X151045308Y-115993729D01*
X149950789Y-114899209D01*
X149887573Y-114847283D01*
X149824995Y-114794774D01*
X149820918Y-114792533D01*
X149817321Y-114789578D01*
X149745291Y-114750956D01*
X149673638Y-114711564D01*
X149669199Y-114710156D01*
X149665100Y-114707958D01*
X149586973Y-114684072D01*
X149509001Y-114659338D01*
X149504373Y-114658819D01*
X149499925Y-114657459D01*
X149418660Y-114649205D01*
X149337356Y-114640085D01*
X149328252Y-114640022D01*
X149328088Y-114640005D01*
X149327935Y-114640019D01*
X149324999Y-114639999D01*
X107641578Y-114639999D01*
X105275789Y-112274209D01*
X105275783Y-112274204D01*
X105256640Y-112255061D01*
X105245620Y-112199405D01*
X105168273Y-112011746D01*
X105055948Y-111842684D01*
X104912926Y-111698660D01*
X104744653Y-111585158D01*
X104557539Y-111506503D01*
X104358710Y-111465689D01*
X104155741Y-111464272D01*
X103956363Y-111502306D01*
X103768168Y-111578341D01*
X103598327Y-111689482D01*
X103453308Y-111831496D01*
X103338634Y-111998972D01*
X103258674Y-112185533D01*
X103216473Y-112384071D01*
X103213639Y-112587026D01*
X102785000Y-112587026D01*
X102785000Y-110285750D01*
X113175000Y-110285750D01*
X113175000Y-110912542D01*
X113199403Y-111035223D01*
X113247270Y-111150785D01*
X113316763Y-111254789D01*
X113405211Y-111343237D01*
X113509215Y-111412730D01*
X113624777Y-111460597D01*
X113747458Y-111485000D01*
X114374250Y-111485000D01*
X114533000Y-111326250D01*
X114533000Y-110127000D01*
X113333750Y-110127000D01*
X113175000Y-110285750D01*
X102785000Y-110285750D01*
X102785000Y-109087458D01*
X113175000Y-109087458D01*
X113175000Y-109714250D01*
X113333750Y-109873000D01*
X114533000Y-109873000D01*
X114533000Y-108673750D01*
X114787000Y-108673750D01*
X114787000Y-109873000D01*
X114807000Y-109873000D01*
X114807000Y-110127000D01*
X114787000Y-110127000D01*
X114787000Y-111326250D01*
X114945750Y-111485000D01*
X115572542Y-111485000D01*
X115695223Y-111460597D01*
X115810785Y-111412730D01*
X115914789Y-111343237D01*
X116003237Y-111254789D01*
X116072730Y-111150785D01*
X116120597Y-111035223D01*
X116122701Y-111024647D01*
X116146287Y-111053567D01*
X116369599Y-111238306D01*
X116624539Y-111376152D01*
X116901399Y-111461854D01*
X117189633Y-111492149D01*
X117478261Y-111465882D01*
X117756291Y-111384053D01*
X118013131Y-111249780D01*
X118239000Y-111068177D01*
X118425294Y-110846161D01*
X118469498Y-110765753D01*
X118503112Y-110828971D01*
X118686287Y-111053567D01*
X118909599Y-111238306D01*
X119164539Y-111376152D01*
X119441399Y-111461854D01*
X119729633Y-111492149D01*
X120018261Y-111465882D01*
X120296291Y-111384053D01*
X120553131Y-111249780D01*
X120779000Y-111068177D01*
X120965294Y-110846161D01*
X121009498Y-110765753D01*
X121043112Y-110828971D01*
X121226287Y-111053567D01*
X121449599Y-111238306D01*
X121704539Y-111376152D01*
X121981399Y-111461854D01*
X122269633Y-111492149D01*
X122558261Y-111465882D01*
X122836291Y-111384053D01*
X123093131Y-111249780D01*
X123319000Y-111068177D01*
X123505294Y-110846161D01*
X123549498Y-110765753D01*
X123583112Y-110828971D01*
X123766287Y-111053567D01*
X123989599Y-111238306D01*
X124244539Y-111376152D01*
X124521399Y-111461854D01*
X124809633Y-111492149D01*
X125098261Y-111465882D01*
X125376291Y-111384053D01*
X125633131Y-111249780D01*
X125859000Y-111068177D01*
X126045294Y-110846161D01*
X126089498Y-110765753D01*
X126123112Y-110828971D01*
X126306287Y-111053567D01*
X126529599Y-111238306D01*
X126784539Y-111376152D01*
X127061399Y-111461854D01*
X127349633Y-111492149D01*
X127638261Y-111465882D01*
X127916291Y-111384053D01*
X128173131Y-111249780D01*
X128399000Y-111068177D01*
X128585294Y-110846161D01*
X128724916Y-110592189D01*
X128812549Y-110315934D01*
X128844855Y-110027919D01*
X128845000Y-110007185D01*
X128845000Y-109992815D01*
X128816718Y-109704377D01*
X128732951Y-109426925D01*
X128596888Y-109171029D01*
X128413713Y-108946433D01*
X128190401Y-108761694D01*
X127935461Y-108623848D01*
X127658601Y-108538146D01*
X127370367Y-108507851D01*
X127081739Y-108534118D01*
X126803709Y-108615947D01*
X126546869Y-108750220D01*
X126321000Y-108931823D01*
X126134706Y-109153839D01*
X126090502Y-109234247D01*
X126056888Y-109171029D01*
X125873713Y-108946433D01*
X125650401Y-108761694D01*
X125395461Y-108623848D01*
X125118601Y-108538146D01*
X124830367Y-108507851D01*
X124541739Y-108534118D01*
X124263709Y-108615947D01*
X124006869Y-108750220D01*
X123781000Y-108931823D01*
X123594706Y-109153839D01*
X123550502Y-109234247D01*
X123516888Y-109171029D01*
X123333713Y-108946433D01*
X123110401Y-108761694D01*
X123040000Y-108723628D01*
X123040000Y-96634802D01*
X125452169Y-94222633D01*
X125552657Y-94204914D01*
X125723610Y-94138606D01*
X125878429Y-94040355D01*
X126011215Y-93913904D01*
X126116911Y-93764070D01*
X126191492Y-93596560D01*
X126232116Y-93417754D01*
X126235040Y-93208319D01*
X126199425Y-93028448D01*
X126129550Y-92858920D01*
X126028079Y-92706193D01*
X125898875Y-92576084D01*
X125746860Y-92473549D01*
X125577825Y-92402493D01*
X125398207Y-92365623D01*
X125214849Y-92364343D01*
X125034733Y-92398701D01*
X125012205Y-92407803D01*
X124928079Y-92281182D01*
X124798875Y-92151073D01*
X124646860Y-92048538D01*
X124477825Y-91977482D01*
X124298207Y-91940612D01*
X124114849Y-91939332D01*
X123934733Y-91973690D01*
X123764722Y-92042379D01*
X123611291Y-92142782D01*
X123480283Y-92271075D01*
X123376689Y-92422370D01*
X123304454Y-92590905D01*
X123266331Y-92770261D01*
X123263771Y-92953606D01*
X123296872Y-93133957D01*
X123341770Y-93247357D01*
X121566485Y-95022642D01*
X121453090Y-95044273D01*
X121283079Y-95112962D01*
X121129648Y-95213365D01*
X120998640Y-95341658D01*
X120895046Y-95492953D01*
X120822811Y-95661488D01*
X120794515Y-95794612D01*
X119202599Y-97386528D01*
X119158032Y-97440784D01*
X119112914Y-97494554D01*
X119110989Y-97498055D01*
X119108452Y-97501144D01*
X119075287Y-97562996D01*
X119041457Y-97624533D01*
X119040248Y-97628345D01*
X119038361Y-97631864D01*
X119017848Y-97698960D01*
X118996608Y-97765916D01*
X118996162Y-97769888D01*
X118994994Y-97773710D01*
X118987897Y-97843578D01*
X118980074Y-97913318D01*
X118980020Y-97921123D01*
X118980004Y-97921276D01*
X118980018Y-97921419D01*
X118980000Y-97923929D01*
X118980000Y-108722444D01*
X118926869Y-108750220D01*
X118701000Y-108931823D01*
X118514706Y-109153839D01*
X118470502Y-109234247D01*
X118436888Y-109171029D01*
X118253713Y-108946433D01*
X118030401Y-108761694D01*
X117775461Y-108623848D01*
X117498601Y-108538146D01*
X117210367Y-108507851D01*
X116921739Y-108534118D01*
X116643709Y-108615947D01*
X116386869Y-108750220D01*
X116161000Y-108931823D01*
X116123041Y-108977061D01*
X116120597Y-108964777D01*
X116072730Y-108849215D01*
X116003237Y-108745211D01*
X115914789Y-108656763D01*
X115810785Y-108587270D01*
X115695223Y-108539403D01*
X115572542Y-108515000D01*
X114945750Y-108515000D01*
X114787000Y-108673750D01*
X114533000Y-108673750D01*
X114374250Y-108515000D01*
X113747458Y-108515000D01*
X113624777Y-108539403D01*
X113509215Y-108587270D01*
X113405211Y-108656763D01*
X113316763Y-108745211D01*
X113247270Y-108849215D01*
X113199403Y-108964777D01*
X113175000Y-109087458D01*
X102785000Y-109087458D01*
X102785000Y-101041037D01*
X102804282Y-101013703D01*
X102886839Y-100828278D01*
X102931807Y-100630348D01*
X102935044Y-100398513D01*
X102895620Y-100199405D01*
X102818273Y-100011746D01*
X102785000Y-99961666D01*
X102785000Y-81000000D01*
X110123000Y-81000000D01*
X110123000Y-91500000D01*
X110131601Y-91545942D01*
X110158803Y-91588386D01*
X110200375Y-91616903D01*
X110249767Y-91627000D01*
X117594296Y-91640473D01*
X117624203Y-91636958D01*
X117669908Y-91615684D01*
X117703735Y-91578304D01*
X117720354Y-91530709D01*
X117820354Y-90800709D01*
X117821529Y-90783473D01*
X117821529Y-88883473D01*
X117812721Y-88837002D01*
X117785330Y-88794680D01*
X117743630Y-88766349D01*
X117694194Y-88756473D01*
X115347000Y-88762664D01*
X115347000Y-81020000D01*
X115338499Y-80974317D01*
X115311390Y-80931814D01*
X115269881Y-80903206D01*
X115220511Y-80893001D01*
X110250511Y-80873001D01*
X110203841Y-80881685D01*
X110161447Y-80908965D01*
X110133006Y-80950590D01*
X110123000Y-81000000D01*
X102785000Y-81000000D01*
X102785000Y-73725001D01*
X110514999Y-73725001D01*
X110514999Y-75628001D01*
X110521850Y-75697878D01*
X110527968Y-75767804D01*
X110529083Y-75771642D01*
X110529473Y-75775619D01*
X110549763Y-75842822D01*
X110569350Y-75910241D01*
X110571189Y-75913789D01*
X110572344Y-75917614D01*
X110605298Y-75979592D01*
X110637609Y-76041926D01*
X110640102Y-76045049D01*
X110641979Y-76048579D01*
X110686354Y-76102988D01*
X110730147Y-76157847D01*
X110735630Y-76163407D01*
X110735725Y-76163523D01*
X110735833Y-76163612D01*
X110737598Y-76165402D01*
X115940000Y-81367804D01*
X115940000Y-83254918D01*
X115876689Y-83347381D01*
X115804454Y-83515916D01*
X115766331Y-83695272D01*
X115763771Y-83878617D01*
X115796872Y-84058968D01*
X115864372Y-84229454D01*
X115963701Y-84383583D01*
X116091076Y-84515484D01*
X116241644Y-84620131D01*
X116409671Y-84693540D01*
X116588757Y-84732915D01*
X116772079Y-84736755D01*
X116952657Y-84704914D01*
X117123610Y-84638606D01*
X117278429Y-84540355D01*
X117411215Y-84413904D01*
X117516911Y-84264070D01*
X117591492Y-84096560D01*
X117632116Y-83917754D01*
X117635040Y-83708319D01*
X117599425Y-83528448D01*
X117529550Y-83358920D01*
X117460000Y-83254238D01*
X117460000Y-81074802D01*
X120640000Y-84254802D01*
X120640000Y-89854918D01*
X120576689Y-89947381D01*
X120504454Y-90115916D01*
X120466331Y-90295272D01*
X120463771Y-90478617D01*
X120496872Y-90658968D01*
X120564372Y-90829454D01*
X120663701Y-90983583D01*
X120791076Y-91115484D01*
X120941644Y-91220131D01*
X121109671Y-91293540D01*
X121288757Y-91332915D01*
X121472079Y-91336755D01*
X121652657Y-91304914D01*
X121823610Y-91238606D01*
X121978429Y-91140355D01*
X122111215Y-91013904D01*
X122216911Y-90864070D01*
X122291492Y-90696560D01*
X122332116Y-90517754D01*
X122335040Y-90308319D01*
X122319224Y-90228442D01*
X122452657Y-90204914D01*
X122623610Y-90138606D01*
X122778429Y-90040355D01*
X122911215Y-89913904D01*
X123016911Y-89764070D01*
X123091492Y-89596560D01*
X123124786Y-89450016D01*
X133970000Y-78604802D01*
X133970000Y-107802075D01*
X133857955Y-107875395D01*
X133663895Y-108065432D01*
X133510443Y-108289543D01*
X133403444Y-108539192D01*
X133346972Y-108804869D01*
X133343180Y-109076455D01*
X133392211Y-109343605D01*
X133492198Y-109596144D01*
X133639333Y-109824452D01*
X133828011Y-110019834D01*
X133960517Y-110111928D01*
X132710000Y-110111928D01*
X132608879Y-110119992D01*
X132437366Y-110173106D01*
X132287441Y-110271900D01*
X132170975Y-110408550D01*
X132097190Y-110572237D01*
X132071928Y-110750000D01*
X132071928Y-112250000D01*
X132079992Y-112351121D01*
X132133106Y-112522634D01*
X132231900Y-112672559D01*
X132368550Y-112789025D01*
X132532237Y-112862810D01*
X132710000Y-112888072D01*
X134210000Y-112888072D01*
X134311121Y-112880008D01*
X134482634Y-112826894D01*
X134632559Y-112728100D01*
X134749025Y-112591450D01*
X134822810Y-112427763D01*
X134845814Y-112265890D01*
X134909333Y-112364452D01*
X135098011Y-112559834D01*
X135321045Y-112714847D01*
X135569941Y-112823586D01*
X135835217Y-112881911D01*
X136106770Y-112887599D01*
X136374256Y-112840434D01*
X136627487Y-112742213D01*
X136856817Y-112596675D01*
X137053511Y-112409366D01*
X137210077Y-112187419D01*
X137269583Y-112053767D01*
X137302198Y-112136144D01*
X137449333Y-112364452D01*
X137638011Y-112559834D01*
X137861045Y-112714847D01*
X138109941Y-112823586D01*
X138375217Y-112881911D01*
X138646770Y-112887599D01*
X138914256Y-112840434D01*
X139167487Y-112742213D01*
X139396817Y-112596675D01*
X139593511Y-112409366D01*
X139750077Y-112187419D01*
X139809583Y-112053767D01*
X139842198Y-112136144D01*
X139989333Y-112364452D01*
X140178011Y-112559834D01*
X140401045Y-112714847D01*
X140649941Y-112823586D01*
X140915217Y-112881911D01*
X141186770Y-112887599D01*
X141454256Y-112840434D01*
X141707487Y-112742213D01*
X141936817Y-112596675D01*
X142133511Y-112409366D01*
X142290077Y-112187419D01*
X142400552Y-111939289D01*
X142460727Y-111674426D01*
X142465059Y-111364194D01*
X142412303Y-111097754D01*
X142308799Y-110846636D01*
X142158491Y-110620404D01*
X141967104Y-110427676D01*
X141741927Y-110275792D01*
X141491537Y-110170538D01*
X141225472Y-110115923D01*
X140953867Y-110114027D01*
X140687065Y-110164922D01*
X140435230Y-110266670D01*
X140207955Y-110415395D01*
X140013895Y-110605432D01*
X139860443Y-110829543D01*
X139810134Y-110946923D01*
X139768799Y-110846636D01*
X139618491Y-110620404D01*
X139427104Y-110427676D01*
X139201927Y-110275792D01*
X138951537Y-110170538D01*
X138685472Y-110115923D01*
X138413867Y-110114027D01*
X138147065Y-110164922D01*
X137895230Y-110266670D01*
X137667955Y-110415395D01*
X137473895Y-110605432D01*
X137320443Y-110829543D01*
X137270134Y-110946923D01*
X137228799Y-110846636D01*
X137078491Y-110620404D01*
X136887104Y-110427676D01*
X136661927Y-110275792D01*
X136411537Y-110170538D01*
X136285199Y-110144605D01*
X136392765Y-110037039D01*
X136591045Y-110174847D01*
X136839941Y-110283586D01*
X137105217Y-110341911D01*
X137376770Y-110347599D01*
X137644256Y-110300434D01*
X137897487Y-110202213D01*
X138126817Y-110056675D01*
X138323511Y-109869366D01*
X138480077Y-109647419D01*
X138539583Y-109513767D01*
X138572198Y-109596144D01*
X138719333Y-109824452D01*
X138908011Y-110019834D01*
X139131045Y-110174847D01*
X139379941Y-110283586D01*
X139645217Y-110341911D01*
X139916770Y-110347599D01*
X140184256Y-110300434D01*
X140437487Y-110202213D01*
X140666817Y-110056675D01*
X140863511Y-109869366D01*
X141020077Y-109647419D01*
X141079583Y-109513767D01*
X141112198Y-109596144D01*
X141259333Y-109824452D01*
X141448011Y-110019834D01*
X141671045Y-110174847D01*
X141919941Y-110283586D01*
X142185217Y-110341911D01*
X142456770Y-110347599D01*
X142724256Y-110300434D01*
X142977487Y-110202213D01*
X143206817Y-110056675D01*
X143403511Y-109869366D01*
X143560077Y-109647419D01*
X143670552Y-109399289D01*
X143730727Y-109134426D01*
X143733004Y-108971335D01*
X146468758Y-108971335D01*
X146582999Y-109593786D01*
X146815966Y-110182192D01*
X147158785Y-110714142D01*
X147598397Y-111169375D01*
X148118059Y-111530549D01*
X148697977Y-111783909D01*
X149316062Y-111919804D01*
X149948770Y-111933057D01*
X150572003Y-111823164D01*
X151162022Y-111594311D01*
X151696353Y-111255215D01*
X152154643Y-110818791D01*
X152519436Y-110301663D01*
X152776839Y-109723528D01*
X152917045Y-109106407D01*
X152927138Y-108383576D01*
X152804218Y-107762781D01*
X152563058Y-107177685D01*
X152212846Y-106650573D01*
X151766920Y-106201523D01*
X151242266Y-105847639D01*
X150658867Y-105602401D01*
X150038945Y-105475149D01*
X149406114Y-105470731D01*
X148784476Y-105589315D01*
X148197710Y-105826384D01*
X147668166Y-106172908D01*
X147216014Y-106615688D01*
X146858476Y-107137859D01*
X146609171Y-107719531D01*
X146477594Y-108338549D01*
X146468758Y-108971335D01*
X143733004Y-108971335D01*
X143735059Y-108824194D01*
X143682303Y-108557754D01*
X143578799Y-108306636D01*
X143428491Y-108080404D01*
X143237104Y-107887676D01*
X143011927Y-107735792D01*
X142761537Y-107630538D01*
X142495472Y-107575923D01*
X142223867Y-107574027D01*
X141957065Y-107624922D01*
X141705230Y-107726670D01*
X141477955Y-107875395D01*
X141283895Y-108065432D01*
X141130443Y-108289543D01*
X141080134Y-108406923D01*
X141038799Y-108306636D01*
X140888491Y-108080404D01*
X140697104Y-107887676D01*
X140471927Y-107735792D01*
X140221537Y-107630538D01*
X139955472Y-107575923D01*
X139683867Y-107574027D01*
X139417065Y-107624922D01*
X139165230Y-107726670D01*
X138937955Y-107875395D01*
X138743895Y-108065432D01*
X138590443Y-108289543D01*
X138540134Y-108406923D01*
X138498799Y-108306636D01*
X138348491Y-108080404D01*
X138157104Y-107887676D01*
X138030000Y-107801943D01*
X138030000Y-78444802D01*
X140052169Y-76422633D01*
X140152657Y-76404914D01*
X140323610Y-76338606D01*
X140478429Y-76240355D01*
X140611215Y-76113904D01*
X140716911Y-75964070D01*
X140791492Y-75796560D01*
X140832116Y-75617754D01*
X140832584Y-75584255D01*
X140894879Y-75578147D01*
X140964805Y-75572029D01*
X140968643Y-75570914D01*
X140972620Y-75570524D01*
X141039823Y-75550234D01*
X141107242Y-75530647D01*
X141110790Y-75528808D01*
X141114615Y-75527653D01*
X141176593Y-75494699D01*
X141238927Y-75462388D01*
X141242050Y-75459895D01*
X141245580Y-75458018D01*
X141299989Y-75413643D01*
X141354848Y-75369850D01*
X141360408Y-75364367D01*
X141360524Y-75364272D01*
X141360613Y-75364164D01*
X141362403Y-75362399D01*
X142867401Y-73857401D01*
X142911995Y-73803112D01*
X142957086Y-73749375D01*
X142959011Y-73745874D01*
X142961548Y-73742785D01*
X142994732Y-73680898D01*
X143028543Y-73619396D01*
X143029751Y-73615588D01*
X143031640Y-73612065D01*
X143052180Y-73544882D01*
X143073392Y-73478013D01*
X143073837Y-73474046D01*
X143075007Y-73470219D01*
X143082109Y-73400301D01*
X143089926Y-73330611D01*
X143089980Y-73322806D01*
X143089996Y-73322653D01*
X143089982Y-73322510D01*
X143090000Y-73320000D01*
X143090000Y-65887275D01*
X143115000Y-65885281D01*
X143115000Y-84500000D01*
X143122977Y-84581356D01*
X143130102Y-84662796D01*
X143131401Y-84667267D01*
X143131855Y-84671897D01*
X143155475Y-84750131D01*
X143178290Y-84828660D01*
X143180432Y-84832793D01*
X143181777Y-84837247D01*
X143220135Y-84909388D01*
X143257776Y-84982006D01*
X143260682Y-84985646D01*
X143262865Y-84989752D01*
X143314507Y-85053071D01*
X143365534Y-85116991D01*
X143371927Y-85123474D01*
X143372030Y-85123601D01*
X143372147Y-85123698D01*
X143374210Y-85125790D01*
X156290349Y-98041928D01*
X154220000Y-98041928D01*
X154118879Y-98049992D01*
X153947366Y-98103106D01*
X153797441Y-98201900D01*
X153680975Y-98338550D01*
X153607190Y-98502237D01*
X153581928Y-98680000D01*
X153581928Y-101280000D01*
X153589992Y-101381121D01*
X153643106Y-101552634D01*
X153741900Y-101702559D01*
X153878550Y-101819025D01*
X154042237Y-101892810D01*
X154220000Y-101918072D01*
X156820000Y-101918072D01*
X156921121Y-101910008D01*
X157092634Y-101856894D01*
X157242559Y-101758100D01*
X157359025Y-101621450D01*
X157432810Y-101457763D01*
X157458072Y-101280000D01*
X157458072Y-99209651D01*
X157630807Y-99382386D01*
X157626651Y-99392083D01*
X157547754Y-99763264D01*
X157542456Y-100142700D01*
X157610958Y-100515939D01*
X157750652Y-100868764D01*
X157956215Y-101187737D01*
X158219820Y-101460707D01*
X158531424Y-101677277D01*
X158879159Y-101829199D01*
X159249780Y-101910685D01*
X159629170Y-101918632D01*
X160002878Y-101852738D01*
X160356670Y-101715511D01*
X160677069Y-101512179D01*
X160951873Y-101250487D01*
X161170614Y-100940402D01*
X161324959Y-100593736D01*
X161409031Y-100223693D01*
X161415083Y-99790263D01*
X161341377Y-99418017D01*
X161196771Y-99067177D01*
X160986773Y-98751106D01*
X160719384Y-98481843D01*
X160404786Y-98269644D01*
X160054964Y-98122592D01*
X159683241Y-98046288D01*
X159303777Y-98043639D01*
X158931026Y-98114745D01*
X158884943Y-98133364D01*
X144885000Y-84133420D01*
X144885000Y-83087026D01*
X161213639Y-83087026D01*
X161250280Y-83286665D01*
X161325000Y-83475386D01*
X161434953Y-83645999D01*
X161575950Y-83792006D01*
X161742622Y-83907846D01*
X161928620Y-83989106D01*
X162126859Y-84032692D01*
X162329788Y-84036943D01*
X162529679Y-84001697D01*
X162718916Y-83928296D01*
X162890293Y-83819537D01*
X163037281Y-83679563D01*
X163154282Y-83513703D01*
X163236839Y-83328278D01*
X163255518Y-83246062D01*
X172125789Y-74375790D01*
X172177669Y-74312630D01*
X172230225Y-74249996D01*
X172232468Y-74245915D01*
X172235420Y-74242322D01*
X172274013Y-74170347D01*
X172313435Y-74098639D01*
X172314844Y-74094198D01*
X172317040Y-74090102D01*
X172340921Y-74011994D01*
X172365661Y-73934002D01*
X172366180Y-73929375D01*
X172367540Y-73924927D01*
X172375795Y-73843651D01*
X172384914Y-73762357D01*
X172384977Y-73753254D01*
X172384994Y-73753090D01*
X172384980Y-73752937D01*
X172385000Y-73750000D01*
X172385000Y-67291037D01*
X172404282Y-67263703D01*
X172486839Y-67078278D01*
X172531807Y-66880348D01*
X172535044Y-66648513D01*
X172495620Y-66449405D01*
X172418273Y-66261746D01*
X172305948Y-66092684D01*
X172162926Y-65948660D01*
X171994653Y-65835158D01*
X171807539Y-65756503D01*
X171608710Y-65715689D01*
X171405741Y-65714272D01*
X171206363Y-65752306D01*
X171018168Y-65828341D01*
X170848327Y-65939482D01*
X170703308Y-66081496D01*
X170588634Y-66248972D01*
X170508674Y-66435533D01*
X170466473Y-66634071D01*
X170463639Y-66837026D01*
X170500280Y-67036665D01*
X170575000Y-67225386D01*
X170615000Y-67287454D01*
X170615000Y-73383421D01*
X162005485Y-81992935D01*
X161956363Y-82002306D01*
X161768168Y-82078341D01*
X161598327Y-82189482D01*
X161453308Y-82331496D01*
X161338634Y-82498972D01*
X161258674Y-82685533D01*
X161216473Y-82884071D01*
X161213639Y-83087026D01*
X144885000Y-83087026D01*
X144885000Y-65271335D01*
X148768758Y-65271335D01*
X148882999Y-65893786D01*
X149115966Y-66482192D01*
X149458785Y-67014142D01*
X149898397Y-67469375D01*
X150418059Y-67830549D01*
X150997977Y-68083909D01*
X151616062Y-68219804D01*
X152248770Y-68233057D01*
X152872003Y-68123164D01*
X153462022Y-67894311D01*
X153996353Y-67555215D01*
X154454643Y-67118791D01*
X154819436Y-66601663D01*
X155076839Y-66023528D01*
X155217045Y-65406407D01*
X155227138Y-64683576D01*
X155104218Y-64062781D01*
X154863058Y-63477685D01*
X154512846Y-62950573D01*
X154066920Y-62501523D01*
X153542266Y-62147639D01*
X152958867Y-61902401D01*
X152338945Y-61775149D01*
X151706114Y-61770731D01*
X151084476Y-61889315D01*
X150497710Y-62126384D01*
X149968166Y-62472908D01*
X149516014Y-62915688D01*
X149158476Y-63437859D01*
X148909171Y-64019531D01*
X148777594Y-64638549D01*
X148768758Y-65271335D01*
X144885000Y-65271335D01*
X144885000Y-63769998D01*
X144877022Y-63688638D01*
X144869898Y-63607202D01*
X144868599Y-63602731D01*
X144868145Y-63598101D01*
X144844539Y-63519913D01*
X144821711Y-63441338D01*
X144819566Y-63437201D01*
X144818223Y-63432751D01*
X144779873Y-63360625D01*
X144742224Y-63287993D01*
X144739320Y-63284355D01*
X144737135Y-63280246D01*
X144685500Y-63216936D01*
X144634467Y-63153007D01*
X144628076Y-63146526D01*
X144627970Y-63146397D01*
X144627850Y-63146298D01*
X144625790Y-63144209D01*
X144105791Y-62624209D01*
X144042575Y-62572283D01*
X143979997Y-62519774D01*
X143975920Y-62517533D01*
X143972323Y-62514578D01*
X143900293Y-62475956D01*
X143828640Y-62436564D01*
X143824201Y-62435156D01*
X143820102Y-62432958D01*
X143741975Y-62409072D01*
X143664003Y-62384338D01*
X143659375Y-62383819D01*
X143654927Y-62382459D01*
X143573662Y-62374205D01*
X143492358Y-62365085D01*
X143483254Y-62365022D01*
X143483090Y-62365005D01*
X143482937Y-62365019D01*
X143480001Y-62364999D01*
X137386581Y-62364999D01*
X139443503Y-60308076D01*
X139479679Y-60301697D01*
X139668916Y-60228296D01*
X139840293Y-60119537D01*
X139987281Y-59979563D01*
X140104282Y-59813703D01*
X140186839Y-59628278D01*
X140231807Y-59430348D01*
X140235044Y-59198513D01*
X140195620Y-58999405D01*
X140118273Y-58811746D01*
X140005948Y-58642684D01*
X139862926Y-58498660D01*
X139694653Y-58385158D01*
X139627297Y-58356844D01*
X141356766Y-58356844D01*
X141443854Y-58831349D01*
X141621449Y-59279902D01*
X141882786Y-59685417D01*
X142217910Y-60032449D01*
X142614058Y-60307779D01*
X143056140Y-60500919D01*
X143527317Y-60604514D01*
X144009642Y-60614618D01*
X144484744Y-60530844D01*
X144934526Y-60356386D01*
X145341855Y-60097886D01*
X145691218Y-59765192D01*
X145969307Y-59370976D01*
X146165529Y-58930254D01*
X146272411Y-58459812D01*
X146280106Y-57908785D01*
X146186401Y-57435541D01*
X146002561Y-56989512D01*
X145735588Y-56587685D01*
X145395650Y-56245366D01*
X144995697Y-55975594D01*
X144550962Y-55788645D01*
X144078384Y-55691638D01*
X143595965Y-55688270D01*
X143122079Y-55778669D01*
X142674777Y-55959391D01*
X142271096Y-56223552D01*
X141926412Y-56561091D01*
X141653855Y-56959152D01*
X141463805Y-57402571D01*
X141363502Y-57874460D01*
X141356766Y-58356844D01*
X139627297Y-58356844D01*
X139507539Y-58306503D01*
X139308710Y-58265689D01*
X139105741Y-58264272D01*
X138906363Y-58302306D01*
X138718168Y-58378341D01*
X138548327Y-58489482D01*
X138403308Y-58631496D01*
X138288634Y-58798972D01*
X138208674Y-58985533D01*
X138194040Y-59054381D01*
X135334211Y-61914209D01*
X135282285Y-61977425D01*
X135229776Y-62040003D01*
X135227535Y-62044080D01*
X135224580Y-62047677D01*
X135185958Y-62119707D01*
X135146566Y-62191360D01*
X135145158Y-62195799D01*
X135142960Y-62199898D01*
X135119074Y-62278025D01*
X135094340Y-62355997D01*
X135093821Y-62360625D01*
X135092461Y-62365073D01*
X135084207Y-62446338D01*
X135075087Y-62527642D01*
X135075024Y-62536746D01*
X135075007Y-62536910D01*
X135075021Y-62537063D01*
X135075001Y-62539999D01*
X135075001Y-62883419D01*
X134842587Y-63115833D01*
X134583867Y-63114027D01*
X134317065Y-63164922D01*
X134065230Y-63266670D01*
X133837955Y-63415395D01*
X133643895Y-63605432D01*
X133490443Y-63829543D01*
X133383444Y-64079192D01*
X133326972Y-64344869D01*
X133323180Y-64616455D01*
X133326093Y-64632327D01*
X132814210Y-65144210D01*
X132762284Y-65207426D01*
X132709775Y-65270004D01*
X132707534Y-65274081D01*
X132704579Y-65277678D01*
X132665957Y-65349708D01*
X132626565Y-65421361D01*
X132625157Y-65425800D01*
X132622959Y-65429899D01*
X132599073Y-65508026D01*
X132574339Y-65585998D01*
X132573820Y-65590626D01*
X132572460Y-65595074D01*
X132564206Y-65676339D01*
X132555086Y-65757643D01*
X132555023Y-65766747D01*
X132555006Y-65766911D01*
X132555020Y-65767064D01*
X132555000Y-65770000D01*
X132555000Y-65968081D01*
X132373895Y-66145432D01*
X132220443Y-66369543D01*
X132113444Y-66619192D01*
X132056972Y-66884869D01*
X132053180Y-67156455D01*
X132102211Y-67423605D01*
X132202198Y-67676144D01*
X132349333Y-67904452D01*
X132538011Y-68099834D01*
X132761045Y-68254847D01*
X133009941Y-68363586D01*
X133275217Y-68421911D01*
X133546770Y-68427599D01*
X133814256Y-68380434D01*
X134067487Y-68282213D01*
X134296817Y-68136675D01*
X134493511Y-67949366D01*
X134650077Y-67727419D01*
X134709583Y-67593767D01*
X134742198Y-67676144D01*
X134889333Y-67904452D01*
X135078011Y-68099834D01*
X135301045Y-68254847D01*
X135549941Y-68363586D01*
X135815217Y-68421911D01*
X136058197Y-68427001D01*
X123445198Y-81040000D01*
X122745378Y-81040000D01*
X122646860Y-80973549D01*
X122477825Y-80902493D01*
X122298207Y-80865623D01*
X122114849Y-80864343D01*
X121934733Y-80898701D01*
X121764722Y-80967390D01*
X121611291Y-81067793D01*
X121480283Y-81196086D01*
X121376689Y-81347381D01*
X121304454Y-81515916D01*
X121266331Y-81695272D01*
X121263771Y-81878617D01*
X121296872Y-82058968D01*
X121364372Y-82229454D01*
X121463701Y-82383583D01*
X121591076Y-82515484D01*
X121741644Y-82620131D01*
X121909671Y-82693540D01*
X122088757Y-82732915D01*
X122272079Y-82736755D01*
X122452657Y-82704914D01*
X122623610Y-82638606D01*
X122747473Y-82560000D01*
X123760000Y-82560000D01*
X123829877Y-82553149D01*
X123899803Y-82547031D01*
X123903641Y-82545916D01*
X123907618Y-82545526D01*
X123974821Y-82525236D01*
X124042240Y-82505649D01*
X124045788Y-82503810D01*
X124049613Y-82502655D01*
X124111591Y-82469701D01*
X124173925Y-82437390D01*
X124177048Y-82434897D01*
X124180578Y-82433020D01*
X124234987Y-82388645D01*
X124289846Y-82344852D01*
X124295406Y-82339369D01*
X124295522Y-82339274D01*
X124295611Y-82339166D01*
X124297401Y-82337401D01*
X138238543Y-68396259D01*
X138355217Y-68421911D01*
X138626770Y-68427599D01*
X138894256Y-68380434D01*
X139030000Y-68327783D01*
X139030000Y-71395198D01*
X122160000Y-88265198D01*
X122160000Y-83940000D01*
X122153148Y-83870119D01*
X122147031Y-83800197D01*
X122145916Y-83796359D01*
X122145526Y-83792382D01*
X122125246Y-83725212D01*
X122105650Y-83657761D01*
X122103809Y-83654210D01*
X122102655Y-83650387D01*
X122069710Y-83588426D01*
X122037390Y-83526075D01*
X122034897Y-83522952D01*
X122033020Y-83519422D01*
X121988645Y-83465013D01*
X121944852Y-83410154D01*
X121939369Y-83404594D01*
X121939274Y-83404478D01*
X121939166Y-83404389D01*
X121937401Y-83402599D01*
X119679197Y-81144395D01*
X119711215Y-81113904D01*
X119816911Y-80964070D01*
X119891492Y-80796560D01*
X119932116Y-80617754D01*
X119935040Y-80408319D01*
X119899425Y-80228448D01*
X119829550Y-80058920D01*
X119760000Y-79954238D01*
X119760000Y-76460000D01*
X119753148Y-76390119D01*
X119747031Y-76320197D01*
X119745916Y-76316359D01*
X119745526Y-76312382D01*
X119725246Y-76245212D01*
X119705650Y-76177761D01*
X119703809Y-76174210D01*
X119702655Y-76170387D01*
X119669710Y-76108426D01*
X119637390Y-76046075D01*
X119634897Y-76042952D01*
X119633020Y-76039422D01*
X119588645Y-75985013D01*
X119544852Y-75930154D01*
X119539369Y-75924594D01*
X119539274Y-75924478D01*
X119539166Y-75924389D01*
X119537401Y-75922599D01*
X116480946Y-72866144D01*
X116501854Y-72798601D01*
X116532149Y-72510367D01*
X116505882Y-72221739D01*
X116424053Y-71943709D01*
X116289780Y-71686869D01*
X116108177Y-71461000D01*
X115886161Y-71274706D01*
X115800111Y-71227400D01*
X115921355Y-71155178D01*
X116137588Y-70960269D01*
X116311641Y-70726920D01*
X116436825Y-70464099D01*
X116481476Y-70316890D01*
X116360155Y-70087000D01*
X115167000Y-70087000D01*
X115167000Y-70107000D01*
X114913000Y-70107000D01*
X114913000Y-70087000D01*
X114893000Y-70087000D01*
X114893000Y-69833000D01*
X114913000Y-69833000D01*
X114913000Y-68639186D01*
X115167000Y-68639186D01*
X115167000Y-69833000D01*
X116360155Y-69833000D01*
X116481476Y-69603110D01*
X116436825Y-69455901D01*
X116311641Y-69193080D01*
X116137588Y-68959731D01*
X115921355Y-68764822D01*
X115671252Y-68615843D01*
X115396891Y-68518519D01*
X115167000Y-68639186D01*
X114913000Y-68639186D01*
X114683109Y-68518519D01*
X114408748Y-68615843D01*
X114158645Y-68764822D01*
X113959905Y-68943963D01*
X113926894Y-68837366D01*
X113828100Y-68687441D01*
X113691450Y-68570975D01*
X113527763Y-68497190D01*
X113350000Y-68471928D01*
X111650000Y-68471928D01*
X111548879Y-68479992D01*
X111377366Y-68533106D01*
X111227441Y-68631900D01*
X111110975Y-68768550D01*
X111037190Y-68932237D01*
X111011928Y-69110000D01*
X111011928Y-70810000D01*
X111019992Y-70911121D01*
X111073106Y-71082634D01*
X111171900Y-71232559D01*
X111308550Y-71349025D01*
X111472237Y-71422810D01*
X111474776Y-71423171D01*
X111446433Y-71446287D01*
X111261694Y-71669599D01*
X111123848Y-71924539D01*
X111038146Y-72201399D01*
X111007851Y-72489633D01*
X111034118Y-72778261D01*
X111059772Y-72865426D01*
X110737598Y-73187600D01*
X110693031Y-73241856D01*
X110647913Y-73295626D01*
X110645988Y-73299127D01*
X110643451Y-73302216D01*
X110610286Y-73364068D01*
X110576456Y-73425605D01*
X110575247Y-73429417D01*
X110573360Y-73432936D01*
X110552847Y-73500032D01*
X110531607Y-73566988D01*
X110531161Y-73570960D01*
X110529993Y-73574782D01*
X110522896Y-73644650D01*
X110515073Y-73714390D01*
X110515019Y-73722195D01*
X110515003Y-73722348D01*
X110515017Y-73722491D01*
X110514999Y-73725001D01*
X102785000Y-73725001D01*
X102785000Y-65271335D01*
X120768758Y-65271335D01*
X120882999Y-65893786D01*
X121115966Y-66482192D01*
X121458785Y-67014142D01*
X121898397Y-67469375D01*
X122418059Y-67830549D01*
X122997977Y-68083909D01*
X123616062Y-68219804D01*
X124248770Y-68233057D01*
X124872003Y-68123164D01*
X125462022Y-67894311D01*
X125996353Y-67555215D01*
X126454643Y-67118791D01*
X126819436Y-66601663D01*
X127076839Y-66023528D01*
X127217045Y-65406407D01*
X127227138Y-64683576D01*
X127104218Y-64062781D01*
X126863058Y-63477685D01*
X126512846Y-62950573D01*
X126066920Y-62501523D01*
X125542266Y-62147639D01*
X124958867Y-61902401D01*
X124338945Y-61775149D01*
X123706114Y-61770731D01*
X123084476Y-61889315D01*
X122497710Y-62126384D01*
X121968166Y-62472908D01*
X121516014Y-62915688D01*
X121158476Y-63437859D01*
X120909171Y-64019531D01*
X120777594Y-64638549D01*
X120768758Y-65271335D01*
X102785000Y-65271335D01*
X102785000Y-63471037D01*
X102804282Y-63443703D01*
X102886839Y-63258278D01*
X102931807Y-63060348D01*
X102935044Y-62828513D01*
X102895620Y-62629405D01*
X102818273Y-62441746D01*
X102785000Y-62391666D01*
X102785000Y-60866580D01*
X105294735Y-58356844D01*
X129486766Y-58356844D01*
X129573854Y-58831349D01*
X129751449Y-59279902D01*
X130012786Y-59685417D01*
X130347910Y-60032449D01*
X130744058Y-60307779D01*
X131186140Y-60500919D01*
X131657317Y-60604514D01*
X132139642Y-60614618D01*
X132614744Y-60530844D01*
X133064526Y-60356386D01*
X133471855Y-60097886D01*
X133821218Y-59765192D01*
X134099307Y-59370976D01*
X134295529Y-58930254D01*
X134402411Y-58459812D01*
X134410106Y-57908785D01*
X134316401Y-57435541D01*
X134132561Y-56989512D01*
X133865588Y-56587685D01*
X133525650Y-56245366D01*
X133125697Y-55975594D01*
X132680962Y-55788645D01*
X132208384Y-55691638D01*
X131725965Y-55688270D01*
X131252079Y-55778669D01*
X130804777Y-55959391D01*
X130401096Y-56223552D01*
X130056412Y-56561091D01*
X129783855Y-56959152D01*
X129593805Y-57402571D01*
X129493502Y-57874460D01*
X129486766Y-58356844D01*
X105294735Y-58356844D01*
X109016579Y-54635000D01*
X149209751Y-54635000D01*
X149242622Y-54657846D01*
M02*
