G04 #@! TF.FileFunction,Legend,Bot*
%FSLAX46Y46*%
G04 Gerber Fmt 4.6, Leading zero omitted, Abs format (unit mm)*
G04 Created by KiCad (PCBNEW 4.0.5) date Monday, March 13, 2017 'PMt' 09:43:04 PM*
%MOMM*%
%LPD*%
G01*
G04 APERTURE LIST*
%ADD10C,0.100000*%
%ADD11C,0.300000*%
%ADD12C,0.010000*%
G04 APERTURE END LIST*
D10*
D11*
X149202381Y-81504762D02*
X149202381Y-82933333D01*
X149297619Y-83219048D01*
X149488095Y-83409524D01*
X149773810Y-83504762D01*
X149964286Y-83504762D01*
X147488095Y-83409524D02*
X147678571Y-83504762D01*
X148059523Y-83504762D01*
X148250000Y-83409524D01*
X148345238Y-83219048D01*
X148345238Y-82457143D01*
X148250000Y-82266667D01*
X148059523Y-82171429D01*
X147678571Y-82171429D01*
X147488095Y-82266667D01*
X147392857Y-82457143D01*
X147392857Y-82647619D01*
X148345238Y-82838095D01*
X146535714Y-83504762D02*
X146535714Y-82171429D01*
X146535714Y-82552381D02*
X146440475Y-82361905D01*
X146345237Y-82266667D01*
X146154761Y-82171429D01*
X145964285Y-82171429D01*
X144535714Y-83409524D02*
X144726190Y-83504762D01*
X145107142Y-83504762D01*
X145297619Y-83409524D01*
X145392857Y-83219048D01*
X145392857Y-82457143D01*
X145297619Y-82266667D01*
X145107142Y-82171429D01*
X144726190Y-82171429D01*
X144535714Y-82266667D01*
X144440476Y-82457143D01*
X144440476Y-82647619D01*
X145392857Y-82838095D01*
X143583333Y-83504762D02*
X143583333Y-82171429D01*
X143583333Y-82361905D02*
X143488094Y-82266667D01*
X143297618Y-82171429D01*
X143011904Y-82171429D01*
X142821428Y-82266667D01*
X142726190Y-82457143D01*
X142726190Y-83504762D01*
X142726190Y-82457143D02*
X142630952Y-82266667D01*
X142440475Y-82171429D01*
X142154761Y-82171429D01*
X141964285Y-82266667D01*
X141869047Y-82457143D01*
X141869047Y-83504762D01*
X141107142Y-82171429D02*
X140630951Y-83504762D01*
X140154761Y-82171429D02*
X140630951Y-83504762D01*
X140821427Y-83980952D01*
X140916666Y-84076190D01*
X141107142Y-84171429D01*
X136821426Y-81600000D02*
X137011903Y-81504762D01*
X137297617Y-81504762D01*
X137583331Y-81600000D01*
X137773807Y-81790476D01*
X137869046Y-81980952D01*
X137964284Y-82361905D01*
X137964284Y-82647619D01*
X137869046Y-83028571D01*
X137773807Y-83219048D01*
X137583331Y-83409524D01*
X137297617Y-83504762D01*
X137107141Y-83504762D01*
X136821426Y-83409524D01*
X136726188Y-83314286D01*
X136726188Y-82647619D01*
X137107141Y-82647619D01*
X135869046Y-83504762D02*
X135869046Y-82171429D01*
X135869046Y-81504762D02*
X135964284Y-81600000D01*
X135869046Y-81695238D01*
X135773807Y-81600000D01*
X135869046Y-81504762D01*
X135869046Y-81695238D01*
X134630950Y-83504762D02*
X134821426Y-83409524D01*
X134916665Y-83219048D01*
X134916665Y-81504762D01*
X133583331Y-83504762D02*
X133773807Y-83409524D01*
X133869046Y-83219048D01*
X133869046Y-81504762D01*
X132821427Y-83504762D02*
X132821427Y-82171429D01*
X132821427Y-81504762D02*
X132916665Y-81600000D01*
X132821427Y-81695238D01*
X132726188Y-81600000D01*
X132821427Y-81504762D01*
X132821427Y-81695238D01*
X131011903Y-83409524D02*
X131202379Y-83504762D01*
X131583331Y-83504762D01*
X131773807Y-83409524D01*
X131869046Y-83314286D01*
X131964284Y-83123810D01*
X131964284Y-82552381D01*
X131869046Y-82361905D01*
X131773807Y-82266667D01*
X131583331Y-82171429D01*
X131202379Y-82171429D01*
X131011903Y-82266667D01*
X130154760Y-83504762D02*
X130154760Y-81504762D01*
X129964283Y-82742857D02*
X129392855Y-83504762D01*
X129392855Y-82171429D02*
X130154760Y-82933333D01*
X149773810Y-86804762D02*
X149773810Y-84804762D01*
X149107143Y-86233333D01*
X148440476Y-84804762D01*
X148440476Y-86804762D01*
X146630953Y-86804762D02*
X146630953Y-85757143D01*
X146726191Y-85566667D01*
X146916667Y-85471429D01*
X147297619Y-85471429D01*
X147488096Y-85566667D01*
X146630953Y-86709524D02*
X146821429Y-86804762D01*
X147297619Y-86804762D01*
X147488096Y-86709524D01*
X147583334Y-86519048D01*
X147583334Y-86328571D01*
X147488096Y-86138095D01*
X147297619Y-86042857D01*
X146821429Y-86042857D01*
X146630953Y-85947619D01*
X145678572Y-86804762D02*
X145678572Y-85471429D01*
X145678572Y-85852381D02*
X145583333Y-85661905D01*
X145488095Y-85566667D01*
X145297619Y-85471429D01*
X145107143Y-85471429D01*
X143583334Y-86709524D02*
X143773810Y-86804762D01*
X144154762Y-86804762D01*
X144345238Y-86709524D01*
X144440477Y-86614286D01*
X144535715Y-86423810D01*
X144535715Y-85852381D01*
X144440477Y-85661905D01*
X144345238Y-85566667D01*
X144154762Y-85471429D01*
X143773810Y-85471429D01*
X143583334Y-85566667D01*
X142726191Y-86804762D02*
X142726191Y-84804762D01*
X141869048Y-86804762D02*
X141869048Y-85757143D01*
X141964286Y-85566667D01*
X142154762Y-85471429D01*
X142440476Y-85471429D01*
X142630952Y-85566667D01*
X142726191Y-85661905D01*
X139488095Y-84995238D02*
X139392857Y-84900000D01*
X139202380Y-84804762D01*
X138726190Y-84804762D01*
X138535714Y-84900000D01*
X138440476Y-84995238D01*
X138345237Y-85185714D01*
X138345237Y-85376190D01*
X138440476Y-85661905D01*
X139583333Y-86804762D01*
X138345237Y-86804762D01*
X137107142Y-84804762D02*
X136916666Y-84804762D01*
X136726190Y-84900000D01*
X136630952Y-84995238D01*
X136535714Y-85185714D01*
X136440475Y-85566667D01*
X136440475Y-86042857D01*
X136535714Y-86423810D01*
X136630952Y-86614286D01*
X136726190Y-86709524D01*
X136916666Y-86804762D01*
X137107142Y-86804762D01*
X137297618Y-86709524D01*
X137392856Y-86614286D01*
X137488095Y-86423810D01*
X137583333Y-86042857D01*
X137583333Y-85566667D01*
X137488095Y-85185714D01*
X137392856Y-84995238D01*
X137297618Y-84900000D01*
X137107142Y-84804762D01*
X134535713Y-86804762D02*
X135678571Y-86804762D01*
X135107142Y-86804762D02*
X135107142Y-84804762D01*
X135297618Y-85090476D01*
X135488094Y-85280952D01*
X135678571Y-85376190D01*
X133869047Y-84804762D02*
X132535713Y-84804762D01*
X133392856Y-86804762D01*
X149857143Y-79857143D02*
X149857143Y-76857143D01*
X149142858Y-76857143D01*
X148714286Y-77000000D01*
X148428572Y-77285714D01*
X148285715Y-77571429D01*
X148142858Y-78142857D01*
X148142858Y-78571429D01*
X148285715Y-79142857D01*
X148428572Y-79428571D01*
X148714286Y-79714286D01*
X149142858Y-79857143D01*
X149857143Y-79857143D01*
X146857143Y-79857143D02*
X146857143Y-77857143D01*
X146857143Y-76857143D02*
X147000000Y-77000000D01*
X146857143Y-77142857D01*
X146714286Y-77000000D01*
X146857143Y-76857143D01*
X146857143Y-77142857D01*
X145571429Y-79714286D02*
X145285715Y-79857143D01*
X144714287Y-79857143D01*
X144428572Y-79714286D01*
X144285715Y-79428571D01*
X144285715Y-79285714D01*
X144428572Y-79000000D01*
X144714287Y-78857143D01*
X145142858Y-78857143D01*
X145428572Y-78714286D01*
X145571429Y-78428571D01*
X145571429Y-78285714D01*
X145428572Y-78000000D01*
X145142858Y-77857143D01*
X144714287Y-77857143D01*
X144428572Y-78000000D01*
X141714287Y-79714286D02*
X142000001Y-79857143D01*
X142571430Y-79857143D01*
X142857144Y-79714286D01*
X143000001Y-79571429D01*
X143142858Y-79285714D01*
X143142858Y-78428571D01*
X143000001Y-78142857D01*
X142857144Y-78000000D01*
X142571430Y-77857143D01*
X142000001Y-77857143D01*
X141714287Y-78000000D01*
X140000001Y-79857143D02*
X140285715Y-79714286D01*
X140428572Y-79571429D01*
X140571429Y-79285714D01*
X140571429Y-78428571D01*
X140428572Y-78142857D01*
X140285715Y-78000000D01*
X140000001Y-77857143D01*
X139571429Y-77857143D01*
X139285715Y-78000000D01*
X139142858Y-78142857D01*
X139000001Y-78428571D01*
X139000001Y-79285714D01*
X139142858Y-79571429D01*
X139285715Y-79714286D01*
X139571429Y-79857143D01*
X140000001Y-79857143D01*
X137714286Y-79857143D02*
X137714286Y-76857143D01*
X136000001Y-79857143D01*
X136000001Y-76857143D01*
X134142858Y-79857143D02*
X134428572Y-79714286D01*
X134571429Y-79571429D01*
X134714286Y-79285714D01*
X134714286Y-78428571D01*
X134571429Y-78142857D01*
X134428572Y-78000000D01*
X134142858Y-77857143D01*
X133714286Y-77857143D01*
X133428572Y-78000000D01*
X133285715Y-78142857D01*
X133142858Y-78428571D01*
X133142858Y-79285714D01*
X133285715Y-79571429D01*
X133428572Y-79714286D01*
X133714286Y-79857143D01*
X134142858Y-79857143D01*
X130571429Y-79857143D02*
X130571429Y-76857143D01*
X130571429Y-79714286D02*
X130857143Y-79857143D01*
X131428572Y-79857143D01*
X131714286Y-79714286D01*
X131857143Y-79571429D01*
X132000000Y-79285714D01*
X132000000Y-78428571D01*
X131857143Y-78142857D01*
X131714286Y-78000000D01*
X131428572Y-77857143D01*
X130857143Y-77857143D01*
X130571429Y-78000000D01*
X128000000Y-79714286D02*
X128285714Y-79857143D01*
X128857143Y-79857143D01*
X129142857Y-79714286D01*
X129285714Y-79428571D01*
X129285714Y-78285714D01*
X129142857Y-78000000D01*
X128857143Y-77857143D01*
X128285714Y-77857143D01*
X128000000Y-78000000D01*
X127857143Y-78285714D01*
X127857143Y-78571429D01*
X129285714Y-78857143D01*
X126857143Y-76857143D02*
X125000000Y-76857143D01*
X126000000Y-78000000D01*
X125571428Y-78000000D01*
X125285714Y-78142857D01*
X125142857Y-78285714D01*
X125000000Y-78571429D01*
X125000000Y-79285714D01*
X125142857Y-79571429D01*
X125285714Y-79714286D01*
X125571428Y-79857143D01*
X126428571Y-79857143D01*
X126714285Y-79714286D01*
X126857143Y-79571429D01*
D12*
G36*
X149150256Y-94169918D02*
X149094799Y-94197568D01*
X149045852Y-94248480D01*
X149032371Y-94267338D01*
X149017686Y-94292015D01*
X149008158Y-94318816D01*
X149002707Y-94354587D01*
X149000253Y-94406169D01*
X148999714Y-94474267D01*
X149002148Y-94567588D01*
X149010606Y-94637657D01*
X149026826Y-94689931D01*
X149052546Y-94729869D01*
X149089503Y-94762929D01*
X149092218Y-94764886D01*
X149128640Y-94784908D01*
X149172498Y-94794815D01*
X149228276Y-94797257D01*
X149318952Y-94797257D01*
X149318990Y-94885283D01*
X149319834Y-94934308D01*
X149324976Y-94963065D01*
X149338413Y-94980311D01*
X149364142Y-94994808D01*
X149370321Y-94997769D01*
X149399236Y-95011648D01*
X149421624Y-95020414D01*
X149438271Y-95021171D01*
X149449964Y-95011023D01*
X149457490Y-94987073D01*
X149461634Y-94946426D01*
X149463185Y-94886186D01*
X149462929Y-94803455D01*
X149461651Y-94695339D01*
X149461252Y-94663000D01*
X149459815Y-94551524D01*
X149458528Y-94478603D01*
X149319029Y-94478603D01*
X149318245Y-94540499D01*
X149314760Y-94580997D01*
X149306876Y-94607708D01*
X149292895Y-94628244D01*
X149283403Y-94638260D01*
X149244596Y-94667567D01*
X149210237Y-94669952D01*
X149174784Y-94645750D01*
X149173886Y-94644857D01*
X149159461Y-94626153D01*
X149150687Y-94600732D01*
X149146261Y-94561584D01*
X149144882Y-94501697D01*
X149144857Y-94488430D01*
X149148188Y-94405901D01*
X149159031Y-94348691D01*
X149178660Y-94313766D01*
X149208350Y-94298094D01*
X149225509Y-94296514D01*
X149266234Y-94303926D01*
X149294168Y-94328330D01*
X149310983Y-94372980D01*
X149318350Y-94441130D01*
X149319029Y-94478603D01*
X149458528Y-94478603D01*
X149458292Y-94465245D01*
X149456323Y-94400333D01*
X149453550Y-94352958D01*
X149449612Y-94319290D01*
X149444151Y-94295498D01*
X149436808Y-94277753D01*
X149427223Y-94262224D01*
X149423113Y-94256381D01*
X149368595Y-94201185D01*
X149299664Y-94169890D01*
X149219928Y-94161165D01*
X149150256Y-94169918D01*
X149150256Y-94169918D01*
G37*
X149150256Y-94169918D02*
X149094799Y-94197568D01*
X149045852Y-94248480D01*
X149032371Y-94267338D01*
X149017686Y-94292015D01*
X149008158Y-94318816D01*
X149002707Y-94354587D01*
X149000253Y-94406169D01*
X148999714Y-94474267D01*
X149002148Y-94567588D01*
X149010606Y-94637657D01*
X149026826Y-94689931D01*
X149052546Y-94729869D01*
X149089503Y-94762929D01*
X149092218Y-94764886D01*
X149128640Y-94784908D01*
X149172498Y-94794815D01*
X149228276Y-94797257D01*
X149318952Y-94797257D01*
X149318990Y-94885283D01*
X149319834Y-94934308D01*
X149324976Y-94963065D01*
X149338413Y-94980311D01*
X149364142Y-94994808D01*
X149370321Y-94997769D01*
X149399236Y-95011648D01*
X149421624Y-95020414D01*
X149438271Y-95021171D01*
X149449964Y-95011023D01*
X149457490Y-94987073D01*
X149461634Y-94946426D01*
X149463185Y-94886186D01*
X149462929Y-94803455D01*
X149461651Y-94695339D01*
X149461252Y-94663000D01*
X149459815Y-94551524D01*
X149458528Y-94478603D01*
X149319029Y-94478603D01*
X149318245Y-94540499D01*
X149314760Y-94580997D01*
X149306876Y-94607708D01*
X149292895Y-94628244D01*
X149283403Y-94638260D01*
X149244596Y-94667567D01*
X149210237Y-94669952D01*
X149174784Y-94645750D01*
X149173886Y-94644857D01*
X149159461Y-94626153D01*
X149150687Y-94600732D01*
X149146261Y-94561584D01*
X149144882Y-94501697D01*
X149144857Y-94488430D01*
X149148188Y-94405901D01*
X149159031Y-94348691D01*
X149178660Y-94313766D01*
X149208350Y-94298094D01*
X149225509Y-94296514D01*
X149266234Y-94303926D01*
X149294168Y-94328330D01*
X149310983Y-94372980D01*
X149318350Y-94441130D01*
X149319029Y-94478603D01*
X149458528Y-94478603D01*
X149458292Y-94465245D01*
X149456323Y-94400333D01*
X149453550Y-94352958D01*
X149449612Y-94319290D01*
X149444151Y-94295498D01*
X149436808Y-94277753D01*
X149427223Y-94262224D01*
X149423113Y-94256381D01*
X149368595Y-94201185D01*
X149299664Y-94169890D01*
X149219928Y-94161165D01*
X149150256Y-94169918D01*
G36*
X148033907Y-94177780D02*
X147987328Y-94204723D01*
X147954943Y-94231466D01*
X147931258Y-94259484D01*
X147914941Y-94293748D01*
X147904661Y-94339227D01*
X147899086Y-94400892D01*
X147896884Y-94483711D01*
X147896629Y-94543246D01*
X147896629Y-94762391D01*
X147958314Y-94790044D01*
X148020000Y-94817697D01*
X148027257Y-94577670D01*
X148030256Y-94488028D01*
X148033402Y-94422962D01*
X148037299Y-94378026D01*
X148042553Y-94348770D01*
X148049769Y-94330748D01*
X148059550Y-94319511D01*
X148062688Y-94317079D01*
X148110239Y-94298083D01*
X148158303Y-94305600D01*
X148186914Y-94325543D01*
X148198553Y-94339675D01*
X148206609Y-94358220D01*
X148211729Y-94386334D01*
X148214559Y-94429173D01*
X148215744Y-94491895D01*
X148215943Y-94557261D01*
X148215982Y-94639268D01*
X148217386Y-94697316D01*
X148222086Y-94736465D01*
X148232013Y-94761780D01*
X148249097Y-94778323D01*
X148275268Y-94791156D01*
X148310225Y-94804491D01*
X148348404Y-94819007D01*
X148343859Y-94561389D01*
X148342029Y-94468519D01*
X148339888Y-94399889D01*
X148336819Y-94350711D01*
X148332206Y-94316198D01*
X148325432Y-94291562D01*
X148315881Y-94272016D01*
X148304366Y-94254770D01*
X148248810Y-94199680D01*
X148181020Y-94167822D01*
X148107287Y-94160191D01*
X148033907Y-94177780D01*
X148033907Y-94177780D01*
G37*
X148033907Y-94177780D02*
X147987328Y-94204723D01*
X147954943Y-94231466D01*
X147931258Y-94259484D01*
X147914941Y-94293748D01*
X147904661Y-94339227D01*
X147899086Y-94400892D01*
X147896884Y-94483711D01*
X147896629Y-94543246D01*
X147896629Y-94762391D01*
X147958314Y-94790044D01*
X148020000Y-94817697D01*
X148027257Y-94577670D01*
X148030256Y-94488028D01*
X148033402Y-94422962D01*
X148037299Y-94378026D01*
X148042553Y-94348770D01*
X148049769Y-94330748D01*
X148059550Y-94319511D01*
X148062688Y-94317079D01*
X148110239Y-94298083D01*
X148158303Y-94305600D01*
X148186914Y-94325543D01*
X148198553Y-94339675D01*
X148206609Y-94358220D01*
X148211729Y-94386334D01*
X148214559Y-94429173D01*
X148215744Y-94491895D01*
X148215943Y-94557261D01*
X148215982Y-94639268D01*
X148217386Y-94697316D01*
X148222086Y-94736465D01*
X148232013Y-94761780D01*
X148249097Y-94778323D01*
X148275268Y-94791156D01*
X148310225Y-94804491D01*
X148348404Y-94819007D01*
X148343859Y-94561389D01*
X148342029Y-94468519D01*
X148339888Y-94399889D01*
X148336819Y-94350711D01*
X148332206Y-94316198D01*
X148325432Y-94291562D01*
X148315881Y-94272016D01*
X148304366Y-94254770D01*
X148248810Y-94199680D01*
X148181020Y-94167822D01*
X148107287Y-94160191D01*
X148033907Y-94177780D01*
G36*
X149708885Y-94171962D02*
X149640855Y-94207733D01*
X149590649Y-94265301D01*
X149572815Y-94302312D01*
X149558937Y-94357882D01*
X149551833Y-94428096D01*
X149551160Y-94504727D01*
X149556573Y-94579552D01*
X149567730Y-94644342D01*
X149584286Y-94690873D01*
X149589374Y-94698887D01*
X149649645Y-94758707D01*
X149721231Y-94794535D01*
X149798908Y-94805020D01*
X149877452Y-94788810D01*
X149899311Y-94779092D01*
X149941878Y-94749143D01*
X149979237Y-94709433D01*
X149982768Y-94704397D01*
X149997119Y-94680124D01*
X150006606Y-94654178D01*
X150012210Y-94620022D01*
X150014914Y-94571119D01*
X150015701Y-94500935D01*
X150015714Y-94485200D01*
X150015678Y-94480192D01*
X149870571Y-94480192D01*
X149869727Y-94546430D01*
X149866404Y-94590386D01*
X149859417Y-94618779D01*
X149847584Y-94638325D01*
X149841543Y-94644857D01*
X149806814Y-94669680D01*
X149773097Y-94668548D01*
X149739005Y-94647016D01*
X149718671Y-94624029D01*
X149706629Y-94590478D01*
X149699866Y-94537569D01*
X149699402Y-94531399D01*
X149698248Y-94435513D01*
X149710312Y-94364299D01*
X149735430Y-94318194D01*
X149773440Y-94297635D01*
X149787008Y-94296514D01*
X149822636Y-94302152D01*
X149847006Y-94321686D01*
X149861907Y-94359042D01*
X149869125Y-94418150D01*
X149870571Y-94480192D01*
X150015678Y-94480192D01*
X150015174Y-94410413D01*
X150012904Y-94358159D01*
X150007932Y-94321949D01*
X149999287Y-94295299D01*
X149985995Y-94271722D01*
X149983057Y-94267338D01*
X149933687Y-94208249D01*
X149879891Y-94173947D01*
X149814398Y-94160331D01*
X149792158Y-94159665D01*
X149708885Y-94171962D01*
X149708885Y-94171962D01*
G37*
X149708885Y-94171962D02*
X149640855Y-94207733D01*
X149590649Y-94265301D01*
X149572815Y-94302312D01*
X149558937Y-94357882D01*
X149551833Y-94428096D01*
X149551160Y-94504727D01*
X149556573Y-94579552D01*
X149567730Y-94644342D01*
X149584286Y-94690873D01*
X149589374Y-94698887D01*
X149649645Y-94758707D01*
X149721231Y-94794535D01*
X149798908Y-94805020D01*
X149877452Y-94788810D01*
X149899311Y-94779092D01*
X149941878Y-94749143D01*
X149979237Y-94709433D01*
X149982768Y-94704397D01*
X149997119Y-94680124D01*
X150006606Y-94654178D01*
X150012210Y-94620022D01*
X150014914Y-94571119D01*
X150015701Y-94500935D01*
X150015714Y-94485200D01*
X150015678Y-94480192D01*
X149870571Y-94480192D01*
X149869727Y-94546430D01*
X149866404Y-94590386D01*
X149859417Y-94618779D01*
X149847584Y-94638325D01*
X149841543Y-94644857D01*
X149806814Y-94669680D01*
X149773097Y-94668548D01*
X149739005Y-94647016D01*
X149718671Y-94624029D01*
X149706629Y-94590478D01*
X149699866Y-94537569D01*
X149699402Y-94531399D01*
X149698248Y-94435513D01*
X149710312Y-94364299D01*
X149735430Y-94318194D01*
X149773440Y-94297635D01*
X149787008Y-94296514D01*
X149822636Y-94302152D01*
X149847006Y-94321686D01*
X149861907Y-94359042D01*
X149869125Y-94418150D01*
X149870571Y-94480192D01*
X150015678Y-94480192D01*
X150015174Y-94410413D01*
X150012904Y-94358159D01*
X150007932Y-94321949D01*
X149999287Y-94295299D01*
X149985995Y-94271722D01*
X149983057Y-94267338D01*
X149933687Y-94208249D01*
X149879891Y-94173947D01*
X149814398Y-94160331D01*
X149792158Y-94159665D01*
X149708885Y-94171962D01*
G36*
X148581697Y-94181239D02*
X148524473Y-94219735D01*
X148480251Y-94275335D01*
X148453833Y-94346086D01*
X148448490Y-94398162D01*
X148449097Y-94419893D01*
X148454178Y-94436531D01*
X148468145Y-94451437D01*
X148495411Y-94467973D01*
X148540388Y-94489498D01*
X148607489Y-94519374D01*
X148607829Y-94519524D01*
X148669593Y-94547813D01*
X148720241Y-94572933D01*
X148754596Y-94592179D01*
X148767482Y-94602848D01*
X148767486Y-94602934D01*
X148756128Y-94626166D01*
X148729569Y-94651774D01*
X148699077Y-94670221D01*
X148683630Y-94673886D01*
X148641485Y-94661212D01*
X148605192Y-94629471D01*
X148587483Y-94594572D01*
X148570448Y-94568845D01*
X148537078Y-94539546D01*
X148497851Y-94514235D01*
X148463244Y-94500471D01*
X148456007Y-94499714D01*
X148447861Y-94512160D01*
X148447370Y-94543972D01*
X148453357Y-94586866D01*
X148464643Y-94632558D01*
X148480050Y-94672761D01*
X148480829Y-94674322D01*
X148527196Y-94739062D01*
X148587289Y-94783097D01*
X148655535Y-94804711D01*
X148726362Y-94802185D01*
X148794196Y-94773804D01*
X148797212Y-94771808D01*
X148850573Y-94723448D01*
X148885660Y-94660352D01*
X148905078Y-94577387D01*
X148907684Y-94554078D01*
X148912299Y-94444055D01*
X148906767Y-94392748D01*
X148767486Y-94392748D01*
X148765676Y-94424753D01*
X148755778Y-94434093D01*
X148731102Y-94427105D01*
X148692205Y-94410587D01*
X148648725Y-94389881D01*
X148647644Y-94389333D01*
X148610791Y-94369949D01*
X148596000Y-94357013D01*
X148599647Y-94343451D01*
X148615005Y-94325632D01*
X148654077Y-94299845D01*
X148696154Y-94297950D01*
X148733897Y-94316717D01*
X148759966Y-94352915D01*
X148767486Y-94392748D01*
X148906767Y-94392748D01*
X148902806Y-94356027D01*
X148878450Y-94286212D01*
X148844544Y-94237302D01*
X148783347Y-94187878D01*
X148715937Y-94163359D01*
X148647120Y-94161797D01*
X148581697Y-94181239D01*
X148581697Y-94181239D01*
G37*
X148581697Y-94181239D02*
X148524473Y-94219735D01*
X148480251Y-94275335D01*
X148453833Y-94346086D01*
X148448490Y-94398162D01*
X148449097Y-94419893D01*
X148454178Y-94436531D01*
X148468145Y-94451437D01*
X148495411Y-94467973D01*
X148540388Y-94489498D01*
X148607489Y-94519374D01*
X148607829Y-94519524D01*
X148669593Y-94547813D01*
X148720241Y-94572933D01*
X148754596Y-94592179D01*
X148767482Y-94602848D01*
X148767486Y-94602934D01*
X148756128Y-94626166D01*
X148729569Y-94651774D01*
X148699077Y-94670221D01*
X148683630Y-94673886D01*
X148641485Y-94661212D01*
X148605192Y-94629471D01*
X148587483Y-94594572D01*
X148570448Y-94568845D01*
X148537078Y-94539546D01*
X148497851Y-94514235D01*
X148463244Y-94500471D01*
X148456007Y-94499714D01*
X148447861Y-94512160D01*
X148447370Y-94543972D01*
X148453357Y-94586866D01*
X148464643Y-94632558D01*
X148480050Y-94672761D01*
X148480829Y-94674322D01*
X148527196Y-94739062D01*
X148587289Y-94783097D01*
X148655535Y-94804711D01*
X148726362Y-94802185D01*
X148794196Y-94773804D01*
X148797212Y-94771808D01*
X148850573Y-94723448D01*
X148885660Y-94660352D01*
X148905078Y-94577387D01*
X148907684Y-94554078D01*
X148912299Y-94444055D01*
X148906767Y-94392748D01*
X148767486Y-94392748D01*
X148765676Y-94424753D01*
X148755778Y-94434093D01*
X148731102Y-94427105D01*
X148692205Y-94410587D01*
X148648725Y-94389881D01*
X148647644Y-94389333D01*
X148610791Y-94369949D01*
X148596000Y-94357013D01*
X148599647Y-94343451D01*
X148615005Y-94325632D01*
X148654077Y-94299845D01*
X148696154Y-94297950D01*
X148733897Y-94316717D01*
X148759966Y-94352915D01*
X148767486Y-94392748D01*
X148906767Y-94392748D01*
X148902806Y-94356027D01*
X148878450Y-94286212D01*
X148844544Y-94237302D01*
X148783347Y-94187878D01*
X148715937Y-94163359D01*
X148647120Y-94161797D01*
X148581697Y-94181239D01*
G36*
X147374114Y-94101289D02*
X147369861Y-94160613D01*
X147364975Y-94195572D01*
X147358205Y-94210820D01*
X147348298Y-94211015D01*
X147345086Y-94209195D01*
X147302356Y-94196015D01*
X147246773Y-94196785D01*
X147190263Y-94210333D01*
X147154918Y-94227861D01*
X147118679Y-94255861D01*
X147092187Y-94287549D01*
X147074001Y-94327813D01*
X147062678Y-94381543D01*
X147056778Y-94453626D01*
X147054857Y-94548951D01*
X147054823Y-94567237D01*
X147054800Y-94772646D01*
X147100509Y-94788580D01*
X147132973Y-94799420D01*
X147150785Y-94804468D01*
X147151309Y-94804514D01*
X147153063Y-94790828D01*
X147154556Y-94753076D01*
X147155674Y-94696224D01*
X147156303Y-94625234D01*
X147156400Y-94582073D01*
X147156602Y-94496973D01*
X147157642Y-94435981D01*
X147160169Y-94394177D01*
X147164836Y-94366642D01*
X147172293Y-94348456D01*
X147183189Y-94334698D01*
X147189993Y-94328073D01*
X147236728Y-94301375D01*
X147287728Y-94299375D01*
X147333999Y-94321955D01*
X147342556Y-94330107D01*
X147355107Y-94345436D01*
X147363812Y-94363618D01*
X147369369Y-94389909D01*
X147372474Y-94429562D01*
X147373824Y-94487832D01*
X147374114Y-94568173D01*
X147374114Y-94772646D01*
X147419823Y-94788580D01*
X147452287Y-94799420D01*
X147470099Y-94804468D01*
X147470623Y-94804514D01*
X147471963Y-94790623D01*
X147473172Y-94751439D01*
X147474199Y-94690700D01*
X147474998Y-94612141D01*
X147475519Y-94519498D01*
X147475714Y-94416509D01*
X147475714Y-94019342D01*
X147428543Y-93999444D01*
X147381371Y-93979547D01*
X147374114Y-94101289D01*
X147374114Y-94101289D01*
G37*
X147374114Y-94101289D02*
X147369861Y-94160613D01*
X147364975Y-94195572D01*
X147358205Y-94210820D01*
X147348298Y-94211015D01*
X147345086Y-94209195D01*
X147302356Y-94196015D01*
X147246773Y-94196785D01*
X147190263Y-94210333D01*
X147154918Y-94227861D01*
X147118679Y-94255861D01*
X147092187Y-94287549D01*
X147074001Y-94327813D01*
X147062678Y-94381543D01*
X147056778Y-94453626D01*
X147054857Y-94548951D01*
X147054823Y-94567237D01*
X147054800Y-94772646D01*
X147100509Y-94788580D01*
X147132973Y-94799420D01*
X147150785Y-94804468D01*
X147151309Y-94804514D01*
X147153063Y-94790828D01*
X147154556Y-94753076D01*
X147155674Y-94696224D01*
X147156303Y-94625234D01*
X147156400Y-94582073D01*
X147156602Y-94496973D01*
X147157642Y-94435981D01*
X147160169Y-94394177D01*
X147164836Y-94366642D01*
X147172293Y-94348456D01*
X147183189Y-94334698D01*
X147189993Y-94328073D01*
X147236728Y-94301375D01*
X147287728Y-94299375D01*
X147333999Y-94321955D01*
X147342556Y-94330107D01*
X147355107Y-94345436D01*
X147363812Y-94363618D01*
X147369369Y-94389909D01*
X147372474Y-94429562D01*
X147373824Y-94487832D01*
X147374114Y-94568173D01*
X147374114Y-94772646D01*
X147419823Y-94788580D01*
X147452287Y-94799420D01*
X147470099Y-94804468D01*
X147470623Y-94804514D01*
X147471963Y-94790623D01*
X147473172Y-94751439D01*
X147474199Y-94690700D01*
X147474998Y-94612141D01*
X147475519Y-94519498D01*
X147475714Y-94416509D01*
X147475714Y-94019342D01*
X147428543Y-93999444D01*
X147381371Y-93979547D01*
X147374114Y-94101289D01*
G36*
X146710256Y-94200968D02*
X146653384Y-94222087D01*
X146652733Y-94222493D01*
X146617560Y-94248380D01*
X146591593Y-94278633D01*
X146573330Y-94318058D01*
X146561268Y-94371462D01*
X146553904Y-94443651D01*
X146549736Y-94539432D01*
X146549371Y-94553078D01*
X146544124Y-94758842D01*
X146588284Y-94781678D01*
X146620237Y-94797110D01*
X146639530Y-94804423D01*
X146640422Y-94804514D01*
X146643761Y-94791022D01*
X146646413Y-94754626D01*
X146648044Y-94701452D01*
X146648400Y-94658393D01*
X146648408Y-94588641D01*
X146651597Y-94544837D01*
X146662712Y-94523944D01*
X146686499Y-94522925D01*
X146727704Y-94538741D01*
X146789914Y-94567815D01*
X146835659Y-94591963D01*
X146859187Y-94612913D01*
X146866104Y-94635747D01*
X146866114Y-94636877D01*
X146854701Y-94676212D01*
X146820908Y-94697462D01*
X146769191Y-94700539D01*
X146731939Y-94700006D01*
X146712297Y-94710735D01*
X146700048Y-94736505D01*
X146692998Y-94769337D01*
X146703158Y-94787966D01*
X146706983Y-94790632D01*
X146742999Y-94801340D01*
X146793434Y-94802856D01*
X146845374Y-94795759D01*
X146882178Y-94782788D01*
X146933062Y-94739585D01*
X146961986Y-94679446D01*
X146967714Y-94632462D01*
X146963343Y-94590082D01*
X146947525Y-94555488D01*
X146916203Y-94524763D01*
X146865322Y-94493990D01*
X146790824Y-94459252D01*
X146786286Y-94457288D01*
X146719179Y-94426287D01*
X146677768Y-94400862D01*
X146660019Y-94378014D01*
X146663893Y-94354745D01*
X146687357Y-94328056D01*
X146694373Y-94321914D01*
X146741370Y-94298100D01*
X146790067Y-94299103D01*
X146832478Y-94322451D01*
X146860616Y-94365675D01*
X146863231Y-94374160D01*
X146888692Y-94415308D01*
X146920999Y-94435128D01*
X146967714Y-94454770D01*
X146967714Y-94403950D01*
X146953504Y-94330082D01*
X146911325Y-94262327D01*
X146889376Y-94239661D01*
X146839483Y-94210569D01*
X146776033Y-94197400D01*
X146710256Y-94200968D01*
X146710256Y-94200968D01*
G37*
X146710256Y-94200968D02*
X146653384Y-94222087D01*
X146652733Y-94222493D01*
X146617560Y-94248380D01*
X146591593Y-94278633D01*
X146573330Y-94318058D01*
X146561268Y-94371462D01*
X146553904Y-94443651D01*
X146549736Y-94539432D01*
X146549371Y-94553078D01*
X146544124Y-94758842D01*
X146588284Y-94781678D01*
X146620237Y-94797110D01*
X146639530Y-94804423D01*
X146640422Y-94804514D01*
X146643761Y-94791022D01*
X146646413Y-94754626D01*
X146648044Y-94701452D01*
X146648400Y-94658393D01*
X146648408Y-94588641D01*
X146651597Y-94544837D01*
X146662712Y-94523944D01*
X146686499Y-94522925D01*
X146727704Y-94538741D01*
X146789914Y-94567815D01*
X146835659Y-94591963D01*
X146859187Y-94612913D01*
X146866104Y-94635747D01*
X146866114Y-94636877D01*
X146854701Y-94676212D01*
X146820908Y-94697462D01*
X146769191Y-94700539D01*
X146731939Y-94700006D01*
X146712297Y-94710735D01*
X146700048Y-94736505D01*
X146692998Y-94769337D01*
X146703158Y-94787966D01*
X146706983Y-94790632D01*
X146742999Y-94801340D01*
X146793434Y-94802856D01*
X146845374Y-94795759D01*
X146882178Y-94782788D01*
X146933062Y-94739585D01*
X146961986Y-94679446D01*
X146967714Y-94632462D01*
X146963343Y-94590082D01*
X146947525Y-94555488D01*
X146916203Y-94524763D01*
X146865322Y-94493990D01*
X146790824Y-94459252D01*
X146786286Y-94457288D01*
X146719179Y-94426287D01*
X146677768Y-94400862D01*
X146660019Y-94378014D01*
X146663893Y-94354745D01*
X146687357Y-94328056D01*
X146694373Y-94321914D01*
X146741370Y-94298100D01*
X146790067Y-94299103D01*
X146832478Y-94322451D01*
X146860616Y-94365675D01*
X146863231Y-94374160D01*
X146888692Y-94415308D01*
X146920999Y-94435128D01*
X146967714Y-94454770D01*
X146967714Y-94403950D01*
X146953504Y-94330082D01*
X146911325Y-94262327D01*
X146889376Y-94239661D01*
X146839483Y-94210569D01*
X146776033Y-94197400D01*
X146710256Y-94200968D01*
G36*
X146220074Y-94199755D02*
X146154142Y-94224084D01*
X146100727Y-94267117D01*
X146079836Y-94297409D01*
X146057061Y-94352994D01*
X146057534Y-94393186D01*
X146081438Y-94420217D01*
X146090283Y-94424813D01*
X146128470Y-94439144D01*
X146147972Y-94435472D01*
X146154578Y-94411407D01*
X146154914Y-94398114D01*
X146167008Y-94349210D01*
X146198529Y-94314999D01*
X146242341Y-94298476D01*
X146291305Y-94302634D01*
X146331106Y-94324227D01*
X146344550Y-94336544D01*
X146354079Y-94351487D01*
X146360515Y-94374075D01*
X146364683Y-94409328D01*
X146367403Y-94462266D01*
X146369498Y-94537907D01*
X146370040Y-94561857D01*
X146372019Y-94643790D01*
X146374269Y-94701455D01*
X146377643Y-94739608D01*
X146382994Y-94763004D01*
X146391176Y-94776398D01*
X146403041Y-94784545D01*
X146410638Y-94788144D01*
X146442898Y-94800452D01*
X146461889Y-94804514D01*
X146468164Y-94790948D01*
X146471994Y-94749934D01*
X146473400Y-94680999D01*
X146472402Y-94583669D01*
X146472092Y-94568657D01*
X146469899Y-94479859D01*
X146467307Y-94415019D01*
X146463618Y-94369067D01*
X146458136Y-94336935D01*
X146450165Y-94313553D01*
X146439007Y-94293852D01*
X146433170Y-94285410D01*
X146399704Y-94248057D01*
X146362273Y-94219003D01*
X146357691Y-94216467D01*
X146290574Y-94196443D01*
X146220074Y-94199755D01*
X146220074Y-94199755D01*
G37*
X146220074Y-94199755D02*
X146154142Y-94224084D01*
X146100727Y-94267117D01*
X146079836Y-94297409D01*
X146057061Y-94352994D01*
X146057534Y-94393186D01*
X146081438Y-94420217D01*
X146090283Y-94424813D01*
X146128470Y-94439144D01*
X146147972Y-94435472D01*
X146154578Y-94411407D01*
X146154914Y-94398114D01*
X146167008Y-94349210D01*
X146198529Y-94314999D01*
X146242341Y-94298476D01*
X146291305Y-94302634D01*
X146331106Y-94324227D01*
X146344550Y-94336544D01*
X146354079Y-94351487D01*
X146360515Y-94374075D01*
X146364683Y-94409328D01*
X146367403Y-94462266D01*
X146369498Y-94537907D01*
X146370040Y-94561857D01*
X146372019Y-94643790D01*
X146374269Y-94701455D01*
X146377643Y-94739608D01*
X146382994Y-94763004D01*
X146391176Y-94776398D01*
X146403041Y-94784545D01*
X146410638Y-94788144D01*
X146442898Y-94800452D01*
X146461889Y-94804514D01*
X146468164Y-94790948D01*
X146471994Y-94749934D01*
X146473400Y-94680999D01*
X146472402Y-94583669D01*
X146472092Y-94568657D01*
X146469899Y-94479859D01*
X146467307Y-94415019D01*
X146463618Y-94369067D01*
X146458136Y-94336935D01*
X146450165Y-94313553D01*
X146439007Y-94293852D01*
X146433170Y-94285410D01*
X146399704Y-94248057D01*
X146362273Y-94219003D01*
X146357691Y-94216467D01*
X146290574Y-94196443D01*
X146220074Y-94199755D01*
G36*
X145559883Y-94315358D02*
X145560067Y-94423837D01*
X145560781Y-94507287D01*
X145562325Y-94569704D01*
X145564999Y-94615085D01*
X145569106Y-94647429D01*
X145574945Y-94670733D01*
X145582818Y-94688995D01*
X145588779Y-94699418D01*
X145638145Y-94755945D01*
X145700736Y-94791377D01*
X145769987Y-94804090D01*
X145839332Y-94792463D01*
X145880625Y-94771568D01*
X145923975Y-94735422D01*
X145953519Y-94691276D01*
X145971345Y-94633462D01*
X145979537Y-94556313D01*
X145980698Y-94499714D01*
X145980542Y-94495647D01*
X145879143Y-94495647D01*
X145878524Y-94560550D01*
X145875686Y-94603514D01*
X145869160Y-94631622D01*
X145857477Y-94651953D01*
X145843517Y-94667288D01*
X145796635Y-94696890D01*
X145746299Y-94699419D01*
X145698724Y-94674705D01*
X145695021Y-94671356D01*
X145679217Y-94653935D01*
X145669307Y-94633209D01*
X145663942Y-94602362D01*
X145661772Y-94554577D01*
X145661429Y-94501748D01*
X145662173Y-94435381D01*
X145665252Y-94391106D01*
X145671939Y-94362009D01*
X145683504Y-94341173D01*
X145692987Y-94330107D01*
X145737040Y-94302198D01*
X145787776Y-94298843D01*
X145836204Y-94320159D01*
X145845550Y-94328073D01*
X145861460Y-94345647D01*
X145871390Y-94366587D01*
X145876722Y-94397782D01*
X145878837Y-94446122D01*
X145879143Y-94495647D01*
X145980542Y-94495647D01*
X145977190Y-94408568D01*
X145965274Y-94340086D01*
X145942865Y-94288600D01*
X145907876Y-94248443D01*
X145880625Y-94227861D01*
X145831093Y-94205625D01*
X145773684Y-94195304D01*
X145720318Y-94198067D01*
X145690457Y-94209212D01*
X145678739Y-94212383D01*
X145670963Y-94200557D01*
X145665535Y-94168866D01*
X145661429Y-94120593D01*
X145656933Y-94066829D01*
X145650687Y-94034482D01*
X145639324Y-94015985D01*
X145619472Y-94003770D01*
X145607000Y-93998362D01*
X145559829Y-93978601D01*
X145559883Y-94315358D01*
X145559883Y-94315358D01*
G37*
X145559883Y-94315358D02*
X145560067Y-94423837D01*
X145560781Y-94507287D01*
X145562325Y-94569704D01*
X145564999Y-94615085D01*
X145569106Y-94647429D01*
X145574945Y-94670733D01*
X145582818Y-94688995D01*
X145588779Y-94699418D01*
X145638145Y-94755945D01*
X145700736Y-94791377D01*
X145769987Y-94804090D01*
X145839332Y-94792463D01*
X145880625Y-94771568D01*
X145923975Y-94735422D01*
X145953519Y-94691276D01*
X145971345Y-94633462D01*
X145979537Y-94556313D01*
X145980698Y-94499714D01*
X145980542Y-94495647D01*
X145879143Y-94495647D01*
X145878524Y-94560550D01*
X145875686Y-94603514D01*
X145869160Y-94631622D01*
X145857477Y-94651953D01*
X145843517Y-94667288D01*
X145796635Y-94696890D01*
X145746299Y-94699419D01*
X145698724Y-94674705D01*
X145695021Y-94671356D01*
X145679217Y-94653935D01*
X145669307Y-94633209D01*
X145663942Y-94602362D01*
X145661772Y-94554577D01*
X145661429Y-94501748D01*
X145662173Y-94435381D01*
X145665252Y-94391106D01*
X145671939Y-94362009D01*
X145683504Y-94341173D01*
X145692987Y-94330107D01*
X145737040Y-94302198D01*
X145787776Y-94298843D01*
X145836204Y-94320159D01*
X145845550Y-94328073D01*
X145861460Y-94345647D01*
X145871390Y-94366587D01*
X145876722Y-94397782D01*
X145878837Y-94446122D01*
X145879143Y-94495647D01*
X145980542Y-94495647D01*
X145977190Y-94408568D01*
X145965274Y-94340086D01*
X145942865Y-94288600D01*
X145907876Y-94248443D01*
X145880625Y-94227861D01*
X145831093Y-94205625D01*
X145773684Y-94195304D01*
X145720318Y-94198067D01*
X145690457Y-94209212D01*
X145678739Y-94212383D01*
X145670963Y-94200557D01*
X145665535Y-94168866D01*
X145661429Y-94120593D01*
X145656933Y-94066829D01*
X145650687Y-94034482D01*
X145639324Y-94015985D01*
X145619472Y-94003770D01*
X145607000Y-93998362D01*
X145559829Y-93978601D01*
X145559883Y-94315358D01*
G36*
X144970167Y-94208663D02*
X144967952Y-94246850D01*
X144966216Y-94304886D01*
X144965101Y-94378180D01*
X144964743Y-94455055D01*
X144964743Y-94715196D01*
X145010674Y-94761127D01*
X145042325Y-94789429D01*
X145070110Y-94800893D01*
X145108085Y-94800168D01*
X145123160Y-94798321D01*
X145170274Y-94792948D01*
X145209244Y-94789869D01*
X145218743Y-94789585D01*
X145250767Y-94791445D01*
X145296568Y-94796114D01*
X145314326Y-94798321D01*
X145357943Y-94801735D01*
X145387255Y-94794320D01*
X145416320Y-94771427D01*
X145426812Y-94761127D01*
X145472743Y-94715196D01*
X145472743Y-94228602D01*
X145435774Y-94211758D01*
X145403941Y-94199282D01*
X145385317Y-94194914D01*
X145380542Y-94208718D01*
X145376079Y-94247286D01*
X145372225Y-94306356D01*
X145369278Y-94381663D01*
X145367857Y-94445286D01*
X145363886Y-94695657D01*
X145329241Y-94700556D01*
X145297732Y-94697131D01*
X145282292Y-94686041D01*
X145277977Y-94665308D01*
X145274292Y-94621145D01*
X145271531Y-94559146D01*
X145269988Y-94484909D01*
X145269765Y-94446706D01*
X145269543Y-94226783D01*
X145223834Y-94210849D01*
X145191482Y-94200015D01*
X145173885Y-94194962D01*
X145173377Y-94194914D01*
X145171612Y-94208648D01*
X145169671Y-94246730D01*
X145167718Y-94304482D01*
X145165916Y-94377227D01*
X145164657Y-94445286D01*
X145160686Y-94695657D01*
X145073600Y-94695657D01*
X145069604Y-94467240D01*
X145065608Y-94238822D01*
X145023153Y-94216868D01*
X144991808Y-94201793D01*
X144973256Y-94194951D01*
X144972721Y-94194914D01*
X144970167Y-94208663D01*
X144970167Y-94208663D01*
G37*
X144970167Y-94208663D02*
X144967952Y-94246850D01*
X144966216Y-94304886D01*
X144965101Y-94378180D01*
X144964743Y-94455055D01*
X144964743Y-94715196D01*
X145010674Y-94761127D01*
X145042325Y-94789429D01*
X145070110Y-94800893D01*
X145108085Y-94800168D01*
X145123160Y-94798321D01*
X145170274Y-94792948D01*
X145209244Y-94789869D01*
X145218743Y-94789585D01*
X145250767Y-94791445D01*
X145296568Y-94796114D01*
X145314326Y-94798321D01*
X145357943Y-94801735D01*
X145387255Y-94794320D01*
X145416320Y-94771427D01*
X145426812Y-94761127D01*
X145472743Y-94715196D01*
X145472743Y-94228602D01*
X145435774Y-94211758D01*
X145403941Y-94199282D01*
X145385317Y-94194914D01*
X145380542Y-94208718D01*
X145376079Y-94247286D01*
X145372225Y-94306356D01*
X145369278Y-94381663D01*
X145367857Y-94445286D01*
X145363886Y-94695657D01*
X145329241Y-94700556D01*
X145297732Y-94697131D01*
X145282292Y-94686041D01*
X145277977Y-94665308D01*
X145274292Y-94621145D01*
X145271531Y-94559146D01*
X145269988Y-94484909D01*
X145269765Y-94446706D01*
X145269543Y-94226783D01*
X145223834Y-94210849D01*
X145191482Y-94200015D01*
X145173885Y-94194962D01*
X145173377Y-94194914D01*
X145171612Y-94208648D01*
X145169671Y-94246730D01*
X145167718Y-94304482D01*
X145165916Y-94377227D01*
X145164657Y-94445286D01*
X145160686Y-94695657D01*
X145073600Y-94695657D01*
X145069604Y-94467240D01*
X145065608Y-94238822D01*
X145023153Y-94216868D01*
X144991808Y-94201793D01*
X144973256Y-94194951D01*
X144972721Y-94194914D01*
X144970167Y-94208663D01*
G36*
X144605124Y-94206335D02*
X144563333Y-94225344D01*
X144530531Y-94248378D01*
X144506497Y-94274133D01*
X144489903Y-94307358D01*
X144479423Y-94352800D01*
X144473729Y-94415207D01*
X144471493Y-94499327D01*
X144471257Y-94554721D01*
X144471257Y-94770826D01*
X144508226Y-94787670D01*
X144537344Y-94799981D01*
X144551769Y-94804514D01*
X144554528Y-94791025D01*
X144556718Y-94754653D01*
X144558058Y-94701542D01*
X144558343Y-94659372D01*
X144559566Y-94598447D01*
X144562864Y-94550115D01*
X144567679Y-94520518D01*
X144571504Y-94514229D01*
X144597217Y-94520652D01*
X144637582Y-94537125D01*
X144684321Y-94559458D01*
X144729155Y-94583457D01*
X144763807Y-94604930D01*
X144779998Y-94619685D01*
X144780062Y-94619845D01*
X144778670Y-94647152D01*
X144766182Y-94673219D01*
X144744257Y-94694392D01*
X144712257Y-94701474D01*
X144684908Y-94700649D01*
X144646174Y-94700042D01*
X144625842Y-94709116D01*
X144613631Y-94733092D01*
X144612091Y-94737613D01*
X144606797Y-94771806D01*
X144620953Y-94792568D01*
X144657852Y-94802462D01*
X144697711Y-94804292D01*
X144769438Y-94790727D01*
X144806568Y-94771355D01*
X144852424Y-94725845D01*
X144876744Y-94669983D01*
X144878927Y-94610957D01*
X144858371Y-94555953D01*
X144827451Y-94521486D01*
X144796580Y-94502189D01*
X144748058Y-94477759D01*
X144691515Y-94452985D01*
X144682090Y-94449199D01*
X144619981Y-94421791D01*
X144584178Y-94397634D01*
X144572663Y-94373619D01*
X144583420Y-94346635D01*
X144601886Y-94325543D01*
X144645531Y-94299572D01*
X144693554Y-94297624D01*
X144737594Y-94317637D01*
X144769291Y-94357551D01*
X144773451Y-94367848D01*
X144797673Y-94405724D01*
X144833035Y-94433842D01*
X144877657Y-94456917D01*
X144877657Y-94391485D01*
X144875031Y-94351506D01*
X144863770Y-94319997D01*
X144838801Y-94286378D01*
X144814831Y-94260484D01*
X144777559Y-94223817D01*
X144748599Y-94204121D01*
X144717495Y-94196220D01*
X144682287Y-94194914D01*
X144605124Y-94206335D01*
X144605124Y-94206335D01*
G37*
X144605124Y-94206335D02*
X144563333Y-94225344D01*
X144530531Y-94248378D01*
X144506497Y-94274133D01*
X144489903Y-94307358D01*
X144479423Y-94352800D01*
X144473729Y-94415207D01*
X144471493Y-94499327D01*
X144471257Y-94554721D01*
X144471257Y-94770826D01*
X144508226Y-94787670D01*
X144537344Y-94799981D01*
X144551769Y-94804514D01*
X144554528Y-94791025D01*
X144556718Y-94754653D01*
X144558058Y-94701542D01*
X144558343Y-94659372D01*
X144559566Y-94598447D01*
X144562864Y-94550115D01*
X144567679Y-94520518D01*
X144571504Y-94514229D01*
X144597217Y-94520652D01*
X144637582Y-94537125D01*
X144684321Y-94559458D01*
X144729155Y-94583457D01*
X144763807Y-94604930D01*
X144779998Y-94619685D01*
X144780062Y-94619845D01*
X144778670Y-94647152D01*
X144766182Y-94673219D01*
X144744257Y-94694392D01*
X144712257Y-94701474D01*
X144684908Y-94700649D01*
X144646174Y-94700042D01*
X144625842Y-94709116D01*
X144613631Y-94733092D01*
X144612091Y-94737613D01*
X144606797Y-94771806D01*
X144620953Y-94792568D01*
X144657852Y-94802462D01*
X144697711Y-94804292D01*
X144769438Y-94790727D01*
X144806568Y-94771355D01*
X144852424Y-94725845D01*
X144876744Y-94669983D01*
X144878927Y-94610957D01*
X144858371Y-94555953D01*
X144827451Y-94521486D01*
X144796580Y-94502189D01*
X144748058Y-94477759D01*
X144691515Y-94452985D01*
X144682090Y-94449199D01*
X144619981Y-94421791D01*
X144584178Y-94397634D01*
X144572663Y-94373619D01*
X144583420Y-94346635D01*
X144601886Y-94325543D01*
X144645531Y-94299572D01*
X144693554Y-94297624D01*
X144737594Y-94317637D01*
X144769291Y-94357551D01*
X144773451Y-94367848D01*
X144797673Y-94405724D01*
X144833035Y-94433842D01*
X144877657Y-94456917D01*
X144877657Y-94391485D01*
X144875031Y-94351506D01*
X144863770Y-94319997D01*
X144838801Y-94286378D01*
X144814831Y-94260484D01*
X144777559Y-94223817D01*
X144748599Y-94204121D01*
X144717495Y-94196220D01*
X144682287Y-94194914D01*
X144605124Y-94206335D01*
G36*
X144097400Y-94208752D02*
X144080052Y-94216334D01*
X144038644Y-94249128D01*
X144003235Y-94296547D01*
X143981336Y-94347151D01*
X143977771Y-94372098D01*
X143989721Y-94406927D01*
X144015933Y-94425357D01*
X144044036Y-94436516D01*
X144056905Y-94438572D01*
X144063171Y-94423649D01*
X144075544Y-94391175D01*
X144080972Y-94376502D01*
X144111410Y-94325744D01*
X144155480Y-94300427D01*
X144211990Y-94301206D01*
X144216175Y-94302203D01*
X144246345Y-94316507D01*
X144268524Y-94344393D01*
X144283673Y-94389287D01*
X144292750Y-94454615D01*
X144296714Y-94543804D01*
X144297086Y-94591261D01*
X144297270Y-94666071D01*
X144298478Y-94717069D01*
X144301691Y-94749471D01*
X144307891Y-94768495D01*
X144318060Y-94779356D01*
X144333181Y-94787272D01*
X144334054Y-94787670D01*
X144363172Y-94799981D01*
X144377597Y-94804514D01*
X144379814Y-94790809D01*
X144381711Y-94752925D01*
X144383153Y-94695715D01*
X144384002Y-94624027D01*
X144384171Y-94571565D01*
X144383308Y-94470047D01*
X144379930Y-94393032D01*
X144372858Y-94336023D01*
X144360912Y-94294526D01*
X144342910Y-94264043D01*
X144317673Y-94240080D01*
X144292753Y-94223355D01*
X144232829Y-94201097D01*
X144163089Y-94196076D01*
X144097400Y-94208752D01*
X144097400Y-94208752D01*
G37*
X144097400Y-94208752D02*
X144080052Y-94216334D01*
X144038644Y-94249128D01*
X144003235Y-94296547D01*
X143981336Y-94347151D01*
X143977771Y-94372098D01*
X143989721Y-94406927D01*
X144015933Y-94425357D01*
X144044036Y-94436516D01*
X144056905Y-94438572D01*
X144063171Y-94423649D01*
X144075544Y-94391175D01*
X144080972Y-94376502D01*
X144111410Y-94325744D01*
X144155480Y-94300427D01*
X144211990Y-94301206D01*
X144216175Y-94302203D01*
X144246345Y-94316507D01*
X144268524Y-94344393D01*
X144283673Y-94389287D01*
X144292750Y-94454615D01*
X144296714Y-94543804D01*
X144297086Y-94591261D01*
X144297270Y-94666071D01*
X144298478Y-94717069D01*
X144301691Y-94749471D01*
X144307891Y-94768495D01*
X144318060Y-94779356D01*
X144333181Y-94787272D01*
X144334054Y-94787670D01*
X144363172Y-94799981D01*
X144377597Y-94804514D01*
X144379814Y-94790809D01*
X144381711Y-94752925D01*
X144383153Y-94695715D01*
X144384002Y-94624027D01*
X144384171Y-94571565D01*
X144383308Y-94470047D01*
X144379930Y-94393032D01*
X144372858Y-94336023D01*
X144360912Y-94294526D01*
X144342910Y-94264043D01*
X144317673Y-94240080D01*
X144292753Y-94223355D01*
X144232829Y-94201097D01*
X144163089Y-94196076D01*
X144097400Y-94208752D01*
G36*
X143596405Y-94216966D02*
X143538979Y-94254497D01*
X143511281Y-94288096D01*
X143489338Y-94349064D01*
X143487595Y-94397308D01*
X143491543Y-94461816D01*
X143640314Y-94526934D01*
X143712651Y-94560202D01*
X143759916Y-94586964D01*
X143784493Y-94610144D01*
X143788763Y-94632667D01*
X143775111Y-94657455D01*
X143760057Y-94673886D01*
X143716254Y-94700235D01*
X143668611Y-94702081D01*
X143624855Y-94681546D01*
X143592711Y-94640752D01*
X143586962Y-94626347D01*
X143559424Y-94581356D01*
X143527742Y-94562182D01*
X143484286Y-94545779D01*
X143484286Y-94607966D01*
X143488128Y-94650283D01*
X143503177Y-94685969D01*
X143534720Y-94726943D01*
X143539408Y-94732267D01*
X143574494Y-94768720D01*
X143604653Y-94788283D01*
X143642385Y-94797283D01*
X143673665Y-94800230D01*
X143729615Y-94800965D01*
X143769445Y-94791660D01*
X143794292Y-94777846D01*
X143833344Y-94747467D01*
X143860375Y-94714613D01*
X143877483Y-94673294D01*
X143886762Y-94617521D01*
X143890307Y-94541305D01*
X143890590Y-94502622D01*
X143889628Y-94456247D01*
X143801993Y-94456247D01*
X143800977Y-94481126D01*
X143798444Y-94485200D01*
X143781726Y-94479665D01*
X143745751Y-94465017D01*
X143697669Y-94444190D01*
X143687614Y-94439714D01*
X143626848Y-94408814D01*
X143593368Y-94381657D01*
X143586010Y-94356220D01*
X143603609Y-94330481D01*
X143618144Y-94319109D01*
X143670590Y-94296364D01*
X143719678Y-94300122D01*
X143760773Y-94327884D01*
X143789242Y-94377152D01*
X143798369Y-94416257D01*
X143801993Y-94456247D01*
X143889628Y-94456247D01*
X143888715Y-94412249D01*
X143881804Y-94345384D01*
X143868116Y-94296695D01*
X143845904Y-94260849D01*
X143813426Y-94232513D01*
X143799267Y-94223355D01*
X143734947Y-94199507D01*
X143664527Y-94198006D01*
X143596405Y-94216966D01*
X143596405Y-94216966D01*
G37*
X143596405Y-94216966D02*
X143538979Y-94254497D01*
X143511281Y-94288096D01*
X143489338Y-94349064D01*
X143487595Y-94397308D01*
X143491543Y-94461816D01*
X143640314Y-94526934D01*
X143712651Y-94560202D01*
X143759916Y-94586964D01*
X143784493Y-94610144D01*
X143788763Y-94632667D01*
X143775111Y-94657455D01*
X143760057Y-94673886D01*
X143716254Y-94700235D01*
X143668611Y-94702081D01*
X143624855Y-94681546D01*
X143592711Y-94640752D01*
X143586962Y-94626347D01*
X143559424Y-94581356D01*
X143527742Y-94562182D01*
X143484286Y-94545779D01*
X143484286Y-94607966D01*
X143488128Y-94650283D01*
X143503177Y-94685969D01*
X143534720Y-94726943D01*
X143539408Y-94732267D01*
X143574494Y-94768720D01*
X143604653Y-94788283D01*
X143642385Y-94797283D01*
X143673665Y-94800230D01*
X143729615Y-94800965D01*
X143769445Y-94791660D01*
X143794292Y-94777846D01*
X143833344Y-94747467D01*
X143860375Y-94714613D01*
X143877483Y-94673294D01*
X143886762Y-94617521D01*
X143890307Y-94541305D01*
X143890590Y-94502622D01*
X143889628Y-94456247D01*
X143801993Y-94456247D01*
X143800977Y-94481126D01*
X143798444Y-94485200D01*
X143781726Y-94479665D01*
X143745751Y-94465017D01*
X143697669Y-94444190D01*
X143687614Y-94439714D01*
X143626848Y-94408814D01*
X143593368Y-94381657D01*
X143586010Y-94356220D01*
X143603609Y-94330481D01*
X143618144Y-94319109D01*
X143670590Y-94296364D01*
X143719678Y-94300122D01*
X143760773Y-94327884D01*
X143789242Y-94377152D01*
X143798369Y-94416257D01*
X143801993Y-94456247D01*
X143889628Y-94456247D01*
X143888715Y-94412249D01*
X143881804Y-94345384D01*
X143868116Y-94296695D01*
X143845904Y-94260849D01*
X143813426Y-94232513D01*
X143799267Y-94223355D01*
X143734947Y-94199507D01*
X143664527Y-94198006D01*
X143596405Y-94216966D01*
G36*
X146646090Y-89492348D02*
X146567546Y-89492778D01*
X146510702Y-89493942D01*
X146471895Y-89496207D01*
X146447462Y-89499940D01*
X146433738Y-89505506D01*
X146427060Y-89513273D01*
X146423764Y-89523605D01*
X146423444Y-89524943D01*
X146418438Y-89549079D01*
X146409171Y-89596701D01*
X146396608Y-89662741D01*
X146381713Y-89742128D01*
X146365449Y-89829796D01*
X146364881Y-89832875D01*
X146348590Y-89918789D01*
X146333348Y-89994696D01*
X146320139Y-90056045D01*
X146309946Y-90098282D01*
X146303752Y-90116855D01*
X146303457Y-90117184D01*
X146285212Y-90126253D01*
X146247595Y-90141367D01*
X146198729Y-90159262D01*
X146198457Y-90159358D01*
X146136907Y-90182493D01*
X146064343Y-90211965D01*
X145995943Y-90241597D01*
X145992706Y-90243062D01*
X145881298Y-90293626D01*
X145634601Y-90125160D01*
X145558923Y-90073803D01*
X145490369Y-90027889D01*
X145432912Y-89990030D01*
X145390524Y-89962837D01*
X145367175Y-89948921D01*
X145364958Y-89947889D01*
X145347990Y-89952484D01*
X145316299Y-89974655D01*
X145268648Y-90015447D01*
X145203802Y-90075905D01*
X145137603Y-90140227D01*
X145073786Y-90203612D01*
X145016671Y-90261451D01*
X144969695Y-90310175D01*
X144936297Y-90346210D01*
X144919915Y-90365984D01*
X144919306Y-90367002D01*
X144917495Y-90380572D01*
X144924317Y-90402733D01*
X144941460Y-90436478D01*
X144970607Y-90484800D01*
X145013445Y-90550692D01*
X145070552Y-90635517D01*
X145121234Y-90710177D01*
X145166539Y-90777140D01*
X145203850Y-90832516D01*
X145230548Y-90872420D01*
X145244015Y-90892962D01*
X145244863Y-90894356D01*
X145243219Y-90914038D01*
X145230755Y-90952293D01*
X145209952Y-91001889D01*
X145202538Y-91017728D01*
X145170186Y-91088290D01*
X145135672Y-91168353D01*
X145107635Y-91237629D01*
X145087432Y-91289045D01*
X145071385Y-91328119D01*
X145062112Y-91348541D01*
X145060959Y-91350114D01*
X145043904Y-91352721D01*
X145003702Y-91359863D01*
X144945698Y-91370523D01*
X144875237Y-91383685D01*
X144797665Y-91398333D01*
X144718328Y-91413449D01*
X144642569Y-91428018D01*
X144575736Y-91441022D01*
X144523172Y-91451445D01*
X144490224Y-91458270D01*
X144482143Y-91460199D01*
X144473795Y-91464962D01*
X144467494Y-91475718D01*
X144462955Y-91496098D01*
X144459896Y-91529734D01*
X144458033Y-91580255D01*
X144457082Y-91651292D01*
X144456760Y-91746476D01*
X144456743Y-91785492D01*
X144456743Y-92102799D01*
X144532943Y-92117839D01*
X144575337Y-92125995D01*
X144638600Y-92137899D01*
X144715038Y-92152116D01*
X144796957Y-92167210D01*
X144819600Y-92171355D01*
X144895194Y-92186053D01*
X144961047Y-92200505D01*
X145011634Y-92213375D01*
X145041426Y-92223322D01*
X145046388Y-92226287D01*
X145058574Y-92247283D01*
X145076047Y-92287967D01*
X145095423Y-92340322D01*
X145099266Y-92351600D01*
X145124661Y-92421523D01*
X145156183Y-92500418D01*
X145187031Y-92571266D01*
X145187183Y-92571595D01*
X145238553Y-92682733D01*
X145069601Y-92931253D01*
X144900648Y-93179772D01*
X145117571Y-93397058D01*
X145183181Y-93461726D01*
X145243021Y-93518733D01*
X145293733Y-93565033D01*
X145331954Y-93597584D01*
X145354325Y-93613343D01*
X145357534Y-93614343D01*
X145376374Y-93606469D01*
X145414820Y-93584578D01*
X145468670Y-93551267D01*
X145533724Y-93509131D01*
X145604060Y-93461943D01*
X145675445Y-93413810D01*
X145739092Y-93371928D01*
X145790959Y-93338871D01*
X145827005Y-93317218D01*
X145843133Y-93309543D01*
X145862811Y-93316037D01*
X145900125Y-93333150D01*
X145947379Y-93357326D01*
X145952388Y-93360013D01*
X146016023Y-93391927D01*
X146059659Y-93407579D01*
X146086798Y-93407745D01*
X146100943Y-93393204D01*
X146101025Y-93393000D01*
X146108095Y-93375779D01*
X146124958Y-93334899D01*
X146150305Y-93273525D01*
X146182829Y-93194819D01*
X146221222Y-93101947D01*
X146264178Y-92998072D01*
X146305778Y-92897502D01*
X146351496Y-92786516D01*
X146393474Y-92683703D01*
X146430452Y-92592215D01*
X146461173Y-92515201D01*
X146484378Y-92455815D01*
X146498810Y-92417209D01*
X146503257Y-92402800D01*
X146492104Y-92386272D01*
X146462931Y-92359930D01*
X146424029Y-92330887D01*
X146313243Y-92239039D01*
X146226649Y-92133759D01*
X146165284Y-92017266D01*
X146130185Y-91891776D01*
X146122392Y-91759507D01*
X146128057Y-91698457D01*
X146158922Y-91571795D01*
X146212080Y-91459941D01*
X146284233Y-91364001D01*
X146372083Y-91285076D01*
X146472335Y-91224270D01*
X146581690Y-91182687D01*
X146696853Y-91161428D01*
X146814525Y-91161599D01*
X146931410Y-91184301D01*
X147044211Y-91230638D01*
X147149631Y-91301713D01*
X147193632Y-91341911D01*
X147278021Y-91445129D01*
X147336778Y-91557925D01*
X147370296Y-91677010D01*
X147378965Y-91799095D01*
X147363177Y-91920893D01*
X147323322Y-92039116D01*
X147259793Y-92150475D01*
X147172979Y-92251684D01*
X147075971Y-92330887D01*
X147035563Y-92361162D01*
X147007018Y-92387219D01*
X146996743Y-92402825D01*
X147002123Y-92419843D01*
X147017425Y-92460500D01*
X147041388Y-92521642D01*
X147072756Y-92600119D01*
X147110268Y-92692780D01*
X147152667Y-92796472D01*
X147194337Y-92897526D01*
X147240310Y-93008607D01*
X147282893Y-93111541D01*
X147320779Y-93203165D01*
X147352660Y-93280316D01*
X147377229Y-93339831D01*
X147393180Y-93378544D01*
X147399090Y-93393000D01*
X147413052Y-93407685D01*
X147440060Y-93407642D01*
X147483587Y-93392099D01*
X147547110Y-93360284D01*
X147547612Y-93360013D01*
X147595440Y-93335323D01*
X147634103Y-93317338D01*
X147655905Y-93309614D01*
X147656867Y-93309543D01*
X147673279Y-93317378D01*
X147709513Y-93339165D01*
X147761526Y-93372328D01*
X147825275Y-93414291D01*
X147895940Y-93461943D01*
X147967884Y-93510191D01*
X148032726Y-93552151D01*
X148086265Y-93585227D01*
X148124303Y-93606821D01*
X148142467Y-93614343D01*
X148159192Y-93604457D01*
X148192820Y-93576826D01*
X148239990Y-93534495D01*
X148297342Y-93480505D01*
X148361516Y-93417899D01*
X148382503Y-93396983D01*
X148599501Y-93179623D01*
X148434332Y-92937220D01*
X148384136Y-92862781D01*
X148340081Y-92795972D01*
X148304638Y-92740665D01*
X148280281Y-92700729D01*
X148269478Y-92680036D01*
X148269162Y-92678563D01*
X148274857Y-92659058D01*
X148290174Y-92619822D01*
X148312463Y-92567430D01*
X148328107Y-92532355D01*
X148357359Y-92465201D01*
X148384906Y-92397358D01*
X148406263Y-92340034D01*
X148412065Y-92322572D01*
X148428548Y-92275938D01*
X148444660Y-92239905D01*
X148453510Y-92226287D01*
X148473040Y-92217952D01*
X148515666Y-92206137D01*
X148575855Y-92192181D01*
X148648078Y-92177422D01*
X148680400Y-92171355D01*
X148762478Y-92156273D01*
X148841205Y-92141669D01*
X148908891Y-92128980D01*
X148957840Y-92119642D01*
X148967057Y-92117839D01*
X149043257Y-92102799D01*
X149043257Y-91785492D01*
X149043086Y-91681154D01*
X149042384Y-91602213D01*
X149040866Y-91545038D01*
X149038251Y-91505999D01*
X149034254Y-91481465D01*
X149028591Y-91467805D01*
X149020980Y-91461389D01*
X149017857Y-91460199D01*
X148999022Y-91455980D01*
X148957412Y-91447562D01*
X148898370Y-91435961D01*
X148827243Y-91422195D01*
X148749375Y-91407280D01*
X148670113Y-91392232D01*
X148594802Y-91378069D01*
X148528787Y-91365806D01*
X148477413Y-91356461D01*
X148446025Y-91351050D01*
X148439041Y-91350114D01*
X148432715Y-91337596D01*
X148418710Y-91304246D01*
X148399645Y-91256377D01*
X148392366Y-91237629D01*
X148363004Y-91165195D01*
X148328429Y-91085170D01*
X148297463Y-91017728D01*
X148274677Y-90966159D01*
X148259518Y-90923785D01*
X148254458Y-90897834D01*
X148255264Y-90894356D01*
X148265959Y-90877936D01*
X148290380Y-90841417D01*
X148325905Y-90788687D01*
X148369913Y-90723635D01*
X148419783Y-90650151D01*
X148429644Y-90635645D01*
X148487508Y-90549704D01*
X148530044Y-90484261D01*
X148558946Y-90436304D01*
X148575910Y-90402820D01*
X148582633Y-90380795D01*
X148580810Y-90367217D01*
X148580764Y-90367131D01*
X148566414Y-90349297D01*
X148534677Y-90314817D01*
X148488990Y-90267268D01*
X148432796Y-90210222D01*
X148369532Y-90147255D01*
X148362398Y-90140227D01*
X148282670Y-90063020D01*
X148221143Y-90006330D01*
X148176579Y-89969110D01*
X148147743Y-89950315D01*
X148135042Y-89947889D01*
X148116506Y-89958471D01*
X148078039Y-89982916D01*
X148023614Y-90018612D01*
X147957202Y-90062947D01*
X147882775Y-90113311D01*
X147865399Y-90125160D01*
X147618703Y-90293626D01*
X147507294Y-90243062D01*
X147439543Y-90213595D01*
X147366817Y-90183959D01*
X147304297Y-90160330D01*
X147301543Y-90159358D01*
X147252640Y-90141457D01*
X147214943Y-90126320D01*
X147196575Y-90117210D01*
X147196544Y-90117184D01*
X147190715Y-90100717D01*
X147180808Y-90060219D01*
X147167805Y-90000242D01*
X147152691Y-89925340D01*
X147136448Y-89840064D01*
X147135119Y-89832875D01*
X147118825Y-89745014D01*
X147103867Y-89665260D01*
X147091209Y-89598681D01*
X147081814Y-89550347D01*
X147076646Y-89525325D01*
X147076556Y-89524943D01*
X147073411Y-89514299D01*
X147067296Y-89506262D01*
X147054547Y-89500467D01*
X147031500Y-89496547D01*
X146994491Y-89494135D01*
X146939856Y-89492865D01*
X146863933Y-89492371D01*
X146763056Y-89492286D01*
X146750000Y-89492286D01*
X146646090Y-89492348D01*
X146646090Y-89492348D01*
G37*
X146646090Y-89492348D02*
X146567546Y-89492778D01*
X146510702Y-89493942D01*
X146471895Y-89496207D01*
X146447462Y-89499940D01*
X146433738Y-89505506D01*
X146427060Y-89513273D01*
X146423764Y-89523605D01*
X146423444Y-89524943D01*
X146418438Y-89549079D01*
X146409171Y-89596701D01*
X146396608Y-89662741D01*
X146381713Y-89742128D01*
X146365449Y-89829796D01*
X146364881Y-89832875D01*
X146348590Y-89918789D01*
X146333348Y-89994696D01*
X146320139Y-90056045D01*
X146309946Y-90098282D01*
X146303752Y-90116855D01*
X146303457Y-90117184D01*
X146285212Y-90126253D01*
X146247595Y-90141367D01*
X146198729Y-90159262D01*
X146198457Y-90159358D01*
X146136907Y-90182493D01*
X146064343Y-90211965D01*
X145995943Y-90241597D01*
X145992706Y-90243062D01*
X145881298Y-90293626D01*
X145634601Y-90125160D01*
X145558923Y-90073803D01*
X145490369Y-90027889D01*
X145432912Y-89990030D01*
X145390524Y-89962837D01*
X145367175Y-89948921D01*
X145364958Y-89947889D01*
X145347990Y-89952484D01*
X145316299Y-89974655D01*
X145268648Y-90015447D01*
X145203802Y-90075905D01*
X145137603Y-90140227D01*
X145073786Y-90203612D01*
X145016671Y-90261451D01*
X144969695Y-90310175D01*
X144936297Y-90346210D01*
X144919915Y-90365984D01*
X144919306Y-90367002D01*
X144917495Y-90380572D01*
X144924317Y-90402733D01*
X144941460Y-90436478D01*
X144970607Y-90484800D01*
X145013445Y-90550692D01*
X145070552Y-90635517D01*
X145121234Y-90710177D01*
X145166539Y-90777140D01*
X145203850Y-90832516D01*
X145230548Y-90872420D01*
X145244015Y-90892962D01*
X145244863Y-90894356D01*
X145243219Y-90914038D01*
X145230755Y-90952293D01*
X145209952Y-91001889D01*
X145202538Y-91017728D01*
X145170186Y-91088290D01*
X145135672Y-91168353D01*
X145107635Y-91237629D01*
X145087432Y-91289045D01*
X145071385Y-91328119D01*
X145062112Y-91348541D01*
X145060959Y-91350114D01*
X145043904Y-91352721D01*
X145003702Y-91359863D01*
X144945698Y-91370523D01*
X144875237Y-91383685D01*
X144797665Y-91398333D01*
X144718328Y-91413449D01*
X144642569Y-91428018D01*
X144575736Y-91441022D01*
X144523172Y-91451445D01*
X144490224Y-91458270D01*
X144482143Y-91460199D01*
X144473795Y-91464962D01*
X144467494Y-91475718D01*
X144462955Y-91496098D01*
X144459896Y-91529734D01*
X144458033Y-91580255D01*
X144457082Y-91651292D01*
X144456760Y-91746476D01*
X144456743Y-91785492D01*
X144456743Y-92102799D01*
X144532943Y-92117839D01*
X144575337Y-92125995D01*
X144638600Y-92137899D01*
X144715038Y-92152116D01*
X144796957Y-92167210D01*
X144819600Y-92171355D01*
X144895194Y-92186053D01*
X144961047Y-92200505D01*
X145011634Y-92213375D01*
X145041426Y-92223322D01*
X145046388Y-92226287D01*
X145058574Y-92247283D01*
X145076047Y-92287967D01*
X145095423Y-92340322D01*
X145099266Y-92351600D01*
X145124661Y-92421523D01*
X145156183Y-92500418D01*
X145187031Y-92571266D01*
X145187183Y-92571595D01*
X145238553Y-92682733D01*
X145069601Y-92931253D01*
X144900648Y-93179772D01*
X145117571Y-93397058D01*
X145183181Y-93461726D01*
X145243021Y-93518733D01*
X145293733Y-93565033D01*
X145331954Y-93597584D01*
X145354325Y-93613343D01*
X145357534Y-93614343D01*
X145376374Y-93606469D01*
X145414820Y-93584578D01*
X145468670Y-93551267D01*
X145533724Y-93509131D01*
X145604060Y-93461943D01*
X145675445Y-93413810D01*
X145739092Y-93371928D01*
X145790959Y-93338871D01*
X145827005Y-93317218D01*
X145843133Y-93309543D01*
X145862811Y-93316037D01*
X145900125Y-93333150D01*
X145947379Y-93357326D01*
X145952388Y-93360013D01*
X146016023Y-93391927D01*
X146059659Y-93407579D01*
X146086798Y-93407745D01*
X146100943Y-93393204D01*
X146101025Y-93393000D01*
X146108095Y-93375779D01*
X146124958Y-93334899D01*
X146150305Y-93273525D01*
X146182829Y-93194819D01*
X146221222Y-93101947D01*
X146264178Y-92998072D01*
X146305778Y-92897502D01*
X146351496Y-92786516D01*
X146393474Y-92683703D01*
X146430452Y-92592215D01*
X146461173Y-92515201D01*
X146484378Y-92455815D01*
X146498810Y-92417209D01*
X146503257Y-92402800D01*
X146492104Y-92386272D01*
X146462931Y-92359930D01*
X146424029Y-92330887D01*
X146313243Y-92239039D01*
X146226649Y-92133759D01*
X146165284Y-92017266D01*
X146130185Y-91891776D01*
X146122392Y-91759507D01*
X146128057Y-91698457D01*
X146158922Y-91571795D01*
X146212080Y-91459941D01*
X146284233Y-91364001D01*
X146372083Y-91285076D01*
X146472335Y-91224270D01*
X146581690Y-91182687D01*
X146696853Y-91161428D01*
X146814525Y-91161599D01*
X146931410Y-91184301D01*
X147044211Y-91230638D01*
X147149631Y-91301713D01*
X147193632Y-91341911D01*
X147278021Y-91445129D01*
X147336778Y-91557925D01*
X147370296Y-91677010D01*
X147378965Y-91799095D01*
X147363177Y-91920893D01*
X147323322Y-92039116D01*
X147259793Y-92150475D01*
X147172979Y-92251684D01*
X147075971Y-92330887D01*
X147035563Y-92361162D01*
X147007018Y-92387219D01*
X146996743Y-92402825D01*
X147002123Y-92419843D01*
X147017425Y-92460500D01*
X147041388Y-92521642D01*
X147072756Y-92600119D01*
X147110268Y-92692780D01*
X147152667Y-92796472D01*
X147194337Y-92897526D01*
X147240310Y-93008607D01*
X147282893Y-93111541D01*
X147320779Y-93203165D01*
X147352660Y-93280316D01*
X147377229Y-93339831D01*
X147393180Y-93378544D01*
X147399090Y-93393000D01*
X147413052Y-93407685D01*
X147440060Y-93407642D01*
X147483587Y-93392099D01*
X147547110Y-93360284D01*
X147547612Y-93360013D01*
X147595440Y-93335323D01*
X147634103Y-93317338D01*
X147655905Y-93309614D01*
X147656867Y-93309543D01*
X147673279Y-93317378D01*
X147709513Y-93339165D01*
X147761526Y-93372328D01*
X147825275Y-93414291D01*
X147895940Y-93461943D01*
X147967884Y-93510191D01*
X148032726Y-93552151D01*
X148086265Y-93585227D01*
X148124303Y-93606821D01*
X148142467Y-93614343D01*
X148159192Y-93604457D01*
X148192820Y-93576826D01*
X148239990Y-93534495D01*
X148297342Y-93480505D01*
X148361516Y-93417899D01*
X148382503Y-93396983D01*
X148599501Y-93179623D01*
X148434332Y-92937220D01*
X148384136Y-92862781D01*
X148340081Y-92795972D01*
X148304638Y-92740665D01*
X148280281Y-92700729D01*
X148269478Y-92680036D01*
X148269162Y-92678563D01*
X148274857Y-92659058D01*
X148290174Y-92619822D01*
X148312463Y-92567430D01*
X148328107Y-92532355D01*
X148357359Y-92465201D01*
X148384906Y-92397358D01*
X148406263Y-92340034D01*
X148412065Y-92322572D01*
X148428548Y-92275938D01*
X148444660Y-92239905D01*
X148453510Y-92226287D01*
X148473040Y-92217952D01*
X148515666Y-92206137D01*
X148575855Y-92192181D01*
X148648078Y-92177422D01*
X148680400Y-92171355D01*
X148762478Y-92156273D01*
X148841205Y-92141669D01*
X148908891Y-92128980D01*
X148957840Y-92119642D01*
X148967057Y-92117839D01*
X149043257Y-92102799D01*
X149043257Y-91785492D01*
X149043086Y-91681154D01*
X149042384Y-91602213D01*
X149040866Y-91545038D01*
X149038251Y-91505999D01*
X149034254Y-91481465D01*
X149028591Y-91467805D01*
X149020980Y-91461389D01*
X149017857Y-91460199D01*
X148999022Y-91455980D01*
X148957412Y-91447562D01*
X148898370Y-91435961D01*
X148827243Y-91422195D01*
X148749375Y-91407280D01*
X148670113Y-91392232D01*
X148594802Y-91378069D01*
X148528787Y-91365806D01*
X148477413Y-91356461D01*
X148446025Y-91351050D01*
X148439041Y-91350114D01*
X148432715Y-91337596D01*
X148418710Y-91304246D01*
X148399645Y-91256377D01*
X148392366Y-91237629D01*
X148363004Y-91165195D01*
X148328429Y-91085170D01*
X148297463Y-91017728D01*
X148274677Y-90966159D01*
X148259518Y-90923785D01*
X148254458Y-90897834D01*
X148255264Y-90894356D01*
X148265959Y-90877936D01*
X148290380Y-90841417D01*
X148325905Y-90788687D01*
X148369913Y-90723635D01*
X148419783Y-90650151D01*
X148429644Y-90635645D01*
X148487508Y-90549704D01*
X148530044Y-90484261D01*
X148558946Y-90436304D01*
X148575910Y-90402820D01*
X148582633Y-90380795D01*
X148580810Y-90367217D01*
X148580764Y-90367131D01*
X148566414Y-90349297D01*
X148534677Y-90314817D01*
X148488990Y-90267268D01*
X148432796Y-90210222D01*
X148369532Y-90147255D01*
X148362398Y-90140227D01*
X148282670Y-90063020D01*
X148221143Y-90006330D01*
X148176579Y-89969110D01*
X148147743Y-89950315D01*
X148135042Y-89947889D01*
X148116506Y-89958471D01*
X148078039Y-89982916D01*
X148023614Y-90018612D01*
X147957202Y-90062947D01*
X147882775Y-90113311D01*
X147865399Y-90125160D01*
X147618703Y-90293626D01*
X147507294Y-90243062D01*
X147439543Y-90213595D01*
X147366817Y-90183959D01*
X147304297Y-90160330D01*
X147301543Y-90159358D01*
X147252640Y-90141457D01*
X147214943Y-90126320D01*
X147196575Y-90117210D01*
X147196544Y-90117184D01*
X147190715Y-90100717D01*
X147180808Y-90060219D01*
X147167805Y-90000242D01*
X147152691Y-89925340D01*
X147136448Y-89840064D01*
X147135119Y-89832875D01*
X147118825Y-89745014D01*
X147103867Y-89665260D01*
X147091209Y-89598681D01*
X147081814Y-89550347D01*
X147076646Y-89525325D01*
X147076556Y-89524943D01*
X147073411Y-89514299D01*
X147067296Y-89506262D01*
X147054547Y-89500467D01*
X147031500Y-89496547D01*
X146994491Y-89494135D01*
X146939856Y-89492865D01*
X146863933Y-89492371D01*
X146763056Y-89492286D01*
X146750000Y-89492286D01*
X146646090Y-89492348D01*
M02*
