%FSLAX33Y33*%
%MOMM*%
%AMRect-W1400000-H1400000-RO1.000*
21,1,1.4,1.4,0.,0.,180*%
%AMRR-H500000-W2017345-R250000-RO0.000*
21,1,1.517345,0.5,0.,0.,360*
1,1,0.5,-0.7586725,0.*
1,1,0.5,0.7586725,0.*
1,1,0.5,0.7586725,-0.*
1,1,0.5,-0.7586725,0.*%
%AMRR-H2017345-W500000-R250000-RO0.000*
21,1,0.5,1.517345,0.,0.,360*
1,1,0.5,0.,0.7586725*
1,1,0.5,0.,0.7586725*
1,1,0.5,0.,-0.7586725*
1,1,0.5,-0.,-0.7586725*%
%AMRect-W2474066-H622132-RO1.000*
21,1,2.474066,0.622132,0.,0.,180*%
%AMRR-H622132-W2474066-R311066-RO1.000*
21,1,1.851934,0.622132,0.,0.,180*
1,1,0.622132,0.925967,-0.*
1,1,0.622132,-0.925967,-0.*
1,1,0.622132,-0.925967,0.*
1,1,0.622132,0.925967,0.*%
%AMRect-W670710-H1320710-RO1.000*
21,1,0.67071,1.32071,0.,0.,180*%
%AMRect-W670710-H1320710-RO1.500*
21,1,0.67071,1.32071,0.,0.,90*%
%AMRect-W1650000-H1650000-RO0.500*
21,1,1.65,1.65,0.,0.,270*%
%AMRR-H2600000-W2000000-R1000000-RO0.000*
21,1,2.,0.6,0.,0.,360*
1,1,2.,0.,0.3*
1,1,2.,0.,0.3*
1,1,2.,0.,-0.3*
1,1,2.,-0.,-0.3*%
%AMRect-W1574348-H617986-RO1.000*
21,1,1.574348,0.617986,0.,0.,180*%
%AMRect-W3500000-H1200000-RO1.500*
21,1,3.5,1.2,0.,0.,90*%
%AMRect-W1650000-H1650000-RO1.500*
21,1,1.65,1.65,0.,0.,90*%
%AMRect-W820710-H1670710-RO1.500*
21,1,0.82071,1.67071,0.,0.,90*%
%AMRect-W670710-H1320710-RO0.500*
21,1,0.67071,1.32071,0.,0.,270*%
%AMRect-W820710-H1670710-RO0.500*
21,1,0.82071,1.67071,0.,0.,270*%
%AMRect-W1600000-H1600000-RO1.500*
21,1,1.6,1.6,0.,0.,90*%
%AMRect-W1200000-H1200000-RO1.000*
21,1,1.2,1.2,0.,0.,180*%
%AMRR-H522474-W1805236-R261237-RO0.000*
21,1,1.282762,0.522474,0.,0.,360*
1,1,0.522474,-0.641381,0.*
1,1,0.522474,0.641381,0.*
1,1,0.522474,0.641381,-0.*
1,1,0.522474,-0.641381,0.*%
%ADD10C,0.5588*%
%ADD11C,0.508*%
%ADD12C,0.6096*%
%ADD13R,0.67071X1.32071*%
%ADD14C,1.46*%
%ADD15Rect-W1400000-H1400000-RO1.000*%
%ADD16R,2.017345X0.5*%
%ADD17RR-H500000-W2017345-R250000-RO0.000*%
%ADD18RR-H2017345-W500000-R250000-RO0.000*%
%ADD19Rect-W2474066-H622132-RO1.000*%
%ADD20RR-H622132-W2474066-R311066-RO1.000*%
%ADD21Rect-W670710-H1320710-RO1.000*%
%ADD22Rect-W670710-H1320710-RO1.500*%
%ADD23C,1.75*%
%ADD24Rect-W1650000-H1650000-RO0.500*%
%ADD25RR-H2600000-W2000000-R1000000-RO0.000*%
%ADD26R,1.4X1.4*%
%ADD27C,1.46*%
%ADD28Rect-W1574348-H617986-RO1.000*%
%ADD29Rect-W3500000-H1200000-RO1.500*%
%ADD30C,1.75*%
%ADD31Rect-W1650000-H1650000-RO1.500*%
%ADD32Rect-W820710-H1670710-RO1.500*%
%ADD33R,1.X0.7*%
%ADD34C,2.4*%
%ADD35Rect-W670710-H1320710-RO0.500*%
%ADD36Rect-W820710-H1670710-RO0.500*%
%ADD37C,1.7*%
%ADD38Rect-W1600000-H1600000-RO1.500*%
%ADD39Rect-W1200000-H1200000-RO1.000*%
%ADD40R,1.805236X0.522474*%
%ADD41RR-H522474-W1805236-R261237-RO0.000*%
%ADD42C,2.6*%
D10*
%LNtop solder mask_traces*%
G01*
X48400Y30766D03*
D11*
X33900Y34739D03*
X32450Y16510D03*
X41517Y26990D03*
X46567Y26190D03*
X46567Y23790D03*
D10*
X34150Y23512D03*
X39150Y25390D03*
D12*
X37000Y33469D03*
D10*
X34150Y25673D03*
D11*
X50035Y23790D03*
D10*
X43367Y27540D03*
X43917Y26990D03*
D11*
X38620Y37279D03*
D10*
X43367Y21200D03*
X46200Y36270D03*
D11*
X30659Y37750D03*
X43504Y29390D03*
X33900Y36009D03*
X46817Y24590D03*
X42717Y29390D03*
D12*
X13100Y13500D03*
D10*
X44417Y29390D03*
%LNtop solder mask component 0a1ece96d17ebea2*%
D13*
X20874Y21804D03*
X22974Y21804D03*
%LNtop solder mask component e927e838d71b22e8*%
D14*
X41220Y6270D03*
X41220Y8810D03*
X41220Y11350D03*
X38680Y5000D03*
X38680Y7540D03*
X38680Y10080D03*
X38680Y12620D03*
D15*
X41220Y3730D03*
%LNtop solder mask component bc3ea8611caa3e07*%
D16*
X40391Y29390D03*
D17*
X40391Y23790D03*
D18*
X47367Y30766D03*
X44967Y22414D03*
X46567Y22414D03*
D17*
X40391Y28590D03*
X40391Y26190D03*
X40391Y26990D03*
X40391Y24590D03*
D18*
X44167Y22414D03*
D17*
X40391Y25390D03*
X48743Y24590D03*
X48743Y27790D03*
D18*
X43367Y22414D03*
D17*
X48743Y26190D03*
D18*
X42567Y30766D03*
X44167Y30766D03*
D17*
X48743Y26990D03*
X48743Y25390D03*
D18*
X46567Y30766D03*
X44967Y30766D03*
D17*
X48743Y28590D03*
D18*
X41767Y22414D03*
X45767Y30766D03*
D17*
X40391Y27790D03*
D18*
X47367Y22414D03*
X45767Y22414D03*
X43367Y30766D03*
D17*
X48743Y23790D03*
D18*
X41767Y30766D03*
X42567Y22414D03*
D17*
X48743Y29390D03*
%LNtop solder mask component 9bd7a942015e546a*%
D13*
X20866Y26560D03*
X22966Y26560D03*
%LNtop solder mask component 8591dcaa33399401*%
X30659Y34540D03*
X32759Y34540D03*
%LNtop solder mask component 715de8a551f8d0d2*%
D19*
X40265Y33469D03*
D20*
X40265Y34739D03*
X40265Y36009D03*
X40265Y37279D03*
X35433Y37279D03*
X35433Y36009D03*
X35433Y34739D03*
X35433Y33469D03*
%LNtop solder mask component c5d1b4d132d35c39*%
D21*
X19550Y21816D03*
X17450Y21816D03*
%LNtop solder mask component 11da1af26442d9e8*%
D22*
X52120Y25140D03*
X52120Y27240D03*
%LNtop solder mask component 1b9c3ae7aa850f0e*%
D13*
X30659Y36370D03*
X32759Y36370D03*
%LNtop solder mask component 76321958aac1b876*%
D23*
X50290Y36270D03*
X47750Y36270D03*
X52830Y33730D03*
X50290Y33730D03*
X47750Y33730D03*
D24*
X52830Y36270D03*
%LNtop solder mask component 2467ff9ea4507952*%
D25*
X54366Y27805D03*
%LNtop solder mask component 4fb6784ca3f5679d*%
D26*
X14520Y12645D03*
D27*
X14520Y10105D03*
X14520Y7565D03*
X14520Y5025D03*
X17060Y11375D03*
X17060Y8835D03*
X17060Y6295D03*
X17060Y3755D03*
%LNtop solder mask component 40c3eb5b698cab48*%
D28*
X14035Y18466D03*
X14035Y20366D03*
X11865Y19416D03*
%LNtop solder mask component 083346c8b30380df*%
D29*
X31500Y24583D03*
X31500Y30083D03*
%LNtop solder mask component 814c5c3c6d480639*%
D21*
X27207Y15850D03*
X25107Y15850D03*
%LNtop solder mask component 1cceaf18e1fac281*%
D28*
X14035Y22247D03*
X14035Y24147D03*
X11865Y23197D03*
%LNtop solder mask component 8edc88c39419afd6*%
X14035Y26227D03*
X14035Y28127D03*
X11865Y27177D03*
%LNtop solder mask component 1f4c9ea0bcf20234*%
D30*
X51430Y17800D03*
X43810Y17800D03*
X53970Y17800D03*
X46350Y17800D03*
X48890Y17800D03*
D31*
X41270Y17800D03*
%LNtop solder mask component 18e4fbd411461424*%
D13*
X25107Y17760D03*
X27207Y17760D03*
%LNtop solder mask component 3c2fbee2bfd92707*%
D32*
X22300Y29480D03*
X22300Y32630D03*
%LNtop solder mask component 3ad29614db60c4f9*%
D21*
X19550Y26560D03*
X17450Y26560D03*
%LNtop solder mask component 3bfeb67455c7a435*%
D33*
X29800Y17720D03*
X31200Y17720D03*
X29800Y16520D03*
X31200Y16520D03*
%LNtop solder mask component 5cf368a6857aed40*%
D21*
X19015Y29280D03*
X16915Y29280D03*
%LNtop solder mask component 6e0fb9a0a2af981a*%
X36835Y23512D03*
X34735Y23512D03*
%LNtop solder mask component 4190dd77f7484c42*%
D34*
X52850Y3000D03*
%LNtop solder mask component 6d85366a808c8716*%
D35*
X45117Y36185D03*
X45117Y34085D03*
%LNtop solder mask component ccc2b801174ecec9*%
D36*
X22300Y37432D03*
X22300Y34282D03*
%LNtop solder mask component 42c4de660b89ae48*%
D34*
X3000Y34150D03*
%LNtop solder mask component d3b49b9b3ebcc615*%
D21*
X36835Y25673D03*
X34735Y25673D03*
%LNtop solder mask component 2b1d07057fd146e9*%
D13*
X20866Y24261D03*
X22966Y24261D03*
%LNtop solder mask component 150f7c3933538442*%
X34735Y27823D03*
X36835Y27823D03*
%LNtop solder mask component 8cd5750fd74509b5*%
D21*
X9685Y29280D03*
X7585Y29280D03*
%LNtop solder mask component 2b46ff2cd35e5a06*%
D13*
X52066Y20300D03*
X54166Y20300D03*
%LNtop solder mask component b91ec1a5d4001e45*%
D34*
X3000Y3000D03*
%LNtop solder mask component 347d401add0e6cdb*%
D22*
X52120Y28440D03*
X52120Y30540D03*
%LNtop solder mask component a835164194719c3b*%
D37*
X8970Y19357D03*
X8970Y21897D03*
X8970Y24437D03*
D38*
X8970Y26977D03*
%LNtop solder mask component 2905f58f01441a26*%
D39*
X54166Y22150D03*
X52066Y22150D03*
%LNtop solder mask component 0cb4257de17f4f13*%
D21*
X19550Y24261D03*
X17450Y24261D03*
%LNtop solder mask component 747d38665b9ef6ba*%
D13*
X25107Y19801D03*
X27207Y19801D03*
%LNtop solder mask component e2be4b268076fcad*%
D35*
X43127Y36185D03*
X43127Y34085D03*
%LNtop solder mask component ac6e6022896be475*%
D40*
X25894Y36520D03*
D41*
X25894Y35570D03*
X25894Y34620D03*
X28195Y34620D03*
X28195Y36520D03*
%LNtop solder mask component b02ef983d8c66af1*%
D42*
X19290Y32270D03*
X19290Y36230D03*
M02*