M48
;DRILL file {KiCad 4.0.6} date Sunday, June 25, 2017 'PMt' 04:07:13 PM
;FORMAT={-:-/ absolute / inch / decimal}
FMAT,2
INCH,TZ
T1C0.012
T2C0.020
T3C0.035
T4C0.039
T5C0.050
T6C0.063
T7C0.126
T8C0.128
%
G90
G05
M72
T1
X4.5945Y-3.2992
X4.6378Y-3.4213
X4.685Y-3.1693
X4.7795Y-3.5591
X4.7921Y-3.7774
X4.811Y-3.2205
X4.811Y-3.5157
X4.8898Y-3.6565
X4.9331Y-3.6732
X5.0039Y-3.4521
X5.0039Y-3.9961
X5.5079Y-2.9724
X6.2165Y-3.6594
T2
X4.0118Y-2.4776
X4.0118Y-3.9567
X4.1043Y-4.4291
X5.1358Y-4.8957
X5.4803Y-2.3346
X5.8957Y-2.1161
X5.937Y-4.6063
X6.3878Y-3.2677
X6.752Y-2.628
X6.8406Y-4.4291
X6.8543Y-2.9173
X6.8543Y-3.9409
T3
X5.2535Y-2.6394
X5.2543Y-4.3898
X5.3035Y-2.5394
X5.3043Y-4.2898
X5.3535Y-2.6394
X5.3543Y-4.3898
X5.4035Y-2.5394
X5.4043Y-4.2898
X5.4535Y-2.6394
X5.4543Y-4.3898
X5.5035Y-2.5394
X5.5043Y-4.2898
X5.5535Y-2.6394
X5.5543Y-4.3898
X5.6035Y-2.5394
X5.6043Y-4.2898
T4
X4.4291Y-2.7543
X4.4291Y-2.8543
X4.4291Y-2.9543
X4.4941Y-3.9504
X4.4941Y-4.0504
X4.4941Y-4.1504
X4.4941Y-4.2504
X4.4941Y-4.3504
X4.4941Y-4.4504
X4.5291Y-2.7543
X4.5291Y-2.8543
X4.5291Y-2.9543
T5
X4.4134Y-3.2874
T6
X6.1228Y-3.9362
X6.2787Y-3.9362
T7
X4.8819Y-2.5591
X4.9685Y-4.3504
X5.8937Y-4.3504
X5.9843Y-2.5591
T8
X5.1949Y-2.2894
X5.1957Y-4.6398
X5.6622Y-2.2894
X5.663Y-4.6398
T0
M30
