M48
;DRILL file {KiCad 4.0.5} date Monday, April 17, 2017 'AMt' 08:56:12 AM
;FORMAT={-:-/ absolute / inch / decimal}
FMAT,2
INCH,TZ
T1C0.012
T2C0.020
T3C0.035
T4C0.039
T5C0.050
T6C0.063
T7C0.126
T8C0.128
%
G90
G05
M72
T1
X4.5945Y-3.2992
X4.6378Y-3.4213
X4.685Y-3.1693
X4.7795Y-3.5591
X4.7921Y-3.7774
X4.811Y-3.2205
X4.811Y-3.5157
X4.8898Y-3.6565
X4.9331Y-3.6732
X5.0039Y-3.4521
X5.0039Y-3.9961
X5.5079Y-2.9724
X6.2165Y-3.6594
T2
X4.0118Y-3.9567
X4.0157Y-2.4606
X4.1043Y-4.4291
X5.128Y-4.8917
X5.8957Y-2.1161
X5.937Y-4.6063
X6.3878Y-3.2677
X6.752Y-2.628
X6.8406Y-4.4291
X6.8543Y-2.9173
T3
X5.2555Y-2.8362
X5.2555Y-4.187
X5.3055Y-2.7362
X5.3055Y-4.087
X5.3555Y-2.8362
X5.3555Y-4.187
X5.4055Y-2.7362
X5.4055Y-4.087
X5.4555Y-2.8362
X5.4555Y-4.187
X5.5055Y-2.7362
X5.5055Y-4.087
X5.5555Y-2.8362
X5.5555Y-4.187
X5.6055Y-2.7362
X5.6055Y-4.087
T4
X4.4291Y-2.7543
X4.4291Y-2.8543
X4.4291Y-2.9543
X4.5142Y-4.3307
X4.5291Y-2.7543
X4.5291Y-2.8543
X4.5291Y-2.9543
X4.6142Y-4.3307
X4.7142Y-4.3307
X4.8142Y-4.3307
X4.9142Y-4.3307
X5.0142Y-4.3307
T5
X4.4134Y-3.2874
T6
X6.1228Y-3.9362
X6.2787Y-3.9362
T7
X4.8819Y-2.5591
X5.8937Y-4.2795
X5.9843Y-2.5591
T8
X5.1969Y-2.4862
X5.1969Y-4.437
X5.6642Y-2.4862
X5.6642Y-4.437
T0
M30
