G04 #@! TF.FileFunction,Soldermask,Top*
%FSLAX46Y46*%
G04 Gerber Fmt 4.6, Leading zero omitted, Abs format (unit mm)*
G04 Created by KiCad (PCBNEW 4.0.5) date Monday, March 13, 2017 'PMt' 09:43:04 PM*
%MOMM*%
%LPD*%
G01*
G04 APERTURE LIST*
%ADD10C,0.100000*%
%ADD11C,4.000000*%
%ADD12R,1.250000X1.000000*%
%ADD13R,1.000000X1.250000*%
%ADD14R,1.000000X1.600000*%
%ADD15R,1.300000X0.700000*%
%ADD16R,0.700000X1.300000*%
%ADD17R,1.600000X0.550000*%
%ADD18R,0.550000X1.600000*%
%ADD19O,2.000000X2.600000*%
%ADD20C,3.650000*%
%ADD21R,1.500000X1.500000*%
%ADD22C,1.500000*%
%ADD23R,1.700000X1.700000*%
%ADD24O,1.700000X1.700000*%
%ADD25R,0.900000X0.800000*%
%ADD26R,0.650000X1.060000*%
%ADD27R,3.000000X2.800000*%
%ADD28R,0.600000X1.550000*%
%ADD29R,2.600000X2.600000*%
%ADD30C,2.600000*%
G04 APERTURE END LIST*
D10*
D11*
X111000000Y-99000000D03*
D12*
X127300000Y-88400000D03*
X127300000Y-90400000D03*
D13*
X155200000Y-94300000D03*
X153200000Y-94300000D03*
D14*
X155200000Y-96400000D03*
X152200000Y-96400000D03*
X155200000Y-98600000D03*
X152200000Y-98600000D03*
D12*
X114194529Y-87983473D03*
X114194529Y-89983473D03*
X127100000Y-100400000D03*
X127100000Y-98400000D03*
D13*
X155200000Y-92400000D03*
X153200000Y-92400000D03*
X157100000Y-92900000D03*
X159100000Y-92900000D03*
D15*
X123950000Y-121900000D03*
X123950000Y-123000000D03*
X123950000Y-124100000D03*
X127050000Y-124100000D03*
X127050000Y-123000000D03*
X127050000Y-121900000D03*
X110700000Y-121900000D03*
X110700000Y-123000000D03*
X110700000Y-124100000D03*
X113800000Y-124100000D03*
X113800000Y-123000000D03*
X113800000Y-121900000D03*
D16*
X104100000Y-118450000D03*
X103000000Y-118450000D03*
X101900000Y-118450000D03*
X101900000Y-121550000D03*
X103000000Y-121550000D03*
X104100000Y-121550000D03*
X104100000Y-103450000D03*
X103000000Y-103450000D03*
X101900000Y-103450000D03*
X101900000Y-106550000D03*
X103000000Y-106550000D03*
X104100000Y-106550000D03*
X104100000Y-88450000D03*
X103000000Y-88450000D03*
X101900000Y-88450000D03*
X101900000Y-91550000D03*
X103000000Y-91550000D03*
X104100000Y-91550000D03*
X104100000Y-73450000D03*
X103000000Y-73450000D03*
X101900000Y-73450000D03*
X101900000Y-76550000D03*
X103000000Y-76550000D03*
X104100000Y-76550000D03*
X104100000Y-58450000D03*
X103000000Y-58450000D03*
X101900000Y-58450000D03*
X101900000Y-61550000D03*
X103000000Y-61550000D03*
X104100000Y-61550000D03*
D15*
X111550000Y-54100000D03*
X111550000Y-53000000D03*
X111550000Y-51900000D03*
X108450000Y-51900000D03*
X108450000Y-53000000D03*
X108450000Y-54100000D03*
X126550000Y-54100000D03*
X126550000Y-53000000D03*
X126550000Y-51900000D03*
X123450000Y-51900000D03*
X123450000Y-53000000D03*
X123450000Y-54100000D03*
X151550000Y-54100000D03*
X151550000Y-53000000D03*
X151550000Y-51900000D03*
X148450000Y-51900000D03*
X148450000Y-53000000D03*
X148450000Y-54100000D03*
X166550000Y-54100000D03*
X166550000Y-53000000D03*
X166550000Y-51900000D03*
X163450000Y-51900000D03*
X163450000Y-53000000D03*
X163450000Y-54100000D03*
D16*
X171900000Y-61550000D03*
X173000000Y-61550000D03*
X174100000Y-61550000D03*
X174100000Y-58450000D03*
X173000000Y-58450000D03*
X171900000Y-58450000D03*
X171900000Y-76550000D03*
X173000000Y-76550000D03*
X174100000Y-76550000D03*
X174100000Y-73450000D03*
X173000000Y-73450000D03*
X171900000Y-73450000D03*
X171900000Y-91550000D03*
X173000000Y-91550000D03*
X174100000Y-91550000D03*
X174100000Y-88450000D03*
X173000000Y-88450000D03*
X171900000Y-88450000D03*
X171900000Y-106550000D03*
X173000000Y-106550000D03*
X174100000Y-106550000D03*
X174100000Y-103450000D03*
X173000000Y-103450000D03*
X171900000Y-103450000D03*
X171900000Y-121550000D03*
X173000000Y-121550000D03*
X174100000Y-121550000D03*
X174100000Y-118450000D03*
X173000000Y-118450000D03*
X171900000Y-118450000D03*
D15*
X163450000Y-121900000D03*
X163450000Y-123000000D03*
X163450000Y-124100000D03*
X166550000Y-124100000D03*
X166550000Y-123000000D03*
X166550000Y-121900000D03*
X148450000Y-121900000D03*
X148450000Y-123000000D03*
X148450000Y-124100000D03*
X151550000Y-124100000D03*
X151550000Y-123000000D03*
X151550000Y-121900000D03*
D17*
X125244529Y-90083473D03*
X125244529Y-89283473D03*
X125244529Y-88483473D03*
X125244529Y-87683473D03*
X125244529Y-86883473D03*
X125244529Y-86083473D03*
X125244529Y-85283473D03*
X125244529Y-84483473D03*
D18*
X123794529Y-83033473D03*
X122994529Y-83033473D03*
X122194529Y-83033473D03*
X121394529Y-83033473D03*
X120594529Y-83033473D03*
X119794529Y-83033473D03*
X118994529Y-83033473D03*
X118194529Y-83033473D03*
D17*
X116744529Y-84483473D03*
X116744529Y-85283473D03*
X116744529Y-86083473D03*
X116744529Y-86883473D03*
X116744529Y-87683473D03*
X116744529Y-88483473D03*
X116744529Y-89283473D03*
X116744529Y-90083473D03*
D18*
X118194529Y-91533473D03*
X118994529Y-91533473D03*
X119794529Y-91533473D03*
X120594529Y-91533473D03*
X121394529Y-91533473D03*
X122194529Y-91533473D03*
X122994529Y-91533473D03*
X123794529Y-91533473D03*
D19*
X112600000Y-83500000D03*
D20*
X143870000Y-112700000D03*
X132000000Y-112700000D03*
D21*
X133490000Y-106350000D03*
D22*
X134760000Y-103810000D03*
X136030000Y-106350000D03*
X137300000Y-103810000D03*
X138570000Y-106350000D03*
X139840000Y-103810000D03*
X141110000Y-106350000D03*
X142380000Y-103810000D03*
D20*
X132000000Y-63150000D03*
X143870000Y-63150000D03*
D21*
X142380000Y-69500000D03*
D22*
X141110000Y-72040000D03*
X139840000Y-69500000D03*
X138570000Y-72040000D03*
X137300000Y-69500000D03*
X136030000Y-72040000D03*
X134760000Y-69500000D03*
X133490000Y-72040000D03*
D23*
X112500000Y-69960000D03*
D24*
X115040000Y-69960000D03*
X112500000Y-72500000D03*
X115040000Y-72500000D03*
X112500000Y-75040000D03*
X115040000Y-75040000D03*
D23*
X114660000Y-110000000D03*
D24*
X117200000Y-110000000D03*
X119740000Y-110000000D03*
X122280000Y-110000000D03*
X124820000Y-110000000D03*
X127360000Y-110000000D03*
D25*
X159300000Y-78850000D03*
X159300000Y-80750000D03*
X161300000Y-79800000D03*
X159300000Y-85050000D03*
X159300000Y-86950000D03*
X161300000Y-86000000D03*
X159300000Y-72300000D03*
X159300000Y-74200000D03*
X161300000Y-73250000D03*
D15*
X105850000Y-116200000D03*
X105850000Y-114300000D03*
X103850000Y-116200000D03*
X103850000Y-114300000D03*
X101850000Y-116200000D03*
X101850000Y-114300000D03*
X105700000Y-71350000D03*
X105700000Y-69450000D03*
X103800000Y-71350000D03*
X103800000Y-69450000D03*
X101900000Y-71350000D03*
X101900000Y-69450000D03*
X126850000Y-55700000D03*
X126850000Y-57600000D03*
X124950000Y-55700000D03*
X124950000Y-57600000D03*
X128750000Y-51900000D03*
X128750000Y-53800000D03*
X170300000Y-63450000D03*
X170300000Y-65350000D03*
X172200000Y-63450000D03*
X172200000Y-65350000D03*
X174100000Y-63450000D03*
X174100000Y-65350000D03*
X170300000Y-108450000D03*
X170300000Y-110350000D03*
X172200000Y-108450000D03*
X172200000Y-110350000D03*
X174100000Y-108450000D03*
X174100000Y-110350000D03*
X148100000Y-120250000D03*
X148100000Y-118350000D03*
X150000000Y-120250000D03*
X150000000Y-118350000D03*
X146200000Y-124350000D03*
X146200000Y-122450000D03*
D16*
X151950000Y-74200000D03*
X153850000Y-74200000D03*
X152050000Y-86900000D03*
X153950000Y-86900000D03*
X152050000Y-80700000D03*
X153950000Y-80700000D03*
X153950000Y-78800000D03*
X152050000Y-78800000D03*
X153950000Y-85000000D03*
X152050000Y-85000000D03*
X153850000Y-72200000D03*
X151950000Y-72200000D03*
X113450000Y-77600000D03*
X111550000Y-77600000D03*
D15*
X127100000Y-94950000D03*
X127100000Y-96850000D03*
X112294529Y-87833473D03*
X112294529Y-89733473D03*
D26*
X157150000Y-96900000D03*
X158100000Y-96900000D03*
X159050000Y-96900000D03*
X159050000Y-94700000D03*
X157150000Y-94700000D03*
D27*
X133200000Y-90700000D03*
X133200000Y-85500000D03*
D28*
X125305000Y-94700000D03*
X124035000Y-94700000D03*
X122765000Y-94700000D03*
X121495000Y-94700000D03*
X121495000Y-100100000D03*
X122765000Y-100100000D03*
X124035000Y-100100000D03*
X125305000Y-100100000D03*
D13*
X136900000Y-89000000D03*
X138900000Y-89000000D03*
X136900000Y-87100000D03*
X138900000Y-87100000D03*
D11*
X166500000Y-99000000D03*
D29*
X155620000Y-102180000D03*
D30*
X159580000Y-102180000D03*
M02*
