G04 #@! TF.FileFunction,Copper,L1,Top,Signal*
%FSLAX46Y46*%
G04 Gerber Fmt 4.6, Leading zero omitted, Abs format (unit mm)*
G04 Created by KiCad (PCBNEW 4.0.2-stable) date Wednesday, September 28, 2016 'PMt' 10:14:20 PM*
%MOMM*%
G01*
G04 APERTURE LIST*
%ADD10C,0.100000*%
%ADD11C,3.649980*%
%ADD12R,1.501140X1.501140*%
%ADD13C,1.501140*%
%ADD14C,1.524000*%
%ADD15C,2.700020*%
%ADD16R,1.198880X1.198880*%
%ADD17R,0.700000X1.300000*%
%ADD18R,1.000000X1.250000*%
%ADD19R,1.750000X0.450000*%
%ADD20R,1.550000X0.600000*%
%ADD21C,0.685800*%
%ADD22C,0.152400*%
%ADD23C,0.203200*%
%ADD24C,0.250000*%
%ADD25C,0.254000*%
G04 APERTURE END LIST*
D10*
D11*
X188214000Y-111094520D03*
X188214000Y-99225100D03*
D12*
X181864000Y-100711000D03*
D13*
X179324000Y-101981000D03*
X181864000Y-103251000D03*
X179324000Y-104521000D03*
X181864000Y-105791000D03*
X179324000Y-107061000D03*
X181864000Y-108331000D03*
X179324000Y-109601000D03*
D14*
X151828500Y-106553000D03*
X151828500Y-104013000D03*
X149829520Y-104013000D03*
X149829520Y-106553000D03*
D15*
X147129500Y-111282480D03*
X147129500Y-99283520D03*
D16*
X158657980Y-108694000D03*
X160756020Y-108694000D03*
X158657980Y-110894000D03*
X160756020Y-110894000D03*
D17*
X155032000Y-110894000D03*
X156932000Y-110894000D03*
X155017500Y-108630500D03*
X156917500Y-108630500D03*
D18*
X144764000Y-101981000D03*
X142764000Y-101981000D03*
X144764000Y-104267000D03*
X142764000Y-104267000D03*
X144764000Y-106553000D03*
X142764000Y-106553000D03*
X144764000Y-108839000D03*
X142764000Y-108839000D03*
X186674000Y-106807000D03*
X184674000Y-106807000D03*
D16*
X158589980Y-101282500D03*
X160688020Y-101282500D03*
X158526480Y-103378000D03*
X160624520Y-103378000D03*
D17*
X155006000Y-103378000D03*
X156906000Y-103378000D03*
X193990000Y-110426500D03*
X192090000Y-110426500D03*
X176632000Y-102644000D03*
X174732000Y-102644000D03*
X184724000Y-103124000D03*
X186624000Y-103124000D03*
X176682000Y-106644000D03*
X174782000Y-106644000D03*
D19*
X172082000Y-109119000D03*
X172082000Y-108469000D03*
X172082000Y-107819000D03*
X172082000Y-107169000D03*
X172082000Y-106519000D03*
X172082000Y-105869000D03*
X172082000Y-105219000D03*
X172082000Y-104569000D03*
X172082000Y-103919000D03*
X172082000Y-103269000D03*
X172082000Y-102619000D03*
X172082000Y-101969000D03*
X172082000Y-101319000D03*
X172082000Y-100669000D03*
X164882000Y-100669000D03*
X164882000Y-101319000D03*
X164882000Y-101969000D03*
X164882000Y-102619000D03*
X164882000Y-103269000D03*
X164882000Y-103919000D03*
X164882000Y-104569000D03*
X164882000Y-105219000D03*
X164882000Y-105869000D03*
X164882000Y-106519000D03*
X164882000Y-107169000D03*
X164882000Y-107819000D03*
X164882000Y-108469000D03*
X164882000Y-109119000D03*
D20*
X194089000Y-107061000D03*
X194089000Y-105791000D03*
X194089000Y-104521000D03*
X194089000Y-103251000D03*
X188689000Y-103251000D03*
X188689000Y-104521000D03*
X188689000Y-105791000D03*
X188689000Y-107061000D03*
D17*
X155006000Y-101282500D03*
X156906000Y-101282500D03*
D21*
X155007000Y-102344000D03*
X155007000Y-109744000D03*
X166091688Y-103859114D03*
X173237602Y-107152149D03*
X177482000Y-102644000D03*
X177482000Y-106644000D03*
X190246000Y-107061000D03*
X146050000Y-104267000D03*
X161632000Y-101294000D03*
X174782000Y-105594000D03*
X173382000Y-101294000D03*
X192832000Y-102094000D03*
X193982000Y-102394000D03*
X173482000Y-109144000D03*
D22*
X155006000Y-101282500D02*
X155006000Y-102343000D01*
X155006000Y-102343000D02*
X155007000Y-102344000D01*
X155006000Y-103378000D02*
X155006000Y-102345000D01*
X155006000Y-102345000D02*
X155007000Y-102344000D01*
X155032000Y-110894000D02*
X155032000Y-109769000D01*
X155032000Y-109769000D02*
X155007000Y-109744000D01*
X155017500Y-108630500D02*
X155017500Y-109733500D01*
X155017500Y-109733500D02*
X155007000Y-109744000D01*
X164882000Y-103919000D02*
X166031802Y-103919000D01*
X166031802Y-103919000D02*
X166091688Y-103859114D01*
D23*
X172082000Y-107169000D02*
X173220751Y-107169000D01*
X173220751Y-107169000D02*
X173237602Y-107152149D01*
D22*
X176632000Y-102644000D02*
X177482000Y-102644000D01*
X176682000Y-106644000D02*
X177482000Y-106644000D01*
D24*
X188816000Y-107061000D02*
X190246000Y-107061000D01*
X144764000Y-104267000D02*
X146050000Y-104267000D01*
X188816000Y-107061000D02*
X187055000Y-107061000D01*
X144764000Y-106553000D02*
X144764000Y-104267000D01*
X144764000Y-101981000D02*
X144764000Y-104267000D01*
D22*
X146311400Y-107944000D02*
X152357000Y-107944000D01*
X152357000Y-107944000D02*
X155434777Y-104866223D01*
X144764000Y-108839000D02*
X145416400Y-108839000D01*
X145416400Y-108839000D02*
X146311400Y-107944000D01*
X155434777Y-104866223D02*
X161984777Y-104866223D01*
X161984777Y-104866223D02*
X163778399Y-103072601D01*
X163778399Y-102045201D02*
X163854600Y-101969000D01*
X163854600Y-101969000D02*
X164882000Y-101969000D01*
X163778399Y-103072601D02*
X163778399Y-102045201D01*
X158657980Y-110894000D02*
X156932000Y-110894000D01*
X164882000Y-105869000D02*
X163854600Y-105869000D01*
X163854600Y-105869000D02*
X161584061Y-108139539D01*
X161584061Y-108139539D02*
X161584061Y-110817799D01*
X161584061Y-110817799D02*
X161507860Y-110894000D01*
X161507860Y-110894000D02*
X160756020Y-110894000D01*
D24*
X158537980Y-108630500D02*
X158601480Y-108567000D01*
X156917500Y-108630500D02*
X158537980Y-108630500D01*
D22*
X160756020Y-108694000D02*
X160756020Y-107942160D01*
X160756020Y-107942160D02*
X163479180Y-105219000D01*
X163479180Y-105219000D02*
X163854600Y-105219000D01*
X163854600Y-105219000D02*
X164882000Y-105219000D01*
D24*
X156906000Y-101282500D02*
X158589980Y-101282500D01*
D22*
X160688020Y-101282500D02*
X161620500Y-101282500D01*
X161620500Y-101282500D02*
X161632000Y-101294000D01*
X174782000Y-105594000D02*
X174782000Y-106644000D01*
X174782000Y-106644000D02*
X174782000Y-106344000D01*
X172082000Y-107819000D02*
X173907000Y-107819000D01*
X173907000Y-107819000D02*
X174782000Y-106944000D01*
X174782000Y-106944000D02*
X174782000Y-106644000D01*
D23*
X161259520Y-101854000D02*
X160688020Y-101282500D01*
D24*
X160688020Y-101282500D02*
X161163000Y-101282500D01*
D23*
X160307020Y-101282500D02*
X160307020Y-100804980D01*
D24*
X156906000Y-103378000D02*
X158526480Y-103378000D01*
D22*
X172082000Y-103919000D02*
X171054600Y-103919000D01*
X167350999Y-100215399D02*
X163787121Y-100215399D01*
X171054600Y-103919000D02*
X167350999Y-100215399D01*
X160624520Y-103378000D02*
X163787121Y-100215399D01*
X174732000Y-102644000D02*
X174732000Y-102944000D01*
X174732000Y-102944000D02*
X176309000Y-104521000D01*
X176309000Y-104521000D02*
X178262534Y-104521000D01*
X178262534Y-104521000D02*
X179324000Y-104521000D01*
X172082000Y-103919000D02*
X173757000Y-103919000D01*
X173757000Y-103919000D02*
X174732000Y-102944000D01*
D24*
X179324000Y-105029000D02*
X179324000Y-104521000D01*
D23*
X160243520Y-103378000D02*
X160718500Y-103378000D01*
D24*
X188816000Y-104521000D02*
X188021000Y-104521000D01*
X188021000Y-104521000D02*
X186624000Y-103124000D01*
X181864000Y-100711000D02*
X184211000Y-100711000D01*
X184211000Y-100711000D02*
X186624000Y-103124000D01*
X184724000Y-103124000D02*
X184404000Y-103124000D01*
X184404000Y-103124000D02*
X183261000Y-101981000D01*
X183261000Y-101981000D02*
X179324000Y-101981000D01*
X188816000Y-105791000D02*
X187391000Y-105791000D01*
X187391000Y-105791000D02*
X184724000Y-103124000D01*
X188816000Y-105791000D02*
X188153000Y-105791000D01*
D22*
X163854600Y-101319000D02*
X164882000Y-101319000D01*
X163473588Y-102727412D02*
X163473588Y-101700012D01*
X163473588Y-101700012D02*
X163854600Y-101319000D01*
X153316933Y-106553000D02*
X155308521Y-104561412D01*
X155308521Y-104561412D02*
X161639588Y-104561412D01*
X161639588Y-104561412D02*
X163473588Y-102727412D01*
X151828500Y-106553000D02*
X153316933Y-106553000D01*
X161369399Y-104256601D02*
X163168777Y-102457223D01*
X163168777Y-102457223D02*
X163168777Y-101354823D01*
X163168777Y-101354823D02*
X163854600Y-100669000D01*
X163854600Y-100669000D02*
X164882000Y-100669000D01*
X149829520Y-106553000D02*
X151378919Y-105003601D01*
X151378919Y-105003601D02*
X154435265Y-105003601D01*
X154435265Y-105003601D02*
X155182265Y-104256601D01*
X155182265Y-104256601D02*
X161369399Y-104256601D01*
X173382000Y-101294000D02*
X172107000Y-101294000D01*
X172107000Y-101294000D02*
X172082000Y-101319000D01*
X193614000Y-104521000D02*
X192832000Y-103739000D01*
X192832000Y-103739000D02*
X192832000Y-102094000D01*
X194089000Y-104521000D02*
X193614000Y-104521000D01*
X172107000Y-101344000D02*
X172082000Y-101319000D01*
D23*
X193990000Y-110426500D02*
X193990000Y-109730500D01*
X195072000Y-105791000D02*
X194216000Y-105791000D01*
X195389500Y-106108500D02*
X195072000Y-105791000D01*
X195389500Y-108331000D02*
X195389500Y-106108500D01*
X193990000Y-109730500D02*
X195389500Y-108331000D01*
D24*
X194216000Y-105791000D02*
X194216000Y-104521000D01*
D23*
X193982000Y-102394000D02*
X193982000Y-103144000D01*
X193982000Y-103144000D02*
X194089000Y-103251000D01*
X172082000Y-109119000D02*
X173457000Y-109119000D01*
X173457000Y-109119000D02*
X173482000Y-109144000D01*
D22*
X184607000Y-108019000D02*
X192203600Y-108019000D01*
X192203600Y-108019000D02*
X193161600Y-107061000D01*
X193161600Y-107061000D02*
X194089000Y-107061000D01*
X181782000Y-110844000D02*
X184607000Y-108019000D01*
X172295518Y-110844000D02*
X181782000Y-110844000D01*
X172082000Y-106519000D02*
X171054600Y-106519000D01*
X171054600Y-106519000D02*
X170978399Y-106595201D01*
X170978399Y-106595201D02*
X170978399Y-109526881D01*
X170978399Y-109526881D02*
X172295518Y-110844000D01*
D25*
G36*
X145903504Y-97877919D02*
X147129500Y-99103915D01*
X148355496Y-97877919D01*
X148217420Y-97582000D01*
X186743164Y-97582000D01*
X186348332Y-97976144D01*
X186012393Y-98785175D01*
X186011628Y-99661181D01*
X186346155Y-100470798D01*
X186965044Y-101090768D01*
X187774075Y-101426707D01*
X188650081Y-101427472D01*
X189459698Y-101092945D01*
X190079668Y-100474056D01*
X190415607Y-99665025D01*
X190416372Y-98789019D01*
X190081845Y-97979402D01*
X189685136Y-97582000D01*
X195326000Y-97582000D01*
X195326000Y-105396170D01*
X195255153Y-105348831D01*
X195215429Y-105340929D01*
X195139530Y-105222980D01*
X195040580Y-105155370D01*
X195132020Y-105096530D01*
X195218101Y-104970547D01*
X195248385Y-104821000D01*
X195248385Y-104221000D01*
X195222097Y-104081292D01*
X195139530Y-103952980D01*
X195040580Y-103885370D01*
X195132020Y-103826530D01*
X195218101Y-103700547D01*
X195248385Y-103551000D01*
X195248385Y-102951000D01*
X195222097Y-102811292D01*
X195139530Y-102682980D01*
X195013547Y-102596899D01*
X194864000Y-102566615D01*
X194689820Y-102566615D01*
X194701775Y-102537825D01*
X194702025Y-102251431D01*
X194592658Y-101986742D01*
X194390323Y-101784054D01*
X194125825Y-101674225D01*
X193839431Y-101673975D01*
X193574742Y-101783342D01*
X193509488Y-101848483D01*
X193442658Y-101686742D01*
X193240323Y-101484054D01*
X192975825Y-101374225D01*
X192689431Y-101373975D01*
X192424742Y-101483342D01*
X192222054Y-101685677D01*
X192112225Y-101950175D01*
X192111975Y-102236569D01*
X192221342Y-102501258D01*
X192378800Y-102658991D01*
X192378800Y-103739000D01*
X192413298Y-103912432D01*
X192511539Y-104059461D01*
X192929615Y-104477537D01*
X192929615Y-104821000D01*
X192955903Y-104960708D01*
X193038470Y-105089020D01*
X193137420Y-105156630D01*
X193045980Y-105215470D01*
X192959899Y-105341453D01*
X192929615Y-105491000D01*
X192929615Y-106091000D01*
X192955903Y-106230708D01*
X193038470Y-106359020D01*
X193137420Y-106426630D01*
X193045980Y-106485470D01*
X192959899Y-106611453D01*
X192948252Y-106668969D01*
X192841139Y-106740539D01*
X192015878Y-107565800D01*
X190759301Y-107565800D01*
X190855946Y-107469323D01*
X190965775Y-107204825D01*
X190966025Y-106918431D01*
X190856658Y-106653742D01*
X190654323Y-106451054D01*
X190389825Y-106341225D01*
X190103431Y-106340975D01*
X189838742Y-106450342D01*
X189761628Y-106527321D01*
X189739530Y-106492980D01*
X189640580Y-106425370D01*
X189732020Y-106366530D01*
X189818101Y-106240547D01*
X189848385Y-106091000D01*
X189848385Y-105491000D01*
X189822097Y-105351292D01*
X189739530Y-105222980D01*
X189640580Y-105155370D01*
X189732020Y-105096530D01*
X189818101Y-104970547D01*
X189848385Y-104821000D01*
X189848385Y-104221000D01*
X189823615Y-104089361D01*
X189823698Y-104089327D01*
X190002327Y-103910699D01*
X190099000Y-103677310D01*
X190099000Y-103536750D01*
X189940250Y-103378000D01*
X188816000Y-103378000D01*
X188816000Y-103398000D01*
X188562000Y-103398000D01*
X188562000Y-103378000D01*
X188542000Y-103378000D01*
X188542000Y-103124000D01*
X188562000Y-103124000D01*
X188562000Y-102474750D01*
X188816000Y-102474750D01*
X188816000Y-103124000D01*
X189940250Y-103124000D01*
X190099000Y-102965250D01*
X190099000Y-102824690D01*
X190002327Y-102591301D01*
X189823698Y-102412673D01*
X189590309Y-102316000D01*
X188974750Y-102316000D01*
X188816000Y-102474750D01*
X188562000Y-102474750D01*
X188403250Y-102316000D01*
X187787691Y-102316000D01*
X187554302Y-102412673D01*
X187375673Y-102591301D01*
X187358385Y-102633038D01*
X187358385Y-102474000D01*
X187332097Y-102334292D01*
X187249530Y-102205980D01*
X187123547Y-102119899D01*
X186974000Y-102089615D01*
X186299550Y-102089615D01*
X184565968Y-100356032D01*
X184403107Y-100247212D01*
X184211000Y-100208999D01*
X184210995Y-100209000D01*
X182998955Y-100209000D01*
X182998955Y-99960430D01*
X182972667Y-99820722D01*
X182890100Y-99692410D01*
X182764117Y-99606329D01*
X182614570Y-99576045D01*
X181113430Y-99576045D01*
X180973722Y-99602333D01*
X180845410Y-99684900D01*
X180759329Y-99810883D01*
X180729045Y-99960430D01*
X180729045Y-101461570D01*
X180732325Y-101479000D01*
X180336609Y-101479000D01*
X180280464Y-101343118D01*
X179963551Y-101025650D01*
X179549271Y-100853627D01*
X179100697Y-100853235D01*
X178686118Y-101024536D01*
X178368650Y-101341449D01*
X178196627Y-101755729D01*
X178196235Y-102204303D01*
X178367536Y-102618882D01*
X178684449Y-102936350D01*
X179098729Y-103108373D01*
X179547303Y-103108765D01*
X179961882Y-102937464D01*
X180279350Y-102620551D01*
X180336466Y-102483000D01*
X181037324Y-102483000D01*
X180908650Y-102611449D01*
X180736627Y-103025729D01*
X180736235Y-103474303D01*
X180907536Y-103888882D01*
X181224449Y-104206350D01*
X181638729Y-104378373D01*
X182087303Y-104378765D01*
X182501882Y-104207464D01*
X182819350Y-103890551D01*
X182991373Y-103476271D01*
X182991765Y-103027697D01*
X182820464Y-102613118D01*
X182690573Y-102483000D01*
X183053064Y-102483000D01*
X183989615Y-103419551D01*
X183989615Y-103774000D01*
X184015903Y-103913708D01*
X184098470Y-104042020D01*
X184224453Y-104128101D01*
X184374000Y-104158385D01*
X185048449Y-104158385D01*
X186687680Y-105797615D01*
X186174000Y-105797615D01*
X186034292Y-105823903D01*
X185905980Y-105906470D01*
X185819899Y-106032453D01*
X185809000Y-106086274D01*
X185809000Y-106055690D01*
X185712327Y-105822301D01*
X185533698Y-105643673D01*
X185300309Y-105547000D01*
X184959750Y-105547000D01*
X184801000Y-105705750D01*
X184801000Y-106680000D01*
X184821000Y-106680000D01*
X184821000Y-106934000D01*
X184801000Y-106934000D01*
X184801000Y-106954000D01*
X184547000Y-106954000D01*
X184547000Y-106934000D01*
X183697750Y-106934000D01*
X183539000Y-107092750D01*
X183539000Y-107558310D01*
X183635673Y-107791699D01*
X183814302Y-107970327D01*
X183956041Y-108029037D01*
X181594278Y-110390800D01*
X180128838Y-110390800D01*
X180279350Y-110240551D01*
X180451373Y-109826271D01*
X180451765Y-109377697D01*
X180280464Y-108963118D01*
X179963551Y-108645650D01*
X179743562Y-108554303D01*
X180736235Y-108554303D01*
X180907536Y-108968882D01*
X181224449Y-109286350D01*
X181638729Y-109458373D01*
X182087303Y-109458765D01*
X182501882Y-109287464D01*
X182819350Y-108970551D01*
X182991373Y-108556271D01*
X182991765Y-108107697D01*
X182820464Y-107693118D01*
X182503551Y-107375650D01*
X182089271Y-107203627D01*
X181640697Y-107203235D01*
X181226118Y-107374536D01*
X180908650Y-107691449D01*
X180736627Y-108105729D01*
X180736235Y-108554303D01*
X179743562Y-108554303D01*
X179549271Y-108473627D01*
X179100697Y-108473235D01*
X178686118Y-108644536D01*
X178368650Y-108961449D01*
X178196627Y-109375729D01*
X178196235Y-109824303D01*
X178367536Y-110238882D01*
X178519188Y-110390800D01*
X172483239Y-110390800D01*
X171820825Y-109728385D01*
X172957000Y-109728385D01*
X173033745Y-109713944D01*
X173073677Y-109753946D01*
X173338175Y-109863775D01*
X173624569Y-109864025D01*
X173889258Y-109754658D01*
X174091946Y-109552323D01*
X174201775Y-109287825D01*
X174202025Y-109001431D01*
X174092658Y-108736742D01*
X173890323Y-108534054D01*
X173625825Y-108424225D01*
X173341385Y-108423977D01*
X173341385Y-108272200D01*
X173907000Y-108272200D01*
X174080432Y-108237702D01*
X174227461Y-108139461D01*
X174333992Y-108032930D01*
X178531675Y-108032930D01*
X178599735Y-108273931D01*
X179119034Y-108458767D01*
X179669538Y-108430805D01*
X180048265Y-108273931D01*
X180116325Y-108032930D01*
X179324000Y-107240605D01*
X178531675Y-108032930D01*
X174333992Y-108032930D01*
X174688537Y-107678385D01*
X175132000Y-107678385D01*
X175271708Y-107652097D01*
X175400020Y-107569530D01*
X175486101Y-107443547D01*
X175516385Y-107294000D01*
X175516385Y-105994000D01*
X175947615Y-105994000D01*
X175947615Y-107294000D01*
X175973903Y-107433708D01*
X176056470Y-107562020D01*
X176182453Y-107648101D01*
X176332000Y-107678385D01*
X177032000Y-107678385D01*
X177171708Y-107652097D01*
X177300020Y-107569530D01*
X177386101Y-107443547D01*
X177402244Y-107363831D01*
X177624569Y-107364025D01*
X177889258Y-107254658D01*
X177943719Y-107200292D01*
X177954195Y-107406538D01*
X178111069Y-107785265D01*
X178352070Y-107853325D01*
X179144395Y-107061000D01*
X179503605Y-107061000D01*
X180295930Y-107853325D01*
X180536931Y-107785265D01*
X180721767Y-107265966D01*
X180696217Y-106762930D01*
X181071675Y-106762930D01*
X181139735Y-107003931D01*
X181659034Y-107188767D01*
X182209538Y-107160805D01*
X182588265Y-107003931D01*
X182656325Y-106762930D01*
X181864000Y-105970605D01*
X181071675Y-106762930D01*
X180696217Y-106762930D01*
X180693805Y-106715462D01*
X180536931Y-106336735D01*
X180295930Y-106268675D01*
X179503605Y-107061000D01*
X179144395Y-107061000D01*
X178352070Y-106268675D01*
X178131581Y-106330942D01*
X178092658Y-106236742D01*
X177945244Y-106089070D01*
X178531675Y-106089070D01*
X179324000Y-106881395D01*
X180116325Y-106089070D01*
X180048265Y-105848069D01*
X179528966Y-105663233D01*
X178978462Y-105691195D01*
X178599735Y-105848069D01*
X178531675Y-106089070D01*
X177945244Y-106089070D01*
X177890323Y-106034054D01*
X177625825Y-105924225D01*
X177403219Y-105924031D01*
X177390097Y-105854292D01*
X177307530Y-105725980D01*
X177181547Y-105639899D01*
X177032000Y-105609615D01*
X176332000Y-105609615D01*
X176192292Y-105635903D01*
X176063980Y-105718470D01*
X175977899Y-105844453D01*
X175947615Y-105994000D01*
X175516385Y-105994000D01*
X175490097Y-105854292D01*
X175467801Y-105819643D01*
X175501775Y-105737825D01*
X175502025Y-105451431D01*
X175392658Y-105186742D01*
X175190323Y-104984054D01*
X174925825Y-104874225D01*
X174639431Y-104873975D01*
X174374742Y-104983342D01*
X174172054Y-105185677D01*
X174062225Y-105450175D01*
X174061975Y-105736569D01*
X174095754Y-105818321D01*
X174077899Y-105844453D01*
X174047615Y-105994000D01*
X174047615Y-107037463D01*
X173957524Y-107127554D01*
X173957627Y-107009580D01*
X173848260Y-106744891D01*
X173645925Y-106542203D01*
X173381427Y-106432374D01*
X173341385Y-106432339D01*
X173341385Y-106294000D01*
X173321878Y-106190329D01*
X173341385Y-106094000D01*
X173341385Y-105957640D01*
X173495327Y-105803699D01*
X173592000Y-105570310D01*
X173592000Y-105490250D01*
X173433250Y-105331500D01*
X173167432Y-105331500D01*
X173106547Y-105289899D01*
X172957000Y-105259615D01*
X171207000Y-105259615D01*
X171067292Y-105285903D01*
X170996433Y-105331500D01*
X170730750Y-105331500D01*
X170572000Y-105490250D01*
X170572000Y-105570310D01*
X170668673Y-105803699D01*
X170822615Y-105957640D01*
X170822615Y-106094000D01*
X170830207Y-106134349D01*
X170734139Y-106198539D01*
X170734137Y-106198542D01*
X170657938Y-106274740D01*
X170559697Y-106421769D01*
X170525199Y-106595201D01*
X170525199Y-109526881D01*
X170559697Y-109700313D01*
X170657938Y-109847342D01*
X171975055Y-111164458D01*
X171975057Y-111164461D01*
X172067228Y-111226047D01*
X172122086Y-111262702D01*
X172295518Y-111297201D01*
X172295523Y-111297200D01*
X181782000Y-111297200D01*
X181955432Y-111262702D01*
X182102461Y-111164461D01*
X184794722Y-108472200D01*
X192203600Y-108472200D01*
X192377032Y-108437702D01*
X192524061Y-108339461D01*
X193154929Y-107708593D01*
X193164453Y-107715101D01*
X193314000Y-107745385D01*
X194864000Y-107745385D01*
X194910900Y-107736560D01*
X194910900Y-108132758D01*
X193651579Y-109392079D01*
X193651555Y-109392115D01*
X193640000Y-109392115D01*
X193500292Y-109418403D01*
X193371980Y-109500970D01*
X193285899Y-109626953D01*
X193255615Y-109776500D01*
X193255615Y-111076500D01*
X193281903Y-111216208D01*
X193364470Y-111344520D01*
X193490453Y-111430601D01*
X193640000Y-111460885D01*
X194340000Y-111460885D01*
X194479708Y-111434597D01*
X194608020Y-111352030D01*
X194694101Y-111226047D01*
X194724385Y-111076500D01*
X194724385Y-109776500D01*
X194707987Y-109689355D01*
X195326000Y-109071342D01*
X195326000Y-112522000D01*
X189900832Y-112522000D01*
X190079668Y-112343476D01*
X190415607Y-111534445D01*
X190416325Y-110712250D01*
X191105000Y-110712250D01*
X191105000Y-111202810D01*
X191201673Y-111436199D01*
X191380302Y-111614827D01*
X191613691Y-111711500D01*
X191804250Y-111711500D01*
X191963000Y-111552750D01*
X191963000Y-110553500D01*
X192217000Y-110553500D01*
X192217000Y-111552750D01*
X192375750Y-111711500D01*
X192566309Y-111711500D01*
X192799698Y-111614827D01*
X192978327Y-111436199D01*
X193075000Y-111202810D01*
X193075000Y-110712250D01*
X192916250Y-110553500D01*
X192217000Y-110553500D01*
X191963000Y-110553500D01*
X191263750Y-110553500D01*
X191105000Y-110712250D01*
X190416325Y-110712250D01*
X190416372Y-110658439D01*
X190081845Y-109848822D01*
X189883560Y-109650190D01*
X191105000Y-109650190D01*
X191105000Y-110140750D01*
X191263750Y-110299500D01*
X191963000Y-110299500D01*
X191963000Y-109300250D01*
X192217000Y-109300250D01*
X192217000Y-110299500D01*
X192916250Y-110299500D01*
X193075000Y-110140750D01*
X193075000Y-109650190D01*
X192978327Y-109416801D01*
X192799698Y-109238173D01*
X192566309Y-109141500D01*
X192375750Y-109141500D01*
X192217000Y-109300250D01*
X191963000Y-109300250D01*
X191804250Y-109141500D01*
X191613691Y-109141500D01*
X191380302Y-109238173D01*
X191201673Y-109416801D01*
X191105000Y-109650190D01*
X189883560Y-109650190D01*
X189462956Y-109228852D01*
X188653925Y-108892913D01*
X187777919Y-108892148D01*
X186968302Y-109226675D01*
X186348332Y-109845564D01*
X186012393Y-110654595D01*
X186011628Y-111530601D01*
X186346155Y-112340218D01*
X186527620Y-112522000D01*
X148548628Y-112522000D01*
X148535103Y-112508475D01*
X148838290Y-112367008D01*
X149123247Y-111630528D01*
X149104674Y-110841060D01*
X148838290Y-110197952D01*
X148535101Y-110056484D01*
X147309105Y-111282480D01*
X147323248Y-111296623D01*
X147143643Y-111476228D01*
X147129500Y-111462085D01*
X147115358Y-111476228D01*
X146935753Y-111296623D01*
X146949895Y-111282480D01*
X145723899Y-110056484D01*
X145420710Y-110197952D01*
X145135753Y-110934432D01*
X145154326Y-111723900D01*
X145420710Y-112367008D01*
X145723897Y-112508475D01*
X145710372Y-112522000D01*
X137922000Y-112522000D01*
X137922000Y-109124750D01*
X141629000Y-109124750D01*
X141629000Y-109590310D01*
X141725673Y-109823699D01*
X141904302Y-110002327D01*
X142137691Y-110099000D01*
X142478250Y-110099000D01*
X142637000Y-109940250D01*
X142637000Y-108966000D01*
X141787750Y-108966000D01*
X141629000Y-109124750D01*
X137922000Y-109124750D01*
X137922000Y-106838750D01*
X141629000Y-106838750D01*
X141629000Y-107304310D01*
X141725673Y-107537699D01*
X141883975Y-107696000D01*
X141725673Y-107854301D01*
X141629000Y-108087690D01*
X141629000Y-108553250D01*
X141787750Y-108712000D01*
X142637000Y-108712000D01*
X142637000Y-107737750D01*
X142595250Y-107696000D01*
X142637000Y-107654250D01*
X142637000Y-106680000D01*
X141787750Y-106680000D01*
X141629000Y-106838750D01*
X137922000Y-106838750D01*
X137922000Y-104552750D01*
X141629000Y-104552750D01*
X141629000Y-105018310D01*
X141725673Y-105251699D01*
X141883975Y-105410000D01*
X141725673Y-105568301D01*
X141629000Y-105801690D01*
X141629000Y-106267250D01*
X141787750Y-106426000D01*
X142637000Y-106426000D01*
X142637000Y-105451750D01*
X142595250Y-105410000D01*
X142637000Y-105368250D01*
X142637000Y-104394000D01*
X141787750Y-104394000D01*
X141629000Y-104552750D01*
X137922000Y-104552750D01*
X137922000Y-102266750D01*
X141629000Y-102266750D01*
X141629000Y-102732310D01*
X141725673Y-102965699D01*
X141883975Y-103124000D01*
X141725673Y-103282301D01*
X141629000Y-103515690D01*
X141629000Y-103981250D01*
X141787750Y-104140000D01*
X142637000Y-104140000D01*
X142637000Y-103165750D01*
X142595250Y-103124000D01*
X142637000Y-103082250D01*
X142637000Y-102108000D01*
X141787750Y-102108000D01*
X141629000Y-102266750D01*
X137922000Y-102266750D01*
X137922000Y-101229690D01*
X141629000Y-101229690D01*
X141629000Y-101695250D01*
X141787750Y-101854000D01*
X142637000Y-101854000D01*
X142637000Y-100879750D01*
X142891000Y-100879750D01*
X142891000Y-101854000D01*
X142911000Y-101854000D01*
X142911000Y-102108000D01*
X142891000Y-102108000D01*
X142891000Y-103082250D01*
X142932750Y-103124000D01*
X142891000Y-103165750D01*
X142891000Y-104140000D01*
X142911000Y-104140000D01*
X142911000Y-104394000D01*
X142891000Y-104394000D01*
X142891000Y-105368250D01*
X142932750Y-105410000D01*
X142891000Y-105451750D01*
X142891000Y-106426000D01*
X142911000Y-106426000D01*
X142911000Y-106680000D01*
X142891000Y-106680000D01*
X142891000Y-107654250D01*
X142932750Y-107696000D01*
X142891000Y-107737750D01*
X142891000Y-108712000D01*
X142911000Y-108712000D01*
X142911000Y-108966000D01*
X142891000Y-108966000D01*
X142891000Y-109940250D01*
X143049750Y-110099000D01*
X143390309Y-110099000D01*
X143623698Y-110002327D01*
X143749146Y-109876879D01*
X145903504Y-109876879D01*
X147129500Y-111102875D01*
X148355496Y-109876879D01*
X148214028Y-109573690D01*
X147477548Y-109288733D01*
X146688080Y-109307306D01*
X146044972Y-109573690D01*
X145903504Y-109876879D01*
X143749146Y-109876879D01*
X143802327Y-109823699D01*
X143899000Y-109590310D01*
X143899000Y-109567022D01*
X143905903Y-109603708D01*
X143988470Y-109732020D01*
X144114453Y-109818101D01*
X144264000Y-109848385D01*
X145264000Y-109848385D01*
X145403708Y-109822097D01*
X145532020Y-109739530D01*
X145618101Y-109613547D01*
X145648385Y-109464000D01*
X145648385Y-109218578D01*
X145736861Y-109159461D01*
X146499122Y-108397200D01*
X152357000Y-108397200D01*
X152530432Y-108362702D01*
X152677461Y-108264461D01*
X152961422Y-107980500D01*
X154283115Y-107980500D01*
X154283115Y-109280500D01*
X154309403Y-109420208D01*
X154341343Y-109469844D01*
X154287225Y-109600175D01*
X154286975Y-109886569D01*
X154355924Y-110053438D01*
X154327899Y-110094453D01*
X154297615Y-110244000D01*
X154297615Y-111544000D01*
X154323903Y-111683708D01*
X154406470Y-111812020D01*
X154532453Y-111898101D01*
X154682000Y-111928385D01*
X155382000Y-111928385D01*
X155521708Y-111902097D01*
X155650020Y-111819530D01*
X155736101Y-111693547D01*
X155766385Y-111544000D01*
X155766385Y-110244000D01*
X156197615Y-110244000D01*
X156197615Y-111544000D01*
X156223903Y-111683708D01*
X156306470Y-111812020D01*
X156432453Y-111898101D01*
X156582000Y-111928385D01*
X157282000Y-111928385D01*
X157421708Y-111902097D01*
X157550020Y-111819530D01*
X157636101Y-111693547D01*
X157666385Y-111544000D01*
X157666385Y-111347200D01*
X157674155Y-111347200D01*
X157674155Y-111493440D01*
X157700443Y-111633148D01*
X157783010Y-111761460D01*
X157908993Y-111847541D01*
X158058540Y-111877825D01*
X159257420Y-111877825D01*
X159397128Y-111851537D01*
X159525440Y-111768970D01*
X159611521Y-111642987D01*
X159641805Y-111493440D01*
X159641805Y-110294560D01*
X159615517Y-110154852D01*
X159532950Y-110026540D01*
X159406967Y-109940459D01*
X159257420Y-109910175D01*
X158058540Y-109910175D01*
X157918832Y-109936463D01*
X157790520Y-110019030D01*
X157704439Y-110145013D01*
X157674155Y-110294560D01*
X157674155Y-110440800D01*
X157666385Y-110440800D01*
X157666385Y-110244000D01*
X157640097Y-110104292D01*
X157557530Y-109975980D01*
X157431547Y-109889899D01*
X157282000Y-109859615D01*
X156582000Y-109859615D01*
X156442292Y-109885903D01*
X156313980Y-109968470D01*
X156227899Y-110094453D01*
X156197615Y-110244000D01*
X155766385Y-110244000D01*
X155740097Y-110104292D01*
X155677368Y-110006810D01*
X155726775Y-109887825D01*
X155727025Y-109601431D01*
X155680852Y-109489684D01*
X155721601Y-109430047D01*
X155751885Y-109280500D01*
X155751885Y-107980500D01*
X156183115Y-107980500D01*
X156183115Y-109280500D01*
X156209403Y-109420208D01*
X156291970Y-109548520D01*
X156417953Y-109634601D01*
X156567500Y-109664885D01*
X157267500Y-109664885D01*
X157407208Y-109638597D01*
X157535520Y-109556030D01*
X157621601Y-109430047D01*
X157651885Y-109280500D01*
X157651885Y-109132500D01*
X157674155Y-109132500D01*
X157674155Y-109293440D01*
X157700443Y-109433148D01*
X157783010Y-109561460D01*
X157908993Y-109647541D01*
X158058540Y-109677825D01*
X159257420Y-109677825D01*
X159397128Y-109651537D01*
X159525440Y-109568970D01*
X159611521Y-109442987D01*
X159641805Y-109293440D01*
X159641805Y-108094560D01*
X159772195Y-108094560D01*
X159772195Y-109293440D01*
X159798483Y-109433148D01*
X159881050Y-109561460D01*
X160007033Y-109647541D01*
X160156580Y-109677825D01*
X161130861Y-109677825D01*
X161130861Y-109910175D01*
X160156580Y-109910175D01*
X160016872Y-109936463D01*
X159888560Y-110019030D01*
X159802479Y-110145013D01*
X159772195Y-110294560D01*
X159772195Y-111493440D01*
X159798483Y-111633148D01*
X159881050Y-111761460D01*
X160007033Y-111847541D01*
X160156580Y-111877825D01*
X161355460Y-111877825D01*
X161495168Y-111851537D01*
X161623480Y-111768970D01*
X161709561Y-111642987D01*
X161739845Y-111493440D01*
X161739845Y-111273578D01*
X161828321Y-111214461D01*
X161904519Y-111138262D01*
X161904522Y-111138260D01*
X162002763Y-110991231D01*
X162037261Y-110817799D01*
X162037261Y-108327261D01*
X163419386Y-106945136D01*
X163530750Y-107056500D01*
X163646475Y-107056500D01*
X163468673Y-107234301D01*
X163391403Y-107420847D01*
X163372000Y-107440250D01*
X163372000Y-107547750D01*
X163391403Y-107567153D01*
X163468673Y-107753699D01*
X163646475Y-107931500D01*
X163530750Y-107931500D01*
X163372000Y-108090250D01*
X163372000Y-108170310D01*
X163468673Y-108403699D01*
X163622615Y-108557640D01*
X163622615Y-108694000D01*
X163642122Y-108797671D01*
X163622615Y-108894000D01*
X163622615Y-109344000D01*
X163648903Y-109483708D01*
X163731470Y-109612020D01*
X163857453Y-109698101D01*
X164007000Y-109728385D01*
X165757000Y-109728385D01*
X165896708Y-109702097D01*
X166025020Y-109619530D01*
X166111101Y-109493547D01*
X166141385Y-109344000D01*
X166141385Y-108894000D01*
X166121878Y-108790329D01*
X166141385Y-108694000D01*
X166141385Y-108557640D01*
X166295327Y-108403699D01*
X166392000Y-108170310D01*
X166392000Y-108090250D01*
X166233250Y-107931500D01*
X166117525Y-107931500D01*
X166295327Y-107753699D01*
X166372597Y-107567153D01*
X166392000Y-107547750D01*
X166392000Y-107440250D01*
X166372597Y-107420847D01*
X166295327Y-107234301D01*
X166117525Y-107056500D01*
X166233250Y-107056500D01*
X166392000Y-106897750D01*
X166392000Y-106817690D01*
X166295327Y-106584301D01*
X166141385Y-106430360D01*
X166141385Y-106294000D01*
X166121878Y-106190329D01*
X166141385Y-106094000D01*
X166141385Y-105644000D01*
X166121878Y-105540329D01*
X166141385Y-105444000D01*
X166141385Y-105307640D01*
X166295327Y-105153699D01*
X166392000Y-104920310D01*
X166392000Y-104840250D01*
X166233250Y-104681500D01*
X165967432Y-104681500D01*
X165906547Y-104639899D01*
X165757000Y-104609615D01*
X164007000Y-104609615D01*
X163867292Y-104635903D01*
X163796433Y-104681500D01*
X163530750Y-104681500D01*
X163438323Y-104773927D01*
X163305748Y-104800298D01*
X163158719Y-104898539D01*
X160435559Y-107621699D01*
X160376442Y-107710175D01*
X160156580Y-107710175D01*
X160016872Y-107736463D01*
X159888560Y-107819030D01*
X159802479Y-107945013D01*
X159772195Y-108094560D01*
X159641805Y-108094560D01*
X159615517Y-107954852D01*
X159532950Y-107826540D01*
X159406967Y-107740459D01*
X159257420Y-107710175D01*
X158058540Y-107710175D01*
X157918832Y-107736463D01*
X157790520Y-107819030D01*
X157704439Y-107945013D01*
X157674155Y-108094560D01*
X157674155Y-108128500D01*
X157651885Y-108128500D01*
X157651885Y-107980500D01*
X157625597Y-107840792D01*
X157543030Y-107712480D01*
X157417047Y-107626399D01*
X157267500Y-107596115D01*
X156567500Y-107596115D01*
X156427792Y-107622403D01*
X156299480Y-107704970D01*
X156213399Y-107830953D01*
X156183115Y-107980500D01*
X155751885Y-107980500D01*
X155725597Y-107840792D01*
X155643030Y-107712480D01*
X155517047Y-107626399D01*
X155367500Y-107596115D01*
X154667500Y-107596115D01*
X154527792Y-107622403D01*
X154399480Y-107704970D01*
X154313399Y-107830953D01*
X154283115Y-107980500D01*
X152961422Y-107980500D01*
X155622499Y-105319423D01*
X161984777Y-105319423D01*
X162158209Y-105284925D01*
X162305238Y-105186684D01*
X163441133Y-104050788D01*
X163372000Y-104217690D01*
X163372000Y-104297750D01*
X163530750Y-104456500D01*
X163796568Y-104456500D01*
X163857453Y-104498101D01*
X164007000Y-104528385D01*
X165757000Y-104528385D01*
X165804645Y-104519420D01*
X165947863Y-104578889D01*
X166234257Y-104579139D01*
X166498946Y-104469772D01*
X166701634Y-104267437D01*
X166811463Y-104002939D01*
X166811713Y-103716545D01*
X166702346Y-103451856D01*
X166500011Y-103249168D01*
X166309295Y-103169976D01*
X166392000Y-102970310D01*
X166392000Y-102890250D01*
X166233250Y-102731500D01*
X165967432Y-102731500D01*
X165906547Y-102689899D01*
X165757000Y-102659615D01*
X164735000Y-102659615D01*
X164735000Y-102578385D01*
X165757000Y-102578385D01*
X165896708Y-102552097D01*
X165967567Y-102506500D01*
X166233250Y-102506500D01*
X166392000Y-102347750D01*
X166392000Y-102267690D01*
X166295327Y-102034301D01*
X166141385Y-101880360D01*
X166141385Y-101744000D01*
X166121878Y-101640329D01*
X166141385Y-101544000D01*
X166141385Y-101094000D01*
X166121878Y-100990329D01*
X166141385Y-100894000D01*
X166141385Y-100668599D01*
X167163277Y-100668599D01*
X170734139Y-104239461D01*
X170830717Y-104303992D01*
X170822615Y-104344000D01*
X170822615Y-104480360D01*
X170668673Y-104634301D01*
X170572000Y-104867690D01*
X170572000Y-104947750D01*
X170730750Y-105106500D01*
X170996568Y-105106500D01*
X171057453Y-105148101D01*
X171207000Y-105178385D01*
X172957000Y-105178385D01*
X173096708Y-105152097D01*
X173167567Y-105106500D01*
X173433250Y-105106500D01*
X173592000Y-104947750D01*
X173592000Y-104867690D01*
X173495327Y-104634301D01*
X173341385Y-104480360D01*
X173341385Y-104372200D01*
X173757000Y-104372200D01*
X173930432Y-104337702D01*
X174077461Y-104239461D01*
X174638537Y-103678385D01*
X174825463Y-103678385D01*
X175988539Y-104841461D01*
X176135568Y-104939702D01*
X176309000Y-104974200D01*
X178291227Y-104974200D01*
X178367536Y-105158882D01*
X178684449Y-105476350D01*
X179098729Y-105648373D01*
X179547303Y-105648765D01*
X179699123Y-105586034D01*
X180466233Y-105586034D01*
X180494195Y-106136538D01*
X180651069Y-106515265D01*
X180892070Y-106583325D01*
X181684395Y-105791000D01*
X182043605Y-105791000D01*
X182835930Y-106583325D01*
X183076931Y-106515265D01*
X183240509Y-106055690D01*
X183539000Y-106055690D01*
X183539000Y-106521250D01*
X183697750Y-106680000D01*
X184547000Y-106680000D01*
X184547000Y-105705750D01*
X184388250Y-105547000D01*
X184047691Y-105547000D01*
X183814302Y-105643673D01*
X183635673Y-105822301D01*
X183539000Y-106055690D01*
X183240509Y-106055690D01*
X183261767Y-105995966D01*
X183233805Y-105445462D01*
X183076931Y-105066735D01*
X182835930Y-104998675D01*
X182043605Y-105791000D01*
X181684395Y-105791000D01*
X180892070Y-104998675D01*
X180651069Y-105066735D01*
X180466233Y-105586034D01*
X179699123Y-105586034D01*
X179961882Y-105477464D01*
X180279350Y-105160551D01*
X180421144Y-104819070D01*
X181071675Y-104819070D01*
X181864000Y-105611395D01*
X182656325Y-104819070D01*
X182588265Y-104578069D01*
X182068966Y-104393233D01*
X181518462Y-104421195D01*
X181139735Y-104578069D01*
X181071675Y-104819070D01*
X180421144Y-104819070D01*
X180451373Y-104746271D01*
X180451765Y-104297697D01*
X180280464Y-103883118D01*
X179963551Y-103565650D01*
X179549271Y-103393627D01*
X179100697Y-103393235D01*
X178686118Y-103564536D01*
X178368650Y-103881449D01*
X178291271Y-104067800D01*
X176496722Y-104067800D01*
X175466385Y-103037463D01*
X175466385Y-101994000D01*
X175897615Y-101994000D01*
X175897615Y-103294000D01*
X175923903Y-103433708D01*
X176006470Y-103562020D01*
X176132453Y-103648101D01*
X176282000Y-103678385D01*
X176982000Y-103678385D01*
X177121708Y-103652097D01*
X177250020Y-103569530D01*
X177336101Y-103443547D01*
X177352253Y-103363787D01*
X177624569Y-103364025D01*
X177889258Y-103254658D01*
X178091946Y-103052323D01*
X178201775Y-102787825D01*
X178202025Y-102501431D01*
X178092658Y-102236742D01*
X177890323Y-102034054D01*
X177625825Y-101924225D01*
X177353211Y-101923987D01*
X177340097Y-101854292D01*
X177257530Y-101725980D01*
X177131547Y-101639899D01*
X176982000Y-101609615D01*
X176282000Y-101609615D01*
X176142292Y-101635903D01*
X176013980Y-101718470D01*
X175927899Y-101844453D01*
X175897615Y-101994000D01*
X175466385Y-101994000D01*
X175440097Y-101854292D01*
X175357530Y-101725980D01*
X175231547Y-101639899D01*
X175082000Y-101609615D01*
X174382000Y-101609615D01*
X174242292Y-101635903D01*
X174113980Y-101718470D01*
X174027899Y-101844453D01*
X173997615Y-101994000D01*
X173997615Y-103037463D01*
X173569278Y-103465800D01*
X173341385Y-103465800D01*
X173341385Y-103044000D01*
X173321878Y-102940329D01*
X173341385Y-102844000D01*
X173341385Y-102394000D01*
X173321878Y-102290329D01*
X173341385Y-102194000D01*
X173341385Y-102013865D01*
X173524569Y-102014025D01*
X173789258Y-101904658D01*
X173991946Y-101702323D01*
X174101775Y-101437825D01*
X174102025Y-101151431D01*
X173992658Y-100886742D01*
X173790323Y-100684054D01*
X173525825Y-100574225D01*
X173341385Y-100574064D01*
X173341385Y-100444000D01*
X173315097Y-100304292D01*
X173232530Y-100175980D01*
X173106547Y-100089899D01*
X172957000Y-100059615D01*
X171207000Y-100059615D01*
X171067292Y-100085903D01*
X170938980Y-100168470D01*
X170852899Y-100294453D01*
X170822615Y-100444000D01*
X170822615Y-100894000D01*
X170842122Y-100997671D01*
X170822615Y-101094000D01*
X170822615Y-101544000D01*
X170842122Y-101647671D01*
X170822615Y-101744000D01*
X170822615Y-102194000D01*
X170842122Y-102297671D01*
X170822615Y-102394000D01*
X170822615Y-102844000D01*
X170842122Y-102947671D01*
X170822615Y-103044000D01*
X170822615Y-103046093D01*
X167671460Y-99894938D01*
X167524431Y-99796697D01*
X167350999Y-99762199D01*
X163787121Y-99762199D01*
X163613689Y-99796697D01*
X163466660Y-99894938D01*
X162310548Y-101051050D01*
X162242658Y-100886742D01*
X162040323Y-100684054D01*
X161775825Y-100574225D01*
X161651346Y-100574116D01*
X161645557Y-100543352D01*
X161562990Y-100415040D01*
X161437007Y-100328959D01*
X161287460Y-100298675D01*
X160088580Y-100298675D01*
X159948872Y-100324963D01*
X159820560Y-100407530D01*
X159734479Y-100533513D01*
X159704195Y-100683060D01*
X159704195Y-101881940D01*
X159730483Y-102021648D01*
X159813050Y-102149960D01*
X159939033Y-102236041D01*
X160088580Y-102266325D01*
X161031703Y-102266325D01*
X161069810Y-102291788D01*
X160967423Y-102394175D01*
X160025080Y-102394175D01*
X159885372Y-102420463D01*
X159757060Y-102503030D01*
X159670979Y-102629013D01*
X159640695Y-102778560D01*
X159640695Y-103803401D01*
X159510305Y-103803401D01*
X159510305Y-102778560D01*
X159484017Y-102638852D01*
X159401450Y-102510540D01*
X159275467Y-102424459D01*
X159125920Y-102394175D01*
X157927040Y-102394175D01*
X157787332Y-102420463D01*
X157659020Y-102503030D01*
X157607630Y-102578242D01*
X157531530Y-102459980D01*
X157405547Y-102373899D01*
X157256000Y-102343615D01*
X156556000Y-102343615D01*
X156416292Y-102369903D01*
X156287980Y-102452470D01*
X156201899Y-102578453D01*
X156171615Y-102728000D01*
X156171615Y-103803401D01*
X155740385Y-103803401D01*
X155740385Y-102728000D01*
X155714097Y-102588292D01*
X155696447Y-102560863D01*
X155726775Y-102487825D01*
X155727025Y-102201431D01*
X155689908Y-102111600D01*
X155710101Y-102082047D01*
X155740385Y-101932500D01*
X155740385Y-100632500D01*
X156171615Y-100632500D01*
X156171615Y-101932500D01*
X156197903Y-102072208D01*
X156280470Y-102200520D01*
X156406453Y-102286601D01*
X156556000Y-102316885D01*
X157256000Y-102316885D01*
X157395708Y-102290597D01*
X157524020Y-102208030D01*
X157610101Y-102082047D01*
X157627573Y-101995767D01*
X157632443Y-102021648D01*
X157715010Y-102149960D01*
X157840993Y-102236041D01*
X157990540Y-102266325D01*
X159189420Y-102266325D01*
X159329128Y-102240037D01*
X159457440Y-102157470D01*
X159543521Y-102031487D01*
X159573805Y-101881940D01*
X159573805Y-100683060D01*
X159547517Y-100543352D01*
X159464950Y-100415040D01*
X159338967Y-100328959D01*
X159189420Y-100298675D01*
X157990540Y-100298675D01*
X157850832Y-100324963D01*
X157722520Y-100407530D01*
X157636439Y-100533513D01*
X157628830Y-100571089D01*
X157614097Y-100492792D01*
X157531530Y-100364480D01*
X157405547Y-100278399D01*
X157256000Y-100248115D01*
X156556000Y-100248115D01*
X156416292Y-100274403D01*
X156287980Y-100356970D01*
X156201899Y-100482953D01*
X156171615Y-100632500D01*
X155740385Y-100632500D01*
X155714097Y-100492792D01*
X155631530Y-100364480D01*
X155505547Y-100278399D01*
X155356000Y-100248115D01*
X154656000Y-100248115D01*
X154516292Y-100274403D01*
X154387980Y-100356970D01*
X154301899Y-100482953D01*
X154271615Y-100632500D01*
X154271615Y-101932500D01*
X154297903Y-102072208D01*
X154323709Y-102112312D01*
X154287225Y-102200175D01*
X154286975Y-102486569D01*
X154316258Y-102557439D01*
X154301899Y-102578453D01*
X154271615Y-102728000D01*
X154271615Y-104028000D01*
X154297903Y-104167708D01*
X154380470Y-104296020D01*
X154452624Y-104345321D01*
X154247543Y-104550401D01*
X152838642Y-104550401D01*
X152967302Y-104240555D01*
X152967697Y-103787433D01*
X152794660Y-103368651D01*
X152474534Y-103047966D01*
X152056055Y-102874198D01*
X151602933Y-102873803D01*
X151184151Y-103046840D01*
X150971756Y-103258865D01*
X150809733Y-103212392D01*
X150009125Y-104013000D01*
X150023268Y-104027143D01*
X149843663Y-104206748D01*
X149829520Y-104192605D01*
X149028912Y-104993213D01*
X149098377Y-105235397D01*
X149601400Y-105414858D01*
X149185171Y-105586840D01*
X148864486Y-105906966D01*
X148690718Y-106325445D01*
X148690323Y-106778567D01*
X148863360Y-107197349D01*
X149156299Y-107490800D01*
X146311400Y-107490800D01*
X146137968Y-107525298D01*
X145990939Y-107623539D01*
X145590026Y-108024452D01*
X145539530Y-107945980D01*
X145413547Y-107859899D01*
X145264000Y-107829615D01*
X144264000Y-107829615D01*
X144124292Y-107855903D01*
X143995980Y-107938470D01*
X143909899Y-108064453D01*
X143899000Y-108118274D01*
X143899000Y-108087690D01*
X143802327Y-107854301D01*
X143644025Y-107696000D01*
X143802327Y-107537699D01*
X143899000Y-107304310D01*
X143899000Y-107281022D01*
X143905903Y-107317708D01*
X143988470Y-107446020D01*
X144114453Y-107532101D01*
X144264000Y-107562385D01*
X145264000Y-107562385D01*
X145403708Y-107536097D01*
X145532020Y-107453530D01*
X145618101Y-107327547D01*
X145648385Y-107178000D01*
X145648385Y-105928000D01*
X145622097Y-105788292D01*
X145539530Y-105659980D01*
X145413547Y-105573899D01*
X145266000Y-105544020D01*
X145266000Y-105276009D01*
X145403708Y-105250097D01*
X145532020Y-105167530D01*
X145618101Y-105041547D01*
X145648385Y-104892000D01*
X145648385Y-104879731D01*
X145906175Y-104986775D01*
X146192569Y-104987025D01*
X146457258Y-104877658D01*
X146659946Y-104675323D01*
X146769775Y-104410825D01*
X146770025Y-104124431D01*
X146660658Y-103859742D01*
X146606313Y-103805302D01*
X148420376Y-103805302D01*
X148448158Y-104360368D01*
X148607123Y-104744143D01*
X148849307Y-104813608D01*
X149649915Y-104013000D01*
X148849307Y-103212392D01*
X148607123Y-103281857D01*
X148420376Y-103805302D01*
X146606313Y-103805302D01*
X146458323Y-103657054D01*
X146193825Y-103547225D01*
X145907431Y-103546975D01*
X145648385Y-103654010D01*
X145648385Y-103642000D01*
X145622097Y-103502292D01*
X145539530Y-103373980D01*
X145413547Y-103287899D01*
X145266000Y-103258020D01*
X145266000Y-103032787D01*
X149028912Y-103032787D01*
X149829520Y-103833395D01*
X150630128Y-103032787D01*
X150560663Y-102790603D01*
X150037218Y-102603856D01*
X149482152Y-102631638D01*
X149098377Y-102790603D01*
X149028912Y-103032787D01*
X145266000Y-103032787D01*
X145266000Y-102990009D01*
X145403708Y-102964097D01*
X145532020Y-102881530D01*
X145618101Y-102755547D01*
X145648385Y-102606000D01*
X145648385Y-101356000D01*
X145622097Y-101216292D01*
X145539530Y-101087980D01*
X145413547Y-101001899D01*
X145264000Y-100971615D01*
X144264000Y-100971615D01*
X144124292Y-100997903D01*
X143995980Y-101080470D01*
X143909899Y-101206453D01*
X143899000Y-101260274D01*
X143899000Y-101229690D01*
X143802327Y-100996301D01*
X143623698Y-100817673D01*
X143390309Y-100721000D01*
X143049750Y-100721000D01*
X142891000Y-100879750D01*
X142637000Y-100879750D01*
X142478250Y-100721000D01*
X142137691Y-100721000D01*
X141904302Y-100817673D01*
X141725673Y-100996301D01*
X141629000Y-101229690D01*
X137922000Y-101229690D01*
X137922000Y-100689121D01*
X145903504Y-100689121D01*
X146044972Y-100992310D01*
X146781452Y-101277267D01*
X147570920Y-101258694D01*
X148214028Y-100992310D01*
X148355496Y-100689121D01*
X147129500Y-99463125D01*
X145903504Y-100689121D01*
X137922000Y-100689121D01*
X137922000Y-98935472D01*
X145135753Y-98935472D01*
X145154326Y-99724940D01*
X145420710Y-100368048D01*
X145723899Y-100509516D01*
X146949895Y-99283520D01*
X147309105Y-99283520D01*
X148535101Y-100509516D01*
X148838290Y-100368048D01*
X149123247Y-99631568D01*
X149104674Y-98842100D01*
X148838290Y-98198992D01*
X148535101Y-98057524D01*
X147309105Y-99283520D01*
X146949895Y-99283520D01*
X145723899Y-98057524D01*
X145420710Y-98198992D01*
X145135753Y-98935472D01*
X137922000Y-98935472D01*
X137922000Y-97582000D01*
X146041580Y-97582000D01*
X145903504Y-97877919D01*
X145903504Y-97877919D01*
G37*
X145903504Y-97877919D02*
X147129500Y-99103915D01*
X148355496Y-97877919D01*
X148217420Y-97582000D01*
X186743164Y-97582000D01*
X186348332Y-97976144D01*
X186012393Y-98785175D01*
X186011628Y-99661181D01*
X186346155Y-100470798D01*
X186965044Y-101090768D01*
X187774075Y-101426707D01*
X188650081Y-101427472D01*
X189459698Y-101092945D01*
X190079668Y-100474056D01*
X190415607Y-99665025D01*
X190416372Y-98789019D01*
X190081845Y-97979402D01*
X189685136Y-97582000D01*
X195326000Y-97582000D01*
X195326000Y-105396170D01*
X195255153Y-105348831D01*
X195215429Y-105340929D01*
X195139530Y-105222980D01*
X195040580Y-105155370D01*
X195132020Y-105096530D01*
X195218101Y-104970547D01*
X195248385Y-104821000D01*
X195248385Y-104221000D01*
X195222097Y-104081292D01*
X195139530Y-103952980D01*
X195040580Y-103885370D01*
X195132020Y-103826530D01*
X195218101Y-103700547D01*
X195248385Y-103551000D01*
X195248385Y-102951000D01*
X195222097Y-102811292D01*
X195139530Y-102682980D01*
X195013547Y-102596899D01*
X194864000Y-102566615D01*
X194689820Y-102566615D01*
X194701775Y-102537825D01*
X194702025Y-102251431D01*
X194592658Y-101986742D01*
X194390323Y-101784054D01*
X194125825Y-101674225D01*
X193839431Y-101673975D01*
X193574742Y-101783342D01*
X193509488Y-101848483D01*
X193442658Y-101686742D01*
X193240323Y-101484054D01*
X192975825Y-101374225D01*
X192689431Y-101373975D01*
X192424742Y-101483342D01*
X192222054Y-101685677D01*
X192112225Y-101950175D01*
X192111975Y-102236569D01*
X192221342Y-102501258D01*
X192378800Y-102658991D01*
X192378800Y-103739000D01*
X192413298Y-103912432D01*
X192511539Y-104059461D01*
X192929615Y-104477537D01*
X192929615Y-104821000D01*
X192955903Y-104960708D01*
X193038470Y-105089020D01*
X193137420Y-105156630D01*
X193045980Y-105215470D01*
X192959899Y-105341453D01*
X192929615Y-105491000D01*
X192929615Y-106091000D01*
X192955903Y-106230708D01*
X193038470Y-106359020D01*
X193137420Y-106426630D01*
X193045980Y-106485470D01*
X192959899Y-106611453D01*
X192948252Y-106668969D01*
X192841139Y-106740539D01*
X192015878Y-107565800D01*
X190759301Y-107565800D01*
X190855946Y-107469323D01*
X190965775Y-107204825D01*
X190966025Y-106918431D01*
X190856658Y-106653742D01*
X190654323Y-106451054D01*
X190389825Y-106341225D01*
X190103431Y-106340975D01*
X189838742Y-106450342D01*
X189761628Y-106527321D01*
X189739530Y-106492980D01*
X189640580Y-106425370D01*
X189732020Y-106366530D01*
X189818101Y-106240547D01*
X189848385Y-106091000D01*
X189848385Y-105491000D01*
X189822097Y-105351292D01*
X189739530Y-105222980D01*
X189640580Y-105155370D01*
X189732020Y-105096530D01*
X189818101Y-104970547D01*
X189848385Y-104821000D01*
X189848385Y-104221000D01*
X189823615Y-104089361D01*
X189823698Y-104089327D01*
X190002327Y-103910699D01*
X190099000Y-103677310D01*
X190099000Y-103536750D01*
X189940250Y-103378000D01*
X188816000Y-103378000D01*
X188816000Y-103398000D01*
X188562000Y-103398000D01*
X188562000Y-103378000D01*
X188542000Y-103378000D01*
X188542000Y-103124000D01*
X188562000Y-103124000D01*
X188562000Y-102474750D01*
X188816000Y-102474750D01*
X188816000Y-103124000D01*
X189940250Y-103124000D01*
X190099000Y-102965250D01*
X190099000Y-102824690D01*
X190002327Y-102591301D01*
X189823698Y-102412673D01*
X189590309Y-102316000D01*
X188974750Y-102316000D01*
X188816000Y-102474750D01*
X188562000Y-102474750D01*
X188403250Y-102316000D01*
X187787691Y-102316000D01*
X187554302Y-102412673D01*
X187375673Y-102591301D01*
X187358385Y-102633038D01*
X187358385Y-102474000D01*
X187332097Y-102334292D01*
X187249530Y-102205980D01*
X187123547Y-102119899D01*
X186974000Y-102089615D01*
X186299550Y-102089615D01*
X184565968Y-100356032D01*
X184403107Y-100247212D01*
X184211000Y-100208999D01*
X184210995Y-100209000D01*
X182998955Y-100209000D01*
X182998955Y-99960430D01*
X182972667Y-99820722D01*
X182890100Y-99692410D01*
X182764117Y-99606329D01*
X182614570Y-99576045D01*
X181113430Y-99576045D01*
X180973722Y-99602333D01*
X180845410Y-99684900D01*
X180759329Y-99810883D01*
X180729045Y-99960430D01*
X180729045Y-101461570D01*
X180732325Y-101479000D01*
X180336609Y-101479000D01*
X180280464Y-101343118D01*
X179963551Y-101025650D01*
X179549271Y-100853627D01*
X179100697Y-100853235D01*
X178686118Y-101024536D01*
X178368650Y-101341449D01*
X178196627Y-101755729D01*
X178196235Y-102204303D01*
X178367536Y-102618882D01*
X178684449Y-102936350D01*
X179098729Y-103108373D01*
X179547303Y-103108765D01*
X179961882Y-102937464D01*
X180279350Y-102620551D01*
X180336466Y-102483000D01*
X181037324Y-102483000D01*
X180908650Y-102611449D01*
X180736627Y-103025729D01*
X180736235Y-103474303D01*
X180907536Y-103888882D01*
X181224449Y-104206350D01*
X181638729Y-104378373D01*
X182087303Y-104378765D01*
X182501882Y-104207464D01*
X182819350Y-103890551D01*
X182991373Y-103476271D01*
X182991765Y-103027697D01*
X182820464Y-102613118D01*
X182690573Y-102483000D01*
X183053064Y-102483000D01*
X183989615Y-103419551D01*
X183989615Y-103774000D01*
X184015903Y-103913708D01*
X184098470Y-104042020D01*
X184224453Y-104128101D01*
X184374000Y-104158385D01*
X185048449Y-104158385D01*
X186687680Y-105797615D01*
X186174000Y-105797615D01*
X186034292Y-105823903D01*
X185905980Y-105906470D01*
X185819899Y-106032453D01*
X185809000Y-106086274D01*
X185809000Y-106055690D01*
X185712327Y-105822301D01*
X185533698Y-105643673D01*
X185300309Y-105547000D01*
X184959750Y-105547000D01*
X184801000Y-105705750D01*
X184801000Y-106680000D01*
X184821000Y-106680000D01*
X184821000Y-106934000D01*
X184801000Y-106934000D01*
X184801000Y-106954000D01*
X184547000Y-106954000D01*
X184547000Y-106934000D01*
X183697750Y-106934000D01*
X183539000Y-107092750D01*
X183539000Y-107558310D01*
X183635673Y-107791699D01*
X183814302Y-107970327D01*
X183956041Y-108029037D01*
X181594278Y-110390800D01*
X180128838Y-110390800D01*
X180279350Y-110240551D01*
X180451373Y-109826271D01*
X180451765Y-109377697D01*
X180280464Y-108963118D01*
X179963551Y-108645650D01*
X179743562Y-108554303D01*
X180736235Y-108554303D01*
X180907536Y-108968882D01*
X181224449Y-109286350D01*
X181638729Y-109458373D01*
X182087303Y-109458765D01*
X182501882Y-109287464D01*
X182819350Y-108970551D01*
X182991373Y-108556271D01*
X182991765Y-108107697D01*
X182820464Y-107693118D01*
X182503551Y-107375650D01*
X182089271Y-107203627D01*
X181640697Y-107203235D01*
X181226118Y-107374536D01*
X180908650Y-107691449D01*
X180736627Y-108105729D01*
X180736235Y-108554303D01*
X179743562Y-108554303D01*
X179549271Y-108473627D01*
X179100697Y-108473235D01*
X178686118Y-108644536D01*
X178368650Y-108961449D01*
X178196627Y-109375729D01*
X178196235Y-109824303D01*
X178367536Y-110238882D01*
X178519188Y-110390800D01*
X172483239Y-110390800D01*
X171820825Y-109728385D01*
X172957000Y-109728385D01*
X173033745Y-109713944D01*
X173073677Y-109753946D01*
X173338175Y-109863775D01*
X173624569Y-109864025D01*
X173889258Y-109754658D01*
X174091946Y-109552323D01*
X174201775Y-109287825D01*
X174202025Y-109001431D01*
X174092658Y-108736742D01*
X173890323Y-108534054D01*
X173625825Y-108424225D01*
X173341385Y-108423977D01*
X173341385Y-108272200D01*
X173907000Y-108272200D01*
X174080432Y-108237702D01*
X174227461Y-108139461D01*
X174333992Y-108032930D01*
X178531675Y-108032930D01*
X178599735Y-108273931D01*
X179119034Y-108458767D01*
X179669538Y-108430805D01*
X180048265Y-108273931D01*
X180116325Y-108032930D01*
X179324000Y-107240605D01*
X178531675Y-108032930D01*
X174333992Y-108032930D01*
X174688537Y-107678385D01*
X175132000Y-107678385D01*
X175271708Y-107652097D01*
X175400020Y-107569530D01*
X175486101Y-107443547D01*
X175516385Y-107294000D01*
X175516385Y-105994000D01*
X175947615Y-105994000D01*
X175947615Y-107294000D01*
X175973903Y-107433708D01*
X176056470Y-107562020D01*
X176182453Y-107648101D01*
X176332000Y-107678385D01*
X177032000Y-107678385D01*
X177171708Y-107652097D01*
X177300020Y-107569530D01*
X177386101Y-107443547D01*
X177402244Y-107363831D01*
X177624569Y-107364025D01*
X177889258Y-107254658D01*
X177943719Y-107200292D01*
X177954195Y-107406538D01*
X178111069Y-107785265D01*
X178352070Y-107853325D01*
X179144395Y-107061000D01*
X179503605Y-107061000D01*
X180295930Y-107853325D01*
X180536931Y-107785265D01*
X180721767Y-107265966D01*
X180696217Y-106762930D01*
X181071675Y-106762930D01*
X181139735Y-107003931D01*
X181659034Y-107188767D01*
X182209538Y-107160805D01*
X182588265Y-107003931D01*
X182656325Y-106762930D01*
X181864000Y-105970605D01*
X181071675Y-106762930D01*
X180696217Y-106762930D01*
X180693805Y-106715462D01*
X180536931Y-106336735D01*
X180295930Y-106268675D01*
X179503605Y-107061000D01*
X179144395Y-107061000D01*
X178352070Y-106268675D01*
X178131581Y-106330942D01*
X178092658Y-106236742D01*
X177945244Y-106089070D01*
X178531675Y-106089070D01*
X179324000Y-106881395D01*
X180116325Y-106089070D01*
X180048265Y-105848069D01*
X179528966Y-105663233D01*
X178978462Y-105691195D01*
X178599735Y-105848069D01*
X178531675Y-106089070D01*
X177945244Y-106089070D01*
X177890323Y-106034054D01*
X177625825Y-105924225D01*
X177403219Y-105924031D01*
X177390097Y-105854292D01*
X177307530Y-105725980D01*
X177181547Y-105639899D01*
X177032000Y-105609615D01*
X176332000Y-105609615D01*
X176192292Y-105635903D01*
X176063980Y-105718470D01*
X175977899Y-105844453D01*
X175947615Y-105994000D01*
X175516385Y-105994000D01*
X175490097Y-105854292D01*
X175467801Y-105819643D01*
X175501775Y-105737825D01*
X175502025Y-105451431D01*
X175392658Y-105186742D01*
X175190323Y-104984054D01*
X174925825Y-104874225D01*
X174639431Y-104873975D01*
X174374742Y-104983342D01*
X174172054Y-105185677D01*
X174062225Y-105450175D01*
X174061975Y-105736569D01*
X174095754Y-105818321D01*
X174077899Y-105844453D01*
X174047615Y-105994000D01*
X174047615Y-107037463D01*
X173957524Y-107127554D01*
X173957627Y-107009580D01*
X173848260Y-106744891D01*
X173645925Y-106542203D01*
X173381427Y-106432374D01*
X173341385Y-106432339D01*
X173341385Y-106294000D01*
X173321878Y-106190329D01*
X173341385Y-106094000D01*
X173341385Y-105957640D01*
X173495327Y-105803699D01*
X173592000Y-105570310D01*
X173592000Y-105490250D01*
X173433250Y-105331500D01*
X173167432Y-105331500D01*
X173106547Y-105289899D01*
X172957000Y-105259615D01*
X171207000Y-105259615D01*
X171067292Y-105285903D01*
X170996433Y-105331500D01*
X170730750Y-105331500D01*
X170572000Y-105490250D01*
X170572000Y-105570310D01*
X170668673Y-105803699D01*
X170822615Y-105957640D01*
X170822615Y-106094000D01*
X170830207Y-106134349D01*
X170734139Y-106198539D01*
X170734137Y-106198542D01*
X170657938Y-106274740D01*
X170559697Y-106421769D01*
X170525199Y-106595201D01*
X170525199Y-109526881D01*
X170559697Y-109700313D01*
X170657938Y-109847342D01*
X171975055Y-111164458D01*
X171975057Y-111164461D01*
X172067228Y-111226047D01*
X172122086Y-111262702D01*
X172295518Y-111297201D01*
X172295523Y-111297200D01*
X181782000Y-111297200D01*
X181955432Y-111262702D01*
X182102461Y-111164461D01*
X184794722Y-108472200D01*
X192203600Y-108472200D01*
X192377032Y-108437702D01*
X192524061Y-108339461D01*
X193154929Y-107708593D01*
X193164453Y-107715101D01*
X193314000Y-107745385D01*
X194864000Y-107745385D01*
X194910900Y-107736560D01*
X194910900Y-108132758D01*
X193651579Y-109392079D01*
X193651555Y-109392115D01*
X193640000Y-109392115D01*
X193500292Y-109418403D01*
X193371980Y-109500970D01*
X193285899Y-109626953D01*
X193255615Y-109776500D01*
X193255615Y-111076500D01*
X193281903Y-111216208D01*
X193364470Y-111344520D01*
X193490453Y-111430601D01*
X193640000Y-111460885D01*
X194340000Y-111460885D01*
X194479708Y-111434597D01*
X194608020Y-111352030D01*
X194694101Y-111226047D01*
X194724385Y-111076500D01*
X194724385Y-109776500D01*
X194707987Y-109689355D01*
X195326000Y-109071342D01*
X195326000Y-112522000D01*
X189900832Y-112522000D01*
X190079668Y-112343476D01*
X190415607Y-111534445D01*
X190416325Y-110712250D01*
X191105000Y-110712250D01*
X191105000Y-111202810D01*
X191201673Y-111436199D01*
X191380302Y-111614827D01*
X191613691Y-111711500D01*
X191804250Y-111711500D01*
X191963000Y-111552750D01*
X191963000Y-110553500D01*
X192217000Y-110553500D01*
X192217000Y-111552750D01*
X192375750Y-111711500D01*
X192566309Y-111711500D01*
X192799698Y-111614827D01*
X192978327Y-111436199D01*
X193075000Y-111202810D01*
X193075000Y-110712250D01*
X192916250Y-110553500D01*
X192217000Y-110553500D01*
X191963000Y-110553500D01*
X191263750Y-110553500D01*
X191105000Y-110712250D01*
X190416325Y-110712250D01*
X190416372Y-110658439D01*
X190081845Y-109848822D01*
X189883560Y-109650190D01*
X191105000Y-109650190D01*
X191105000Y-110140750D01*
X191263750Y-110299500D01*
X191963000Y-110299500D01*
X191963000Y-109300250D01*
X192217000Y-109300250D01*
X192217000Y-110299500D01*
X192916250Y-110299500D01*
X193075000Y-110140750D01*
X193075000Y-109650190D01*
X192978327Y-109416801D01*
X192799698Y-109238173D01*
X192566309Y-109141500D01*
X192375750Y-109141500D01*
X192217000Y-109300250D01*
X191963000Y-109300250D01*
X191804250Y-109141500D01*
X191613691Y-109141500D01*
X191380302Y-109238173D01*
X191201673Y-109416801D01*
X191105000Y-109650190D01*
X189883560Y-109650190D01*
X189462956Y-109228852D01*
X188653925Y-108892913D01*
X187777919Y-108892148D01*
X186968302Y-109226675D01*
X186348332Y-109845564D01*
X186012393Y-110654595D01*
X186011628Y-111530601D01*
X186346155Y-112340218D01*
X186527620Y-112522000D01*
X148548628Y-112522000D01*
X148535103Y-112508475D01*
X148838290Y-112367008D01*
X149123247Y-111630528D01*
X149104674Y-110841060D01*
X148838290Y-110197952D01*
X148535101Y-110056484D01*
X147309105Y-111282480D01*
X147323248Y-111296623D01*
X147143643Y-111476228D01*
X147129500Y-111462085D01*
X147115358Y-111476228D01*
X146935753Y-111296623D01*
X146949895Y-111282480D01*
X145723899Y-110056484D01*
X145420710Y-110197952D01*
X145135753Y-110934432D01*
X145154326Y-111723900D01*
X145420710Y-112367008D01*
X145723897Y-112508475D01*
X145710372Y-112522000D01*
X137922000Y-112522000D01*
X137922000Y-109124750D01*
X141629000Y-109124750D01*
X141629000Y-109590310D01*
X141725673Y-109823699D01*
X141904302Y-110002327D01*
X142137691Y-110099000D01*
X142478250Y-110099000D01*
X142637000Y-109940250D01*
X142637000Y-108966000D01*
X141787750Y-108966000D01*
X141629000Y-109124750D01*
X137922000Y-109124750D01*
X137922000Y-106838750D01*
X141629000Y-106838750D01*
X141629000Y-107304310D01*
X141725673Y-107537699D01*
X141883975Y-107696000D01*
X141725673Y-107854301D01*
X141629000Y-108087690D01*
X141629000Y-108553250D01*
X141787750Y-108712000D01*
X142637000Y-108712000D01*
X142637000Y-107737750D01*
X142595250Y-107696000D01*
X142637000Y-107654250D01*
X142637000Y-106680000D01*
X141787750Y-106680000D01*
X141629000Y-106838750D01*
X137922000Y-106838750D01*
X137922000Y-104552750D01*
X141629000Y-104552750D01*
X141629000Y-105018310D01*
X141725673Y-105251699D01*
X141883975Y-105410000D01*
X141725673Y-105568301D01*
X141629000Y-105801690D01*
X141629000Y-106267250D01*
X141787750Y-106426000D01*
X142637000Y-106426000D01*
X142637000Y-105451750D01*
X142595250Y-105410000D01*
X142637000Y-105368250D01*
X142637000Y-104394000D01*
X141787750Y-104394000D01*
X141629000Y-104552750D01*
X137922000Y-104552750D01*
X137922000Y-102266750D01*
X141629000Y-102266750D01*
X141629000Y-102732310D01*
X141725673Y-102965699D01*
X141883975Y-103124000D01*
X141725673Y-103282301D01*
X141629000Y-103515690D01*
X141629000Y-103981250D01*
X141787750Y-104140000D01*
X142637000Y-104140000D01*
X142637000Y-103165750D01*
X142595250Y-103124000D01*
X142637000Y-103082250D01*
X142637000Y-102108000D01*
X141787750Y-102108000D01*
X141629000Y-102266750D01*
X137922000Y-102266750D01*
X137922000Y-101229690D01*
X141629000Y-101229690D01*
X141629000Y-101695250D01*
X141787750Y-101854000D01*
X142637000Y-101854000D01*
X142637000Y-100879750D01*
X142891000Y-100879750D01*
X142891000Y-101854000D01*
X142911000Y-101854000D01*
X142911000Y-102108000D01*
X142891000Y-102108000D01*
X142891000Y-103082250D01*
X142932750Y-103124000D01*
X142891000Y-103165750D01*
X142891000Y-104140000D01*
X142911000Y-104140000D01*
X142911000Y-104394000D01*
X142891000Y-104394000D01*
X142891000Y-105368250D01*
X142932750Y-105410000D01*
X142891000Y-105451750D01*
X142891000Y-106426000D01*
X142911000Y-106426000D01*
X142911000Y-106680000D01*
X142891000Y-106680000D01*
X142891000Y-107654250D01*
X142932750Y-107696000D01*
X142891000Y-107737750D01*
X142891000Y-108712000D01*
X142911000Y-108712000D01*
X142911000Y-108966000D01*
X142891000Y-108966000D01*
X142891000Y-109940250D01*
X143049750Y-110099000D01*
X143390309Y-110099000D01*
X143623698Y-110002327D01*
X143749146Y-109876879D01*
X145903504Y-109876879D01*
X147129500Y-111102875D01*
X148355496Y-109876879D01*
X148214028Y-109573690D01*
X147477548Y-109288733D01*
X146688080Y-109307306D01*
X146044972Y-109573690D01*
X145903504Y-109876879D01*
X143749146Y-109876879D01*
X143802327Y-109823699D01*
X143899000Y-109590310D01*
X143899000Y-109567022D01*
X143905903Y-109603708D01*
X143988470Y-109732020D01*
X144114453Y-109818101D01*
X144264000Y-109848385D01*
X145264000Y-109848385D01*
X145403708Y-109822097D01*
X145532020Y-109739530D01*
X145618101Y-109613547D01*
X145648385Y-109464000D01*
X145648385Y-109218578D01*
X145736861Y-109159461D01*
X146499122Y-108397200D01*
X152357000Y-108397200D01*
X152530432Y-108362702D01*
X152677461Y-108264461D01*
X152961422Y-107980500D01*
X154283115Y-107980500D01*
X154283115Y-109280500D01*
X154309403Y-109420208D01*
X154341343Y-109469844D01*
X154287225Y-109600175D01*
X154286975Y-109886569D01*
X154355924Y-110053438D01*
X154327899Y-110094453D01*
X154297615Y-110244000D01*
X154297615Y-111544000D01*
X154323903Y-111683708D01*
X154406470Y-111812020D01*
X154532453Y-111898101D01*
X154682000Y-111928385D01*
X155382000Y-111928385D01*
X155521708Y-111902097D01*
X155650020Y-111819530D01*
X155736101Y-111693547D01*
X155766385Y-111544000D01*
X155766385Y-110244000D01*
X156197615Y-110244000D01*
X156197615Y-111544000D01*
X156223903Y-111683708D01*
X156306470Y-111812020D01*
X156432453Y-111898101D01*
X156582000Y-111928385D01*
X157282000Y-111928385D01*
X157421708Y-111902097D01*
X157550020Y-111819530D01*
X157636101Y-111693547D01*
X157666385Y-111544000D01*
X157666385Y-111347200D01*
X157674155Y-111347200D01*
X157674155Y-111493440D01*
X157700443Y-111633148D01*
X157783010Y-111761460D01*
X157908993Y-111847541D01*
X158058540Y-111877825D01*
X159257420Y-111877825D01*
X159397128Y-111851537D01*
X159525440Y-111768970D01*
X159611521Y-111642987D01*
X159641805Y-111493440D01*
X159641805Y-110294560D01*
X159615517Y-110154852D01*
X159532950Y-110026540D01*
X159406967Y-109940459D01*
X159257420Y-109910175D01*
X158058540Y-109910175D01*
X157918832Y-109936463D01*
X157790520Y-110019030D01*
X157704439Y-110145013D01*
X157674155Y-110294560D01*
X157674155Y-110440800D01*
X157666385Y-110440800D01*
X157666385Y-110244000D01*
X157640097Y-110104292D01*
X157557530Y-109975980D01*
X157431547Y-109889899D01*
X157282000Y-109859615D01*
X156582000Y-109859615D01*
X156442292Y-109885903D01*
X156313980Y-109968470D01*
X156227899Y-110094453D01*
X156197615Y-110244000D01*
X155766385Y-110244000D01*
X155740097Y-110104292D01*
X155677368Y-110006810D01*
X155726775Y-109887825D01*
X155727025Y-109601431D01*
X155680852Y-109489684D01*
X155721601Y-109430047D01*
X155751885Y-109280500D01*
X155751885Y-107980500D01*
X156183115Y-107980500D01*
X156183115Y-109280500D01*
X156209403Y-109420208D01*
X156291970Y-109548520D01*
X156417953Y-109634601D01*
X156567500Y-109664885D01*
X157267500Y-109664885D01*
X157407208Y-109638597D01*
X157535520Y-109556030D01*
X157621601Y-109430047D01*
X157651885Y-109280500D01*
X157651885Y-109132500D01*
X157674155Y-109132500D01*
X157674155Y-109293440D01*
X157700443Y-109433148D01*
X157783010Y-109561460D01*
X157908993Y-109647541D01*
X158058540Y-109677825D01*
X159257420Y-109677825D01*
X159397128Y-109651537D01*
X159525440Y-109568970D01*
X159611521Y-109442987D01*
X159641805Y-109293440D01*
X159641805Y-108094560D01*
X159772195Y-108094560D01*
X159772195Y-109293440D01*
X159798483Y-109433148D01*
X159881050Y-109561460D01*
X160007033Y-109647541D01*
X160156580Y-109677825D01*
X161130861Y-109677825D01*
X161130861Y-109910175D01*
X160156580Y-109910175D01*
X160016872Y-109936463D01*
X159888560Y-110019030D01*
X159802479Y-110145013D01*
X159772195Y-110294560D01*
X159772195Y-111493440D01*
X159798483Y-111633148D01*
X159881050Y-111761460D01*
X160007033Y-111847541D01*
X160156580Y-111877825D01*
X161355460Y-111877825D01*
X161495168Y-111851537D01*
X161623480Y-111768970D01*
X161709561Y-111642987D01*
X161739845Y-111493440D01*
X161739845Y-111273578D01*
X161828321Y-111214461D01*
X161904519Y-111138262D01*
X161904522Y-111138260D01*
X162002763Y-110991231D01*
X162037261Y-110817799D01*
X162037261Y-108327261D01*
X163419386Y-106945136D01*
X163530750Y-107056500D01*
X163646475Y-107056500D01*
X163468673Y-107234301D01*
X163391403Y-107420847D01*
X163372000Y-107440250D01*
X163372000Y-107547750D01*
X163391403Y-107567153D01*
X163468673Y-107753699D01*
X163646475Y-107931500D01*
X163530750Y-107931500D01*
X163372000Y-108090250D01*
X163372000Y-108170310D01*
X163468673Y-108403699D01*
X163622615Y-108557640D01*
X163622615Y-108694000D01*
X163642122Y-108797671D01*
X163622615Y-108894000D01*
X163622615Y-109344000D01*
X163648903Y-109483708D01*
X163731470Y-109612020D01*
X163857453Y-109698101D01*
X164007000Y-109728385D01*
X165757000Y-109728385D01*
X165896708Y-109702097D01*
X166025020Y-109619530D01*
X166111101Y-109493547D01*
X166141385Y-109344000D01*
X166141385Y-108894000D01*
X166121878Y-108790329D01*
X166141385Y-108694000D01*
X166141385Y-108557640D01*
X166295327Y-108403699D01*
X166392000Y-108170310D01*
X166392000Y-108090250D01*
X166233250Y-107931500D01*
X166117525Y-107931500D01*
X166295327Y-107753699D01*
X166372597Y-107567153D01*
X166392000Y-107547750D01*
X166392000Y-107440250D01*
X166372597Y-107420847D01*
X166295327Y-107234301D01*
X166117525Y-107056500D01*
X166233250Y-107056500D01*
X166392000Y-106897750D01*
X166392000Y-106817690D01*
X166295327Y-106584301D01*
X166141385Y-106430360D01*
X166141385Y-106294000D01*
X166121878Y-106190329D01*
X166141385Y-106094000D01*
X166141385Y-105644000D01*
X166121878Y-105540329D01*
X166141385Y-105444000D01*
X166141385Y-105307640D01*
X166295327Y-105153699D01*
X166392000Y-104920310D01*
X166392000Y-104840250D01*
X166233250Y-104681500D01*
X165967432Y-104681500D01*
X165906547Y-104639899D01*
X165757000Y-104609615D01*
X164007000Y-104609615D01*
X163867292Y-104635903D01*
X163796433Y-104681500D01*
X163530750Y-104681500D01*
X163438323Y-104773927D01*
X163305748Y-104800298D01*
X163158719Y-104898539D01*
X160435559Y-107621699D01*
X160376442Y-107710175D01*
X160156580Y-107710175D01*
X160016872Y-107736463D01*
X159888560Y-107819030D01*
X159802479Y-107945013D01*
X159772195Y-108094560D01*
X159641805Y-108094560D01*
X159615517Y-107954852D01*
X159532950Y-107826540D01*
X159406967Y-107740459D01*
X159257420Y-107710175D01*
X158058540Y-107710175D01*
X157918832Y-107736463D01*
X157790520Y-107819030D01*
X157704439Y-107945013D01*
X157674155Y-108094560D01*
X157674155Y-108128500D01*
X157651885Y-108128500D01*
X157651885Y-107980500D01*
X157625597Y-107840792D01*
X157543030Y-107712480D01*
X157417047Y-107626399D01*
X157267500Y-107596115D01*
X156567500Y-107596115D01*
X156427792Y-107622403D01*
X156299480Y-107704970D01*
X156213399Y-107830953D01*
X156183115Y-107980500D01*
X155751885Y-107980500D01*
X155725597Y-107840792D01*
X155643030Y-107712480D01*
X155517047Y-107626399D01*
X155367500Y-107596115D01*
X154667500Y-107596115D01*
X154527792Y-107622403D01*
X154399480Y-107704970D01*
X154313399Y-107830953D01*
X154283115Y-107980500D01*
X152961422Y-107980500D01*
X155622499Y-105319423D01*
X161984777Y-105319423D01*
X162158209Y-105284925D01*
X162305238Y-105186684D01*
X163441133Y-104050788D01*
X163372000Y-104217690D01*
X163372000Y-104297750D01*
X163530750Y-104456500D01*
X163796568Y-104456500D01*
X163857453Y-104498101D01*
X164007000Y-104528385D01*
X165757000Y-104528385D01*
X165804645Y-104519420D01*
X165947863Y-104578889D01*
X166234257Y-104579139D01*
X166498946Y-104469772D01*
X166701634Y-104267437D01*
X166811463Y-104002939D01*
X166811713Y-103716545D01*
X166702346Y-103451856D01*
X166500011Y-103249168D01*
X166309295Y-103169976D01*
X166392000Y-102970310D01*
X166392000Y-102890250D01*
X166233250Y-102731500D01*
X165967432Y-102731500D01*
X165906547Y-102689899D01*
X165757000Y-102659615D01*
X164735000Y-102659615D01*
X164735000Y-102578385D01*
X165757000Y-102578385D01*
X165896708Y-102552097D01*
X165967567Y-102506500D01*
X166233250Y-102506500D01*
X166392000Y-102347750D01*
X166392000Y-102267690D01*
X166295327Y-102034301D01*
X166141385Y-101880360D01*
X166141385Y-101744000D01*
X166121878Y-101640329D01*
X166141385Y-101544000D01*
X166141385Y-101094000D01*
X166121878Y-100990329D01*
X166141385Y-100894000D01*
X166141385Y-100668599D01*
X167163277Y-100668599D01*
X170734139Y-104239461D01*
X170830717Y-104303992D01*
X170822615Y-104344000D01*
X170822615Y-104480360D01*
X170668673Y-104634301D01*
X170572000Y-104867690D01*
X170572000Y-104947750D01*
X170730750Y-105106500D01*
X170996568Y-105106500D01*
X171057453Y-105148101D01*
X171207000Y-105178385D01*
X172957000Y-105178385D01*
X173096708Y-105152097D01*
X173167567Y-105106500D01*
X173433250Y-105106500D01*
X173592000Y-104947750D01*
X173592000Y-104867690D01*
X173495327Y-104634301D01*
X173341385Y-104480360D01*
X173341385Y-104372200D01*
X173757000Y-104372200D01*
X173930432Y-104337702D01*
X174077461Y-104239461D01*
X174638537Y-103678385D01*
X174825463Y-103678385D01*
X175988539Y-104841461D01*
X176135568Y-104939702D01*
X176309000Y-104974200D01*
X178291227Y-104974200D01*
X178367536Y-105158882D01*
X178684449Y-105476350D01*
X179098729Y-105648373D01*
X179547303Y-105648765D01*
X179699123Y-105586034D01*
X180466233Y-105586034D01*
X180494195Y-106136538D01*
X180651069Y-106515265D01*
X180892070Y-106583325D01*
X181684395Y-105791000D01*
X182043605Y-105791000D01*
X182835930Y-106583325D01*
X183076931Y-106515265D01*
X183240509Y-106055690D01*
X183539000Y-106055690D01*
X183539000Y-106521250D01*
X183697750Y-106680000D01*
X184547000Y-106680000D01*
X184547000Y-105705750D01*
X184388250Y-105547000D01*
X184047691Y-105547000D01*
X183814302Y-105643673D01*
X183635673Y-105822301D01*
X183539000Y-106055690D01*
X183240509Y-106055690D01*
X183261767Y-105995966D01*
X183233805Y-105445462D01*
X183076931Y-105066735D01*
X182835930Y-104998675D01*
X182043605Y-105791000D01*
X181684395Y-105791000D01*
X180892070Y-104998675D01*
X180651069Y-105066735D01*
X180466233Y-105586034D01*
X179699123Y-105586034D01*
X179961882Y-105477464D01*
X180279350Y-105160551D01*
X180421144Y-104819070D01*
X181071675Y-104819070D01*
X181864000Y-105611395D01*
X182656325Y-104819070D01*
X182588265Y-104578069D01*
X182068966Y-104393233D01*
X181518462Y-104421195D01*
X181139735Y-104578069D01*
X181071675Y-104819070D01*
X180421144Y-104819070D01*
X180451373Y-104746271D01*
X180451765Y-104297697D01*
X180280464Y-103883118D01*
X179963551Y-103565650D01*
X179549271Y-103393627D01*
X179100697Y-103393235D01*
X178686118Y-103564536D01*
X178368650Y-103881449D01*
X178291271Y-104067800D01*
X176496722Y-104067800D01*
X175466385Y-103037463D01*
X175466385Y-101994000D01*
X175897615Y-101994000D01*
X175897615Y-103294000D01*
X175923903Y-103433708D01*
X176006470Y-103562020D01*
X176132453Y-103648101D01*
X176282000Y-103678385D01*
X176982000Y-103678385D01*
X177121708Y-103652097D01*
X177250020Y-103569530D01*
X177336101Y-103443547D01*
X177352253Y-103363787D01*
X177624569Y-103364025D01*
X177889258Y-103254658D01*
X178091946Y-103052323D01*
X178201775Y-102787825D01*
X178202025Y-102501431D01*
X178092658Y-102236742D01*
X177890323Y-102034054D01*
X177625825Y-101924225D01*
X177353211Y-101923987D01*
X177340097Y-101854292D01*
X177257530Y-101725980D01*
X177131547Y-101639899D01*
X176982000Y-101609615D01*
X176282000Y-101609615D01*
X176142292Y-101635903D01*
X176013980Y-101718470D01*
X175927899Y-101844453D01*
X175897615Y-101994000D01*
X175466385Y-101994000D01*
X175440097Y-101854292D01*
X175357530Y-101725980D01*
X175231547Y-101639899D01*
X175082000Y-101609615D01*
X174382000Y-101609615D01*
X174242292Y-101635903D01*
X174113980Y-101718470D01*
X174027899Y-101844453D01*
X173997615Y-101994000D01*
X173997615Y-103037463D01*
X173569278Y-103465800D01*
X173341385Y-103465800D01*
X173341385Y-103044000D01*
X173321878Y-102940329D01*
X173341385Y-102844000D01*
X173341385Y-102394000D01*
X173321878Y-102290329D01*
X173341385Y-102194000D01*
X173341385Y-102013865D01*
X173524569Y-102014025D01*
X173789258Y-101904658D01*
X173991946Y-101702323D01*
X174101775Y-101437825D01*
X174102025Y-101151431D01*
X173992658Y-100886742D01*
X173790323Y-100684054D01*
X173525825Y-100574225D01*
X173341385Y-100574064D01*
X173341385Y-100444000D01*
X173315097Y-100304292D01*
X173232530Y-100175980D01*
X173106547Y-100089899D01*
X172957000Y-100059615D01*
X171207000Y-100059615D01*
X171067292Y-100085903D01*
X170938980Y-100168470D01*
X170852899Y-100294453D01*
X170822615Y-100444000D01*
X170822615Y-100894000D01*
X170842122Y-100997671D01*
X170822615Y-101094000D01*
X170822615Y-101544000D01*
X170842122Y-101647671D01*
X170822615Y-101744000D01*
X170822615Y-102194000D01*
X170842122Y-102297671D01*
X170822615Y-102394000D01*
X170822615Y-102844000D01*
X170842122Y-102947671D01*
X170822615Y-103044000D01*
X170822615Y-103046093D01*
X167671460Y-99894938D01*
X167524431Y-99796697D01*
X167350999Y-99762199D01*
X163787121Y-99762199D01*
X163613689Y-99796697D01*
X163466660Y-99894938D01*
X162310548Y-101051050D01*
X162242658Y-100886742D01*
X162040323Y-100684054D01*
X161775825Y-100574225D01*
X161651346Y-100574116D01*
X161645557Y-100543352D01*
X161562990Y-100415040D01*
X161437007Y-100328959D01*
X161287460Y-100298675D01*
X160088580Y-100298675D01*
X159948872Y-100324963D01*
X159820560Y-100407530D01*
X159734479Y-100533513D01*
X159704195Y-100683060D01*
X159704195Y-101881940D01*
X159730483Y-102021648D01*
X159813050Y-102149960D01*
X159939033Y-102236041D01*
X160088580Y-102266325D01*
X161031703Y-102266325D01*
X161069810Y-102291788D01*
X160967423Y-102394175D01*
X160025080Y-102394175D01*
X159885372Y-102420463D01*
X159757060Y-102503030D01*
X159670979Y-102629013D01*
X159640695Y-102778560D01*
X159640695Y-103803401D01*
X159510305Y-103803401D01*
X159510305Y-102778560D01*
X159484017Y-102638852D01*
X159401450Y-102510540D01*
X159275467Y-102424459D01*
X159125920Y-102394175D01*
X157927040Y-102394175D01*
X157787332Y-102420463D01*
X157659020Y-102503030D01*
X157607630Y-102578242D01*
X157531530Y-102459980D01*
X157405547Y-102373899D01*
X157256000Y-102343615D01*
X156556000Y-102343615D01*
X156416292Y-102369903D01*
X156287980Y-102452470D01*
X156201899Y-102578453D01*
X156171615Y-102728000D01*
X156171615Y-103803401D01*
X155740385Y-103803401D01*
X155740385Y-102728000D01*
X155714097Y-102588292D01*
X155696447Y-102560863D01*
X155726775Y-102487825D01*
X155727025Y-102201431D01*
X155689908Y-102111600D01*
X155710101Y-102082047D01*
X155740385Y-101932500D01*
X155740385Y-100632500D01*
X156171615Y-100632500D01*
X156171615Y-101932500D01*
X156197903Y-102072208D01*
X156280470Y-102200520D01*
X156406453Y-102286601D01*
X156556000Y-102316885D01*
X157256000Y-102316885D01*
X157395708Y-102290597D01*
X157524020Y-102208030D01*
X157610101Y-102082047D01*
X157627573Y-101995767D01*
X157632443Y-102021648D01*
X157715010Y-102149960D01*
X157840993Y-102236041D01*
X157990540Y-102266325D01*
X159189420Y-102266325D01*
X159329128Y-102240037D01*
X159457440Y-102157470D01*
X159543521Y-102031487D01*
X159573805Y-101881940D01*
X159573805Y-100683060D01*
X159547517Y-100543352D01*
X159464950Y-100415040D01*
X159338967Y-100328959D01*
X159189420Y-100298675D01*
X157990540Y-100298675D01*
X157850832Y-100324963D01*
X157722520Y-100407530D01*
X157636439Y-100533513D01*
X157628830Y-100571089D01*
X157614097Y-100492792D01*
X157531530Y-100364480D01*
X157405547Y-100278399D01*
X157256000Y-100248115D01*
X156556000Y-100248115D01*
X156416292Y-100274403D01*
X156287980Y-100356970D01*
X156201899Y-100482953D01*
X156171615Y-100632500D01*
X155740385Y-100632500D01*
X155714097Y-100492792D01*
X155631530Y-100364480D01*
X155505547Y-100278399D01*
X155356000Y-100248115D01*
X154656000Y-100248115D01*
X154516292Y-100274403D01*
X154387980Y-100356970D01*
X154301899Y-100482953D01*
X154271615Y-100632500D01*
X154271615Y-101932500D01*
X154297903Y-102072208D01*
X154323709Y-102112312D01*
X154287225Y-102200175D01*
X154286975Y-102486569D01*
X154316258Y-102557439D01*
X154301899Y-102578453D01*
X154271615Y-102728000D01*
X154271615Y-104028000D01*
X154297903Y-104167708D01*
X154380470Y-104296020D01*
X154452624Y-104345321D01*
X154247543Y-104550401D01*
X152838642Y-104550401D01*
X152967302Y-104240555D01*
X152967697Y-103787433D01*
X152794660Y-103368651D01*
X152474534Y-103047966D01*
X152056055Y-102874198D01*
X151602933Y-102873803D01*
X151184151Y-103046840D01*
X150971756Y-103258865D01*
X150809733Y-103212392D01*
X150009125Y-104013000D01*
X150023268Y-104027143D01*
X149843663Y-104206748D01*
X149829520Y-104192605D01*
X149028912Y-104993213D01*
X149098377Y-105235397D01*
X149601400Y-105414858D01*
X149185171Y-105586840D01*
X148864486Y-105906966D01*
X148690718Y-106325445D01*
X148690323Y-106778567D01*
X148863360Y-107197349D01*
X149156299Y-107490800D01*
X146311400Y-107490800D01*
X146137968Y-107525298D01*
X145990939Y-107623539D01*
X145590026Y-108024452D01*
X145539530Y-107945980D01*
X145413547Y-107859899D01*
X145264000Y-107829615D01*
X144264000Y-107829615D01*
X144124292Y-107855903D01*
X143995980Y-107938470D01*
X143909899Y-108064453D01*
X143899000Y-108118274D01*
X143899000Y-108087690D01*
X143802327Y-107854301D01*
X143644025Y-107696000D01*
X143802327Y-107537699D01*
X143899000Y-107304310D01*
X143899000Y-107281022D01*
X143905903Y-107317708D01*
X143988470Y-107446020D01*
X144114453Y-107532101D01*
X144264000Y-107562385D01*
X145264000Y-107562385D01*
X145403708Y-107536097D01*
X145532020Y-107453530D01*
X145618101Y-107327547D01*
X145648385Y-107178000D01*
X145648385Y-105928000D01*
X145622097Y-105788292D01*
X145539530Y-105659980D01*
X145413547Y-105573899D01*
X145266000Y-105544020D01*
X145266000Y-105276009D01*
X145403708Y-105250097D01*
X145532020Y-105167530D01*
X145618101Y-105041547D01*
X145648385Y-104892000D01*
X145648385Y-104879731D01*
X145906175Y-104986775D01*
X146192569Y-104987025D01*
X146457258Y-104877658D01*
X146659946Y-104675323D01*
X146769775Y-104410825D01*
X146770025Y-104124431D01*
X146660658Y-103859742D01*
X146606313Y-103805302D01*
X148420376Y-103805302D01*
X148448158Y-104360368D01*
X148607123Y-104744143D01*
X148849307Y-104813608D01*
X149649915Y-104013000D01*
X148849307Y-103212392D01*
X148607123Y-103281857D01*
X148420376Y-103805302D01*
X146606313Y-103805302D01*
X146458323Y-103657054D01*
X146193825Y-103547225D01*
X145907431Y-103546975D01*
X145648385Y-103654010D01*
X145648385Y-103642000D01*
X145622097Y-103502292D01*
X145539530Y-103373980D01*
X145413547Y-103287899D01*
X145266000Y-103258020D01*
X145266000Y-103032787D01*
X149028912Y-103032787D01*
X149829520Y-103833395D01*
X150630128Y-103032787D01*
X150560663Y-102790603D01*
X150037218Y-102603856D01*
X149482152Y-102631638D01*
X149098377Y-102790603D01*
X149028912Y-103032787D01*
X145266000Y-103032787D01*
X145266000Y-102990009D01*
X145403708Y-102964097D01*
X145532020Y-102881530D01*
X145618101Y-102755547D01*
X145648385Y-102606000D01*
X145648385Y-101356000D01*
X145622097Y-101216292D01*
X145539530Y-101087980D01*
X145413547Y-101001899D01*
X145264000Y-100971615D01*
X144264000Y-100971615D01*
X144124292Y-100997903D01*
X143995980Y-101080470D01*
X143909899Y-101206453D01*
X143899000Y-101260274D01*
X143899000Y-101229690D01*
X143802327Y-100996301D01*
X143623698Y-100817673D01*
X143390309Y-100721000D01*
X143049750Y-100721000D01*
X142891000Y-100879750D01*
X142637000Y-100879750D01*
X142478250Y-100721000D01*
X142137691Y-100721000D01*
X141904302Y-100817673D01*
X141725673Y-100996301D01*
X141629000Y-101229690D01*
X137922000Y-101229690D01*
X137922000Y-100689121D01*
X145903504Y-100689121D01*
X146044972Y-100992310D01*
X146781452Y-101277267D01*
X147570920Y-101258694D01*
X148214028Y-100992310D01*
X148355496Y-100689121D01*
X147129500Y-99463125D01*
X145903504Y-100689121D01*
X137922000Y-100689121D01*
X137922000Y-98935472D01*
X145135753Y-98935472D01*
X145154326Y-99724940D01*
X145420710Y-100368048D01*
X145723899Y-100509516D01*
X146949895Y-99283520D01*
X147309105Y-99283520D01*
X148535101Y-100509516D01*
X148838290Y-100368048D01*
X149123247Y-99631568D01*
X149104674Y-98842100D01*
X148838290Y-98198992D01*
X148535101Y-98057524D01*
X147309105Y-99283520D01*
X146949895Y-99283520D01*
X145723899Y-98057524D01*
X145420710Y-98198992D01*
X145135753Y-98935472D01*
X137922000Y-98935472D01*
X137922000Y-97582000D01*
X146041580Y-97582000D01*
X145903504Y-97877919D01*
M02*
