G04 #@! TF.FileFunction,Legend,Bot*
%FSLAX46Y46*%
G04 Gerber Fmt 4.6, Leading zero omitted, Abs format (unit mm)*
G04 Created by KiCad (PCBNEW 4.0.2-stable) date Monday, July 04, 2016 'AMt' 03:06:25 AM*
%MOMM*%
G01*
G04 APERTURE LIST*
%ADD10C,0.100000*%
%ADD11C,0.200000*%
%ADD12C,0.300000*%
%ADD13C,0.150000*%
%ADD14C,0.120000*%
G04 APERTURE END LIST*
D10*
D11*
X157629929Y-106524357D02*
X157687072Y-106581500D01*
X157801358Y-106638643D01*
X158087072Y-106638643D01*
X158201358Y-106581500D01*
X158258501Y-106524357D01*
X158315644Y-106410071D01*
X158315644Y-106295786D01*
X158258501Y-106124357D01*
X157572787Y-105438643D01*
X158315644Y-105438643D01*
X159058501Y-106638643D02*
X159172786Y-106638643D01*
X159287072Y-106581500D01*
X159344215Y-106524357D01*
X159401358Y-106410071D01*
X159458501Y-106181500D01*
X159458501Y-105895786D01*
X159401358Y-105667214D01*
X159344215Y-105552929D01*
X159287072Y-105495786D01*
X159172786Y-105438643D01*
X159058501Y-105438643D01*
X158944215Y-105495786D01*
X158887072Y-105552929D01*
X158829929Y-105667214D01*
X158772786Y-105895786D01*
X158772786Y-106181500D01*
X158829929Y-106410071D01*
X158887072Y-106524357D01*
X158944215Y-106581500D01*
X159058501Y-106638643D01*
X160601358Y-105438643D02*
X159915643Y-105438643D01*
X160258501Y-105438643D02*
X160258501Y-106638643D01*
X160144215Y-106467214D01*
X160029929Y-106352929D01*
X159915643Y-106295786D01*
X161629929Y-106638643D02*
X161401358Y-106638643D01*
X161287072Y-106581500D01*
X161229929Y-106524357D01*
X161115643Y-106352929D01*
X161058500Y-106124357D01*
X161058500Y-105667214D01*
X161115643Y-105552929D01*
X161172786Y-105495786D01*
X161287072Y-105438643D01*
X161515643Y-105438643D01*
X161629929Y-105495786D01*
X161687072Y-105552929D01*
X161744215Y-105667214D01*
X161744215Y-105952929D01*
X161687072Y-106067214D01*
X161629929Y-106124357D01*
X161515643Y-106181500D01*
X161287072Y-106181500D01*
X161172786Y-106124357D01*
X161115643Y-106067214D01*
X161058500Y-105952929D01*
X163172786Y-105895786D02*
X164087072Y-105895786D01*
X165572786Y-105438643D02*
X165572786Y-106238643D01*
X165572786Y-106010071D02*
X165629929Y-106124357D01*
X165687072Y-106181500D01*
X165801358Y-106238643D01*
X165915643Y-106238643D01*
X166772786Y-105495786D02*
X166658500Y-105438643D01*
X166429929Y-105438643D01*
X166315643Y-105495786D01*
X166258500Y-105610071D01*
X166258500Y-106067214D01*
X166315643Y-106181500D01*
X166429929Y-106238643D01*
X166658500Y-106238643D01*
X166772786Y-106181500D01*
X166829929Y-106067214D01*
X166829929Y-105952929D01*
X166258500Y-105838643D01*
X167229929Y-106238643D02*
X167515643Y-105438643D01*
X167801357Y-106238643D01*
X168829929Y-106638643D02*
X168258500Y-106638643D01*
X168201357Y-106067214D01*
X168258500Y-106124357D01*
X168372786Y-106181500D01*
X168658500Y-106181500D01*
X168772786Y-106124357D01*
X168829929Y-106067214D01*
X168887072Y-105952929D01*
X168887072Y-105667214D01*
X168829929Y-105552929D01*
X168772786Y-105495786D01*
X168658500Y-105438643D01*
X168372786Y-105438643D01*
X168258500Y-105495786D01*
X168201357Y-105552929D01*
D12*
X157712858Y-107516714D02*
X157712858Y-109316714D01*
X158141430Y-109316714D01*
X158398573Y-109231000D01*
X158570001Y-109059571D01*
X158655716Y-108888143D01*
X158741430Y-108545286D01*
X158741430Y-108288143D01*
X158655716Y-107945286D01*
X158570001Y-107773857D01*
X158398573Y-107602429D01*
X158141430Y-107516714D01*
X157712858Y-107516714D01*
X159512858Y-107516714D02*
X159512858Y-108716714D01*
X159512858Y-109316714D02*
X159427144Y-109231000D01*
X159512858Y-109145286D01*
X159598573Y-109231000D01*
X159512858Y-109316714D01*
X159512858Y-109145286D01*
X160284287Y-107602429D02*
X160455716Y-107516714D01*
X160798573Y-107516714D01*
X160970001Y-107602429D01*
X161055716Y-107773857D01*
X161055716Y-107859571D01*
X160970001Y-108031000D01*
X160798573Y-108116714D01*
X160541430Y-108116714D01*
X160370001Y-108202429D01*
X160284287Y-108373857D01*
X160284287Y-108459571D01*
X160370001Y-108631000D01*
X160541430Y-108716714D01*
X160798573Y-108716714D01*
X160970001Y-108631000D01*
X162598573Y-107602429D02*
X162427144Y-107516714D01*
X162084287Y-107516714D01*
X161912859Y-107602429D01*
X161827144Y-107688143D01*
X161741430Y-107859571D01*
X161741430Y-108373857D01*
X161827144Y-108545286D01*
X161912859Y-108631000D01*
X162084287Y-108716714D01*
X162427144Y-108716714D01*
X162598573Y-108631000D01*
X163627144Y-107516714D02*
X163455716Y-107602429D01*
X163370001Y-107688143D01*
X163284287Y-107859571D01*
X163284287Y-108373857D01*
X163370001Y-108545286D01*
X163455716Y-108631000D01*
X163627144Y-108716714D01*
X163884287Y-108716714D01*
X164055716Y-108631000D01*
X164141430Y-108545286D01*
X164227144Y-108373857D01*
X164227144Y-107859571D01*
X164141430Y-107688143D01*
X164055716Y-107602429D01*
X163884287Y-107516714D01*
X163627144Y-107516714D01*
X164998572Y-107516714D02*
X164998572Y-109316714D01*
X165427144Y-109316714D01*
X165684287Y-109231000D01*
X165855715Y-109059571D01*
X165941430Y-108888143D01*
X166027144Y-108545286D01*
X166027144Y-108288143D01*
X165941430Y-107945286D01*
X165855715Y-107773857D01*
X165684287Y-107602429D01*
X165427144Y-107516714D01*
X164998572Y-107516714D01*
X167055715Y-107516714D02*
X166884287Y-107602429D01*
X166798572Y-107688143D01*
X166712858Y-107859571D01*
X166712858Y-108373857D01*
X166798572Y-108545286D01*
X166884287Y-108631000D01*
X167055715Y-108716714D01*
X167312858Y-108716714D01*
X167484287Y-108631000D01*
X167570001Y-108545286D01*
X167655715Y-108373857D01*
X167655715Y-107859571D01*
X167570001Y-107688143D01*
X167484287Y-107602429D01*
X167312858Y-107516714D01*
X167055715Y-107516714D01*
X168427143Y-108716714D02*
X168427143Y-107516714D01*
X168427143Y-108545286D02*
X168512858Y-108631000D01*
X168684286Y-108716714D01*
X168941429Y-108716714D01*
X169112858Y-108631000D01*
X169198572Y-108459571D01*
X169198572Y-107516714D01*
X170827143Y-108716714D02*
X170827143Y-107259571D01*
X170741429Y-107088143D01*
X170655714Y-107002429D01*
X170484286Y-106916714D01*
X170227143Y-106916714D01*
X170055714Y-107002429D01*
X170827143Y-107602429D02*
X170655714Y-107516714D01*
X170312857Y-107516714D01*
X170141429Y-107602429D01*
X170055714Y-107688143D01*
X169970000Y-107859571D01*
X169970000Y-108373857D01*
X170055714Y-108545286D01*
X170141429Y-108631000D01*
X170312857Y-108716714D01*
X170655714Y-108716714D01*
X170827143Y-108631000D01*
X171941428Y-107516714D02*
X171770000Y-107602429D01*
X171684285Y-107773857D01*
X171684285Y-109316714D01*
X173312857Y-107602429D02*
X173141428Y-107516714D01*
X172798571Y-107516714D01*
X172627142Y-107602429D01*
X172541428Y-107773857D01*
X172541428Y-108459571D01*
X172627142Y-108631000D01*
X172798571Y-108716714D01*
X173141428Y-108716714D01*
X173312857Y-108631000D01*
X173398571Y-108459571D01*
X173398571Y-108288143D01*
X172541428Y-108116714D01*
X174084285Y-109145286D02*
X174169999Y-109231000D01*
X174341428Y-109316714D01*
X174769999Y-109316714D01*
X174941428Y-109231000D01*
X175027142Y-109145286D01*
X175112857Y-108973857D01*
X175112857Y-108802429D01*
X175027142Y-108545286D01*
X173998571Y-107516714D01*
X175112857Y-107516714D01*
D13*
X165758834Y-100703119D02*
X165425500Y-101179310D01*
X165187405Y-100703119D02*
X165187405Y-101703119D01*
X165568358Y-101703119D01*
X165663596Y-101655500D01*
X165711215Y-101607881D01*
X165758834Y-101512643D01*
X165758834Y-101369786D01*
X165711215Y-101274548D01*
X165663596Y-101226929D01*
X165568358Y-101179310D01*
X165187405Y-101179310D01*
X166092167Y-101703119D02*
X166758834Y-100703119D01*
X166758834Y-101703119D02*
X166092167Y-100703119D01*
X167703595Y-101703119D02*
X168275024Y-101703119D01*
X167989309Y-100703119D02*
X167989309Y-101703119D01*
X168513119Y-101703119D02*
X169179786Y-100703119D01*
X169179786Y-101703119D02*
X168513119Y-100703119D01*
D14*
X170989643Y-101703119D02*
X170513452Y-101703119D01*
X170465833Y-101226929D01*
X170513452Y-101274548D01*
X170608690Y-101322167D01*
X170846786Y-101322167D01*
X170942024Y-101274548D01*
X170989643Y-101226929D01*
X171037262Y-101131690D01*
X171037262Y-100893595D01*
X170989643Y-100798357D01*
X170942024Y-100750738D01*
X170846786Y-100703119D01*
X170608690Y-100703119D01*
X170513452Y-100750738D01*
X170465833Y-100798357D01*
X171370595Y-101369786D02*
X171608690Y-100703119D01*
X171846786Y-101369786D01*
X175450596Y-101655500D02*
X175355358Y-101703119D01*
X175212501Y-101703119D01*
X175069643Y-101655500D01*
X174974405Y-101560262D01*
X174926786Y-101465024D01*
X174879167Y-101274548D01*
X174879167Y-101131690D01*
X174926786Y-100941214D01*
X174974405Y-100845976D01*
X175069643Y-100750738D01*
X175212501Y-100703119D01*
X175307739Y-100703119D01*
X175450596Y-100750738D01*
X175498215Y-100798357D01*
X175498215Y-101131690D01*
X175307739Y-101131690D01*
X175926786Y-100703119D02*
X175926786Y-101703119D01*
X176498215Y-100703119D01*
X176498215Y-101703119D01*
X176974405Y-100703119D02*
X176974405Y-101703119D01*
X177212500Y-101703119D01*
X177355358Y-101655500D01*
X177450596Y-101560262D01*
X177498215Y-101465024D01*
X177545834Y-101274548D01*
X177545834Y-101131690D01*
X177498215Y-100941214D01*
X177450596Y-100845976D01*
X177355358Y-100750738D01*
X177212500Y-100703119D01*
X176974405Y-100703119D01*
D13*
X196088000Y-97536000D02*
X196088000Y-112776000D01*
X196088000Y-112776000D02*
X178054000Y-112776000D01*
X178054000Y-112776000D02*
X178054000Y-97536000D01*
X178054000Y-97536000D02*
X196088000Y-97536000D01*
X145478500Y-111379000D02*
X136842500Y-111379000D01*
X153860500Y-111379000D02*
X148780500Y-111379000D01*
X145478500Y-99187000D02*
X136842500Y-99187000D01*
X153860500Y-99187000D02*
X148780500Y-99187000D01*
X136842500Y-99187000D02*
X136842500Y-111379000D01*
X153860500Y-111379000D02*
X153860500Y-99187000D01*
X164782500Y-100520500D02*
X177482500Y-100520500D01*
X177482500Y-100520500D02*
X177482500Y-97980500D01*
X177482500Y-97980500D02*
X164782500Y-97980500D01*
X161962500Y-100800500D02*
X163512500Y-100800500D01*
X164782500Y-100520500D02*
X164782500Y-97980500D01*
X163512500Y-97700500D02*
X161962500Y-97700500D01*
X161962500Y-97700500D02*
X161962500Y-100800500D01*
X190714381Y-104822667D02*
X191428667Y-104822667D01*
X191571524Y-104775047D01*
X191666762Y-104679809D01*
X191714381Y-104536952D01*
X191714381Y-104441714D01*
X191714381Y-105822667D02*
X191714381Y-105251238D01*
X191714381Y-105536952D02*
X190714381Y-105536952D01*
X190857238Y-105441714D01*
X190952476Y-105346476D01*
X191000095Y-105251238D01*
X141231881Y-104544905D02*
X140231881Y-104544905D01*
X140231881Y-104925858D01*
X140279500Y-105021096D01*
X140327119Y-105068715D01*
X140422357Y-105116334D01*
X140565214Y-105116334D01*
X140660452Y-105068715D01*
X140708071Y-105021096D01*
X140755690Y-104925858D01*
X140755690Y-104544905D01*
X141231881Y-106068715D02*
X141231881Y-105497286D01*
X141231881Y-105783000D02*
X140231881Y-105783000D01*
X140374738Y-105687762D01*
X140469976Y-105592524D01*
X140517595Y-105497286D01*
M02*
