G04 #@! TF.FileFunction,Legend,Bot*
%FSLAX46Y46*%
G04 Gerber Fmt 4.6, Leading zero omitted, Abs format (unit mm)*
G04 Created by KiCad (PCBNEW 4.0.2-stable) date Wednesday, June 22, 2016 'AMt' 12:13:01 AM*
%MOMM*%
G01*
G04 APERTURE LIST*
%ADD10C,0.100000*%
%ADD11C,0.200000*%
G04 APERTURE END LIST*
D10*
D11*
X78320929Y-44923143D02*
X78263786Y-44866000D01*
X78149500Y-44808857D01*
X77863786Y-44808857D01*
X77749500Y-44866000D01*
X77692357Y-44923143D01*
X77635214Y-45037429D01*
X77635214Y-45151714D01*
X77692357Y-45323143D01*
X78378071Y-46008857D01*
X77635214Y-46008857D01*
X76892357Y-44808857D02*
X76778072Y-44808857D01*
X76663786Y-44866000D01*
X76606643Y-44923143D01*
X76549500Y-45037429D01*
X76492357Y-45266000D01*
X76492357Y-45551714D01*
X76549500Y-45780286D01*
X76606643Y-45894571D01*
X76663786Y-45951714D01*
X76778072Y-46008857D01*
X76892357Y-46008857D01*
X77006643Y-45951714D01*
X77063786Y-45894571D01*
X77120929Y-45780286D01*
X77178072Y-45551714D01*
X77178072Y-45266000D01*
X77120929Y-45037429D01*
X77063786Y-44923143D01*
X77006643Y-44866000D01*
X76892357Y-44808857D01*
X75349500Y-46008857D02*
X76035215Y-46008857D01*
X75692357Y-46008857D02*
X75692357Y-44808857D01*
X75806643Y-44980286D01*
X75920929Y-45094571D01*
X76035215Y-45151714D01*
X74320929Y-44808857D02*
X74549500Y-44808857D01*
X74663786Y-44866000D01*
X74720929Y-44923143D01*
X74835215Y-45094571D01*
X74892358Y-45323143D01*
X74892358Y-45780286D01*
X74835215Y-45894571D01*
X74778072Y-45951714D01*
X74663786Y-46008857D01*
X74435215Y-46008857D01*
X74320929Y-45951714D01*
X74263786Y-45894571D01*
X74206643Y-45780286D01*
X74206643Y-45494571D01*
X74263786Y-45380286D01*
X74320929Y-45323143D01*
X74435215Y-45266000D01*
X74663786Y-45266000D01*
X74778072Y-45323143D01*
X74835215Y-45380286D01*
X74892358Y-45494571D01*
X72778072Y-45551714D02*
X71863786Y-45551714D01*
X70378072Y-46008857D02*
X70378072Y-45208857D01*
X70378072Y-45437429D02*
X70320929Y-45323143D01*
X70263786Y-45266000D01*
X70149500Y-45208857D01*
X70035215Y-45208857D01*
X69178072Y-45951714D02*
X69292358Y-46008857D01*
X69520929Y-46008857D01*
X69635215Y-45951714D01*
X69692358Y-45837429D01*
X69692358Y-45380286D01*
X69635215Y-45266000D01*
X69520929Y-45208857D01*
X69292358Y-45208857D01*
X69178072Y-45266000D01*
X69120929Y-45380286D01*
X69120929Y-45494571D01*
X69692358Y-45608857D01*
X68720929Y-45208857D02*
X68435215Y-46008857D01*
X68149501Y-45208857D01*
X67806643Y-44808857D02*
X67063786Y-44808857D01*
X67463786Y-45266000D01*
X67292358Y-45266000D01*
X67178072Y-45323143D01*
X67120929Y-45380286D01*
X67063786Y-45494571D01*
X67063786Y-45780286D01*
X67120929Y-45894571D01*
X67178072Y-45951714D01*
X67292358Y-46008857D01*
X67635215Y-46008857D01*
X67749501Y-45951714D01*
X67806643Y-45894571D01*
X78351449Y-43779962D02*
X78351449Y-41779962D01*
X77875258Y-41779962D01*
X77589544Y-41875200D01*
X77399068Y-42065676D01*
X77303829Y-42256152D01*
X77208591Y-42637105D01*
X77208591Y-42922819D01*
X77303829Y-43303771D01*
X77399068Y-43494248D01*
X77589544Y-43684724D01*
X77875258Y-43779962D01*
X78351449Y-43779962D01*
X76351449Y-43779962D02*
X76351449Y-42446629D01*
X76351449Y-41779962D02*
X76446687Y-41875200D01*
X76351449Y-41970438D01*
X76256210Y-41875200D01*
X76351449Y-41779962D01*
X76351449Y-41970438D01*
X75494306Y-43684724D02*
X75303829Y-43779962D01*
X74922877Y-43779962D01*
X74732401Y-43684724D01*
X74637163Y-43494248D01*
X74637163Y-43399010D01*
X74732401Y-43208533D01*
X74922877Y-43113295D01*
X75208591Y-43113295D01*
X75399068Y-43018057D01*
X75494306Y-42827581D01*
X75494306Y-42732343D01*
X75399068Y-42541867D01*
X75208591Y-42446629D01*
X74922877Y-42446629D01*
X74732401Y-42541867D01*
X72922877Y-43684724D02*
X73113353Y-43779962D01*
X73494305Y-43779962D01*
X73684781Y-43684724D01*
X73780020Y-43589486D01*
X73875258Y-43399010D01*
X73875258Y-42827581D01*
X73780020Y-42637105D01*
X73684781Y-42541867D01*
X73494305Y-42446629D01*
X73113353Y-42446629D01*
X72922877Y-42541867D01*
X71780019Y-43779962D02*
X71970495Y-43684724D01*
X72065734Y-43589486D01*
X72160972Y-43399010D01*
X72160972Y-42827581D01*
X72065734Y-42637105D01*
X71970495Y-42541867D01*
X71780019Y-42446629D01*
X71494305Y-42446629D01*
X71303829Y-42541867D01*
X71208591Y-42637105D01*
X71113353Y-42827581D01*
X71113353Y-43399010D01*
X71208591Y-43589486D01*
X71303829Y-43684724D01*
X71494305Y-43779962D01*
X71780019Y-43779962D01*
X70256210Y-43779962D02*
X70256210Y-41779962D01*
X69780019Y-41779962D01*
X69494305Y-41875200D01*
X69303829Y-42065676D01*
X69208590Y-42256152D01*
X69113352Y-42637105D01*
X69113352Y-42922819D01*
X69208590Y-43303771D01*
X69303829Y-43494248D01*
X69494305Y-43684724D01*
X69780019Y-43779962D01*
X70256210Y-43779962D01*
X67970495Y-43779962D02*
X68160971Y-43684724D01*
X68256210Y-43589486D01*
X68351448Y-43399010D01*
X68351448Y-42827581D01*
X68256210Y-42637105D01*
X68160971Y-42541867D01*
X67970495Y-42446629D01*
X67684781Y-42446629D01*
X67494305Y-42541867D01*
X67399067Y-42637105D01*
X67303829Y-42827581D01*
X67303829Y-43399010D01*
X67399067Y-43589486D01*
X67494305Y-43684724D01*
X67684781Y-43779962D01*
X67970495Y-43779962D01*
X66446686Y-42446629D02*
X66446686Y-43779962D01*
X66446686Y-42637105D02*
X66351447Y-42541867D01*
X66160971Y-42446629D01*
X65875257Y-42446629D01*
X65684781Y-42541867D01*
X65589543Y-42732343D01*
X65589543Y-43779962D01*
X63780019Y-42446629D02*
X63780019Y-44065676D01*
X63875257Y-44256152D01*
X63970495Y-44351390D01*
X64160971Y-44446629D01*
X64446685Y-44446629D01*
X64637162Y-44351390D01*
X63780019Y-43684724D02*
X63970495Y-43779962D01*
X64351447Y-43779962D01*
X64541923Y-43684724D01*
X64637162Y-43589486D01*
X64732400Y-43399010D01*
X64732400Y-42827581D01*
X64637162Y-42637105D01*
X64541923Y-42541867D01*
X64351447Y-42446629D01*
X63970495Y-42446629D01*
X63780019Y-42541867D01*
X62541923Y-43779962D02*
X62732399Y-43684724D01*
X62827638Y-43494248D01*
X62827638Y-41779962D01*
X61018114Y-43684724D02*
X61208590Y-43779962D01*
X61589542Y-43779962D01*
X61780019Y-43684724D01*
X61875257Y-43494248D01*
X61875257Y-42732343D01*
X61780019Y-42541867D01*
X61589542Y-42446629D01*
X61208590Y-42446629D01*
X61018114Y-42541867D01*
X60922876Y-42732343D01*
X60922876Y-42922819D01*
X61875257Y-43113295D01*
X60160971Y-41970438D02*
X60065733Y-41875200D01*
X59875256Y-41779962D01*
X59399066Y-41779962D01*
X59208590Y-41875200D01*
X59113352Y-41970438D01*
X59018113Y-42160914D01*
X59018113Y-42351390D01*
X59113352Y-42637105D01*
X60256209Y-43779962D01*
X59018113Y-43779962D01*
M02*
