G04 #@! TF.FileFunction,Soldermask,Top*
%FSLAX46Y46*%
G04 Gerber Fmt 4.6, Leading zero omitted, Abs format (unit mm)*
G04 Created by KiCad (PCBNEW 4.0.2-stable) date Wednesday, June 22, 2016 'AMt' 12:13:01 AM*
%MOMM*%
G01*
G04 APERTURE LIST*
%ADD10C,0.100000*%
%ADD11R,1.400000X1.650000*%
%ADD12R,1.598880X1.598880*%
%ADD13C,4.049980*%
%ADD14R,1.901140X1.901140*%
%ADD15C,1.901140*%
%ADD16C,1.924000*%
%ADD17C,3.100020*%
%ADD18R,1.100000X1.700000*%
%ADD19R,1.700000X1.100000*%
%ADD20R,2.150000X0.850000*%
%ADD21R,1.950000X1.000000*%
%ADD22R,2.127200X2.432000*%
%ADD23O,2.127200X2.432000*%
G04 APERTURE END LIST*
D10*
D11*
X59521600Y-49885600D03*
X57521600Y-49885600D03*
X59521600Y-47345600D03*
X57521600Y-47345600D03*
X59521600Y-44805600D03*
X57521600Y-44805600D03*
X59547000Y-42418000D03*
X57547000Y-42418000D03*
X59547000Y-40005000D03*
X57547000Y-40005000D03*
D12*
X68930520Y-37401500D03*
X66832480Y-37401500D03*
X62895480Y-37401500D03*
X64993520Y-37401500D03*
D13*
X91846400Y-37343080D03*
X91846400Y-49212500D03*
D14*
X85496400Y-47726600D03*
D15*
X82956400Y-46456600D03*
X85496400Y-45186600D03*
X82956400Y-43916600D03*
X85496400Y-42646600D03*
X82956400Y-41376600D03*
X85496400Y-40106600D03*
X82956400Y-38836600D03*
D16*
X53340000Y-41910000D03*
X53340000Y-44450000D03*
X51341020Y-44450000D03*
X51341020Y-41910000D03*
D17*
X48641000Y-37180520D03*
X48641000Y-49179480D03*
D18*
X66931500Y-35369500D03*
X68831500Y-35369500D03*
X64894500Y-35306000D03*
X62994500Y-35306000D03*
D19*
X73215500Y-40579000D03*
X73215500Y-42479000D03*
X80581500Y-45532000D03*
X80581500Y-47432000D03*
D20*
X69995600Y-48370200D03*
X69995600Y-47720200D03*
X69995600Y-47070200D03*
X69995600Y-46420200D03*
X69995600Y-45770200D03*
X69995600Y-45120200D03*
X69995600Y-44470200D03*
X69995600Y-43820200D03*
X69995600Y-43170200D03*
X69995600Y-42520200D03*
X69995600Y-41870200D03*
X69995600Y-41220200D03*
X69995600Y-40570200D03*
X69995600Y-39920200D03*
X62795600Y-39920200D03*
X62795600Y-40570200D03*
X62795600Y-41220200D03*
X62795600Y-41870200D03*
X62795600Y-42520200D03*
X62795600Y-43170200D03*
X62795600Y-43820200D03*
X62795600Y-44470200D03*
X62795600Y-45120200D03*
X62795600Y-45770200D03*
X62795600Y-46420200D03*
X62795600Y-47070200D03*
X62795600Y-47720200D03*
X62795600Y-48370200D03*
D21*
X73119000Y-44196000D03*
X73119000Y-45466000D03*
X73119000Y-46736000D03*
X73119000Y-48006000D03*
X78519000Y-48006000D03*
X78519000Y-46736000D03*
X78519000Y-45466000D03*
X78519000Y-44196000D03*
D19*
X80264000Y-40579000D03*
X80264000Y-42479000D03*
D12*
X77119480Y-37338000D03*
X79217520Y-37338000D03*
X75090020Y-37338000D03*
X72991980Y-37338000D03*
D19*
X77914500Y-42479000D03*
X77914500Y-40579000D03*
D18*
X77155000Y-35306000D03*
X79055000Y-35306000D03*
D22*
X67119500Y-51244500D03*
D23*
X69659500Y-51244500D03*
X72199500Y-51244500D03*
X74739500Y-51244500D03*
X77279500Y-51244500D03*
X79819500Y-51244500D03*
D18*
X74927500Y-35306000D03*
X73027500Y-35306000D03*
M02*
