G04 #@! TF.FileFunction,Legend,Bot*
%FSLAX46Y46*%
G04 Gerber Fmt 4.6, Leading zero omitted, Abs format (unit mm)*
G04 Created by KiCad (PCBNEW 4.0.2-stable) date Sunday, June 19, 2016 'PMt' 07:45:26 PM*
%MOMM*%
G01*
G04 APERTURE LIST*
%ADD10C,0.100000*%
%ADD11C,0.200000*%
G04 APERTURE END LIST*
D10*
D11*
X78212628Y-45244629D02*
X78141199Y-45173200D01*
X77998342Y-45101771D01*
X77641199Y-45101771D01*
X77498342Y-45173200D01*
X77426913Y-45244629D01*
X77355485Y-45387486D01*
X77355485Y-45530343D01*
X77426913Y-45744629D01*
X78284056Y-46601771D01*
X77355485Y-46601771D01*
X76426914Y-45101771D02*
X76284057Y-45101771D01*
X76141200Y-45173200D01*
X76069771Y-45244629D01*
X75998342Y-45387486D01*
X75926914Y-45673200D01*
X75926914Y-46030343D01*
X75998342Y-46316057D01*
X76069771Y-46458914D01*
X76141200Y-46530343D01*
X76284057Y-46601771D01*
X76426914Y-46601771D01*
X76569771Y-46530343D01*
X76641200Y-46458914D01*
X76712628Y-46316057D01*
X76784057Y-46030343D01*
X76784057Y-45673200D01*
X76712628Y-45387486D01*
X76641200Y-45244629D01*
X76569771Y-45173200D01*
X76426914Y-45101771D01*
X74498343Y-46601771D02*
X75355486Y-46601771D01*
X74926914Y-46601771D02*
X74926914Y-45101771D01*
X75069771Y-45316057D01*
X75212629Y-45458914D01*
X75355486Y-45530343D01*
X73212629Y-45101771D02*
X73498343Y-45101771D01*
X73641200Y-45173200D01*
X73712629Y-45244629D01*
X73855486Y-45458914D01*
X73926915Y-45744629D01*
X73926915Y-46316057D01*
X73855486Y-46458914D01*
X73784058Y-46530343D01*
X73641200Y-46601771D01*
X73355486Y-46601771D01*
X73212629Y-46530343D01*
X73141200Y-46458914D01*
X73069772Y-46316057D01*
X73069772Y-45958914D01*
X73141200Y-45816057D01*
X73212629Y-45744629D01*
X73355486Y-45673200D01*
X73641200Y-45673200D01*
X73784058Y-45744629D01*
X73855486Y-45816057D01*
X73926915Y-45958914D01*
X78351449Y-43779962D02*
X78351449Y-41779962D01*
X77875258Y-41779962D01*
X77589544Y-41875200D01*
X77399068Y-42065676D01*
X77303829Y-42256152D01*
X77208591Y-42637105D01*
X77208591Y-42922819D01*
X77303829Y-43303771D01*
X77399068Y-43494248D01*
X77589544Y-43684724D01*
X77875258Y-43779962D01*
X78351449Y-43779962D01*
X76351449Y-43779962D02*
X76351449Y-42446629D01*
X76351449Y-41779962D02*
X76446687Y-41875200D01*
X76351449Y-41970438D01*
X76256210Y-41875200D01*
X76351449Y-41779962D01*
X76351449Y-41970438D01*
X75494306Y-43684724D02*
X75303829Y-43779962D01*
X74922877Y-43779962D01*
X74732401Y-43684724D01*
X74637163Y-43494248D01*
X74637163Y-43399010D01*
X74732401Y-43208533D01*
X74922877Y-43113295D01*
X75208591Y-43113295D01*
X75399068Y-43018057D01*
X75494306Y-42827581D01*
X75494306Y-42732343D01*
X75399068Y-42541867D01*
X75208591Y-42446629D01*
X74922877Y-42446629D01*
X74732401Y-42541867D01*
X72922877Y-43684724D02*
X73113353Y-43779962D01*
X73494305Y-43779962D01*
X73684781Y-43684724D01*
X73780020Y-43589486D01*
X73875258Y-43399010D01*
X73875258Y-42827581D01*
X73780020Y-42637105D01*
X73684781Y-42541867D01*
X73494305Y-42446629D01*
X73113353Y-42446629D01*
X72922877Y-42541867D01*
X71780019Y-43779962D02*
X71970495Y-43684724D01*
X72065734Y-43589486D01*
X72160972Y-43399010D01*
X72160972Y-42827581D01*
X72065734Y-42637105D01*
X71970495Y-42541867D01*
X71780019Y-42446629D01*
X71494305Y-42446629D01*
X71303829Y-42541867D01*
X71208591Y-42637105D01*
X71113353Y-42827581D01*
X71113353Y-43399010D01*
X71208591Y-43589486D01*
X71303829Y-43684724D01*
X71494305Y-43779962D01*
X71780019Y-43779962D01*
X70256210Y-43779962D02*
X70256210Y-41779962D01*
X69780019Y-41779962D01*
X69494305Y-41875200D01*
X69303829Y-42065676D01*
X69208590Y-42256152D01*
X69113352Y-42637105D01*
X69113352Y-42922819D01*
X69208590Y-43303771D01*
X69303829Y-43494248D01*
X69494305Y-43684724D01*
X69780019Y-43779962D01*
X70256210Y-43779962D01*
X67970495Y-43779962D02*
X68160971Y-43684724D01*
X68256210Y-43589486D01*
X68351448Y-43399010D01*
X68351448Y-42827581D01*
X68256210Y-42637105D01*
X68160971Y-42541867D01*
X67970495Y-42446629D01*
X67684781Y-42446629D01*
X67494305Y-42541867D01*
X67399067Y-42637105D01*
X67303829Y-42827581D01*
X67303829Y-43399010D01*
X67399067Y-43589486D01*
X67494305Y-43684724D01*
X67684781Y-43779962D01*
X67970495Y-43779962D01*
X66446686Y-42446629D02*
X66446686Y-43779962D01*
X66446686Y-42637105D02*
X66351447Y-42541867D01*
X66160971Y-42446629D01*
X65875257Y-42446629D01*
X65684781Y-42541867D01*
X65589543Y-42732343D01*
X65589543Y-43779962D01*
X63780019Y-42446629D02*
X63780019Y-44065676D01*
X63875257Y-44256152D01*
X63970495Y-44351390D01*
X64160971Y-44446629D01*
X64446685Y-44446629D01*
X64637162Y-44351390D01*
X63780019Y-43684724D02*
X63970495Y-43779962D01*
X64351447Y-43779962D01*
X64541923Y-43684724D01*
X64637162Y-43589486D01*
X64732400Y-43399010D01*
X64732400Y-42827581D01*
X64637162Y-42637105D01*
X64541923Y-42541867D01*
X64351447Y-42446629D01*
X63970495Y-42446629D01*
X63780019Y-42541867D01*
X62541923Y-43779962D02*
X62732399Y-43684724D01*
X62827638Y-43494248D01*
X62827638Y-41779962D01*
X61018114Y-43684724D02*
X61208590Y-43779962D01*
X61589542Y-43779962D01*
X61780019Y-43684724D01*
X61875257Y-43494248D01*
X61875257Y-42732343D01*
X61780019Y-42541867D01*
X61589542Y-42446629D01*
X61208590Y-42446629D01*
X61018114Y-42541867D01*
X60922876Y-42732343D01*
X60922876Y-42922819D01*
X61875257Y-43113295D01*
X60160971Y-41970438D02*
X60065733Y-41875200D01*
X59875256Y-41779962D01*
X59399066Y-41779962D01*
X59208590Y-41875200D01*
X59113352Y-41970438D01*
X59018113Y-42160914D01*
X59018113Y-42351390D01*
X59113352Y-42637105D01*
X60256209Y-43779962D01*
X59018113Y-43779962D01*
M02*
