G04 #@! TF.FileFunction,Soldermask,Top*
%FSLAX46Y46*%
G04 Gerber Fmt 4.6, Leading zero omitted, Abs format (unit mm)*
G04 Created by KiCad (PCBNEW 4.0.2-stable) date Monday, July 04, 2016 'AMt' 03:06:25 AM*
%MOMM*%
G01*
G04 APERTURE LIST*
%ADD10C,0.100000*%
%ADD11R,1.000000X1.250000*%
%ADD12R,1.198880X1.198880*%
%ADD13C,3.649980*%
%ADD14R,1.501140X1.501140*%
%ADD15C,1.501140*%
%ADD16C,1.524000*%
%ADD17C,2.700020*%
%ADD18R,1.727200X2.032000*%
%ADD19O,1.727200X2.032000*%
%ADD20R,0.700000X1.300000*%
%ADD21R,0.450000X1.750000*%
%ADD22R,1.550000X0.600000*%
G04 APERTURE END LIST*
D10*
D11*
X144764000Y-101981000D03*
X142764000Y-101981000D03*
X144764000Y-104267000D03*
X142764000Y-104267000D03*
X144764000Y-106553000D03*
X142764000Y-106553000D03*
X144764000Y-108839000D03*
X142764000Y-108839000D03*
X186674000Y-106807000D03*
X184674000Y-106807000D03*
D12*
X158526480Y-108521500D03*
X160624520Y-108521500D03*
X158526480Y-110617000D03*
X160624520Y-110617000D03*
X158589980Y-101282500D03*
X160688020Y-101282500D03*
X158526480Y-103378000D03*
X160624520Y-103378000D03*
D13*
X188214000Y-111094520D03*
X188214000Y-99225100D03*
D14*
X181864000Y-100711000D03*
D15*
X179324000Y-101981000D03*
X181864000Y-103251000D03*
X179324000Y-104521000D03*
X181864000Y-105791000D03*
X179324000Y-107061000D03*
X181864000Y-108331000D03*
X179324000Y-109601000D03*
D16*
X151828500Y-106553000D03*
X151828500Y-104013000D03*
X149829520Y-104013000D03*
X149829520Y-106553000D03*
D17*
X147129500Y-111282480D03*
X147129500Y-99283520D03*
D18*
X163512500Y-99250500D03*
D19*
X166052500Y-99250500D03*
X168592500Y-99250500D03*
X171132500Y-99250500D03*
X173672500Y-99250500D03*
X176212500Y-99250500D03*
D20*
X154942500Y-108458000D03*
X156842500Y-108458000D03*
X154942500Y-110680500D03*
X156842500Y-110680500D03*
X155006000Y-103378000D03*
X156906000Y-103378000D03*
X193990000Y-110426500D03*
X192090000Y-110426500D03*
X177251400Y-104724200D03*
X175351400Y-104724200D03*
X184724000Y-103124000D03*
X186624000Y-103124000D03*
X175351400Y-109093000D03*
X177251400Y-109093000D03*
D21*
X172944500Y-103778500D03*
X172294500Y-103778500D03*
X171644500Y-103778500D03*
X170994500Y-103778500D03*
X170344500Y-103778500D03*
X169694500Y-103778500D03*
X169044500Y-103778500D03*
X168394500Y-103778500D03*
X167744500Y-103778500D03*
X167094500Y-103778500D03*
X166444500Y-103778500D03*
X165794500Y-103778500D03*
X165144500Y-103778500D03*
X164494500Y-103778500D03*
X164494500Y-110978500D03*
X165144500Y-110978500D03*
X165794500Y-110978500D03*
X166444500Y-110978500D03*
X167094500Y-110978500D03*
X167744500Y-110978500D03*
X168394500Y-110978500D03*
X169044500Y-110978500D03*
X169694500Y-110978500D03*
X170344500Y-110978500D03*
X170994500Y-110978500D03*
X171644500Y-110978500D03*
X172294500Y-110978500D03*
X172944500Y-110978500D03*
D22*
X194089000Y-107061000D03*
X194089000Y-105791000D03*
X194089000Y-104521000D03*
X194089000Y-103251000D03*
X188689000Y-103251000D03*
X188689000Y-104521000D03*
X188689000Y-105791000D03*
X188689000Y-107061000D03*
D20*
X155006000Y-101282500D03*
X156906000Y-101282500D03*
M02*
