M48
;DRILL file {KiCad 4.0.2-stable} date Wednesday, September 28, 2016 'PMt' 10:14:35 PM
;FORMAT={-:-/ absolute / inch / decimal}
FMAT,2
INCH,TZ
T1C0.013
T2C0.032
T3C0.035
T4C0.091
T5C0.128
%
G90
G05
M72
T1
X5.75Y-4.105
X6.1026Y-4.0293
X6.1026Y-4.3206
X6.3635Y-3.988
X6.539Y-4.0889
X6.8204Y-4.2186
X6.8261Y-3.988
X6.83Y-4.297
X6.8812Y-4.1572
X6.9875Y-4.0411
X6.9875Y-4.1986
X7.49Y-4.215
X7.5918Y-4.0194
X7.6371Y-4.0313
T2
X5.8988Y-4.095
X5.8988Y-4.195
X5.9775Y-4.095
X5.9775Y-4.195
T3
X7.06Y-4.015
X7.06Y-4.115
X7.06Y-4.215
X7.06Y-4.315
X7.16Y-3.965
X7.16Y-4.065
X7.16Y-4.165
X7.16Y-4.265
T4
X5.7925Y-3.9088
X5.7925Y-4.3812
T5
X7.41Y-3.9065
X7.41Y-4.3738
T0
M30
