G04 #@! TF.FileFunction,Copper,L1,Top,Signal*
%FSLAX46Y46*%
G04 Gerber Fmt 4.6, Leading zero omitted, Abs format (unit mm)*
G04 Created by KiCad (PCBNEW 4.0.2-stable) date Monday, July 04, 2016 'AMt' 03:06:25 AM*
%MOMM*%
G01*
G04 APERTURE LIST*
%ADD10C,0.100000*%
%ADD11R,1.000000X1.250000*%
%ADD12R,1.198880X1.198880*%
%ADD13C,3.649980*%
%ADD14R,1.501140X1.501140*%
%ADD15C,1.501140*%
%ADD16C,1.524000*%
%ADD17C,2.700020*%
%ADD18R,1.727200X2.032000*%
%ADD19O,1.727200X2.032000*%
%ADD20R,0.700000X1.300000*%
%ADD21R,0.450000X1.750000*%
%ADD22R,1.550000X0.600000*%
%ADD23C,0.685800*%
%ADD24C,0.203200*%
%ADD25C,0.250000*%
%ADD26C,0.254000*%
G04 APERTURE END LIST*
D10*
D11*
X144764000Y-101981000D03*
X142764000Y-101981000D03*
X144764000Y-104267000D03*
X142764000Y-104267000D03*
X144764000Y-106553000D03*
X142764000Y-106553000D03*
X144764000Y-108839000D03*
X142764000Y-108839000D03*
X186674000Y-106807000D03*
X184674000Y-106807000D03*
D12*
X158526480Y-108521500D03*
X160624520Y-108521500D03*
X158526480Y-110617000D03*
X160624520Y-110617000D03*
X158589980Y-101282500D03*
X160688020Y-101282500D03*
X158526480Y-103378000D03*
X160624520Y-103378000D03*
D13*
X188214000Y-111094520D03*
X188214000Y-99225100D03*
D14*
X181864000Y-100711000D03*
D15*
X179324000Y-101981000D03*
X181864000Y-103251000D03*
X179324000Y-104521000D03*
X181864000Y-105791000D03*
X179324000Y-107061000D03*
X181864000Y-108331000D03*
X179324000Y-109601000D03*
D16*
X151828500Y-106553000D03*
X151828500Y-104013000D03*
X149829520Y-104013000D03*
X149829520Y-106553000D03*
D17*
X147129500Y-111282480D03*
X147129500Y-99283520D03*
D18*
X163512500Y-99250500D03*
D19*
X166052500Y-99250500D03*
X168592500Y-99250500D03*
X171132500Y-99250500D03*
X173672500Y-99250500D03*
X176212500Y-99250500D03*
D20*
X154942500Y-108458000D03*
X156842500Y-108458000D03*
X154942500Y-110680500D03*
X156842500Y-110680500D03*
X155006000Y-103378000D03*
X156906000Y-103378000D03*
X193990000Y-110426500D03*
X192090000Y-110426500D03*
X177251400Y-104724200D03*
X175351400Y-104724200D03*
X184724000Y-103124000D03*
X186624000Y-103124000D03*
X175351400Y-109093000D03*
X177251400Y-109093000D03*
D21*
X172944500Y-103778500D03*
X172294500Y-103778500D03*
X171644500Y-103778500D03*
X170994500Y-103778500D03*
X170344500Y-103778500D03*
X169694500Y-103778500D03*
X169044500Y-103778500D03*
X168394500Y-103778500D03*
X167744500Y-103778500D03*
X167094500Y-103778500D03*
X166444500Y-103778500D03*
X165794500Y-103778500D03*
X165144500Y-103778500D03*
X164494500Y-103778500D03*
X164494500Y-110978500D03*
X165144500Y-110978500D03*
X165794500Y-110978500D03*
X166444500Y-110978500D03*
X167094500Y-110978500D03*
X167744500Y-110978500D03*
X168394500Y-110978500D03*
X169044500Y-110978500D03*
X169694500Y-110978500D03*
X170344500Y-110978500D03*
X170994500Y-110978500D03*
X171644500Y-110978500D03*
X172294500Y-110978500D03*
X172944500Y-110978500D03*
D22*
X194089000Y-107061000D03*
X194089000Y-105791000D03*
X194089000Y-104521000D03*
X194089000Y-103251000D03*
X188689000Y-103251000D03*
X188689000Y-104521000D03*
X188689000Y-105791000D03*
X188689000Y-107061000D03*
D20*
X155006000Y-101282500D03*
X156906000Y-101282500D03*
D23*
X190246000Y-107061000D03*
X177419000Y-103632000D03*
X175351400Y-110299500D03*
X167767000Y-109537500D03*
X154940000Y-106997500D03*
X146050000Y-104267000D03*
X154114500Y-101282500D03*
X171005500Y-102171500D03*
X165798500Y-109474000D03*
X145796000Y-108839000D03*
X162750500Y-103378000D03*
X167322500Y-102298500D03*
X164655500Y-109474000D03*
X163449000Y-110299500D03*
X183007000Y-111125000D03*
X170370500Y-105346500D03*
X194183000Y-102171500D03*
X183832500Y-99314000D03*
X192786000Y-105791000D03*
X165957250Y-106330750D03*
D24*
X193992500Y-109029500D02*
X193990000Y-109032000D01*
D25*
X188816000Y-107061000D02*
X190246000Y-107061000D01*
X177419000Y-103632000D02*
X177251400Y-103799600D01*
X177251400Y-103799600D02*
X177251400Y-104724200D01*
D24*
X167744500Y-110978500D02*
X167744500Y-109560000D01*
X167744500Y-109560000D02*
X167767000Y-109537500D01*
D25*
X154942500Y-107000000D02*
X154940000Y-106997500D01*
X154942500Y-108458000D02*
X154942500Y-107000000D01*
D24*
X154940000Y-106997500D02*
X154942500Y-107000000D01*
D25*
X144764000Y-104267000D02*
X146050000Y-104267000D01*
D24*
X154114500Y-101282500D02*
X154241500Y-101282500D01*
D25*
X154241500Y-101282500D02*
X155006000Y-101282500D01*
D24*
X170994500Y-103778500D02*
X170994500Y-102182500D01*
X170994500Y-102182500D02*
X171005500Y-102171500D01*
D25*
X175351400Y-109093000D02*
X175351400Y-110299500D01*
X175351400Y-110299500D02*
X175351400Y-110335100D01*
X175351400Y-110335100D02*
X175323500Y-110363000D01*
X154942500Y-110680500D02*
X154942500Y-108458000D01*
X155006000Y-103378000D02*
X155006000Y-101282500D01*
X188816000Y-107061000D02*
X187055000Y-107061000D01*
X144764000Y-106553000D02*
X144764000Y-104267000D01*
X144764000Y-101981000D02*
X144764000Y-104267000D01*
X166444500Y-111169000D02*
X166444500Y-112406000D01*
X166687500Y-112649000D02*
X168846500Y-112649000D01*
X166444500Y-112406000D02*
X166687500Y-112649000D01*
X168394500Y-111169000D02*
X168394500Y-112197000D01*
X170994500Y-112406000D02*
X170994500Y-111169000D01*
X170751500Y-112649000D02*
X170994500Y-112406000D01*
X168846500Y-112649000D02*
X170751500Y-112649000D01*
X168394500Y-112197000D02*
X168846500Y-112649000D01*
X170994500Y-111169000D02*
X170994500Y-109739000D01*
X170994500Y-109739000D02*
X171005500Y-109728000D01*
X170994500Y-111169000D02*
X171644500Y-111169000D01*
D24*
X165798500Y-109474000D02*
X165794500Y-109478000D01*
D25*
X165794500Y-109478000D02*
X165798500Y-109474000D01*
X165794500Y-110978500D02*
X165794500Y-109478000D01*
X145796000Y-108839000D02*
X144764000Y-108839000D01*
X156842500Y-108458000D02*
X158462980Y-108458000D01*
X158462980Y-108458000D02*
X158526480Y-108521500D01*
D24*
X169694500Y-110978500D02*
X169694500Y-109814000D01*
X167830500Y-107950000D02*
X161196020Y-107950000D01*
X169694500Y-109814000D02*
X167830500Y-107950000D01*
X161196020Y-107950000D02*
X160624520Y-108521500D01*
D25*
X161069020Y-108077000D02*
X160624520Y-108521500D01*
X156842500Y-110680500D02*
X158462980Y-110680500D01*
X158462980Y-110680500D02*
X158526480Y-110617000D01*
D24*
X169044500Y-110978500D02*
X169044500Y-109734214D01*
X162888318Y-108353202D02*
X160624520Y-110617000D01*
X167663488Y-108353202D02*
X162888318Y-108353202D01*
X169044500Y-109734214D02*
X167663488Y-108353202D01*
D25*
X156906000Y-101282500D02*
X158589980Y-101282500D01*
X166444500Y-103778500D02*
X166444500Y-105421000D01*
X171386500Y-106045000D02*
X172085000Y-105346500D01*
X167068500Y-106045000D02*
X171386500Y-106045000D01*
X166444500Y-105421000D02*
X167068500Y-106045000D01*
X175351400Y-104724200D02*
X175351400Y-103604100D01*
X176022000Y-102933500D02*
X178244500Y-102933500D01*
X178244500Y-102933500D02*
X178562000Y-103251000D01*
X178562000Y-103251000D02*
X181864000Y-103251000D01*
X175351400Y-103604100D02*
X176022000Y-102933500D01*
X171644500Y-103842000D02*
X171644500Y-104906000D01*
X174729100Y-105346500D02*
X175351400Y-104724200D01*
X172085000Y-105346500D02*
X174729100Y-105346500D01*
X171644500Y-104906000D02*
X172085000Y-105346500D01*
X166444500Y-103969000D02*
X166444500Y-102754000D01*
X165544500Y-101854000D02*
X161259520Y-101854000D01*
X166444500Y-102754000D02*
X165544500Y-101854000D01*
X161259520Y-101854000D02*
X160688020Y-101282500D01*
X160688020Y-101282500D02*
X161163000Y-101282500D01*
D24*
X160307020Y-101282500D02*
X160307020Y-100804980D01*
D25*
X156906000Y-103378000D02*
X158526480Y-103378000D01*
X162750500Y-103378000D02*
X160624520Y-103378000D01*
X167744500Y-102720500D02*
X167744500Y-103778500D01*
X167322500Y-102298500D02*
X167744500Y-102720500D01*
X167094500Y-103969000D02*
X167744500Y-103969000D01*
X177251400Y-109093000D02*
X177251400Y-107188000D01*
X177251400Y-107188000D02*
X177251400Y-107101600D01*
X177251400Y-107101600D02*
X179324000Y-105029000D01*
X179324000Y-105029000D02*
X179324000Y-104521000D01*
D24*
X160243520Y-103378000D02*
X160718500Y-103378000D01*
D25*
X188816000Y-104521000D02*
X188021000Y-104521000D01*
X188021000Y-104521000D02*
X186624000Y-103124000D01*
X181864000Y-100711000D02*
X184211000Y-100711000D01*
X184211000Y-100711000D02*
X186624000Y-103124000D01*
X184724000Y-103124000D02*
X184404000Y-103124000D01*
X184404000Y-103124000D02*
X183261000Y-101981000D01*
X183261000Y-101981000D02*
X179324000Y-101981000D01*
X188816000Y-105791000D02*
X187391000Y-105791000D01*
X187391000Y-105791000D02*
X184724000Y-103124000D01*
X188816000Y-105791000D02*
X188153000Y-105791000D01*
X164655500Y-109474000D02*
X165144500Y-109963000D01*
X165144500Y-111169000D02*
X165144500Y-109963000D01*
X164318500Y-111169000D02*
X163449000Y-110299500D01*
X164318500Y-111169000D02*
X164494500Y-111169000D01*
X192151000Y-107061000D02*
X191008000Y-108204000D01*
X191008000Y-108204000D02*
X185928000Y-108204000D01*
X185928000Y-108204000D02*
X183007000Y-111125000D01*
X170344500Y-103778500D02*
X170344500Y-105320500D01*
X192151000Y-107061000D02*
X194216000Y-107061000D01*
D24*
X170370500Y-105346500D02*
X170344500Y-105320500D01*
D25*
X170344500Y-103778500D02*
X170344500Y-102590000D01*
X170344500Y-102590000D02*
X168529000Y-100774500D01*
X168592500Y-100774500D02*
X168529000Y-100774500D01*
X168529000Y-100774500D02*
X167830500Y-100774500D01*
X167830500Y-100774500D02*
X166052500Y-98996500D01*
D24*
X194183000Y-102171500D02*
X194216000Y-102204500D01*
D25*
X171450000Y-101028500D02*
X177609500Y-101028500D01*
X179324000Y-99314000D02*
X177609500Y-101028500D01*
X183832500Y-99314000D02*
X179324000Y-99314000D01*
X194216000Y-102204500D02*
X194216000Y-103251000D01*
X170624500Y-101028500D02*
X171450000Y-101028500D01*
X172944500Y-102523000D02*
X172944500Y-103842000D01*
X171450000Y-101028500D02*
X172944500Y-102523000D01*
X170624500Y-101028500D02*
X168592500Y-98996500D01*
X170624500Y-101028500D02*
X168592500Y-98996500D01*
D24*
X193990000Y-110426500D02*
X193990000Y-109730500D01*
X195072000Y-105791000D02*
X194216000Y-105791000D01*
X195389500Y-106108500D02*
X195072000Y-105791000D01*
X195389500Y-108331000D02*
X195389500Y-106108500D01*
X193990000Y-109730500D02*
X195389500Y-108331000D01*
D25*
X165144500Y-105518000D02*
X165957250Y-106330750D01*
X165144500Y-103969000D02*
X165144500Y-105518000D01*
X192786000Y-105791000D02*
X194216000Y-105791000D01*
X194216000Y-105791000D02*
X194216000Y-104521000D01*
D26*
G36*
X145903504Y-97877919D02*
X147129500Y-99103915D01*
X148355496Y-97877919D01*
X148217420Y-97582000D01*
X186743164Y-97582000D01*
X186348332Y-97976144D01*
X186012393Y-98785175D01*
X186011628Y-99661181D01*
X186346155Y-100470798D01*
X186965044Y-101090768D01*
X187774075Y-101426707D01*
X188650081Y-101427472D01*
X189459698Y-101092945D01*
X190079668Y-100474056D01*
X190415607Y-99665025D01*
X190416372Y-98789019D01*
X190081845Y-97979402D01*
X189685136Y-97582000D01*
X195326000Y-97582000D01*
X195326000Y-105396170D01*
X195255153Y-105348831D01*
X195215429Y-105340929D01*
X195139530Y-105222980D01*
X195040580Y-105155370D01*
X195132020Y-105096530D01*
X195218101Y-104970547D01*
X195248385Y-104821000D01*
X195248385Y-104221000D01*
X195222097Y-104081292D01*
X195139530Y-103952980D01*
X195040580Y-103885370D01*
X195132020Y-103826530D01*
X195218101Y-103700547D01*
X195248385Y-103551000D01*
X195248385Y-102951000D01*
X195222097Y-102811292D01*
X195139530Y-102682980D01*
X195013547Y-102596899D01*
X194864000Y-102566615D01*
X194798430Y-102566615D01*
X194902775Y-102315325D01*
X194903025Y-102028931D01*
X194793658Y-101764242D01*
X194591323Y-101561554D01*
X194326825Y-101451725D01*
X194040431Y-101451475D01*
X193775742Y-101560842D01*
X193573054Y-101763177D01*
X193463225Y-102027675D01*
X193462975Y-102314069D01*
X193567325Y-102566615D01*
X193314000Y-102566615D01*
X193174292Y-102592903D01*
X193045980Y-102675470D01*
X192959899Y-102801453D01*
X192929615Y-102951000D01*
X192929615Y-103551000D01*
X192955903Y-103690708D01*
X193038470Y-103819020D01*
X193137420Y-103886630D01*
X193045980Y-103945470D01*
X192959899Y-104071453D01*
X192929615Y-104221000D01*
X192929615Y-104821000D01*
X192955903Y-104960708D01*
X193038470Y-105089020D01*
X193137420Y-105156630D01*
X193136668Y-105157114D01*
X192929825Y-105071225D01*
X192643431Y-105070975D01*
X192378742Y-105180342D01*
X192176054Y-105382677D01*
X192066225Y-105647175D01*
X192065975Y-105933569D01*
X192175342Y-106198258D01*
X192377677Y-106400946D01*
X192642175Y-106510775D01*
X192928569Y-106511025D01*
X193135687Y-106425446D01*
X193137420Y-106426630D01*
X193045980Y-106485470D01*
X192995739Y-106559000D01*
X192151000Y-106559000D01*
X191958892Y-106597212D01*
X191796032Y-106706032D01*
X190800064Y-107702000D01*
X190579825Y-107702000D01*
X190653258Y-107671658D01*
X190855946Y-107469323D01*
X190965775Y-107204825D01*
X190966025Y-106918431D01*
X190856658Y-106653742D01*
X190654323Y-106451054D01*
X190389825Y-106341225D01*
X190103431Y-106340975D01*
X189838742Y-106450342D01*
X189761628Y-106527321D01*
X189739530Y-106492980D01*
X189640580Y-106425370D01*
X189732020Y-106366530D01*
X189818101Y-106240547D01*
X189848385Y-106091000D01*
X189848385Y-105491000D01*
X189822097Y-105351292D01*
X189739530Y-105222980D01*
X189640580Y-105155370D01*
X189732020Y-105096530D01*
X189818101Y-104970547D01*
X189848385Y-104821000D01*
X189848385Y-104221000D01*
X189823615Y-104089361D01*
X189823698Y-104089327D01*
X190002327Y-103910699D01*
X190099000Y-103677310D01*
X190099000Y-103536750D01*
X189940250Y-103378000D01*
X188816000Y-103378000D01*
X188816000Y-103398000D01*
X188562000Y-103398000D01*
X188562000Y-103378000D01*
X188542000Y-103378000D01*
X188542000Y-103124000D01*
X188562000Y-103124000D01*
X188562000Y-102474750D01*
X188816000Y-102474750D01*
X188816000Y-103124000D01*
X189940250Y-103124000D01*
X190099000Y-102965250D01*
X190099000Y-102824690D01*
X190002327Y-102591301D01*
X189823698Y-102412673D01*
X189590309Y-102316000D01*
X188974750Y-102316000D01*
X188816000Y-102474750D01*
X188562000Y-102474750D01*
X188403250Y-102316000D01*
X187787691Y-102316000D01*
X187554302Y-102412673D01*
X187375673Y-102591301D01*
X187358385Y-102633038D01*
X187358385Y-102474000D01*
X187332097Y-102334292D01*
X187249530Y-102205980D01*
X187123547Y-102119899D01*
X186974000Y-102089615D01*
X186299550Y-102089615D01*
X184565968Y-100356032D01*
X184403107Y-100247212D01*
X184211000Y-100208999D01*
X184210995Y-100209000D01*
X182998955Y-100209000D01*
X182998955Y-99960430D01*
X182972667Y-99820722D01*
X182969628Y-99816000D01*
X183316419Y-99816000D01*
X183424177Y-99923946D01*
X183688675Y-100033775D01*
X183975069Y-100034025D01*
X184239758Y-99924658D01*
X184442446Y-99722323D01*
X184552275Y-99457825D01*
X184552525Y-99171431D01*
X184443158Y-98906742D01*
X184240823Y-98704054D01*
X183976325Y-98594225D01*
X183689931Y-98593975D01*
X183425242Y-98703342D01*
X183316394Y-98812000D01*
X179324000Y-98812000D01*
X179131892Y-98850212D01*
X179074461Y-98888587D01*
X178969032Y-98959032D01*
X178969030Y-98959035D01*
X177401564Y-100526500D01*
X177181306Y-100526500D01*
X177504454Y-100164820D01*
X177697684Y-99612413D01*
X177553424Y-99377500D01*
X176339500Y-99377500D01*
X176339500Y-99397500D01*
X176085500Y-99397500D01*
X176085500Y-99377500D01*
X176065500Y-99377500D01*
X176065500Y-99123500D01*
X176085500Y-99123500D01*
X176085500Y-97764283D01*
X176339500Y-97764283D01*
X176339500Y-99123500D01*
X177553424Y-99123500D01*
X177697684Y-98888587D01*
X177504454Y-98336180D01*
X177114536Y-97899768D01*
X176587291Y-97645791D01*
X176571526Y-97643142D01*
X176339500Y-97764283D01*
X176085500Y-97764283D01*
X175853474Y-97643142D01*
X175837709Y-97645791D01*
X175310464Y-97899768D01*
X174920546Y-98336180D01*
X174822645Y-98616061D01*
X174818665Y-98596053D01*
X174549737Y-98193573D01*
X174147257Y-97924645D01*
X173672500Y-97830210D01*
X173197743Y-97924645D01*
X172795263Y-98193573D01*
X172526335Y-98596053D01*
X172431900Y-99070810D01*
X172431900Y-99430190D01*
X172526335Y-99904947D01*
X172795263Y-100307427D01*
X173123130Y-100526500D01*
X171681870Y-100526500D01*
X172009737Y-100307427D01*
X172278665Y-99904947D01*
X172373100Y-99430190D01*
X172373100Y-99070810D01*
X172278665Y-98596053D01*
X172009737Y-98193573D01*
X171607257Y-97924645D01*
X171132500Y-97830210D01*
X170657743Y-97924645D01*
X170255263Y-98193573D01*
X169986335Y-98596053D01*
X169891900Y-99070810D01*
X169891900Y-99430190D01*
X169930579Y-99624643D01*
X169817011Y-99511075D01*
X169833100Y-99430190D01*
X169833100Y-99070810D01*
X169738665Y-98596053D01*
X169469737Y-98193573D01*
X169067257Y-97924645D01*
X168592500Y-97830210D01*
X168117743Y-97924645D01*
X167715263Y-98193573D01*
X167446335Y-98596053D01*
X167351900Y-99070810D01*
X167351900Y-99430190D01*
X167390579Y-99624644D01*
X167277011Y-99511075D01*
X167293100Y-99430190D01*
X167293100Y-99070810D01*
X167198665Y-98596053D01*
X166929737Y-98193573D01*
X166527257Y-97924645D01*
X166052500Y-97830210D01*
X165577743Y-97924645D01*
X165175263Y-98193573D01*
X164906335Y-98596053D01*
X164811900Y-99070810D01*
X164811900Y-99430190D01*
X164906335Y-99904947D01*
X165175263Y-100307427D01*
X165577743Y-100576355D01*
X166052500Y-100670790D01*
X166527257Y-100576355D01*
X166764140Y-100418075D01*
X167475530Y-101129465D01*
X167475532Y-101129468D01*
X167611933Y-101220608D01*
X167638393Y-101238288D01*
X167830500Y-101276501D01*
X167830505Y-101276500D01*
X168321064Y-101276500D01*
X169314407Y-102269843D01*
X169157000Y-102427250D01*
X169157000Y-102693068D01*
X169115399Y-102753953D01*
X169085115Y-102903500D01*
X169085115Y-104653500D01*
X169111403Y-104793208D01*
X169157000Y-104864067D01*
X169157000Y-105129750D01*
X169315750Y-105288500D01*
X169395810Y-105288500D01*
X169629199Y-105191827D01*
X169673714Y-105147312D01*
X169650725Y-105202675D01*
X169650475Y-105489069D01*
X169672759Y-105543000D01*
X167276435Y-105543000D01*
X166946500Y-105213064D01*
X166946500Y-105037885D01*
X167319500Y-105037885D01*
X167423171Y-105018378D01*
X167519500Y-105037885D01*
X167969500Y-105037885D01*
X168073171Y-105018378D01*
X168169500Y-105037885D01*
X168305860Y-105037885D01*
X168459801Y-105191827D01*
X168693190Y-105288500D01*
X168773250Y-105288500D01*
X168932000Y-105129750D01*
X168932000Y-104863932D01*
X168973601Y-104803047D01*
X169003885Y-104653500D01*
X169003885Y-102903500D01*
X168977597Y-102763792D01*
X168932000Y-102692933D01*
X168932000Y-102427250D01*
X168773250Y-102268500D01*
X168693190Y-102268500D01*
X168459801Y-102365173D01*
X168305860Y-102519115D01*
X168202089Y-102519115D01*
X168099468Y-102365532D01*
X168042392Y-102308456D01*
X168042525Y-102155931D01*
X167933158Y-101891242D01*
X167730823Y-101688554D01*
X167466325Y-101578725D01*
X167179931Y-101578475D01*
X166915242Y-101687842D01*
X166712554Y-101890177D01*
X166602725Y-102154675D01*
X166602683Y-102202248D01*
X165899468Y-101499032D01*
X165736607Y-101390212D01*
X165544500Y-101351999D01*
X165544495Y-101352000D01*
X161671845Y-101352000D01*
X161671845Y-100683060D01*
X161645557Y-100543352D01*
X161562990Y-100415040D01*
X161437007Y-100328959D01*
X161287460Y-100298675D01*
X160088580Y-100298675D01*
X159948872Y-100324963D01*
X159820560Y-100407530D01*
X159734479Y-100533513D01*
X159704195Y-100683060D01*
X159704195Y-101881940D01*
X159730483Y-102021648D01*
X159813050Y-102149960D01*
X159939033Y-102236041D01*
X160088580Y-102266325D01*
X160990392Y-102266325D01*
X161067412Y-102317788D01*
X161259520Y-102356001D01*
X161259525Y-102356000D01*
X165336564Y-102356000D01*
X165510737Y-102530172D01*
X165465829Y-102538622D01*
X165369500Y-102519115D01*
X164919500Y-102519115D01*
X164815829Y-102538622D01*
X164719500Y-102519115D01*
X164269500Y-102519115D01*
X164129792Y-102545403D01*
X164001480Y-102627970D01*
X163915399Y-102753953D01*
X163885115Y-102903500D01*
X163885115Y-104653500D01*
X163911403Y-104793208D01*
X163993970Y-104921520D01*
X164119953Y-105007601D01*
X164269500Y-105037885D01*
X164642500Y-105037885D01*
X164642500Y-105517995D01*
X164642499Y-105518000D01*
X164680712Y-105710107D01*
X164789532Y-105872968D01*
X165237358Y-106320794D01*
X165237225Y-106473319D01*
X165346592Y-106738008D01*
X165548927Y-106940696D01*
X165813425Y-107050525D01*
X166099819Y-107050775D01*
X166364508Y-106941408D01*
X166567196Y-106739073D01*
X166677025Y-106474575D01*
X166677122Y-106363557D01*
X166713530Y-106399965D01*
X166713532Y-106399968D01*
X166789988Y-106451054D01*
X166876392Y-106508788D01*
X167068500Y-106547000D01*
X171386495Y-106547000D01*
X171386500Y-106547001D01*
X171578607Y-106508788D01*
X171741468Y-106399968D01*
X172292935Y-105848500D01*
X174729095Y-105848500D01*
X174729100Y-105848501D01*
X174921207Y-105810288D01*
X174999241Y-105758148D01*
X175001400Y-105758585D01*
X175701400Y-105758585D01*
X175841108Y-105732297D01*
X175969420Y-105649730D01*
X176055501Y-105523747D01*
X176085785Y-105374200D01*
X176085785Y-104074200D01*
X176059497Y-103934492D01*
X175976930Y-103806180D01*
X175907022Y-103758414D01*
X176229935Y-103435500D01*
X176721098Y-103435500D01*
X176699225Y-103488175D01*
X176698991Y-103756450D01*
X176633380Y-103798670D01*
X176547299Y-103924653D01*
X176517015Y-104074200D01*
X176517015Y-105374200D01*
X176543303Y-105513908D01*
X176625870Y-105642220D01*
X176751853Y-105728301D01*
X176901400Y-105758585D01*
X177601400Y-105758585D01*
X177741108Y-105732297D01*
X177869420Y-105649730D01*
X177955501Y-105523747D01*
X177985785Y-105374200D01*
X177985785Y-104083409D01*
X178028946Y-104040323D01*
X178138775Y-103775825D01*
X178138983Y-103537918D01*
X178207030Y-103605965D01*
X178207032Y-103605968D01*
X178283488Y-103657054D01*
X178369893Y-103714788D01*
X178508069Y-103742273D01*
X178368650Y-103881449D01*
X178196627Y-104295729D01*
X178196235Y-104744303D01*
X178367536Y-105158882D01*
X178425808Y-105217256D01*
X176896432Y-106746632D01*
X176787612Y-106909493D01*
X176749399Y-107101600D01*
X176749400Y-107101605D01*
X176749400Y-108092813D01*
X176633380Y-108167470D01*
X176547299Y-108293453D01*
X176517015Y-108443000D01*
X176517015Y-109743000D01*
X176543303Y-109882708D01*
X176625870Y-110011020D01*
X176751853Y-110097101D01*
X176901400Y-110127385D01*
X177601400Y-110127385D01*
X177741108Y-110101097D01*
X177869420Y-110018530D01*
X177955501Y-109892547D01*
X177969320Y-109824303D01*
X178196235Y-109824303D01*
X178367536Y-110238882D01*
X178684449Y-110556350D01*
X179098729Y-110728373D01*
X179547303Y-110728765D01*
X179961882Y-110557464D01*
X180279350Y-110240551D01*
X180451373Y-109826271D01*
X180451765Y-109377697D01*
X180280464Y-108963118D01*
X179963551Y-108645650D01*
X179743562Y-108554303D01*
X180736235Y-108554303D01*
X180907536Y-108968882D01*
X181224449Y-109286350D01*
X181638729Y-109458373D01*
X182087303Y-109458765D01*
X182501882Y-109287464D01*
X182819350Y-108970551D01*
X182991373Y-108556271D01*
X182991765Y-108107697D01*
X182820464Y-107693118D01*
X182503551Y-107375650D01*
X182089271Y-107203627D01*
X181640697Y-107203235D01*
X181226118Y-107374536D01*
X180908650Y-107691449D01*
X180736627Y-108105729D01*
X180736235Y-108554303D01*
X179743562Y-108554303D01*
X179549271Y-108473627D01*
X179100697Y-108473235D01*
X178686118Y-108644536D01*
X178368650Y-108961449D01*
X178196627Y-109375729D01*
X178196235Y-109824303D01*
X177969320Y-109824303D01*
X177985785Y-109743000D01*
X177985785Y-108443000D01*
X177959497Y-108303292D01*
X177876930Y-108174980D01*
X177753400Y-108090575D01*
X177753400Y-108032930D01*
X178531675Y-108032930D01*
X178599735Y-108273931D01*
X179119034Y-108458767D01*
X179669538Y-108430805D01*
X180048265Y-108273931D01*
X180116325Y-108032930D01*
X179324000Y-107240605D01*
X178531675Y-108032930D01*
X177753400Y-108032930D01*
X177753400Y-107309536D01*
X177939800Y-107123136D01*
X177954195Y-107406538D01*
X178111069Y-107785265D01*
X178352070Y-107853325D01*
X179144395Y-107061000D01*
X179503605Y-107061000D01*
X180295930Y-107853325D01*
X180536931Y-107785265D01*
X180721767Y-107265966D01*
X180696217Y-106762930D01*
X181071675Y-106762930D01*
X181139735Y-107003931D01*
X181659034Y-107188767D01*
X182209538Y-107160805D01*
X182373837Y-107092750D01*
X183539000Y-107092750D01*
X183539000Y-107558310D01*
X183635673Y-107791699D01*
X183814302Y-107970327D01*
X184047691Y-108067000D01*
X184388250Y-108067000D01*
X184547000Y-107908250D01*
X184547000Y-106934000D01*
X183697750Y-106934000D01*
X183539000Y-107092750D01*
X182373837Y-107092750D01*
X182588265Y-107003931D01*
X182656325Y-106762930D01*
X181864000Y-105970605D01*
X181071675Y-106762930D01*
X180696217Y-106762930D01*
X180693805Y-106715462D01*
X180536931Y-106336735D01*
X180295930Y-106268675D01*
X179503605Y-107061000D01*
X179144395Y-107061000D01*
X179130253Y-107046858D01*
X179309858Y-106867253D01*
X179324000Y-106881395D01*
X180116325Y-106089070D01*
X180048265Y-105848069D01*
X179528966Y-105663233D01*
X179392786Y-105670150D01*
X179414287Y-105648649D01*
X179547303Y-105648765D01*
X179699123Y-105586034D01*
X180466233Y-105586034D01*
X180494195Y-106136538D01*
X180651069Y-106515265D01*
X180892070Y-106583325D01*
X181684395Y-105791000D01*
X182043605Y-105791000D01*
X182835930Y-106583325D01*
X183076931Y-106515265D01*
X183240509Y-106055690D01*
X183539000Y-106055690D01*
X183539000Y-106521250D01*
X183697750Y-106680000D01*
X184547000Y-106680000D01*
X184547000Y-105705750D01*
X184388250Y-105547000D01*
X184047691Y-105547000D01*
X183814302Y-105643673D01*
X183635673Y-105822301D01*
X183539000Y-106055690D01*
X183240509Y-106055690D01*
X183261767Y-105995966D01*
X183233805Y-105445462D01*
X183076931Y-105066735D01*
X182835930Y-104998675D01*
X182043605Y-105791000D01*
X181684395Y-105791000D01*
X180892070Y-104998675D01*
X180651069Y-105066735D01*
X180466233Y-105586034D01*
X179699123Y-105586034D01*
X179961882Y-105477464D01*
X180279350Y-105160551D01*
X180421144Y-104819070D01*
X181071675Y-104819070D01*
X181864000Y-105611395D01*
X182656325Y-104819070D01*
X182588265Y-104578069D01*
X182068966Y-104393233D01*
X181518462Y-104421195D01*
X181139735Y-104578069D01*
X181071675Y-104819070D01*
X180421144Y-104819070D01*
X180451373Y-104746271D01*
X180451765Y-104297697D01*
X180280464Y-103883118D01*
X180150573Y-103753000D01*
X180851391Y-103753000D01*
X180907536Y-103888882D01*
X181224449Y-104206350D01*
X181638729Y-104378373D01*
X182087303Y-104378765D01*
X182501882Y-104207464D01*
X182819350Y-103890551D01*
X182991373Y-103476271D01*
X182991765Y-103027697D01*
X182820464Y-102613118D01*
X182690573Y-102483000D01*
X183053064Y-102483000D01*
X183989615Y-103419551D01*
X183989615Y-103774000D01*
X184015903Y-103913708D01*
X184098470Y-104042020D01*
X184224453Y-104128101D01*
X184374000Y-104158385D01*
X185048449Y-104158385D01*
X186687680Y-105797615D01*
X186174000Y-105797615D01*
X186034292Y-105823903D01*
X185905980Y-105906470D01*
X185819899Y-106032453D01*
X185809000Y-106086274D01*
X185809000Y-106055690D01*
X185712327Y-105822301D01*
X185533698Y-105643673D01*
X185300309Y-105547000D01*
X184959750Y-105547000D01*
X184801000Y-105705750D01*
X184801000Y-106680000D01*
X184821000Y-106680000D01*
X184821000Y-106934000D01*
X184801000Y-106934000D01*
X184801000Y-107908250D01*
X184959750Y-108067000D01*
X185300309Y-108067000D01*
X185393783Y-108028282D01*
X183016956Y-110405108D01*
X182864431Y-110404975D01*
X182599742Y-110514342D01*
X182397054Y-110716677D01*
X182287225Y-110981175D01*
X182286975Y-111267569D01*
X182396342Y-111532258D01*
X182598677Y-111734946D01*
X182863175Y-111844775D01*
X183149569Y-111845025D01*
X183414258Y-111735658D01*
X183616946Y-111533323D01*
X183726775Y-111268825D01*
X183726909Y-111115027D01*
X186135935Y-108706000D01*
X191007995Y-108706000D01*
X191008000Y-108706001D01*
X191200107Y-108667788D01*
X191362968Y-108558968D01*
X192358936Y-107563000D01*
X192995987Y-107563000D01*
X193038470Y-107629020D01*
X193164453Y-107715101D01*
X193314000Y-107745385D01*
X194864000Y-107745385D01*
X194910900Y-107736560D01*
X194910900Y-108132758D01*
X194339597Y-108704061D01*
X194330922Y-108691078D01*
X194175653Y-108587331D01*
X193992500Y-108550900D01*
X193809348Y-108587331D01*
X193654079Y-108691078D01*
X193651579Y-108693579D01*
X193547831Y-108848847D01*
X193511400Y-109032000D01*
X193547831Y-109215153D01*
X193651579Y-109370421D01*
X193664562Y-109379096D01*
X193651579Y-109392079D01*
X193651555Y-109392115D01*
X193640000Y-109392115D01*
X193500292Y-109418403D01*
X193371980Y-109500970D01*
X193285899Y-109626953D01*
X193255615Y-109776500D01*
X193255615Y-111076500D01*
X193281903Y-111216208D01*
X193364470Y-111344520D01*
X193490453Y-111430601D01*
X193640000Y-111460885D01*
X194340000Y-111460885D01*
X194479708Y-111434597D01*
X194608020Y-111352030D01*
X194694101Y-111226047D01*
X194724385Y-111076500D01*
X194724385Y-109776500D01*
X194707987Y-109689355D01*
X195326000Y-109071342D01*
X195326000Y-112522000D01*
X189900832Y-112522000D01*
X190079668Y-112343476D01*
X190415607Y-111534445D01*
X190416325Y-110712250D01*
X191105000Y-110712250D01*
X191105000Y-111202810D01*
X191201673Y-111436199D01*
X191380302Y-111614827D01*
X191613691Y-111711500D01*
X191804250Y-111711500D01*
X191963000Y-111552750D01*
X191963000Y-110553500D01*
X192217000Y-110553500D01*
X192217000Y-111552750D01*
X192375750Y-111711500D01*
X192566309Y-111711500D01*
X192799698Y-111614827D01*
X192978327Y-111436199D01*
X193075000Y-111202810D01*
X193075000Y-110712250D01*
X192916250Y-110553500D01*
X192217000Y-110553500D01*
X191963000Y-110553500D01*
X191263750Y-110553500D01*
X191105000Y-110712250D01*
X190416325Y-110712250D01*
X190416372Y-110658439D01*
X190081845Y-109848822D01*
X189883560Y-109650190D01*
X191105000Y-109650190D01*
X191105000Y-110140750D01*
X191263750Y-110299500D01*
X191963000Y-110299500D01*
X191963000Y-109300250D01*
X192217000Y-109300250D01*
X192217000Y-110299500D01*
X192916250Y-110299500D01*
X193075000Y-110140750D01*
X193075000Y-109650190D01*
X192978327Y-109416801D01*
X192799698Y-109238173D01*
X192566309Y-109141500D01*
X192375750Y-109141500D01*
X192217000Y-109300250D01*
X191963000Y-109300250D01*
X191804250Y-109141500D01*
X191613691Y-109141500D01*
X191380302Y-109238173D01*
X191201673Y-109416801D01*
X191105000Y-109650190D01*
X189883560Y-109650190D01*
X189462956Y-109228852D01*
X188653925Y-108892913D01*
X187777919Y-108892148D01*
X186968302Y-109226675D01*
X186348332Y-109845564D01*
X186012393Y-110654595D01*
X186011628Y-111530601D01*
X186346155Y-112340218D01*
X186527620Y-112522000D01*
X148548628Y-112522000D01*
X148535103Y-112508475D01*
X148838290Y-112367008D01*
X149123247Y-111630528D01*
X149104674Y-110841060D01*
X148838290Y-110197952D01*
X148535101Y-110056484D01*
X147309105Y-111282480D01*
X147323248Y-111296623D01*
X147143643Y-111476228D01*
X147129500Y-111462085D01*
X147115358Y-111476228D01*
X146935753Y-111296623D01*
X146949895Y-111282480D01*
X145723899Y-110056484D01*
X145420710Y-110197952D01*
X145135753Y-110934432D01*
X145154326Y-111723900D01*
X145420710Y-112367008D01*
X145723897Y-112508475D01*
X145710372Y-112522000D01*
X137922000Y-112522000D01*
X137922000Y-109124750D01*
X141629000Y-109124750D01*
X141629000Y-109590310D01*
X141725673Y-109823699D01*
X141904302Y-110002327D01*
X142137691Y-110099000D01*
X142478250Y-110099000D01*
X142637000Y-109940250D01*
X142637000Y-108966000D01*
X141787750Y-108966000D01*
X141629000Y-109124750D01*
X137922000Y-109124750D01*
X137922000Y-106838750D01*
X141629000Y-106838750D01*
X141629000Y-107304310D01*
X141725673Y-107537699D01*
X141883975Y-107696000D01*
X141725673Y-107854301D01*
X141629000Y-108087690D01*
X141629000Y-108553250D01*
X141787750Y-108712000D01*
X142637000Y-108712000D01*
X142637000Y-107737750D01*
X142595250Y-107696000D01*
X142637000Y-107654250D01*
X142637000Y-106680000D01*
X141787750Y-106680000D01*
X141629000Y-106838750D01*
X137922000Y-106838750D01*
X137922000Y-104552750D01*
X141629000Y-104552750D01*
X141629000Y-105018310D01*
X141725673Y-105251699D01*
X141883975Y-105410000D01*
X141725673Y-105568301D01*
X141629000Y-105801690D01*
X141629000Y-106267250D01*
X141787750Y-106426000D01*
X142637000Y-106426000D01*
X142637000Y-105451750D01*
X142595250Y-105410000D01*
X142637000Y-105368250D01*
X142637000Y-104394000D01*
X141787750Y-104394000D01*
X141629000Y-104552750D01*
X137922000Y-104552750D01*
X137922000Y-102266750D01*
X141629000Y-102266750D01*
X141629000Y-102732310D01*
X141725673Y-102965699D01*
X141883975Y-103124000D01*
X141725673Y-103282301D01*
X141629000Y-103515690D01*
X141629000Y-103981250D01*
X141787750Y-104140000D01*
X142637000Y-104140000D01*
X142637000Y-103165750D01*
X142595250Y-103124000D01*
X142637000Y-103082250D01*
X142637000Y-102108000D01*
X141787750Y-102108000D01*
X141629000Y-102266750D01*
X137922000Y-102266750D01*
X137922000Y-101229690D01*
X141629000Y-101229690D01*
X141629000Y-101695250D01*
X141787750Y-101854000D01*
X142637000Y-101854000D01*
X142637000Y-100879750D01*
X142891000Y-100879750D01*
X142891000Y-101854000D01*
X142911000Y-101854000D01*
X142911000Y-102108000D01*
X142891000Y-102108000D01*
X142891000Y-103082250D01*
X142932750Y-103124000D01*
X142891000Y-103165750D01*
X142891000Y-104140000D01*
X142911000Y-104140000D01*
X142911000Y-104394000D01*
X142891000Y-104394000D01*
X142891000Y-105368250D01*
X142932750Y-105410000D01*
X142891000Y-105451750D01*
X142891000Y-106426000D01*
X142911000Y-106426000D01*
X142911000Y-106680000D01*
X142891000Y-106680000D01*
X142891000Y-107654250D01*
X142932750Y-107696000D01*
X142891000Y-107737750D01*
X142891000Y-108712000D01*
X142911000Y-108712000D01*
X142911000Y-108966000D01*
X142891000Y-108966000D01*
X142891000Y-109940250D01*
X143049750Y-110099000D01*
X143390309Y-110099000D01*
X143623698Y-110002327D01*
X143749146Y-109876879D01*
X145903504Y-109876879D01*
X147129500Y-111102875D01*
X148355496Y-109876879D01*
X148214028Y-109573690D01*
X147477548Y-109288733D01*
X146688080Y-109307306D01*
X146044972Y-109573690D01*
X145903504Y-109876879D01*
X143749146Y-109876879D01*
X143802327Y-109823699D01*
X143899000Y-109590310D01*
X143899000Y-109567022D01*
X143905903Y-109603708D01*
X143988470Y-109732020D01*
X144114453Y-109818101D01*
X144264000Y-109848385D01*
X145264000Y-109848385D01*
X145403708Y-109822097D01*
X145532020Y-109739530D01*
X145618101Y-109613547D01*
X145630975Y-109549972D01*
X145652175Y-109558775D01*
X145938569Y-109559025D01*
X146203258Y-109449658D01*
X146405946Y-109247323D01*
X146515775Y-108982825D01*
X146516025Y-108696431D01*
X146406658Y-108431742D01*
X146204323Y-108229054D01*
X145939825Y-108119225D01*
X145653431Y-108118975D01*
X145632159Y-108127765D01*
X145622097Y-108074292D01*
X145539530Y-107945980D01*
X145413547Y-107859899D01*
X145264000Y-107829615D01*
X144264000Y-107829615D01*
X144124292Y-107855903D01*
X143995980Y-107938470D01*
X143909899Y-108064453D01*
X143899000Y-108118274D01*
X143899000Y-108087690D01*
X143802327Y-107854301D01*
X143756026Y-107808000D01*
X154208115Y-107808000D01*
X154208115Y-109108000D01*
X154234403Y-109247708D01*
X154316970Y-109376020D01*
X154440500Y-109460425D01*
X154440500Y-109680313D01*
X154324480Y-109754970D01*
X154238399Y-109880953D01*
X154208115Y-110030500D01*
X154208115Y-111330500D01*
X154234403Y-111470208D01*
X154316970Y-111598520D01*
X154442953Y-111684601D01*
X154592500Y-111714885D01*
X155292500Y-111714885D01*
X155432208Y-111688597D01*
X155560520Y-111606030D01*
X155646601Y-111480047D01*
X155676885Y-111330500D01*
X155676885Y-110030500D01*
X156108115Y-110030500D01*
X156108115Y-111330500D01*
X156134403Y-111470208D01*
X156216970Y-111598520D01*
X156342953Y-111684601D01*
X156492500Y-111714885D01*
X157192500Y-111714885D01*
X157332208Y-111688597D01*
X157460520Y-111606030D01*
X157546601Y-111480047D01*
X157571033Y-111359396D01*
X157651510Y-111484460D01*
X157777493Y-111570541D01*
X157927040Y-111600825D01*
X159125920Y-111600825D01*
X159265628Y-111574537D01*
X159393940Y-111491970D01*
X159480021Y-111365987D01*
X159510305Y-111216440D01*
X159510305Y-110017560D01*
X159484017Y-109877852D01*
X159401450Y-109749540D01*
X159275467Y-109663459D01*
X159125920Y-109633175D01*
X157927040Y-109633175D01*
X157787332Y-109659463D01*
X157659020Y-109742030D01*
X157572939Y-109868013D01*
X157559136Y-109936174D01*
X157550597Y-109890792D01*
X157468030Y-109762480D01*
X157342047Y-109676399D01*
X157192500Y-109646115D01*
X156492500Y-109646115D01*
X156352792Y-109672403D01*
X156224480Y-109754970D01*
X156138399Y-109880953D01*
X156108115Y-110030500D01*
X155676885Y-110030500D01*
X155650597Y-109890792D01*
X155568030Y-109762480D01*
X155444500Y-109678075D01*
X155444500Y-109458187D01*
X155560520Y-109383530D01*
X155646601Y-109257547D01*
X155676885Y-109108000D01*
X155676885Y-107808000D01*
X156108115Y-107808000D01*
X156108115Y-109108000D01*
X156134403Y-109247708D01*
X156216970Y-109376020D01*
X156342953Y-109462101D01*
X156492500Y-109492385D01*
X157192500Y-109492385D01*
X157332208Y-109466097D01*
X157460520Y-109383530D01*
X157546601Y-109257547D01*
X157557880Y-109201851D01*
X157568943Y-109260648D01*
X157651510Y-109388960D01*
X157777493Y-109475041D01*
X157927040Y-109505325D01*
X159125920Y-109505325D01*
X159265628Y-109479037D01*
X159393940Y-109396470D01*
X159480021Y-109270487D01*
X159510305Y-109120940D01*
X159510305Y-107922060D01*
X159640695Y-107922060D01*
X159640695Y-109120940D01*
X159666983Y-109260648D01*
X159749550Y-109388960D01*
X159875533Y-109475041D01*
X160025080Y-109505325D01*
X161059353Y-109505325D01*
X160931503Y-109633175D01*
X160025080Y-109633175D01*
X159885372Y-109659463D01*
X159757060Y-109742030D01*
X159670979Y-109868013D01*
X159640695Y-110017560D01*
X159640695Y-111216440D01*
X159666983Y-111356148D01*
X159749550Y-111484460D01*
X159875533Y-111570541D01*
X160025080Y-111600825D01*
X161223960Y-111600825D01*
X161363668Y-111574537D01*
X161491980Y-111491970D01*
X161578061Y-111365987D01*
X161608345Y-111216440D01*
X161608345Y-110310017D01*
X163086560Y-108831802D01*
X164324575Y-108831802D01*
X164248242Y-108863342D01*
X164045554Y-109065677D01*
X163935725Y-109330175D01*
X163935475Y-109616569D01*
X164018341Y-109817120D01*
X164001480Y-109827970D01*
X163999049Y-109831528D01*
X163857323Y-109689554D01*
X163592825Y-109579725D01*
X163306431Y-109579475D01*
X163041742Y-109688842D01*
X162839054Y-109891177D01*
X162729225Y-110155675D01*
X162728975Y-110442069D01*
X162838342Y-110706758D01*
X163040677Y-110909446D01*
X163305175Y-111019275D01*
X163458974Y-111019409D01*
X163885115Y-111445550D01*
X163885115Y-111853500D01*
X163911403Y-111993208D01*
X163993970Y-112121520D01*
X164119953Y-112207601D01*
X164269500Y-112237885D01*
X164719500Y-112237885D01*
X164823171Y-112218378D01*
X164919500Y-112237885D01*
X165369500Y-112237885D01*
X165473171Y-112218378D01*
X165569500Y-112237885D01*
X165705860Y-112237885D01*
X165859801Y-112391827D01*
X166093190Y-112488500D01*
X166173250Y-112488500D01*
X166332000Y-112329750D01*
X166332000Y-112063932D01*
X166373601Y-112003047D01*
X166403885Y-111853500D01*
X166403885Y-110831500D01*
X166485115Y-110831500D01*
X166485115Y-111853500D01*
X166511403Y-111993208D01*
X166557000Y-112064067D01*
X166557000Y-112329750D01*
X166715750Y-112488500D01*
X166795810Y-112488500D01*
X167029199Y-112391827D01*
X167183140Y-112237885D01*
X167319500Y-112237885D01*
X167423171Y-112218378D01*
X167519500Y-112237885D01*
X167655860Y-112237885D01*
X167809801Y-112391827D01*
X168043190Y-112488500D01*
X168123250Y-112488500D01*
X168282000Y-112329750D01*
X168282000Y-112063932D01*
X168323601Y-112003047D01*
X168353885Y-111853500D01*
X168353885Y-110831500D01*
X168435115Y-110831500D01*
X168435115Y-111853500D01*
X168461403Y-111993208D01*
X168507000Y-112064067D01*
X168507000Y-112329750D01*
X168665750Y-112488500D01*
X168745810Y-112488500D01*
X168979199Y-112391827D01*
X169133140Y-112237885D01*
X169269500Y-112237885D01*
X169373171Y-112218378D01*
X169469500Y-112237885D01*
X169919500Y-112237885D01*
X170023171Y-112218378D01*
X170119500Y-112237885D01*
X170255860Y-112237885D01*
X170409801Y-112391827D01*
X170643190Y-112488500D01*
X170723250Y-112488500D01*
X170882000Y-112329750D01*
X170882000Y-112214025D01*
X171059801Y-112391827D01*
X171246347Y-112469097D01*
X171265750Y-112488500D01*
X171373250Y-112488500D01*
X171392653Y-112469097D01*
X171579199Y-112391827D01*
X171757000Y-112214025D01*
X171757000Y-112329750D01*
X171915750Y-112488500D01*
X171995810Y-112488500D01*
X172229199Y-112391827D01*
X172383140Y-112237885D01*
X172519500Y-112237885D01*
X172623171Y-112218378D01*
X172719500Y-112237885D01*
X173169500Y-112237885D01*
X173309208Y-112211597D01*
X173437520Y-112129030D01*
X173523601Y-112003047D01*
X173553885Y-111853500D01*
X173553885Y-110103500D01*
X173527597Y-109963792D01*
X173445030Y-109835480D01*
X173319047Y-109749399D01*
X173169500Y-109719115D01*
X172719500Y-109719115D01*
X172615829Y-109738622D01*
X172519500Y-109719115D01*
X172383140Y-109719115D01*
X172229199Y-109565173D01*
X171995810Y-109468500D01*
X171915750Y-109468500D01*
X171757000Y-109627250D01*
X171757000Y-109742975D01*
X171579199Y-109565173D01*
X171392653Y-109487903D01*
X171373250Y-109468500D01*
X171265750Y-109468500D01*
X171246347Y-109487903D01*
X171059801Y-109565173D01*
X170882000Y-109742975D01*
X170882000Y-109627250D01*
X170723250Y-109468500D01*
X170643190Y-109468500D01*
X170409801Y-109565173D01*
X170255860Y-109719115D01*
X170154226Y-109719115D01*
X170148205Y-109688842D01*
X170136669Y-109630847D01*
X170032921Y-109475579D01*
X169000342Y-108443000D01*
X174617015Y-108443000D01*
X174617015Y-109743000D01*
X174643303Y-109882708D01*
X174705096Y-109978737D01*
X174631625Y-110155675D01*
X174631375Y-110442069D01*
X174740742Y-110706758D01*
X174943077Y-110909446D01*
X175207575Y-111019275D01*
X175493969Y-111019525D01*
X175758658Y-110910158D01*
X175961346Y-110707823D01*
X176071175Y-110443325D01*
X176071425Y-110156931D01*
X175997349Y-109977654D01*
X176055501Y-109892547D01*
X176085785Y-109743000D01*
X176085785Y-108443000D01*
X176059497Y-108303292D01*
X175976930Y-108174980D01*
X175850947Y-108088899D01*
X175701400Y-108058615D01*
X175001400Y-108058615D01*
X174861692Y-108084903D01*
X174733380Y-108167470D01*
X174647299Y-108293453D01*
X174617015Y-108443000D01*
X169000342Y-108443000D01*
X168168921Y-107611579D01*
X168013653Y-107507831D01*
X167830500Y-107471400D01*
X161196020Y-107471400D01*
X161012867Y-107507831D01*
X160968203Y-107537675D01*
X160025080Y-107537675D01*
X159885372Y-107563963D01*
X159757060Y-107646530D01*
X159670979Y-107772513D01*
X159640695Y-107922060D01*
X159510305Y-107922060D01*
X159484017Y-107782352D01*
X159401450Y-107654040D01*
X159275467Y-107567959D01*
X159125920Y-107537675D01*
X157927040Y-107537675D01*
X157787332Y-107563963D01*
X157659020Y-107646530D01*
X157572939Y-107772513D01*
X157571523Y-107779505D01*
X157550597Y-107668292D01*
X157468030Y-107539980D01*
X157342047Y-107453899D01*
X157192500Y-107423615D01*
X156492500Y-107423615D01*
X156352792Y-107449903D01*
X156224480Y-107532470D01*
X156138399Y-107658453D01*
X156108115Y-107808000D01*
X155676885Y-107808000D01*
X155650597Y-107668292D01*
X155568030Y-107539980D01*
X155477512Y-107478131D01*
X155549946Y-107405823D01*
X155659775Y-107141325D01*
X155660025Y-106854931D01*
X155550658Y-106590242D01*
X155348323Y-106387554D01*
X155083825Y-106277725D01*
X154797431Y-106277475D01*
X154532742Y-106386842D01*
X154330054Y-106589177D01*
X154220225Y-106853675D01*
X154219975Y-107140069D01*
X154329342Y-107404758D01*
X154405066Y-107480614D01*
X154324480Y-107532470D01*
X154238399Y-107658453D01*
X154208115Y-107808000D01*
X143756026Y-107808000D01*
X143644025Y-107696000D01*
X143802327Y-107537699D01*
X143899000Y-107304310D01*
X143899000Y-107281022D01*
X143905903Y-107317708D01*
X143988470Y-107446020D01*
X144114453Y-107532101D01*
X144264000Y-107562385D01*
X145264000Y-107562385D01*
X145403708Y-107536097D01*
X145532020Y-107453530D01*
X145618101Y-107327547D01*
X145648385Y-107178000D01*
X145648385Y-106778567D01*
X148690323Y-106778567D01*
X148863360Y-107197349D01*
X149183486Y-107518034D01*
X149601965Y-107691802D01*
X150055087Y-107692197D01*
X150473869Y-107519160D01*
X150794554Y-107199034D01*
X150828880Y-107116369D01*
X150862340Y-107197349D01*
X151182466Y-107518034D01*
X151600945Y-107691802D01*
X152054067Y-107692197D01*
X152472849Y-107519160D01*
X152793534Y-107199034D01*
X152967302Y-106780555D01*
X152967697Y-106327433D01*
X152794660Y-105908651D01*
X152474534Y-105587966D01*
X152056055Y-105414198D01*
X151602933Y-105413803D01*
X151184151Y-105586840D01*
X150863466Y-105906966D01*
X150829140Y-105989631D01*
X150795680Y-105908651D01*
X150475554Y-105587966D01*
X150057075Y-105414198D01*
X149785311Y-105413961D01*
X150176888Y-105394362D01*
X150560663Y-105235397D01*
X150630128Y-104993213D01*
X149829520Y-104192605D01*
X149028912Y-104993213D01*
X149098377Y-105235397D01*
X149601400Y-105414858D01*
X149185171Y-105586840D01*
X148864486Y-105906966D01*
X148690718Y-106325445D01*
X148690323Y-106778567D01*
X145648385Y-106778567D01*
X145648385Y-105928000D01*
X145622097Y-105788292D01*
X145539530Y-105659980D01*
X145413547Y-105573899D01*
X145266000Y-105544020D01*
X145266000Y-105276009D01*
X145403708Y-105250097D01*
X145532020Y-105167530D01*
X145618101Y-105041547D01*
X145648385Y-104892000D01*
X145648385Y-104879731D01*
X145906175Y-104986775D01*
X146192569Y-104987025D01*
X146457258Y-104877658D01*
X146659946Y-104675323D01*
X146769775Y-104410825D01*
X146770025Y-104124431D01*
X146660658Y-103859742D01*
X146606313Y-103805302D01*
X148420376Y-103805302D01*
X148448158Y-104360368D01*
X148607123Y-104744143D01*
X148849307Y-104813608D01*
X149649915Y-104013000D01*
X150009125Y-104013000D01*
X150809733Y-104813608D01*
X150971895Y-104767095D01*
X151182466Y-104978034D01*
X151600945Y-105151802D01*
X152054067Y-105152197D01*
X152472849Y-104979160D01*
X152793534Y-104659034D01*
X152967302Y-104240555D01*
X152967697Y-103787433D01*
X152794660Y-103368651D01*
X152474534Y-103047966D01*
X152056055Y-102874198D01*
X151602933Y-102873803D01*
X151184151Y-103046840D01*
X150971756Y-103258865D01*
X150809733Y-103212392D01*
X150009125Y-104013000D01*
X149649915Y-104013000D01*
X148849307Y-103212392D01*
X148607123Y-103281857D01*
X148420376Y-103805302D01*
X146606313Y-103805302D01*
X146458323Y-103657054D01*
X146193825Y-103547225D01*
X145907431Y-103546975D01*
X145648385Y-103654010D01*
X145648385Y-103642000D01*
X145622097Y-103502292D01*
X145539530Y-103373980D01*
X145413547Y-103287899D01*
X145266000Y-103258020D01*
X145266000Y-103032787D01*
X149028912Y-103032787D01*
X149829520Y-103833395D01*
X150630128Y-103032787D01*
X150560663Y-102790603D01*
X150037218Y-102603856D01*
X149482152Y-102631638D01*
X149098377Y-102790603D01*
X149028912Y-103032787D01*
X145266000Y-103032787D01*
X145266000Y-102990009D01*
X145403708Y-102964097D01*
X145532020Y-102881530D01*
X145618101Y-102755547D01*
X145648385Y-102606000D01*
X145648385Y-101425069D01*
X153394475Y-101425069D01*
X153503842Y-101689758D01*
X153706177Y-101892446D01*
X153970675Y-102002275D01*
X154257069Y-102002525D01*
X154282791Y-101991897D01*
X154297903Y-102072208D01*
X154380470Y-102200520D01*
X154504000Y-102284925D01*
X154504000Y-102377813D01*
X154387980Y-102452470D01*
X154301899Y-102578453D01*
X154271615Y-102728000D01*
X154271615Y-104028000D01*
X154297903Y-104167708D01*
X154380470Y-104296020D01*
X154506453Y-104382101D01*
X154656000Y-104412385D01*
X155356000Y-104412385D01*
X155495708Y-104386097D01*
X155624020Y-104303530D01*
X155710101Y-104177547D01*
X155740385Y-104028000D01*
X155740385Y-102728000D01*
X156171615Y-102728000D01*
X156171615Y-104028000D01*
X156197903Y-104167708D01*
X156280470Y-104296020D01*
X156406453Y-104382101D01*
X156556000Y-104412385D01*
X157256000Y-104412385D01*
X157395708Y-104386097D01*
X157524020Y-104303530D01*
X157608921Y-104179275D01*
X157651510Y-104245460D01*
X157777493Y-104331541D01*
X157927040Y-104361825D01*
X159125920Y-104361825D01*
X159265628Y-104335537D01*
X159393940Y-104252970D01*
X159480021Y-104126987D01*
X159510305Y-103977440D01*
X159510305Y-102778560D01*
X159640695Y-102778560D01*
X159640695Y-103977440D01*
X159666983Y-104117148D01*
X159749550Y-104245460D01*
X159875533Y-104331541D01*
X160025080Y-104361825D01*
X161223960Y-104361825D01*
X161363668Y-104335537D01*
X161491980Y-104252970D01*
X161578061Y-104126987D01*
X161608345Y-103977440D01*
X161608345Y-103880000D01*
X162234419Y-103880000D01*
X162342177Y-103987946D01*
X162606675Y-104097775D01*
X162893069Y-104098025D01*
X163157758Y-103988658D01*
X163360446Y-103786323D01*
X163470275Y-103521825D01*
X163470525Y-103235431D01*
X163361158Y-102970742D01*
X163158823Y-102768054D01*
X162894325Y-102658225D01*
X162607931Y-102657975D01*
X162343242Y-102767342D01*
X162234394Y-102876000D01*
X161608345Y-102876000D01*
X161608345Y-102778560D01*
X161582057Y-102638852D01*
X161499490Y-102510540D01*
X161373507Y-102424459D01*
X161223960Y-102394175D01*
X160025080Y-102394175D01*
X159885372Y-102420463D01*
X159757060Y-102503030D01*
X159670979Y-102629013D01*
X159640695Y-102778560D01*
X159510305Y-102778560D01*
X159484017Y-102638852D01*
X159401450Y-102510540D01*
X159275467Y-102424459D01*
X159125920Y-102394175D01*
X157927040Y-102394175D01*
X157787332Y-102420463D01*
X157659020Y-102503030D01*
X157607630Y-102578242D01*
X157531530Y-102459980D01*
X157405547Y-102373899D01*
X157256000Y-102343615D01*
X156556000Y-102343615D01*
X156416292Y-102369903D01*
X156287980Y-102452470D01*
X156201899Y-102578453D01*
X156171615Y-102728000D01*
X155740385Y-102728000D01*
X155714097Y-102588292D01*
X155631530Y-102459980D01*
X155508000Y-102375575D01*
X155508000Y-102282687D01*
X155624020Y-102208030D01*
X155710101Y-102082047D01*
X155740385Y-101932500D01*
X155740385Y-100632500D01*
X156171615Y-100632500D01*
X156171615Y-101932500D01*
X156197903Y-102072208D01*
X156280470Y-102200520D01*
X156406453Y-102286601D01*
X156556000Y-102316885D01*
X157256000Y-102316885D01*
X157395708Y-102290597D01*
X157524020Y-102208030D01*
X157610101Y-102082047D01*
X157627573Y-101995767D01*
X157632443Y-102021648D01*
X157715010Y-102149960D01*
X157840993Y-102236041D01*
X157990540Y-102266325D01*
X159189420Y-102266325D01*
X159329128Y-102240037D01*
X159457440Y-102157470D01*
X159543521Y-102031487D01*
X159573805Y-101881940D01*
X159573805Y-100683060D01*
X159547517Y-100543352D01*
X159464950Y-100415040D01*
X159338967Y-100328959D01*
X159189420Y-100298675D01*
X157990540Y-100298675D01*
X157850832Y-100324963D01*
X157722520Y-100407530D01*
X157636439Y-100533513D01*
X157628830Y-100571089D01*
X157614097Y-100492792D01*
X157531530Y-100364480D01*
X157405547Y-100278399D01*
X157256000Y-100248115D01*
X156556000Y-100248115D01*
X156416292Y-100274403D01*
X156287980Y-100356970D01*
X156201899Y-100482953D01*
X156171615Y-100632500D01*
X155740385Y-100632500D01*
X155714097Y-100492792D01*
X155631530Y-100364480D01*
X155505547Y-100278399D01*
X155356000Y-100248115D01*
X154656000Y-100248115D01*
X154516292Y-100274403D01*
X154387980Y-100356970D01*
X154301899Y-100482953D01*
X154283618Y-100573228D01*
X154258325Y-100562725D01*
X153971931Y-100562475D01*
X153707242Y-100671842D01*
X153504554Y-100874177D01*
X153394725Y-101138675D01*
X153394475Y-101425069D01*
X145648385Y-101425069D01*
X145648385Y-101356000D01*
X145622097Y-101216292D01*
X145539530Y-101087980D01*
X145413547Y-101001899D01*
X145264000Y-100971615D01*
X144264000Y-100971615D01*
X144124292Y-100997903D01*
X143995980Y-101080470D01*
X143909899Y-101206453D01*
X143899000Y-101260274D01*
X143899000Y-101229690D01*
X143802327Y-100996301D01*
X143623698Y-100817673D01*
X143390309Y-100721000D01*
X143049750Y-100721000D01*
X142891000Y-100879750D01*
X142637000Y-100879750D01*
X142478250Y-100721000D01*
X142137691Y-100721000D01*
X141904302Y-100817673D01*
X141725673Y-100996301D01*
X141629000Y-101229690D01*
X137922000Y-101229690D01*
X137922000Y-100689121D01*
X145903504Y-100689121D01*
X146044972Y-100992310D01*
X146781452Y-101277267D01*
X147570920Y-101258694D01*
X148214028Y-100992310D01*
X148355496Y-100689121D01*
X147129500Y-99463125D01*
X145903504Y-100689121D01*
X137922000Y-100689121D01*
X137922000Y-98935472D01*
X145135753Y-98935472D01*
X145154326Y-99724940D01*
X145420710Y-100368048D01*
X145723899Y-100509516D01*
X146949895Y-99283520D01*
X147309105Y-99283520D01*
X148535101Y-100509516D01*
X148838290Y-100368048D01*
X149123247Y-99631568D01*
X149104674Y-98842100D01*
X148852998Y-98234500D01*
X162264515Y-98234500D01*
X162264515Y-100266500D01*
X162290803Y-100406208D01*
X162373370Y-100534520D01*
X162499353Y-100620601D01*
X162648900Y-100650885D01*
X164376100Y-100650885D01*
X164515808Y-100624597D01*
X164644120Y-100542030D01*
X164730201Y-100416047D01*
X164760485Y-100266500D01*
X164760485Y-98234500D01*
X164734197Y-98094792D01*
X164651630Y-97966480D01*
X164525647Y-97880399D01*
X164376100Y-97850115D01*
X162648900Y-97850115D01*
X162509192Y-97876403D01*
X162380880Y-97958970D01*
X162294799Y-98084953D01*
X162264515Y-98234500D01*
X148852998Y-98234500D01*
X148838290Y-98198992D01*
X148535101Y-98057524D01*
X147309105Y-99283520D01*
X146949895Y-99283520D01*
X145723899Y-98057524D01*
X145420710Y-98198992D01*
X145135753Y-98935472D01*
X137922000Y-98935472D01*
X137922000Y-97582000D01*
X146041580Y-97582000D01*
X145903504Y-97877919D01*
X145903504Y-97877919D01*
G37*
X145903504Y-97877919D02*
X147129500Y-99103915D01*
X148355496Y-97877919D01*
X148217420Y-97582000D01*
X186743164Y-97582000D01*
X186348332Y-97976144D01*
X186012393Y-98785175D01*
X186011628Y-99661181D01*
X186346155Y-100470798D01*
X186965044Y-101090768D01*
X187774075Y-101426707D01*
X188650081Y-101427472D01*
X189459698Y-101092945D01*
X190079668Y-100474056D01*
X190415607Y-99665025D01*
X190416372Y-98789019D01*
X190081845Y-97979402D01*
X189685136Y-97582000D01*
X195326000Y-97582000D01*
X195326000Y-105396170D01*
X195255153Y-105348831D01*
X195215429Y-105340929D01*
X195139530Y-105222980D01*
X195040580Y-105155370D01*
X195132020Y-105096530D01*
X195218101Y-104970547D01*
X195248385Y-104821000D01*
X195248385Y-104221000D01*
X195222097Y-104081292D01*
X195139530Y-103952980D01*
X195040580Y-103885370D01*
X195132020Y-103826530D01*
X195218101Y-103700547D01*
X195248385Y-103551000D01*
X195248385Y-102951000D01*
X195222097Y-102811292D01*
X195139530Y-102682980D01*
X195013547Y-102596899D01*
X194864000Y-102566615D01*
X194798430Y-102566615D01*
X194902775Y-102315325D01*
X194903025Y-102028931D01*
X194793658Y-101764242D01*
X194591323Y-101561554D01*
X194326825Y-101451725D01*
X194040431Y-101451475D01*
X193775742Y-101560842D01*
X193573054Y-101763177D01*
X193463225Y-102027675D01*
X193462975Y-102314069D01*
X193567325Y-102566615D01*
X193314000Y-102566615D01*
X193174292Y-102592903D01*
X193045980Y-102675470D01*
X192959899Y-102801453D01*
X192929615Y-102951000D01*
X192929615Y-103551000D01*
X192955903Y-103690708D01*
X193038470Y-103819020D01*
X193137420Y-103886630D01*
X193045980Y-103945470D01*
X192959899Y-104071453D01*
X192929615Y-104221000D01*
X192929615Y-104821000D01*
X192955903Y-104960708D01*
X193038470Y-105089020D01*
X193137420Y-105156630D01*
X193136668Y-105157114D01*
X192929825Y-105071225D01*
X192643431Y-105070975D01*
X192378742Y-105180342D01*
X192176054Y-105382677D01*
X192066225Y-105647175D01*
X192065975Y-105933569D01*
X192175342Y-106198258D01*
X192377677Y-106400946D01*
X192642175Y-106510775D01*
X192928569Y-106511025D01*
X193135687Y-106425446D01*
X193137420Y-106426630D01*
X193045980Y-106485470D01*
X192995739Y-106559000D01*
X192151000Y-106559000D01*
X191958892Y-106597212D01*
X191796032Y-106706032D01*
X190800064Y-107702000D01*
X190579825Y-107702000D01*
X190653258Y-107671658D01*
X190855946Y-107469323D01*
X190965775Y-107204825D01*
X190966025Y-106918431D01*
X190856658Y-106653742D01*
X190654323Y-106451054D01*
X190389825Y-106341225D01*
X190103431Y-106340975D01*
X189838742Y-106450342D01*
X189761628Y-106527321D01*
X189739530Y-106492980D01*
X189640580Y-106425370D01*
X189732020Y-106366530D01*
X189818101Y-106240547D01*
X189848385Y-106091000D01*
X189848385Y-105491000D01*
X189822097Y-105351292D01*
X189739530Y-105222980D01*
X189640580Y-105155370D01*
X189732020Y-105096530D01*
X189818101Y-104970547D01*
X189848385Y-104821000D01*
X189848385Y-104221000D01*
X189823615Y-104089361D01*
X189823698Y-104089327D01*
X190002327Y-103910699D01*
X190099000Y-103677310D01*
X190099000Y-103536750D01*
X189940250Y-103378000D01*
X188816000Y-103378000D01*
X188816000Y-103398000D01*
X188562000Y-103398000D01*
X188562000Y-103378000D01*
X188542000Y-103378000D01*
X188542000Y-103124000D01*
X188562000Y-103124000D01*
X188562000Y-102474750D01*
X188816000Y-102474750D01*
X188816000Y-103124000D01*
X189940250Y-103124000D01*
X190099000Y-102965250D01*
X190099000Y-102824690D01*
X190002327Y-102591301D01*
X189823698Y-102412673D01*
X189590309Y-102316000D01*
X188974750Y-102316000D01*
X188816000Y-102474750D01*
X188562000Y-102474750D01*
X188403250Y-102316000D01*
X187787691Y-102316000D01*
X187554302Y-102412673D01*
X187375673Y-102591301D01*
X187358385Y-102633038D01*
X187358385Y-102474000D01*
X187332097Y-102334292D01*
X187249530Y-102205980D01*
X187123547Y-102119899D01*
X186974000Y-102089615D01*
X186299550Y-102089615D01*
X184565968Y-100356032D01*
X184403107Y-100247212D01*
X184211000Y-100208999D01*
X184210995Y-100209000D01*
X182998955Y-100209000D01*
X182998955Y-99960430D01*
X182972667Y-99820722D01*
X182969628Y-99816000D01*
X183316419Y-99816000D01*
X183424177Y-99923946D01*
X183688675Y-100033775D01*
X183975069Y-100034025D01*
X184239758Y-99924658D01*
X184442446Y-99722323D01*
X184552275Y-99457825D01*
X184552525Y-99171431D01*
X184443158Y-98906742D01*
X184240823Y-98704054D01*
X183976325Y-98594225D01*
X183689931Y-98593975D01*
X183425242Y-98703342D01*
X183316394Y-98812000D01*
X179324000Y-98812000D01*
X179131892Y-98850212D01*
X179074461Y-98888587D01*
X178969032Y-98959032D01*
X178969030Y-98959035D01*
X177401564Y-100526500D01*
X177181306Y-100526500D01*
X177504454Y-100164820D01*
X177697684Y-99612413D01*
X177553424Y-99377500D01*
X176339500Y-99377500D01*
X176339500Y-99397500D01*
X176085500Y-99397500D01*
X176085500Y-99377500D01*
X176065500Y-99377500D01*
X176065500Y-99123500D01*
X176085500Y-99123500D01*
X176085500Y-97764283D01*
X176339500Y-97764283D01*
X176339500Y-99123500D01*
X177553424Y-99123500D01*
X177697684Y-98888587D01*
X177504454Y-98336180D01*
X177114536Y-97899768D01*
X176587291Y-97645791D01*
X176571526Y-97643142D01*
X176339500Y-97764283D01*
X176085500Y-97764283D01*
X175853474Y-97643142D01*
X175837709Y-97645791D01*
X175310464Y-97899768D01*
X174920546Y-98336180D01*
X174822645Y-98616061D01*
X174818665Y-98596053D01*
X174549737Y-98193573D01*
X174147257Y-97924645D01*
X173672500Y-97830210D01*
X173197743Y-97924645D01*
X172795263Y-98193573D01*
X172526335Y-98596053D01*
X172431900Y-99070810D01*
X172431900Y-99430190D01*
X172526335Y-99904947D01*
X172795263Y-100307427D01*
X173123130Y-100526500D01*
X171681870Y-100526500D01*
X172009737Y-100307427D01*
X172278665Y-99904947D01*
X172373100Y-99430190D01*
X172373100Y-99070810D01*
X172278665Y-98596053D01*
X172009737Y-98193573D01*
X171607257Y-97924645D01*
X171132500Y-97830210D01*
X170657743Y-97924645D01*
X170255263Y-98193573D01*
X169986335Y-98596053D01*
X169891900Y-99070810D01*
X169891900Y-99430190D01*
X169930579Y-99624643D01*
X169817011Y-99511075D01*
X169833100Y-99430190D01*
X169833100Y-99070810D01*
X169738665Y-98596053D01*
X169469737Y-98193573D01*
X169067257Y-97924645D01*
X168592500Y-97830210D01*
X168117743Y-97924645D01*
X167715263Y-98193573D01*
X167446335Y-98596053D01*
X167351900Y-99070810D01*
X167351900Y-99430190D01*
X167390579Y-99624644D01*
X167277011Y-99511075D01*
X167293100Y-99430190D01*
X167293100Y-99070810D01*
X167198665Y-98596053D01*
X166929737Y-98193573D01*
X166527257Y-97924645D01*
X166052500Y-97830210D01*
X165577743Y-97924645D01*
X165175263Y-98193573D01*
X164906335Y-98596053D01*
X164811900Y-99070810D01*
X164811900Y-99430190D01*
X164906335Y-99904947D01*
X165175263Y-100307427D01*
X165577743Y-100576355D01*
X166052500Y-100670790D01*
X166527257Y-100576355D01*
X166764140Y-100418075D01*
X167475530Y-101129465D01*
X167475532Y-101129468D01*
X167611933Y-101220608D01*
X167638393Y-101238288D01*
X167830500Y-101276501D01*
X167830505Y-101276500D01*
X168321064Y-101276500D01*
X169314407Y-102269843D01*
X169157000Y-102427250D01*
X169157000Y-102693068D01*
X169115399Y-102753953D01*
X169085115Y-102903500D01*
X169085115Y-104653500D01*
X169111403Y-104793208D01*
X169157000Y-104864067D01*
X169157000Y-105129750D01*
X169315750Y-105288500D01*
X169395810Y-105288500D01*
X169629199Y-105191827D01*
X169673714Y-105147312D01*
X169650725Y-105202675D01*
X169650475Y-105489069D01*
X169672759Y-105543000D01*
X167276435Y-105543000D01*
X166946500Y-105213064D01*
X166946500Y-105037885D01*
X167319500Y-105037885D01*
X167423171Y-105018378D01*
X167519500Y-105037885D01*
X167969500Y-105037885D01*
X168073171Y-105018378D01*
X168169500Y-105037885D01*
X168305860Y-105037885D01*
X168459801Y-105191827D01*
X168693190Y-105288500D01*
X168773250Y-105288500D01*
X168932000Y-105129750D01*
X168932000Y-104863932D01*
X168973601Y-104803047D01*
X169003885Y-104653500D01*
X169003885Y-102903500D01*
X168977597Y-102763792D01*
X168932000Y-102692933D01*
X168932000Y-102427250D01*
X168773250Y-102268500D01*
X168693190Y-102268500D01*
X168459801Y-102365173D01*
X168305860Y-102519115D01*
X168202089Y-102519115D01*
X168099468Y-102365532D01*
X168042392Y-102308456D01*
X168042525Y-102155931D01*
X167933158Y-101891242D01*
X167730823Y-101688554D01*
X167466325Y-101578725D01*
X167179931Y-101578475D01*
X166915242Y-101687842D01*
X166712554Y-101890177D01*
X166602725Y-102154675D01*
X166602683Y-102202248D01*
X165899468Y-101499032D01*
X165736607Y-101390212D01*
X165544500Y-101351999D01*
X165544495Y-101352000D01*
X161671845Y-101352000D01*
X161671845Y-100683060D01*
X161645557Y-100543352D01*
X161562990Y-100415040D01*
X161437007Y-100328959D01*
X161287460Y-100298675D01*
X160088580Y-100298675D01*
X159948872Y-100324963D01*
X159820560Y-100407530D01*
X159734479Y-100533513D01*
X159704195Y-100683060D01*
X159704195Y-101881940D01*
X159730483Y-102021648D01*
X159813050Y-102149960D01*
X159939033Y-102236041D01*
X160088580Y-102266325D01*
X160990392Y-102266325D01*
X161067412Y-102317788D01*
X161259520Y-102356001D01*
X161259525Y-102356000D01*
X165336564Y-102356000D01*
X165510737Y-102530172D01*
X165465829Y-102538622D01*
X165369500Y-102519115D01*
X164919500Y-102519115D01*
X164815829Y-102538622D01*
X164719500Y-102519115D01*
X164269500Y-102519115D01*
X164129792Y-102545403D01*
X164001480Y-102627970D01*
X163915399Y-102753953D01*
X163885115Y-102903500D01*
X163885115Y-104653500D01*
X163911403Y-104793208D01*
X163993970Y-104921520D01*
X164119953Y-105007601D01*
X164269500Y-105037885D01*
X164642500Y-105037885D01*
X164642500Y-105517995D01*
X164642499Y-105518000D01*
X164680712Y-105710107D01*
X164789532Y-105872968D01*
X165237358Y-106320794D01*
X165237225Y-106473319D01*
X165346592Y-106738008D01*
X165548927Y-106940696D01*
X165813425Y-107050525D01*
X166099819Y-107050775D01*
X166364508Y-106941408D01*
X166567196Y-106739073D01*
X166677025Y-106474575D01*
X166677122Y-106363557D01*
X166713530Y-106399965D01*
X166713532Y-106399968D01*
X166789988Y-106451054D01*
X166876392Y-106508788D01*
X167068500Y-106547000D01*
X171386495Y-106547000D01*
X171386500Y-106547001D01*
X171578607Y-106508788D01*
X171741468Y-106399968D01*
X172292935Y-105848500D01*
X174729095Y-105848500D01*
X174729100Y-105848501D01*
X174921207Y-105810288D01*
X174999241Y-105758148D01*
X175001400Y-105758585D01*
X175701400Y-105758585D01*
X175841108Y-105732297D01*
X175969420Y-105649730D01*
X176055501Y-105523747D01*
X176085785Y-105374200D01*
X176085785Y-104074200D01*
X176059497Y-103934492D01*
X175976930Y-103806180D01*
X175907022Y-103758414D01*
X176229935Y-103435500D01*
X176721098Y-103435500D01*
X176699225Y-103488175D01*
X176698991Y-103756450D01*
X176633380Y-103798670D01*
X176547299Y-103924653D01*
X176517015Y-104074200D01*
X176517015Y-105374200D01*
X176543303Y-105513908D01*
X176625870Y-105642220D01*
X176751853Y-105728301D01*
X176901400Y-105758585D01*
X177601400Y-105758585D01*
X177741108Y-105732297D01*
X177869420Y-105649730D01*
X177955501Y-105523747D01*
X177985785Y-105374200D01*
X177985785Y-104083409D01*
X178028946Y-104040323D01*
X178138775Y-103775825D01*
X178138983Y-103537918D01*
X178207030Y-103605965D01*
X178207032Y-103605968D01*
X178283488Y-103657054D01*
X178369893Y-103714788D01*
X178508069Y-103742273D01*
X178368650Y-103881449D01*
X178196627Y-104295729D01*
X178196235Y-104744303D01*
X178367536Y-105158882D01*
X178425808Y-105217256D01*
X176896432Y-106746632D01*
X176787612Y-106909493D01*
X176749399Y-107101600D01*
X176749400Y-107101605D01*
X176749400Y-108092813D01*
X176633380Y-108167470D01*
X176547299Y-108293453D01*
X176517015Y-108443000D01*
X176517015Y-109743000D01*
X176543303Y-109882708D01*
X176625870Y-110011020D01*
X176751853Y-110097101D01*
X176901400Y-110127385D01*
X177601400Y-110127385D01*
X177741108Y-110101097D01*
X177869420Y-110018530D01*
X177955501Y-109892547D01*
X177969320Y-109824303D01*
X178196235Y-109824303D01*
X178367536Y-110238882D01*
X178684449Y-110556350D01*
X179098729Y-110728373D01*
X179547303Y-110728765D01*
X179961882Y-110557464D01*
X180279350Y-110240551D01*
X180451373Y-109826271D01*
X180451765Y-109377697D01*
X180280464Y-108963118D01*
X179963551Y-108645650D01*
X179743562Y-108554303D01*
X180736235Y-108554303D01*
X180907536Y-108968882D01*
X181224449Y-109286350D01*
X181638729Y-109458373D01*
X182087303Y-109458765D01*
X182501882Y-109287464D01*
X182819350Y-108970551D01*
X182991373Y-108556271D01*
X182991765Y-108107697D01*
X182820464Y-107693118D01*
X182503551Y-107375650D01*
X182089271Y-107203627D01*
X181640697Y-107203235D01*
X181226118Y-107374536D01*
X180908650Y-107691449D01*
X180736627Y-108105729D01*
X180736235Y-108554303D01*
X179743562Y-108554303D01*
X179549271Y-108473627D01*
X179100697Y-108473235D01*
X178686118Y-108644536D01*
X178368650Y-108961449D01*
X178196627Y-109375729D01*
X178196235Y-109824303D01*
X177969320Y-109824303D01*
X177985785Y-109743000D01*
X177985785Y-108443000D01*
X177959497Y-108303292D01*
X177876930Y-108174980D01*
X177753400Y-108090575D01*
X177753400Y-108032930D01*
X178531675Y-108032930D01*
X178599735Y-108273931D01*
X179119034Y-108458767D01*
X179669538Y-108430805D01*
X180048265Y-108273931D01*
X180116325Y-108032930D01*
X179324000Y-107240605D01*
X178531675Y-108032930D01*
X177753400Y-108032930D01*
X177753400Y-107309536D01*
X177939800Y-107123136D01*
X177954195Y-107406538D01*
X178111069Y-107785265D01*
X178352070Y-107853325D01*
X179144395Y-107061000D01*
X179503605Y-107061000D01*
X180295930Y-107853325D01*
X180536931Y-107785265D01*
X180721767Y-107265966D01*
X180696217Y-106762930D01*
X181071675Y-106762930D01*
X181139735Y-107003931D01*
X181659034Y-107188767D01*
X182209538Y-107160805D01*
X182373837Y-107092750D01*
X183539000Y-107092750D01*
X183539000Y-107558310D01*
X183635673Y-107791699D01*
X183814302Y-107970327D01*
X184047691Y-108067000D01*
X184388250Y-108067000D01*
X184547000Y-107908250D01*
X184547000Y-106934000D01*
X183697750Y-106934000D01*
X183539000Y-107092750D01*
X182373837Y-107092750D01*
X182588265Y-107003931D01*
X182656325Y-106762930D01*
X181864000Y-105970605D01*
X181071675Y-106762930D01*
X180696217Y-106762930D01*
X180693805Y-106715462D01*
X180536931Y-106336735D01*
X180295930Y-106268675D01*
X179503605Y-107061000D01*
X179144395Y-107061000D01*
X179130253Y-107046858D01*
X179309858Y-106867253D01*
X179324000Y-106881395D01*
X180116325Y-106089070D01*
X180048265Y-105848069D01*
X179528966Y-105663233D01*
X179392786Y-105670150D01*
X179414287Y-105648649D01*
X179547303Y-105648765D01*
X179699123Y-105586034D01*
X180466233Y-105586034D01*
X180494195Y-106136538D01*
X180651069Y-106515265D01*
X180892070Y-106583325D01*
X181684395Y-105791000D01*
X182043605Y-105791000D01*
X182835930Y-106583325D01*
X183076931Y-106515265D01*
X183240509Y-106055690D01*
X183539000Y-106055690D01*
X183539000Y-106521250D01*
X183697750Y-106680000D01*
X184547000Y-106680000D01*
X184547000Y-105705750D01*
X184388250Y-105547000D01*
X184047691Y-105547000D01*
X183814302Y-105643673D01*
X183635673Y-105822301D01*
X183539000Y-106055690D01*
X183240509Y-106055690D01*
X183261767Y-105995966D01*
X183233805Y-105445462D01*
X183076931Y-105066735D01*
X182835930Y-104998675D01*
X182043605Y-105791000D01*
X181684395Y-105791000D01*
X180892070Y-104998675D01*
X180651069Y-105066735D01*
X180466233Y-105586034D01*
X179699123Y-105586034D01*
X179961882Y-105477464D01*
X180279350Y-105160551D01*
X180421144Y-104819070D01*
X181071675Y-104819070D01*
X181864000Y-105611395D01*
X182656325Y-104819070D01*
X182588265Y-104578069D01*
X182068966Y-104393233D01*
X181518462Y-104421195D01*
X181139735Y-104578069D01*
X181071675Y-104819070D01*
X180421144Y-104819070D01*
X180451373Y-104746271D01*
X180451765Y-104297697D01*
X180280464Y-103883118D01*
X180150573Y-103753000D01*
X180851391Y-103753000D01*
X180907536Y-103888882D01*
X181224449Y-104206350D01*
X181638729Y-104378373D01*
X182087303Y-104378765D01*
X182501882Y-104207464D01*
X182819350Y-103890551D01*
X182991373Y-103476271D01*
X182991765Y-103027697D01*
X182820464Y-102613118D01*
X182690573Y-102483000D01*
X183053064Y-102483000D01*
X183989615Y-103419551D01*
X183989615Y-103774000D01*
X184015903Y-103913708D01*
X184098470Y-104042020D01*
X184224453Y-104128101D01*
X184374000Y-104158385D01*
X185048449Y-104158385D01*
X186687680Y-105797615D01*
X186174000Y-105797615D01*
X186034292Y-105823903D01*
X185905980Y-105906470D01*
X185819899Y-106032453D01*
X185809000Y-106086274D01*
X185809000Y-106055690D01*
X185712327Y-105822301D01*
X185533698Y-105643673D01*
X185300309Y-105547000D01*
X184959750Y-105547000D01*
X184801000Y-105705750D01*
X184801000Y-106680000D01*
X184821000Y-106680000D01*
X184821000Y-106934000D01*
X184801000Y-106934000D01*
X184801000Y-107908250D01*
X184959750Y-108067000D01*
X185300309Y-108067000D01*
X185393783Y-108028282D01*
X183016956Y-110405108D01*
X182864431Y-110404975D01*
X182599742Y-110514342D01*
X182397054Y-110716677D01*
X182287225Y-110981175D01*
X182286975Y-111267569D01*
X182396342Y-111532258D01*
X182598677Y-111734946D01*
X182863175Y-111844775D01*
X183149569Y-111845025D01*
X183414258Y-111735658D01*
X183616946Y-111533323D01*
X183726775Y-111268825D01*
X183726909Y-111115027D01*
X186135935Y-108706000D01*
X191007995Y-108706000D01*
X191008000Y-108706001D01*
X191200107Y-108667788D01*
X191362968Y-108558968D01*
X192358936Y-107563000D01*
X192995987Y-107563000D01*
X193038470Y-107629020D01*
X193164453Y-107715101D01*
X193314000Y-107745385D01*
X194864000Y-107745385D01*
X194910900Y-107736560D01*
X194910900Y-108132758D01*
X194339597Y-108704061D01*
X194330922Y-108691078D01*
X194175653Y-108587331D01*
X193992500Y-108550900D01*
X193809348Y-108587331D01*
X193654079Y-108691078D01*
X193651579Y-108693579D01*
X193547831Y-108848847D01*
X193511400Y-109032000D01*
X193547831Y-109215153D01*
X193651579Y-109370421D01*
X193664562Y-109379096D01*
X193651579Y-109392079D01*
X193651555Y-109392115D01*
X193640000Y-109392115D01*
X193500292Y-109418403D01*
X193371980Y-109500970D01*
X193285899Y-109626953D01*
X193255615Y-109776500D01*
X193255615Y-111076500D01*
X193281903Y-111216208D01*
X193364470Y-111344520D01*
X193490453Y-111430601D01*
X193640000Y-111460885D01*
X194340000Y-111460885D01*
X194479708Y-111434597D01*
X194608020Y-111352030D01*
X194694101Y-111226047D01*
X194724385Y-111076500D01*
X194724385Y-109776500D01*
X194707987Y-109689355D01*
X195326000Y-109071342D01*
X195326000Y-112522000D01*
X189900832Y-112522000D01*
X190079668Y-112343476D01*
X190415607Y-111534445D01*
X190416325Y-110712250D01*
X191105000Y-110712250D01*
X191105000Y-111202810D01*
X191201673Y-111436199D01*
X191380302Y-111614827D01*
X191613691Y-111711500D01*
X191804250Y-111711500D01*
X191963000Y-111552750D01*
X191963000Y-110553500D01*
X192217000Y-110553500D01*
X192217000Y-111552750D01*
X192375750Y-111711500D01*
X192566309Y-111711500D01*
X192799698Y-111614827D01*
X192978327Y-111436199D01*
X193075000Y-111202810D01*
X193075000Y-110712250D01*
X192916250Y-110553500D01*
X192217000Y-110553500D01*
X191963000Y-110553500D01*
X191263750Y-110553500D01*
X191105000Y-110712250D01*
X190416325Y-110712250D01*
X190416372Y-110658439D01*
X190081845Y-109848822D01*
X189883560Y-109650190D01*
X191105000Y-109650190D01*
X191105000Y-110140750D01*
X191263750Y-110299500D01*
X191963000Y-110299500D01*
X191963000Y-109300250D01*
X192217000Y-109300250D01*
X192217000Y-110299500D01*
X192916250Y-110299500D01*
X193075000Y-110140750D01*
X193075000Y-109650190D01*
X192978327Y-109416801D01*
X192799698Y-109238173D01*
X192566309Y-109141500D01*
X192375750Y-109141500D01*
X192217000Y-109300250D01*
X191963000Y-109300250D01*
X191804250Y-109141500D01*
X191613691Y-109141500D01*
X191380302Y-109238173D01*
X191201673Y-109416801D01*
X191105000Y-109650190D01*
X189883560Y-109650190D01*
X189462956Y-109228852D01*
X188653925Y-108892913D01*
X187777919Y-108892148D01*
X186968302Y-109226675D01*
X186348332Y-109845564D01*
X186012393Y-110654595D01*
X186011628Y-111530601D01*
X186346155Y-112340218D01*
X186527620Y-112522000D01*
X148548628Y-112522000D01*
X148535103Y-112508475D01*
X148838290Y-112367008D01*
X149123247Y-111630528D01*
X149104674Y-110841060D01*
X148838290Y-110197952D01*
X148535101Y-110056484D01*
X147309105Y-111282480D01*
X147323248Y-111296623D01*
X147143643Y-111476228D01*
X147129500Y-111462085D01*
X147115358Y-111476228D01*
X146935753Y-111296623D01*
X146949895Y-111282480D01*
X145723899Y-110056484D01*
X145420710Y-110197952D01*
X145135753Y-110934432D01*
X145154326Y-111723900D01*
X145420710Y-112367008D01*
X145723897Y-112508475D01*
X145710372Y-112522000D01*
X137922000Y-112522000D01*
X137922000Y-109124750D01*
X141629000Y-109124750D01*
X141629000Y-109590310D01*
X141725673Y-109823699D01*
X141904302Y-110002327D01*
X142137691Y-110099000D01*
X142478250Y-110099000D01*
X142637000Y-109940250D01*
X142637000Y-108966000D01*
X141787750Y-108966000D01*
X141629000Y-109124750D01*
X137922000Y-109124750D01*
X137922000Y-106838750D01*
X141629000Y-106838750D01*
X141629000Y-107304310D01*
X141725673Y-107537699D01*
X141883975Y-107696000D01*
X141725673Y-107854301D01*
X141629000Y-108087690D01*
X141629000Y-108553250D01*
X141787750Y-108712000D01*
X142637000Y-108712000D01*
X142637000Y-107737750D01*
X142595250Y-107696000D01*
X142637000Y-107654250D01*
X142637000Y-106680000D01*
X141787750Y-106680000D01*
X141629000Y-106838750D01*
X137922000Y-106838750D01*
X137922000Y-104552750D01*
X141629000Y-104552750D01*
X141629000Y-105018310D01*
X141725673Y-105251699D01*
X141883975Y-105410000D01*
X141725673Y-105568301D01*
X141629000Y-105801690D01*
X141629000Y-106267250D01*
X141787750Y-106426000D01*
X142637000Y-106426000D01*
X142637000Y-105451750D01*
X142595250Y-105410000D01*
X142637000Y-105368250D01*
X142637000Y-104394000D01*
X141787750Y-104394000D01*
X141629000Y-104552750D01*
X137922000Y-104552750D01*
X137922000Y-102266750D01*
X141629000Y-102266750D01*
X141629000Y-102732310D01*
X141725673Y-102965699D01*
X141883975Y-103124000D01*
X141725673Y-103282301D01*
X141629000Y-103515690D01*
X141629000Y-103981250D01*
X141787750Y-104140000D01*
X142637000Y-104140000D01*
X142637000Y-103165750D01*
X142595250Y-103124000D01*
X142637000Y-103082250D01*
X142637000Y-102108000D01*
X141787750Y-102108000D01*
X141629000Y-102266750D01*
X137922000Y-102266750D01*
X137922000Y-101229690D01*
X141629000Y-101229690D01*
X141629000Y-101695250D01*
X141787750Y-101854000D01*
X142637000Y-101854000D01*
X142637000Y-100879750D01*
X142891000Y-100879750D01*
X142891000Y-101854000D01*
X142911000Y-101854000D01*
X142911000Y-102108000D01*
X142891000Y-102108000D01*
X142891000Y-103082250D01*
X142932750Y-103124000D01*
X142891000Y-103165750D01*
X142891000Y-104140000D01*
X142911000Y-104140000D01*
X142911000Y-104394000D01*
X142891000Y-104394000D01*
X142891000Y-105368250D01*
X142932750Y-105410000D01*
X142891000Y-105451750D01*
X142891000Y-106426000D01*
X142911000Y-106426000D01*
X142911000Y-106680000D01*
X142891000Y-106680000D01*
X142891000Y-107654250D01*
X142932750Y-107696000D01*
X142891000Y-107737750D01*
X142891000Y-108712000D01*
X142911000Y-108712000D01*
X142911000Y-108966000D01*
X142891000Y-108966000D01*
X142891000Y-109940250D01*
X143049750Y-110099000D01*
X143390309Y-110099000D01*
X143623698Y-110002327D01*
X143749146Y-109876879D01*
X145903504Y-109876879D01*
X147129500Y-111102875D01*
X148355496Y-109876879D01*
X148214028Y-109573690D01*
X147477548Y-109288733D01*
X146688080Y-109307306D01*
X146044972Y-109573690D01*
X145903504Y-109876879D01*
X143749146Y-109876879D01*
X143802327Y-109823699D01*
X143899000Y-109590310D01*
X143899000Y-109567022D01*
X143905903Y-109603708D01*
X143988470Y-109732020D01*
X144114453Y-109818101D01*
X144264000Y-109848385D01*
X145264000Y-109848385D01*
X145403708Y-109822097D01*
X145532020Y-109739530D01*
X145618101Y-109613547D01*
X145630975Y-109549972D01*
X145652175Y-109558775D01*
X145938569Y-109559025D01*
X146203258Y-109449658D01*
X146405946Y-109247323D01*
X146515775Y-108982825D01*
X146516025Y-108696431D01*
X146406658Y-108431742D01*
X146204323Y-108229054D01*
X145939825Y-108119225D01*
X145653431Y-108118975D01*
X145632159Y-108127765D01*
X145622097Y-108074292D01*
X145539530Y-107945980D01*
X145413547Y-107859899D01*
X145264000Y-107829615D01*
X144264000Y-107829615D01*
X144124292Y-107855903D01*
X143995980Y-107938470D01*
X143909899Y-108064453D01*
X143899000Y-108118274D01*
X143899000Y-108087690D01*
X143802327Y-107854301D01*
X143756026Y-107808000D01*
X154208115Y-107808000D01*
X154208115Y-109108000D01*
X154234403Y-109247708D01*
X154316970Y-109376020D01*
X154440500Y-109460425D01*
X154440500Y-109680313D01*
X154324480Y-109754970D01*
X154238399Y-109880953D01*
X154208115Y-110030500D01*
X154208115Y-111330500D01*
X154234403Y-111470208D01*
X154316970Y-111598520D01*
X154442953Y-111684601D01*
X154592500Y-111714885D01*
X155292500Y-111714885D01*
X155432208Y-111688597D01*
X155560520Y-111606030D01*
X155646601Y-111480047D01*
X155676885Y-111330500D01*
X155676885Y-110030500D01*
X156108115Y-110030500D01*
X156108115Y-111330500D01*
X156134403Y-111470208D01*
X156216970Y-111598520D01*
X156342953Y-111684601D01*
X156492500Y-111714885D01*
X157192500Y-111714885D01*
X157332208Y-111688597D01*
X157460520Y-111606030D01*
X157546601Y-111480047D01*
X157571033Y-111359396D01*
X157651510Y-111484460D01*
X157777493Y-111570541D01*
X157927040Y-111600825D01*
X159125920Y-111600825D01*
X159265628Y-111574537D01*
X159393940Y-111491970D01*
X159480021Y-111365987D01*
X159510305Y-111216440D01*
X159510305Y-110017560D01*
X159484017Y-109877852D01*
X159401450Y-109749540D01*
X159275467Y-109663459D01*
X159125920Y-109633175D01*
X157927040Y-109633175D01*
X157787332Y-109659463D01*
X157659020Y-109742030D01*
X157572939Y-109868013D01*
X157559136Y-109936174D01*
X157550597Y-109890792D01*
X157468030Y-109762480D01*
X157342047Y-109676399D01*
X157192500Y-109646115D01*
X156492500Y-109646115D01*
X156352792Y-109672403D01*
X156224480Y-109754970D01*
X156138399Y-109880953D01*
X156108115Y-110030500D01*
X155676885Y-110030500D01*
X155650597Y-109890792D01*
X155568030Y-109762480D01*
X155444500Y-109678075D01*
X155444500Y-109458187D01*
X155560520Y-109383530D01*
X155646601Y-109257547D01*
X155676885Y-109108000D01*
X155676885Y-107808000D01*
X156108115Y-107808000D01*
X156108115Y-109108000D01*
X156134403Y-109247708D01*
X156216970Y-109376020D01*
X156342953Y-109462101D01*
X156492500Y-109492385D01*
X157192500Y-109492385D01*
X157332208Y-109466097D01*
X157460520Y-109383530D01*
X157546601Y-109257547D01*
X157557880Y-109201851D01*
X157568943Y-109260648D01*
X157651510Y-109388960D01*
X157777493Y-109475041D01*
X157927040Y-109505325D01*
X159125920Y-109505325D01*
X159265628Y-109479037D01*
X159393940Y-109396470D01*
X159480021Y-109270487D01*
X159510305Y-109120940D01*
X159510305Y-107922060D01*
X159640695Y-107922060D01*
X159640695Y-109120940D01*
X159666983Y-109260648D01*
X159749550Y-109388960D01*
X159875533Y-109475041D01*
X160025080Y-109505325D01*
X161059353Y-109505325D01*
X160931503Y-109633175D01*
X160025080Y-109633175D01*
X159885372Y-109659463D01*
X159757060Y-109742030D01*
X159670979Y-109868013D01*
X159640695Y-110017560D01*
X159640695Y-111216440D01*
X159666983Y-111356148D01*
X159749550Y-111484460D01*
X159875533Y-111570541D01*
X160025080Y-111600825D01*
X161223960Y-111600825D01*
X161363668Y-111574537D01*
X161491980Y-111491970D01*
X161578061Y-111365987D01*
X161608345Y-111216440D01*
X161608345Y-110310017D01*
X163086560Y-108831802D01*
X164324575Y-108831802D01*
X164248242Y-108863342D01*
X164045554Y-109065677D01*
X163935725Y-109330175D01*
X163935475Y-109616569D01*
X164018341Y-109817120D01*
X164001480Y-109827970D01*
X163999049Y-109831528D01*
X163857323Y-109689554D01*
X163592825Y-109579725D01*
X163306431Y-109579475D01*
X163041742Y-109688842D01*
X162839054Y-109891177D01*
X162729225Y-110155675D01*
X162728975Y-110442069D01*
X162838342Y-110706758D01*
X163040677Y-110909446D01*
X163305175Y-111019275D01*
X163458974Y-111019409D01*
X163885115Y-111445550D01*
X163885115Y-111853500D01*
X163911403Y-111993208D01*
X163993970Y-112121520D01*
X164119953Y-112207601D01*
X164269500Y-112237885D01*
X164719500Y-112237885D01*
X164823171Y-112218378D01*
X164919500Y-112237885D01*
X165369500Y-112237885D01*
X165473171Y-112218378D01*
X165569500Y-112237885D01*
X165705860Y-112237885D01*
X165859801Y-112391827D01*
X166093190Y-112488500D01*
X166173250Y-112488500D01*
X166332000Y-112329750D01*
X166332000Y-112063932D01*
X166373601Y-112003047D01*
X166403885Y-111853500D01*
X166403885Y-110831500D01*
X166485115Y-110831500D01*
X166485115Y-111853500D01*
X166511403Y-111993208D01*
X166557000Y-112064067D01*
X166557000Y-112329750D01*
X166715750Y-112488500D01*
X166795810Y-112488500D01*
X167029199Y-112391827D01*
X167183140Y-112237885D01*
X167319500Y-112237885D01*
X167423171Y-112218378D01*
X167519500Y-112237885D01*
X167655860Y-112237885D01*
X167809801Y-112391827D01*
X168043190Y-112488500D01*
X168123250Y-112488500D01*
X168282000Y-112329750D01*
X168282000Y-112063932D01*
X168323601Y-112003047D01*
X168353885Y-111853500D01*
X168353885Y-110831500D01*
X168435115Y-110831500D01*
X168435115Y-111853500D01*
X168461403Y-111993208D01*
X168507000Y-112064067D01*
X168507000Y-112329750D01*
X168665750Y-112488500D01*
X168745810Y-112488500D01*
X168979199Y-112391827D01*
X169133140Y-112237885D01*
X169269500Y-112237885D01*
X169373171Y-112218378D01*
X169469500Y-112237885D01*
X169919500Y-112237885D01*
X170023171Y-112218378D01*
X170119500Y-112237885D01*
X170255860Y-112237885D01*
X170409801Y-112391827D01*
X170643190Y-112488500D01*
X170723250Y-112488500D01*
X170882000Y-112329750D01*
X170882000Y-112214025D01*
X171059801Y-112391827D01*
X171246347Y-112469097D01*
X171265750Y-112488500D01*
X171373250Y-112488500D01*
X171392653Y-112469097D01*
X171579199Y-112391827D01*
X171757000Y-112214025D01*
X171757000Y-112329750D01*
X171915750Y-112488500D01*
X171995810Y-112488500D01*
X172229199Y-112391827D01*
X172383140Y-112237885D01*
X172519500Y-112237885D01*
X172623171Y-112218378D01*
X172719500Y-112237885D01*
X173169500Y-112237885D01*
X173309208Y-112211597D01*
X173437520Y-112129030D01*
X173523601Y-112003047D01*
X173553885Y-111853500D01*
X173553885Y-110103500D01*
X173527597Y-109963792D01*
X173445030Y-109835480D01*
X173319047Y-109749399D01*
X173169500Y-109719115D01*
X172719500Y-109719115D01*
X172615829Y-109738622D01*
X172519500Y-109719115D01*
X172383140Y-109719115D01*
X172229199Y-109565173D01*
X171995810Y-109468500D01*
X171915750Y-109468500D01*
X171757000Y-109627250D01*
X171757000Y-109742975D01*
X171579199Y-109565173D01*
X171392653Y-109487903D01*
X171373250Y-109468500D01*
X171265750Y-109468500D01*
X171246347Y-109487903D01*
X171059801Y-109565173D01*
X170882000Y-109742975D01*
X170882000Y-109627250D01*
X170723250Y-109468500D01*
X170643190Y-109468500D01*
X170409801Y-109565173D01*
X170255860Y-109719115D01*
X170154226Y-109719115D01*
X170148205Y-109688842D01*
X170136669Y-109630847D01*
X170032921Y-109475579D01*
X169000342Y-108443000D01*
X174617015Y-108443000D01*
X174617015Y-109743000D01*
X174643303Y-109882708D01*
X174705096Y-109978737D01*
X174631625Y-110155675D01*
X174631375Y-110442069D01*
X174740742Y-110706758D01*
X174943077Y-110909446D01*
X175207575Y-111019275D01*
X175493969Y-111019525D01*
X175758658Y-110910158D01*
X175961346Y-110707823D01*
X176071175Y-110443325D01*
X176071425Y-110156931D01*
X175997349Y-109977654D01*
X176055501Y-109892547D01*
X176085785Y-109743000D01*
X176085785Y-108443000D01*
X176059497Y-108303292D01*
X175976930Y-108174980D01*
X175850947Y-108088899D01*
X175701400Y-108058615D01*
X175001400Y-108058615D01*
X174861692Y-108084903D01*
X174733380Y-108167470D01*
X174647299Y-108293453D01*
X174617015Y-108443000D01*
X169000342Y-108443000D01*
X168168921Y-107611579D01*
X168013653Y-107507831D01*
X167830500Y-107471400D01*
X161196020Y-107471400D01*
X161012867Y-107507831D01*
X160968203Y-107537675D01*
X160025080Y-107537675D01*
X159885372Y-107563963D01*
X159757060Y-107646530D01*
X159670979Y-107772513D01*
X159640695Y-107922060D01*
X159510305Y-107922060D01*
X159484017Y-107782352D01*
X159401450Y-107654040D01*
X159275467Y-107567959D01*
X159125920Y-107537675D01*
X157927040Y-107537675D01*
X157787332Y-107563963D01*
X157659020Y-107646530D01*
X157572939Y-107772513D01*
X157571523Y-107779505D01*
X157550597Y-107668292D01*
X157468030Y-107539980D01*
X157342047Y-107453899D01*
X157192500Y-107423615D01*
X156492500Y-107423615D01*
X156352792Y-107449903D01*
X156224480Y-107532470D01*
X156138399Y-107658453D01*
X156108115Y-107808000D01*
X155676885Y-107808000D01*
X155650597Y-107668292D01*
X155568030Y-107539980D01*
X155477512Y-107478131D01*
X155549946Y-107405823D01*
X155659775Y-107141325D01*
X155660025Y-106854931D01*
X155550658Y-106590242D01*
X155348323Y-106387554D01*
X155083825Y-106277725D01*
X154797431Y-106277475D01*
X154532742Y-106386842D01*
X154330054Y-106589177D01*
X154220225Y-106853675D01*
X154219975Y-107140069D01*
X154329342Y-107404758D01*
X154405066Y-107480614D01*
X154324480Y-107532470D01*
X154238399Y-107658453D01*
X154208115Y-107808000D01*
X143756026Y-107808000D01*
X143644025Y-107696000D01*
X143802327Y-107537699D01*
X143899000Y-107304310D01*
X143899000Y-107281022D01*
X143905903Y-107317708D01*
X143988470Y-107446020D01*
X144114453Y-107532101D01*
X144264000Y-107562385D01*
X145264000Y-107562385D01*
X145403708Y-107536097D01*
X145532020Y-107453530D01*
X145618101Y-107327547D01*
X145648385Y-107178000D01*
X145648385Y-106778567D01*
X148690323Y-106778567D01*
X148863360Y-107197349D01*
X149183486Y-107518034D01*
X149601965Y-107691802D01*
X150055087Y-107692197D01*
X150473869Y-107519160D01*
X150794554Y-107199034D01*
X150828880Y-107116369D01*
X150862340Y-107197349D01*
X151182466Y-107518034D01*
X151600945Y-107691802D01*
X152054067Y-107692197D01*
X152472849Y-107519160D01*
X152793534Y-107199034D01*
X152967302Y-106780555D01*
X152967697Y-106327433D01*
X152794660Y-105908651D01*
X152474534Y-105587966D01*
X152056055Y-105414198D01*
X151602933Y-105413803D01*
X151184151Y-105586840D01*
X150863466Y-105906966D01*
X150829140Y-105989631D01*
X150795680Y-105908651D01*
X150475554Y-105587966D01*
X150057075Y-105414198D01*
X149785311Y-105413961D01*
X150176888Y-105394362D01*
X150560663Y-105235397D01*
X150630128Y-104993213D01*
X149829520Y-104192605D01*
X149028912Y-104993213D01*
X149098377Y-105235397D01*
X149601400Y-105414858D01*
X149185171Y-105586840D01*
X148864486Y-105906966D01*
X148690718Y-106325445D01*
X148690323Y-106778567D01*
X145648385Y-106778567D01*
X145648385Y-105928000D01*
X145622097Y-105788292D01*
X145539530Y-105659980D01*
X145413547Y-105573899D01*
X145266000Y-105544020D01*
X145266000Y-105276009D01*
X145403708Y-105250097D01*
X145532020Y-105167530D01*
X145618101Y-105041547D01*
X145648385Y-104892000D01*
X145648385Y-104879731D01*
X145906175Y-104986775D01*
X146192569Y-104987025D01*
X146457258Y-104877658D01*
X146659946Y-104675323D01*
X146769775Y-104410825D01*
X146770025Y-104124431D01*
X146660658Y-103859742D01*
X146606313Y-103805302D01*
X148420376Y-103805302D01*
X148448158Y-104360368D01*
X148607123Y-104744143D01*
X148849307Y-104813608D01*
X149649915Y-104013000D01*
X150009125Y-104013000D01*
X150809733Y-104813608D01*
X150971895Y-104767095D01*
X151182466Y-104978034D01*
X151600945Y-105151802D01*
X152054067Y-105152197D01*
X152472849Y-104979160D01*
X152793534Y-104659034D01*
X152967302Y-104240555D01*
X152967697Y-103787433D01*
X152794660Y-103368651D01*
X152474534Y-103047966D01*
X152056055Y-102874198D01*
X151602933Y-102873803D01*
X151184151Y-103046840D01*
X150971756Y-103258865D01*
X150809733Y-103212392D01*
X150009125Y-104013000D01*
X149649915Y-104013000D01*
X148849307Y-103212392D01*
X148607123Y-103281857D01*
X148420376Y-103805302D01*
X146606313Y-103805302D01*
X146458323Y-103657054D01*
X146193825Y-103547225D01*
X145907431Y-103546975D01*
X145648385Y-103654010D01*
X145648385Y-103642000D01*
X145622097Y-103502292D01*
X145539530Y-103373980D01*
X145413547Y-103287899D01*
X145266000Y-103258020D01*
X145266000Y-103032787D01*
X149028912Y-103032787D01*
X149829520Y-103833395D01*
X150630128Y-103032787D01*
X150560663Y-102790603D01*
X150037218Y-102603856D01*
X149482152Y-102631638D01*
X149098377Y-102790603D01*
X149028912Y-103032787D01*
X145266000Y-103032787D01*
X145266000Y-102990009D01*
X145403708Y-102964097D01*
X145532020Y-102881530D01*
X145618101Y-102755547D01*
X145648385Y-102606000D01*
X145648385Y-101425069D01*
X153394475Y-101425069D01*
X153503842Y-101689758D01*
X153706177Y-101892446D01*
X153970675Y-102002275D01*
X154257069Y-102002525D01*
X154282791Y-101991897D01*
X154297903Y-102072208D01*
X154380470Y-102200520D01*
X154504000Y-102284925D01*
X154504000Y-102377813D01*
X154387980Y-102452470D01*
X154301899Y-102578453D01*
X154271615Y-102728000D01*
X154271615Y-104028000D01*
X154297903Y-104167708D01*
X154380470Y-104296020D01*
X154506453Y-104382101D01*
X154656000Y-104412385D01*
X155356000Y-104412385D01*
X155495708Y-104386097D01*
X155624020Y-104303530D01*
X155710101Y-104177547D01*
X155740385Y-104028000D01*
X155740385Y-102728000D01*
X156171615Y-102728000D01*
X156171615Y-104028000D01*
X156197903Y-104167708D01*
X156280470Y-104296020D01*
X156406453Y-104382101D01*
X156556000Y-104412385D01*
X157256000Y-104412385D01*
X157395708Y-104386097D01*
X157524020Y-104303530D01*
X157608921Y-104179275D01*
X157651510Y-104245460D01*
X157777493Y-104331541D01*
X157927040Y-104361825D01*
X159125920Y-104361825D01*
X159265628Y-104335537D01*
X159393940Y-104252970D01*
X159480021Y-104126987D01*
X159510305Y-103977440D01*
X159510305Y-102778560D01*
X159640695Y-102778560D01*
X159640695Y-103977440D01*
X159666983Y-104117148D01*
X159749550Y-104245460D01*
X159875533Y-104331541D01*
X160025080Y-104361825D01*
X161223960Y-104361825D01*
X161363668Y-104335537D01*
X161491980Y-104252970D01*
X161578061Y-104126987D01*
X161608345Y-103977440D01*
X161608345Y-103880000D01*
X162234419Y-103880000D01*
X162342177Y-103987946D01*
X162606675Y-104097775D01*
X162893069Y-104098025D01*
X163157758Y-103988658D01*
X163360446Y-103786323D01*
X163470275Y-103521825D01*
X163470525Y-103235431D01*
X163361158Y-102970742D01*
X163158823Y-102768054D01*
X162894325Y-102658225D01*
X162607931Y-102657975D01*
X162343242Y-102767342D01*
X162234394Y-102876000D01*
X161608345Y-102876000D01*
X161608345Y-102778560D01*
X161582057Y-102638852D01*
X161499490Y-102510540D01*
X161373507Y-102424459D01*
X161223960Y-102394175D01*
X160025080Y-102394175D01*
X159885372Y-102420463D01*
X159757060Y-102503030D01*
X159670979Y-102629013D01*
X159640695Y-102778560D01*
X159510305Y-102778560D01*
X159484017Y-102638852D01*
X159401450Y-102510540D01*
X159275467Y-102424459D01*
X159125920Y-102394175D01*
X157927040Y-102394175D01*
X157787332Y-102420463D01*
X157659020Y-102503030D01*
X157607630Y-102578242D01*
X157531530Y-102459980D01*
X157405547Y-102373899D01*
X157256000Y-102343615D01*
X156556000Y-102343615D01*
X156416292Y-102369903D01*
X156287980Y-102452470D01*
X156201899Y-102578453D01*
X156171615Y-102728000D01*
X155740385Y-102728000D01*
X155714097Y-102588292D01*
X155631530Y-102459980D01*
X155508000Y-102375575D01*
X155508000Y-102282687D01*
X155624020Y-102208030D01*
X155710101Y-102082047D01*
X155740385Y-101932500D01*
X155740385Y-100632500D01*
X156171615Y-100632500D01*
X156171615Y-101932500D01*
X156197903Y-102072208D01*
X156280470Y-102200520D01*
X156406453Y-102286601D01*
X156556000Y-102316885D01*
X157256000Y-102316885D01*
X157395708Y-102290597D01*
X157524020Y-102208030D01*
X157610101Y-102082047D01*
X157627573Y-101995767D01*
X157632443Y-102021648D01*
X157715010Y-102149960D01*
X157840993Y-102236041D01*
X157990540Y-102266325D01*
X159189420Y-102266325D01*
X159329128Y-102240037D01*
X159457440Y-102157470D01*
X159543521Y-102031487D01*
X159573805Y-101881940D01*
X159573805Y-100683060D01*
X159547517Y-100543352D01*
X159464950Y-100415040D01*
X159338967Y-100328959D01*
X159189420Y-100298675D01*
X157990540Y-100298675D01*
X157850832Y-100324963D01*
X157722520Y-100407530D01*
X157636439Y-100533513D01*
X157628830Y-100571089D01*
X157614097Y-100492792D01*
X157531530Y-100364480D01*
X157405547Y-100278399D01*
X157256000Y-100248115D01*
X156556000Y-100248115D01*
X156416292Y-100274403D01*
X156287980Y-100356970D01*
X156201899Y-100482953D01*
X156171615Y-100632500D01*
X155740385Y-100632500D01*
X155714097Y-100492792D01*
X155631530Y-100364480D01*
X155505547Y-100278399D01*
X155356000Y-100248115D01*
X154656000Y-100248115D01*
X154516292Y-100274403D01*
X154387980Y-100356970D01*
X154301899Y-100482953D01*
X154283618Y-100573228D01*
X154258325Y-100562725D01*
X153971931Y-100562475D01*
X153707242Y-100671842D01*
X153504554Y-100874177D01*
X153394725Y-101138675D01*
X153394475Y-101425069D01*
X145648385Y-101425069D01*
X145648385Y-101356000D01*
X145622097Y-101216292D01*
X145539530Y-101087980D01*
X145413547Y-101001899D01*
X145264000Y-100971615D01*
X144264000Y-100971615D01*
X144124292Y-100997903D01*
X143995980Y-101080470D01*
X143909899Y-101206453D01*
X143899000Y-101260274D01*
X143899000Y-101229690D01*
X143802327Y-100996301D01*
X143623698Y-100817673D01*
X143390309Y-100721000D01*
X143049750Y-100721000D01*
X142891000Y-100879750D01*
X142637000Y-100879750D01*
X142478250Y-100721000D01*
X142137691Y-100721000D01*
X141904302Y-100817673D01*
X141725673Y-100996301D01*
X141629000Y-101229690D01*
X137922000Y-101229690D01*
X137922000Y-100689121D01*
X145903504Y-100689121D01*
X146044972Y-100992310D01*
X146781452Y-101277267D01*
X147570920Y-101258694D01*
X148214028Y-100992310D01*
X148355496Y-100689121D01*
X147129500Y-99463125D01*
X145903504Y-100689121D01*
X137922000Y-100689121D01*
X137922000Y-98935472D01*
X145135753Y-98935472D01*
X145154326Y-99724940D01*
X145420710Y-100368048D01*
X145723899Y-100509516D01*
X146949895Y-99283520D01*
X147309105Y-99283520D01*
X148535101Y-100509516D01*
X148838290Y-100368048D01*
X149123247Y-99631568D01*
X149104674Y-98842100D01*
X148852998Y-98234500D01*
X162264515Y-98234500D01*
X162264515Y-100266500D01*
X162290803Y-100406208D01*
X162373370Y-100534520D01*
X162499353Y-100620601D01*
X162648900Y-100650885D01*
X164376100Y-100650885D01*
X164515808Y-100624597D01*
X164644120Y-100542030D01*
X164730201Y-100416047D01*
X164760485Y-100266500D01*
X164760485Y-98234500D01*
X164734197Y-98094792D01*
X164651630Y-97966480D01*
X164525647Y-97880399D01*
X164376100Y-97850115D01*
X162648900Y-97850115D01*
X162509192Y-97876403D01*
X162380880Y-97958970D01*
X162294799Y-98084953D01*
X162264515Y-98234500D01*
X148852998Y-98234500D01*
X148838290Y-98198992D01*
X148535101Y-98057524D01*
X147309105Y-99283520D01*
X146949895Y-99283520D01*
X145723899Y-98057524D01*
X145420710Y-98198992D01*
X145135753Y-98935472D01*
X137922000Y-98935472D01*
X137922000Y-97582000D01*
X146041580Y-97582000D01*
X145903504Y-97877919D01*
M02*
