M48
;DRILL file {KiCad 4.0.2-stable} date Friday, May 27, 2016 'PMt' 10:32:32 PM
;FORMAT={-:-/ absolute / inch / decimal}
FMAT,2
INCH,TZ
T1C0.013
T2C0.032
T3C0.035
T4C0.040
T5C0.091
T6C0.128
%
G90
G05
M72
T1
X2.378Y-1.864
X2.385Y-1.605
X2.595Y-1.3925
X2.7Y-1.8025
X2.7025Y-1.65
X2.7025Y-1.8525
X2.7075Y-1.685
X2.81Y-1.83
X2.81Y-1.9043
X2.84Y-1.39
X2.84Y-1.71
X2.91Y-1.546
X3.1575Y-1.47
X3.4375Y-1.485
T2
X2.0213Y-1.65
X2.0213Y-1.75
X2.1Y-1.65
X2.1Y-1.75
T3
X3.266Y-1.529
X3.266Y-1.629
X3.266Y-1.729
X3.266Y-1.829
X3.366Y-1.579
X3.366Y-1.679
X3.366Y-1.779
X3.366Y-1.879
T4
X2.6425Y-2.0175
X2.7425Y-2.0175
X2.8425Y-2.0175
X2.9425Y-2.0175
X3.0425Y-2.0175
X3.1425Y-2.0175
T5
X1.915Y-1.4638
X1.915Y-1.9362
T6
X3.616Y-1.4702
X3.616Y-1.9375
T0
M30
