G04 #@! TF.FileFunction,Paste,Top*
%FSLAX46Y46*%
G04 Gerber Fmt 4.6, Leading zero omitted, Abs format (unit mm)*
G04 Created by KiCad (PCBNEW 4.0.2-stable) date Sunday, June 19, 2016 'PMt' 07:45:26 PM*
%MOMM*%
G01*
G04 APERTURE LIST*
%ADD10C,0.100000*%
%ADD11R,1.000000X1.250000*%
%ADD12R,1.198880X1.198880*%
%ADD13R,0.700000X1.300000*%
%ADD14R,1.300000X0.700000*%
%ADD15R,1.750000X0.450000*%
%ADD16R,1.550000X0.600000*%
G04 APERTURE END LIST*
D10*
D11*
X59521600Y-49885600D03*
X57521600Y-49885600D03*
X59521600Y-47345600D03*
X57521600Y-47345600D03*
X59521600Y-44805600D03*
X57521600Y-44805600D03*
X59547000Y-42418000D03*
X57547000Y-42418000D03*
X59547000Y-40005000D03*
X57547000Y-40005000D03*
D12*
X68930520Y-37401500D03*
X66832480Y-37401500D03*
X62895480Y-37401500D03*
X64993520Y-37401500D03*
D13*
X66931500Y-35369500D03*
X68831500Y-35369500D03*
X64894500Y-35306000D03*
X62994500Y-35306000D03*
D14*
X73215500Y-40579000D03*
X73215500Y-42479000D03*
X75565000Y-42479000D03*
X75565000Y-40579000D03*
X80581500Y-45532000D03*
X80581500Y-47432000D03*
D15*
X69995600Y-48370200D03*
X69995600Y-47720200D03*
X69995600Y-47070200D03*
X69995600Y-46420200D03*
X69995600Y-45770200D03*
X69995600Y-45120200D03*
X69995600Y-44470200D03*
X69995600Y-43820200D03*
X69995600Y-43170200D03*
X69995600Y-42520200D03*
X69995600Y-41870200D03*
X69995600Y-41220200D03*
X69995600Y-40570200D03*
X69995600Y-39920200D03*
X62795600Y-39920200D03*
X62795600Y-40570200D03*
X62795600Y-41220200D03*
X62795600Y-41870200D03*
X62795600Y-42520200D03*
X62795600Y-43170200D03*
X62795600Y-43820200D03*
X62795600Y-44470200D03*
X62795600Y-45120200D03*
X62795600Y-45770200D03*
X62795600Y-46420200D03*
X62795600Y-47070200D03*
X62795600Y-47720200D03*
X62795600Y-48370200D03*
D16*
X73119000Y-44196000D03*
X73119000Y-45466000D03*
X73119000Y-46736000D03*
X73119000Y-48006000D03*
X78519000Y-48006000D03*
X78519000Y-46736000D03*
X78519000Y-45466000D03*
X78519000Y-44196000D03*
D14*
X80264000Y-40579000D03*
X80264000Y-42479000D03*
D12*
X77119480Y-37338000D03*
X79217520Y-37338000D03*
X75090020Y-37338000D03*
X72991980Y-37338000D03*
D14*
X77914500Y-42479000D03*
X77914500Y-40579000D03*
D13*
X77155000Y-35306000D03*
X79055000Y-35306000D03*
X74927500Y-35306000D03*
X73027500Y-35306000D03*
M02*
