M48
;DRILL file {KiCad 4.0.2-stable} date Monday, July 04, 2016 'AMt' 03:06:35 AM
;FORMAT={-:-/ absolute / inch / decimal}
FMAT,2
INCH,TZ
T1C0.013
T2C0.032
T3C0.035
T4C0.040
T5C0.091
T6C0.128
%
G90
G05
M72
T1
X5.74Y-4.285
X5.75Y-4.105
X6.0675Y-3.9875
X6.1Y-4.2125
X6.4075Y-4.07
X6.435Y-4.3425
X6.4825Y-4.31
X6.5275Y-4.31
X6.5337Y-4.1863
X6.5875Y-4.0275
X6.605Y-4.3125
X6.7075Y-4.1475
X6.7325Y-4.0225
X6.9036Y-4.3425
X6.985Y-4.08
X7.205Y-4.375
X7.2375Y-3.91
X7.49Y-4.215
X7.59Y-4.165
X7.645Y-4.0225
T2
X5.8988Y-4.095
X5.8988Y-4.195
X5.9775Y-4.095
X5.9775Y-4.195
T3
X7.06Y-4.015
X7.06Y-4.115
X7.06Y-4.215
X7.06Y-4.315
X7.16Y-3.965
X7.16Y-4.065
X7.16Y-4.165
X7.16Y-4.265
T4
X6.4375Y-3.9075
X6.5375Y-3.9075
X6.6375Y-3.9075
X6.7375Y-3.9075
X6.8375Y-3.9075
X6.9375Y-3.9075
T5
X5.7925Y-3.9088
X5.7925Y-4.3812
T6
X7.41Y-3.9065
X7.41Y-4.3738
T0
M30
