G04 #@! TF.FileFunction,Copper,L2,Bot,Signal*
%FSLAX46Y46*%
G04 Gerber Fmt 4.6, Leading zero omitted, Abs format (unit mm)*
G04 Created by KiCad (PCBNEW 4.0.2-stable) date Monday, July 04, 2016 'AMt' 03:06:25 AM*
%MOMM*%
G01*
G04 APERTURE LIST*
%ADD10C,0.100000*%
%ADD11C,3.649980*%
%ADD12R,1.501140X1.501140*%
%ADD13C,1.501140*%
%ADD14C,1.524000*%
%ADD15C,2.700020*%
%ADD16R,1.727200X2.032000*%
%ADD17O,1.727200X2.032000*%
%ADD18C,0.685800*%
%ADD19C,0.203200*%
%ADD20C,0.250000*%
%ADD21C,0.254000*%
G04 APERTURE END LIST*
D10*
D11*
X188214000Y-111094520D03*
X188214000Y-99225100D03*
D12*
X181864000Y-100711000D03*
D13*
X179324000Y-101981000D03*
X181864000Y-103251000D03*
X179324000Y-104521000D03*
X181864000Y-105791000D03*
X179324000Y-107061000D03*
X181864000Y-108331000D03*
X179324000Y-109601000D03*
D14*
X151828500Y-106553000D03*
X151828500Y-104013000D03*
X149829520Y-104013000D03*
X149829520Y-106553000D03*
D15*
X147129500Y-111282480D03*
X147129500Y-99283520D03*
D16*
X163512500Y-99250500D03*
D17*
X166052500Y-99250500D03*
X168592500Y-99250500D03*
X171132500Y-99250500D03*
X173672500Y-99250500D03*
X176212500Y-99250500D03*
D18*
X190246000Y-107061000D03*
X177419000Y-103632000D03*
X175351400Y-110299500D03*
X167767000Y-109537500D03*
X154940000Y-106997500D03*
X146050000Y-104267000D03*
X154114500Y-101282500D03*
X171005500Y-102171500D03*
X165798500Y-109474000D03*
X145796000Y-108839000D03*
X162750500Y-103378000D03*
X167322500Y-102298500D03*
X164655500Y-109474000D03*
X163449000Y-110299500D03*
X183007000Y-111125000D03*
X170370500Y-105346500D03*
X194183000Y-102171500D03*
X183832500Y-99314000D03*
X192786000Y-105791000D03*
X165957250Y-106330750D03*
D19*
X175351400Y-110299500D02*
X175323500Y-110299500D01*
D20*
X165798500Y-109474000D02*
X163893500Y-111379000D01*
X163893500Y-111379000D02*
X150812500Y-111379000D01*
X150812500Y-111379000D02*
X148272500Y-108839000D01*
X148272500Y-108839000D02*
X145796000Y-108839000D01*
X162750500Y-103378000D02*
X163830000Y-102298500D01*
X167322500Y-102298500D02*
X163830000Y-102298500D01*
X170815000Y-104521000D02*
X179324000Y-104521000D01*
X168592500Y-102298500D02*
X170815000Y-104521000D01*
X167322500Y-102298500D02*
X168592500Y-102298500D01*
X154749500Y-109474000D02*
X164655500Y-109474000D01*
X154749500Y-109474000D02*
X151828500Y-106553000D01*
X149829520Y-107538520D02*
X152590500Y-110299500D01*
X152590500Y-110299500D02*
X163449000Y-110299500D01*
X149829520Y-107538520D02*
X149829520Y-106553000D01*
X149829520Y-106553000D02*
X149829520Y-106649520D01*
X183007000Y-111125000D02*
X173672500Y-111125000D01*
X173672500Y-111125000D02*
X170370500Y-107823000D01*
X170370500Y-107823000D02*
X170370500Y-105346500D01*
X194183000Y-102171500D02*
X193802000Y-101790500D01*
X193802000Y-101790500D02*
X186309000Y-101790500D01*
X186309000Y-101790500D02*
X183832500Y-99314000D01*
D19*
X165957250Y-106330750D02*
X165989000Y-106362500D01*
D20*
X171704000Y-112077500D02*
X183451500Y-112077500D01*
X165989000Y-106362500D02*
X171704000Y-112077500D01*
X189738000Y-105791000D02*
X192786000Y-105791000D01*
X183451500Y-112077500D02*
X189738000Y-105791000D01*
D21*
G36*
X146152506Y-97818579D02*
X145666266Y-98303970D01*
X145402791Y-98938489D01*
X145402191Y-99625536D01*
X145664559Y-100260514D01*
X146149950Y-100746754D01*
X146784469Y-101010229D01*
X147471516Y-101010829D01*
X148106494Y-100748461D01*
X148592734Y-100263070D01*
X148856209Y-99628551D01*
X148856809Y-98941504D01*
X148594441Y-98306526D01*
X148522541Y-98234500D01*
X162264515Y-98234500D01*
X162264515Y-100266500D01*
X162290803Y-100406208D01*
X162373370Y-100534520D01*
X162499353Y-100620601D01*
X162648900Y-100650885D01*
X164376100Y-100650885D01*
X164515808Y-100624597D01*
X164644120Y-100542030D01*
X164730201Y-100416047D01*
X164760485Y-100266500D01*
X164760485Y-99070810D01*
X164811900Y-99070810D01*
X164811900Y-99430190D01*
X164906335Y-99904947D01*
X165175263Y-100307427D01*
X165577743Y-100576355D01*
X166052500Y-100670790D01*
X166527257Y-100576355D01*
X166929737Y-100307427D01*
X167198665Y-99904947D01*
X167293100Y-99430190D01*
X167293100Y-99070810D01*
X167351900Y-99070810D01*
X167351900Y-99430190D01*
X167446335Y-99904947D01*
X167715263Y-100307427D01*
X168117743Y-100576355D01*
X168592500Y-100670790D01*
X169067257Y-100576355D01*
X169469737Y-100307427D01*
X169738665Y-99904947D01*
X169742645Y-99884939D01*
X169840546Y-100164820D01*
X170230464Y-100601232D01*
X170757709Y-100855209D01*
X170773474Y-100857858D01*
X171005500Y-100736717D01*
X171005500Y-99377500D01*
X170985500Y-99377500D01*
X170985500Y-99123500D01*
X171005500Y-99123500D01*
X171005500Y-97764283D01*
X171259500Y-97764283D01*
X171259500Y-99123500D01*
X171279500Y-99123500D01*
X171279500Y-99377500D01*
X171259500Y-99377500D01*
X171259500Y-100736717D01*
X171491526Y-100857858D01*
X171507291Y-100855209D01*
X172034536Y-100601232D01*
X172424454Y-100164820D01*
X172522355Y-99884939D01*
X172526335Y-99904947D01*
X172795263Y-100307427D01*
X173197743Y-100576355D01*
X173672500Y-100670790D01*
X174147257Y-100576355D01*
X174549737Y-100307427D01*
X174818665Y-99904947D01*
X174913100Y-99430190D01*
X174913100Y-99070810D01*
X174971900Y-99070810D01*
X174971900Y-99430190D01*
X175066335Y-99904947D01*
X175335263Y-100307427D01*
X175737743Y-100576355D01*
X176212500Y-100670790D01*
X176687257Y-100576355D01*
X177089737Y-100307427D01*
X177321592Y-99960430D01*
X180729045Y-99960430D01*
X180729045Y-101461570D01*
X180755333Y-101601278D01*
X180837900Y-101729590D01*
X180963883Y-101815671D01*
X181113430Y-101845955D01*
X182614570Y-101845955D01*
X182754278Y-101819667D01*
X182882590Y-101737100D01*
X182968671Y-101611117D01*
X182998955Y-101461570D01*
X182998955Y-99960430D01*
X182972667Y-99820722D01*
X182890100Y-99692410D01*
X182764117Y-99606329D01*
X182614570Y-99576045D01*
X181113430Y-99576045D01*
X180973722Y-99602333D01*
X180845410Y-99684900D01*
X180759329Y-99810883D01*
X180729045Y-99960430D01*
X177321592Y-99960430D01*
X177358665Y-99904947D01*
X177453100Y-99430190D01*
X177453100Y-99070810D01*
X177358665Y-98596053D01*
X177089737Y-98193573D01*
X176687257Y-97924645D01*
X176212500Y-97830210D01*
X175737743Y-97924645D01*
X175335263Y-98193573D01*
X175066335Y-98596053D01*
X174971900Y-99070810D01*
X174913100Y-99070810D01*
X174818665Y-98596053D01*
X174549737Y-98193573D01*
X174147257Y-97924645D01*
X173672500Y-97830210D01*
X173197743Y-97924645D01*
X172795263Y-98193573D01*
X172526335Y-98596053D01*
X172522355Y-98616061D01*
X172424454Y-98336180D01*
X172034536Y-97899768D01*
X171507291Y-97645791D01*
X171491526Y-97643142D01*
X171259500Y-97764283D01*
X171005500Y-97764283D01*
X170773474Y-97643142D01*
X170757709Y-97645791D01*
X170230464Y-97899768D01*
X169840546Y-98336180D01*
X169742645Y-98616061D01*
X169738665Y-98596053D01*
X169469737Y-98193573D01*
X169067257Y-97924645D01*
X168592500Y-97830210D01*
X168117743Y-97924645D01*
X167715263Y-98193573D01*
X167446335Y-98596053D01*
X167351900Y-99070810D01*
X167293100Y-99070810D01*
X167198665Y-98596053D01*
X166929737Y-98193573D01*
X166527257Y-97924645D01*
X166052500Y-97830210D01*
X165577743Y-97924645D01*
X165175263Y-98193573D01*
X164906335Y-98596053D01*
X164811900Y-99070810D01*
X164760485Y-99070810D01*
X164760485Y-98234500D01*
X164734197Y-98094792D01*
X164651630Y-97966480D01*
X164525647Y-97880399D01*
X164376100Y-97850115D01*
X162648900Y-97850115D01*
X162509192Y-97876403D01*
X162380880Y-97958970D01*
X162294799Y-98084953D01*
X162264515Y-98234500D01*
X148522541Y-98234500D01*
X148109050Y-97820286D01*
X147535193Y-97582000D01*
X186743164Y-97582000D01*
X186348332Y-97976144D01*
X186012393Y-98785175D01*
X186011628Y-99661181D01*
X186346155Y-100470798D01*
X186965044Y-101090768D01*
X187441236Y-101288500D01*
X186516936Y-101288500D01*
X184552392Y-99323956D01*
X184552525Y-99171431D01*
X184443158Y-98906742D01*
X184240823Y-98704054D01*
X183976325Y-98594225D01*
X183689931Y-98593975D01*
X183425242Y-98703342D01*
X183222554Y-98905677D01*
X183112725Y-99170175D01*
X183112475Y-99456569D01*
X183221842Y-99721258D01*
X183424177Y-99923946D01*
X183688675Y-100033775D01*
X183842473Y-100033909D01*
X185954032Y-102145468D01*
X186116893Y-102254288D01*
X186309000Y-102292501D01*
X186309005Y-102292500D01*
X193462994Y-102292500D01*
X193462975Y-102314069D01*
X193572342Y-102578758D01*
X193774677Y-102781446D01*
X194039175Y-102891275D01*
X194325569Y-102891525D01*
X194590258Y-102782158D01*
X194792946Y-102579823D01*
X194902775Y-102315325D01*
X194903025Y-102028931D01*
X194793658Y-101764242D01*
X194591323Y-101561554D01*
X194326825Y-101451725D01*
X194173027Y-101451591D01*
X194156968Y-101435532D01*
X193994107Y-101326712D01*
X193802000Y-101288499D01*
X193801995Y-101288500D01*
X188986419Y-101288500D01*
X189459698Y-101092945D01*
X190079668Y-100474056D01*
X190415607Y-99665025D01*
X190416372Y-98789019D01*
X190081845Y-97979402D01*
X189685136Y-97582000D01*
X195326000Y-97582000D01*
X195326000Y-112522000D01*
X189900832Y-112522000D01*
X190079668Y-112343476D01*
X190415607Y-111534445D01*
X190416372Y-110658439D01*
X190081845Y-109848822D01*
X189462956Y-109228852D01*
X188653925Y-108892913D01*
X187777919Y-108892148D01*
X187043213Y-109195722D01*
X189945935Y-106293000D01*
X192269919Y-106293000D01*
X192377677Y-106400946D01*
X192642175Y-106510775D01*
X192928569Y-106511025D01*
X193193258Y-106401658D01*
X193395946Y-106199323D01*
X193505775Y-105934825D01*
X193506025Y-105648431D01*
X193396658Y-105383742D01*
X193194323Y-105181054D01*
X192929825Y-105071225D01*
X192643431Y-105070975D01*
X192378742Y-105180342D01*
X192269894Y-105289000D01*
X189738005Y-105289000D01*
X189738000Y-105288999D01*
X189545893Y-105327212D01*
X189383032Y-105436032D01*
X189383030Y-105436035D01*
X183726929Y-111092135D01*
X183727025Y-110982431D01*
X183617658Y-110717742D01*
X183415323Y-110515054D01*
X183150825Y-110405225D01*
X182864431Y-110404975D01*
X182599742Y-110514342D01*
X182490894Y-110623000D01*
X179803273Y-110623000D01*
X179961882Y-110557464D01*
X180279350Y-110240551D01*
X180451373Y-109826271D01*
X180451765Y-109377697D01*
X180280464Y-108963118D01*
X179963551Y-108645650D01*
X179743562Y-108554303D01*
X180736235Y-108554303D01*
X180907536Y-108968882D01*
X181224449Y-109286350D01*
X181638729Y-109458373D01*
X182087303Y-109458765D01*
X182501882Y-109287464D01*
X182819350Y-108970551D01*
X182991373Y-108556271D01*
X182991765Y-108107697D01*
X182820464Y-107693118D01*
X182503551Y-107375650D01*
X182089271Y-107203627D01*
X181640697Y-107203235D01*
X181226118Y-107374536D01*
X180908650Y-107691449D01*
X180736627Y-108105729D01*
X180736235Y-108554303D01*
X179743562Y-108554303D01*
X179549271Y-108473627D01*
X179100697Y-108473235D01*
X178686118Y-108644536D01*
X178368650Y-108961449D01*
X178196627Y-109375729D01*
X178196235Y-109824303D01*
X178367536Y-110238882D01*
X178684449Y-110556350D01*
X178844961Y-110623000D01*
X173880435Y-110623000D01*
X170872500Y-107615064D01*
X170872500Y-107284303D01*
X178196235Y-107284303D01*
X178367536Y-107698882D01*
X178684449Y-108016350D01*
X179098729Y-108188373D01*
X179547303Y-108188765D01*
X179961882Y-108017464D01*
X180279350Y-107700551D01*
X180451373Y-107286271D01*
X180451765Y-106837697D01*
X180280464Y-106423118D01*
X179963551Y-106105650D01*
X179743562Y-106014303D01*
X180736235Y-106014303D01*
X180907536Y-106428882D01*
X181224449Y-106746350D01*
X181638729Y-106918373D01*
X182087303Y-106918765D01*
X182501882Y-106747464D01*
X182819350Y-106430551D01*
X182991373Y-106016271D01*
X182991765Y-105567697D01*
X182820464Y-105153118D01*
X182503551Y-104835650D01*
X182089271Y-104663627D01*
X181640697Y-104663235D01*
X181226118Y-104834536D01*
X180908650Y-105151449D01*
X180736627Y-105565729D01*
X180736235Y-106014303D01*
X179743562Y-106014303D01*
X179549271Y-105933627D01*
X179100697Y-105933235D01*
X178686118Y-106104536D01*
X178368650Y-106421449D01*
X178196627Y-106835729D01*
X178196235Y-107284303D01*
X170872500Y-107284303D01*
X170872500Y-105862581D01*
X170980446Y-105754823D01*
X171090275Y-105490325D01*
X171090525Y-105203931D01*
X171015766Y-105023000D01*
X178311391Y-105023000D01*
X178367536Y-105158882D01*
X178684449Y-105476350D01*
X179098729Y-105648373D01*
X179547303Y-105648765D01*
X179961882Y-105477464D01*
X180279350Y-105160551D01*
X180451373Y-104746271D01*
X180451765Y-104297697D01*
X180280464Y-103883118D01*
X179963551Y-103565650D01*
X179743562Y-103474303D01*
X180736235Y-103474303D01*
X180907536Y-103888882D01*
X181224449Y-104206350D01*
X181638729Y-104378373D01*
X182087303Y-104378765D01*
X182501882Y-104207464D01*
X182819350Y-103890551D01*
X182991373Y-103476271D01*
X182991765Y-103027697D01*
X182820464Y-102613118D01*
X182503551Y-102295650D01*
X182089271Y-102123627D01*
X181640697Y-102123235D01*
X181226118Y-102294536D01*
X180908650Y-102611449D01*
X180736627Y-103025729D01*
X180736235Y-103474303D01*
X179743562Y-103474303D01*
X179549271Y-103393627D01*
X179100697Y-103393235D01*
X178686118Y-103564536D01*
X178368650Y-103881449D01*
X178311534Y-104019000D01*
X171022935Y-104019000D01*
X169208239Y-102204303D01*
X178196235Y-102204303D01*
X178367536Y-102618882D01*
X178684449Y-102936350D01*
X179098729Y-103108373D01*
X179547303Y-103108765D01*
X179961882Y-102937464D01*
X180279350Y-102620551D01*
X180451373Y-102206271D01*
X180451765Y-101757697D01*
X180280464Y-101343118D01*
X179963551Y-101025650D01*
X179549271Y-100853627D01*
X179100697Y-100853235D01*
X178686118Y-101024536D01*
X178368650Y-101341449D01*
X178196627Y-101755729D01*
X178196235Y-102204303D01*
X169208239Y-102204303D01*
X168947468Y-101943532D01*
X168784607Y-101834712D01*
X168592500Y-101796499D01*
X168592495Y-101796500D01*
X167838581Y-101796500D01*
X167730823Y-101688554D01*
X167466325Y-101578725D01*
X167179931Y-101578475D01*
X166915242Y-101687842D01*
X166806394Y-101796500D01*
X163830005Y-101796500D01*
X163830000Y-101796499D01*
X163637893Y-101834712D01*
X163475032Y-101943532D01*
X163475030Y-101943535D01*
X162760456Y-102658108D01*
X162607931Y-102657975D01*
X162343242Y-102767342D01*
X162140554Y-102969677D01*
X162030725Y-103234175D01*
X162030475Y-103520569D01*
X162139842Y-103785258D01*
X162342177Y-103987946D01*
X162606675Y-104097775D01*
X162893069Y-104098025D01*
X163157758Y-103988658D01*
X163360446Y-103786323D01*
X163470275Y-103521825D01*
X163470409Y-103368026D01*
X164037935Y-102800500D01*
X166806419Y-102800500D01*
X166914177Y-102908446D01*
X167178675Y-103018275D01*
X167465069Y-103018525D01*
X167729758Y-102909158D01*
X167838606Y-102800500D01*
X168384564Y-102800500D01*
X170215625Y-104631560D01*
X169963242Y-104735842D01*
X169760554Y-104938177D01*
X169650725Y-105202675D01*
X169650475Y-105489069D01*
X169759842Y-105753758D01*
X169868500Y-105862606D01*
X169868500Y-107822995D01*
X169868499Y-107823000D01*
X169906712Y-108015107D01*
X170015532Y-108177968D01*
X173317530Y-111479965D01*
X173317532Y-111479968D01*
X173393310Y-111530601D01*
X173460505Y-111575500D01*
X171911935Y-111575500D01*
X166677142Y-106340706D01*
X166677275Y-106188181D01*
X166567908Y-105923492D01*
X166365573Y-105720804D01*
X166101075Y-105610975D01*
X165814681Y-105610725D01*
X165549992Y-105720092D01*
X165347304Y-105922427D01*
X165237475Y-106186925D01*
X165237225Y-106473319D01*
X165346592Y-106738008D01*
X165548927Y-106940696D01*
X165813425Y-107050525D01*
X165967223Y-107050659D01*
X171349030Y-112432465D01*
X171349032Y-112432468D01*
X171483026Y-112522000D01*
X148332310Y-112522000D01*
X148592734Y-112262030D01*
X148856209Y-111627511D01*
X148856809Y-110940464D01*
X148594441Y-110305486D01*
X148109050Y-109819246D01*
X147474531Y-109555771D01*
X146787484Y-109555171D01*
X146152506Y-109817539D01*
X145666266Y-110302930D01*
X145402791Y-110937449D01*
X145402191Y-111624496D01*
X145664559Y-112259474D01*
X145926626Y-112522000D01*
X137922000Y-112522000D01*
X137922000Y-108981569D01*
X145075975Y-108981569D01*
X145185342Y-109246258D01*
X145387677Y-109448946D01*
X145652175Y-109558775D01*
X145938569Y-109559025D01*
X146203258Y-109449658D01*
X146312106Y-109341000D01*
X148064564Y-109341000D01*
X150457530Y-111733965D01*
X150457532Y-111733968D01*
X150620393Y-111842788D01*
X150812500Y-111881000D01*
X163893495Y-111881000D01*
X163893500Y-111881001D01*
X164085607Y-111842788D01*
X164248468Y-111733968D01*
X165788543Y-110193892D01*
X165941069Y-110194025D01*
X166205758Y-110084658D01*
X166408446Y-109882323D01*
X166518275Y-109617825D01*
X166518525Y-109331431D01*
X166409158Y-109066742D01*
X166206823Y-108864054D01*
X165942325Y-108754225D01*
X165655931Y-108753975D01*
X165391242Y-108863342D01*
X165226891Y-109027407D01*
X165063823Y-108864054D01*
X164799325Y-108754225D01*
X164512931Y-108753975D01*
X164248242Y-108863342D01*
X164139394Y-108972000D01*
X154957435Y-108972000D01*
X152908236Y-106922801D01*
X152967302Y-106780555D01*
X152967697Y-106327433D01*
X152794660Y-105908651D01*
X152474534Y-105587966D01*
X152056055Y-105414198D01*
X151784291Y-105413961D01*
X152175868Y-105394362D01*
X152559643Y-105235397D01*
X152629108Y-104993213D01*
X151828500Y-104192605D01*
X151027892Y-104993213D01*
X151097357Y-105235397D01*
X151600380Y-105414858D01*
X151184151Y-105586840D01*
X150863466Y-105906966D01*
X150829140Y-105989631D01*
X150795680Y-105908651D01*
X150475554Y-105587966D01*
X150057075Y-105414198D01*
X149603953Y-105413803D01*
X149185171Y-105586840D01*
X148864486Y-105906966D01*
X148690718Y-106325445D01*
X148690323Y-106778567D01*
X148863360Y-107197349D01*
X149183486Y-107518034D01*
X149336045Y-107581382D01*
X149365732Y-107730627D01*
X149474552Y-107893488D01*
X152235530Y-110654465D01*
X152235532Y-110654468D01*
X152313790Y-110706758D01*
X152398392Y-110763288D01*
X152590500Y-110801500D01*
X162932919Y-110801500D01*
X163008288Y-110877000D01*
X151020435Y-110877000D01*
X148627468Y-108484032D01*
X148464607Y-108375212D01*
X148272500Y-108336999D01*
X148272495Y-108337000D01*
X146312081Y-108337000D01*
X146204323Y-108229054D01*
X145939825Y-108119225D01*
X145653431Y-108118975D01*
X145388742Y-108228342D01*
X145186054Y-108430677D01*
X145076225Y-108695175D01*
X145075975Y-108981569D01*
X137922000Y-108981569D01*
X137922000Y-104238567D01*
X148690323Y-104238567D01*
X148863360Y-104657349D01*
X149183486Y-104978034D01*
X149601965Y-105151802D01*
X150055087Y-105152197D01*
X150473869Y-104979160D01*
X150686264Y-104767135D01*
X150848287Y-104813608D01*
X151648895Y-104013000D01*
X152008105Y-104013000D01*
X152808713Y-104813608D01*
X153050897Y-104744143D01*
X153237644Y-104220698D01*
X153209862Y-103665632D01*
X153050897Y-103281857D01*
X152808713Y-103212392D01*
X152008105Y-104013000D01*
X151648895Y-104013000D01*
X150848287Y-103212392D01*
X150686125Y-103258905D01*
X150475554Y-103047966D01*
X150438999Y-103032787D01*
X151027892Y-103032787D01*
X151828500Y-103833395D01*
X152629108Y-103032787D01*
X152559643Y-102790603D01*
X152036198Y-102603856D01*
X151481132Y-102631638D01*
X151097357Y-102790603D01*
X151027892Y-103032787D01*
X150438999Y-103032787D01*
X150057075Y-102874198D01*
X149603953Y-102873803D01*
X149185171Y-103046840D01*
X148864486Y-103366966D01*
X148690718Y-103785445D01*
X148690323Y-104238567D01*
X137922000Y-104238567D01*
X137922000Y-97582000D01*
X146725070Y-97582000D01*
X146152506Y-97818579D01*
X146152506Y-97818579D01*
G37*
X146152506Y-97818579D02*
X145666266Y-98303970D01*
X145402791Y-98938489D01*
X145402191Y-99625536D01*
X145664559Y-100260514D01*
X146149950Y-100746754D01*
X146784469Y-101010229D01*
X147471516Y-101010829D01*
X148106494Y-100748461D01*
X148592734Y-100263070D01*
X148856209Y-99628551D01*
X148856809Y-98941504D01*
X148594441Y-98306526D01*
X148522541Y-98234500D01*
X162264515Y-98234500D01*
X162264515Y-100266500D01*
X162290803Y-100406208D01*
X162373370Y-100534520D01*
X162499353Y-100620601D01*
X162648900Y-100650885D01*
X164376100Y-100650885D01*
X164515808Y-100624597D01*
X164644120Y-100542030D01*
X164730201Y-100416047D01*
X164760485Y-100266500D01*
X164760485Y-99070810D01*
X164811900Y-99070810D01*
X164811900Y-99430190D01*
X164906335Y-99904947D01*
X165175263Y-100307427D01*
X165577743Y-100576355D01*
X166052500Y-100670790D01*
X166527257Y-100576355D01*
X166929737Y-100307427D01*
X167198665Y-99904947D01*
X167293100Y-99430190D01*
X167293100Y-99070810D01*
X167351900Y-99070810D01*
X167351900Y-99430190D01*
X167446335Y-99904947D01*
X167715263Y-100307427D01*
X168117743Y-100576355D01*
X168592500Y-100670790D01*
X169067257Y-100576355D01*
X169469737Y-100307427D01*
X169738665Y-99904947D01*
X169742645Y-99884939D01*
X169840546Y-100164820D01*
X170230464Y-100601232D01*
X170757709Y-100855209D01*
X170773474Y-100857858D01*
X171005500Y-100736717D01*
X171005500Y-99377500D01*
X170985500Y-99377500D01*
X170985500Y-99123500D01*
X171005500Y-99123500D01*
X171005500Y-97764283D01*
X171259500Y-97764283D01*
X171259500Y-99123500D01*
X171279500Y-99123500D01*
X171279500Y-99377500D01*
X171259500Y-99377500D01*
X171259500Y-100736717D01*
X171491526Y-100857858D01*
X171507291Y-100855209D01*
X172034536Y-100601232D01*
X172424454Y-100164820D01*
X172522355Y-99884939D01*
X172526335Y-99904947D01*
X172795263Y-100307427D01*
X173197743Y-100576355D01*
X173672500Y-100670790D01*
X174147257Y-100576355D01*
X174549737Y-100307427D01*
X174818665Y-99904947D01*
X174913100Y-99430190D01*
X174913100Y-99070810D01*
X174971900Y-99070810D01*
X174971900Y-99430190D01*
X175066335Y-99904947D01*
X175335263Y-100307427D01*
X175737743Y-100576355D01*
X176212500Y-100670790D01*
X176687257Y-100576355D01*
X177089737Y-100307427D01*
X177321592Y-99960430D01*
X180729045Y-99960430D01*
X180729045Y-101461570D01*
X180755333Y-101601278D01*
X180837900Y-101729590D01*
X180963883Y-101815671D01*
X181113430Y-101845955D01*
X182614570Y-101845955D01*
X182754278Y-101819667D01*
X182882590Y-101737100D01*
X182968671Y-101611117D01*
X182998955Y-101461570D01*
X182998955Y-99960430D01*
X182972667Y-99820722D01*
X182890100Y-99692410D01*
X182764117Y-99606329D01*
X182614570Y-99576045D01*
X181113430Y-99576045D01*
X180973722Y-99602333D01*
X180845410Y-99684900D01*
X180759329Y-99810883D01*
X180729045Y-99960430D01*
X177321592Y-99960430D01*
X177358665Y-99904947D01*
X177453100Y-99430190D01*
X177453100Y-99070810D01*
X177358665Y-98596053D01*
X177089737Y-98193573D01*
X176687257Y-97924645D01*
X176212500Y-97830210D01*
X175737743Y-97924645D01*
X175335263Y-98193573D01*
X175066335Y-98596053D01*
X174971900Y-99070810D01*
X174913100Y-99070810D01*
X174818665Y-98596053D01*
X174549737Y-98193573D01*
X174147257Y-97924645D01*
X173672500Y-97830210D01*
X173197743Y-97924645D01*
X172795263Y-98193573D01*
X172526335Y-98596053D01*
X172522355Y-98616061D01*
X172424454Y-98336180D01*
X172034536Y-97899768D01*
X171507291Y-97645791D01*
X171491526Y-97643142D01*
X171259500Y-97764283D01*
X171005500Y-97764283D01*
X170773474Y-97643142D01*
X170757709Y-97645791D01*
X170230464Y-97899768D01*
X169840546Y-98336180D01*
X169742645Y-98616061D01*
X169738665Y-98596053D01*
X169469737Y-98193573D01*
X169067257Y-97924645D01*
X168592500Y-97830210D01*
X168117743Y-97924645D01*
X167715263Y-98193573D01*
X167446335Y-98596053D01*
X167351900Y-99070810D01*
X167293100Y-99070810D01*
X167198665Y-98596053D01*
X166929737Y-98193573D01*
X166527257Y-97924645D01*
X166052500Y-97830210D01*
X165577743Y-97924645D01*
X165175263Y-98193573D01*
X164906335Y-98596053D01*
X164811900Y-99070810D01*
X164760485Y-99070810D01*
X164760485Y-98234500D01*
X164734197Y-98094792D01*
X164651630Y-97966480D01*
X164525647Y-97880399D01*
X164376100Y-97850115D01*
X162648900Y-97850115D01*
X162509192Y-97876403D01*
X162380880Y-97958970D01*
X162294799Y-98084953D01*
X162264515Y-98234500D01*
X148522541Y-98234500D01*
X148109050Y-97820286D01*
X147535193Y-97582000D01*
X186743164Y-97582000D01*
X186348332Y-97976144D01*
X186012393Y-98785175D01*
X186011628Y-99661181D01*
X186346155Y-100470798D01*
X186965044Y-101090768D01*
X187441236Y-101288500D01*
X186516936Y-101288500D01*
X184552392Y-99323956D01*
X184552525Y-99171431D01*
X184443158Y-98906742D01*
X184240823Y-98704054D01*
X183976325Y-98594225D01*
X183689931Y-98593975D01*
X183425242Y-98703342D01*
X183222554Y-98905677D01*
X183112725Y-99170175D01*
X183112475Y-99456569D01*
X183221842Y-99721258D01*
X183424177Y-99923946D01*
X183688675Y-100033775D01*
X183842473Y-100033909D01*
X185954032Y-102145468D01*
X186116893Y-102254288D01*
X186309000Y-102292501D01*
X186309005Y-102292500D01*
X193462994Y-102292500D01*
X193462975Y-102314069D01*
X193572342Y-102578758D01*
X193774677Y-102781446D01*
X194039175Y-102891275D01*
X194325569Y-102891525D01*
X194590258Y-102782158D01*
X194792946Y-102579823D01*
X194902775Y-102315325D01*
X194903025Y-102028931D01*
X194793658Y-101764242D01*
X194591323Y-101561554D01*
X194326825Y-101451725D01*
X194173027Y-101451591D01*
X194156968Y-101435532D01*
X193994107Y-101326712D01*
X193802000Y-101288499D01*
X193801995Y-101288500D01*
X188986419Y-101288500D01*
X189459698Y-101092945D01*
X190079668Y-100474056D01*
X190415607Y-99665025D01*
X190416372Y-98789019D01*
X190081845Y-97979402D01*
X189685136Y-97582000D01*
X195326000Y-97582000D01*
X195326000Y-112522000D01*
X189900832Y-112522000D01*
X190079668Y-112343476D01*
X190415607Y-111534445D01*
X190416372Y-110658439D01*
X190081845Y-109848822D01*
X189462956Y-109228852D01*
X188653925Y-108892913D01*
X187777919Y-108892148D01*
X187043213Y-109195722D01*
X189945935Y-106293000D01*
X192269919Y-106293000D01*
X192377677Y-106400946D01*
X192642175Y-106510775D01*
X192928569Y-106511025D01*
X193193258Y-106401658D01*
X193395946Y-106199323D01*
X193505775Y-105934825D01*
X193506025Y-105648431D01*
X193396658Y-105383742D01*
X193194323Y-105181054D01*
X192929825Y-105071225D01*
X192643431Y-105070975D01*
X192378742Y-105180342D01*
X192269894Y-105289000D01*
X189738005Y-105289000D01*
X189738000Y-105288999D01*
X189545893Y-105327212D01*
X189383032Y-105436032D01*
X189383030Y-105436035D01*
X183726929Y-111092135D01*
X183727025Y-110982431D01*
X183617658Y-110717742D01*
X183415323Y-110515054D01*
X183150825Y-110405225D01*
X182864431Y-110404975D01*
X182599742Y-110514342D01*
X182490894Y-110623000D01*
X179803273Y-110623000D01*
X179961882Y-110557464D01*
X180279350Y-110240551D01*
X180451373Y-109826271D01*
X180451765Y-109377697D01*
X180280464Y-108963118D01*
X179963551Y-108645650D01*
X179743562Y-108554303D01*
X180736235Y-108554303D01*
X180907536Y-108968882D01*
X181224449Y-109286350D01*
X181638729Y-109458373D01*
X182087303Y-109458765D01*
X182501882Y-109287464D01*
X182819350Y-108970551D01*
X182991373Y-108556271D01*
X182991765Y-108107697D01*
X182820464Y-107693118D01*
X182503551Y-107375650D01*
X182089271Y-107203627D01*
X181640697Y-107203235D01*
X181226118Y-107374536D01*
X180908650Y-107691449D01*
X180736627Y-108105729D01*
X180736235Y-108554303D01*
X179743562Y-108554303D01*
X179549271Y-108473627D01*
X179100697Y-108473235D01*
X178686118Y-108644536D01*
X178368650Y-108961449D01*
X178196627Y-109375729D01*
X178196235Y-109824303D01*
X178367536Y-110238882D01*
X178684449Y-110556350D01*
X178844961Y-110623000D01*
X173880435Y-110623000D01*
X170872500Y-107615064D01*
X170872500Y-107284303D01*
X178196235Y-107284303D01*
X178367536Y-107698882D01*
X178684449Y-108016350D01*
X179098729Y-108188373D01*
X179547303Y-108188765D01*
X179961882Y-108017464D01*
X180279350Y-107700551D01*
X180451373Y-107286271D01*
X180451765Y-106837697D01*
X180280464Y-106423118D01*
X179963551Y-106105650D01*
X179743562Y-106014303D01*
X180736235Y-106014303D01*
X180907536Y-106428882D01*
X181224449Y-106746350D01*
X181638729Y-106918373D01*
X182087303Y-106918765D01*
X182501882Y-106747464D01*
X182819350Y-106430551D01*
X182991373Y-106016271D01*
X182991765Y-105567697D01*
X182820464Y-105153118D01*
X182503551Y-104835650D01*
X182089271Y-104663627D01*
X181640697Y-104663235D01*
X181226118Y-104834536D01*
X180908650Y-105151449D01*
X180736627Y-105565729D01*
X180736235Y-106014303D01*
X179743562Y-106014303D01*
X179549271Y-105933627D01*
X179100697Y-105933235D01*
X178686118Y-106104536D01*
X178368650Y-106421449D01*
X178196627Y-106835729D01*
X178196235Y-107284303D01*
X170872500Y-107284303D01*
X170872500Y-105862581D01*
X170980446Y-105754823D01*
X171090275Y-105490325D01*
X171090525Y-105203931D01*
X171015766Y-105023000D01*
X178311391Y-105023000D01*
X178367536Y-105158882D01*
X178684449Y-105476350D01*
X179098729Y-105648373D01*
X179547303Y-105648765D01*
X179961882Y-105477464D01*
X180279350Y-105160551D01*
X180451373Y-104746271D01*
X180451765Y-104297697D01*
X180280464Y-103883118D01*
X179963551Y-103565650D01*
X179743562Y-103474303D01*
X180736235Y-103474303D01*
X180907536Y-103888882D01*
X181224449Y-104206350D01*
X181638729Y-104378373D01*
X182087303Y-104378765D01*
X182501882Y-104207464D01*
X182819350Y-103890551D01*
X182991373Y-103476271D01*
X182991765Y-103027697D01*
X182820464Y-102613118D01*
X182503551Y-102295650D01*
X182089271Y-102123627D01*
X181640697Y-102123235D01*
X181226118Y-102294536D01*
X180908650Y-102611449D01*
X180736627Y-103025729D01*
X180736235Y-103474303D01*
X179743562Y-103474303D01*
X179549271Y-103393627D01*
X179100697Y-103393235D01*
X178686118Y-103564536D01*
X178368650Y-103881449D01*
X178311534Y-104019000D01*
X171022935Y-104019000D01*
X169208239Y-102204303D01*
X178196235Y-102204303D01*
X178367536Y-102618882D01*
X178684449Y-102936350D01*
X179098729Y-103108373D01*
X179547303Y-103108765D01*
X179961882Y-102937464D01*
X180279350Y-102620551D01*
X180451373Y-102206271D01*
X180451765Y-101757697D01*
X180280464Y-101343118D01*
X179963551Y-101025650D01*
X179549271Y-100853627D01*
X179100697Y-100853235D01*
X178686118Y-101024536D01*
X178368650Y-101341449D01*
X178196627Y-101755729D01*
X178196235Y-102204303D01*
X169208239Y-102204303D01*
X168947468Y-101943532D01*
X168784607Y-101834712D01*
X168592500Y-101796499D01*
X168592495Y-101796500D01*
X167838581Y-101796500D01*
X167730823Y-101688554D01*
X167466325Y-101578725D01*
X167179931Y-101578475D01*
X166915242Y-101687842D01*
X166806394Y-101796500D01*
X163830005Y-101796500D01*
X163830000Y-101796499D01*
X163637893Y-101834712D01*
X163475032Y-101943532D01*
X163475030Y-101943535D01*
X162760456Y-102658108D01*
X162607931Y-102657975D01*
X162343242Y-102767342D01*
X162140554Y-102969677D01*
X162030725Y-103234175D01*
X162030475Y-103520569D01*
X162139842Y-103785258D01*
X162342177Y-103987946D01*
X162606675Y-104097775D01*
X162893069Y-104098025D01*
X163157758Y-103988658D01*
X163360446Y-103786323D01*
X163470275Y-103521825D01*
X163470409Y-103368026D01*
X164037935Y-102800500D01*
X166806419Y-102800500D01*
X166914177Y-102908446D01*
X167178675Y-103018275D01*
X167465069Y-103018525D01*
X167729758Y-102909158D01*
X167838606Y-102800500D01*
X168384564Y-102800500D01*
X170215625Y-104631560D01*
X169963242Y-104735842D01*
X169760554Y-104938177D01*
X169650725Y-105202675D01*
X169650475Y-105489069D01*
X169759842Y-105753758D01*
X169868500Y-105862606D01*
X169868500Y-107822995D01*
X169868499Y-107823000D01*
X169906712Y-108015107D01*
X170015532Y-108177968D01*
X173317530Y-111479965D01*
X173317532Y-111479968D01*
X173393310Y-111530601D01*
X173460505Y-111575500D01*
X171911935Y-111575500D01*
X166677142Y-106340706D01*
X166677275Y-106188181D01*
X166567908Y-105923492D01*
X166365573Y-105720804D01*
X166101075Y-105610975D01*
X165814681Y-105610725D01*
X165549992Y-105720092D01*
X165347304Y-105922427D01*
X165237475Y-106186925D01*
X165237225Y-106473319D01*
X165346592Y-106738008D01*
X165548927Y-106940696D01*
X165813425Y-107050525D01*
X165967223Y-107050659D01*
X171349030Y-112432465D01*
X171349032Y-112432468D01*
X171483026Y-112522000D01*
X148332310Y-112522000D01*
X148592734Y-112262030D01*
X148856209Y-111627511D01*
X148856809Y-110940464D01*
X148594441Y-110305486D01*
X148109050Y-109819246D01*
X147474531Y-109555771D01*
X146787484Y-109555171D01*
X146152506Y-109817539D01*
X145666266Y-110302930D01*
X145402791Y-110937449D01*
X145402191Y-111624496D01*
X145664559Y-112259474D01*
X145926626Y-112522000D01*
X137922000Y-112522000D01*
X137922000Y-108981569D01*
X145075975Y-108981569D01*
X145185342Y-109246258D01*
X145387677Y-109448946D01*
X145652175Y-109558775D01*
X145938569Y-109559025D01*
X146203258Y-109449658D01*
X146312106Y-109341000D01*
X148064564Y-109341000D01*
X150457530Y-111733965D01*
X150457532Y-111733968D01*
X150620393Y-111842788D01*
X150812500Y-111881000D01*
X163893495Y-111881000D01*
X163893500Y-111881001D01*
X164085607Y-111842788D01*
X164248468Y-111733968D01*
X165788543Y-110193892D01*
X165941069Y-110194025D01*
X166205758Y-110084658D01*
X166408446Y-109882323D01*
X166518275Y-109617825D01*
X166518525Y-109331431D01*
X166409158Y-109066742D01*
X166206823Y-108864054D01*
X165942325Y-108754225D01*
X165655931Y-108753975D01*
X165391242Y-108863342D01*
X165226891Y-109027407D01*
X165063823Y-108864054D01*
X164799325Y-108754225D01*
X164512931Y-108753975D01*
X164248242Y-108863342D01*
X164139394Y-108972000D01*
X154957435Y-108972000D01*
X152908236Y-106922801D01*
X152967302Y-106780555D01*
X152967697Y-106327433D01*
X152794660Y-105908651D01*
X152474534Y-105587966D01*
X152056055Y-105414198D01*
X151784291Y-105413961D01*
X152175868Y-105394362D01*
X152559643Y-105235397D01*
X152629108Y-104993213D01*
X151828500Y-104192605D01*
X151027892Y-104993213D01*
X151097357Y-105235397D01*
X151600380Y-105414858D01*
X151184151Y-105586840D01*
X150863466Y-105906966D01*
X150829140Y-105989631D01*
X150795680Y-105908651D01*
X150475554Y-105587966D01*
X150057075Y-105414198D01*
X149603953Y-105413803D01*
X149185171Y-105586840D01*
X148864486Y-105906966D01*
X148690718Y-106325445D01*
X148690323Y-106778567D01*
X148863360Y-107197349D01*
X149183486Y-107518034D01*
X149336045Y-107581382D01*
X149365732Y-107730627D01*
X149474552Y-107893488D01*
X152235530Y-110654465D01*
X152235532Y-110654468D01*
X152313790Y-110706758D01*
X152398392Y-110763288D01*
X152590500Y-110801500D01*
X162932919Y-110801500D01*
X163008288Y-110877000D01*
X151020435Y-110877000D01*
X148627468Y-108484032D01*
X148464607Y-108375212D01*
X148272500Y-108336999D01*
X148272495Y-108337000D01*
X146312081Y-108337000D01*
X146204323Y-108229054D01*
X145939825Y-108119225D01*
X145653431Y-108118975D01*
X145388742Y-108228342D01*
X145186054Y-108430677D01*
X145076225Y-108695175D01*
X145075975Y-108981569D01*
X137922000Y-108981569D01*
X137922000Y-104238567D01*
X148690323Y-104238567D01*
X148863360Y-104657349D01*
X149183486Y-104978034D01*
X149601965Y-105151802D01*
X150055087Y-105152197D01*
X150473869Y-104979160D01*
X150686264Y-104767135D01*
X150848287Y-104813608D01*
X151648895Y-104013000D01*
X152008105Y-104013000D01*
X152808713Y-104813608D01*
X153050897Y-104744143D01*
X153237644Y-104220698D01*
X153209862Y-103665632D01*
X153050897Y-103281857D01*
X152808713Y-103212392D01*
X152008105Y-104013000D01*
X151648895Y-104013000D01*
X150848287Y-103212392D01*
X150686125Y-103258905D01*
X150475554Y-103047966D01*
X150438999Y-103032787D01*
X151027892Y-103032787D01*
X151828500Y-103833395D01*
X152629108Y-103032787D01*
X152559643Y-102790603D01*
X152036198Y-102603856D01*
X151481132Y-102631638D01*
X151097357Y-102790603D01*
X151027892Y-103032787D01*
X150438999Y-103032787D01*
X150057075Y-102874198D01*
X149603953Y-102873803D01*
X149185171Y-103046840D01*
X148864486Y-103366966D01*
X148690718Y-103785445D01*
X148690323Y-104238567D01*
X137922000Y-104238567D01*
X137922000Y-97582000D01*
X146725070Y-97582000D01*
X146152506Y-97818579D01*
M02*
