G04 #@! TF.FileFunction,Copper,L2,Bot,Signal*
%FSLAX46Y46*%
G04 Gerber Fmt 4.6, Leading zero omitted, Abs format (unit mm)*
G04 Created by KiCad (PCBNEW 4.0.2-stable) date Wednesday, September 28, 2016 'PMt' 10:14:20 PM*
%MOMM*%
G01*
G04 APERTURE LIST*
%ADD10C,0.100000*%
%ADD11C,3.649980*%
%ADD12R,1.501140X1.501140*%
%ADD13C,1.501140*%
%ADD14C,1.524000*%
%ADD15C,2.700020*%
%ADD16C,0.685800*%
%ADD17C,0.152400*%
%ADD18C,0.250000*%
%ADD19C,0.203200*%
%ADD20C,0.254000*%
G04 APERTURE END LIST*
D10*
D11*
X188214000Y-111094520D03*
X188214000Y-99225100D03*
D12*
X181864000Y-100711000D03*
D13*
X179324000Y-101981000D03*
X181864000Y-103251000D03*
X179324000Y-104521000D03*
X181864000Y-105791000D03*
X179324000Y-107061000D03*
X181864000Y-108331000D03*
X179324000Y-109601000D03*
D14*
X151828500Y-106553000D03*
X151828500Y-104013000D03*
X149829520Y-104013000D03*
X149829520Y-106553000D03*
D15*
X147129500Y-111282480D03*
X147129500Y-99283520D03*
D16*
X155007000Y-102344000D03*
X155007000Y-109744000D03*
X166091688Y-103859114D03*
X173237602Y-107152149D03*
X177482000Y-102644000D03*
X177482000Y-106644000D03*
X190246000Y-107061000D03*
X146050000Y-104267000D03*
X161632000Y-101294000D03*
X174782000Y-105594000D03*
X173382000Y-101294000D03*
X192832000Y-102094000D03*
X193982000Y-102394000D03*
X173482000Y-109144000D03*
D17*
X161632000Y-101294000D02*
X165932000Y-105594000D01*
X165932000Y-105594000D02*
X174782000Y-105594000D01*
X181864000Y-103251000D02*
X181864000Y-104312466D01*
X181864000Y-104312466D02*
X180582466Y-105594000D01*
X180582466Y-105594000D02*
X174782000Y-105594000D01*
D18*
X149829520Y-106553000D02*
X149829520Y-106649520D01*
D17*
X192832000Y-102094000D02*
X180660174Y-102094000D01*
X180660174Y-102094000D02*
X179794003Y-102960171D01*
X179794003Y-102960171D02*
X178853997Y-102960171D01*
X178853997Y-102960171D02*
X177187826Y-101294000D01*
X177187826Y-101294000D02*
X173382000Y-101294000D01*
X193982000Y-102394000D02*
X189605829Y-106770171D01*
X181105829Y-106770171D02*
X179254171Y-108621829D01*
X189605829Y-106770171D02*
X181105829Y-106770171D01*
X174004171Y-108621829D02*
X173824899Y-108801101D01*
X179254171Y-108621829D02*
X174004171Y-108621829D01*
X173824899Y-108801101D02*
X173482000Y-109144000D01*
D19*
X193834429Y-102246429D02*
X193982000Y-102394000D01*
D20*
G36*
X146152506Y-97818579D02*
X145666266Y-98303970D01*
X145402791Y-98938489D01*
X145402191Y-99625536D01*
X145664559Y-100260514D01*
X146149950Y-100746754D01*
X146784469Y-101010229D01*
X147471516Y-101010829D01*
X148106494Y-100748461D01*
X148592734Y-100263070D01*
X148856209Y-99628551D01*
X148856809Y-98941504D01*
X148594441Y-98306526D01*
X148109050Y-97820286D01*
X147535193Y-97582000D01*
X186743164Y-97582000D01*
X186348332Y-97976144D01*
X186012393Y-98785175D01*
X186011628Y-99661181D01*
X186346155Y-100470798D01*
X186965044Y-101090768D01*
X187774075Y-101426707D01*
X188650081Y-101427472D01*
X189459698Y-101092945D01*
X190079668Y-100474056D01*
X190415607Y-99665025D01*
X190416372Y-98789019D01*
X190081845Y-97979402D01*
X189685136Y-97582000D01*
X195326000Y-97582000D01*
X195326000Y-112522000D01*
X189900832Y-112522000D01*
X190079668Y-112343476D01*
X190415607Y-111534445D01*
X190416372Y-110658439D01*
X190081845Y-109848822D01*
X189462956Y-109228852D01*
X188653925Y-108892913D01*
X187777919Y-108892148D01*
X186968302Y-109226675D01*
X186348332Y-109845564D01*
X186012393Y-110654595D01*
X186011628Y-111530601D01*
X186346155Y-112340218D01*
X186527620Y-112522000D01*
X148332310Y-112522000D01*
X148592734Y-112262030D01*
X148856209Y-111627511D01*
X148856809Y-110940464D01*
X148594441Y-110305486D01*
X148109050Y-109819246D01*
X147474531Y-109555771D01*
X146787484Y-109555171D01*
X146152506Y-109817539D01*
X145666266Y-110302930D01*
X145402791Y-110937449D01*
X145402191Y-111624496D01*
X145664559Y-112259474D01*
X145926626Y-112522000D01*
X137922000Y-112522000D01*
X137922000Y-106778567D01*
X148690323Y-106778567D01*
X148863360Y-107197349D01*
X149183486Y-107518034D01*
X149601965Y-107691802D01*
X150055087Y-107692197D01*
X150473869Y-107519160D01*
X150794554Y-107199034D01*
X150828880Y-107116369D01*
X150862340Y-107197349D01*
X151182466Y-107518034D01*
X151600945Y-107691802D01*
X152054067Y-107692197D01*
X152472849Y-107519160D01*
X152793534Y-107199034D01*
X152967302Y-106780555D01*
X152967697Y-106327433D01*
X152794660Y-105908651D01*
X152474534Y-105587966D01*
X152056055Y-105414198D01*
X151784291Y-105413961D01*
X152175868Y-105394362D01*
X152559643Y-105235397D01*
X152629108Y-104993213D01*
X151828500Y-104192605D01*
X151027892Y-104993213D01*
X151097357Y-105235397D01*
X151600380Y-105414858D01*
X151184151Y-105586840D01*
X150863466Y-105906966D01*
X150829140Y-105989631D01*
X150795680Y-105908651D01*
X150475554Y-105587966D01*
X150057075Y-105414198D01*
X149603953Y-105413803D01*
X149185171Y-105586840D01*
X148864486Y-105906966D01*
X148690718Y-106325445D01*
X148690323Y-106778567D01*
X137922000Y-106778567D01*
X137922000Y-104238567D01*
X148690323Y-104238567D01*
X148863360Y-104657349D01*
X149183486Y-104978034D01*
X149601965Y-105151802D01*
X150055087Y-105152197D01*
X150473869Y-104979160D01*
X150686264Y-104767135D01*
X150848287Y-104813608D01*
X151648895Y-104013000D01*
X152008105Y-104013000D01*
X152808713Y-104813608D01*
X153050897Y-104744143D01*
X153237644Y-104220698D01*
X153209862Y-103665632D01*
X153050897Y-103281857D01*
X152808713Y-103212392D01*
X152008105Y-104013000D01*
X151648895Y-104013000D01*
X150848287Y-103212392D01*
X150686125Y-103258905D01*
X150475554Y-103047966D01*
X150438999Y-103032787D01*
X151027892Y-103032787D01*
X151828500Y-103833395D01*
X152629108Y-103032787D01*
X152559643Y-102790603D01*
X152036198Y-102603856D01*
X151481132Y-102631638D01*
X151097357Y-102790603D01*
X151027892Y-103032787D01*
X150438999Y-103032787D01*
X150057075Y-102874198D01*
X149603953Y-102873803D01*
X149185171Y-103046840D01*
X148864486Y-103366966D01*
X148690718Y-103785445D01*
X148690323Y-104238567D01*
X137922000Y-104238567D01*
X137922000Y-101436569D01*
X160911975Y-101436569D01*
X161021342Y-101701258D01*
X161223677Y-101903946D01*
X161488175Y-102013775D01*
X161711048Y-102013970D01*
X165611539Y-105914461D01*
X165758568Y-106012702D01*
X165932000Y-106047200D01*
X174217204Y-106047200D01*
X174373677Y-106203946D01*
X174638175Y-106313775D01*
X174924569Y-106314025D01*
X175189258Y-106204658D01*
X175346991Y-106047200D01*
X178824881Y-106047200D01*
X178686118Y-106104536D01*
X178368650Y-106421449D01*
X178196627Y-106835729D01*
X178196235Y-107284303D01*
X178367536Y-107698882D01*
X178684449Y-108016350D01*
X179051180Y-108168629D01*
X174004171Y-108168629D01*
X173830739Y-108203127D01*
X173683710Y-108301368D01*
X173560910Y-108424168D01*
X173339431Y-108423975D01*
X173074742Y-108533342D01*
X172872054Y-108735677D01*
X172762225Y-109000175D01*
X172761975Y-109286569D01*
X172871342Y-109551258D01*
X173073677Y-109753946D01*
X173338175Y-109863775D01*
X173624569Y-109864025D01*
X173889258Y-109754658D01*
X174091946Y-109552323D01*
X174201775Y-109287825D01*
X174201961Y-109075029D01*
X178321488Y-109075029D01*
X178196627Y-109375729D01*
X178196235Y-109824303D01*
X178367536Y-110238882D01*
X178684449Y-110556350D01*
X179098729Y-110728373D01*
X179547303Y-110728765D01*
X179961882Y-110557464D01*
X180279350Y-110240551D01*
X180451373Y-109826271D01*
X180451765Y-109377697D01*
X180280464Y-108963118D01*
X179963551Y-108645650D01*
X179898347Y-108618575D01*
X181293551Y-107223371D01*
X181591964Y-107223371D01*
X181226118Y-107374536D01*
X180908650Y-107691449D01*
X180736627Y-108105729D01*
X180736235Y-108554303D01*
X180907536Y-108968882D01*
X181224449Y-109286350D01*
X181638729Y-109458373D01*
X182087303Y-109458765D01*
X182501882Y-109287464D01*
X182819350Y-108970551D01*
X182991373Y-108556271D01*
X182991765Y-108107697D01*
X182820464Y-107693118D01*
X182503551Y-107375650D01*
X182136820Y-107223371D01*
X189605829Y-107223371D01*
X189779261Y-107188873D01*
X189926290Y-107090632D01*
X193903090Y-103113832D01*
X194124569Y-103114025D01*
X194389258Y-103004658D01*
X194591946Y-102802323D01*
X194701775Y-102537825D01*
X194702025Y-102251431D01*
X194592658Y-101986742D01*
X194390323Y-101784054D01*
X194125825Y-101674225D01*
X193839431Y-101673975D01*
X193574742Y-101783342D01*
X193509488Y-101848483D01*
X193442658Y-101686742D01*
X193240323Y-101484054D01*
X192975825Y-101374225D01*
X192689431Y-101373975D01*
X192424742Y-101483342D01*
X192267009Y-101640800D01*
X182948389Y-101640800D01*
X182968671Y-101611117D01*
X182998955Y-101461570D01*
X182998955Y-99960430D01*
X182972667Y-99820722D01*
X182890100Y-99692410D01*
X182764117Y-99606329D01*
X182614570Y-99576045D01*
X181113430Y-99576045D01*
X180973722Y-99602333D01*
X180845410Y-99684900D01*
X180759329Y-99810883D01*
X180729045Y-99960430D01*
X180729045Y-101461570D01*
X180755333Y-101601278D01*
X180780765Y-101640800D01*
X180660174Y-101640800D01*
X180486742Y-101675298D01*
X180432652Y-101711440D01*
X180280464Y-101343118D01*
X179963551Y-101025650D01*
X179549271Y-100853627D01*
X179100697Y-100853235D01*
X178686118Y-101024536D01*
X178368650Y-101341449D01*
X178224163Y-101689415D01*
X177508287Y-100973539D01*
X177361258Y-100875298D01*
X177187826Y-100840800D01*
X173946796Y-100840800D01*
X173790323Y-100684054D01*
X173525825Y-100574225D01*
X173239431Y-100573975D01*
X172974742Y-100683342D01*
X172772054Y-100885677D01*
X172662225Y-101150175D01*
X172661975Y-101436569D01*
X172771342Y-101701258D01*
X172973677Y-101903946D01*
X173238175Y-102013775D01*
X173524569Y-102014025D01*
X173789258Y-101904658D01*
X173946991Y-101747200D01*
X177000104Y-101747200D01*
X178533536Y-103280632D01*
X178680565Y-103378873D01*
X178853997Y-103413372D01*
X178854002Y-103413371D01*
X179051964Y-103413371D01*
X178686118Y-103564536D01*
X178368650Y-103881449D01*
X178196627Y-104295729D01*
X178196235Y-104744303D01*
X178360065Y-105140800D01*
X175346796Y-105140800D01*
X175190323Y-104984054D01*
X174925825Y-104874225D01*
X174639431Y-104873975D01*
X174374742Y-104983342D01*
X174217009Y-105140800D01*
X166119722Y-105140800D01*
X162351832Y-101372910D01*
X162352025Y-101151431D01*
X162242658Y-100886742D01*
X162040323Y-100684054D01*
X161775825Y-100574225D01*
X161489431Y-100573975D01*
X161224742Y-100683342D01*
X161022054Y-100885677D01*
X160912225Y-101150175D01*
X160911975Y-101436569D01*
X137922000Y-101436569D01*
X137922000Y-97582000D01*
X146725070Y-97582000D01*
X146152506Y-97818579D01*
X146152506Y-97818579D01*
G37*
X146152506Y-97818579D02*
X145666266Y-98303970D01*
X145402791Y-98938489D01*
X145402191Y-99625536D01*
X145664559Y-100260514D01*
X146149950Y-100746754D01*
X146784469Y-101010229D01*
X147471516Y-101010829D01*
X148106494Y-100748461D01*
X148592734Y-100263070D01*
X148856209Y-99628551D01*
X148856809Y-98941504D01*
X148594441Y-98306526D01*
X148109050Y-97820286D01*
X147535193Y-97582000D01*
X186743164Y-97582000D01*
X186348332Y-97976144D01*
X186012393Y-98785175D01*
X186011628Y-99661181D01*
X186346155Y-100470798D01*
X186965044Y-101090768D01*
X187774075Y-101426707D01*
X188650081Y-101427472D01*
X189459698Y-101092945D01*
X190079668Y-100474056D01*
X190415607Y-99665025D01*
X190416372Y-98789019D01*
X190081845Y-97979402D01*
X189685136Y-97582000D01*
X195326000Y-97582000D01*
X195326000Y-112522000D01*
X189900832Y-112522000D01*
X190079668Y-112343476D01*
X190415607Y-111534445D01*
X190416372Y-110658439D01*
X190081845Y-109848822D01*
X189462956Y-109228852D01*
X188653925Y-108892913D01*
X187777919Y-108892148D01*
X186968302Y-109226675D01*
X186348332Y-109845564D01*
X186012393Y-110654595D01*
X186011628Y-111530601D01*
X186346155Y-112340218D01*
X186527620Y-112522000D01*
X148332310Y-112522000D01*
X148592734Y-112262030D01*
X148856209Y-111627511D01*
X148856809Y-110940464D01*
X148594441Y-110305486D01*
X148109050Y-109819246D01*
X147474531Y-109555771D01*
X146787484Y-109555171D01*
X146152506Y-109817539D01*
X145666266Y-110302930D01*
X145402791Y-110937449D01*
X145402191Y-111624496D01*
X145664559Y-112259474D01*
X145926626Y-112522000D01*
X137922000Y-112522000D01*
X137922000Y-106778567D01*
X148690323Y-106778567D01*
X148863360Y-107197349D01*
X149183486Y-107518034D01*
X149601965Y-107691802D01*
X150055087Y-107692197D01*
X150473869Y-107519160D01*
X150794554Y-107199034D01*
X150828880Y-107116369D01*
X150862340Y-107197349D01*
X151182466Y-107518034D01*
X151600945Y-107691802D01*
X152054067Y-107692197D01*
X152472849Y-107519160D01*
X152793534Y-107199034D01*
X152967302Y-106780555D01*
X152967697Y-106327433D01*
X152794660Y-105908651D01*
X152474534Y-105587966D01*
X152056055Y-105414198D01*
X151784291Y-105413961D01*
X152175868Y-105394362D01*
X152559643Y-105235397D01*
X152629108Y-104993213D01*
X151828500Y-104192605D01*
X151027892Y-104993213D01*
X151097357Y-105235397D01*
X151600380Y-105414858D01*
X151184151Y-105586840D01*
X150863466Y-105906966D01*
X150829140Y-105989631D01*
X150795680Y-105908651D01*
X150475554Y-105587966D01*
X150057075Y-105414198D01*
X149603953Y-105413803D01*
X149185171Y-105586840D01*
X148864486Y-105906966D01*
X148690718Y-106325445D01*
X148690323Y-106778567D01*
X137922000Y-106778567D01*
X137922000Y-104238567D01*
X148690323Y-104238567D01*
X148863360Y-104657349D01*
X149183486Y-104978034D01*
X149601965Y-105151802D01*
X150055087Y-105152197D01*
X150473869Y-104979160D01*
X150686264Y-104767135D01*
X150848287Y-104813608D01*
X151648895Y-104013000D01*
X152008105Y-104013000D01*
X152808713Y-104813608D01*
X153050897Y-104744143D01*
X153237644Y-104220698D01*
X153209862Y-103665632D01*
X153050897Y-103281857D01*
X152808713Y-103212392D01*
X152008105Y-104013000D01*
X151648895Y-104013000D01*
X150848287Y-103212392D01*
X150686125Y-103258905D01*
X150475554Y-103047966D01*
X150438999Y-103032787D01*
X151027892Y-103032787D01*
X151828500Y-103833395D01*
X152629108Y-103032787D01*
X152559643Y-102790603D01*
X152036198Y-102603856D01*
X151481132Y-102631638D01*
X151097357Y-102790603D01*
X151027892Y-103032787D01*
X150438999Y-103032787D01*
X150057075Y-102874198D01*
X149603953Y-102873803D01*
X149185171Y-103046840D01*
X148864486Y-103366966D01*
X148690718Y-103785445D01*
X148690323Y-104238567D01*
X137922000Y-104238567D01*
X137922000Y-101436569D01*
X160911975Y-101436569D01*
X161021342Y-101701258D01*
X161223677Y-101903946D01*
X161488175Y-102013775D01*
X161711048Y-102013970D01*
X165611539Y-105914461D01*
X165758568Y-106012702D01*
X165932000Y-106047200D01*
X174217204Y-106047200D01*
X174373677Y-106203946D01*
X174638175Y-106313775D01*
X174924569Y-106314025D01*
X175189258Y-106204658D01*
X175346991Y-106047200D01*
X178824881Y-106047200D01*
X178686118Y-106104536D01*
X178368650Y-106421449D01*
X178196627Y-106835729D01*
X178196235Y-107284303D01*
X178367536Y-107698882D01*
X178684449Y-108016350D01*
X179051180Y-108168629D01*
X174004171Y-108168629D01*
X173830739Y-108203127D01*
X173683710Y-108301368D01*
X173560910Y-108424168D01*
X173339431Y-108423975D01*
X173074742Y-108533342D01*
X172872054Y-108735677D01*
X172762225Y-109000175D01*
X172761975Y-109286569D01*
X172871342Y-109551258D01*
X173073677Y-109753946D01*
X173338175Y-109863775D01*
X173624569Y-109864025D01*
X173889258Y-109754658D01*
X174091946Y-109552323D01*
X174201775Y-109287825D01*
X174201961Y-109075029D01*
X178321488Y-109075029D01*
X178196627Y-109375729D01*
X178196235Y-109824303D01*
X178367536Y-110238882D01*
X178684449Y-110556350D01*
X179098729Y-110728373D01*
X179547303Y-110728765D01*
X179961882Y-110557464D01*
X180279350Y-110240551D01*
X180451373Y-109826271D01*
X180451765Y-109377697D01*
X180280464Y-108963118D01*
X179963551Y-108645650D01*
X179898347Y-108618575D01*
X181293551Y-107223371D01*
X181591964Y-107223371D01*
X181226118Y-107374536D01*
X180908650Y-107691449D01*
X180736627Y-108105729D01*
X180736235Y-108554303D01*
X180907536Y-108968882D01*
X181224449Y-109286350D01*
X181638729Y-109458373D01*
X182087303Y-109458765D01*
X182501882Y-109287464D01*
X182819350Y-108970551D01*
X182991373Y-108556271D01*
X182991765Y-108107697D01*
X182820464Y-107693118D01*
X182503551Y-107375650D01*
X182136820Y-107223371D01*
X189605829Y-107223371D01*
X189779261Y-107188873D01*
X189926290Y-107090632D01*
X193903090Y-103113832D01*
X194124569Y-103114025D01*
X194389258Y-103004658D01*
X194591946Y-102802323D01*
X194701775Y-102537825D01*
X194702025Y-102251431D01*
X194592658Y-101986742D01*
X194390323Y-101784054D01*
X194125825Y-101674225D01*
X193839431Y-101673975D01*
X193574742Y-101783342D01*
X193509488Y-101848483D01*
X193442658Y-101686742D01*
X193240323Y-101484054D01*
X192975825Y-101374225D01*
X192689431Y-101373975D01*
X192424742Y-101483342D01*
X192267009Y-101640800D01*
X182948389Y-101640800D01*
X182968671Y-101611117D01*
X182998955Y-101461570D01*
X182998955Y-99960430D01*
X182972667Y-99820722D01*
X182890100Y-99692410D01*
X182764117Y-99606329D01*
X182614570Y-99576045D01*
X181113430Y-99576045D01*
X180973722Y-99602333D01*
X180845410Y-99684900D01*
X180759329Y-99810883D01*
X180729045Y-99960430D01*
X180729045Y-101461570D01*
X180755333Y-101601278D01*
X180780765Y-101640800D01*
X180660174Y-101640800D01*
X180486742Y-101675298D01*
X180432652Y-101711440D01*
X180280464Y-101343118D01*
X179963551Y-101025650D01*
X179549271Y-100853627D01*
X179100697Y-100853235D01*
X178686118Y-101024536D01*
X178368650Y-101341449D01*
X178224163Y-101689415D01*
X177508287Y-100973539D01*
X177361258Y-100875298D01*
X177187826Y-100840800D01*
X173946796Y-100840800D01*
X173790323Y-100684054D01*
X173525825Y-100574225D01*
X173239431Y-100573975D01*
X172974742Y-100683342D01*
X172772054Y-100885677D01*
X172662225Y-101150175D01*
X172661975Y-101436569D01*
X172771342Y-101701258D01*
X172973677Y-101903946D01*
X173238175Y-102013775D01*
X173524569Y-102014025D01*
X173789258Y-101904658D01*
X173946991Y-101747200D01*
X177000104Y-101747200D01*
X178533536Y-103280632D01*
X178680565Y-103378873D01*
X178853997Y-103413372D01*
X178854002Y-103413371D01*
X179051964Y-103413371D01*
X178686118Y-103564536D01*
X178368650Y-103881449D01*
X178196627Y-104295729D01*
X178196235Y-104744303D01*
X178360065Y-105140800D01*
X175346796Y-105140800D01*
X175190323Y-104984054D01*
X174925825Y-104874225D01*
X174639431Y-104873975D01*
X174374742Y-104983342D01*
X174217009Y-105140800D01*
X166119722Y-105140800D01*
X162351832Y-101372910D01*
X162352025Y-101151431D01*
X162242658Y-100886742D01*
X162040323Y-100684054D01*
X161775825Y-100574225D01*
X161489431Y-100573975D01*
X161224742Y-100683342D01*
X161022054Y-100885677D01*
X160912225Y-101150175D01*
X160911975Y-101436569D01*
X137922000Y-101436569D01*
X137922000Y-97582000D01*
X146725070Y-97582000D01*
X146152506Y-97818579D01*
M02*
